<svg width="24" height="24" viewBox="0 0 24 24" fill="none" xmlns="http://www.w3.org/2000/svg">
<path d="M13.5174 13.0068C13.5674 13.7174 13.896 14.3842 14.438 14.8751C15.0162 15.4513 15.8159 15.7817 16.6299 15.7817H16.6335C19.0256 15.7783 19.6867 13.3439 19.8324 12.5975C20.381 9.79327 19.5682 7.12661 17.6062 5.28419C15.8456 3.56918 13.3492 2.76073 10.758 3.06178C7.63248 3.42711 3.44774 6.6801 4.06028 11.6064C4.25103 13.1489 5.02827 14.6305 6.2427 15.7738C8.15734 17.6433 11.6727 19.0403 15.7994 17.3524C16.4937 17.0694 16.9652 17.2949 17.2247 17.5215C17.6856 18.0018 17.8455 18.8058 17.5943 19.3944C17.4569 19.7157 17.1429 20.1059 16.4226 20.1735C16.2958 19.9999 16.2377 19.7168 16.1809 19.444C16.1418 19.213 16.0783 18.9863 15.9913 18.7674C15.9238 18.5149 15.7899 18.2984 15.6394 18.1845C15.567 18.0974 15.4764 18.0254 15.3735 17.9731C15.2706 17.9207 15.1574 17.889 15.0411 17.8801C14.4641 17.8462 14.0221 18.348 13.9747 19.0279C13.9439 19.4699 14.1074 19.8894 14.3717 20.0912C14.4463 20.178 14.5363 20.2491 14.5908 20.2693C15.0565 20.7564 15.9084 21 16.6524 21C16.9462 21 17.2223 20.9628 17.4522 20.8872C18.1074 20.673 18.5765 20.1352 18.7365 19.4135C18.9284 18.5611 18.6476 17.6546 18.0375 17.1133C17.6988 16.7695 17.2478 16.545 16.7579 16.4763C15.7875 16.3297 15.1702 16.6296 14.624 16.8935C14.3717 17.0152 14.1335 17.1302 13.8871 17.1832C11.6667 17.6681 9.60518 17.1449 8.08507 15.7219C6.56022 14.2324 5.78655 11.9649 6.11237 9.9421C6.48795 7.61258 8.63956 5.49278 11.117 5.01132C13.0577 4.63697 15.1252 5.01358 16.1335 5.92238C16.4534 6.24373 16.6346 6.61019 16.6702 7.01047C16.7792 8.24063 15.9948 9.0254 15.1643 9.85754C14.3065 10.7145 13.4226 11.6007 13.5174 13.0068Z" fill="#fff"/>
</svg>
