<svg width="14" height="14" viewBox="0 0 14 14" fill="none" xmlns="http://www.w3.org/2000/svg">
<g clip-path="url(#clip0)">
<path d="M11.416 12.6094H11.0792V11.6512C11.0775 11.1129 10.9643 10.5808 10.7468 10.0884C10.5293 9.59605 10.2121 9.15405 9.81534 8.7903L8.01525 7.1453L9.85967 5.36385C10.2317 5.00153 10.5282 4.56899 10.7319 4.09128C10.9356 3.61357 11.0425 3.10018 11.0464 2.58086V1.39058H11.416C11.5075 1.3909 11.5982 1.37316 11.6829 1.33836C11.7675 1.30356 11.8444 1.2524 11.9093 1.18781C11.9741 1.12321 12.0255 1.04645 12.0606 0.961934C12.0957 0.877417 12.1138 0.786802 12.1138 0.695288C12.1138 0.603773 12.0957 0.513159 12.0606 0.428641C12.0255 0.344124 11.9741 0.267366 11.9093 0.20277C11.8444 0.138175 11.7675 0.0870116 11.6829 0.0522156C11.5982 0.0174195 11.5075 -0.000325039 11.416 -3.92985e-07H2.58313C2.39916 0.000652257 2.22294 0.0741935 2.09308 0.204515C1.96322 0.334836 1.89031 0.511312 1.89031 0.695288C1.89031 0.879263 1.96322 1.05574 2.09308 1.18606C2.22294 1.31638 2.39916 1.38992 2.58313 1.39058H2.95318V2.58088C2.95693 3.1003 3.06386 3.6138 3.26774 4.09155C3.47162 4.5693 3.76839 5.00177 4.14081 5.36386L5.98919 7.15149L4.23694 8.79999C3.85307 9.16421 3.54722 9.60264 3.33796 10.0887C3.1287 10.5747 3.0204 11.0982 3.01962 11.6273V12.6094H2.58313C2.39915 12.61 2.22293 12.6836 2.09306 12.8139C1.9632 12.9442 1.89028 13.1207 1.89028 13.3047C1.89028 13.4887 1.9632 13.6652 2.09306 13.7955C2.22293 13.9258 2.39915 13.9993 2.58313 14H11.416C11.5075 14.0003 11.5982 13.9826 11.6829 13.9478C11.7675 13.913 11.8445 13.8618 11.9093 13.7972C11.9741 13.7326 12.0255 13.6559 12.0606 13.5713C12.0957 13.4868 12.1138 13.3962 12.1138 13.3047C12.1138 13.2132 12.0957 13.1225 12.0606 13.038C12.0255 12.9535 11.9741 12.8767 11.9093 12.8122C11.8445 12.7476 11.7675 12.6964 11.6829 12.6616C11.5982 12.6268 11.5075 12.609 11.416 12.6094V12.6094ZM4.74553 3.91212C4.48861 3.51452 4.34904 3.05252 4.34285 2.57917V1.39058H9.65585V2.57731C9.65038 3.05631 9.50837 3.5238 9.24649 3.9249C9.22581 3.91904 9.20472 3.91477 9.18339 3.91212H4.74553ZM4.40934 11.6274C4.4098 11.2878 4.47933 10.9518 4.61372 10.6399C4.7481 10.328 4.94453 10.0467 5.19104 9.81313L7.00842 8.10611L8.8794 9.81575C9.13399 10.0494 9.3374 10.3333 9.47681 10.6496C9.61623 10.9658 9.68864 11.3074 9.68946 11.653V11.825H4.40934V11.6274Z" fill="black"/>
</g>
<defs>
<clipPath id="clip0">
<rect width="14" height="14" fill="white"/>
</clipPath>
</defs>
</svg>
