<svg width="14" height="14" viewBox="0 0 14 14" fill="none" xmlns="http://www.w3.org/2000/svg">
<g clip-path="url(#clip0)">
<path d="M7 2.4259C3.91208 2.4259 1.25071 4.24621 0.0281607 6.87304C-0.0093869 6.95264 -0.0093869 7.04576 0.0281607 7.12686C1.25071 9.75368 3.9121 11.574 7 11.574C10.0879 11.574 12.7493 9.75369 13.9718 7.12686C14.0094 7.04726 14.0094 6.95414 13.9718 6.87304C12.7493 4.24621 10.0879 2.4259 7 2.4259ZM7 10.1562C5.25629 10.1562 3.8445 8.74291 3.8445 7.0007C3.8445 5.25699 5.25779 3.8452 7 3.8452C8.74371 3.8452 10.1555 5.25849 10.1555 7.0007C10.1555 8.74291 8.74221 10.1562 7 10.1562Z" fill="black"/>
<path d="M6.99998 9.01922C8.11563 9.01922 9.02004 8.11481 9.02004 6.99917C9.02004 5.88353 8.11563 4.97913 6.99998 4.97913C5.88433 4.97913 4.97992 5.88353 4.97992 6.99917C4.97992 8.11481 5.88433 9.01922 6.99998 9.01922Z" fill="black"/>
</g>
<defs>
<clipPath id="clip0">
<rect width="14" height="14" fill="white"/>
</clipPath>
</defs>
</svg>
