<svg xmlns="http://www.w3.org/2000/svg" width="20" height="20">
	<path fill="#fff"
		  d="m14.97239,1.21212c1.78902,0.00263 3.41095,1.04819 4.1502,2.6738c0.73925,1.62561 0.45921,3.53232 -0.71666,4.87789l-5.68019,5.67494c-0.72191,0.7424 -1.71441,1.16063 -2.75104,1.15958c-1.04136,0 -2.03858,-0.41928 -2.7668,-1.1622l-0.39406,-0.3888l1.92562,-1.92194l0.40982,0.40614c0.21174,0.22698 0.50754,0.35623 0.81754,0.35833c0.31209,0.00368 0.6121,-0.11979 0.83067,-0.34152l5.44796,-5.43693c0.29948,-0.33311 0.46341,-0.76605 0.45921,-1.21369c0.0042,-0.48863 -0.18705,-0.9594 -0.53171,-1.30669c-0.34467,-0.34729 -0.81386,-0.54275 -1.30406,-0.54327c-0.45027,-0.00525 -0.88636,0.1592 -1.22052,0.46078l-8.19637,8.18061l-3.9227,-3.9311c-0.72401,-0.83382 -1.12175,-1.9004 -1.1207,-3.00376c0.00683,-1.81003 1.08654,-3.44458 2.75051,-4.16439c1.66397,-0.72033 3.59747,-0.38933 4.92623,0.84275l0.55798,0.55641l-1.93508,1.93088c0,0 -0.30841,-0.31892 -0.4177,-0.41507c-0.33311,-0.29843 -0.76552,-0.46131 -1.21317,-0.45711c-0.48916,-0.00263 -0.9594,0.18915 -1.30669,0.53381c-0.34677,0.34414 -0.5417,0.81228 -0.54117,1.30039c-0.00578,0.45133 0.15815,0.88794 0.45973,1.22368l1.74908,1.74541l6.10945,-6.09001c0.8643,-0.98514 2.11267,-1.54995 3.42461,-1.5489z"
		  clip-rule="evenodd" fill-rule="evenodd"/>
</svg>
