<svg xmlns="http://www.w3.org/2000/svg" width="20" height="16" viewBox="0 0 20 16">
  <g fill="none" fill-rule="evenodd">
    <polyline fill="#069" points="10.005 11.539 3.35 7.697 .022 9.618 10.005 15.382 19.988 9.618 16.661 7.697 10.005 11.539"/>
    <polyline fill="#3C9" points="16.661 7.697 19.988 5.776 10.005 .012 .022 5.776 3.35 7.697 10.005 3.854 16.661 7.697"/>
    <path fill="#FFF" d="M16.6605677,7.69670959 L10.0052434,3.85426615 L3.34991915,7.69670959 L6.81975324,9.70002784 C6.38295082,10.0980671 5.96804886,10.4780369 5.89115595,10.5549298 C5.53664615,10.9094396 5.53664615,11.4648242 5.89115595,11.8193039 C6.06298099,11.9911289 6.28789803,12.0857895 6.52439879,12.0858197 C6.52442895,12.0858197 6.52442895,12.0858197 6.52442895,12.0858197 C6.75954207,12.0858197 6.98364464,11.9911591 7.15549984,11.8193039 C7.2518196,11.7230143 7.82349381,11.0965588 8.31070346,10.5608121 L10.0052434,11.5391832 L16.6605677,7.69670959"/>
    <path fill="#000" d="M11.3626793,7.69670959 C11.362619,8.04449239 11.2302208,8.39236569 10.9655149,8.65719224 C10.7090745,8.9136025 10.3680489,9.05477897 10.0053339,9.05477897 C10.0053038,9.05477897 10.0052736,9.05477897 10.0052434,9.05477897 L10.0052434,8.70862512 C10.0052736,8.70862512 10.0053038,8.70862512 10.0053339,8.70862512 C10.2756507,8.70862512 10.529708,8.60346675 10.7206884,8.41251652 C10.9179734,8.21511079 11.0166461,7.95589511 11.0167065,7.69670959 L11.3626793,7.69670959 Z M10.0051831,9.40919827 C9.55013031,9.40916811 9.12213634,9.23185287 8.80023589,8.90998259 C8.4783656,8.5881123 8.30108054,8.16008817 8.3010202,7.70485438 C8.3010202,6.76518621 9.06554509,6.00063115 10.0053339,6.00063115 C10.4605074,6.00072165 10.8885918,6.17812738 11.2105225,6.50002784 C11.5323324,6.82186796 11.7095873,7.24980159 11.7095873,7.70491471 C11.7095572,8.64443206 10.9449719,9.40898711 10.0051831,9.40919827 Z M10.0053038,5.48141547 C8.77709863,5.48141547 7.78177435,6.47676992 7.78180452,7.70488455 C7.78186485,8.22796147 7.96295082,8.70847429 8.2651831,9.08817263 C8.12681206,9.21363266 6.41052247,10.7698619 6.25830527,10.9220791 C6.09966274,11.0807217 6.11194026,11.3058197 6.25830527,11.4521545 C6.40467028,11.5985497 6.62976832,11.6107971 6.78838069,11.4521545 C6.94062805,11.2999072 8.49706847,9.58340642 8.62231734,9.44524654 C9.00198551,9.74735815 9.48237767,9.92835363 10.0053339,9.92841396 C11.2331469,9.92814247 12.228803,8.93308968 12.2288332,7.70491471 C12.228803,6.47676992 11.2331771,5.48174729 10.0053038,5.48141547 L10.0053038,5.48141547 Z"/>
  </g>
</svg>
