<svg width="13" height="13" viewBox="0 0 13 13" xmlns="http://www.w3.org/2000/svg">
<path fill-rule="evenodd" clip-rule="evenodd" d="M12.2187 2.13389C12.7069 1.64573 12.7069 0.854277 12.2187 0.36612C11.7305 -0.122038 10.9391 -0.12204 10.4509 0.366114L6.29242 4.5246L2.1339 0.366114C1.64575 -0.12204 0.854289 -0.122038 0.366136 0.36612C-0.122018 0.854277 -0.122016 1.64573 0.366141 2.13389L4.52465 6.29236L0.36612 10.4509C-0.122038 10.939 -0.12204 11.7305 0.366114 12.2186C0.854267 12.7068 1.64572 12.7068 2.13388 12.2186L6.29242 8.06012L10.451 12.2186C10.9391 12.7068 11.7306 12.7068 12.2187 12.2186C12.7069 11.7305 12.7069 10.939 12.2187 10.4509L8.06019 6.29236L12.2187 2.13389Z" fill="#bbbbbb"/>
</svg>
