<svg width="62" height="56" viewBox="0 0 62 56" fill="none" xmlns="http://www.w3.org/2000/svg">
<path d="M10 11H52C54.7614 11 57 13.2386 57 16V46C57 48.7614 54.7614 51 52 51H10C7.23858 51 5 48.7614 5 46V16C5 13.2386 7.23858 11 10 11Z" fill="#D9F4F4" stroke="#1B2F40" stroke-width="1.8" stroke-linecap="round" stroke-linejoin="round"/>
<path d="M36.6713 4.18109L29 11H47L39.3287 4.18109C38.571 3.50752 37.429 3.50752 36.6713 4.18109Z" fill="white" stroke="#1B2F40" stroke-width="1.8" stroke-linecap="round" stroke-linejoin="round"/>
<path d="M24.6547 2.22304L15 11H37L27.3453 2.22304C26.5825 1.52955 25.4175 1.52955 24.6547 2.22304Z" fill="white" stroke="#1B2F40" stroke-width="1.8" stroke-linecap="round" stroke-linejoin="round"/>
<path d="M61 34V28C61 26.8954 60.1046 26 59 26H49C46.2386 26 44 28.2386 44 31C44 33.7614 46.2386 36 49 36H59C60.1046 36 61 35.1046 61 34Z" fill="#D9F4F4" stroke="#1B2F40" stroke-width="1.8" stroke-linecap="round" stroke-linejoin="round"/>
<circle cx="49" cy="31" r="2" stroke="#1B2F40" stroke-width="1.5"/>
<path d="M12 29C8.59018 31.5583 4.87299 33.3281 1 35.0667V42.8667C1 49.8 10.3077 55 12 55C13.6923 55 23 49.8 23 42.8667V35.0667C19.1275 33.3281 15.4098 31.5583 12 29Z" fill="white" stroke="#1B2F40" stroke-width="1.8" stroke-linecap="round" stroke-linejoin="round"/>
<path d="M8 42.5L10.5 45L16 39.5" stroke="#1B2F40" stroke-width="1.8" stroke-linecap="round" stroke-linejoin="round"/>
</svg>
