<svg width="66" height="66" viewBox="0 0 66 66" fill="none" xmlns="http://www.w3.org/2000/svg">
<path d="M52 33C52 38.2467 49.8734 42.9967 46.435 46.435C42.9967 49.8734 38.2467 52 33 52C27.7533 52 23.0033 49.8734 19.565 46.435C16.1266 42.9967 14 38.2467 14 33C14 27.7533 16.1266 23.0033 19.565 19.565C23.0033 16.1266 27.7533 14 33 14C38.2467 14 42.9967 16.1266 46.435 19.565C49.8734 23.0033 52 27.7533 52 33Z" fill="#D9F4F4"/>
<path d="M52 33C52 27.7533 49.8734 23.0033 46.435 19.565M52 33H58M52 33C52 38.2467 49.8734 42.9967 46.435 46.435M33 52C38.2467 52 42.9967 49.8734 46.435 46.435M33 52V58M33 52C27.7533 52 23.0033 49.8734 19.565 46.435M14 33C14 27.7533 16.1266 23.0033 19.565 19.565M14 33C14 38.2467 16.1266 42.9967 19.565 46.435M14 33H8M33 14C27.7533 14 23.0033 16.1266 19.565 19.565M33 14C38.2467 14 42.9967 16.1266 46.435 19.565M33 14V8M14 14L19.565 19.565M52 14L46.435 19.565M52 52L46.435 46.435M14 52L19.565 46.435" stroke="#1B2F40" stroke-width="1.8"/>
<circle cx="61" cy="33" r="4" fill="white" stroke="#1B2F40" stroke-width="1.8"/>
<circle cx="5" cy="33" r="4" fill="white" stroke="#1B2F40" stroke-width="1.8"/>
<circle cx="33" cy="5" r="4" fill="white" stroke="#1B2F40" stroke-width="1.8"/>
<circle cx="33" cy="61" r="4" fill="white" stroke="#1B2F40" stroke-width="1.8"/>
<circle cx="54" cy="12" r="4" fill="white" stroke="#1B2F40" stroke-width="1.8"/>
<circle r="4" transform="matrix(-1 0 0 1 12 12)" fill="white" stroke="#1B2F40" stroke-width="1.8"/>
<circle cx="12" cy="54" r="4" fill="white" stroke="#1B2F40" stroke-width="1.8"/>
<circle r="4" transform="matrix(-1 0 0 1 54 54)" fill="white" stroke="#1B2F40" stroke-width="1.8"/>
<path d="M33 20C29.5902 22.5583 25.873 24.3281 22 26.0667V33.8667C22 40.8 31.3077 46 33 46C34.6923 46 44 40.8 44 33.8667V26.0667C40.1275 24.3281 36.4098 22.5583 33 20Z" fill="white" stroke="#1B2F40" stroke-width="1.8" stroke-linecap="round" stroke-linejoin="round"/>
<path d="M29 32L31.5 34.5L37 29" stroke="#1B2F40" stroke-width="1.8" stroke-linecap="round" stroke-linejoin="round"/>
<rect x="32" y="40" width="2" height="3" rx="1" fill="#1B2F40"/>
<rect x="35" y="40" width="2" height="3" rx="1" fill="#1B2F40"/>
<rect x="38" y="40" width="2" height="3" rx="1" fill="#1B2F40"/>
<rect x="26" y="40" width="2" height="3" rx="1" fill="#1B2F40"/>
<rect x="29" y="40" width="2" height="3" rx="1" fill="#1B2F40"/>
</svg>
