<svg width="50" height="54" viewBox="0 0 50 54" fill="none" xmlns="http://www.w3.org/2000/svg">
<path d="M44 53H6C3.23858 53 1 50.7614 1 48V26.6627C1 25.6284 1.53286 24.667 2.41 24.1187L9 20V31.5L25 40.5909L41 31.5V20L47.59 24.1187C48.4671 24.667 49 25.6284 49 26.6627V48C49 50.7614 46.7614 53 44 53Z" fill="#D9F4F4"/>
<path d="M49 27V48C49 50.7614 46.7614 53 44 53H6C3.23858 53 1 50.7614 1 48V27M49 27V26.5439C49 25.575 48.5321 24.6658 47.7437 24.1027L42 20M49 27L42 30.9375M1 27V26.5439C1 25.575 1.4679 24.6658 2.25629 24.1027L8 20M1 27L8 30.9375M42 20V13M42 20V30.9375M8 20V6C8 3.23858 10.2386 1 13 1H30M8 20V30.9375M42 13L30 1M42 13H33C31.3431 13 30 11.6569 30 10V1M42 30.9375L25 40.5L9 31.5L8 30.9375" stroke="#1B2F40" stroke-width="1.8" stroke-linecap="round" stroke-linejoin="round"/>
<path d="M34 22C34 26.9706 29.9706 31 25 31C20.0294 31 16 26.9706 16 22C16 17.0294 20.0294 13 25 13C29.9706 13 34 17.0294 34 22Z" fill="#D9F4F4" stroke="#1B2F40" stroke-width="1.8"/>
<path d="M28 20L24 24L22 22" stroke="#1B2F40" stroke-width="1.8" stroke-linecap="round" stroke-linejoin="round"/>
</svg>
