<svg width="56" height="56" viewBox="0 0 56 56" fill="none" xmlns="http://www.w3.org/2000/svg">
<path d="M12.8523 49.8679L16.7116 46.6722C18.5851 47.8182 20.6196 48.6774 22.7474 49.2212L23.2298 54.1936C23.2797 54.6648 23.686 55.017 24.1595 54.9994H31.821C32.2945 55.0169 32.7006 54.6647 32.7504 54.1936L33.2328 49.2023C35.3645 48.6712 37.4022 47.8165 39.275 46.668L43.1276 49.8631C43.4981 50.171 44.042 50.1465 44.3833 49.8066L49.7874 44.4037C50.1277 44.0631 50.1533 43.5197 49.8464 43.1487L46.6508 39.2894C47.7968 37.4156 48.6559 35.3809 49.1997 33.2528L54.1499 32.7704C54.6293 32.7246 54.9965 32.3237 55 31.842V24.1807C54.997 23.6984 54.6293 23.2968 54.1492 23.2512L49.1354 22.7688C48.6004 20.6365 47.7419 18.5988 46.5898 16.7265L49.78 12.874C50.0857 12.5045 50.0618 11.9635 49.7247 11.6224L44.3884 6.21799C44.0482 5.87316 43.5009 5.84572 43.1279 6.15481L39.2686 9.35055C37.3951 8.20445 35.3607 7.34526 33.2328 6.80155L32.7504 1.81761C32.7017 1.34419 32.2968 0.988056 31.821 1.00031H24.1595C23.6838 0.988132 23.2789 1.34423 23.2301 1.81761L22.7477 6.81462C20.6158 7.3467 18.578 8.20242 16.7054 9.35195L12.8523 6.15823C12.4817 5.8505 11.9378 5.87523 11.5966 6.21534L6.19248 11.6185C5.85191 11.9592 5.82636 12.503 6.1335 12.874L9.32927 16.7332C8.18314 18.6066 7.32395 20.6411 6.78025 22.7689L1.80717 23.2513C1.33585 23.301 0.983432 23.7071 1.0006 24.1807V31.842C0.983812 32.3155 1.33602 32.7214 1.80717 32.7715L6.79877 33.2539C7.32992 35.3857 8.1847 37.4235 9.33332 39.2962L6.13833 43.1493C5.83042 43.5198 5.85489 44.0637 6.19481 44.405L11.5982 49.8089C11.9383 50.1494 12.4817 50.1749 12.8523 49.8679Z" fill="#D9F4F4" stroke="#1B2F40" stroke-width="1.9"/>
<path d="M44.1 27.9999C44.1001 36.8917 36.8919 44.0999 28.0002 44.1C19.1125 44.0895 11.9103 36.8872 11.9 27.9995C11.9003 19.108 19.1083 11.9 27.9999 11.9C36.8917 11.9 44.0999 19.1081 44.1 27.9999Z" fill="white" stroke="#1B2F40" stroke-width="1.8"/>
<path d="M33.75 24L25.75 32L22.25 28.5" stroke="#1B2F40" stroke-width="2" stroke-linecap="round" stroke-linejoin="round"/>
</svg>
