<svg width="48" height="48" fill="none" xmlns="http://www.w3.org/2000/svg"><path d="M24 48c13.255 0 24-10.745 24-24S37.255 0 24 0 0 10.745 0 24s10.745 24 24 24z"/><path d="M24 44c11.046 0 20-8.954 20-20S35.046 4 24 4 4 12.954 4 24s8.954 20 20 20z" fill="currentColor"/><path d="M31 21a2 2 0 012 2v4.026a2 2 0 01-1.063 1.767l-7 3.71a2 2 0 01-1.874 0l-7-3.71A2 2 0 0115 27.026V23a2 2 0 012-2h14zM14 21h-1v10h1V21z" fill="#fff"/><path d="M13.5 30l1.5 4h-3l1.5-4z" fill="#fff"/><path d="M37.791 19.017l-13.36-6.366a1 1 0 00-.861 0l-13.361 6.366a1 1 0 00.004 1.808l13.361 6.287a1 1 0 00.852 0l13.361-6.287a1 1 0 00.004-1.808z" fill="#fff" stroke="currentColor"/><path d="M24 21a1 1 0 100-2 1 1 0 000 2z" fill="currentColor"/><circle cx="13.5" cy="31" r="1" fill="#fff"/></svg>