<svg viewBox="0 0 32 32" xmlns="http://www.w3.org/2000/svg"><path d="M29.833 7.963a15.921 15.921 0 00-5.818-5.819C21.565.714 18.89 0 15.989 0c-2.9 0-5.576.715-8.026 2.144a15.917 15.917 0 00-5.818 5.819C.715 10.413 0 13.088 0 15.989c0 2.9.715 5.575 2.144 8.025a15.922 15.922 0 005.82 5.819c2.449 1.43 5.124 2.144 8.025 2.144 2.9 0 5.576-.715 8.025-2.144a15.92 15.92 0 005.82-5.819c1.428-2.45 2.143-5.125 2.143-8.025 0-2.901-.715-5.577-2.144-8.026zm-3.477 5.59L15.052 24.857a1.304 1.304 0 01-.958.396 1.28 1.28 0 01-.937-.396l-7.536-7.536a1.272 1.272 0 01-.375-.937c0-.388.125-.708.375-.958l1.894-1.873c.264-.264.576-.396.937-.396.361 0 .674.132.937.396l4.705 4.705 8.494-8.473a1.28 1.28 0 01.937-.396c.36 0 .673.132.937.396l1.894 1.874c.25.25.375.568.375.957 0 .375-.125.687-.375.937z" fill="currentColor" fill-rule="nonzero"/></svg>