<?xml version="1.0" encoding="UTF-8" standalone="no"?>
<!DOCTYPE svg PUBLIC "-//W3C//DTD SVG 1.1//EN" "http://www.w3.org/Graphics/SVG/1.1/DTD/svg11.dtd">
<svg width="100%" height="100%" viewBox="0 0 20 20" version="1.1" xmlns="http://www.w3.org/2000/svg" xmlns:xlink="http://www.w3.org/1999/xlink" xml:space="preserve" style="fill-rule:evenodd;clip-rule:evenodd;stroke-linejoin:round;stroke-miterlimit:1.41421;">
    <g>
        <path d="M15.55,6c-0.7,0 -2.1,-1.1 -2.1,-1.8l0,-4.2l-10.2,0c-1.5,0 -2.8,1.1 -2.8,2.5l0,14.6c0,1.4 1.3,2.9 2.8,2.9l13.7,0c1.4,0 2.6,-1.5 2.6,-2.8l0,-11.2l-4,0Z" style="fill:#118df0;fill-rule:nonzero;" />
        <path d="M13.45,4.3c0,0.8 0.8,1.7 2,1.7l4,0l-6,-6l0,4.3Z" style="fill:#184e9e;fill-rule:nonzero;" />
        <path id="Dollar_x5F_sign_6_" d="M11.85,7.5c-0.3,-0.2 -0.5,-0.4 -0.8,-0.5c-0.3,-0.1 -0.5,-0.2 -0.9,-0.2c-0.3,0.1 -0.6,0.2 -0.8,0.3c-0.2,0.2 -0.3,0.5 -0.3,0.8c0,0.2 0.1,0.4 0.3,0.6c0.2,0.2 0.4,0.3 0.7,0.4c0.3,0.1 0.6,0.3 0.9,0.4c0.3,0.1 0.6,0.3 0.9,0.5c0.3,0.2 0.5,0.4 0.7,0.7c0.2,0.3 0.3,0.6 0.3,1c0,0.6 -0.2,1.1 -0.6,1.5c-0.4,0.4 -0.9,0.7 -1.6,0.8l0,1.3l-1.1,0l0,-1.2c-0.4,0 -0.9,-0.1 -1.3,-0.3c-0.4,-0.2 -0.8,-0.4 -1.1,-0.6l0.7,-1c0.3,0.2 0.7,0.4 1,0.6c0.3,0.1 0.7,0.2 1.1,0.2c0.5,0 0.8,-0.1 1,-0.3c0.2,-0.2 0.3,-0.4 0.3,-0.8c0,-0.3 -0.1,-0.5 -0.3,-0.7c-0.2,-0.2 -0.4,-0.3 -0.7,-0.5c-0.3,-0.1 -0.6,-0.3 -0.9,-0.4c-0.3,-0.2 -0.6,-0.4 -0.9,-0.5c-0.3,-0.2 -0.5,-0.4 -0.7,-0.7c-0.2,-0.3 -0.3,-0.6 -0.3,-1c0,-0.6 0.2,-1.1 0.6,-1.4c0.4,-0.4 0.9,-0.6 1.5,-0.7l0,-1.3l1.1,0l0,1.2c0.4,0 0.8,0.2 1.2,0.3c0.3,0.2 0.6,0.4 0.9,0.6l-0.9,0.9Z" style="fill:#fff;fill-rule:nonzero;" />
    </g>
</svg>