<svg width="48" height="48" fill="none" xmlns="http://www.w3.org/2000/svg"><path d="M24 48c13.255 0 24-10.745 24-24S37.255 0 24 0 0 10.745 0 24s10.745 24 24 24z"/><path d="M24 44c11.046 0 20-8.954 20-20S35.046 4 24 4 4 12.954 4 24s8.954 20 20 20z" fill="currentColor"/><path d="M24.12 10l5.257 4.078 6.252-1.994-2.265 6.253 3.896 5.346-6.705-.181-3.897 5.256-1.812-6.343-6.253-2.085 5.437-3.715.09-6.615zM14.43 24.407l3.716 2.9 4.53-1.359-1.63 4.44 2.809 3.897-4.803-.182L16.242 38l-1.358-4.621-4.531-1.541 3.987-2.628.09-4.803z" fill="#fff"/></svg>