<svg viewBox="0 0 32 30" xmlns="http://www.w3.org/2000/svg"><path d="M31.652 26.276L17.973 1.196a2.272 2.272 0 00-.838-.872 2.208 2.208 0 00-1.157-.32c-.416 0-.802.106-1.158.32a2.274 2.274 0 00-.837.873L.303 26.277c-.415.748-.404 1.496.036 2.244.202.344.478.617.828.819.35.202.728.303 1.131.303h27.36c.404 0 .78-.101 1.13-.303.351-.202.627-.475.83-.82.439-.747.45-1.495.034-2.244zm-13.394-1.781a.57.57 0 01-.169.418.548.548 0 01-.4.17h-3.42a.547.547 0 01-.401-.17.568.568 0 01-.17-.418V21.11c0-.167.057-.306.17-.419a.547.547 0 01.4-.169h3.42c.155 0 .288.056.401.17.113.112.17.251.17.418v3.384zm-.035-6.662a.399.399 0 01-.187.294.724.724 0 01-.419.116h-3.295a.768.768 0 01-.428-.116c-.119-.077-.178-.175-.178-.294l-.303-8.14c0-.166.06-.29.178-.374.155-.13.297-.196.428-.196h3.919c.13 0 .273.065.427.196a.392.392 0 01.178.339l-.32 8.175z" fill="currentColor" fill-rule="nonzero"/></svg>