<svg width="48" height="48" fill="none" xmlns="http://www.w3.org/2000/svg"><path d="M24 48c13.255 0 24-10.745 24-24S37.255 0 24 0 0 10.745 0 24s10.745 24 24 24z"/><path d="M24 44c11.046 0 20-8.954 20-20S35.046 4 24 4 4 12.954 4 24s8.954 20 20 20z" fill="currentColor"/><path d="M24 31a7 7 0 100-14 7 7 0 000 14z" fill="#fff"/><path stroke="#fff" stroke-width="2" stroke-linecap="round" d="M24 10v4M38 24h-4M24 34v4M14 24h-4M34.314 14.101l-2.829 2.828M16.636 31.778l-2.828 2.829M33.9 34.314l-2.829-2.829M16.222 16.636l-2.829-2.828"/></svg>