<svg width="48" height="48" fill="none" xmlns="http://www.w3.org/2000/svg"><path d="M24 48c13.255 0 24-10.745 24-24S37.255 0 24 0 0 10.745 0 24s10.745 24 24 24z"/><path d="M24 44c11.046 0 20-8.954 20-20S35.046 4 24 4 4 12.954 4 24s8.954 20 20 20z" fill="currentColor"/><path d="M24.626 12.986c-.954-2.914-3.933-4.235-6.73-3.828.283 2.819 2.138 5.414 4.99 5.82 1.677.24 2.27-.37 1.74-1.992zM29.172 16c-2.334 0-4.155.478-5.1 1.913C23.124 16.478 21.304 16 18.97 16c-13.82 0-7.198 22 1.317 22 1.892 0 2.838-.946 3.784-.946.946 0 1.892.946 3.785.946 8.041 0 15.137-22 1.316-22z" fill="#fff"/></svg>