<?xml version="1.0" encoding="utf-8"?>
<svg version="1.1" xmlns="http://www.w3.org/2000/svg" xmlns:xlink="http://www.w3.org/1999/xlink" x="0px" y="0px" viewBox="0 0 22.2 20" style="enable-background:new 0 0 22.2 20;" xml:space="preserve">
  <path style="fill: currentColor;" d="M13.5,4.7c-4.8,0-8.7,3.4-8.7,7.6S8.6,20,13.5,20c1.7,0,3.4-0.4,4.7-1.2c1.2,0.7,2.6,0.7,3.3,0.6
  c0.2,0,0.3-0.3,0.1-0.4c-0.7-0.5-1.1-1.2-1.4-1.8c1.2-1.3,1.9-3,1.9-4.8C22.2,8.1,18.3,4.7,13.5,4.7z M14.1,15.5
  c0,0.2-0.2,0.4-0.4,0.4h-0.9c-0.2,0-0.4-0.2-0.4-0.4v-0.6c0-0.2,0.2-0.4,0.4-0.4h0.9c0.2,0,0.4,0.2,0.4,0.4V15.5z M15.4,12.1
  c-0.2,0.3-0.5,0.6-0.9,0.8c-0.2,0.1-0.3,0.3-0.4,0.4c0,0.1-0.1,0.2-0.1,0.4c0,0.1-0.1,0.2-0.2,0.2h-1.1c-0.1,0-0.3-0.1-0.2-0.3
  c0-0.3,0.1-0.5,0.2-0.7c0.1-0.2,0.4-0.5,0.8-0.7c0.2-0.1,0.4-0.3,0.5-0.5c0.1-0.2,0.2-0.4,0.2-0.7c0-0.3-0.1-0.5-0.2-0.6
  c-0.1-0.2-0.3-0.2-0.6-0.2c-0.2,0-0.4,0.1-0.5,0.2c-0.1,0.1-0.1,0.2-0.2,0.3c0,0.2-0.2,0.3-0.4,0.3l-1,0c-0.1,0-0.2-0.1-0.2-0.2
  c0-0.5,0.2-0.9,0.6-1.2c0.4-0.3,1-0.5,1.7-0.5c0.7,0,1.3,0.2,1.7,0.6c0.4,0.4,0.6,0.9,0.6,1.5C15.8,11.4,15.7,11.8,15.4,12.1z
   M1.6,10.3C0.6,9.2,0,7.8,0,6.3C0,2.8,3.2,0,7.2,0c2.7,0,5.1,1.3,6.3,3.2l0,0c-5.3,0-9.7,3.7-10.2,8.4l0,0c-1,0.6-2.1,0.6-2.7,0.5
  c-0.2,0-0.2-0.3-0.1-0.4C1.1,11.3,1.4,10.8,1.6,10.3z"/>
</svg>
