<svg width="48" height="48" fill="none" xmlns="http://www.w3.org/2000/svg"><path d="M37.764 23.484v6.193a2 2 0 01-1.103 1.787l-11.764 5.907a2 2 0 01-1.794 0l-11.764-5.907a2 2 0 01-1.103-1.787v-6.193L24 30.366l13.764-6.882z" fill="currentColor"/><path d="M8 19H7v15h1V19zM7.492 34l2.242 5.98H5.25L7.492 34z"/><path d="M23.757 8.056a.553.553 0 01.486 0l20.08 9.805c.431.21.43.838-.002 1.046l-20.08 9.684a.553.553 0 01-.482 0L3.68 18.907a.585.585 0 01-.003-1.046l20.081-9.805z" fill="currentColor"/><path d="M24 20.043a1.434 1.434 0 100-2.867 1.434 1.434 0 000 2.867z" fill="#fff"/><circle cx="7.5" cy="34.5" r="1.5"/></svg>