<?xml version="1.0" encoding="UTF-8" standalone="no"?>
<!DOCTYPE svg PUBLIC "-//W3C//DTD SVG 1.1//EN" "http://www.w3.org/Graphics/SVG/1.1/DTD/svg11.dtd">
<svg width="100%" height="100%" viewBox="0 0 16 16" version="1.1" xmlns="http://www.w3.org/2000/svg" xmlns:xlink="http://www.w3.org/1999/xlink" xml:space="preserve" style="fill-rule:evenodd;clip-rule:evenodd;stroke-linejoin:round;stroke-miterlimit:1.41421;">
  <path id="Search_Icon" d="M13.7,15.9l-3.7,-3.8c-1,0.7 -2.2,1.1 -3.5,1.1c-3.6,0 -6.5,-3 -6.5,-6.6c0,-3.6 2.9,-6.6 6.5,-6.6c3.6,0 6.5,3 6.5,6.6c0,1.3 -0.3,2.5 -1,3.5l3.7,3.8c0.2,0.2 0,0.7 -0.4,1.1l-0.6,0.6c-0.3,0.3 -0.8,0.5 -1,0.3Zm-2.9,-9.3c0,-2.4 -1.9,-4.4 -4.3,-4.4c-2.4,0 -4.3,2 -4.3,4.4c0,2.4 1.9,4.4 4.3,4.4c2.3,0 4.3,-2 4.3,-4.4Z" style="fill:currentColor; fill-rule:nonzero;"/>
</svg>