<svg viewBox="0 0 20 20" xmlns="http://www.w3.org/2000/svg" fill-rule="evenodd" clip-rule="evenodd" stroke-linejoin="round" stroke-miterlimit="1.414"><g fill-rule="nonzero"><path d="M15.55 6c-.7 0-2.1-1.1-2.1-1.8V0H3.25C1.75 0 .45 1.1.45 2.5v14.6c0 1.4 1.3 2.9 2.8 2.9h13.7c1.4 0 2.6-1.5 2.6-2.8V6h-4z" fill="#118df0"/><path d="M13.45 4.3c0 .8.8 1.7 2 1.7h4l-6-6v4.3z" fill="#184e9e"/><path d="M11.85 7.5c-.3-.2-.5-.4-.8-.5-.3-.1-.5-.2-.9-.2-.3.1-.6.2-.8.3-.2.2-.3.5-.3.8 0 .2.1.4.3.6.2.2.4.3.7.4.3.1.6.3.9.4.3.1.6.3.9.5.3.2.5.4.7.7.2.3.3.6.3 1 0 .6-.2 1.1-.6 1.5-.4.4-.9.7-1.6.8v1.3h-1.1v-1.2c-.4 0-.9-.1-1.3-.3-.4-.2-.8-.4-1.1-.6l.7-1c.3.2.7.4 1 .6.3.1.7.2 1.1.2.5 0 .8-.1 1-.3.2-.2.3-.4.3-.8 0-.3-.1-.5-.3-.7-.2-.2-.4-.3-.7-.5-.3-.1-.6-.3-.9-.4-.3-.2-.6-.4-.9-.5-.3-.2-.5-.4-.7-.7-.2-.3-.3-.6-.3-1 0-.6.2-1.1.6-1.4.4-.4.9-.6 1.5-.7V4.5h1.1v1.2c.4 0 .8.2 1.2.3l.9.6-.9.9z" fill="#fff"/></g></svg>