<svg width="48" height="48" fill="none" xmlns="http://www.w3.org/2000/svg"><path d="M26 46H3V31.169L14.5 23l11.354 8.012.146.157V46z"/><path d="M8 39v4h4v-4H8zM8 31v4h4v-4H8zM16 39v4h4v-4h-4zM16 31v4h4v-4h-4z" fill="#fff"/><path d="M43 4H24v42h19V4z" fill="currentColor"/><path d="M40 39h-4v4h4v-4zM31 39h-4v4h4v-4zM40 31h-4v4h4v-4zM31 31h-4v4h4v-4zM40 23h-4v4h4v-4zM31 23h-4v4h4v-4zM40 15h-4v4h4v-4zM31 15h-4v4h4v-4zM40 7h-4v4h4V7zM31 7h-4v4h4V7z" fill="#fff"/><path fill="currentColor" d="M22 2h23v2H22z"/></svg>