<svg width="48" height="48" fill="none" xmlns="http://www.w3.org/2000/svg"><path d="M24 48c13.255 0 24-10.745 24-24S37.255 0 24 0 0 10.745 0 24s10.745 24 24 24z"/><path d="M24 44c11.046 0 20-8.954 20-20S35.046 4 24 4 4 12.954 4 24s8.954 20 20 20z" fill="currentColor"/><path d="M33 13H23v22h10V13z" fill="#fff"/><path d="M27 27h-2v2h2v-2zM27 31h-2v2h2v-2zM31 27h-2v2h2v-2zM31 31h-2v2h2v-2zM27 23h-2v2h2v-2zM31 23h-2v2h2v-2zM27 19h-2v2h2v-2zM31 19h-2v2h2v-2zM27 15h-2v2h2v-2zM31 15h-2v2h2v-2z" fill="currentColor"/><path d="M24 35H12v-8.06l6-4.44 5.924 4.355.076.084V35z" fill="#fff"/><path d="M19 27v2h2v-2h-2zM19 31v2h2v-2h-2zM15 27v2h2v-2h-2zM15 31v2h2v-2h-2z" fill="currentColor"/><path fill="#fff" d="M22 12h12v1H22z"/></svg>