<?xml version="1.0" encoding="UTF-8"?><!DOCTYPE svg PUBLIC "-//W3C//DTD SVG 1.1//EN" "http://www.w3.org/Graphics/SVG/1.1/DTD/svg11.dtd"><svg xmlns="http://www.w3.org/2000/svg" xmlns:xlink="http://www.w3.org/1999/xlink"><defs/><symbol id="icon-work" viewBox="0 0 20 21"><g fill="none" fill-rule="evenodd"><g fill="#118DF0"><path d="M.5 17.3v-.7c0-4 3.3-7.3 7.3-7.3s7.3 3.3 7.3 7.3v.7" fill-rule="nonzero"/><circle cx="7.8" cy="5" r="5"/></g><g transform="translate(7 8)"><circle fill="#184E9E" cx="6.4" cy="6.4" r="6.1"/><path d="M6.4 6.8c-.3 0-.4-.2-.4-.4v-4c0-.2.2-.4.4-.4h.1c.2 0 .4.2.4.4v4c-.2.2-.3.4-.5.4z" fill="#FFF" fill-rule="nonzero"/><path d="M8.7 8.7l-.1.1c-.1.1-.3.1-.5 0L6 6.7c-.1-.1-.1-.3 0-.5l.1-.1c.1-.1.3-.1.5 0l2.1 2.1c.2.1.2.3 0 .5z" fill="#FFF" fill-rule="nonzero"/></g></g></symbol><symbol id="icon-warning" viewBox="0 0 32 30"><path d="M31.652 26.276L17.973 1.196a2.272 2.272 0 00-.838-.872 2.208 2.208 0 00-1.157-.32c-.416 0-.802.106-1.158.32a2.274 2.274 0 00-.837.873L.303 26.277c-.415.748-.404 1.496.036 2.244.202.344.478.617.828.819.35.202.728.303 1.131.303h27.36c.404 0 .78-.101 1.13-.303.351-.202.627-.475.83-.82.439-.747.45-1.495.034-2.244zm-13.394-1.781a.57.57 0 01-.169.418.548.548 0 01-.4.17h-3.42a.547.547 0 01-.401-.17.568.568 0 01-.17-.418V21.11c0-.167.057-.306.17-.419a.547.547 0 01.4-.169h3.42c.155 0 .288.056.401.17.113.112.17.251.17.418v3.384zm-.035-6.662a.399.399 0 01-.187.294.724.724 0 01-.419.116h-3.295a.768.768 0 01-.428-.116c-.119-.077-.178-.175-.178-.294l-.303-8.14c0-.166.06-.29.178-.374.155-.13.297-.196.428-.196h3.919c.13 0 .273.065.427.196a.392.392 0 01.178.339l-.32 8.175z" fill="currentColor" fill-rule="nonzero"/></symbol><symbol id="icon-urgent" viewBox="0 0 32 32"><path d="M29.801 7.947a15.89 15.89 0 00-5.807-5.807C21.55.713 18.88 0 15.984 0c-2.894 0-5.564.713-8.01 2.14a15.885 15.885 0 00-5.806 5.807C.74 10.392.028 13.062.028 15.957c0 2.894.713 5.564 2.14 8.01a15.892 15.892 0 005.807 5.806c2.444 1.427 5.114 2.14 8.01 2.14 2.894 0 5.564-.713 8.009-2.14a15.888 15.888 0 005.807-5.807c1.426-2.445 2.14-5.115 2.14-8.01 0-2.894-.714-5.564-2.14-8.009zM18.644 25.909a.683.683 0 01-.187.488.605.605 0 01-.457.197h-3.99c-.18 0-.339-.07-.478-.208a.656.656 0 01-.207-.477V21.96c0-.18.069-.34.207-.478a.657.657 0 01.478-.207H18c.18 0 .333.066.457.197a.685.685 0 01.187.488v3.948zm-.042-7.147a.526.526 0 01-.218.363.764.764 0 01-.488.156h-3.844a.807.807 0 01-.498-.156c-.139-.104-.208-.225-.208-.363l-.353-12.903c0-.167.069-.291.207-.374a.775.775 0 01.5-.166h4.57c.195 0 .36.055.499.166a.408.408 0 01.207.374l-.374 12.903z" fill="currentColor" fill-rule="nonzero"/></symbol><symbol id="icon-ui-x" viewBox="0 0 24 24"><path d="M18 6L6 18M6 6l12 12"/></symbol><symbol id="icon-ui-x-circle" viewBox="0 0 24 24"><circle cx="12" cy="12" r="10"/><path d="M15 9l-6 6M9 9l6 6"/></symbol><symbol id="icon-ui-user-check" viewBox="0 0 24 24"><path d="M16 21v-2a4 4 0 00-4-4H5a4 4 0 00-4 4v2"/><circle cx="8.5" cy="7" r="4"/><path d="M17 11l2 2 4-4"/></symbol><symbol id="icon-ui-translate" viewBox="0 0 24 24"><path d="M3 16c1.5-.833 5-3.5 7-6.5S11.5 4 11.5 4m3 0h-6m-6 0h6m0 0V2.5M4.5 7c1 3 3 5.5 5.5 7.5m2 6.5l1.35-3M21 21l-1.35-3m-6.3 0l3.15-7.5c1.23 2.734 1.92 4.766 3.15 7.5m-6.3 0h6.3"/></symbol><symbol id="icon-ui-settings" viewBox="0 0 24 24"><circle cx="12" cy="12" r="3"/><path d="M19.4 15a1.65 1.65 0 00.33 1.82l.06.06a2 2 0 010 2.83 2 2 0 01-2.83 0l-.06-.06a1.65 1.65 0 00-1.82-.33 1.65 1.65 0 00-1 1.51V21a2 2 0 01-2 2 2 2 0 01-2-2v-.09A1.65 1.65 0 009 19.4a1.65 1.65 0 00-1.82.33l-.06.06a2 2 0 01-2.83 0 2 2 0 010-2.83l.06-.06a1.65 1.65 0 00.33-1.82 1.65 1.65 0 00-1.51-1H3a2 2 0 01-2-2 2 2 0 012-2h.09A1.65 1.65 0 004.6 9a1.65 1.65 0 00-.33-1.82l-.06-.06a2 2 0 010-2.83 2 2 0 012.83 0l.06.06a1.65 1.65 0 001.82.33H9a1.65 1.65 0 001-1.51V3a2 2 0 012-2 2 2 0 012 2v.09a1.65 1.65 0 001 1.51 1.65 1.65 0 001.82-.33l.06-.06a2 2 0 012.83 0 2 2 0 010 2.83l-.06.06a1.65 1.65 0 00-.33 1.82V9a1.65 1.65 0 001.51 1H21a2 2 0 012 2 2 2 0 01-2 2h-.09a1.65 1.65 0 00-1.51 1z"/></symbol><symbol id="icon-ui-search" viewBox="0 0 24 24"><circle cx="11" cy="11" r="8"/><path d="M21 21l-4.35-4.35"/></symbol><symbol id="icon-ui-printer" viewBox="0 0 24 24"><path d="M6 9V2h12v7M6 18H4a2 2 0 01-2-2v-5a2 2 0 012-2h16a2 2 0 012 2v5a2 2 0 01-2 2h-2"/><path d="M6 14h12v8H6z"/></symbol><symbol id="icon-ui-plus-circle" viewBox="0 0 24 24"><circle cx="12" cy="12" r="10"/><path d="M12 8v8M8 12h8"/></symbol><symbol id="icon-ui-minus-circle" viewBox="0 0 24 24"><circle cx="12" cy="12" r="10"/><path d="M8 12h8"/></symbol><symbol id="icon-ui-message-circle" viewBox="0 0 24 24"><path d="M21 11.5a8.38 8.38 0 01-.9 3.8 8.5 8.5 0 01-7.6 4.7 8.38 8.38 0 01-3.8-.9L3 21l1.9-5.7a8.38 8.38 0 01-.9-3.8 8.5 8.5 0 014.7-7.6 8.38 8.38 0 013.8-.9h.5a8.48 8.48 0 018 8v.5z"/></symbol><symbol id="icon-ui-mail" viewBox="0 0 24 24"><path d="M4 4h16c1.1 0 2 .9 2 2v12c0 1.1-.9 2-2 2H4c-1.1 0-2-.9-2-2V6c0-1.1.9-2 2-2z"/><path d="M22 6l-10 7L2 6"/></symbol><symbol id="icon-ui-info" viewBox="0 0 24 24"><circle cx="12" cy="12" r="10"/><path d="M12 16v-4M12 8h0"/></symbol><symbol id="icon-ui-chevron-up" viewBox="0 0 24 24"><path d="M18 15l-6-6-6 6"/></symbol><symbol id="icon-ui-chevron-right" viewBox="0 0 24 24"><path d="M9 18l6-6-6-6"/></symbol><symbol id="icon-ui-chevron-left" viewBox="0 0 24 24"><path d="M15 18l-6-6 6-6"/></symbol><symbol id="icon-ui-chevron-down" viewBox="0 0 24 24"><path d="M6 9l6 6 6-6"/></symbol><symbol id="icon-ui-check" viewBox="0 0 24 24"><path d="M20 6L9 17l-5-5"/></symbol><symbol id="icon-ui-check-circle" viewBox="0 0 24 24"><path d="M22 11.08V12a10 10 0 11-5.93-9.14"/><path d="M22 4L12 14.01l-3-3"/></symbol><symbol id="icon-ui-calendar" viewBox="0 0 24 24"><rect x="3" y="4" width="18" height="18" rx="2" ry="2"/><path d="M16 2v4M8 2v4M3 10h18"/></symbol><symbol id="icon-ui-alert-triangle" viewBox="0 0 24 24"><path d="M10.29 3.86L1.82 18a2 2 0 001.71 3h16.94a2 2 0 001.71-3L13.71 3.86a2 2 0 00-3.42 0zM12 9v4M12 17h0"/></symbol><symbol id="icon-ui-alert-octagon" viewBox="0 0 24 24"><path d="M7.86 2h8.28L22 7.86v8.28L16.14 22H7.86L2 16.14V7.86L7.86 2zM12 8v4M12 16h0"/></symbol><symbol id="icon-success" viewBox="0 0 32 32"><path d="M29.833 7.963a15.921 15.921 0 00-5.818-5.819C21.565.714 18.89 0 15.989 0c-2.9 0-5.576.715-8.026 2.144a15.917 15.917 0 00-5.818 5.819C.715 10.413 0 13.088 0 15.989c0 2.9.715 5.575 2.144 8.025a15.922 15.922 0 005.82 5.819c2.449 1.43 5.124 2.144 8.025 2.144 2.9 0 5.576-.715 8.025-2.144a15.92 15.92 0 005.82-5.819c1.428-2.45 2.143-5.125 2.143-8.025 0-2.901-.715-5.577-2.144-8.026zm-3.477 5.59L15.052 24.857a1.304 1.304 0 01-.958.396 1.28 1.28 0 01-.937-.396l-7.536-7.536a1.272 1.272 0 01-.375-.937c0-.388.125-.708.375-.958l1.894-1.873c.264-.264.576-.396.937-.396.361 0 .674.132.937.396l4.705 4.705 8.494-8.473a1.28 1.28 0 01.937-.396c.36 0 .673.132.937.396l1.894 1.874c.25.25.375.568.375.957 0 .375-.125.687-.375.937z" fill="currentColor" fill-rule="nonzero"/></symbol><symbol id="icon-success-green" viewBox="0 0 32 32"><path d="M29.833 7.963a15.921 15.921 0 00-5.818-5.819C21.565.714 18.89 0 15.989 0c-2.9 0-5.576.715-8.026 2.144a15.917 15.917 0 00-5.818 5.819C.715 10.413 0 13.088 0 15.989c0 2.9.715 5.575 2.144 8.025a15.922 15.922 0 005.82 5.819c2.449 1.43 5.124 2.144 8.025 2.144 2.9 0 5.576-.715 8.025-2.144a15.92 15.92 0 005.82-5.819c1.428-2.45 2.143-5.125 2.143-8.025 0-2.901-.715-5.577-2.144-8.026zm-3.477 5.59L15.052 24.857a1.304 1.304 0 01-.958.396 1.28 1.28 0 01-.937-.396l-7.536-7.536a1.272 1.272 0 01-.375-.937c0-.388.125-.708.375-.958l1.894-1.873c.264-.264.576-.396.937-.396.361 0 .674.132.937.396l4.705 4.705 8.494-8.473a1.28 1.28 0 01.937-.396c.36 0 .673.132.937.396l1.894 1.874c.25.25.375.568.375.957 0 .375-.125.687-.375.937z" fill="#05ce7c" fill-rule="nonzero"/></symbol><symbol id="icon-share" viewBox="0 0 23 17"><path d="M0 0v16.1h23V0H0zm1.4 1.4h20.1v.7l-10 6.5L1.4 2.1v-.7zm10.1 9l1.7-1.1 6.9 5.4H2.8l6.9-5.5 1.8 1.2zM8.4 8.3l-7 5.5v-10l7 4.5zM21.6 14l-7-5.6 7-4.6V14z" fill="currentColor" fill-rule="nonzero"/></symbol><symbol id="icon-screening" viewBox="0 0 21 20"><g fill="currentColor" fill-rule="nonzero"><path d="M17.5 19.9l-4.7-4.7c-1.3.8-2.8 1.3-4.5 1.3-4.6 0-8.3-3.7-8.3-8.2C0 3.7 3.7 0 8.3 0c4.6 0 8.3 3.7 8.3 8.3 0 1.6-.4 3.1-1.2 4.3l4.8 4.8c.3.2 0 .9-.5 1.4l-.7.7c-.6.4-1.2.6-1.5.4zM13.8 8.3c0-3-2.5-5.5-5.5-5.5S2.8 5.3 2.8 8.3s2.5 5.5 5.5 5.5 5.5-2.5 5.5-5.5z"/><path d="M12 6.7H7.4c-.2 0-.3-.1-.3-.3 0-.2.1-.3.3-.3H12c.2 0 .3.1.3.3 0 .2-.2.3-.3.3zM5.7 6.7h-.6c-.1 0-.3-.1-.3-.3 0-.2.1-.3.3-.3h.6c.2 0 .3.1.3.3 0 .2-.1.3-.3.3zM12 8.6H7.4c-.2 0-.3-.1-.3-.3 0-.2.1-.3.3-.3H12c.2 0 .3.1.3.3 0 .2-.2.3-.3.3zM5.7 8.6h-.6c-.1 0-.3-.1-.3-.3 0-.2.2-.3.3-.3h.6c.2 0 .3.1.3.3 0 .2-.1.3-.3.3z"/><g><path d="M12 10.5H7.4c-.2 0-.3-.1-.3-.3 0-.2.1-.3.3-.3H12c.2 0 .3.1.3.3 0 .2-.2.3-.3.3zM5.7 10.5h-.6c-.2 0-.3-.1-.3-.3 0-.2.2-.3.3-.3h.6c.2 0 .3.1.3.3 0 .2-.1.3-.3.3z"/></g></g></symbol><symbol id="icon-plus" viewBox="0 0 33 33"><g fill="currentColor" fill-rule="nonzero"><path d="M14.4 17.7H9v-3.2h5.5V8.8h3.4v5.7h5.5v3.2h-5.5v5.7h-3.4v-5.7h-.1z"/><path d="M16.294.039a15.935 15.935 0 016.653 1.507 16.175 16.175 0 015.136 3.819 16.383 16.383 0 013.187 5.283c.66 1.796.998 3.707.988 5.621a15.943 15.943 0 01-.235 2.653 16.054 16.054 0 01-6.161 10.027 16.32 16.32 0 01-4.9 2.526 16.179 16.179 0 01-4.683.749 13.679 13.679 0 01-2.661-.231c-.114-.022-.228-.048-.342-.07-.135-.027-.271-.049-.406-.076a15.92 15.92 0 01-2.542-.727A15.836 15.836 0 015.48 28.2a16.083 16.083 0 01-5.162-9.053 16.033 16.033 0 01-.241-4.149c.123-1.696.51-3.374 1.154-4.948a15.976 15.976 0 012.926-4.643 16.378 16.378 0 014.927-3.714A16.203 16.203 0 0113.527.261a16.74 16.74 0 012.167-.215c.2-.005.4-.007.6-.007zm-.354 1.687a14.453 14.453 0 00-4.774.868A14.562 14.562 0 007.132 4.84a14.288 14.288 0 00-3.208 3.551 14.097 14.097 0 00-2.001 5.23 14.76 14.76 0 00-.211 3.092 14.42 14.42 0 001.034 4.805 14.6 14.6 0 002.999 4.642 14.425 14.425 0 004.573 3.212 14.448 14.448 0 005.855 1.227 14.423 14.423 0 005.826-1.249 14.624 14.624 0 004.286-2.916 14.454 14.454 0 002.702-3.649 14.458 14.458 0 001.555-7.912 14.447 14.447 0 00-1.192-4.572 14.626 14.626 0 00-3.163-4.532 14.304 14.304 0 00-7.144-3.776c-.183-.038-.184-.035-.367-.07-.084-.017-.167-.036-.252-.051a8.115 8.115 0 00-.496-.074 12.9 12.9 0 00-1.213-.07 40.043 40.043 0 00-.775-.002z"/></g></symbol><symbol id="icon-people-with-disabilities" viewBox="0 0 20 21"><g fill="#118df0" fill-rule="nonzero"><path d="M10.3.1l3.8 3 4.6-1.4-1.6 4.5 2.8 3.9L15 10l-2.8 3.8-1.3-4.6-4.6-1.6 4-2.6V.1zM3.3 10.6L6 12.8l3.3-1.1L8.1 15l2 2.8-3.4-.1-2.1 2.8-1-3.4L.3 16l2.9-1.9.1-3.5z"/></g></symbol><symbol id="icon-minus" viewBox="0 0 33 33"><g fill="currentColor" fill-rule="nonzero"><path d="M8.2 14.5h15.9v3.2H8.2z"/><path d="M16.294.039a15.935 15.935 0 016.653 1.507 16.175 16.175 0 015.136 3.819 16.383 16.383 0 013.187 5.283c.66 1.796.998 3.707.988 5.621a15.943 15.943 0 01-.235 2.653 16.054 16.054 0 01-6.161 10.027 16.32 16.32 0 01-4.9 2.526 16.179 16.179 0 01-4.683.749 13.679 13.679 0 01-2.661-.231c-.114-.022-.228-.048-.342-.07-.135-.027-.271-.049-.406-.076a15.92 15.92 0 01-2.542-.727A15.836 15.836 0 015.48 28.2a16.083 16.083 0 01-5.162-9.053 16.033 16.033 0 01-.241-4.149c.123-1.696.51-3.374 1.154-4.948a15.976 15.976 0 012.926-4.643 16.378 16.378 0 014.927-3.714A16.203 16.203 0 0113.527.261a16.74 16.74 0 012.167-.215c.2-.005.4-.007.6-.007zm-.354 1.687a14.453 14.453 0 00-4.774.868A14.562 14.562 0 007.132 4.84a14.288 14.288 0 00-3.208 3.551 14.097 14.097 0 00-2.001 5.23 14.76 14.76 0 00-.211 3.092 14.42 14.42 0 001.034 4.805 14.6 14.6 0 002.999 4.642 14.425 14.425 0 004.573 3.212 14.448 14.448 0 005.855 1.227 14.423 14.423 0 005.826-1.249 14.624 14.624 0 004.286-2.916 14.454 14.454 0 002.702-3.649 14.458 14.458 0 001.555-7.912 14.447 14.447 0 00-1.192-4.572 14.626 14.626 0 00-3.163-4.532 14.304 14.304 0 00-7.144-3.776c-.183-.038-.184-.035-.367-.07-.084-.017-.167-.036-.252-.051a8.115 8.115 0 00-.496-.074 12.9 12.9 0 00-1.213-.07 40.043 40.043 0 00-.775-.002z"/></g></symbol><symbol id="icon-logo-nyc" viewBox="0 0 350 117"><g fill="currentColor" fill-rule="nonzero"><path d="M327.9 0H255l-21.8 21.9v72.8l21.8 21.9h72.9l21.8-21.9V72.9l-7.2-7.3H306v7.3h-29.1V43.7H306v7.2h36.5l7.2-7.2V21.9L327.9 0zM109.3 0H80.1l-7.2 7.3v29.1L36.4 0H7.3L0 7.3v102l7.3 7.3h29.1l7.3-7.3V80.1l36.4 36.5h29.2l7.3-7.3V7.3L109.3 0zM160.3 116.6h29.1l7.3-7.3V87.4L233.2 51V7.3L225.9 0h-29.2l-7.3 7.3v14.6l-14.5 14.5-14.6-14.5V7.3L153 0h-29.1l-7.3 7.3V51L153 87.4v21.9l7.3 7.3z"/></g></symbol><symbol id="icon-logo-mark" viewBox="0 0 30 30"><path d="M22.4 23c0 .5-.4 1-1 1H8.6c-.5 0-1-.4-1-1v-8.7c0-.5.4-1 1-1h11.2v-2.5c0-2.4-1.2-3.5-3.9-3.5-5.5 0-5.5 1.7-5.5 2.8v1c0 .3-.2.6-.7.4l-1.6-.6c-.3-.1-.3-.3-.3-.7V10c0-5.4 5.9-5.4 8.1-5.4 4.1 0 6.5 2.2 6.5 6.1V23zM15 0C6.7 0 0 6.7 0 15s6.7 15 15 15 15-6.7 15-15S23.3 0 15 0zm4.3 16h-8.6c-.3 0-.5.2-.5.5v4.4c0 .3.2.5.5.5h8.6c.3 0 .5-.2.5-.5v-4.4c0-.3-.2-.5-.5-.5z" fill="#fbb720" fill-rule="nonzero"/></symbol><symbol id="icon-logo-google-translate"><path fill-rule="evenodd" clip-rule="evenodd" d="M128.789 4.794c-.738 0-1.766.522-2.056 1.333h-.058V4.903H125.4V12h1.333V8.184c0-1.304.927-2.071 1.839-2.071.29 0 .522.028.71.1l.507-1.244c-.275-.116-.565-.175-1-.175zM152.801 1.46h1.332V12h-1.332V1.46zM148.658 4.794c-1.433 0-2.767.8-2.767 2.05 0 1.21 1.209 1.757 1.841 1.911l1.432.338c.731.182.982.562.982.913 0 .575-.617.952-1.418.952-.829 0-1.544-.404-1.909-1.293l-1.152.478c.407 1 1.39 1.984 3.048 1.984 1.615 0 2.752-.941 2.752-2.163 0-.843-.575-1.686-1.938-2.01l-1.404-.323c-.548-.126-.912-.364-.912-.8 0-.562.672-.868 1.403-.868.674 0 1.347.268 1.615.914l1.123-.464c-.421-1.054-1.502-1.62-2.696-1.62zM158.579 10.929c-.675 0-1.508-.348-1.508-1.078 0-.632.608-1.322 1.971-1.322 1.096 0 1.625.409 1.625.409 0 1.124-1.063 1.99-2.088 1.99zm.28-6.135c-1.728 0-2.701 1.006-2.94 1.638l1.18.506c.239-.646 1.072-.946 1.788-.946.97 0 1.78.602 1.78 1.693v.198c-.268-.155-.922-.422-1.85-.422-1.615 0-3.116.803-3.116 2.362 0 1.433 1.262 2.304 2.666 2.304 1.181 0 1.864-.636 2.244-1.212h.056V12h1.255V7.744c0-1.939-1.377-2.95-3.063-2.95zM133.323 10.929c-.674 0-1.508-.348-1.508-1.078 0-.632.609-1.322 1.972-1.322 1.095 0 1.624.409 1.624.409 0 1.124-1.062 1.99-2.088 1.99zm.281-6.135c-1.728 0-2.702 1.006-2.941 1.638l1.18.506c.24-.646 1.072-.946 1.789-.946.969 0 1.779.602 1.779 1.693v.198c-.267-.155-.922-.422-1.85-.422-1.615 0-3.115.803-3.115 2.362 0 1.433 1.261 2.304 2.666 2.304 1.18 0 1.863-.636 2.243-1.212h.056V12h1.256V7.744c0-1.939-1.377-2.95-3.063-2.95zM169.398 7.623c.257-1.003 1.027-1.631 1.998-1.631 1.498 0 2.011 1.035 2.054 1.631h-4.052zm2.026-2.83c-2.054 0-3.424 1.714-3.424 3.668 0 2.079 1.427 3.666 3.567 3.666 1.612 0 2.64-.9 3.053-1.882l-1.17-.478c-.371.872-1.141 1.162-1.912 1.162-1.084 0-2.154-.768-2.225-2.222h5.521s.015-.148.015-.246c0-2.22-1.342-3.667-3.425-3.667zM141.778 4.794c-.971 0-1.869.565-2.245 1.216h-.058V4.903H138.2V12h1.333V8.197c0-1.086.71-2.187 1.868-2.187 1.014 0 1.753.493 1.753 1.97V12h1.333V7.778c0-1.753-.898-2.984-2.709-2.984zM165.399 2.794h-1.332v2.109h-1.246V6.13h1.246v3.723c0 1.449.796 2.274 2.288 2.274.449 0 .768-.058 1.072-.188l-.463-1.144a1.352 1.352 0 01-.609.116c-.622 0-.956-.362-.956-1.16V6.13h1.738V4.903h-1.738V2.794zM124.95 1.46h-7.217v1.367h2.934v9.167h1.35V2.827h2.933V1.461zM72.16 5.586v1.639h3.922c-.117.922-.425 1.595-.893 2.063-.571.57-1.464 1.2-3.029 1.2-2.415 0-4.303-1.946-4.303-4.36 0-2.415 1.888-4.361 4.303-4.361 1.302 0 2.253.512 2.956 1.17l1.156-1.156C75.292.845 73.989.127 72.16.127c-3.307 0-6.088 2.693-6.088 6 0 3.308 2.78 6 6.088 6 1.785 0 3.131-.585 4.185-1.682 1.083-1.084 1.42-2.606 1.42-3.835 0-.38-.03-.731-.088-1.024H72.16zM82.667 4.255c-2.142 0-3.888 1.628-3.888 3.872 0 2.23 1.746 3.873 3.888 3.873s3.887-1.643 3.887-3.873c0-2.244-1.745-3.872-3.887-3.872zm0 6.219c-1.174 0-2.186-.968-2.186-2.347 0-1.393 1.012-2.347 2.186-2.347 1.173 0 2.186.954 2.186 2.347 0 1.379-1.013 2.347-2.186 2.347zM101.72 5.12h-.059c-.382-.455-1.115-.865-2.039-.865C97.686 4.255 96 5.94 96 8.127 96 10.297 97.686 12 99.622 12c.924 0 1.657-.41 2.039-.88h.059v.541c0 1.482-.792 2.274-2.069 2.274-1.041 0-1.686-.748-1.95-1.38l-1.482.617c.426 1.027 1.555 2.289 3.432 2.289 1.996 0 3.682-1.174 3.682-4.034V4.454h-1.613v.667zm-1.95 5.354c-1.174 0-2.068-.997-2.068-2.347 0-1.364.894-2.347 2.067-2.347 1.16 0 2.068.998 2.068 2.362 0 1.35-.908 2.332-2.068 2.332zM91.333 4.255c-2.141 0-3.887 1.628-3.887 3.872 0 2.23 1.746 3.873 3.887 3.873 2.142 0 3.888-1.643 3.888-3.873 0-2.244-1.746-3.872-3.888-3.872zm0 6.219c-1.173 0-2.185-.968-2.185-2.347 0-1.393 1.012-2.347 2.185-2.347 1.174 0 2.186.954 2.186 2.347 0 1.379-1.012 2.347-2.186 2.347zM104.667.287h1.673V12h-1.673V.287zM111.51 10.474c-.865 0-1.481-.395-1.878-1.173l5.178-2.142-.176-.44c-.323-.865-1.305-2.464-3.315-2.464-1.995 0-3.652 1.57-3.652 3.872 0 2.172 1.642 3.873 3.843 3.873 1.775 0 2.801-1.085 3.227-1.717l-1.32-.88c-.44.646-1.042 1.07-1.907 1.07zm-.126-4.768c.689 0 1.272.35 1.467.854l-3.498 1.45c0-1.633 1.155-2.304 2.031-2.304z" fill="currentColor"/><g fill="currentColor"><path d="M6.176 8.9c0 .965-.22 1.743-.662 2.332-.442.59-1.04.885-1.793.885-.77 0-1.375-.244-1.817-.732v3.053H.82V5.66h.99l.053.703c.442-.547 1.055-.82 1.84-.82.762 0 1.363.287 1.805.861.445.575.668 1.373.668 2.397v.1zm-1.084-.123c0-.714-.153-1.279-.457-1.693-.305-.414-.723-.621-1.254-.621-.656 0-1.149.29-1.477.873v3.03c.325.577.82.866 1.489.866.52 0 .931-.205 1.236-.615.309-.414.463-1.027.463-1.84zM7.271 8.771c0-.62.122-1.18.364-1.675a2.758 2.758 0 011.02-1.149 2.79 2.79 0 011.493-.404c.864 0 1.561.299 2.092.896.535.598.803 1.393.803 2.385V8.9c0 .618-.12 1.172-.357 1.665a2.67 2.67 0 01-1.014 1.142c-.438.273-.942.41-1.512.41-.86 0-1.556-.299-2.092-.896-.53-.598-.797-1.389-.797-2.373V8.77zm1.09.13c0 .703.162 1.267.487 1.693.328.426.765.638 1.312.638.55 0 .988-.214 1.313-.644.324-.434.486-1.04.486-1.817 0-.695-.166-1.257-.498-1.687a1.564 1.564 0 00-1.313-.65c-.535 0-.966.212-1.294.638-.329.426-.493 1.035-.493 1.828zM20.016 10.506l1.218-4.846h1.084L20.473 12h-.88l-1.54-4.805-1.5 4.805h-.88l-1.839-6.34h1.078l1.248 4.746 1.477-4.746h.873l1.506 4.846zM26.057 12.117c-.86 0-1.559-.281-2.098-.844-.54-.566-.809-1.322-.809-2.267v-.2c0-.628.12-1.189.358-1.681a2.814 2.814 0 011.008-1.16 2.535 2.535 0 011.406-.422c.824 0 1.465.271 1.922.814.457.543.685 1.32.685 2.332v.452h-4.295c.016.625.198 1.13.545 1.517.352.383.797.574 1.336.574.383 0 .707-.078.973-.234.265-.156.498-.363.697-.621l.662.516c-.531.816-1.328 1.224-2.39 1.224zm-.135-5.683c-.438 0-.805.16-1.102.48-.297.316-.48.762-.55 1.336h3.175v-.082c-.03-.55-.18-.977-.445-1.277-.266-.305-.625-.457-1.078-.457zM32.853 6.633a3.248 3.248 0 00-.533-.041c-.71 0-1.193.303-1.447.908V12h-1.084V5.66h1.055l.017.733c.356-.567.86-.85 1.512-.85.211 0 .371.027.48.082v1.008zM36.37 12.117c-.86 0-1.56-.281-2.098-.844-.54-.566-.81-1.322-.81-2.267v-.2c0-.628.12-1.189.358-1.681a2.814 2.814 0 011.008-1.16 2.535 2.535 0 011.406-.422c.825 0 1.465.271 1.922.814.457.543.686 1.32.686 2.332v.452h-4.295c.016.625.197 1.13.545 1.517.351.383.797.574 1.336.574.383 0 .707-.078.972-.234.266-.156.498-.363.698-.621l.662.516c-.532.816-1.328 1.224-2.39 1.224zm-.136-5.683c-.437 0-.804.16-1.101.48-.297.316-.48.762-.551 1.336h3.176v-.082c-.031-.55-.18-.977-.446-1.277-.265-.305-.624-.457-1.078-.457zM39.838 8.777c0-.972.23-1.754.691-2.343.461-.594 1.065-.891 1.81-.891.743 0 1.33.254 1.764.762V3h1.084v9h-.996l-.052-.68c-.434.532-1.037.797-1.81.797-.735 0-1.335-.3-1.8-.902-.46-.602-.691-1.387-.691-2.356v-.082zm1.084.123c0 .72.148 1.282.445 1.688.297.406.707.61 1.23.61.688 0 1.19-.31 1.506-.927V7.36c-.324-.597-.822-.896-1.494-.896-.53 0-.945.205-1.242.615-.297.41-.445 1.018-.445 1.822zM55.219 8.9c0 .97-.223 1.748-.668 2.338-.446.586-1.043.88-1.793.88-.801 0-1.42-.284-1.858-.85l-.052.732h-.996V3h1.084v3.357c.437-.543 1.04-.814 1.81-.814s1.373.291 1.81.873c.442.582.663 1.379.663 2.39V8.9zm-1.084-.123c0-.738-.143-1.308-.428-1.71-.285-.403-.695-.604-1.23-.604-.715 0-1.229.332-1.541.996v2.742c.332.664.85.996 1.552.996.52 0 .924-.2 1.213-.603.29-.403.434-1.008.434-1.817zM58.594 10.412L60.07 5.66h1.16l-2.548 7.319c-.395 1.054-1.022 1.582-1.881 1.582l-.205-.018-.405-.076v-.88l.293.024c.368 0 .653-.074.856-.222.207-.149.377-.42.51-.815l.24-.644-2.262-6.27h1.184l1.582 4.752z"/></g></symbol><symbol id="icon-logo-full" viewBox="0 0 180 30"><path d="M22.4 23c0 .5-.4 1-1 1H8.6c-.5 0-1-.4-1-1v-8.7c0-.5.4-1 1-1h11.2v-2.5c0-2.4-1.2-3.5-3.9-3.5-5.5 0-5.5 1.7-5.5 2.8v1c0 .3-.2.6-.7.4l-1.6-.6c-.3-.1-.3-.3-.3-.7V10c0-5.4 5.9-5.4 8.1-5.4 4.1 0 6.5 2.2 6.5 6.1V23zM15 0C6.7 0 0 6.7 0 15s6.7 15 15 15 15-6.7 15-15S23.3 0 15 0zm4.3 16h-8.6c-.3 0-.5.2-.5.5v4.4c0 .3.2.5.5.5h8.6c.3 0 .5-.2.5-.5v-4.4c0-.3-.2-.5-.5-.5z" fill="#fbb720"/><g fill="currentColor"><path d="M46.5 15.8l-2.1-5-2.1 5h4.2zm-3.6-9.1H46l6.6 15.6H49l-1.4-3.5h-6.5l-1.4 3.5h-3.5l6.7-15.6zM52.6 14.5c0-4.4 3.3-8 8.1-8 2.9 0 4.7 1 6.1 2.4l-2.2 2.5c-1.2-1.1-2.4-1.7-4-1.7-2.6 0-4.5 2.2-4.5 4.8 0 2.7 1.8 4.9 4.5 4.9 1.8 0 2.8-.7 4.1-1.8l2.2 2.2c-1.6 1.7-3.4 2.8-6.3 2.8-4.6-.1-8-3.6-8-8.1zM68.3 14.5c0-4.4 3.3-8 8.1-8 2.9 0 4.7 1 6.1 2.4l-2.2 2.5c-1.2-1.1-2.4-1.7-4-1.7-2.6 0-4.5 2.2-4.5 4.8 0 2.7 1.8 4.9 4.5 4.9 1.8 0 2.8-.7 4.1-1.8l2.2 2.2c-1.6 1.7-3.4 2.8-6.3 2.8-4.6-.1-8-3.6-8-8.1zM85.3 6.8h11.6v3h-8.2v3.1h7.2v3h-7.2v3.3h8.4v3H85.3V6.8zM99.5 20l2-2.4c1.4 1.1 2.8 1.9 4.6 1.9 1.4 0 2.2-.6 2.2-1.5s-.5-1.3-3.1-2c-3.1-.8-5.1-1.7-5.1-4.7 0-2.8 2.3-4.7 5.4-4.7 2.3 0 4.2.7 5.7 2l-1.8 2.6c-1.4-.9-2.7-1.5-4-1.5-1.3 0-2 .6-2 1.3 0 1 .7 1.3 3.3 2 3.1.8 4.9 1.9 4.9 4.6 0 3.1-2.3 4.8-5.7 4.8-2.2 0-4.6-.8-6.4-2.4zM113.8 20l2-2.4c1.4 1.1 2.8 1.9 4.6 1.9 1.4 0 2.2-.6 2.2-1.5s-.5-1.3-3.1-2c-3.1-.8-5.1-1.7-5.1-4.7 0-2.8 2.3-4.7 5.4-4.7 2.3 0 4.2.7 5.7 2l-1.8 2.6c-1.4-.9-2.7-1.5-4-1.5-1.3 0-2 .6-2 1.3 0 1 .7 1.3 3.3 2 3.1.8 4.9 1.9 4.9 4.6 0 3.1-2.3 4.8-5.7 4.8-2.2 0-4.5-.8-6.4-2.4zM134.4 6.8h3.2l7.2 9.5V6.8h3.4v15.4h-2.9l-7.5-9.8v9.8h-3.4V6.8zM155.9 16.1l-6-9.3h4l3.7 6.2 3.8-6.2h3.8l-5.9 9.3v6.1h-3.4v-6.1zM165 14.5c0-4.4 3.3-8 8.1-8 2.9 0 4.7 1 6.1 2.4l-2.2 2.5c-1.2-1.1-2.4-1.7-4-1.7-2.6 0-4.5 2.2-4.5 4.8 0 2.7 1.8 4.9 4.5 4.9 1.8 0 2.8-.7 4.1-1.8l2.2 2.2c-1.6 1.7-3.4 2.8-6.3 2.8-4.6-.1-8-3.6-8-8.1z"/><path d="M46.5 15.8l-2.1-5-2.1 5h4.2zm-3.6-9.1H46l6.6 15.6H49l-1.4-3.5h-6.5l-1.4 3.5h-3.5l6.7-15.6zM52.6 14.5c0-4.4 3.3-8 8.1-8 2.9 0 4.7 1 6.1 2.4l-2.2 2.5c-1.2-1.1-2.4-1.7-4-1.7-2.6 0-4.5 2.2-4.5 4.8 0 2.7 1.8 4.9 4.5 4.9 1.8 0 2.8-.7 4.1-1.8l2.2 2.2c-1.6 1.7-3.4 2.8-6.3 2.8-4.6-.1-8-3.6-8-8.1zM68.3 14.5c0-4.4 3.3-8 8.1-8 2.9 0 4.7 1 6.1 2.4l-2.2 2.5c-1.2-1.1-2.4-1.7-4-1.7-2.6 0-4.5 2.2-4.5 4.8 0 2.7 1.8 4.9 4.5 4.9 1.8 0 2.8-.7 4.1-1.8l2.2 2.2c-1.6 1.7-3.4 2.8-6.3 2.8-4.6-.1-8-3.6-8-8.1zM85.3 6.8h11.6v3h-8.2v3.1h7.2v3h-7.2v3.3h8.4v3H85.3V6.8zM99.5 20l2-2.4c1.4 1.1 2.8 1.9 4.6 1.9 1.4 0 2.2-.6 2.2-1.5s-.5-1.3-3.1-2c-3.1-.8-5.1-1.7-5.1-4.7 0-2.8 2.3-4.7 5.4-4.7 2.3 0 4.2.7 5.7 2l-1.8 2.6c-1.4-.9-2.7-1.5-4-1.5-1.3 0-2 .6-2 1.3 0 1 .7 1.3 3.3 2 3.1.8 4.9 1.9 4.9 4.6 0 3.1-2.3 4.8-5.7 4.8-2.2 0-4.6-.8-6.4-2.4zM113.8 20l2-2.4c1.4 1.1 2.8 1.9 4.6 1.9 1.4 0 2.2-.6 2.2-1.5s-.5-1.3-3.1-2c-3.1-.8-5.1-1.7-5.1-4.7 0-2.8 2.3-4.7 5.4-4.7 2.3 0 4.2.7 5.7 2l-1.8 2.6c-1.4-.9-2.7-1.5-4-1.5-1.3 0-2 .6-2 1.3 0 1 .7 1.3 3.3 2 3.1.8 4.9 1.9 4.9 4.6 0 3.1-2.3 4.8-5.7 4.8-2.2 0-4.5-.8-6.4-2.4zM134.4 6.8h3.2l7.2 9.5V6.8h3.4v15.4h-2.9l-7.5-9.8v9.8h-3.4V6.8zM155.9 16.1l-6-9.3h4l3.7 6.2 3.8-6.2h3.8l-5.9 9.3v6.1h-3.4v-6.1zM165 14.5c0-4.4 3.3-8 8.1-8 2.9 0 4.7 1 6.1 2.4l-2.2 2.5c-1.2-1.1-2.4-1.7-4-1.7-2.6 0-4.5 2.2-4.5 4.8 0 2.7 1.8 4.9 4.5 4.9 1.8 0 2.8-.7 4.1-1.8l2.2 2.2c-1.6 1.7-3.4 2.8-6.3 2.8-4.6-.1-8-3.6-8-8.1z"/></g></symbol><symbol id="icon-info" viewBox="0 0 32 32"><path d="M29.82 7.96a15.915 15.915 0 00-5.817-5.817C21.554.714 18.881 0 15.982 0c-2.9 0-5.574.714-8.022 2.143A15.91 15.91 0 002.144 7.96C.714 10.408 0 13.082 0 15.981c0 2.9.715 5.573 2.143 8.022a15.92 15.92 0 005.817 5.816c2.448 1.429 5.122 2.143 8.021 2.143 2.9 0 5.573-.714 8.022-2.143a15.912 15.912 0 005.816-5.816c1.429-2.449 2.143-5.123 2.143-8.022 0-2.9-.714-5.573-2.143-8.022zM13.317 3.994c0-.194.062-.354.187-.478a.65.65 0 01.479-.188h3.995c.195 0 .354.063.478.188a.648.648 0 01.188.478v3.33a.648.648 0 01-.188.478.645.645 0 01-.478.187h-3.995a.649.649 0 01-.479-.187.647.647 0 01-.187-.478v-3.33zm7.99 21.974a.649.649 0 01-.187.478.647.647 0 01-.478.187H11.32a.647.647 0 01-.478-.187.647.647 0 01-.188-.478v-3.33c0-.194.063-.353.188-.478a.649.649 0 01.478-.187h1.998v-6.659H11.32a.648.648 0 01-.478-.187.647.647 0 01-.188-.479v-3.33c0-.193.063-.353.188-.478a.649.649 0 01.478-.187h6.66c.194 0 .353.062.477.187a.649.649 0 01.188.479v10.654h1.997c.195 0 .354.062.479.187a.65.65 0 01.187.479v3.33z" fill="currentColor" fill-rule="nonzero"/></symbol><symbol id="icon-housing" viewBox="0 0 20 21"><path fill="#118df0" d="M10.7.2H20v20h-9.3z"/><path fill="#fff" d="M14.3 15.3h2v2h-2zM14.3 11.4h2v2h-2zM14.3 7.4h2v2h-2zM14.3 3.4h2v2h-2z"/><path d="M12.4 20.3H.1v-7.4l6.1-5.5 6.2 5.4v7.5z" fill="#118df0" fill-rule="nonzero"/><path fill="#fff" d="M5.2 15.3h2v2h-2zM5.2 11.4h2v2h-2z"/></symbol><symbol id="icon-health" viewBox="0 0 20 21"><g fill="#118df0" fill-rule="nonzero"><path d="M6.5 7.7L8.8 10 14 4.8l5.1 5.1c.6-1.1 1-2.2 1-3.4 0-3.1-2.4-5.5-5.5-5.5-1.7 0-3.4.8-4.5 2.1C9 1.8 7.4 1 5.6 1 2.5 1 .1 3.4.1 6.5c0 1.8.8 3.5 2.2 5.3l4.2-4.1z"/><path d="M13.9 6.5l-5.1 5.1-2.3-2.3-3.4 3.4C4.5 14.3 6.4 16 8.6 18l1.4 1.3 1.4-1.3c3-2.7 5.4-4.9 6.9-7.1l-4.4-4.4z"/></g></symbol><symbol id="icon-gear" viewBox="0 0 25 25"><g fill-rule="nonzero"><path d="M12.5 23.988c-.7 0-1.3-.1-2-.2-6.2-1.1-10.4-7.1-9.3-13.3 1.1-6.2 7.1-10.4 13.3-9.3 6.2 1.1 10.4 7.1 9.3 13.3-1 5.6-5.8 9.5-11.3 9.5zm0-22c-5 0-9.4 3.6-10.3 8.7-1 5.7 2.8 11.1 8.5 12.1s11.1-2.8 12.1-8.5-2.8-11.2-8.5-12.2c-.6 0-1.2-.1-1.8-.1z" fill="#fbb720"/><path d="M12.631.013a12.4 12.4 0 019.146 4.164 12.678 12.678 0 012.501 4.238c.472 1.348.71 2.776.697 4.204a12.606 12.606 0 01-2.238 7.022 12.488 12.488 0 01-3.218 3.188 12.483 12.483 0 01-7.021 2.159 11.685 11.685 0 01-1.628-.137c-.409-.058-.41-.052-.702-.108a12.388 12.388 0 01-2.407-.718 12.44 12.44 0 01-3.806-2.473 12.68 12.68 0 01-2.717-3.74 12.479 12.479 0 01-1.162-4.219 12.388 12.388 0 011.203-6.547 12.474 12.474 0 012.26-3.212 12.706 12.706 0 013.637-2.609A12.55 12.55 0 0110.633.157c.559-.086 1.122-.13 1.687-.143.156-.002.156-.002.311-.001zm-.237 2.975a9.425 9.425 0 00-3.044.545 9.5 9.5 0 00-5.787 5.863 9.618 9.618 0 00-.52 2.906 9.38 9.38 0 00.45 3.089 9.461 9.461 0 004.471 5.399 9.579 9.579 0 003.753 1.123 9.43 9.43 0 009.085-4.89 9.53 9.53 0 00.968-2.667 9.616 9.616 0 00.098-3.215 9.606 9.606 0 00-4.338-6.752 9.34 9.34 0 00-3.282-1.295l-.043-.007c-.098-.001-.195-.006-.293-.01-.375-.021-.749-.06-1.125-.081a7.36 7.36 0 00-.393-.008z" fill="#fbb720"/><path d="M19.7 12.388c-.4-.1-.8-.2-1.2-.2 0-.7-.2-1.3-.4-1.9.3-.2.6-.4 1-.7 0 0 .1 0 .1-.1.1-.1.2-.2.1-.4-.4-.6-.8-1.2-1.2-1.7-.1-.1-.3-.2-.4-.1-.3.2-.7.5-1 .7-.5-.4-1-.8-1.6-1 .1-.4.1-.8.2-1.2v-.1c0-.1-.1-.3-.2-.3-.7-.1-1.4-.2-2.1-.4-.2 0-.4.1-.4.2-.1.4-.2.8-.2 1.2-.7 0-1.3.2-1.9.4-.5-.1-.7-.5-1-.8 0 0 0-.1-.1-.1 0-.1-.2-.1-.3 0-.6.4-1.2.8-1.7 1.2-.2.1-.3.3-.1.4.2.3.5.7.7 1-.4.5-.8 1-1 1.6-.4 0-.8-.1-1.2-.1-.2 0-.4.1-.4.2-.1.7-.2 1.4-.4 2.1 0 .2.1.4.2.4.4.1.8.2 1.2.2 0 .7.2 1.3.4 1.9-.3.2-.6.5-1 .7-.1.1-.2.3-.1.4.5.5.9 1.1 1.3 1.7.1.1.3.2.4.1.3-.2.7-.5 1-.7.5.4 1.1.8 1.7 1.1-.1.4-.1.8-.2 1.2 0 .2.1.4.2.4.7.1 1.4.2 2.1.4.2 0 .4-.1.4-.2.1-.4.2-.8.2-1.2.7 0 1.3-.2 1.9-.4.2.3.5.6.7 1 .1.1.3.2.4.1.6-.4 1.2-.8 1.7-1.2.1-.1.2-.3.1-.4-.2-.3-.5-.7-.7-1 .4-.5.8-1 1.1-1.6.4.1.8.1 1.2.2.2 0 .4-.1.4-.2.1-.7.2-1.4.4-2.1v-.1c0-.4-.1-.6-.3-.6zm-7.8 3.3c-1.8-.3-3-2-2.7-3.8.3-1.8 2-3 3.9-2.7 1.8.3 3 2 2.7 3.8-.3 1.9-2.1 3.1-3.9 2.7z" fill="#112e51"/></g></symbol><symbol id="icon-food" viewBox="0 0 20 21"><g fill-rule="nonzero"><path d="M11.2 2.5C10.1.4 7.6-.2 5.5.4c.5 2.1 2.3 3.8 4.6 3.8-.7.7-.8 1.4-.1 2 .6-1.5 2.1-3.1 3.4-4-.3-.4-.6-.7-.9-1.1-.4.4-.9.9-1.3 1.4z" fill="#184e9e"/><path d="M13.9 3.7c-1.8 0-3.3.9-3.9 2.4-.7-1.5-2.1-2.4-3.9-2.4-9.3 0-5.9 17.9 2.4 16.7.7-.1 1.2-.3 1.5-.7.3.3.8.6 1.5.7 8.3 1.2 11.7-16.7 2.4-16.7zM5.4 6.9c-1.6.6-2.3 2.4-1.6 4 .1.3 0 .7-.3.8h-.2c-.2 0-.5-.1-.6-.4-.9-2.1.1-4.6 2.3-5.5.3-.1.7 0 .8.3.1.3-.1.7-.4.8z" fill="#118df0"/></g></symbol><symbol id="icon-family-services" viewBox="0 0 20 21"><path d="M.7 20.5v-.9c0-5.2 4.2-9.5 9.5-9.5s9.5 4.2 9.5 9.5v.9" fill="#118df0" fill-rule="nonzero"/><g fill="#eef3f7"><circle cx="10" cy="14" r="2.8"/><path d="M6.1 20.5c0-2.2 1.8-4 4-4s4 1.8 4 4" fill-rule="nonzero"/></g><circle cx="9.9" cy="5.6" r="5.6" fill="#118df0"/></symbol><symbol id="icon-enrichment" viewBox="0 0 20 21"><g fill="#184e9e" fill-rule="nonzero"><path d="M9.7.3l2.6 4.5H7.1L9.7.3zM9.7 20.2l-2.6-4.4h5.2l-2.6 4.4zM0 10.6L4.5 8v5.2L0 10.6zM20 10.6l-4.5 2.6V8l4.5 2.6z"/><path d="M2.7 3.6l5 1.3L4 8.6l-1.3-5zM16.7 17.6l-5.1-1.3 3.7-3.7 1.4 5zM2.7 17.6l1.4-5 3.6 3.7-5 1.3zM16.7 3.6l-1.3 5L11.7 5l5-1.4z"/></g><ellipse cx="9.7" cy="10.6" rx="6.4" ry="6.3" fill="#fff"/><circle cx="9.7" cy="10.6" r="5.7" fill="#118df0"/></symbol><symbol id="icon-eligibilitycheck" viewBox="0 0 25 21"><path fill="currentColor" d="M9 20.1L.1 11.2c-.2-.2-.2-.4 0-.6l4.1-4.1c.2-.2.4-.2.6 0L9 10.6c.2.2.4.2.6 0L20.1.1c.2-.2.4-.2.6 0l4.1 4.1c.2.2.2.4 0 .6L9.6 20.1c-.1.2-.4.2-.6 0z"/></symbol><symbol id="icon-education" viewBox="0 0 20 17"><path fill="#184e9e" d="M1.9 7h.5v6.7h-.5z"/><path d="M2.2 12l1 1.7H1.1L2.2 12z" fill="#184e9e" fill-rule="nonzero"/><path d="M10 2.4l10 4.7-9.9 4.7-10-4.7L10 2.4z" fill="#118df0" fill-rule="nonzero"/><ellipse cx="10" cy="6.9" rx=".8" ry=".4" fill="#fff"/><path d="M15.5 14.087c0 .497-2.375.9-5.3.9s-5.3-.403-5.3-.9V10l5.1 2.6c.1.1.3.1.4 0l5.1-2.6v4.087z" fill="#118df0"/></symbol><symbol id="icon-contact" viewBox="0 0 22.2 20"><path d="M13.5 4.7c-4.8 0-8.7 3.4-8.7 7.6S8.6 20 13.5 20c1.7 0 3.4-.4 4.7-1.2 1.2.7 2.6.7 3.3.6.2 0 .3-.3.1-.4-.7-.5-1.1-1.2-1.4-1.8 1.2-1.3 1.9-3 1.9-4.8.1-4.3-3.8-7.7-8.6-7.7zm.6 10.8c0 .2-.2.4-.4.4h-.9c-.2 0-.4-.2-.4-.4v-.6c0-.2.2-.4.4-.4h.9c.2 0 .4.2.4.4v.6zm1.3-3.4c-.2.3-.5.6-.9.8-.2.1-.3.3-.4.4 0 .1-.1.2-.1.4 0 .1-.1.2-.2.2h-1.1c-.1 0-.3-.1-.2-.3 0-.3.1-.5.2-.7.1-.2.4-.5.8-.7.2-.1.4-.3.5-.5.1-.2.2-.4.2-.7 0-.3-.1-.5-.2-.6-.1-.2-.3-.2-.6-.2-.2 0-.4.1-.5.2-.1.1-.1.2-.2.3 0 .2-.2.3-.4.3h-1c-.1 0-.2-.1-.2-.2 0-.5.2-.9.6-1.2.4-.3 1-.5 1.7-.5s1.3.2 1.7.6c.4.4.6.9.6 1.5.1.2 0 .6-.3.9zM1.6 10.3C.6 9.2 0 7.8 0 6.3 0 2.8 3.2 0 7.2 0c2.7 0 5.1 1.3 6.3 3.2-5.3 0-9.7 3.7-10.2 8.4-1 .6-2.1.6-2.7.5-.2 0-.2-.3-.1-.4.6-.4.9-.9 1.1-1.4z" fill="currentColor"/></symbol><symbol id="icon-close" viewBox="0 0 20 20"><path fill="currentColor" d="M9.9 13.7l-6.1 6.1-3.6-3.6 6.1-6.1L0 3.7 3.7 0 10 6.3 16.1.2l3.6 3.6-6.1 6.1 6.3 6.3-3.6 3.8-6.4-6.3z"/></symbol><symbol id="icon-city-id-card" viewBox="0 0 20 17"><path d="M20 15.6c0 .2-.2.4-.4.4H.4c-.2 0-.4-.2-.4-.4V1.5c0-.3.2-.5.4-.5h19.1c.3 0 .5.2.5.5v14.1z" fill="#118df0" fill-rule="nonzero"/><g fill="#fff"><path d="M10 9h7v2h-7zM10 6h7v2h-7z"/></g><g fill="#fff"><path d="M1.8 12.4v-.3c0-1.8 1.4-3.2 3.2-3.2 1.8 0 3.2 1.4 3.2 3.2v.3" fill-rule="nonzero"/><circle cx="5" cy="7" r="2.2"/></g></symbol><symbol id="icon-child-care" viewBox="0 0 20 21"><path d="M16.5 14.6c0 2.5-2.1 4.6-4.6 4.6H8c-2.5 0-4.6-2.1-4.6-4.6v-1.9c0-2.5 2.1-4.6 4.6-4.6h3.9c2.5 0 4.6 2.1 4.6 4.6v1.9z" fill="#118df0" fill-rule="nonzero"/><g fill="#118df0" fill-rule="nonzero"><path d="M2.8 8.9c1.1.2 1.9 1.2 1.7 2.2-.2 1-1.2 1.8-2.4 1.6C1 12.5.2 11.5.4 10.5c.2-1 1.3-1.8 2.4-1.6z"/><path d="M6.9 9.5l-.7 3.8-4.1-.6.7-3.8 4.1.6z"/><g><path d="M17.1 8.9c-1.1.2-1.9 1.2-1.7 2.2.2 1 1.2 1.8 2.4 1.6 1.1-.2 1.9-1.2 1.7-2.2-.2-1-1.3-1.8-2.4-1.6z"/><path d="M13 9.5l.7 3.8 4.1-.6-.7-3.8-4.1.6z"/></g></g><ellipse cx="9.9" cy="5.9" rx="5.5" ry="5.1" fill="#118df0"/><ellipse cx="6.2" cy="1.9" rx="2" ry="1.9" fill="#118df0"/><ellipse cx="13.6" cy="1.9" rx="2" ry="1.9" fill="#118df0"/><circle cx="7.8" cy="5.1" r=".8" fill="#fff"/><circle cx="12.1" cy="5.1" r=".8" fill="#fff"/><ellipse cx="9.9" cy="7.1" rx=".9" ry=".5" fill="#184e9e"/><g fill="#184e9e" fill-rule="nonzero"><path d="M7.9 16.6c.6 1.6-.2 3.3-1.6 3.8-1.5.4-3.1-.5-3.7-2.2-.6-1.7.2-3.3 1.6-3.8 1.4-.5 3.1.6 3.7 2.2zM12 16.6c-.6 1.6.2 3.3 1.6 3.8 1.5.4 3.1-.5 3.7-2.2.6-1.7-.2-3.3-1.6-3.8-1.4-.5-3.1.6-3.7 2.2z"/></g></symbol><symbol id="icon-checkmark" viewBox="0 0 216 146"><path fill="currentColor" d="M168.86 37.966l-11.08-11.08c-1.52-1.52-3.367-2.28-5.54-2.28-2.172 0-4.02.76-5.54 2.28L93.254 80.414 69.3 56.38c-1.52-1.522-3.367-2.282-5.54-2.282-2.172 0-4.02.76-5.54 2.28L47.14 67.46c-1.52 1.522-2.28 3.37-2.28 5.542 0 2.172.76 4.02 2.28 5.54l29.493 29.493 11.08 11.08c1.52 1.52 3.368 2.28 5.54 2.28 2.173 0 4.02-.76 5.54-2.28l11.082-11.08L168.86 49.05c1.52-1.52 2.283-3.37 2.283-5.54 0-2.174-.76-4.02-2.28-5.54z"/></symbol><symbol id="icon-checkmark-white" viewBox="0 0 216 146"><path fill="#FFF" d="M168.86 37.966l-11.08-11.08c-1.52-1.52-3.367-2.28-5.54-2.28-2.172 0-4.02.76-5.54 2.28L93.254 80.414 69.3 56.38c-1.52-1.522-3.367-2.282-5.54-2.282-2.172 0-4.02.76-5.54 2.28L47.14 67.46c-1.52 1.522-2.28 3.37-2.28 5.542 0 2.172.76 4.02 2.28 5.54l29.493 29.493 11.08 11.08c1.52 1.52 3.368 2.28 5.54 2.28 2.173 0 4.02-.76 5.54-2.28l11.082-11.08L168.86 49.05c1.52-1.52 2.283-3.37 2.283-5.54 0-2.174-.76-4.02-2.28-5.54z"/></symbol><symbol id="icon-cash-expenses" viewBox="0 0 20 20"><g fill-rule="nonzero"><path d="M15.55 6c-.7 0-2.1-1.1-2.1-1.8V0H3.25C1.75 0 .45 1.1.45 2.5v14.6c0 1.4 1.3 2.9 2.8 2.9h13.7c1.4 0 2.6-1.5 2.6-2.8V6h-4z" fill="#118df0"/><path d="M13.45 4.3c0 .8.8 1.7 2 1.7h4l-6-6v4.3z" fill="#184e9e"/><path d="M11.85 7.5c-.3-.2-.5-.4-.8-.5-.3-.1-.5-.2-.9-.2-.3.1-.6.2-.8.3-.2.2-.3.5-.3.8 0 .2.1.4.3.6.2.2.4.3.7.4.3.1.6.3.9.4.3.1.6.3.9.5.3.2.5.4.7.7.2.3.3.6.3 1 0 .6-.2 1.1-.6 1.5-.4.4-.9.7-1.6.8v1.3h-1.1v-1.2c-.4 0-.9-.1-1.3-.3-.4-.2-.8-.4-1.1-.6l.7-1c.3.2.7.4 1 .6.3.1.7.2 1.1.2.5 0 .8-.1 1-.3.2-.2.3-.4.3-.8 0-.3-.1-.5-.3-.7-.2-.2-.4-.3-.7-.5-.3-.1-.6-.3-.9-.4-.3-.2-.6-.4-.9-.5-.3-.2-.5-.4-.7-.7-.2-.3-.3-.6-.3-1 0-.6.2-1.1.6-1.4.4-.4.9-.6 1.5-.7V4.5h1.1v1.2c.4 0 .8.2 1.2.3l.9.6-.9.9z" fill="#fff"/></g></symbol><symbol id="icon-card-work" viewBox="0 0 50 50"><circle cx="25" cy="25" r="25" fill="#118df0"/><circle cx="25" cy="25" r="22.9" fill="none" stroke="#fff" stroke-width="2"/><g><g fill="#fff"><path d="M9.4 36.5c0-.4-.1-.8-.1-1.2 0-6.6 5.4-12 12-12s12 5.4 12 12c0 .4 0 .8-.1 1.2" fill-rule="nonzero"/><circle cx="21.4" cy="16.4" r="8.2"/></g><circle cx="30.7" cy="31.8" r="10" fill="#184e9e"/><path d="M30.6 32.4c-.4 0-.7-.3-.7-.6v-7c0-.4.3-.6.6-.6h.1c.4 0 .6.3.6.6v7c0 .3-.3.6-.6.6z" fill="#fff" fill-rule="nonzero"/><path d="M34.5 35.5l-.2.2c-.2.2-.6.2-.8 0L30 32.2c-.2-.2-.2-.6 0-.8l.2-.2c.2-.2.6-.2.8 0l3.5 3.5c.2.2.2.6 0 .8z" fill="#fff" fill-rule="nonzero"/></g></symbol><symbol id="icon-card-people-with-disabilities" viewBox="0 0 50 50"><circle cx="25" cy="25" r="25" fill="#118df0"/><circle cx="25" cy="25" r="23.7" fill="#fff"/><circle cx="25" cy="25" r="21.6" fill="#118df0"/><g fill="#fff" fill-rule="nonzero"><path d="M25.4 9.5l5.8 4.5 6.9-2.2-2.5 6.9 4.3 5.9-7.4-.2-4.3 5.8-2-7-6.9-2.3 6-4.1.1-7.3zM14.7 25.4l4.1 3.2 5-1.5L22 32l3.1 4.3-5.3-.2-3.1 4.3-1.5-5.1-5-1.7 4.4-2.9.1-5.3z"/></g></symbol><symbol id="icon-card-housing" viewBox="0 0 50 50"><circle cx="25" cy="25" r="25" fill="#118df0"/><circle cx="25" cy="25" r="22.9" fill="none" stroke="#fff" stroke-width="2"/><g><path fill="#fff" d="M24.9 11.1h11.9v25.7H24.9z"/><path fill="#118df0" d="M29.5 30.5h2.6v2.6h-2.6zM29.5 25.4h2.6V28h-2.6zM29.5 20.3h2.6v2.6h-2.6zM29.5 15.2h2.6v2.6h-2.6z"/><path d="M27.1 36.8H11.3v-9.5l7.9-7 7.8 6.9.1.1v9.5z" fill="#fff" fill-rule="nonzero"/><path fill="#118df0" d="M17.9 30.5h2.6v2.6h-2.6zM17.9 25.4h2.6V28h-2.6z"/></g></symbol><symbol id="icon-card-health" viewBox="0 0 50 50"><circle cx="25" cy="25" r="25" fill="#118df0"/><circle cx="25" cy="25" r="23.7" fill="#fff"/><circle cx="25" cy="25" r="21.6" fill="#118df0"/><g fill="#fff" fill-rule="nonzero"><path d="M19.4 23l3.5 3.5 8-8 8 8c1-1.7 1.5-3.5 1.5-5.3 0-4.8-3.7-8.5-8.5-8.5-2.7 0-5.3 1.3-7 3.2-1.7-2-4.3-3.2-7-3.2-4.8 0-8.5 3.7-8.5 8.5 0 2.9 1.3 5.5 3.5 8.2l6.5-6.4z"/><path d="M31 21.1l-8 8-3.5-3.5-5.3 5.3c2.2 2.5 5.1 5.1 8.6 8.2l2.2 2 2.2-2c4.7-4.3 8.5-7.7 10.8-11l-7-7z"/></g></symbol><symbol id="icon-card-food" viewBox="0 0 50 50"><circle cx="25" cy="25" r="25" fill="#118df0"/><circle cx="25" cy="25" r="23.7" fill="#fff"/><circle cx="25" cy="25" r="21.6" fill="#118df0"/><g fill="#fff" fill-rule="nonzero"><path d="M26.6 13.3c-1.6-3.1-5.3-4.1-8.5-3.2.8 3.1 3.4 5.7 6.8 5.7-1.1 1.1-1.1 2.1-.1 3 .9-2.2 3.1-4.7 5.1-6-.4-.6-.9-1.1-1.3-1.7-.6.7-1.3 1.4-2 2.2z"/><path d="M30.7 15.1c-2.7 0-4.9 1.4-5.9 3.6-1-2.2-3.2-3.6-5.9-3.6-13.9 0-8.8 26.7 3.6 25 1.1-.1 1.8-.5 2.3-1 .5.5 1.2.9 2.3 1 12.4 1.7 17.5-25 3.6-25zM18 19.9c-2.3 1-3.4 3.6-2.5 6 .2.5 0 1-.5 1.2-.1 0-.2.1-.3.1-.3 0-.7-.2-.8-.5-1.3-3.2.2-7 3.4-8.3.5-.2 1 0 1.2.5.2.3 0 .8-.5 1z"/></g></symbol><symbol id="icon-card-family-services" viewBox="0 0 50 50"><circle cx="25" cy="25" r="25" fill="#118df0"/><circle cx="25" cy="25" r="22.9" fill="none" stroke="#fff" stroke-width="2"/><g><path d="M12.5 38.2c0-.4-.1-.8-.1-1.2 0-6.8 5.5-12.3 12.3-12.3C31.5 24.7 37 30.2 37 37c0 .4 0 .8-.1 1.2" fill="#fff" fill-rule="nonzero"/><g fill="#118df0"><circle cx="24.5" cy="29.9" r="3.6"/><path d="M19.6 38.2c0-2.9 2.3-5.2 5.2-5.2 2.9 0 5.2 2.3 5.2 5.2" fill-rule="nonzero"/></g><circle cx="24.4" cy="18.9" r="7.3" fill="#fff"/></g></symbol><symbol id="icon-card-expenses" viewBox="0 0 50 50"><circle cx="25" cy="25" r="25" fill="#118df0"/><circle cx="25" cy="25" r="23.7" fill="#fff"/><circle cx="25" cy="25" r="21.6" fill="#118df0"/><g fill-rule="nonzero"><path d="M32.1 21c-.9 0-3.1-1.5-3.1-2.3V13H15.7c-1.9 0-3.7 1.5-3.7 3.3v19.5c0 1.8 1.8 3.1 3.7 3.1h18.2c1.9 0 3.1-1.3 3.1-3.1V21h-4.9z" fill="#fff"/><path d="M29 18.7c0 1.2 1.4 2.3 2.9 2.3H37l-8-8v5.7z" fill="#184e9e"/><path d="M27.2 23.1c-.3-.3-.7-.5-1-.6-.3-.1-.7-.2-1.2-.2s-.9.1-1.2.3c-.3.2-.4.5-.4 1 0 .3.1.6.4.8.2.2.6.4.9.6.4.2.8.4 1.2.5l1.2.6c.4.3.7.6.9.9.2.4.4.8.4 1.4 0 .8-.2 1.4-.7 2-.5.5-1.2.9-2.1 1v1.7h-1.5v-1.6c-.6-.1-1.1-.2-1.7-.4-.6-.2-1.1-.5-1.5-.8l1-1.3c.4.3.9.6 1.3.7.4.2.9.3 1.4.3.6 0 1.1-.1 1.4-.4.3-.2.4-.6.4-1s-.1-.7-.4-.9c-.2-.2-.6-.5-.9-.7l-2.4-1.2c-.4-.2-.7-.5-.9-.9-.2-.3-.4-.8-.4-1.3 0-.8.2-1.4.7-1.9.5-.5 1.2-.8 2-1V19h1.5v1.6c.6.1 1.1.2 1.5.5.4.2.8.5 1.2.8l-1.1 1.2z" fill="#118df0"/></g></symbol><symbol id="icon-card-enrichment" viewBox="0 0 50 50"><circle cx="25" cy="25" r="25" fill="#118df0"/><circle cx="25" cy="25" r="22.9" fill="none" stroke="#fff" stroke-width="2"/><g><g fill="#fff" fill-rule="nonzero"><path d="M25.6 8.8l4.3 7.5h-8.7l4.4-7.5zM25.3 41.8l-4.4-7.4h8.7l-4.3 7.4zM9.1 25.4l7.5-4.3v8.6l-7.5-4.3zM42.2 25.4l-7.6 4.3v-8.6l7.6 4.3z"/><path d="M13.9 13.7l8.3 2.2-6.1 6.1-2.2-8.3zM37.2 37l-8.3-2.2 6.1-6.1 2.2 8.3zM13.6 37.1l2.3-8.4 6.1 6.1-8.4 2.3zM37.3 13.7L35.1 22 29 15.9l8.3-2.2z"/></g><circle cx="25.3" cy="25.3" r="10.6" fill="#118df0"/><circle cx="25.3" cy="25.3" r="9.5" fill="#fff"/></g></symbol><symbol id="icon-card-education" viewBox="0 0 50 50"><circle cx="25" cy="24.6" r="25" fill="#118df0"/><circle cx="25" cy="24.6" r="23.7" fill="#fff"/><circle cx="25" cy="24.6" r="21.6" fill="#118df0"/><g><path fill="#184e9e" d="M11 21.7h.9v11.5H11z"/><path d="M11.5 30.2l1.7 3H9.8l1.7-3z" fill="#184e9e" fill-rule="nonzero"/><path d="M25 13.8l17 8.1-17 8-17-8 17-8.1z" fill="#fff" fill-rule="nonzero"/><path d="M16.1 26.9l8.7 4.4c.2.1.5.1.7 0l8.7-4.4v6.9c-.3-.2-.6-.3-1-.4-.2-.1-.4-.1-.5-.2h-.1c-.1 0-.2-.1-.3-.1l-1.2-.3c-.4-.1-.8-.1-1.2-.2-.3 0-.6-.1-.9-.1-.6-.1-1.2-.1-1.9-.2H23c-.2 0-.5 0-.7.1h-.5c-.4 0-.9.1-1.3.1-.5.1-1 .2-1.5.2h-.2c-.4.1-.7.1-1 .2-.1 0-.2.1-.3.1h-.1c-.1 0-.2.1-.3.1-.1 0-.1 0-.2.1-.4.1-.7.2-1 .4v-6.7h.2z" fill="#fff" fill-rule="nonzero"/><ellipse cx="24.9" cy="21.6" rx="1.4" ry=".7" fill="#118df0"/><path d="M25.2 32.1h1.3c.8 0 1.6.1 2.3.2.2 0 .4 0 .6.1h.2c.1 0 .3 0 .4.1.2 0 .4.1.6.1.3 0 .5.1.7.1.1 0 .2 0 .3.1h.1c.8.2 1.4.4 1.9.6.3.2.5.3.5.4 0 0-.1.1-.3.2-.4.2-1.1.5-1.9.7-1.7.4-4.2.7-6.9.7s-5.1-.3-6.8-.7c-.9-.2-1.5-.5-1.9-.7-.2-.1-.3-.2-.3-.2.1 0 .2-.2.6-.4.4-.2.9-.4 1.5-.5.1 0 .2 0 .2-.1.4-.1.9-.2 1.4-.3.2 0 .4-.1.6-.1.1 0 .3 0 .4-.1h.2c.2 0 .4 0 .6-.1.2 0 .5 0 .7-.1.4 0 .7-.1 1.1-.1h.8c.5.1.8.1 1.1.1z" fill="#fff" fill-rule="nonzero"/></g></symbol><symbol id="icon-card-city-id-card" viewBox="0 0 50 50"><circle cx="25" cy="25" r="25" fill="#118df0"/><circle cx="25" cy="25" r="23.7" fill="#fff"/><circle cx="25" cy="25" r="21.6" fill="#118df0"/><g><path d="M37.5 34.8h-25c-.3 0-.6-.3-.6-.6V15.6c0-.3.3-.6.6-.6h25c.3 0 .6.3.6.6v18.6c0 .3-.3.6-.6.6z" fill="#fff" fill-rule="nonzero"/><g fill="#118df0"><path d="M25.7 26.1h9.1v1.8h-9.1zM25.7 21.8h9.1v1.8h-9.1z"/></g><g fill="#118df0"><path d="M14.4 30v-.4c0-2.4 1.9-4.3 4.3-4.3s4.3 1.9 4.3 4.3v.4" fill-rule="nonzero"/><circle cx="18.9" cy="22.7" r="2.9"/></g></g></symbol><symbol id="icon-card-child-care" viewBox="0 0 50 50"><circle cx="25" cy="25" r="25" fill="#118df0"/><circle cx="25" cy="25" r="22.9" fill="none" stroke="#fff" stroke-width="2"/><g><path d="M28.3 40.2h-6.5c-4.1 0-7.4-3.3-7.4-7.4v-3.1c0-4.1 3.3-7.4 7.4-7.4h6.5c4.1 0 7.4 3.3 7.4 7.4v3.1c0 4.1-3.4 7.4-7.4 7.4z" fill="#fff" fill-rule="nonzero"/><g fill="#fff" fill-rule="nonzero"><path d="M13.4 23c1.8.3 3 1.9 2.7 3.6-.3 1.7-2 2.8-3.8 2.6-1.8-.2-3-1.9-2.7-3.6.3-1.8 2-2.9 3.8-2.6z"/><path d="M20.1 24L19 30.1l-6.7-1 1.1-6.1 6.7 1z"/><g><path d="M36.6 23c-1.8.3-3 1.9-2.7 3.6.3 1.7 2 2.8 3.8 2.6 1.8-.3 3-1.9 2.7-3.6-.3-1.8-2-2.9-3.8-2.6z"/><path d="M29.9 24l1.1 6.1 6.7-1-1.1-6.1-6.7 1z"/></g></g><ellipse cx="25" cy="18.1" rx="8.9" ry="8.3" fill="#fff"/><ellipse cx="19" cy="11.6" rx="3.3" ry="3.1" fill="#fff"/><ellipse cx="31" cy="11.6" rx="3.3" ry="3.1" fill="#fff"/><ellipse cx="21.5" cy="16.8" rx="1.4" ry="1.3" fill="#118df0"/><ellipse cx="28.5" cy="16.8" rx="1.4" ry="1.3" fill="#118df0"/><ellipse cx="24.9" cy="20" rx="1.5" ry=".8" fill="#184e9e"/><g fill="#184e9e" fill-rule="nonzero"><path d="M21.7 35.4c.9 2.7-.3 5.4-2.6 6.1-2.4.7-5.1-.9-6-3.5-.9-2.7.3-5.4 2.6-6.1 2.4-.7 5 .9 6 3.5zM28.3 35.4c-.9 2.7.3 5.4 2.6 6.1 2.4.7 5.1-.9 6-3.5.9-2.7-.3-5.4-2.6-6.1-2.4-.7-5.1.9-6 3.5z"/></g></g></symbol><symbol id="icon-card-cash-expenses" viewBox="0 0 50 50"><circle cx="25" cy="25" r="25" fill="#118df0"/><circle cx="25" cy="25" r="23.7" fill="#fff"/><circle cx="25" cy="25" r="21.6" fill="#118df0"/><path d="M37.1 18.5v16.8c0 1.668-1.348 3.047-3.1 3.1H15.9c-1.7 0-3.1-1.4-3.1-3.1V14.7c0-1.7 1.4-3.1 3.1-3.1h14.4v5.2c0 1 .8 1.7 1.7 1.7h5.1z" fill="#fff"/><path d="M37.1 18.5H32c-.9 0-1.7-.7-1.7-1.7v-5.2h.1l6.7 6.9z" fill="#184e9e"/><path d="M27.4 21.9c-.3-.3-.7-.5-1-.7-.3-.1-.7-.2-1.1-.2-.5 0-.9.1-1.1.3-.3.2-.4.6-.4 1 0 .3.1.6.4.8.2.2.5.4.9.6.4.2.8.4 1.2.5.4.2.8.4 1.2.7.4.3.7.6.9.9.2.4.4.8.4 1.4 0 .8-.2 1.5-.7 2-.5.5-1.2.9-2.1 1v1.7h-1.4v-1.7c-.5-.1-1.1-.2-1.6-.4-.6-.2-1-.5-1.4-.9l.9-1.3c.4.3.8.6 1.3.7.4.2.9.3 1.4.3.6 0 1-.1 1.3-.4.3-.2.4-.6.4-1.1 0-.4-.1-.7-.4-.9-.2-.2-.5-.5-.9-.7l-2.4-1.2c-.4-.2-.7-.5-.9-.9-.2-.3-.4-.8-.4-1.3 0-.8.2-1.4.7-1.9.5-.5 1.1-.8 1.9-1v-1.7h1.4v1.7c.6.1 1.1.2 1.5.5.4.2.8.5 1.1.8l-1.1 1.4z" fill="#118df0" fill-rule="nonzero"/></symbol><symbol id="icon-arrow-down" viewBox="0 0 444.8 444.8"><path fill="currentColor" d="M248.1 352L434 165.9c7.2-6.9 10.8-15.4 10.8-25.7 0-10.3-3.6-18.8-10.8-25.7l-21.4-21.7c-7-7-15.6-10.6-25.7-10.6-9.9 0-18.6 3.5-26 10.6L222.4 231.5 83.7 92.8c-7-7-15.6-10.6-25.7-10.6-9.9 0-18.6 3.5-26 10.6l-21.4 21.7c-7 7-10.6 15.6-10.6 25.7s3.5 18.7 10.6 25.7L196.4 352c7.4 7 16.1 10.6 26 10.6 10.1 0 18.7-3.5 25.7-10.6z"/></symbol></svg>