<svg viewBox="0 0 33 33" xmlns="http://www.w3.org/2000/svg" fill-rule="evenodd" clip-rule="evenodd" stroke-linejoin="round" stroke-miterlimit="1.414"><g fill="currentColor" fill-rule="nonzero"><path d="M14.4 17.7H9v-3.2h5.5V8.8h3.4v5.7h5.5v3.2h-5.5v5.7h-3.4v-5.7h-.1z"/><path d="M16.294.039a15.935 15.935 0 016.653 1.507 16.175 16.175 0 015.136 3.819 16.383 16.383 0 013.187 5.283c.66 1.796.998 3.707.988 5.621a15.943 15.943 0 01-.235 2.653 16.054 16.054 0 01-6.161 10.027 16.32 16.32 0 01-4.9 2.526 16.179 16.179 0 01-4.683.749 13.679 13.679 0 01-2.661-.231c-.114-.022-.228-.048-.342-.07-.135-.027-.271-.049-.406-.076a15.92 15.92 0 01-2.542-.727A15.836 15.836 0 015.48 28.2a16.083 16.083 0 01-5.162-9.053 16.033 16.033 0 01-.241-4.149c.123-1.696.51-3.374 1.154-4.948a15.976 15.976 0 012.926-4.643 16.378 16.378 0 014.927-3.714A16.203 16.203 0 0113.527.261a16.74 16.74 0 012.167-.215c.2-.005.4-.007.6-.007zm-.354 1.687a14.453 14.453 0 00-4.774.868A14.562 14.562 0 007.132 4.84a14.288 14.288 0 00-3.208 3.551 14.097 14.097 0 00-2.001 5.23 14.76 14.76 0 00-.211 3.092 14.42 14.42 0 001.034 4.805 14.6 14.6 0 002.999 4.642 14.425 14.425 0 004.573 3.212 14.448 14.448 0 005.855 1.227 14.423 14.423 0 005.826-1.249 14.624 14.624 0 004.286-2.916 14.454 14.454 0 002.702-3.649 14.458 14.458 0 001.555-7.912 14.447 14.447 0 00-1.192-4.572 14.626 14.626 0 00-3.163-4.532 14.304 14.304 0 00-7.144-3.776c-.183-.038-.184-.035-.367-.07-.084-.017-.167-.036-.252-.051a8.115 8.115 0 00-.496-.074 12.9 12.9 0 00-1.213-.07 40.043 40.043 0 00-.775-.002z"/></g></svg>