<?xml version="1.0" encoding="UTF-8" standalone="no"?>
<!DOCTYPE svg PUBLIC "-//W3C//DTD SVG 1.1//EN" "http://www.w3.org/Graphics/SVG/1.1/DTD/svg11.dtd">
<svg width="100%" height="100%" viewBox="0 0 50 50" version="1.1" xmlns="http://www.w3.org/2000/svg" xmlns:xlink="http://www.w3.org/1999/xlink" xml:space="preserve" style="fill-rule:evenodd;clip-rule:evenodd;stroke-linejoin:round;stroke-miterlimit:1.41421;">
    <g>
        <g>
            <circle cx="25" cy="25" r="25" style="fill:#118df0;" />
            <circle cx="25" cy="25" r="23.7" style="fill:#fff;" />
            <circle cx="25" cy="25" r="21.6" style="fill:#118df0;" />
        </g>
        <path d="M37.1,18.5l0,16.8c0,1.668 -1.348,3.047 -3.1,3.1l-18.1,0c-1.7,0 -3.1,-1.4 -3.1,-3.1l0,-20.6c0,-1.7 1.4,-3.1 3.1,-3.1l14.4,0l0,5.2c0,1 0.8,1.7 1.7,1.7l5.1,0Z" style="fill:#fff;" />
        <path d="M37.1,18.5l-5.1,0c-0.9,0 -1.7,-0.7 -1.7,-1.7l0,-5.2l0.1,0l6.7,6.9Z" style="fill:#184e9e;" />
        <path id="Dollar_x5F_sign_1_" d="M27.4,21.9c-0.3,-0.3 -0.7,-0.5 -1,-0.7c-0.3,-0.1 -0.7,-0.2 -1.1,-0.2c-0.5,0 -0.9,0.1 -1.1,0.3c-0.3,0.2 -0.4,0.6 -0.4,1c0,0.3 0.1,0.6 0.4,0.8c0.2,0.2 0.5,0.4 0.9,0.6c0.4,0.2 0.8,0.4 1.2,0.5c0.4,0.2 0.8,0.4 1.2,0.7c0.4,0.3 0.7,0.6 0.9,0.9c0.2,0.4 0.4,0.8 0.4,1.4c0,0.8 -0.2,1.5 -0.7,2c-0.5,0.5 -1.2,0.9 -2.1,1l0,1.7l-1.4,0l0,-1.7c-0.5,-0.1 -1.1,-0.2 -1.6,-0.4c-0.6,-0.2 -1,-0.5 -1.4,-0.9l0.9,-1.3c0.4,0.3 0.8,0.6 1.3,0.7c0.4,0.2 0.9,0.3 1.4,0.3c0.6,0 1,-0.1 1.3,-0.4c0.3,-0.2 0.4,-0.6 0.4,-1.1c0,-0.4 -0.1,-0.7 -0.4,-0.9c-0.2,-0.2 -0.5,-0.5 -0.9,-0.7l-2.4,-1.2c-0.4,-0.2 -0.7,-0.5 -0.9,-0.9c-0.2,-0.3 -0.4,-0.8 -0.4,-1.3c0,-0.8 0.2,-1.4 0.7,-1.9c0.5,-0.5 1.1,-0.8 1.9,-1l0,-1.7l1.4,0l0,1.7c0.6,0.1 1.1,0.2 1.5,0.5c0.4,0.2 0.8,0.5 1.1,0.8l-1.1,1.4l0,0Z" style="fill:#118df0;fill-rule:nonzero;" />
    </g>
</svg>