<svg width="175" height="16" fill="none" xmlns="http://www.w3.org/2000/svg"><path fill-rule="evenodd" clip-rule="evenodd" d="M128.789 4.794c-.738 0-1.766.522-2.056 1.333h-.058V4.903H125.4V12h1.333V8.184c0-1.304.927-2.071 1.839-2.071.29 0 .522.028.71.1l.507-1.244c-.275-.116-.565-.175-1-.175zM152.801 1.46h1.332V12h-1.332V1.46zM148.658 4.794c-1.433 0-2.767.8-2.767 2.05 0 1.21 1.209 1.757 1.841 1.911l1.432.338c.731.182.982.562.982.913 0 .575-.617.952-1.418.952-.829 0-1.544-.404-1.909-1.293l-1.152.478c.407 1 1.39 1.984 3.048 1.984 1.615 0 2.752-.941 2.752-2.163 0-.843-.575-1.686-1.938-2.01l-1.404-.323c-.548-.126-.912-.364-.912-.8 0-.562.672-.868 1.403-.868.674 0 1.347.268 1.615.914l1.123-.464c-.421-1.054-1.502-1.62-2.696-1.62zM158.579 10.929c-.675 0-1.508-.348-1.508-1.078 0-.632.608-1.322 1.971-1.322 1.096 0 1.625.409 1.625.409 0 1.124-1.063 1.99-2.088 1.99zm.28-6.135c-1.728 0-2.701 1.006-2.94 1.638l1.18.506c.239-.646 1.072-.946 1.788-.946.97 0 1.78.602 1.78 1.693v.198c-.268-.155-.922-.422-1.85-.422-1.615 0-3.116.803-3.116 2.362 0 1.433 1.262 2.304 2.666 2.304 1.181 0 1.864-.636 2.244-1.212h.056V12h1.255V7.744c0-1.939-1.377-2.95-3.063-2.95zM133.323 10.929c-.674 0-1.508-.348-1.508-1.078 0-.632.609-1.322 1.972-1.322 1.095 0 1.624.409 1.624.409 0 1.124-1.062 1.99-2.088 1.99zm.281-6.135c-1.728 0-2.702 1.006-2.941 1.638l1.18.506c.24-.646 1.072-.946 1.789-.946.969 0 1.779.602 1.779 1.693v.198c-.267-.155-.922-.422-1.85-.422-1.615 0-3.115.803-3.115 2.362 0 1.433 1.261 2.304 2.666 2.304 1.18 0 1.863-.636 2.243-1.212h.056V12h1.256V7.744c0-1.939-1.377-2.95-3.063-2.95zM169.398 7.623c.257-1.003 1.027-1.631 1.998-1.631 1.498 0 2.011 1.035 2.054 1.631h-4.052zm2.026-2.83c-2.054 0-3.424 1.714-3.424 3.668 0 2.079 1.427 3.666 3.567 3.666 1.612 0 2.64-.9 3.053-1.882l-1.17-.478c-.371.872-1.141 1.162-1.912 1.162-1.084 0-2.154-.768-2.225-2.222h5.521s.015-.148.015-.246c0-2.22-1.342-3.667-3.425-3.667zM141.778 4.794c-.971 0-1.869.565-2.245 1.216h-.058V4.903H138.2V12h1.333V8.197c0-1.086.71-2.187 1.868-2.187 1.014 0 1.753.493 1.753 1.97V12h1.333V7.778c0-1.753-.898-2.984-2.709-2.984zM165.399 2.794h-1.332v2.109h-1.246V6.13h1.246v3.723c0 1.449.796 2.274 2.288 2.274.449 0 .768-.058 1.072-.188l-.463-1.144a1.352 1.352 0 01-.609.116c-.622 0-.956-.362-.956-1.16V6.13h1.738V4.903h-1.738V2.794zM124.95 1.46h-7.217v1.367h2.934v9.167h1.35V2.827h2.933V1.461zM72.16 5.586v1.639h3.922c-.117.922-.425 1.595-.893 2.063-.571.57-1.464 1.2-3.029 1.2-2.415 0-4.303-1.946-4.303-4.36 0-2.415 1.888-4.361 4.303-4.361 1.302 0 2.253.512 2.956 1.17l1.156-1.156C75.292.845 73.989.127 72.16.127c-3.307 0-6.088 2.693-6.088 6 0 3.308 2.78 6 6.088 6 1.785 0 3.131-.585 4.185-1.682 1.083-1.084 1.42-2.606 1.42-3.835 0-.38-.03-.731-.088-1.024H72.16zM82.667 4.255c-2.142 0-3.888 1.628-3.888 3.872 0 2.23 1.746 3.873 3.888 3.873s3.887-1.643 3.887-3.873c0-2.244-1.745-3.872-3.887-3.872zm0 6.219c-1.174 0-2.186-.968-2.186-2.347 0-1.393 1.012-2.347 2.186-2.347 1.173 0 2.186.954 2.186 2.347 0 1.379-1.013 2.347-2.186 2.347zM101.72 5.12h-.059c-.382-.455-1.115-.865-2.039-.865C97.686 4.255 96 5.94 96 8.127 96 10.297 97.686 12 99.622 12c.924 0 1.657-.41 2.039-.88h.059v.541c0 1.482-.792 2.274-2.069 2.274-1.041 0-1.686-.748-1.95-1.38l-1.482.617c.426 1.027 1.555 2.289 3.432 2.289 1.996 0 3.682-1.174 3.682-4.034V4.454h-1.613v.667zm-1.95 5.354c-1.174 0-2.068-.997-2.068-2.347 0-1.364.894-2.347 2.067-2.347 1.16 0 2.068.998 2.068 2.362 0 1.35-.908 2.332-2.068 2.332zM91.333 4.255c-2.141 0-3.887 1.628-3.887 3.872 0 2.23 1.746 3.873 3.887 3.873 2.142 0 3.888-1.643 3.888-3.873 0-2.244-1.746-3.872-3.888-3.872zm0 6.219c-1.173 0-2.185-.968-2.185-2.347 0-1.393 1.012-2.347 2.185-2.347 1.174 0 2.186.954 2.186 2.347 0 1.379-1.012 2.347-2.186 2.347zM104.667.287h1.673V12h-1.673V.287zM111.51 10.474c-.865 0-1.481-.395-1.878-1.173l5.178-2.142-.176-.44c-.323-.865-1.305-2.464-3.315-2.464-1.995 0-3.652 1.57-3.652 3.872 0 2.172 1.642 3.873 3.843 3.873 1.775 0 2.801-1.085 3.227-1.717l-1.32-.88c-.44.646-1.042 1.07-1.907 1.07zm-.126-4.768c.689 0 1.272.35 1.467.854l-3.498 1.45c0-1.633 1.155-2.304 2.031-2.304z" fill="currentColor"/><g fill="currentColor"><path d="M6.176 8.9c0 .965-.22 1.743-.662 2.332-.442.59-1.04.885-1.793.885-.77 0-1.375-.244-1.817-.732v3.053H.82V5.66h.99l.053.703c.442-.547 1.055-.82 1.84-.82.762 0 1.363.287 1.805.861.445.575.668 1.373.668 2.397v.1zm-1.084-.123c0-.714-.153-1.279-.457-1.693-.305-.414-.723-.621-1.254-.621-.656 0-1.149.29-1.477.873v3.03c.325.577.82.866 1.489.866.52 0 .931-.205 1.236-.615.309-.414.463-1.027.463-1.84zM7.271 8.771c0-.62.122-1.18.364-1.675a2.758 2.758 0 011.02-1.149 2.79 2.79 0 011.493-.404c.864 0 1.561.299 2.092.896.535.598.803 1.393.803 2.385V8.9c0 .618-.12 1.172-.357 1.665a2.67 2.67 0 01-1.014 1.142c-.438.273-.942.41-1.512.41-.86 0-1.556-.299-2.092-.896-.53-.598-.797-1.389-.797-2.373V8.77zm1.09.13c0 .703.162 1.267.487 1.693.328.426.765.638 1.312.638.55 0 .988-.214 1.313-.644.324-.434.486-1.04.486-1.817 0-.695-.166-1.257-.498-1.687a1.564 1.564 0 00-1.313-.65c-.535 0-.966.212-1.294.638-.329.426-.493 1.035-.493 1.828zM20.016 10.506l1.218-4.846h1.084L20.473 12h-.88l-1.54-4.805-1.5 4.805h-.88l-1.839-6.34h1.078l1.248 4.746 1.477-4.746h.873l1.506 4.846zM26.057 12.117c-.86 0-1.559-.281-2.098-.844-.54-.566-.809-1.322-.809-2.267v-.2c0-.628.12-1.189.358-1.681a2.814 2.814 0 011.008-1.16 2.535 2.535 0 011.406-.422c.824 0 1.465.271 1.922.814.457.543.685 1.32.685 2.332v.452h-4.295c.016.625.198 1.13.545 1.517.352.383.797.574 1.336.574.383 0 .707-.078.973-.234.265-.156.498-.363.697-.621l.662.516c-.531.816-1.328 1.224-2.39 1.224zm-.135-5.683c-.438 0-.805.16-1.102.48-.297.316-.48.762-.55 1.336h3.175v-.082c-.03-.55-.18-.977-.445-1.277-.266-.305-.625-.457-1.078-.457zM32.853 6.633a3.248 3.248 0 00-.533-.041c-.71 0-1.193.303-1.447.908V12h-1.084V5.66h1.055l.017.733c.356-.567.86-.85 1.512-.85.211 0 .371.027.48.082v1.008zM36.37 12.117c-.86 0-1.56-.281-2.098-.844-.54-.566-.81-1.322-.81-2.267v-.2c0-.628.12-1.189.358-1.681a2.814 2.814 0 011.008-1.16 2.535 2.535 0 011.406-.422c.825 0 1.465.271 1.922.814.457.543.686 1.32.686 2.332v.452h-4.295c.016.625.197 1.13.545 1.517.351.383.797.574 1.336.574.383 0 .707-.078.972-.234.266-.156.498-.363.698-.621l.662.516c-.532.816-1.328 1.224-2.39 1.224zm-.136-5.683c-.437 0-.804.16-1.101.48-.297.316-.48.762-.551 1.336h3.176v-.082c-.031-.55-.18-.977-.446-1.277-.265-.305-.624-.457-1.078-.457zM39.838 8.777c0-.972.23-1.754.691-2.343.461-.594 1.065-.891 1.81-.891.743 0 1.33.254 1.764.762V3h1.084v9h-.996l-.052-.68c-.434.532-1.037.797-1.81.797-.735 0-1.335-.3-1.8-.902-.46-.602-.691-1.387-.691-2.356v-.082zm1.084.123c0 .72.148 1.282.445 1.688.297.406.707.61 1.23.61.688 0 1.19-.31 1.506-.927V7.36c-.324-.597-.822-.896-1.494-.896-.53 0-.945.205-1.242.615-.297.41-.445 1.018-.445 1.822zM55.219 8.9c0 .97-.223 1.748-.668 2.338-.446.586-1.043.88-1.793.88-.801 0-1.42-.284-1.858-.85l-.052.732h-.996V3h1.084v3.357c.437-.543 1.04-.814 1.81-.814s1.373.291 1.81.873c.442.582.663 1.379.663 2.39V8.9zm-1.084-.123c0-.738-.143-1.308-.428-1.71-.285-.403-.695-.604-1.23-.604-.715 0-1.229.332-1.541.996v2.742c.332.664.85.996 1.552.996.52 0 .924-.2 1.213-.603.29-.403.434-1.008.434-1.817zM58.594 10.412L60.07 5.66h1.16l-2.548 7.319c-.395 1.054-1.022 1.582-1.881 1.582l-.205-.018-.405-.076v-.88l.293.024c.368 0 .653-.074.856-.222.207-.149.377-.42.51-.815l.24-.644-2.262-6.27h1.184l1.582 4.752z"/></g></svg>