<svg viewBox="0 0 20 21" xmlns="http://www.w3.org/2000/svg" fill-rule="evenodd" clip-rule="evenodd" stroke-linejoin="round" stroke-miterlimit="1.414"><g fill="#184e9e" fill-rule="nonzero"><path d="M9.7.3l2.6 4.5H7.1L9.7.3zM9.7 20.2l-2.6-4.4h5.2l-2.6 4.4zM0 10.6L4.5 8v5.2L0 10.6zM20 10.6l-4.5 2.6V8l4.5 2.6z"/><path d="M2.7 3.6l5 1.3L4 8.6l-1.3-5zM16.7 17.6l-5.1-1.3 3.7-3.7 1.4 5zM2.7 17.6l1.4-5 3.6 3.7-5 1.3zM16.7 3.6l-1.3 5L11.7 5l5-1.4z"/></g><ellipse cx="9.7" cy="10.6" rx="6.4" ry="6.3" fill="#fff"/><circle cx="9.7" cy="10.6" r="5.7" fill="#118df0"/></svg>