<?xml version="1.0" encoding="UTF-8"?>
<svg xmlns="http://www.w3.org/2000/svg" style="display: none;">
  <symbol id="icon-card-cash-expenses-v2" viewBox="0 0 48 48">
    <path d="M24 48c13.255 0 24-10.745 24-24S37.255 0 24 0 0 10.745 0 24s10.745 24 24 24z"/>
    <path d="M24 44c11.046 0 20-8.954 20-20S35.046 4 24 4 4 12.954 4 24s8.954 20 20 20z" fill="currentColor"/>
    <path d="M23.5 32a7.5 7.5 0 100-15 7.5 7.5 0 000 15z" fill="currentColor"/>
    <path d="M21 27.135s1.364.865 3.273.865c1.09 0 2.727-.432 2.727-1.73 0-1.08-.936-1.56-3-2.378l-1.09-.433c-1.092-.432-1.364-1.08-1.364-1.73 0-.78.818-1.729 2.727-1.729 1.309 0 2.363.577 2.727.865" stroke="#fff" stroke-width="1.5" fill="transparent"/>
    <path d="M24 20v-2m0 12v-2" stroke="#fff" stroke-width="1.5"/>
    <rect x="10" y="15" width="28" height="18" rx="1" fill="#fff"/>
    <circle cx="24" cy="24" r="8" fill="currentColor"/>
  </symbol>
  <symbol id="icon-card-child-care-v2" viewBox="0 0 48 48">
    <path d="M24 48c13.255 0 24-10.745 24-24S37.255 0 24 0 0 10.745 0 24s10.745 24 24 24z"/>
    <path d="M24 44c11.046 0 20-8.954 20-20S35.046 4 24 4 4 12.954 4 24s8.954 20 20 20z" fill="currentColor"/>
    <path d="M20.352 23.03l-5.625 2.78m12.921-2.78l5.717 2.835" stroke="#fff" stroke-width="4.5" stroke-linecap="round"/>
    <path d="M28.17 31.37l5.195 2.779M19.83 31.37l-5.02 2.936" stroke="#fff" stroke-width="6" stroke-linecap="round"/>
    <path d="M26.227 33.975h-4.454c-2.809 0-5.07-2.498-5.07-5.602v-2.347c0-3.104 2.261-5.602 5.07-5.602h4.454c2.809 0 5.07 2.498 5.07 5.602v2.347c0 3.104-2.33 5.602-5.07 5.602z" fill="#fff"/>
    <path d="M24.521 32.933H23.48c-2.007 0-4.69-2.114-4.69-4.74v-1.986c0-2.627 1.614-4.74 3.62-4.74h3.182c2.006 0 3.621 2.113 3.621 4.74v1.986c0 2.626-2.733 4.74-4.69 4.74z" fill="currentColor"/>
    <path d="M17.224 15.212a2.606 2.606 0 100-5.212 2.606 2.606 0 000 5.212zm13.552 0a2.606 2.606 0 100-5.212 2.606 2.606 0 000 5.212z" fill="#fff"/>
    <path d="M24 22.509c-2.81 0-7.297-2.75-7.297-5.49v-2.073c0-2.74 2.261-4.946 5.07-4.946h4.454c2.809 0 5.07 2.206 5.07 4.946v2.073c0 2.74-4.556 5.49-7.297 5.49z" fill="#fff"/>
    <circle cx="21" cy="14" r="1" fill="currentColor"/>
    <circle cx="27" cy="14" r="1" fill="currentColor"/>
    <circle cx="24" cy="18" r="1" fill="#fff"/>
    <ellipse cx="24" cy="18.5" rx="3" ry="2.5" fill="currentColor"/>
  </symbol>
  <symbol id="icon-card-city-id-card-v2" viewBox="0 0 48 48">
    <path d="M24 48c13.255 0 24-10.745 24-24S37.255 0 24 0 0 10.745 0 24s10.745 24 24 24z"/>
    <path d="M24 44c11.046 0 20-8.954 20-20S35.046 4 24 4 4 12.954 4 24s8.954 20 20 20z" fill="currentColor"/>
    <path d="M35 25h-8v2h8v-2zm0-4h-8v2h8v-2z" fill="currentColor"/>
    <path d="M13 18h12v12H13z"/>
    <path d="M14 30v-.431c0-2.589 2.21-4.638 5-4.638s5 2.05 5 4.638V30" fill="currentColor"/>
    <path d="M19 25.5a3 3 0 100-6 3 3 0 000 6z" fill="currentColor"/>
    <rect x="10" y="15" width="28" height="18" rx="1" fill="#fff"/>
  </symbol>
  <symbol id="icon-card-education-v2" viewBox="0 0 48 48">
    <path d="M24 48c13.255 0 24-10.745 24-24S37.255 0 24 0 0 10.745 0 24s10.745 24 24 24z"/>
    <path d="M24 44c11.046 0 20-8.954 20-20S35.046 4 24 4 4 12.954 4 24s8.954 20 20 20z" fill="currentColor"/>
    <path d="M31 21a2 2 0 012 2v4.026a2 2 0 01-1.063 1.767l-7 3.71a2 2 0 01-1.874 0l-7-3.71A2 2 0 0115 27.026V23a2 2 0 012-2h14zm-17 0h-1v10h1V21z" fill="#fff"/>
    <path d="M13.5 30l1.5 4h-3l1.5-4z" fill="#fff"/>
    <path d="M37.791 19.017l-13.36-6.366a1 1 0 00-.861 0l-13.361 6.366a1 1 0 00.004 1.808l13.361 6.287a1 1 0 00.852 0l13.361-6.287a1 1 0 00.004-1.808z" fill="#fff" stroke="currentColor"/>
    <path d="M24 21a1 1 0 100-2 1 1 0 000 2z" fill="currentColor"/>
    <circle cx="13.5" cy="31" r="1" fill="#fff"/>
  </symbol>
  <symbol id="icon-card-enrichment-v2" viewBox="0 0 48 48">
    <path d="M24 48c13.255 0 24-10.745 24-24S37.255 0 24 0 0 10.745 0 24s10.745 24 24 24z"/>
    <path d="M24 44c11.046 0 20-8.954 20-20S35.046 4 24 4 4 12.954 4 24s8.954 20 20 20z" fill="currentColor"/>
    <path d="M24 31a7 7 0 100-14 7 7 0 000 14z" fill="#fff"/>
    <path stroke="#fff" stroke-width="2" stroke-linecap="round" d="M24 10v4m14 10h-4M24 34v4M14 24h-4m24.314-9.899l-2.829 2.828M16.636 31.778l-2.828 2.829m20.092-.293l-2.829-2.829M16.222 16.636l-2.829-2.828"/>
  </symbol>
  <symbol id="icon-card-family-services-v2" viewBox="0 0 48 48">
    <path d="M24 48c13.255 0 24-10.745 24-24S37.255 0 24 0 0 10.745 0 24s10.745 24 24 24z"/>
    <path d="M24 44c11.046 0 20-8.954 20-20S35.046 4 24 4 4 12.954 4 24s8.954 20 20 20z" fill="currentColor"/>
    <ellipse cx="24" cy="29.5" rx="11" ry="8.5" fill="#fff"/>
    <ellipse cx="24" cy="35.5" rx="6" ry="4.5" fill="currentColor"/>
    <circle cx="24" cy="16" r="6" fill="#fff"/>
    <circle cx="24" cy="28" r="4" fill="currentColor"/>
  </symbol>
  <symbol id="icon-card-food-v2" viewBox="0 0 48 48">
    <path d="M24 48c13.255 0 24-10.745 24-24S37.255 0 24 0 0 10.745 0 24s10.745 24 24 24z"/>
    <path d="M24 44c11.046 0 20-8.954 20-20S35.046 4 24 4 4 12.954 4 24s8.954 20 20 20z" fill="currentColor"/>
    <path d="M24.626 12.986c-.954-2.914-3.933-4.235-6.73-3.828.283 2.819 2.138 5.414 4.99 5.82 1.677.24 2.27-.37 1.74-1.992zM29.172 16c-2.334 0-4.155.478-5.1 1.913C23.124 16.478 21.304 16 18.97 16c-13.82 0-7.198 22 1.317 22 1.892 0 2.838-.946 3.784-.946.946 0 1.892.946 3.785.946 8.041 0 15.137-22 1.316-22z" fill="#fff"/>
  </symbol>
  <symbol id="icon-card-health-v2" viewBox="0 0 48 48">
    <path d="M24 48c13.255 0 24-10.745 24-24S37.255 0 24 0 0 10.745 0 24s10.745 24 24 24z"/>
    <path d="M24 44c11.046 0 20-8.954 20-20S35.046 4 24 4 4 12.954 4 24s8.954 20 20 20z" fill="currentColor"/>
    <path d="M35.333 26.667L24 38 12.667 26.667a8.014 8.014 0 010-11.334c3.13-3.13 8.203-2.13 11.333 1 3.13-3.13 8.204-4.13 11.333-1a8.014 8.014 0 010 11.334z" fill="#fff"/>
    <path fill="currentColor" d="M22 20h4v10h-4z"/>
    <path fill="currentColor" d="M29 23v4H19v-4z"/>
  </symbol>
  <symbol id="icon-card-housing-v2" viewBox="0 0 48 48">
    <path d="M24 48c13.255 0 24-10.745 24-24S37.255 0 24 0 0 10.745 0 24s10.745 24 24 24z"/>
    <path d="M24 44c11.046 0 20-8.954 20-20S35.046 4 24 4 4 12.954 4 24s8.954 20 20 20z" fill="currentColor"/>
    <path d="M33 13H23v22h10V13z" fill="#fff"/>
    <path d="M27 27h-2v2h2v-2zm0 4h-2v2h2v-2zm4-4h-2v2h2v-2zm0 4h-2v2h2v-2zm-4-8h-2v2h2v-2zm4 0h-2v2h2v-2zm-4-4h-2v2h2v-2zm4 0h-2v2h2v-2zm-4-4h-2v2h2v-2zm4 0h-2v2h2v-2z" fill="currentColor"/>
    <path d="M24 35H12v-8.06l6-4.44 5.924 4.355.076.084V35z" fill="#fff"/>
    <path d="M19 27v2h2v-2h-2zm0 4v2h2v-2h-2zm-4-4v2h2v-2h-2zm0 4v2h2v-2h-2z" fill="currentColor"/>
    <path fill="#fff" d="M22 12h12v1H22z"/>
  </symbol>
  <symbol id="icon-card-people-with-disabilities-v2" viewBox="0 0 48 48">
    <path d="M24 48c13.255 0 24-10.745 24-24S37.255 0 24 0 0 10.745 0 24s10.745 24 24 24z"/>
    <path d="M24 44c11.046 0 20-8.954 20-20S35.046 4 24 4 4 12.954 4 24s8.954 20 20 20z" fill="currentColor"/>
    <path d="M24.12 10l5.257 4.078 6.252-1.994-2.265 6.253 3.896 5.346-6.705-.181-3.897 5.256-1.812-6.343-6.253-2.085 5.437-3.715.09-6.615zm-9.69 14.407l3.716 2.9 4.53-1.359-1.63 4.44 2.809 3.897-4.803-.182L16.242 38l-1.358-4.621-4.531-1.541 3.987-2.628.09-4.803z" fill="#fff"/>
  </symbol>
  <symbol id="icon-card-work-v2" viewBox="0 0 48 48">
    <path d="M24 48c13.255 0 24-10.745 24-24S37.255 0 24 0 0 10.745 0 24s10.745 24 24 24z"/>
    <path d="M24 44c11.046 0 20-8.954 20-20S35.046 4 24 4 4 12.954 4 24s8.954 20 20 20z" fill="currentColor"/>
    <path d="M30.5 37.75a7.25 7.25 0 100-14.5 7.25 7.25 0 000 14.5z" fill="currentColor" stroke="#fff" stroke-width="1.5"/>
    <path d="M30.518 30.779h-.75v.33l.244.224.506-.554zm-.506.554l2.983 2.721 1.01-1.108-2.982-2.721-1.01 1.108zm1.256-.554V25.5h-1.5v5.279h1.5z" fill="#fff"/>
    <ellipse cx="21.5" cy="29" rx="10.5" ry="8" fill="#fff"/>
    <circle cx="21.5" cy="15.5" r="6.5" fill="#fff"/>
  </symbol>
  <symbol id="icon-cash-expenses-v2" viewBox="0 0 48 48">
    <rect x="2" y="10" width="44" height="28" rx="1" fill="currentColor"/>
    <circle cx="24" cy="24" r="11" fill="#FFF"/>
    <path d="M20 27.919S21.59 29 23.818 29C25.091 29 27 28.46 27 26.838c0-1.352-1.092-1.95-3.5-2.973-.186-.08-.636-.27-1.273-.54-1.273-.541-1.59-1.352-1.59-2.163 0-.975.954-2.162 3.181-2.162 1.527 0 2.758.72 3.182 1.081M24 19v-3m0 16v-3" stroke="currentColor" stroke-width="3" fill="transparent"/>
  </symbol>
  <symbol id="icon-info" viewBox="0 0 32 32">
    <path d="M29.82 7.96a15.915 15.915 0 00-5.817-5.817C21.554.714 18.881 0 15.982 0c-2.9 0-5.574.714-8.022 2.143A15.91 15.91 0 002.144 7.96C.714 10.408 0 13.082 0 15.981c0 2.9.715 5.573 2.143 8.022a15.92 15.92 0 005.817 5.816c2.448 1.429 5.122 2.143 8.021 2.143 2.9 0 5.573-.714 8.022-2.143a15.912 15.912 0 005.816-5.816c1.429-2.449 2.143-5.123 2.143-8.022 0-2.9-.714-5.573-2.143-8.022zM13.317 3.994c0-.194.062-.354.187-.478a.65.65 0 01.479-.188h3.995c.195 0 .354.063.478.188a.648.648 0 01.188.478v3.33a.648.648 0 01-.188.478.645.645 0 01-.478.187h-3.995a.649.649 0 01-.479-.187.647.647 0 01-.187-.478v-3.33zm7.99 21.974a.649.649 0 01-.187.478.647.647 0 01-.478.187H11.32a.647.647 0 01-.478-.187.647.647 0 01-.188-.478v-3.33c0-.194.063-.353.188-.478a.649.649 0 01.478-.187h1.998v-6.659H11.32a.648.648 0 01-.478-.187.647.647 0 01-.188-.479v-3.33c0-.193.063-.353.188-.478a.649.649 0 01.478-.187h6.66c.194 0 .353.062.477.187a.649.649 0 01.188.479v10.654h1.997c.195 0 .354.062.479.187a.65.65 0 01.187.479v3.33z" fill="currentColor"/>
  </symbol>
  <symbol id="icon-logo-full" viewBox="0 0 180 30">
    <path d="M22.4 23c0 .5-.4 1-1 1H8.6c-.5 0-1-.4-1-1v-8.7c0-.5.4-1 1-1h11.2v-2.5c0-2.4-1.2-3.5-3.9-3.5-5.5 0-5.5 1.7-5.5 2.8v1c0 .3-.2.6-.7.4l-1.6-.6c-.3-.1-.3-.3-.3-.7V10c0-5.4 5.9-5.4 8.1-5.4 4.1 0 6.5 2.2 6.5 6.1V23zM15 0C6.7 0 0 6.7 0 15s6.7 15 15 15 15-6.7 15-15S23.3 0 15 0zm4.3 16h-8.6c-.3 0-.5.2-.5.5v4.4c0 .3.2.5.5.5h8.6c.3 0 .5-.2.5-.5v-4.4c0-.3-.2-.5-.5-.5z" fill="#fbb720"/>
    <g fill="currentColor">
      <path d="M46.5 15.8l-2.1-5-2.1 5h4.2zm-3.6-9.1H46l6.6 15.6H49l-1.4-3.5h-6.5l-1.4 3.5h-3.5l6.7-15.6zm9.7 7.8c0-4.4 3.3-8 8.1-8 2.9 0 4.7 1 6.1 2.4l-2.2 2.5c-1.2-1.1-2.4-1.7-4-1.7-2.6 0-4.5 2.2-4.5 4.8 0 2.7 1.8 4.9 4.5 4.9 1.8 0 2.8-.7 4.1-1.8l2.2 2.2c-1.6 1.7-3.4 2.8-6.3 2.8-4.6-.1-8-3.6-8-8.1zm15.7 0c0-4.4 3.3-8 8.1-8 2.9 0 4.7 1 6.1 2.4l-2.2 2.5c-1.2-1.1-2.4-1.7-4-1.7-2.6 0-4.5 2.2-4.5 4.8 0 2.7 1.8 4.9 4.5 4.9 1.8 0 2.8-.7 4.1-1.8l2.2 2.2c-1.6 1.7-3.4 2.8-6.3 2.8-4.6-.1-8-3.6-8-8.1zm17-7.7h11.6v3h-8.2v3.1h7.2v3h-7.2v3.3h8.4v3H85.3V6.8zM99.5 20l2-2.4c1.4 1.1 2.8 1.9 4.6 1.9 1.4 0 2.2-.6 2.2-1.5s-.5-1.3-3.1-2c-3.1-.8-5.1-1.7-5.1-4.7 0-2.8 2.3-4.7 5.4-4.7 2.3 0 4.2.7 5.7 2l-1.8 2.6c-1.4-.9-2.7-1.5-4-1.5-1.3 0-2 .6-2 1.3 0 1 .7 1.3 3.3 2 3.1.8 4.9 1.9 4.9 4.6 0 3.1-2.3 4.8-5.7 4.8-2.2 0-4.6-.8-6.4-2.4zm14.3 0l2-2.4c1.4 1.1 2.8 1.9 4.6 1.9 1.4 0 2.2-.6 2.2-1.5s-.5-1.3-3.1-2c-3.1-.8-5.1-1.7-5.1-4.7 0-2.8 2.3-4.7 5.4-4.7 2.3 0 4.2.7 5.7 2l-1.8 2.6c-1.4-.9-2.7-1.5-4-1.5-1.3 0-2 .6-2 1.3 0 1 .7 1.3 3.3 2 3.1.8 4.9 1.9 4.9 4.6 0 3.1-2.3 4.8-5.7 4.8-2.2 0-4.5-.8-6.4-2.4zm20.6-13.2h3.2l7.2 9.5V6.8h3.4v15.4h-2.9l-7.5-9.8v9.8h-3.4V6.8zm21.5 9.3l-6-9.3h4l3.7 6.2 3.8-6.2h3.8l-5.9 9.3v6.1h-3.4v-6.1zm9.1-1.6c0-4.4 3.3-8 8.1-8 2.9 0 4.7 1 6.1 2.4l-2.2 2.5c-1.2-1.1-2.4-1.7-4-1.7-2.6 0-4.5 2.2-4.5 4.8 0 2.7 1.8 4.9 4.5 4.9 1.8 0 2.8-.7 4.1-1.8l2.2 2.2c-1.6 1.7-3.4 2.8-6.3 2.8-4.6-.1-8-3.6-8-8.1z"/>
      <path d="M46.5 15.8l-2.1-5-2.1 5h4.2zm-3.6-9.1H46l6.6 15.6H49l-1.4-3.5h-6.5l-1.4 3.5h-3.5l6.7-15.6zm9.7 7.8c0-4.4 3.3-8 8.1-8 2.9 0 4.7 1 6.1 2.4l-2.2 2.5c-1.2-1.1-2.4-1.7-4-1.7-2.6 0-4.5 2.2-4.5 4.8 0 2.7 1.8 4.9 4.5 4.9 1.8 0 2.8-.7 4.1-1.8l2.2 2.2c-1.6 1.7-3.4 2.8-6.3 2.8-4.6-.1-8-3.6-8-8.1zm15.7 0c0-4.4 3.3-8 8.1-8 2.9 0 4.7 1 6.1 2.4l-2.2 2.5c-1.2-1.1-2.4-1.7-4-1.7-2.6 0-4.5 2.2-4.5 4.8 0 2.7 1.8 4.9 4.5 4.9 1.8 0 2.8-.7 4.1-1.8l2.2 2.2c-1.6 1.7-3.4 2.8-6.3 2.8-4.6-.1-8-3.6-8-8.1zm17-7.7h11.6v3h-8.2v3.1h7.2v3h-7.2v3.3h8.4v3H85.3V6.8zM99.5 20l2-2.4c1.4 1.1 2.8 1.9 4.6 1.9 1.4 0 2.2-.6 2.2-1.5s-.5-1.3-3.1-2c-3.1-.8-5.1-1.7-5.1-4.7 0-2.8 2.3-4.7 5.4-4.7 2.3 0 4.2.7 5.7 2l-1.8 2.6c-1.4-.9-2.7-1.5-4-1.5-1.3 0-2 .6-2 1.3 0 1 .7 1.3 3.3 2 3.1.8 4.9 1.9 4.9 4.6 0 3.1-2.3 4.8-5.7 4.8-2.2 0-4.6-.8-6.4-2.4zm14.3 0l2-2.4c1.4 1.1 2.8 1.9 4.6 1.9 1.4 0 2.2-.6 2.2-1.5s-.5-1.3-3.1-2c-3.1-.8-5.1-1.7-5.1-4.7 0-2.8 2.3-4.7 5.4-4.7 2.3 0 4.2.7 5.7 2l-1.8 2.6c-1.4-.9-2.7-1.5-4-1.5-1.3 0-2 .6-2 1.3 0 1 .7 1.3 3.3 2 3.1.8 4.9 1.9 4.9 4.6 0 3.1-2.3 4.8-5.7 4.8-2.2 0-4.5-.8-6.4-2.4zm20.6-13.2h3.2l7.2 9.5V6.8h3.4v15.4h-2.9l-7.5-9.8v9.8h-3.4V6.8zm21.5 9.3l-6-9.3h4l3.7 6.2 3.8-6.2h3.8l-5.9 9.3v6.1h-3.4v-6.1zm9.1-1.6c0-4.4 3.3-8 8.1-8 2.9 0 4.7 1 6.1 2.4l-2.2 2.5c-1.2-1.1-2.4-1.7-4-1.7-2.6 0-4.5 2.2-4.5 4.8 0 2.7 1.8 4.9 4.5 4.9 1.8 0 2.8-.7 4.1-1.8l2.2 2.2c-1.6 1.7-3.4 2.8-6.3 2.8-4.6-.1-8-3.6-8-8.1z"/>
    </g>
  </symbol>
  <symbol id="icon-logo-google-translate">
    <path fill-rule="evenodd" clip-rule="evenodd" d="M128.789 4.794c-.738 0-1.766.522-2.056 1.333h-.058V4.903H125.4V12h1.333V8.184c0-1.304.927-2.071 1.839-2.071.29 0 .522.028.71.1l.507-1.244c-.275-.116-.565-.175-1-.175zm24.012-3.334h1.332V12h-1.332V1.46zm-4.143 3.334c-1.433 0-2.767.8-2.767 2.05 0 1.21 1.209 1.757 1.841 1.911l1.432.338c.731.182.982.562.982.913 0 .575-.617.952-1.418.952-.829 0-1.544-.404-1.909-1.293l-1.152.478c.407 1 1.39 1.984 3.048 1.984 1.615 0 2.752-.941 2.752-2.163 0-.843-.575-1.686-1.938-2.01l-1.404-.323c-.548-.126-.912-.364-.912-.8 0-.562.672-.868 1.403-.868.674 0 1.347.268 1.615.914l1.123-.464c-.421-1.054-1.502-1.62-2.696-1.62zm9.921 6.135c-.675 0-1.508-.348-1.508-1.078 0-.632.608-1.322 1.971-1.322 1.096 0 1.625.409 1.625.409 0 1.124-1.063 1.99-2.088 1.99zm.28-6.135c-1.728 0-2.701 1.006-2.94 1.638l1.18.506c.239-.646 1.072-.946 1.788-.946.97 0 1.78.602 1.78 1.693v.198c-.268-.155-.922-.422-1.85-.422-1.615 0-3.116.803-3.116 2.362 0 1.433 1.262 2.304 2.666 2.304 1.181 0 1.864-.636 2.244-1.212h.056V12h1.255V7.744c0-1.939-1.377-2.95-3.063-2.95zm-25.536 6.135c-.674 0-1.508-.348-1.508-1.078 0-.632.609-1.322 1.972-1.322 1.095 0 1.624.409 1.624.409 0 1.124-1.062 1.99-2.088 1.99zm.281-6.135c-1.728 0-2.702 1.006-2.941 1.638l1.18.506c.24-.646 1.072-.946 1.789-.946.969 0 1.779.602 1.779 1.693v.198c-.267-.155-.922-.422-1.85-.422-1.615 0-3.115.803-3.115 2.362 0 1.433 1.261 2.304 2.666 2.304 1.18 0 1.863-.636 2.243-1.212h.056V12h1.256V7.744c0-1.939-1.377-2.95-3.063-2.95zm35.794 2.829c.257-1.003 1.027-1.631 1.998-1.631 1.498 0 2.011 1.035 2.054 1.631h-4.052zm2.026-2.83c-2.054 0-3.424 1.714-3.424 3.668 0 2.079 1.427 3.666 3.567 3.666 1.612 0 2.64-.9 3.053-1.882l-1.17-.478c-.371.872-1.141 1.162-1.912 1.162-1.084 0-2.154-.768-2.225-2.222h5.521s.015-.148.015-.246c0-2.22-1.342-3.667-3.425-3.667zm-29.646.001c-.971 0-1.869.565-2.245 1.216h-.058V4.903H138.2V12h1.333V8.197c0-1.086.71-2.187 1.868-2.187 1.014 0 1.753.493 1.753 1.97V12h1.333V7.778c0-1.753-.898-2.984-2.709-2.984zm23.621-2h-1.332v2.109h-1.246V6.13h1.246v3.723c0 1.449.796 2.274 2.288 2.274.449 0 .768-.058 1.072-.188l-.463-1.144a1.352 1.352 0 01-.609.116c-.622 0-.956-.362-.956-1.16V6.13h1.738V4.903h-1.738V2.794zM124.95 1.46h-7.217v1.367h2.934v9.167h1.35V2.827h2.933V1.461zM72.16 5.586v1.639h3.922c-.117.922-.425 1.595-.893 2.063-.571.57-1.464 1.2-3.029 1.2-2.415 0-4.303-1.946-4.303-4.36 0-2.415 1.888-4.361 4.303-4.361 1.302 0 2.253.512 2.956 1.17l1.156-1.156C75.292.845 73.989.127 72.16.127c-3.307 0-6.088 2.693-6.088 6 0 3.308 2.78 6 6.088 6 1.785 0 3.131-.585 4.185-1.682 1.083-1.084 1.42-2.606 1.42-3.835 0-.38-.03-.731-.088-1.024H72.16zm10.507-1.331c-2.142 0-3.888 1.628-3.888 3.872 0 2.23 1.746 3.873 3.888 3.873s3.887-1.643 3.887-3.873c0-2.244-1.745-3.872-3.887-3.872zm0 6.219c-1.174 0-2.186-.968-2.186-2.347 0-1.393 1.012-2.347 2.186-2.347 1.173 0 2.186.954 2.186 2.347 0 1.379-1.013 2.347-2.186 2.347zM101.72 5.12h-.059c-.382-.455-1.115-.865-2.039-.865C97.686 4.255 96 5.94 96 8.127 96 10.297 97.686 12 99.622 12c.924 0 1.657-.41 2.039-.88h.059v.541c0 1.482-.792 2.274-2.069 2.274-1.041 0-1.686-.748-1.95-1.38l-1.482.617c.426 1.027 1.555 2.289 3.432 2.289 1.996 0 3.682-1.174 3.682-4.034V4.454h-1.613v.667zm-1.95 5.354c-1.174 0-2.068-.997-2.068-2.347 0-1.364.894-2.347 2.067-2.347 1.16 0 2.068.998 2.068 2.362 0 1.35-.908 2.332-2.068 2.332zm-8.437-6.219c-2.141 0-3.887 1.628-3.887 3.872 0 2.23 1.746 3.873 3.887 3.873 2.142 0 3.888-1.643 3.888-3.873 0-2.244-1.746-3.872-3.888-3.872zm0 6.219c-1.173 0-2.185-.968-2.185-2.347 0-1.393 1.012-2.347 2.185-2.347 1.174 0 2.186.954 2.186 2.347 0 1.379-1.012 2.347-2.186 2.347zM104.667.287h1.673V12h-1.673V.287zm6.843 10.187c-.865 0-1.481-.395-1.878-1.173l5.178-2.142-.176-.44c-.323-.865-1.305-2.464-3.315-2.464-1.995 0-3.652 1.57-3.652 3.872 0 2.172 1.642 3.873 3.843 3.873 1.775 0 2.801-1.085 3.227-1.717l-1.32-.88c-.44.646-1.042 1.07-1.907 1.07zm-.126-4.768c.689 0 1.272.35 1.467.854l-3.498 1.45c0-1.633 1.155-2.304 2.031-2.304z" fill="currentColor"/>
    <path d="M6.176 8.9c0 .965-.22 1.743-.662 2.332-.442.59-1.04.885-1.793.885-.77 0-1.375-.244-1.817-.732v3.053H.82V5.66h.99l.053.703c.442-.547 1.055-.82 1.84-.82.762 0 1.363.287 1.805.861.445.575.668 1.373.668 2.397v.1zm-1.084-.123c0-.714-.153-1.279-.457-1.693-.305-.414-.723-.621-1.254-.621-.656 0-1.149.29-1.477.873v3.03c.325.577.82.866 1.489.866.52 0 .931-.205 1.236-.615.309-.414.463-1.027.463-1.84zm2.179-.006c0-.62.122-1.18.364-1.675a2.758 2.758 0 011.02-1.149 2.79 2.79 0 011.493-.404c.864 0 1.561.299 2.092.896.535.598.803 1.393.803 2.385V8.9c0 .618-.12 1.172-.357 1.665a2.67 2.67 0 01-1.014 1.142c-.438.273-.942.41-1.512.41-.86 0-1.556-.299-2.092-.896-.53-.598-.797-1.389-.797-2.373V8.77zm1.09.13c0 .703.162 1.267.487 1.693.328.426.765.638 1.312.638.55 0 .988-.214 1.313-.644.324-.434.486-1.04.486-1.817 0-.695-.166-1.257-.498-1.687a1.564 1.564 0 00-1.313-.65c-.535 0-.966.212-1.294.638-.329.426-.493 1.035-.493 1.828zm11.655 1.605l1.218-4.846h1.084L20.473 12h-.88l-1.54-4.805-1.5 4.805h-.88l-1.839-6.34h1.078l1.248 4.746 1.477-4.746h.873l1.506 4.846zm6.041 1.611c-.86 0-1.559-.281-2.098-.844-.54-.566-.809-1.322-.809-2.267v-.2c0-.628.12-1.189.358-1.681a2.814 2.814 0 011.008-1.16 2.535 2.535 0 011.406-.422c.824 0 1.465.271 1.922.814.457.543.685 1.32.685 2.332v.452h-4.295c.016.625.198 1.13.545 1.517.352.383.797.574 1.336.574.383 0 .707-.078.973-.234.265-.156.498-.363.697-.621l.662.516c-.531.816-1.328 1.224-2.39 1.224zm-.135-5.683c-.438 0-.805.16-1.102.48-.297.316-.48.762-.55 1.336h3.175v-.082c-.03-.55-.18-.977-.445-1.277-.266-.305-.625-.457-1.078-.457zm6.931.199a3.248 3.248 0 00-.533-.041c-.71 0-1.193.303-1.447.908V12h-1.084V5.66h1.055l.017.733c.356-.567.86-.85 1.512-.85.211 0 .371.027.48.082v1.008zm3.517 5.484c-.86 0-1.56-.281-2.098-.844-.54-.566-.81-1.322-.81-2.267v-.2c0-.628.12-1.189.358-1.681a2.814 2.814 0 011.008-1.16 2.535 2.535 0 011.406-.422c.825 0 1.465.271 1.922.814.457.543.686 1.32.686 2.332v.452h-4.295c.016.625.197 1.13.545 1.517.351.383.797.574 1.336.574.383 0 .707-.078.972-.234.266-.156.498-.363.698-.621l.662.516c-.532.816-1.328 1.224-2.39 1.224zm-.136-5.683c-.437 0-.804.16-1.101.48-.297.316-.48.762-.551 1.336h3.176v-.082c-.031-.55-.18-.977-.446-1.277-.265-.305-.624-.457-1.078-.457zm3.604 2.343c0-.972.23-1.754.691-2.343.461-.594 1.065-.891 1.81-.891.743 0 1.33.254 1.764.762V3h1.084v9h-.996l-.052-.68c-.434.532-1.037.797-1.81.797-.735 0-1.335-.3-1.8-.902-.46-.602-.691-1.387-.691-2.356v-.082zm1.084.123c0 .72.148 1.282.445 1.688.297.406.707.61 1.23.61.688 0 1.19-.31 1.506-.927V7.36c-.324-.597-.822-.896-1.494-.896-.53 0-.945.205-1.242.615-.297.41-.445 1.018-.445 1.822zm14.297 0c0 .97-.223 1.748-.668 2.338-.446.586-1.043.88-1.793.88-.801 0-1.42-.284-1.858-.85l-.052.732h-.996V3h1.084v3.357c.437-.543 1.04-.814 1.81-.814s1.373.291 1.81.873c.442.582.663 1.379.663 2.39V8.9zm-1.084-.123c0-.738-.143-1.308-.428-1.71-.285-.403-.695-.604-1.23-.604-.715 0-1.229.332-1.541.996v2.742c.332.664.85.996 1.552.996.52 0 .924-.2 1.213-.603.29-.403.434-1.008.434-1.817zm4.459 1.635L60.07 5.66h1.16l-2.548 7.319c-.395 1.054-1.022 1.582-1.881 1.582l-.205-.018-.405-.076v-.88l.293.024c.368 0 .653-.074.856-.222.207-.149.377-.42.51-.815l.24-.644-2.262-6.27h1.184l1.582 4.752z" fill="currentColor"/>
  </symbol>
  <symbol id="icon-logo-nyc" viewBox="0 0 350 117">
    <path d="M327.9 0H255l-21.8 21.9v72.8l21.8 21.9h72.9l21.8-21.9V72.9l-7.2-7.3H306v7.3h-29.1V43.7H306v7.2h36.5l7.2-7.2V21.9L327.9 0zM109.3 0H80.1l-7.2 7.3v29.1L36.4 0H7.3L0 7.3v102l7.3 7.3h29.1l7.3-7.3V80.1l36.4 36.5h29.2l7.3-7.3V7.3L109.3 0zm51 116.6h29.1l7.3-7.3V87.4L233.2 51V7.3L225.9 0h-29.2l-7.3 7.3v14.6l-14.5 14.5-14.6-14.5V7.3L153 0h-29.1l-7.3 7.3V51L153 87.4v21.9l7.3 7.3z" fill="currentColor" fill-rule="nonzero"/>
  </symbol>
  <symbol id="icon-screening" viewBox="0 0 21 20">
    <g fill="currentColor" fill-rule="nonzero">
      <path d="M17.5 19.9l-4.7-4.7c-1.3.8-2.8 1.3-4.5 1.3-4.6 0-8.3-3.7-8.3-8.2C0 3.7 3.7 0 8.3 0c4.6 0 8.3 3.7 8.3 8.3 0 1.6-.4 3.1-1.2 4.3l4.8 4.8c.3.2 0 .9-.5 1.4l-.7.7c-.6.4-1.2.6-1.5.4zM13.8 8.3c0-3-2.5-5.5-5.5-5.5S2.8 5.3 2.8 8.3s2.5 5.5 5.5 5.5 5.5-2.5 5.5-5.5z"/>
      <path d="M12 6.7H7.4c-.2 0-.3-.1-.3-.3 0-.2.1-.3.3-.3H12c.2 0 .3.1.3.3 0 .2-.2.3-.3.3zm-6.3 0h-.6c-.1 0-.3-.1-.3-.3 0-.2.1-.3.3-.3h.6c.2 0 .3.1.3.3 0 .2-.1.3-.3.3zM12 8.6H7.4c-.2 0-.3-.1-.3-.3 0-.2.1-.3.3-.3H12c.2 0 .3.1.3.3 0 .2-.2.3-.3.3zm-6.3 0h-.6c-.1 0-.3-.1-.3-.3 0-.2.2-.3.3-.3h.6c.2 0 .3.1.3.3 0 .2-.1.3-.3.3zM12 10.5H7.4c-.2 0-.3-.1-.3-.3 0-.2.1-.3.3-.3H12c.2 0 .3.1.3.3 0 .2-.2.3-.3.3zm-6.3 0h-.6c-.2 0-.3-.1-.3-.3 0-.2.2-.3.3-.3h.6c.2 0 .3.1.3.3 0 .2-.1.3-.3.3z"/>
    </g>
  </symbol>
  <symbol id="icon-success" viewBox="0 0 32 32">
    <path d="M29.833 7.963a15.921 15.921 0 00-5.818-5.819C21.565.714 18.89 0 15.989 0c-2.9 0-5.576.715-8.026 2.144a15.917 15.917 0 00-5.818 5.819C.715 10.413 0 13.088 0 15.989c0 2.9.715 5.575 2.144 8.025a15.922 15.922 0 005.82 5.819c2.449 1.43 5.124 2.144 8.025 2.144 2.9 0 5.576-.715 8.025-2.144a15.92 15.92 0 005.82-5.819c1.428-2.45 2.143-5.125 2.143-8.025 0-2.901-.715-5.577-2.144-8.026zm-3.477 5.59L15.052 24.857a1.304 1.304 0 01-.958.396 1.28 1.28 0 01-.937-.396l-7.536-7.536a1.272 1.272 0 01-.375-.937c0-.388.125-.708.375-.958l1.894-1.873a1.28 1.28 0 01.937-.396c.361 0 .674.132.937.396l4.705 4.705 8.494-8.473a1.28 1.28 0 01.937-.396c.36 0 .673.132.937.396l1.894 1.874c.25.25.375.568.375.957 0 .375-.125.687-.375.937z" fill="currentColor"/>
  </symbol>
  <symbol id="icon-ui-check" viewBox="0 0 24 24">
    <path d="M20 6L9 17l-5-5"/>
  </symbol>
  <symbol id="icon-ui-copy" viewBox="0 0 24 24">
    <rect x="9" y="9" width="13" height="13" rx="2" ry="2"/>
    <path d="M5 15H4a2 2 0 01-2-2V4a2 2 0 012-2h9a2 2 0 012 2v1"/>
  </symbol>
  <symbol id="icon-ui-facebook" viewBox="0 0 24 24">
    <path d="M18 2h-3a5 5 0 00-5 5v3H7v4h3v8h4v-8h3l1-4h-4V7a1 1 0 011-1h3z"/>
  </symbol>
  <symbol id="icon-ui-mail" viewBox="0 0 24 24">
    <path d="M4 4h16c1.1 0 2 .9 2 2v12c0 1.1-.9 2-2 2H4c-1.1 0-2-.9-2-2V6c0-1.1.9-2 2-2z"/>
    <path d="M22 6l-10 7L2 6"/>
  </symbol>
  <symbol id="icon-ui-minus-circle" viewBox="0 0 24 24">
    <circle cx="12" cy="12" r="10"/>
    <path d="M8 12h8"/>
  </symbol>
  <symbol id="icon-ui-plus-circle" viewBox="0 0 24 24">
    <circle cx="12" cy="12" r="10"/>
    <path d="M12 8v8m-4-4h8"/>
  </symbol>
  <symbol id="icon-ui-printer" viewBox="0 0 24 24">
    <path d="M6 9V2h12v7M6 18H4a2 2 0 01-2-2v-5a2 2 0 012-2h16a2 2 0 012 2v5a2 2 0 01-2 2h-2"/>
    <path d="M6 14h12v8H6z"/>
  </symbol>
  <symbol id="icon-ui-search" viewBox="0 0 24 24">
    <circle cx="11" cy="11" r="8"/>
    <path d="M21 21l-4.35-4.35"/>
  </symbol>
  <symbol id="icon-ui-settings" viewBox="0 0 24 24">
    <circle cx="12" cy="12" r="3"/>
    <path d="M19.4 15a1.65 1.65 0 00.33 1.82l.06.06a2 2 0 010 2.83 2 2 0 01-2.83 0l-.06-.06a1.65 1.65 0 00-1.82-.33 1.65 1.65 0 00-1 1.51V21a2 2 0 01-2 2 2 2 0 01-2-2v-.09A1.65 1.65 0 009 19.4a1.65 1.65 0 00-1.82.33l-.06.06a2 2 0 01-2.83 0 2 2 0 010-2.83l.06-.06a1.65 1.65 0 00.33-1.82 1.65 1.65 0 00-1.51-1H3a2 2 0 01-2-2 2 2 0 012-2h.09A1.65 1.65 0 004.6 9a1.65 1.65 0 00-.33-1.82l-.06-.06a2 2 0 010-2.83 2 2 0 012.83 0l.06.06a1.65 1.65 0 001.82.33H9a1.65 1.65 0 001-1.51V3a2 2 0 012-2 2 2 0 012 2v.09a1.65 1.65 0 001 1.51 1.65 1.65 0 001.82-.33l.06-.06a2 2 0 012.83 0 2 2 0 010 2.83l-.06.06a1.65 1.65 0 00-.33 1.82V9a1.65 1.65 0 001.51 1H21a2 2 0 012 2 2 2 0 01-2 2h-.09a1.65 1.65 0 00-1.51 1z"/>
  </symbol>
  <symbol id="icon-ui-share-2" viewBox="0 0 24 24">
    <circle cx="18" cy="5" r="3"/>
    <circle cx="6" cy="12" r="3"/>
    <circle cx="18" cy="19" r="3"/>
    <path d="M8.59 13.51l6.83 3.98m-.01-10.98l-6.82 3.98"/>
  </symbol>
  <symbol id="icon-ui-translate" viewBox="0 0 24 24">
    <path d="M3 16c1.5-.833 5-3.5 7-6.5S11.5 4 11.5 4m3 0h-6m-6 0h6m0 0V2.5M4.5 7c1 3 3 5.5 5.5 7.5m2 6.5l1.35-3M21 21l-1.35-3m-6.3 0l3.15-7.5c1.23 2.734 1.92 4.766 3.15 7.5m-6.3 0h6.3"/>
  </symbol>
  <symbol id="icon-ui-twitter" viewBox="0 0 24 24">
    <path d="M23 3a10.9 10.9 0 01-3.14 1.53 4.48 4.48 0 00-7.86 3v1A10.66 10.66 0 013 4s-4 9 5 13a11.64 11.64 0 01-7 2c9 5 20 0 20-11.5a4.5 4.5 0 00-.08-.83A7.72 7.72 0 0023 3z"/>
  </symbol>
  <symbol id="icon-ui-x" viewBox="0 0 24 24">
    <path d="M18 6L6 18M6 6l12 12"/>
  </symbol>
  <symbol id="icon-warning" viewBox="0 0 32 30">
    <path d="M31.652 26.276L17.973 1.196a2.272 2.272 0 00-.838-.872 2.208 2.208 0 00-1.157-.32c-.416 0-.802.106-1.158.32a2.274 2.274 0 00-.837.873L.303 26.277c-.415.748-.404 1.496.036 2.244.202.344.478.617.828.819.35.202.728.303 1.131.303h27.36c.404 0 .78-.101 1.13-.303.351-.202.627-.475.83-.82.439-.747.45-1.495.034-2.244zm-13.394-1.781a.57.57 0 01-.169.418.548.548 0 01-.4.17h-3.42a.547.547 0 01-.401-.17.568.568 0 01-.17-.418V21.11c0-.167.057-.306.17-.419a.547.547 0 01.4-.169h3.42c.155 0 .288.056.401.17.113.112.17.251.17.418v3.384zm-.035-6.662a.399.399 0 01-.187.294.724.724 0 01-.419.116h-3.295a.768.768 0 01-.428-.116c-.119-.077-.178-.175-.178-.294l-.303-8.14c0-.166.06-.29.178-.374.155-.13.297-.196.428-.196h3.919c.13 0 .273.065.427.196a.392.392 0 01.178.339l-.32 8.175z" fill="currentColor"/>
  </symbol>
</svg>