<?xml version="1.0" encoding="UTF-8" standalone="no"?>
<!DOCTYPE svg PUBLIC "-//W3C//DTD SVG 1.1//EN" "http://www.w3.org/Graphics/SVG/1.1/DTD/svg11.dtd">
<svg width="100%" height="100%" viewBox="0 0 30 30" version="1.1" xmlns="http://www.w3.org/2000/svg" xmlns:xlink="http://www.w3.org/1999/xlink" xml:space="preserve" style="fill-rule:evenodd;clip-rule:evenodd;stroke-linejoin:round;stroke-miterlimit:1.41421;">
    <path d="M22.4,23c0,0.5 -0.4,1 -1,1l-12.8,0c-0.5,0 -1,-0.4 -1,-1l0,-8.7c0,-0.5 0.4,-1 1,-1l11.2,0l0,-2.5c0,-2.4 -1.2,-3.5 -3.9,-3.5c-5.5,0 -5.5,1.7 -5.5,2.8l0,1c0,0.3 -0.2,0.6 -0.7,0.4l-1.6,-0.6c-0.3,-0.1 -0.3,-0.3 -0.3,-0.7l0,-0.2c0,-5.4 5.9,-5.4 8.1,-5.4c4.1,0 6.5,2.2 6.5,6.1l0,12.3Zm-7.4,-23c-8.3,0 -15,6.7 -15,15c0,8.3 6.7,15 15,15c8.3,0 15,-6.7 15,-15c0,-8.3 -6.7,-15 -15,-15Zm4.3,16l-8.6,0c-0.3,0 -0.5,0.2 -0.5,0.5l0,4.4c0,0.3 0.2,0.5 0.5,0.5l8.6,0c0.3,0 0.5,-0.2 0.5,-0.5l0,-4.4c0,-0.3 -0.2,-0.5 -0.5,-0.5Z" style="fill:#fbb720;fill-rule:nonzero;" />
</svg>