<svg viewBox="0 0 32 32" xmlns="http://www.w3.org/2000/svg"><path d="M29.801 7.947a15.89 15.89 0 00-5.807-5.807C21.55.713 18.88 0 15.984 0c-2.894 0-5.564.713-8.01 2.14a15.885 15.885 0 00-5.806 5.807C.74 10.392.028 13.062.028 15.957c0 2.894.713 5.564 2.14 8.01a15.892 15.892 0 005.807 5.806c2.444 1.427 5.114 2.14 8.01 2.14 2.894 0 5.564-.713 8.009-2.14a15.888 15.888 0 005.807-5.807c1.426-2.445 2.14-5.115 2.14-8.01 0-2.894-.714-5.564-2.14-8.009zM18.644 25.909a.683.683 0 01-.187.488.605.605 0 01-.457.197h-3.99c-.18 0-.339-.07-.478-.208a.656.656 0 01-.207-.477V21.96c0-.18.069-.34.207-.478a.657.657 0 01.478-.207H18c.18 0 .333.066.457.197a.685.685 0 01.187.488v3.948zm-.042-7.147a.526.526 0 01-.218.363.764.764 0 01-.488.156h-3.844a.807.807 0 01-.498-.156c-.139-.104-.208-.225-.208-.363l-.353-12.903c0-.167.069-.291.207-.374a.775.775 0 01.5-.166h4.57c.195 0 .36.055.499.166a.408.408 0 01.207.374l-.374 12.903z" fill="currentColor" fill-rule="nonzero"/></svg>