<svg viewBox="0 0 32 32" xmlns="http://www.w3.org/2000/svg"><path d="M29.82 7.96a15.915 15.915 0 00-5.817-5.817C21.554.714 18.881 0 15.982 0c-2.9 0-5.574.714-8.022 2.143A15.91 15.91 0 002.144 7.96C.714 10.408 0 13.082 0 15.981c0 2.9.715 5.573 2.143 8.022a15.92 15.92 0 005.817 5.816c2.448 1.429 5.122 2.143 8.021 2.143 2.9 0 5.573-.714 8.022-2.143a15.912 15.912 0 005.816-5.816c1.429-2.449 2.143-5.123 2.143-8.022 0-2.9-.714-5.573-2.143-8.022zM13.317 3.994c0-.194.062-.354.187-.478a.65.65 0 01.479-.188h3.995c.195 0 .354.063.478.188a.648.648 0 01.188.478v3.33a.648.648 0 01-.188.478.645.645 0 01-.478.187h-3.995a.649.649 0 01-.479-.187.647.647 0 01-.187-.478v-3.33zm7.99 21.974a.649.649 0 01-.187.478.647.647 0 01-.478.187H11.32a.647.647 0 01-.478-.187.647.647 0 01-.188-.478v-3.33c0-.194.063-.353.188-.478a.649.649 0 01.478-.187h1.998v-6.659H11.32a.648.648 0 01-.478-.187.647.647 0 01-.188-.479v-3.33c0-.193.063-.353.188-.478a.649.649 0 01.478-.187h6.66c.194 0 .353.062.477.187a.649.649 0 01.188.479v10.654h1.997c.195 0 .354.062.479.187a.65.65 0 01.187.479v3.33z" fill="currentColor" fill-rule="nonzero"/></svg>