<svg xmlns="http://www.w3.org/2000/svg" viewBox="0 0 22.2 20"><path d="M13.5 4.7c-4.8 0-8.7 3.4-8.7 7.6S8.6 20 13.5 20c1.7 0 3.4-.4 4.7-1.2 1.2.7 2.6.7 3.3.6.2 0 .3-.3.1-.4-.7-.5-1.1-1.2-1.4-1.8 1.2-1.3 1.9-3 1.9-4.8.1-4.3-3.8-7.7-8.6-7.7zm.6 10.8c0 .2-.2.4-.4.4h-.9c-.2 0-.4-.2-.4-.4v-.6c0-.2.2-.4.4-.4h.9c.2 0 .4.2.4.4v.6zm1.3-3.4c-.2.3-.5.6-.9.8-.2.1-.3.3-.4.4 0 .1-.1.2-.1.4 0 .1-.1.2-.2.2h-1.1c-.1 0-.3-.1-.2-.3 0-.3.1-.5.2-.7.1-.2.4-.5.8-.7.2-.1.4-.3.5-.5.1-.2.2-.4.2-.7 0-.3-.1-.5-.2-.6-.1-.2-.3-.2-.6-.2-.2 0-.4.1-.5.2-.1.1-.1.2-.2.3 0 .2-.2.3-.4.3h-1c-.1 0-.2-.1-.2-.2 0-.5.2-.9.6-1.2.4-.3 1-.5 1.7-.5s1.3.2 1.7.6c.4.4.6.9.6 1.5.1.2 0 .6-.3.9zM1.6 10.3C.6 9.2 0 7.8 0 6.3 0 2.8 3.2 0 7.2 0c2.7 0 5.1 1.3 6.3 3.2-5.3 0-9.7 3.7-10.2 8.4-1 .6-2.1.6-2.7.5-.2 0-.2-.3-.1-.4.6-.4.9-.9 1.1-1.4z" fill="currentColor"/></svg>