<svg width="48" height="48" fill="none" xmlns="http://www.w3.org/2000/svg"><path d="M24 48c13.255 0 24-10.745 24-24S37.255 0 24 0 0 10.745 0 24s10.745 24 24 24z"/><path d="M24 44c11.046 0 20-8.954 20-20S35.046 4 24 4 4 12.954 4 24s8.954 20 20 20z" fill="currentColor"/><ellipse cx="21.5" cy="29" rx="10.5" ry="8" fill="#fff"/><circle cx="21.5" cy="15.5" r="6.5" fill="#fff"/><path d="M30.5 37.75a7.25 7.25 0 100-14.5 7.25 7.25 0 000 14.5z" fill="currentColor" stroke="#fff" stroke-width="1.5"/><path d="M30.518 30.779h-.75v.33l.244.224.506-.554zm-.506.554l2.983 2.721 1.01-1.108-2.982-2.721-1.01 1.108zm1.256-.554V25.5h-1.5v5.279h1.5z" fill="#fff"/></svg>