<?xml version="1.0" encoding="UTF-8" standalone="no"?>
<!DOCTYPE svg PUBLIC "-//W3C//DTD SVG 1.1//EN" "http://www.w3.org/Graphics/SVG/1.1/DTD/svg11.dtd">
<svg width="100%" height="100%" viewBox="0 0 20 17" version="1.1" xmlns="http://www.w3.org/2000/svg" xmlns:xlink="http://www.w3.org/1999/xlink" xml:space="preserve" style="fill-rule:evenodd;clip-rule:evenodd;stroke-linejoin:round;stroke-miterlimit:1.41421;">
    <g>
        <path d="M20,15.6c0,0.2 -0.2,0.4 -0.4,0.4l-19.2,0c-0.2,0 -0.4,-0.2 -0.4,-0.4l0,-14.1c0,-0.3 0.2,-0.5 0.4,-0.5l19.1,0c0.3,0 0.5,0.2 0.5,0.5l0,14.1Z" style="fill:#118df0;fill-rule:nonzero;" />
        <g>
            <rect id="Bottom_x5F_line_1_" x="10" y="9" width="7" height="2" style="fill:#fff;" />
            <rect id="Top_x5F_line_1_" x="10" y="6" width="7" height="2" style="fill:#fff;" />
        </g>
        <g>
            <path d="M1.8,12.4c0,-0.1 0,-0.2 0,-0.3c0,-1.8 1.4,-3.2 3.2,-3.2c1.8,0 3.2,1.4 3.2,3.2c0,0.1 0,0.2 0,0.3" style="fill:#fff;fill-rule:nonzero;" />
            <circle id="Head_2_" cx="5" cy="7" r="2.2" style="fill:#fff;" />
        </g>
    </g>
</svg>