<svg width="48" height="48" fill="none" xmlns="http://www.w3.org/2000/svg"><path d="M24 48c13.255 0 24-10.745 24-24S37.255 0 24 0 0 10.745 0 24s10.745 24 24 24z"/><path d="M24 44c11.046 0 20-8.954 20-20S35.046 4 24 4 4 12.954 4 24s8.954 20 20 20z" fill="currentColor"/><rect x="10" y="15" width="28" height="18" rx="1" fill="#fff"/><path d="M35 25h-8v2h8v-2zM35 21h-8v2h8v-2z" fill="currentColor"/><path d="M13 18h12v12H13z"/><path d="M14 30v-.431c0-2.589 2.21-4.638 5-4.638s5 2.05 5 4.638V30" fill="currentColor"/><path d="M19 25.5a3 3 0 100-6 3 3 0 000 6z" fill="currentColor"/></svg>