<?xml version="1.0" encoding="UTF-8" standalone="no"?>
<!DOCTYPE svg PUBLIC "-//W3C//DTD SVG 1.1//EN" "http://www.w3.org/Graphics/SVG/1.1/DTD/svg11.dtd">
<svg width="100%" height="100%" viewBox="0 0 50 50" version="1.1" xmlns="http://www.w3.org/2000/svg" xmlns:xlink="http://www.w3.org/1999/xlink" xml:space="preserve" style="fill-rule:evenodd;clip-rule:evenodd;stroke-linejoin:round;stroke-miterlimit:1.41421;">
    <g>
        <g>
            <circle cx="25" cy="25" r="25" style="fill:#118df0;" />
            <circle cx="25" cy="25" r="23.7" style="fill:#fff;" />
            <circle cx="25" cy="25" r="21.6" style="fill:#118df0;" />
        </g>
        <g id="Food_x5F_color_x5F_large_5_">
            <path d="M26.6,13.3c-1.6,-3.1 -5.3,-4.1 -8.5,-3.2c0.8,3.1 3.4,5.7 6.8,5.7c-1.1,1.1 -1.1,2.1 -0.1,3c0.9,-2.2 3.1,-4.7 5.1,-6c-0.4,-0.6 -0.9,-1.1 -1.3,-1.7c-0.6,0.7 -1.3,1.4 -2,2.2Z" style="fill:#fff;fill-rule:nonzero;" />
            <path d="M30.7,15.1c-2.7,0 -4.9,1.4 -5.9,3.6c-1,-2.2 -3.2,-3.6 -5.9,-3.6c-13.9,0 -8.8,26.7 3.6,25c1.1,-0.1 1.8,-0.5 2.3,-1c0.5,0.5 1.2,0.9 2.3,1c12.4,1.7 17.5,-25 3.6,-25Zm-12.7,4.8c-2.3,1 -3.4,3.6 -2.5,6c0.2,0.5 0,1 -0.5,1.2c-0.1,0 -0.2,0.1 -0.3,0.1c-0.3,0 -0.7,-0.2 -0.8,-0.5c-1.3,-3.2 0.2,-7 3.4,-8.3c0.5,-0.2 1,0 1.2,0.5c0.2,0.3 0,0.8 -0.5,1Z" style="fill:#fff;fill-rule:nonzero;" />
        </g>
    </g>
</svg>