<svg xmlns="http://www.w3.org/2000/svg" xmlns:xlink="http://www.w3.org/1999/xlink"><symbol id="icon-card-cash-expenses-v2" viewBox="0 0 48 48"><path d="M24 48c13.255 0 24-10.745 24-24S37.255 0 24 0 0 10.745 0 24s10.745 24 24 24z"/><path d="M24 44c11.046 0 20-8.954 20-20S35.046 4 24 4 4 12.954 4 24s8.954 20 20 20z" fill="currentColor"/><path d="M23.5 32a7.5 7.5 0 100-15 7.5 7.5 0 000 15z" fill="currentColor"/><rect x="10" y="15" width="28" height="18" rx="1" fill="#fff"/><circle cx="24" cy="24" r="8" fill="currentColor"/><path d="M21 27.135s1.364.865 3.273.865c1.09 0 2.727-.432 2.727-1.73 0-1.08-.936-1.56-3-2.378l-1.09-.433c-1.092-.432-1.364-1.08-1.364-1.73 0-.78.818-1.729 2.727-1.729 1.309 0 2.363.577 2.727.865" stroke="#fff" stroke-width="1.5" fill="transparent"/><path d="M24 20v-2M24 30v-2" stroke="#fff" stroke-width="1.5"/></symbol><symbol id="icon-card-child-care-v2" viewBox="0 0 48 48"><path d="M24 48c13.255 0 24-10.745 24-24S37.255 0 24 0 0 10.745 0 24s10.745 24 24 24z"/><path d="M24 44c11.046 0 20-8.954 20-20S35.046 4 24 4 4 12.954 4 24s8.954 20 20 20z" fill="currentColor"/><path d="M20.352 23.03l-5.625 2.78M27.648 23.03l5.717 2.835" stroke="#fff" stroke-width="4.5" stroke-linecap="round"/><path d="M28.17 31.37l5.195 2.779M19.83 31.37l-5.02 2.936" stroke="#fff" stroke-width="6" stroke-linecap="round"/><path d="M26.227 33.975h-4.454c-2.809 0-5.07-2.498-5.07-5.602v-2.347c0-3.104 2.261-5.602 5.07-5.602h4.454c2.809 0 5.07 2.498 5.07 5.602v2.347c0 3.104-2.33 5.602-5.07 5.602z" fill="#fff"/><path d="M24.521 32.933H23.48c-2.007 0-4.69-2.114-4.69-4.74v-1.986c0-2.627 1.614-4.74 3.62-4.74h3.182c2.006 0 3.621 2.113 3.621 4.74v1.986c0 2.626-2.733 4.74-4.69 4.74z" fill="currentColor"/><path d="M17.224 15.212a2.606 2.606 0 100-5.212 2.606 2.606 0 000 5.212zM30.776 15.212a2.606 2.606 0 100-5.212 2.606 2.606 0 000 5.212z" fill="#fff"/><path d="M24 22.509c-2.81 0-7.297-2.75-7.297-5.49v-2.073c0-2.74 2.261-4.946 5.07-4.946h4.454c2.809 0 5.07 2.206 5.07 4.946v2.073c0 2.74-4.556 5.49-7.297 5.49z" fill="#fff"/><circle cx="21" cy="14" r="1" fill="currentColor"/><circle cx="27" cy="14" r="1" fill="currentColor"/><ellipse cx="24" cy="18.5" rx="3" ry="2.5" fill="currentColor"/><circle cx="24" cy="18" r="1" fill="#fff"/></symbol><symbol id="icon-card-city-id-card-v2" viewBox="0 0 48 48"><path d="M24 48c13.255 0 24-10.745 24-24S37.255 0 24 0 0 10.745 0 24s10.745 24 24 24z"/><path d="M24 44c11.046 0 20-8.954 20-20S35.046 4 24 4 4 12.954 4 24s8.954 20 20 20z" fill="currentColor"/><rect x="10" y="15" width="28" height="18" rx="1" fill="#fff"/><path d="M35 25h-8v2h8v-2zM35 21h-8v2h8v-2z" fill="currentColor"/><path d="M13 18h12v12H13z"/><path d="M14 30v-.431c0-2.589 2.21-4.638 5-4.638s5 2.05 5 4.638V30" fill="currentColor"/><path d="M19 25.5a3 3 0 100-6 3 3 0 000 6z" fill="currentColor"/></symbol><symbol id="icon-card-education-v2" viewBox="0 0 48 48"><path d="M24 48c13.255 0 24-10.745 24-24S37.255 0 24 0 0 10.745 0 24s10.745 24 24 24z"/><path d="M24 44c11.046 0 20-8.954 20-20S35.046 4 24 4 4 12.954 4 24s8.954 20 20 20z" fill="currentColor"/><path d="M31 21a2 2 0 012 2v4.026a2 2 0 01-1.063 1.767l-7 3.71a2 2 0 01-1.874 0l-7-3.71A2 2 0 0115 27.026V23a2 2 0 012-2h14zM14 21h-1v10h1V21z" fill="#fff"/><path d="M13.5 30l1.5 4h-3l1.5-4z" fill="#fff"/><path d="M37.791 19.017l-13.36-6.366a1 1 0 00-.861 0l-13.361 6.366a1 1 0 00.004 1.808l13.361 6.287a1 1 0 00.852 0l13.361-6.287a1 1 0 00.004-1.808z" fill="#fff" stroke="currentColor"/><path d="M24 21a1 1 0 100-2 1 1 0 000 2z" fill="currentColor"/><circle cx="13.5" cy="31" r="1" fill="#fff"/></symbol><symbol id="icon-card-enrichment-v2" viewBox="0 0 48 48"><path d="M24 48c13.255 0 24-10.745 24-24S37.255 0 24 0 0 10.745 0 24s10.745 24 24 24z"/><path d="M24 44c11.046 0 20-8.954 20-20S35.046 4 24 4 4 12.954 4 24s8.954 20 20 20z" fill="currentColor"/><path d="M24 31a7 7 0 100-14 7 7 0 000 14z" fill="#fff"/><path stroke="#fff" stroke-width="2" stroke-linecap="round" d="M24 10v4M38 24h-4M24 34v4M14 24h-4M34.314 14.101l-2.829 2.828M16.636 31.778l-2.828 2.829M33.9 34.314l-2.829-2.829M16.222 16.636l-2.829-2.828"/></symbol><symbol id="icon-card-family-services-v2" viewBox="0 0 48 48"><path d="M24 48c13.255 0 24-10.745 24-24S37.255 0 24 0 0 10.745 0 24s10.745 24 24 24z"/><path d="M24 44c11.046 0 20-8.954 20-20S35.046 4 24 4 4 12.954 4 24s8.954 20 20 20z" fill="currentColor"/><ellipse cx="24" cy="29.5" rx="11" ry="8.5" fill="#fff"/><circle cx="24" cy="16" r="6" fill="#fff"/><ellipse cx="24" cy="35.5" rx="6" ry="4.5" fill="currentColor"/><circle cx="24" cy="28" r="4" fill="currentColor"/></symbol><symbol id="icon-card-food-v2" viewBox="0 0 48 48"><path d="M24 48c13.255 0 24-10.745 24-24S37.255 0 24 0 0 10.745 0 24s10.745 24 24 24z"/><path d="M24 44c11.046 0 20-8.954 20-20S35.046 4 24 4 4 12.954 4 24s8.954 20 20 20z" fill="currentColor"/><path d="M24.626 12.986c-.954-2.914-3.933-4.235-6.73-3.828.283 2.819 2.138 5.414 4.99 5.82 1.677.24 2.27-.37 1.74-1.992zM29.172 16c-2.334 0-4.155.478-5.1 1.913C23.124 16.478 21.304 16 18.97 16c-13.82 0-7.198 22 1.317 22 1.892 0 2.838-.946 3.784-.946.946 0 1.892.946 3.785.946 8.041 0 15.137-22 1.316-22z" fill="#fff"/></symbol><symbol id="icon-card-health-v2" viewBox="0 0 48 48"><path d="M24 48c13.255 0 24-10.745 24-24S37.255 0 24 0 0 10.745 0 24s10.745 24 24 24z"/><path d="M24 44c11.046 0 20-8.954 20-20S35.046 4 24 4 4 12.954 4 24s8.954 20 20 20z" fill="currentColor"/><path d="M35.333 26.667L24 38 12.667 26.667a8.014 8.014 0 010-11.334c3.13-3.13 8.203-2.13 11.333 1 3.13-3.13 8.204-4.13 11.333-1a8.014 8.014 0 010 11.334z" fill="#fff"/><path fill="currentColor" d="M22 20h4v10h-4z"/><path fill="currentColor" d="M29 23v4H19v-4z"/></symbol><symbol id="icon-card-housing-v2" viewBox="0 0 48 48"><path d="M24 48c13.255 0 24-10.745 24-24S37.255 0 24 0 0 10.745 0 24s10.745 24 24 24z"/><path d="M24 44c11.046 0 20-8.954 20-20S35.046 4 24 4 4 12.954 4 24s8.954 20 20 20z" fill="currentColor"/><path d="M33 13H23v22h10V13z" fill="#fff"/><path d="M27 27h-2v2h2v-2zM27 31h-2v2h2v-2zM31 27h-2v2h2v-2zM31 31h-2v2h2v-2zM27 23h-2v2h2v-2zM31 23h-2v2h2v-2zM27 19h-2v2h2v-2zM31 19h-2v2h2v-2zM27 15h-2v2h2v-2zM31 15h-2v2h2v-2z" fill="currentColor"/><path d="M24 35H12v-8.06l6-4.44 5.924 4.355.076.084V35z" fill="#fff"/><path d="M19 27v2h2v-2h-2zM19 31v2h2v-2h-2zM15 27v2h2v-2h-2zM15 31v2h2v-2h-2z" fill="currentColor"/><path fill="#fff" d="M22 12h12v1H22z"/></symbol><symbol id="icon-card-people-with-disabilities-v2" viewBox="0 0 48 48"><path d="M24 48c13.255 0 24-10.745 24-24S37.255 0 24 0 0 10.745 0 24s10.745 24 24 24z"/><path d="M24 44c11.046 0 20-8.954 20-20S35.046 4 24 4 4 12.954 4 24s8.954 20 20 20z" fill="currentColor"/><path d="M24.12 10l5.257 4.078 6.252-1.994-2.265 6.253 3.896 5.346-6.705-.181-3.897 5.256-1.812-6.343-6.253-2.085 5.437-3.715.09-6.615zM14.43 24.407l3.716 2.9 4.53-1.359-1.63 4.44 2.809 3.897-4.803-.182L16.242 38l-1.358-4.621-4.531-1.541 3.987-2.628.09-4.803z" fill="#fff"/></symbol><symbol id="icon-card-work-v2" viewBox="0 0 48 48"><path d="M24 48c13.255 0 24-10.745 24-24S37.255 0 24 0 0 10.745 0 24s10.745 24 24 24z"/><path d="M24 44c11.046 0 20-8.954 20-20S35.046 4 24 4 4 12.954 4 24s8.954 20 20 20z" fill="currentColor"/><ellipse cx="21.5" cy="29" rx="10.5" ry="8" fill="#fff"/><circle cx="21.5" cy="15.5" r="6.5" fill="#fff"/><path d="M30.5 37.75a7.25 7.25 0 100-14.5 7.25 7.25 0 000 14.5z" fill="currentColor" stroke="#fff" stroke-width="1.5"/><path d="M30.518 30.779h-.75v.33l.244.224.506-.554zm-.506.554l2.983 2.721 1.01-1.108-2.982-2.721-1.01 1.108zm1.256-.554V25.5h-1.5v5.279h1.5z" fill="#fff"/></symbol><symbol id="icon-cash-expenses-v2" viewBox="0 0 48 48"><rect x="2" y="10" width="44" height="28" rx="1" fill="currentColor"/><circle cx="24" cy="24" r="11" fill="#FFF"/><path d="M20 27.919S21.59 29 23.818 29C25.091 29 27 28.46 27 26.838c0-1.352-1.092-1.95-3.5-2.973-.186-.08-.636-.27-1.273-.54-1.273-.541-1.59-1.352-1.59-2.163 0-.975.954-2.162 3.181-2.162 1.527 0 2.758.72 3.182 1.081M24 19v-3M24 32v-3" stroke="currentColor" stroke-width="3" fill="transparent"/></symbol><symbol id="icon-child-care-v2" viewBox="0 0 48 50"><path d="M18.308 23.521l-9.365 4.627M30.455 23.521l9.517 4.72" stroke="currentColor" stroke-width="7.5" stroke-linecap="round"/><path d="M31.323 37.405l8.649 4.627M17.44 37.405l-8.356 4.888" stroke="currentColor" stroke-width="10" stroke-linecap="round"/><path d="M28.088 41.743h-7.414c-4.676 0-8.44-4.16-8.44-9.327V28.51c0-5.168 3.764-9.327 8.44-9.327h7.414c4.677 0 8.441 4.16 8.441 9.326v3.907c0 5.168-3.878 9.327-8.44 9.327z" fill="currentColor"/><path d="M25.25 40.008h-1.736c-3.34 0-7.81-3.52-7.81-7.892V28.81c0-4.372 2.69-7.892 6.03-7.892h5.296c3.34 0 6.029 3.52 6.029 7.892v3.306c0 4.372-4.55 7.892-7.81 7.892z" fill="#FFF"/><path d="M13.102 10.506a4.338 4.338 0 100-8.677 4.338 4.338 0 000 8.677zM35.662 10.506a4.338 4.338 0 100-8.677 4.338 4.338 0 000 8.677z" fill="currentColor"/><path d="M24.381 22.654c-4.676 0-12.147-4.578-12.147-9.14v-3.45c0-4.563 3.764-8.235 8.44-8.235h7.414c4.677 0 8.441 3.672 8.441 8.235v3.45c0 4.562-7.585 9.14-12.148 9.14z" fill="currentColor"/><circle cx="19.5" cy="8.5" r="1.5" fill="#FFF"/><circle cx="29.5" cy="8.5" r="1.5" fill="#FFF"/><ellipse cx="24.5" cy="16.5" rx="5.5" ry="4.5" fill="#FFF"/><circle cx="24.5" cy="15.5" r="1.5" fill="currentColor"/></symbol><symbol id="icon-city-id-card-v2" viewBox="0 0 48 48"><rect x="2" y="10" width="44" height="28" rx="1" fill="currentColor"/><path d="M42 26H27v3h15v-3zM42 19H27v3h15v-3zM6 15h17v18H6z" fill="#FFF"/><path d="M7 33v-.635c0-3.813 3.314-6.832 7.5-6.832s7.5 3.019 7.5 6.832V33" fill="currentColor"/><path d="M14.5 26.067c2.515 0 4.553-2.03 4.553-4.534C19.053 19.03 17.015 17 14.5 17s-4.554 2.03-4.554 4.533c0 2.504 2.039 4.534 4.554 4.534z" fill="currentColor"/></symbol><symbol id="icon-education-v2" viewBox="0 0 48 48"><path d="M37.764 23.484v6.193a2 2 0 01-1.103 1.787l-11.764 5.907a2 2 0 01-1.794 0l-11.764-5.907a2 2 0 01-1.103-1.787v-6.193L24 30.366l13.764-6.882zM8 19H7v15h1V19zM7.492 34l2.242 5.98H5.25L7.492 34z" fill="currentColor"/><path d="M23.757 8.056a.553.553 0 01.486 0l20.08 9.805c.431.21.43.838-.002 1.046l-20.08 9.684a.553.553 0 01-.482 0L3.68 18.907a.585.585 0 01-.003-1.046l20.081-9.805z" fill="currentColor"/><path d="M24 20.043a1.434 1.434 0 100-2.867 1.434 1.434 0 000 2.867z" fill="#FFF"/><circle cx="7.5" cy="34.5" r="1.5" fill="currentColor"/></symbol><symbol id="icon-enrichment-v2" viewBox="0 0 48 48"><path d="M24 34.267c5.67 0 10.267-4.597 10.267-10.267 0-5.67-4.597-10.267-10.267-10.267-5.67 0-10.267 4.597-10.267 10.267 0 5.67 4.597 10.267 10.267 10.267z" fill="currentColor"/><path stroke="currentColor" stroke-width="3" stroke-linecap="round" d="M24 3v7M45 24h-7M24 38v7M10 24H3M39.127 8.821l-4.808 4.808M13.2 34.748l-4.809 4.808M39.179 39.127l-4.808-4.809M13.252 13.2L8.443 8.391"/></symbol><symbol id="icon-family-services-v2" viewBox="0 0 48 48"><ellipse cx="24" cy="32" rx="17" ry="13" fill="currentColor"/><circle cx="24" cy="12" r="9" fill="currentColor"/><path fill-rule="evenodd" clip-rule="evenodd" d="M15.903 43.326c-.516-.845-.804-1.785-.804-2.776 0-3.687 3.985-6.676 8.9-6.676 4.917 0 8.902 2.989 8.902 6.676 0 .99-.288 1.93-.805 2.776C29.7 44.393 26.938 45 24 45c-2.938 0-5.699-.607-8.097-1.674z" fill="#FFF"/><circle cx="24" cy="30" r="5" fill="#FFF"/></symbol><symbol id="icon-food-v2" viewBox="0 0 48 48"><path d="M24.94 8.165c-1.432-4.375-5.905-6.359-10.105-5.747.425 4.232 3.21 8.128 7.493 8.738 2.517.36 3.409-.556 2.612-2.99zM31.765 12.69c-3.504 0-6.238.718-7.658 2.872-1.42-2.154-4.154-2.872-7.658-2.872-20.75 0-10.808 33.03 1.976 33.03 2.841 0 4.261-1.42 5.682-1.42 1.42 0 2.84 1.42 5.681 1.42 12.074 0 22.727-33.03 1.977-33.03z" fill="currentColor"/></symbol><symbol id="icon-health-v2" viewBox="0 0 48 48"><path d="M42.225 26.551L24 45 5.775 26.551c-5.033-5.094-5.033-13.354 0-18.448C10.807 3.008 18.967 4.636 24 9.73c5.033-5.095 13.193-6.723 18.225-1.628 5.033 5.094 5.033 13.354 0 18.448z" fill="currentColor"/><path fill="#FFF" d="M21 16h6v16h-6z"/><path fill="#FFF" d="M32 21v6H16v-6z"/></symbol><symbol id="icon-housing-v2" viewBox="0 0 42 44"><g fill-rule="nonzero" fill="none"><path d="M-4-2h48v48H-4z"/><path fill="currentColor" d="M23 44H0V29.169L11.5 21l11.354 8.012.146.157z"/><path fill="#FFF" d="M6 37v4h4v-4zM6 30v4h4v-4zM13 37v4h4v-4zM13 30v4h4v-4z"/><path fill="currentColor" d="M40 2H21v42h19z"/><path fill="#FFF" d="M36 37h-4v4h4zM29 37h-4v4h4zM36 29h-4v4h4zM29 29h-4v4h4zM36 21h-4v4h4zM29 21h-4v4h4zM36 13h-4v4h4zM29 13h-4v4h4zM36 5h-4v4h4zM29 5h-4v4h4z"/><path fill="currentColor" d="M19 0h23v2H19z"/></g></symbol><symbol id="icon-people-with-disabilities-v2" viewBox="0 0 48 48"><path d="M23.884 2l8.446 6.304L42.38 5.222l-3.641 9.667L45 23.155l-10.777-.28L27.961 31l-2.912-9.807L15 17.971l8.738-5.744L23.884 2zM8.644 25l6.054 4.48 7.383-2.1-2.658 6.86L24 40.26l-7.826-.28L11.597 46l-2.214-7.14L2 36.48l6.497-4.06.147-7.42z" fill="currentColor"/></symbol><symbol id="icon-work-v2" viewBox="0 0 48 48"><ellipse cx="20" cy="33" rx="17" ry="12" fill="currentColor"/><circle cx="20" cy="12" r="10" fill="currentColor"/><path d="M33.875 45.49C39.467 45.49 44 40.955 44 35.363s-4.533-10.125-10.125-10.125S23.75 29.772 23.75 35.364s4.533 10.125 10.125 10.125z" stroke="currentColor" stroke-width="2.25" fill="#FFF"/><path d="M34.027 35.67h-1.25v.53l.381.368.869-.898zm-.869.898l4.521 4.368 1.737-1.798-4.52-4.367-1.738 1.797zm2.119-.898v-7.757h-2.5v7.756h2.5z" fill="currentColor"/></symbol><symbol id="icon-urgent" viewBox="0 0 32 32"><path d="M29.801 7.947a15.89 15.89 0 00-5.807-5.807C21.55.713 18.88 0 15.984 0c-2.894 0-5.564.713-8.01 2.14a15.885 15.885 0 00-5.806 5.807C.74 10.392.028 13.062.028 15.957c0 2.894.713 5.564 2.14 8.01a15.892 15.892 0 005.807 5.806c2.444 1.427 5.114 2.14 8.01 2.14 2.894 0 5.564-.713 8.009-2.14a15.888 15.888 0 005.807-5.807c1.426-2.445 2.14-5.115 2.14-8.01 0-2.894-.714-5.564-2.14-8.009zM18.644 25.909a.683.683 0 01-.187.488.605.605 0 01-.457.197h-3.99c-.18 0-.339-.07-.478-.208a.656.656 0 01-.207-.477V21.96c0-.18.069-.34.207-.478a.657.657 0 01.478-.207H18c.18 0 .333.066.457.197a.685.685 0 01.187.488v3.948zm-.042-7.147a.526.526 0 01-.218.363.764.764 0 01-.488.156h-3.844a.807.807 0 01-.498-.156c-.139-.104-.208-.225-.208-.363l-.353-12.903c0-.167.069-.291.207-.374a.775.775 0 01.5-.166h4.57c.195 0 .36.055.499.166a.408.408 0 01.207.374l-.374 12.903z" fill="currentColor" fill-rule="nonzero"/></symbol><symbol id="icon-info" viewBox="0 0 32 32"><path d="M29.82 7.96a15.915 15.915 0 00-5.817-5.817C21.554.714 18.881 0 15.982 0c-2.9 0-5.574.714-8.022 2.143A15.91 15.91 0 002.144 7.96C.714 10.408 0 13.082 0 15.981c0 2.9.715 5.573 2.143 8.022a15.92 15.92 0 005.817 5.816c2.448 1.429 5.122 2.143 8.021 2.143 2.9 0 5.573-.714 8.022-2.143a15.912 15.912 0 005.816-5.816c1.429-2.449 2.143-5.123 2.143-8.022 0-2.9-.714-5.573-2.143-8.022zM13.317 3.994c0-.194.062-.354.187-.478a.65.65 0 01.479-.188h3.995c.195 0 .354.063.478.188a.648.648 0 01.188.478v3.33a.648.648 0 01-.188.478.645.645 0 01-.478.187h-3.995a.649.649 0 01-.479-.187.647.647 0 01-.187-.478v-3.33zm7.99 21.974a.649.649 0 01-.187.478.647.647 0 01-.478.187H11.32a.647.647 0 01-.478-.187.647.647 0 01-.188-.478v-3.33c0-.194.063-.353.188-.478a.649.649 0 01.478-.187h1.998v-6.659H11.32a.648.648 0 01-.478-.187.647.647 0 01-.188-.479v-3.33c0-.193.063-.353.188-.478a.649.649 0 01.478-.187h6.66c.194 0 .353.062.477.187a.649.649 0 01.188.479v10.654h1.997c.195 0 .354.062.479.187a.65.65 0 01.187.479v3.33z" fill="currentColor" fill-rule="nonzero"/></symbol><symbol id="icon-success" viewBox="0 0 32 32"><path d="M29.833 7.963a15.921 15.921 0 00-5.818-5.819C21.565.714 18.89 0 15.989 0c-2.9 0-5.576.715-8.026 2.144a15.917 15.917 0 00-5.818 5.819C.715 10.413 0 13.088 0 15.989c0 2.9.715 5.575 2.144 8.025a15.922 15.922 0 005.82 5.819c2.449 1.43 5.124 2.144 8.025 2.144 2.9 0 5.576-.715 8.025-2.144a15.92 15.92 0 005.82-5.819c1.428-2.45 2.143-5.125 2.143-8.025 0-2.901-.715-5.577-2.144-8.026zm-3.477 5.59L15.052 24.857a1.304 1.304 0 01-.958.396 1.28 1.28 0 01-.937-.396l-7.536-7.536a1.272 1.272 0 01-.375-.937c0-.388.125-.708.375-.958l1.894-1.873c.264-.264.576-.396.937-.396.361 0 .674.132.937.396l4.705 4.705 8.494-8.473a1.28 1.28 0 01.937-.396c.36 0 .673.132.937.396l1.894 1.874c.25.25.375.568.375.957 0 .375-.125.687-.375.937z" fill="currentColor" fill-rule="nonzero"/></symbol><symbol id="icon-warning" viewBox="0 0 32 30"><path d="M31.652 26.276L17.973 1.196a2.272 2.272 0 00-.838-.872 2.208 2.208 0 00-1.157-.32c-.416 0-.802.106-1.158.32a2.274 2.274 0 00-.837.873L.303 26.277c-.415.748-.404 1.496.036 2.244.202.344.478.617.828.819.35.202.728.303 1.131.303h27.36c.404 0 .78-.101 1.13-.303.351-.202.627-.475.83-.82.439-.747.45-1.495.034-2.244zm-13.394-1.781a.57.57 0 01-.169.418.548.548 0 01-.4.17h-3.42a.547.547 0 01-.401-.17.568.568 0 01-.17-.418V21.11c0-.167.057-.306.17-.419a.547.547 0 01.4-.169h3.42c.155 0 .288.056.401.17.113.112.17.251.17.418v3.384zm-.035-6.662a.399.399 0 01-.187.294.724.724 0 01-.419.116h-3.295a.768.768 0 01-.428-.116c-.119-.077-.178-.175-.178-.294l-.303-8.14c0-.166.06-.29.178-.374.155-.13.297-.196.428-.196h3.919c.13 0 .273.065.427.196a.392.392 0 01.178.339l-.32 8.175z" fill="currentColor" fill-rule="nonzero"/></symbol><symbol id="icon-logo-nyc" viewBox="0 0 350 117"><g fill="currentColor" fill-rule="nonzero"><path d="M327.9 0H255l-21.8 21.9v72.8l21.8 21.9h72.9l21.8-21.9V72.9l-7.2-7.3H306v7.3h-29.1V43.7H306v7.2h36.5l7.2-7.2V21.9L327.9 0zM109.3 0H80.1l-7.2 7.3v29.1L36.4 0H7.3L0 7.3v102l7.3 7.3h29.1l7.3-7.3V80.1l36.4 36.5h29.2l7.3-7.3V7.3L109.3 0zM160.3 116.6h29.1l7.3-7.3V87.4L233.2 51V7.3L225.9 0h-29.2l-7.3 7.3v14.6l-14.5 14.5-14.6-14.5V7.3L153 0h-29.1l-7.3 7.3V51L153 87.4v21.9l7.3 7.3z"/></g></symbol><symbol id="icon-ui-search" viewBox="0 0 24 24"><circle cx="11" cy="11" r="8"/><path d="M21 21l-4.35-4.35"/></symbol><symbol id="icon-ui-mail" viewBox="0 0 24 24"><path d="M4 4h16c1.1 0 2 .9 2 2v12c0 1.1-.9 2-2 2H4c-1.1 0-2-.9-2-2V6c0-1.1.9-2 2-2z"/><path d="M22 6l-10 7L2 6"/></symbol><symbol id="icon-ui-x" viewBox="0 0 24 24"><path d="M18 6L6 18M6 6l12 12"/></symbol><symbol id="icon-ui-share-2" viewBox="0 0 24 24"><circle cx="18" cy="5" r="3"/><circle cx="6" cy="12" r="3"/><circle cx="18" cy="19" r="3"/><path d="M8.59 13.51l6.83 3.98M15.41 6.51l-6.82 3.98"/></symbol><symbol id="icon-ui-copy" viewBox="0 0 24 24"><rect x="9" y="9" width="13" height="13" rx="2" ry="2"/><path d="M5 15H4a2 2 0 01-2-2V4a2 2 0 012-2h9a2 2 0 012 2v1"/></symbol><symbol id="icon-ui-check" viewBox="0 0 24 24"><path d="M20 6L9 17l-5-5"/></symbol><symbol id="icon-ui-facebook" viewBox="0 0 24 24"><path d="M18 2h-3a5 5 0 00-5 5v3H7v4h3v8h4v-8h3l1-4h-4V7a1 1 0 011-1h3z"/></symbol><symbol id="icon-ui-twitter" viewBox="0 0 24 24"><path d="M23 3a10.9 10.9 0 01-3.14 1.53 4.48 4.48 0 00-7.86 3v1A10.66 10.66 0 013 4s-4 9 5 13a11.64 11.64 0 01-7 2c9 5 20 0 20-11.5a4.5 4.5 0 00-.08-.83A7.72 7.72 0 0023 3z"/></symbol><symbol id="icon-circle" viewBox="0 0 24 24"><circle cx="12" cy="12" fill="currentColor" r="10"/></symbol><symbol id="icon-ui-more-horizontal" viewBox="0 0 24 24"><circle cx="12" cy="12" r="1"/><circle cx="19" cy="12" r="1"/><circle cx="5" cy="12" r="1"/></symbol><symbol id="icon-covid-clock" viewBox="0 0 40 40"><g fill="transparent"><circle cx="19.5" cy="19.5" r="15.5" fill="#EDEDF0"/><path d="M11.75 32.923a15.499 15.499 0 1115.5-26.846l-15.5 26.846z" fill="#fff"/><path fill="#9425A8" d="M23.22 10.316L22.27 10 19 19.819l.949.316z"/><circle cx="19.5" cy="19.5" r="14.5" stroke="#000" stroke-width="2"/><path fill="#000" d="M27.173 13.82l.956 1.327-7.885 5.685-.956-1.326z"/><path fill="#000" d="M19.438 19.448l-.747 1.454L14 18.492l.747-1.454z"/><circle cx="19.526" cy="20.03" r="1.64" fill="#000"/><path fill-rule="evenodd" clip-rule="evenodd" d="M20 7v3h-1V7h1zM19 32v-3h1v3h-1zM32 20h-3v-1h3v1zM7 19h3v1H7v-1zM27.985 28.692l-2.121-2.12.707-.708 2.121 2.121-.707.707zM11.015 10.308l2.121 2.12-.707.708-2.121-2.121.707-.707zM10.308 27.985l2.12-2.121.708.707-2.121 2.121-.707-.707zM28.692 11.015l-2.12 2.121-.708-.707 2.121-2.121.707.707z" fill="#000"/></g></symbol><symbol id="icon-covid-closed" viewBox="0 0 40 40"><g fill="transparent"><path fill-rule="evenodd" clip-rule="evenodd" d="M29.618 15.716L6.931 21.03l.574 2.449 22.687-5.316-.574-2.448zM7.505 23.48l22.687-5.316.573 2.448L8.08 25.928l-.574-2.448zm1.147 4.896l.574 2.448.573 2.449 22.687-5.316-.573-2.448-.574-2.448-22.687 5.315zM9.8 33.273l.574 2.448 22.687-5.315-.574-2.449L9.8 33.273zm20.966-12.66l.574 2.448-22.687 5.315-.574-2.448 22.687-5.316z" fill="#fff"/><path stroke="#000" stroke-width="2" d="M6.202 20.579l23.869-5.593 3.8 16.22L10.002 36.8z"/><path d="M12.365 19.186V4.682C12.365 3.201 13.566 2 15.047 2v0c1.057 0 2.016.62 2.448 1.585l5.673 12.655" stroke="#000" stroke-width="2"/><circle cx="19.731" cy="25.569" r="4.892" stroke="#9425A8" stroke-width="2"/><path stroke="#9425A8" stroke-width="2.5" d="M22.579 22.525l-5.893 5.892"/></g></symbol><symbol id="icon-covid-mask" viewBox="0 0 40 40"><g fill="transparent"><circle cx="30.5" cy="19.5" r="7.5" stroke="#000" stroke-width="2"/><circle cx="8.5" cy="19.5" r="7.5" stroke="#000" stroke-width="2"/><path fill="#EDEDF0" d="M7.636 24.439h23.727V27H7.636zM7.636 19.318h23.727v2.561H7.636zM7.636 14.197h23.727v2.561H7.636z"/><path fill="#fff" d="M7.636 21.879h23.727v2.561H7.636zM7.636 16.758h23.727v2.561H7.636zM7.636 11.636h23.727v2.561H7.636z"/><path stroke="#000" stroke-width="2" d="M7 11h25v17H7z"/><path fill="#9425A8" d="M18 15h3v9h-3z"/><path fill="#9425A8" d="M24 18v3h-9v-3z"/></g></symbol><symbol id="icon-covid-healthcare-ems" viewBox="0 0 40 40"><g fill="transparent"><circle cx="27.5" cy="17.5" r="8.5" fill="#fff" stroke="#000" stroke-width="2"/><circle cx="26" cy="33" r="3" fill="#fff" stroke="#000" stroke-width="2"/><path fill="#9425A8" d="M26 12h3v11h-3z"/><path fill="#9425A8" d="M26.179 16.944l1.142 2.774-4.389 1.808-1.142-2.774zM32.094 13.572l1.142 2.774-4.92 2.027-1.142-2.774z"/><path fill="#9425A8" d="M32.106 21.512l1.134-2.777-5.86-2.393-1.135 2.777z"/><path fill="#9425A8" d="M27.15 18.553l1.134-2.777-5.363-2.19-1.134 2.777z"/><path d="M5 4v8a5 5 0 005 5v0a5 5 0 005-5V4M10 17.3v9.114c0 2.54 2.698 4.17 4.947 2.991v0a6.755 6.755 0 017.702 1.002l.701.643" stroke="#000" stroke-width="2"/><circle cx="15" cy="4" r="2" fill="#000"/><circle cx="5" cy="4" r="2" fill="#000"/></g></symbol><symbol id="icon-covid-virus" viewBox="0 0 40 40"><g fill="transparent"><circle cx="20.791" cy="13.256" r="6.07" fill="#9425A8" stroke="#000" stroke-width="2"/><circle cx="20.791" cy="13.256" r="6.07" transform="rotate(45 20.79 13.256)" fill="#9425A8" stroke="#000" stroke-width="2"/><circle cx="31.395" cy="13.256" r="1.651" fill="#9425A8" stroke="#000" stroke-width="2"/><circle cx="28.289" cy="20.754" r="1.651" transform="rotate(45 28.29 20.754)" fill="#9425A8" stroke="#000" stroke-width="2"/><circle cx="20.791" cy="23.86" r="1.651" transform="rotate(90 20.79 23.86)" fill="#9425A8" stroke="#000" stroke-width="2"/><circle cx="13.292" cy="20.754" r="1.651" transform="rotate(135 13.292 20.754)" fill="#9425A8" stroke="#000" stroke-width="2"/><circle cx="10.186" cy="13.256" r="1.651" transform="rotate(-180 10.186 13.256)" fill="#9425A8" stroke="#000" stroke-width="2"/><circle cx="13.292" cy="5.757" r="1.651" transform="rotate(-135 13.292 5.757)" fill="#9425A8" stroke="#000" stroke-width="2"/><circle cx="20.791" cy="2.651" r="1.651" transform="rotate(-90 20.79 2.651)" fill="#9425A8" stroke="#000" stroke-width="2"/><circle cx="28.289" cy="5.757" r="1.651" transform="rotate(-45 28.29 5.757)" fill="#9425A8" stroke="#000" stroke-width="2"/><path stroke="#000" stroke-width="2" d="M29.628 13.372h-2.651M26.957 19.587l-1.874-1.875M20.674 22.093v-2.651M14.46 19.422l1.874-1.874M11.954 13.14h2.651M14.624 6.925l1.875 1.874M20.907 4.419V7.07M27.122 7.089l-1.875 1.875"/><path d="M4 36.674v-8.616h4.504v1.326l2.713-.946c1.956-.681 4.064-.8 6.084-.343l7.328 1.659a1.66 1.66 0 011.292 1.618l6.598-2.265a1.82 1.82 0 011.3 3.398l-8.588 3.63a15.883 15.883 0 01-9.124.978L8.504 35.68v.994H4z" fill="#fff"/><path d="M8.504 29.384v-1.326H4v8.616h4.504v-.994m0-6.296l2.713-.946c1.956-.681 4.064-.8 6.084-.343l7.328 1.659a1.66 1.66 0 011.292 1.618v0M8.504 29.384v6.296m8.31-3.645l7.488.562a1.535 1.535 0 001.62-1.225v0M8.503 35.68l7.603 1.433c3.071.578 6.245.238 9.124-.979l8.588-3.63a1.82 1.82 0 001.111-1.676v0a1.82 1.82 0 00-2.41-1.721l-6.599 2.265" stroke="#000" stroke-width="2"/></g></symbol><symbol id="icon-covid-care" viewBox="0 0 40 40"><path fill-rule="evenodd" clip-rule="evenodd" d="M31.106 18.17L19 34 6.894 18.17a8.04 8.04 0 01-.49-.64L6 17c-.68-1.177-1-2.543-1-4a8 8 0 0114-5.292A8 8 0 0133 13c0 1.457-.32 2.823-1 4l-.405.53a8.032 8.032 0 01-.489.64z" fill="#fff" stroke="#000" stroke-width="2"/><path d="M34 23v-5H19v5h15z" fill="#9425A8"/><path d="M29 13h-5v15h5V13z" fill="#9425A8"/></symbol><symbol id="icon-covid-shut-down" viewBox="0 0 40 40"><path d="M30.397 27.067l-.265.3.017.4.327 7.928-6.281-4.094-.378-.247-.435.12A14.513 14.513 0 0119.5 32C11.492 32 5 25.508 5 17.5S11.492 3 19.5 3 34 9.492 34 17.5c0 3.666-1.36 7.013-3.603 9.567z" fill="#fff" stroke="#000" stroke-width="2"/><path d="M19.5 23.143a5.643 5.643 0 100-11.286 5.643 5.643 0 000 11.286z" fill="#fff" stroke="#9425A8" stroke-width="2"/><path d="M22.598 13.955l-6.643 6.643" stroke="#9425A8" stroke-width="2"/></symbol><symbol id="icon-covid-childcare" viewBox="0 0 40 40"><g fill="transparent"><circle cx="30.448" cy="31.448" r="3.552" fill="#fff" stroke="#000" stroke-width="2"/><mask id="a" fill="#fff"><path d="M23.052 3a14.224 14.224 0 0114.224 14.224H23.052V3z"/></mask><path d="M23.052 3a14.224 14.224 0 0114.224 14.224H23.052V3z" fill="#9425A8" stroke="#000" stroke-width="2" mask="url(#a)"/><circle cx="15.655" cy="31.448" r="3.552" fill="#fff" stroke="#000" stroke-width="2"/><path d="M9.828 17.655h26.448v3.38a6 6 0 01-6 6H15.828a6 6 0 01-6-6v-3.38z" fill="#fff" stroke="#000" stroke-width="2"/><path d="M15.655 17.793L11.691 9.3a5 5 0 00-4.53-2.885H2" stroke="#000" stroke-width="2"/><path d="M25.047 14h9.796l.605 2.706H25.047V14z" fill="#9425A8"/></g></symbol><symbol id="icon-covid-house" viewBox="0 0 40 40"><g fill="transparent"><path d="M4 16.5V35h31V16.5L19.5 3 4 16.5z" fill="#9425A8" stroke="#000" stroke-width="2"/><path d="M5 16v18h29V16H5z" fill="#fff"/><path fill="#000" d="M16 26h8v9h-8z"/><path stroke="#000" stroke-width="2" d="M34 17H4"/></g></symbol><symbol id="icon-covid-social-distancing" viewBox="0 0 40 40"><g fill="transparent" stroke="#000" stroke-width="2"><circle cx="31.879" cy="7.152" r="4.152" fill="#9425A8"/><circle cx="9.212" cy="28.758" r="4.152" fill="#fff"/><circle cx="20.546" cy="31.849" r="4.152" fill="#fff"/><circle cx="17.455" cy="20.515" r="4.152" fill="#fff"/><circle cx="7.152" cy="15.364" r="4.152" fill="#fff"/></g></symbol><symbol id="icon-covid-store" viewBox="0 0 40 40"><g fill="transparent"><path d="M4 6h31v27H4V6z" fill="#fff" stroke="#000" stroke-width="2"/><mask id="a" maskUnits="userSpaceOnUse" x="3.063" y="10.688" width="12" height="9" fill="#000"><path fill="#fff" d="M3.063 10.688h12v9h-12z"/><path d="M12.281 13.297a3.609 3.609 0 11-7.219 0h7.22z"/></mask><path d="M12.281 13.297a3.609 3.609 0 11-7.219 0h7.22z" stroke="#000" stroke-width="4" mask="url(#a)"/><mask id="b" maskUnits="userSpaceOnUse" x="10.281" y="10.688" width="12" height="9" fill="#000"><path fill="#fff" d="M10.281 10.688h12v9h-12z"/><path d="M19.5 13.297a3.61 3.61 0 01-6.944 1.381 3.607 3.607 0 01-.275-1.381H19.5z"/></mask><path d="M19.5 13.297a3.61 3.61 0 01-6.944 1.381 3.607 3.607 0 01-.275-1.381H19.5z" stroke="#000" stroke-width="4" mask="url(#b)"/><mask id="c" maskUnits="userSpaceOnUse" x="17.5" y="10.688" width="12" height="9" fill="#000"><path fill="#fff" d="M17.5 10.688h12v9h-12z"/><path d="M26.719 13.297a3.609 3.609 0 01-7.219 0H26.719z"/></mask><path d="M26.719 13.297a3.609 3.609 0 01-7.219 0H26.719z" stroke="#000" stroke-width="4" mask="url(#c)"/><mask id="d" maskUnits="userSpaceOnUse" x="24.719" y="10.688" width="12" height="9" fill="#000"><path fill="#fff" d="M24.719 10.688h12v9h-12z"/><path d="M33.938 13.297a3.61 3.61 0 01-6.945 1.381 3.607 3.607 0 01-.274-1.381h7.218z"/></mask><path d="M33.938 13.297a3.61 3.61 0 01-6.945 1.381 3.607 3.607 0 01-.274-1.381h7.218z" stroke="#000" stroke-width="4" mask="url(#d)"/><path fill="#9425A8" d="M5 7h29v7H5z"/><path d="M12.297 13.443c0 .455-.094.905-.276 1.325-.181.42-.448.802-.784 1.124a3.633 3.633 0 01-1.173.75 3.756 3.756 0 01-2.769 0 3.633 3.633 0 01-1.173-.75 3.457 3.457 0 01-.784-1.124 3.336 3.336 0 01-.276-1.325H12.297zM19.531 13.443c0 .455-.093.905-.275 1.325-.182.42-.448.802-.784 1.124a3.633 3.633 0 01-1.174.75 3.756 3.756 0 01-2.768 0 3.634 3.634 0 01-1.174-.75 3.457 3.457 0 01-.784-1.124 3.336 3.336 0 01-.275-1.325h7.234zM26.766 13.443c0 .455-.094.905-.276 1.325-.181.42-.448.802-.784 1.124a3.634 3.634 0 01-1.173.75 3.756 3.756 0 01-2.769 0 3.633 3.633 0 01-1.173-.75 3.457 3.457 0 01-.784-1.124 3.334 3.334 0 01-.276-1.325H26.766zM34 13.443c0 .455-.094.905-.275 1.325-.182.42-.449.802-.784 1.124a3.634 3.634 0 01-1.174.75 3.757 3.757 0 01-2.768 0 3.633 3.633 0 01-1.174-.75 3.455 3.455 0 01-.784-1.124 3.336 3.336 0 01-.275-1.325H34z" fill="#9425A8"/><path fill="#000" d="M16 24h8v10h-8z"/></g></symbol><symbol id="icon-covid-lost-money" viewBox="0 0 40 40"><g fill="transparent"><path d="M15.055 37.19h5.76v-4.23c4.365-.855 7.425-3.735 7.425-8.19 0-4.185-2.385-6.66-6.795-7.74l-4.905-1.215c-1.395-.36-2.16-.945-2.16-2.16 0-1.35 1.215-2.25 3.06-2.25 2.025 0 3.24.99 3.825 2.34h6.66c-.675-3.78-3.015-6.57-7.11-7.515V2h-5.76v4.095c-4.545.765-7.56 3.87-7.56 8.19 0 4.635 2.97 6.615 6.66 7.515l4.455 1.035c1.845.45 2.7.99 2.7 2.385 0 1.485-1.305 2.385-3.195 2.385-2.07 0-3.51-.855-4.095-2.565H7c.72 4.275 3.69 7.02 8.055 7.875v4.275z" fill="#fff" stroke="#000" stroke-width="2"/><path fill="#9425A8" d="M25.8 20h8.4v10.059h-8.4z"/><path d="M30 39l-7.794-10.897h15.588L30 39z" fill="#9425A8"/></g></symbol><symbol id="icon-covid-calendar" viewBox="0 0 40 40"><g fill="transparent"><path fill="#fff" stroke="#000" stroke-width="2" d="M6 7h27v27H6z"/><path fill="#EDEDF0" d="M9 18h3v3H9zM9 23h3v3H9zM9 28h3v3H9zM15 18h3v3h-3zM15 23h3v3h-3zM15 28h3v3h-3zM21 18h3v3h-3zM21 23h3v3h-3zM21 28h3v3h-3zM27 18h3v3h-3zM27 23h3v3h-3z"/><path fill="#9425A8" stroke="#000" stroke-width="2" d="M6 7h27v8H6z"/><path fill="#000" d="M28 3h2v8h-2zM9 3h2v8H9z"/></g></symbol><symbol id="icon-logo-full" viewBox="0 0 180 30"><path d="M22.4 23c0 .5-.4 1-1 1H8.6c-.5 0-1-.4-1-1v-8.7c0-.5.4-1 1-1h11.2v-2.5c0-2.4-1.2-3.5-3.9-3.5-5.5 0-5.5 1.7-5.5 2.8v1c0 .3-.2.6-.7.4l-1.6-.6c-.3-.1-.3-.3-.3-.7V10c0-5.4 5.9-5.4 8.1-5.4 4.1 0 6.5 2.2 6.5 6.1V23zM15 0C6.7 0 0 6.7 0 15s6.7 15 15 15 15-6.7 15-15S23.3 0 15 0zm4.3 16h-8.6c-.3 0-.5.2-.5.5v4.4c0 .3.2.5.5.5h8.6c.3 0 .5-.2.5-.5v-4.4c0-.3-.2-.5-.5-.5z" fill="#fbb720"/><g fill="currentColor"><path d="M46.5 15.8l-2.1-5-2.1 5h4.2zm-3.6-9.1H46l6.6 15.6H49l-1.4-3.5h-6.5l-1.4 3.5h-3.5l6.7-15.6zM52.6 14.5c0-4.4 3.3-8 8.1-8 2.9 0 4.7 1 6.1 2.4l-2.2 2.5c-1.2-1.1-2.4-1.7-4-1.7-2.6 0-4.5 2.2-4.5 4.8 0 2.7 1.8 4.9 4.5 4.9 1.8 0 2.8-.7 4.1-1.8l2.2 2.2c-1.6 1.7-3.4 2.8-6.3 2.8-4.6-.1-8-3.6-8-8.1zM68.3 14.5c0-4.4 3.3-8 8.1-8 2.9 0 4.7 1 6.1 2.4l-2.2 2.5c-1.2-1.1-2.4-1.7-4-1.7-2.6 0-4.5 2.2-4.5 4.8 0 2.7 1.8 4.9 4.5 4.9 1.8 0 2.8-.7 4.1-1.8l2.2 2.2c-1.6 1.7-3.4 2.8-6.3 2.8-4.6-.1-8-3.6-8-8.1zM85.3 6.8h11.6v3h-8.2v3.1h7.2v3h-7.2v3.3h8.4v3H85.3V6.8zM99.5 20l2-2.4c1.4 1.1 2.8 1.9 4.6 1.9 1.4 0 2.2-.6 2.2-1.5s-.5-1.3-3.1-2c-3.1-.8-5.1-1.7-5.1-4.7 0-2.8 2.3-4.7 5.4-4.7 2.3 0 4.2.7 5.7 2l-1.8 2.6c-1.4-.9-2.7-1.5-4-1.5-1.3 0-2 .6-2 1.3 0 1 .7 1.3 3.3 2 3.1.8 4.9 1.9 4.9 4.6 0 3.1-2.3 4.8-5.7 4.8-2.2 0-4.6-.8-6.4-2.4zM113.8 20l2-2.4c1.4 1.1 2.8 1.9 4.6 1.9 1.4 0 2.2-.6 2.2-1.5s-.5-1.3-3.1-2c-3.1-.8-5.1-1.7-5.1-4.7 0-2.8 2.3-4.7 5.4-4.7 2.3 0 4.2.7 5.7 2l-1.8 2.6c-1.4-.9-2.7-1.5-4-1.5-1.3 0-2 .6-2 1.3 0 1 .7 1.3 3.3 2 3.1.8 4.9 1.9 4.9 4.6 0 3.1-2.3 4.8-5.7 4.8-2.2 0-4.5-.8-6.4-2.4zM134.4 6.8h3.2l7.2 9.5V6.8h3.4v15.4h-2.9l-7.5-9.8v9.8h-3.4V6.8zM155.9 16.1l-6-9.3h4l3.7 6.2 3.8-6.2h3.8l-5.9 9.3v6.1h-3.4v-6.1zM165 14.5c0-4.4 3.3-8 8.1-8 2.9 0 4.7 1 6.1 2.4l-2.2 2.5c-1.2-1.1-2.4-1.7-4-1.7-2.6 0-4.5 2.2-4.5 4.8 0 2.7 1.8 4.9 4.5 4.9 1.8 0 2.8-.7 4.1-1.8l2.2 2.2c-1.6 1.7-3.4 2.8-6.3 2.8-4.6-.1-8-3.6-8-8.1z"/><path d="M46.5 15.8l-2.1-5-2.1 5h4.2zm-3.6-9.1H46l6.6 15.6H49l-1.4-3.5h-6.5l-1.4 3.5h-3.5l6.7-15.6zM52.6 14.5c0-4.4 3.3-8 8.1-8 2.9 0 4.7 1 6.1 2.4l-2.2 2.5c-1.2-1.1-2.4-1.7-4-1.7-2.6 0-4.5 2.2-4.5 4.8 0 2.7 1.8 4.9 4.5 4.9 1.8 0 2.8-.7 4.1-1.8l2.2 2.2c-1.6 1.7-3.4 2.8-6.3 2.8-4.6-.1-8-3.6-8-8.1zM68.3 14.5c0-4.4 3.3-8 8.1-8 2.9 0 4.7 1 6.1 2.4l-2.2 2.5c-1.2-1.1-2.4-1.7-4-1.7-2.6 0-4.5 2.2-4.5 4.8 0 2.7 1.8 4.9 4.5 4.9 1.8 0 2.8-.7 4.1-1.8l2.2 2.2c-1.6 1.7-3.4 2.8-6.3 2.8-4.6-.1-8-3.6-8-8.1zM85.3 6.8h11.6v3h-8.2v3.1h7.2v3h-7.2v3.3h8.4v3H85.3V6.8zM99.5 20l2-2.4c1.4 1.1 2.8 1.9 4.6 1.9 1.4 0 2.2-.6 2.2-1.5s-.5-1.3-3.1-2c-3.1-.8-5.1-1.7-5.1-4.7 0-2.8 2.3-4.7 5.4-4.7 2.3 0 4.2.7 5.7 2l-1.8 2.6c-1.4-.9-2.7-1.5-4-1.5-1.3 0-2 .6-2 1.3 0 1 .7 1.3 3.3 2 3.1.8 4.9 1.9 4.9 4.6 0 3.1-2.3 4.8-5.7 4.8-2.2 0-4.6-.8-6.4-2.4zM113.8 20l2-2.4c1.4 1.1 2.8 1.9 4.6 1.9 1.4 0 2.2-.6 2.2-1.5s-.5-1.3-3.1-2c-3.1-.8-5.1-1.7-5.1-4.7 0-2.8 2.3-4.7 5.4-4.7 2.3 0 4.2.7 5.7 2l-1.8 2.6c-1.4-.9-2.7-1.5-4-1.5-1.3 0-2 .6-2 1.3 0 1 .7 1.3 3.3 2 3.1.8 4.9 1.9 4.9 4.6 0 3.1-2.3 4.8-5.7 4.8-2.2 0-4.5-.8-6.4-2.4zM134.4 6.8h3.2l7.2 9.5V6.8h3.4v15.4h-2.9l-7.5-9.8v9.8h-3.4V6.8zM155.9 16.1l-6-9.3h4l3.7 6.2 3.8-6.2h3.8l-5.9 9.3v6.1h-3.4v-6.1zM165 14.5c0-4.4 3.3-8 8.1-8 2.9 0 4.7 1 6.1 2.4l-2.2 2.5c-1.2-1.1-2.4-1.7-4-1.7-2.6 0-4.5 2.2-4.5 4.8 0 2.7 1.8 4.9 4.5 4.9 1.8 0 2.8-.7 4.1-1.8l2.2 2.2c-1.6 1.7-3.4 2.8-6.3 2.8-4.6-.1-8-3.6-8-8.1z"/></g></symbol><symbol id="icon-ui-settings" viewBox="0 0 24 24"><circle cx="12" cy="12" r="3"/><path d="M19.4 15a1.65 1.65 0 00.33 1.82l.06.06a2 2 0 010 2.83 2 2 0 01-2.83 0l-.06-.06a1.65 1.65 0 00-1.82-.33 1.65 1.65 0 00-1 1.51V21a2 2 0 01-2 2 2 2 0 01-2-2v-.09A1.65 1.65 0 009 19.4a1.65 1.65 0 00-1.82.33l-.06.06a2 2 0 01-2.83 0 2 2 0 010-2.83l.06-.06a1.65 1.65 0 00.33-1.82 1.65 1.65 0 00-1.51-1H3a2 2 0 01-2-2 2 2 0 012-2h.09A1.65 1.65 0 004.6 9a1.65 1.65 0 00-.33-1.82l-.06-.06a2 2 0 010-2.83 2 2 0 012.83 0l.06.06a1.65 1.65 0 001.82.33H9a1.65 1.65 0 001-1.51V3a2 2 0 012-2 2 2 0 012 2v.09a1.65 1.65 0 001 1.51 1.65 1.65 0 001.82-.33l.06-.06a2 2 0 012.83 0 2 2 0 010 2.83l-.06.06a1.65 1.65 0 00-.33 1.82V9a1.65 1.65 0 001.51 1H21a2 2 0 012 2 2 2 0 01-2 2h-.09a1.65 1.65 0 00-1.51 1z"/></symbol><symbol id="icon-ui-translate" viewBox="0 0 24 24"><path d="M3 16c1.5-.833 5-3.5 7-6.5S11.5 4 11.5 4m3 0h-6m-6 0h6m0 0V2.5M4.5 7c1 3 3 5.5 5.5 7.5m2 6.5l1.35-3M21 21l-1.35-3m-6.3 0l3.15-7.5c1.23 2.734 1.92 4.766 3.15 7.5m-6.3 0h6.3"/></symbol><symbol id="icon-logo-google-translate"><path fill-rule="evenodd" clip-rule="evenodd" d="M128.789 4.794c-.738 0-1.766.522-2.056 1.333h-.058V4.903H125.4V12h1.333V8.184c0-1.304.927-2.071 1.839-2.071.29 0 .522.028.71.1l.507-1.244c-.275-.116-.565-.175-1-.175zM152.801 1.46h1.332V12h-1.332V1.46zM148.658 4.794c-1.433 0-2.767.8-2.767 2.05 0 1.21 1.209 1.757 1.841 1.911l1.432.338c.731.182.982.562.982.913 0 .575-.617.952-1.418.952-.829 0-1.544-.404-1.909-1.293l-1.152.478c.407 1 1.39 1.984 3.048 1.984 1.615 0 2.752-.941 2.752-2.163 0-.843-.575-1.686-1.938-2.01l-1.404-.323c-.548-.126-.912-.364-.912-.8 0-.562.672-.868 1.403-.868.674 0 1.347.268 1.615.914l1.123-.464c-.421-1.054-1.502-1.62-2.696-1.62zM158.579 10.929c-.675 0-1.508-.348-1.508-1.078 0-.632.608-1.322 1.971-1.322 1.096 0 1.625.409 1.625.409 0 1.124-1.063 1.99-2.088 1.99zm.28-6.135c-1.728 0-2.701 1.006-2.94 1.638l1.18.506c.239-.646 1.072-.946 1.788-.946.97 0 1.78.602 1.78 1.693v.198c-.268-.155-.922-.422-1.85-.422-1.615 0-3.116.803-3.116 2.362 0 1.433 1.262 2.304 2.666 2.304 1.181 0 1.864-.636 2.244-1.212h.056V12h1.255V7.744c0-1.939-1.377-2.95-3.063-2.95zM133.323 10.929c-.674 0-1.508-.348-1.508-1.078 0-.632.609-1.322 1.972-1.322 1.095 0 1.624.409 1.624.409 0 1.124-1.062 1.99-2.088 1.99zm.281-6.135c-1.728 0-2.702 1.006-2.941 1.638l1.18.506c.24-.646 1.072-.946 1.789-.946.969 0 1.779.602 1.779 1.693v.198c-.267-.155-.922-.422-1.85-.422-1.615 0-3.115.803-3.115 2.362 0 1.433 1.261 2.304 2.666 2.304 1.18 0 1.863-.636 2.243-1.212h.056V12h1.256V7.744c0-1.939-1.377-2.95-3.063-2.95zM169.398 7.623c.257-1.003 1.027-1.631 1.998-1.631 1.498 0 2.011 1.035 2.054 1.631h-4.052zm2.026-2.83c-2.054 0-3.424 1.714-3.424 3.668 0 2.079 1.427 3.666 3.567 3.666 1.612 0 2.64-.9 3.053-1.882l-1.17-.478c-.371.872-1.141 1.162-1.912 1.162-1.084 0-2.154-.768-2.225-2.222h5.521s.015-.148.015-.246c0-2.22-1.342-3.667-3.425-3.667zM141.778 4.794c-.971 0-1.869.565-2.245 1.216h-.058V4.903H138.2V12h1.333V8.197c0-1.086.71-2.187 1.868-2.187 1.014 0 1.753.493 1.753 1.97V12h1.333V7.778c0-1.753-.898-2.984-2.709-2.984zM165.399 2.794h-1.332v2.109h-1.246V6.13h1.246v3.723c0 1.449.796 2.274 2.288 2.274.449 0 .768-.058 1.072-.188l-.463-1.144a1.352 1.352 0 01-.609.116c-.622 0-.956-.362-.956-1.16V6.13h1.738V4.903h-1.738V2.794zM124.95 1.46h-7.217v1.367h2.934v9.167h1.35V2.827h2.933V1.461zM72.16 5.586v1.639h3.922c-.117.922-.425 1.595-.893 2.063-.571.57-1.464 1.2-3.029 1.2-2.415 0-4.303-1.946-4.303-4.36 0-2.415 1.888-4.361 4.303-4.361 1.302 0 2.253.512 2.956 1.17l1.156-1.156C75.292.845 73.989.127 72.16.127c-3.307 0-6.088 2.693-6.088 6 0 3.308 2.78 6 6.088 6 1.785 0 3.131-.585 4.185-1.682 1.083-1.084 1.42-2.606 1.42-3.835 0-.38-.03-.731-.088-1.024H72.16zM82.667 4.255c-2.142 0-3.888 1.628-3.888 3.872 0 2.23 1.746 3.873 3.888 3.873s3.887-1.643 3.887-3.873c0-2.244-1.745-3.872-3.887-3.872zm0 6.219c-1.174 0-2.186-.968-2.186-2.347 0-1.393 1.012-2.347 2.186-2.347 1.173 0 2.186.954 2.186 2.347 0 1.379-1.013 2.347-2.186 2.347zM101.72 5.12h-.059c-.382-.455-1.115-.865-2.039-.865C97.686 4.255 96 5.94 96 8.127 96 10.297 97.686 12 99.622 12c.924 0 1.657-.41 2.039-.88h.059v.541c0 1.482-.792 2.274-2.069 2.274-1.041 0-1.686-.748-1.95-1.38l-1.482.617c.426 1.027 1.555 2.289 3.432 2.289 1.996 0 3.682-1.174 3.682-4.034V4.454h-1.613v.667zm-1.95 5.354c-1.174 0-2.068-.997-2.068-2.347 0-1.364.894-2.347 2.067-2.347 1.16 0 2.068.998 2.068 2.362 0 1.35-.908 2.332-2.068 2.332zM91.333 4.255c-2.141 0-3.887 1.628-3.887 3.872 0 2.23 1.746 3.873 3.887 3.873 2.142 0 3.888-1.643 3.888-3.873 0-2.244-1.746-3.872-3.888-3.872zm0 6.219c-1.173 0-2.185-.968-2.185-2.347 0-1.393 1.012-2.347 2.185-2.347 1.174 0 2.186.954 2.186 2.347 0 1.379-1.012 2.347-2.186 2.347zM104.667.287h1.673V12h-1.673V.287zM111.51 10.474c-.865 0-1.481-.395-1.878-1.173l5.178-2.142-.176-.44c-.323-.865-1.305-2.464-3.315-2.464-1.995 0-3.652 1.57-3.652 3.872 0 2.172 1.642 3.873 3.843 3.873 1.775 0 2.801-1.085 3.227-1.717l-1.32-.88c-.44.646-1.042 1.07-1.907 1.07zm-.126-4.768c.689 0 1.272.35 1.467.854l-3.498 1.45c0-1.633 1.155-2.304 2.031-2.304z" fill="currentColor"/><g fill="currentColor"><path d="M6.176 8.9c0 .965-.22 1.743-.662 2.332-.442.59-1.04.885-1.793.885-.77 0-1.375-.244-1.817-.732v3.053H.82V5.66h.99l.053.703c.442-.547 1.055-.82 1.84-.82.762 0 1.363.287 1.805.861.445.575.668 1.373.668 2.397v.1zm-1.084-.123c0-.714-.153-1.279-.457-1.693-.305-.414-.723-.621-1.254-.621-.656 0-1.149.29-1.477.873v3.03c.325.577.82.866 1.489.866.52 0 .931-.205 1.236-.615.309-.414.463-1.027.463-1.84zM7.271 8.771c0-.62.122-1.18.364-1.675a2.758 2.758 0 011.02-1.149 2.79 2.79 0 011.493-.404c.864 0 1.561.299 2.092.896.535.598.803 1.393.803 2.385V8.9c0 .618-.12 1.172-.357 1.665a2.67 2.67 0 01-1.014 1.142c-.438.273-.942.41-1.512.41-.86 0-1.556-.299-2.092-.896-.53-.598-.797-1.389-.797-2.373V8.77zm1.09.13c0 .703.162 1.267.487 1.693.328.426.765.638 1.312.638.55 0 .988-.214 1.313-.644.324-.434.486-1.04.486-1.817 0-.695-.166-1.257-.498-1.687a1.564 1.564 0 00-1.313-.65c-.535 0-.966.212-1.294.638-.329.426-.493 1.035-.493 1.828zM20.016 10.506l1.218-4.846h1.084L20.473 12h-.88l-1.54-4.805-1.5 4.805h-.88l-1.839-6.34h1.078l1.248 4.746 1.477-4.746h.873l1.506 4.846zM26.057 12.117c-.86 0-1.559-.281-2.098-.844-.54-.566-.809-1.322-.809-2.267v-.2c0-.628.12-1.189.358-1.681a2.814 2.814 0 011.008-1.16 2.535 2.535 0 011.406-.422c.824 0 1.465.271 1.922.814.457.543.685 1.32.685 2.332v.452h-4.295c.016.625.198 1.13.545 1.517.352.383.797.574 1.336.574.383 0 .707-.078.973-.234.265-.156.498-.363.697-.621l.662.516c-.531.816-1.328 1.224-2.39 1.224zm-.135-5.683c-.438 0-.805.16-1.102.48-.297.316-.48.762-.55 1.336h3.175v-.082c-.03-.55-.18-.977-.445-1.277-.266-.305-.625-.457-1.078-.457zM32.853 6.633a3.248 3.248 0 00-.533-.041c-.71 0-1.193.303-1.447.908V12h-1.084V5.66h1.055l.017.733c.356-.567.86-.85 1.512-.85.211 0 .371.027.48.082v1.008zM36.37 12.117c-.86 0-1.56-.281-2.098-.844-.54-.566-.81-1.322-.81-2.267v-.2c0-.628.12-1.189.358-1.681a2.814 2.814 0 011.008-1.16 2.535 2.535 0 011.406-.422c.825 0 1.465.271 1.922.814.457.543.686 1.32.686 2.332v.452h-4.295c.016.625.197 1.13.545 1.517.351.383.797.574 1.336.574.383 0 .707-.078.972-.234.266-.156.498-.363.698-.621l.662.516c-.532.816-1.328 1.224-2.39 1.224zm-.136-5.683c-.437 0-.804.16-1.101.48-.297.316-.48.762-.551 1.336h3.176v-.082c-.031-.55-.18-.977-.446-1.277-.265-.305-.624-.457-1.078-.457zM39.838 8.777c0-.972.23-1.754.691-2.343.461-.594 1.065-.891 1.81-.891.743 0 1.33.254 1.764.762V3h1.084v9h-.996l-.052-.68c-.434.532-1.037.797-1.81.797-.735 0-1.335-.3-1.8-.902-.46-.602-.691-1.387-.691-2.356v-.082zm1.084.123c0 .72.148 1.282.445 1.688.297.406.707.61 1.23.61.688 0 1.19-.31 1.506-.927V7.36c-.324-.597-.822-.896-1.494-.896-.53 0-.945.205-1.242.615-.297.41-.445 1.018-.445 1.822zM55.219 8.9c0 .97-.223 1.748-.668 2.338-.446.586-1.043.88-1.793.88-.801 0-1.42-.284-1.858-.85l-.052.732h-.996V3h1.084v3.357c.437-.543 1.04-.814 1.81-.814s1.373.291 1.81.873c.442.582.663 1.379.663 2.39V8.9zm-1.084-.123c0-.738-.143-1.308-.428-1.71-.285-.403-.695-.604-1.23-.604-.715 0-1.229.332-1.541.996v2.742c.332.664.85.996 1.552.996.52 0 .924-.2 1.213-.603.29-.403.434-1.008.434-1.817zM58.594 10.412L60.07 5.66h1.16l-2.548 7.319c-.395 1.054-1.022 1.582-1.881 1.582l-.205-.018-.405-.076v-.88l.293.024c.368 0 .653-.074.856-.222.207-.149.377-.42.51-.815l.24-.644-2.262-6.27h1.184l1.582 4.752z"/></g></symbol><symbol id="icon-ui-plus-circle" viewBox="0 0 24 24"><circle cx="12" cy="12" r="10"/><path d="M12 8v8M8 12h8"/></symbol><symbol id="icon-ui-minus-circle" viewBox="0 0 24 24"><circle cx="12" cy="12" r="10"/><path d="M8 12h8"/></symbol><symbol id="icon-screening" viewBox="0 0 21 20"><g fill="currentColor" fill-rule="nonzero"><path d="M17.5 19.9l-4.7-4.7c-1.3.8-2.8 1.3-4.5 1.3-4.6 0-8.3-3.7-8.3-8.2C0 3.7 3.7 0 8.3 0c4.6 0 8.3 3.7 8.3 8.3 0 1.6-.4 3.1-1.2 4.3l4.8 4.8c.3.2 0 .9-.5 1.4l-.7.7c-.6.4-1.2.6-1.5.4zM13.8 8.3c0-3-2.5-5.5-5.5-5.5S2.8 5.3 2.8 8.3s2.5 5.5 5.5 5.5 5.5-2.5 5.5-5.5z"/><path d="M12 6.7H7.4c-.2 0-.3-.1-.3-.3 0-.2.1-.3.3-.3H12c.2 0 .3.1.3.3 0 .2-.2.3-.3.3zM5.7 6.7h-.6c-.1 0-.3-.1-.3-.3 0-.2.1-.3.3-.3h.6c.2 0 .3.1.3.3 0 .2-.1.3-.3.3zM12 8.6H7.4c-.2 0-.3-.1-.3-.3 0-.2.1-.3.3-.3H12c.2 0 .3.1.3.3 0 .2-.2.3-.3.3zM5.7 8.6h-.6c-.1 0-.3-.1-.3-.3 0-.2.2-.3.3-.3h.6c.2 0 .3.1.3.3 0 .2-.1.3-.3.3z"/><g><path d="M12 10.5H7.4c-.2 0-.3-.1-.3-.3 0-.2.1-.3.3-.3H12c.2 0 .3.1.3.3 0 .2-.2.3-.3.3zM5.7 10.5h-.6c-.2 0-.3-.1-.3-.3 0-.2.2-.3.3-.3h.6c.2 0 .3.1.3.3 0 .2-.1.3-.3.3z"/></g></g></symbol><symbol id="icon-ui-printer" viewBox="0 0 24 24"><path d="M6 9V2h12v7M6 18H4a2 2 0 01-2-2v-5a2 2 0 012-2h16a2 2 0 012 2v5a2 2 0 01-2 2h-2"/><path d="M6 14h12v8H6z"/></symbol></svg>