<?xml version="1.0" encoding="UTF-8"?>
<svg width="20px" height="21px" viewBox="0 0 20 21" version="1.1" xmlns="http://www.w3.org/2000/svg" xmlns:xlink="http://www.w3.org/1999/xlink">
    <!-- Generator: Sketch 51.2 (57519) - http://www.bohemiancoding.com/sketch -->
    <title>icon-work</title>
    <desc>Created with Sketch.</desc>
    <defs></defs>
    <g id="Page-1" stroke="none" stroke-width="1" fill="none" fill-rule="evenodd">
        <g id="icon-work">
            <g id="Group" fill="#118DF0">
                <path d="M0.5,17.3 C0.5,17.1 0.5,16.8 0.5,16.6 C0.5,12.6 3.8,9.3 7.8,9.3 C11.8,9.3 15.1,12.6 15.1,16.6 C15.1,16.8 15.1,17.1 15.1,17.3" id="Shape" fill-rule="nonzero"></path>
                <circle id="Head_5_" cx="7.8" cy="5" r="5"></circle>
            </g>
            <g id="Group" transform="translate(7.000000, 8.000000)">
                <circle id="Oval" fill="#184E9E" cx="6.4" cy="6.4" r="6.1"></circle>
                <path d="M6.4,6.8 C6.1,6.8 6,6.6 6,6.4 L6,2.4 C6,2.2 6.2,2 6.4,2 L6.5,2 C6.7,2 6.9,2.2 6.9,2.4 L6.9,6.4 C6.7,6.6 6.6,6.8 6.4,6.8 Z" id="Shape" fill="#FFFFFF" fill-rule="nonzero"></path>
                <path d="M8.7,8.7 L8.6,8.8 C8.5,8.9 8.3,8.9 8.1,8.8 L6,6.7 C5.9,6.6 5.9,6.4 6,6.2 L6.1,6.1 C6.2,6 6.4,6 6.6,6.1 L8.7,8.2 C8.9,8.3 8.9,8.5 8.7,8.7 Z" id="Shape" fill="#FFFFFF" fill-rule="nonzero"></path>
            </g>
        </g>
    </g>
</svg>