<?xml version="1.0" encoding="UTF-8" standalone="no"?>
<!DOCTYPE svg PUBLIC "-//W3C//DTD SVG 1.1//EN" "http://www.w3.org/Graphics/SVG/1.1/DTD/svg11.dtd">
<svg width="100%" height="100%" viewBox="0 0 20 21" version="1.1" xmlns="http://www.w3.org/2000/svg" xmlns:xlink="http://www.w3.org/1999/xlink" xml:space="preserve" style="fill-rule:evenodd;clip-rule:evenodd;stroke-linejoin:round;stroke-miterlimit:1.41421;">
    <g>
        <path d="M6.5,7.7l2.3,2.3l5.2,-5.2l5.1,5.1c0.6,-1.1 1,-2.2 1,-3.4c0,-3.1 -2.4,-5.5 -5.5,-5.5c-1.7,0 -3.4,0.8 -4.5,2.1c-1.1,-1.3 -2.7,-2.1 -4.5,-2.1c-3.1,0 -5.5,2.4 -5.5,5.5c0,1.8 0.8,3.5 2.2,5.3l4.2,-4.1Z" style="fill:#118df0;fill-rule:nonzero;" />
        <path d="M13.9,6.5l-5.1,5.1l-2.3,-2.3l-3.4,3.4c1.4,1.6 3.3,3.3 5.5,5.3l1.4,1.3l1.4,-1.3c3,-2.7 5.4,-4.9 6.9,-7.1l-4.4,-4.4Z" style="fill:#118df0;fill-rule:nonzero;" />
    </g>
</svg>