<?xml version="1.0" encoding="UTF-8" standalone="no"?>
<!DOCTYPE svg PUBLIC "-//W3C//DTD SVG 1.1//EN" "http://www.w3.org/Graphics/SVG/1.1/DTD/svg11.dtd">
<svg width="100%" height="100%" viewBox="0 0 20 21" version="1.1" xmlns="http://www.w3.org/2000/svg" xmlns:xlink="http://www.w3.org/1999/xlink" xml:space="preserve" style="fill-rule:evenodd;clip-rule:evenodd;stroke-linejoin:round;stroke-miterlimit:1.41421;">
    <g id="Food_x5F_color_x5F_large_2_">
        <path d="M11.2,2.5c-1.1,-2.1 -3.6,-2.7 -5.7,-2.1c0.5,2.1 2.3,3.8 4.6,3.8c-0.7,0.7 -0.8,1.4 -0.1,2c0.6,-1.5 2.1,-3.1 3.4,-4c-0.3,-0.4 -0.6,-0.7 -0.9,-1.1c-0.4,0.4 -0.9,0.9 -1.3,1.4Z" style="fill:#184e9e;fill-rule:nonzero;" />
        <path d="M13.9,3.7c-1.8,0 -3.3,0.9 -3.9,2.4c-0.7,-1.5 -2.1,-2.4 -3.9,-2.4c-9.3,0 -5.9,17.9 2.4,16.7c0.7,-0.1 1.2,-0.3 1.5,-0.7c0.3,0.3 0.8,0.6 1.5,0.7c8.3,1.2 11.7,-16.7 2.4,-16.7Zm-8.5,3.2c-1.6,0.6 -2.3,2.4 -1.6,4c0.1,0.3 0,0.7 -0.3,0.8c-0.1,0 -0.2,0 -0.2,0c-0.2,0 -0.5,-0.1 -0.6,-0.4c-0.9,-2.1 0.1,-4.6 2.3,-5.5c0.3,-0.1 0.7,0 0.8,0.3c0.1,0.3 -0.1,0.7 -0.4,0.8Z" style="fill:#118df0;fill-rule:nonzero;" />
    </g>
</svg>