<svg viewBox="0 0 25 25" xmlns="http://www.w3.org/2000/svg" fill-rule="evenodd" clip-rule="evenodd" stroke-linejoin="round" stroke-miterlimit="1.414"><g fill-rule="nonzero"><path d="M12.5 23.988c-.7 0-1.3-.1-2-.2-6.2-1.1-10.4-7.1-9.3-13.3 1.1-6.2 7.1-10.4 13.3-9.3 6.2 1.1 10.4 7.1 9.3 13.3-1 5.6-5.8 9.5-11.3 9.5zm0-22c-5 0-9.4 3.6-10.3 8.7-1 5.7 2.8 11.1 8.5 12.1s11.1-2.8 12.1-8.5-2.8-11.2-8.5-12.2c-.6 0-1.2-.1-1.8-.1z" fill="#fbb720"/><path d="M12.631.013a12.4 12.4 0 019.146 4.164 12.678 12.678 0 012.501 4.238c.472 1.348.71 2.776.697 4.204a12.606 12.606 0 01-2.238 7.022 12.488 12.488 0 01-3.218 3.188 12.483 12.483 0 01-7.021 2.159 11.685 11.685 0 01-1.628-.137c-.409-.058-.41-.052-.702-.108a12.388 12.388 0 01-2.407-.718 12.44 12.44 0 01-3.806-2.473 12.68 12.68 0 01-2.717-3.74 12.479 12.479 0 01-1.162-4.219 12.388 12.388 0 011.203-6.547 12.474 12.474 0 012.26-3.212 12.706 12.706 0 013.637-2.609A12.55 12.55 0 0110.633.157c.559-.086 1.122-.13 1.687-.143.156-.002.156-.002.311-.001zm-.237 2.975a9.425 9.425 0 00-3.044.545 9.5 9.5 0 00-5.787 5.863 9.618 9.618 0 00-.52 2.906 9.38 9.38 0 00.45 3.089 9.461 9.461 0 004.471 5.399 9.579 9.579 0 003.753 1.123 9.43 9.43 0 009.085-4.89 9.53 9.53 0 00.968-2.667 9.616 9.616 0 00.098-3.215 9.606 9.606 0 00-4.338-6.752 9.34 9.34 0 00-3.282-1.295l-.043-.007c-.098-.001-.195-.006-.293-.01-.375-.021-.749-.06-1.125-.081a7.36 7.36 0 00-.393-.008z" fill="#fbb720"/><path d="M19.7 12.388c-.4-.1-.8-.2-1.2-.2 0-.7-.2-1.3-.4-1.9.3-.2.6-.4 1-.7 0 0 .1 0 .1-.1.1-.1.2-.2.1-.4-.4-.6-.8-1.2-1.2-1.7-.1-.1-.3-.2-.4-.1-.3.2-.7.5-1 .7-.5-.4-1-.8-1.6-1 .1-.4.1-.8.2-1.2v-.1c0-.1-.1-.3-.2-.3-.7-.1-1.4-.2-2.1-.4-.2 0-.4.1-.4.2-.1.4-.2.8-.2 1.2-.7 0-1.3.2-1.9.4-.5-.1-.7-.5-1-.8 0 0 0-.1-.1-.1 0-.1-.2-.1-.3 0-.6.4-1.2.8-1.7 1.2-.2.1-.3.3-.1.4.2.3.5.7.7 1-.4.5-.8 1-1 1.6-.4 0-.8-.1-1.2-.1-.2 0-.4.1-.4.2-.1.7-.2 1.4-.4 2.1 0 .2.1.4.2.4.4.1.8.2 1.2.2 0 .7.2 1.3.4 1.9-.3.2-.6.5-1 .7-.1.1-.2.3-.1.4.5.5.9 1.1 1.3 1.7.1.1.3.2.4.1.3-.2.7-.5 1-.7.5.4 1.1.8 1.7 1.1-.1.4-.1.8-.2 1.2 0 .2.1.4.2.4.7.1 1.4.2 2.1.4.2 0 .4-.1.4-.2.1-.4.2-.8.2-1.2.7 0 1.3-.2 1.9-.4.2.3.5.6.7 1 .1.1.3.2.4.1.6-.4 1.2-.8 1.7-1.2.1-.1.2-.3.1-.4-.2-.3-.5-.7-.7-1 .4-.5.8-1 1.1-1.6.4.1.8.1 1.2.2.2 0 .4-.1.4-.2.1-.7.2-1.4.4-2.1v-.1c0-.4-.1-.6-.3-.6zm-7.8 3.3c-1.8-.3-3-2-2.7-3.8.3-1.8 2-3 3.9-2.7 1.8.3 3 2 2.7 3.8-.3 1.9-2.1 3.1-3.9 2.7z" fill="#112e51"/></g></svg>