<?xml version="1.0" encoding="UTF-8" standalone="no"?>
<svg width="100%" height="100%" viewBox="0 0 21 20" version="1.1" xmlns="http://www.w3.org/2000/svg" xmlns:xlink="http://www.w3.org/1999/xlink" xml:space="preserve" style="fill-rule:evenodd;clip-rule:evenodd;stroke-linejoin:round;stroke-miterlimit:1.41421;">
  <g style="fill: currentColor; fill-rule: nonzero;">
    <path id="XMLID_10_" d="M17.5,19.9l-4.7,-4.7c-1.3,0.8 -2.8,1.3 -4.5,1.3c-4.6,0 -8.3,-3.7 -8.3,-8.2c0,-4.6 3.7,-8.3 8.3,-8.3c4.6,0 8.3,3.7 8.3,8.3c0,1.6 -0.4,3.1 -1.2,4.3l4.8,4.8c0.3,0.2 0,0.9 -0.5,1.4l-0.7,0.7c-0.6,0.4 -1.2,0.6 -1.5,0.4Zm-3.7,-11.6c0,-3 -2.5,-5.5 -5.5,-5.5c-3,0 -5.5,2.5 -5.5,5.5c0,3 2.5,5.5 5.5,5.5c3,0 5.5,-2.5 5.5,-5.5Z" />
    <g>
      <path d="M12,6.7l-4.6,0c-0.2,0 -0.3,-0.1 -0.3,-0.3c0,-0.2 0.1,-0.3 0.3,-0.3l4.6,0c0.2,0 0.3,0.1 0.3,0.3c0,0.2 -0.2,0.3 -0.3,0.3Z" />
      <path d="M5.7,6.7l-0.6,0c-0.1,0 -0.3,-0.1 -0.3,-0.3c0,-0.2 0.1,-0.3 0.3,-0.3l0.6,0c0.2,0 0.3,0.1 0.3,0.3c0,0.2 -0.1,0.3 -0.3,0.3Z" />
    </g>
    <g>
      <path d="M12,8.6l-4.6,0c-0.2,0 -0.3,-0.1 -0.3,-0.3c0,-0.2 0.1,-0.3 0.3,-0.3l4.6,0c0.2,0 0.3,0.1 0.3,0.3c0,0.2 -0.2,0.3 -0.3,0.3Z" />
      <path d="M5.7,8.6l-0.6,0c-0.1,0 -0.3,-0.1 -0.3,-0.3c0,-0.2 0.2,-0.3 0.3,-0.3l0.6,0c0.2,0 0.3,0.1 0.3,0.3c0,0.2 -0.1,0.3 -0.3,0.3Z" />
    </g>
    <g>
      <path d="M12,10.5l-4.6,0c-0.2,0 -0.3,-0.1 -0.3,-0.3c0,-0.2 0.1,-0.3 0.3,-0.3l4.6,0c0.2,0 0.3,0.1 0.3,0.3c0,0.2 -0.2,0.3 -0.3,0.3Z" />
      <path d="M5.7,10.5l-0.6,0c-0.2,0 -0.3,-0.1 -0.3,-0.3c0,-0.2 0.2,-0.3 0.3,-0.3l0.6,0c0.2,0 0.3,0.1 0.3,0.3c0,0.2 -0.1,0.3 -0.3,0.3Z" />
    </g>
  </g>
</svg>