<svg viewBox="0 0 50 50" xmlns="http://www.w3.org/2000/svg" fill-rule="evenodd" clip-rule="evenodd" stroke-linejoin="round" stroke-miterlimit="1.414"><circle cx="25" cy="25" r="25" fill="#118df0"/><circle cx="25" cy="25" r="23.7" fill="#fff"/><circle cx="25" cy="25" r="21.6" fill="#118df0"/><g fill-rule="nonzero"><path d="M32.1 21c-.9 0-3.1-1.5-3.1-2.3V13H15.7c-1.9 0-3.7 1.5-3.7 3.3v19.5c0 1.8 1.8 3.1 3.7 3.1h18.2c1.9 0 3.1-1.3 3.1-3.1V21h-4.9z" fill="#fff"/><path d="M29 18.7c0 1.2 1.4 2.3 2.9 2.3H37l-8-8v5.7z" fill="#184e9e"/><path d="M27.2 23.1c-.3-.3-.7-.5-1-.6-.3-.1-.7-.2-1.2-.2s-.9.1-1.2.3c-.3.2-.4.5-.4 1 0 .3.1.6.4.8.2.2.6.4.9.6.4.2.8.4 1.2.5l1.2.6c.4.3.7.6.9.9.2.4.4.8.4 1.4 0 .8-.2 1.4-.7 2-.5.5-1.2.9-2.1 1v1.7h-1.5v-1.6c-.6-.1-1.1-.2-1.7-.4-.6-.2-1.1-.5-1.5-.8l1-1.3c.4.3.9.6 1.3.7.4.2.9.3 1.4.3.6 0 1.1-.1 1.4-.4.3-.2.4-.6.4-1s-.1-.7-.4-.9c-.2-.2-.6-.5-.9-.7l-2.4-1.2c-.4-.2-.7-.5-.9-.9-.2-.3-.4-.8-.4-1.3 0-.8.2-1.4.7-1.9.5-.5 1.2-.8 2-1V19h1.5v1.6c.6.1 1.1.2 1.5.5.4.2.8.5 1.2.8l-1.1 1.2z" fill="#118df0"/></g></svg>