<svg width="48" height="48" fill="none" xmlns="http://www.w3.org/2000/svg"><path d="M24 48c13.255 0 24-10.745 24-24S37.255 0 24 0 0 10.745 0 24s10.745 24 24 24z"/><path d="M24 44c11.046 0 20-8.954 20-20S35.046 4 24 4 4 12.954 4 24s8.954 20 20 20z" fill="currentColor"/><path d="M35.333 26.667L24 38 12.667 26.667a8.014 8.014 0 010-11.334c3.13-3.13 8.203-2.13 11.333 1 3.13-3.13 8.204-4.13 11.333-1a8.014 8.014 0 010 11.334z" fill="#fff"/><path fill="currentColor" d="M22 20h4v10h-4z"/><path fill="currentColor" d="M29 23v4H19v-4z"/></svg>