<svg width="48" height="50" fill="none" xmlns="http://www.w3.org/2000/svg"><path d="M18.308 23.521l-9.365 4.627M30.455 23.521l9.517 4.72" stroke="currentColor" stroke-width="7.5" stroke-linecap="round"/><path d="M31.323 37.405l8.649 4.627M17.44 37.405l-8.356 4.888" stroke="currentColor" stroke-width="10" stroke-linecap="round"/><path d="M28.088 41.743h-7.414c-4.676 0-8.44-4.16-8.44-9.327V28.51c0-5.168 3.764-9.327 8.44-9.327h7.414c4.677 0 8.441 4.16 8.441 9.326v3.907c0 5.168-3.878 9.327-8.44 9.327z" fill="currentColor"/><path d="M25.25 40.008h-1.736c-3.34 0-7.81-3.52-7.81-7.892V28.81c0-4.372 2.69-7.892 6.03-7.892h5.296c3.34 0 6.029 3.52 6.029 7.892v3.306c0 4.372-4.55 7.892-7.81 7.892z"/><path d="M13.102 10.506a4.338 4.338 0 100-8.677 4.338 4.338 0 000 8.677zM35.662 10.506a4.338 4.338 0 100-8.677 4.338 4.338 0 000 8.677z" fill="currentColor"/><path d="M24.381 22.654c-4.676 0-12.147-4.578-12.147-9.14v-3.45c0-4.563 3.764-8.235 8.44-8.235h7.414c4.677 0 8.441 3.672 8.441 8.235v3.45c0 4.562-7.585 9.14-12.148 9.14z" fill="currentColor"/><circle cx="19.5" cy="8.5" r="1.5" fill="#fff"/><circle cx="29.5" cy="8.5" r="1.5" fill="#fff"/><ellipse cx="24.5" cy="16.5" rx="5.5" ry="4.5"/><circle cx="24.5" cy="15.5" r="1.5" fill="currentColor"/></svg>