<?xml version="1.0" encoding="UTF-8" standalone="no"?>
<svg width="100%" height="100%" viewBox="0 0 180 30" version="1.1" xmlns="http://www.w3.org/2000/svg" xmlns:xlink="http://www.w3.org/1999/xlink" xml:space="preserve">
  <g>
    <path d="M22.4,23c0,0.5 -0.4,1 -1,1l-12.8,0c-0.5,0 -1,-0.4 -1,-1l0,-8.7c0,-0.5 0.4,-1 1,-1l11.2,0l0,-2.5c0,-2.4 -1.2,-3.5 -3.9,-3.5c-5.5,0 -5.5,1.7 -5.5,2.8l0,1c0,0.3 -0.2,0.6 -0.7,0.4l-1.6,-0.6c-0.3,-0.1 -0.3,-0.3 -0.3,-0.7l0,-0.2c0,-5.4 5.9,-5.4 8.1,-5.4c4.1,0 6.5,2.2 6.5,6.1l0,12.3Zm-7.4,-23c-8.3,0 -15,6.7 -15,15c0,8.3 6.7,15 15,15c8.3,0 15,-6.7 15,-15c0,-8.3 -6.7,-15 -15,-15Zm4.3,16l-8.6,0c-0.3,0 -0.5,0.2 -0.5,0.5l0,4.4c0,0.3 0.2,0.5 0.5,0.5l8.6,0c0.3,0 0.5,-0.2 0.5,-0.5l0,-4.4c0,-0.3 -0.2,-0.5 -0.5,-0.5Z" style="fill:#fbb720;fill-rule:nonzero;" />
  </g>
  <g fill="currentColor" fill-rule="nonzero">
    <path d="M46.5,15.8l-2.1,-5l-2.1,5l4.2,0Zm-3.6,-9.1l3.1,0l6.6,15.6l-3.6,0l-1.4,-3.5l-6.5,0l-1.4,3.5l-3.5,0l6.7,-15.6Z" />
    <path d="M52.6,14.5c0,-4.4 3.3,-8 8.1,-8c2.9,0 4.7,1 6.1,2.4l-2.2,2.5c-1.2,-1.1 -2.4,-1.7 -4,-1.7c-2.6,0 -4.5,2.2 -4.5,4.8c0,2.7 1.8,4.9 4.5,4.9c1.8,0 2.8,-0.7 4.1,-1.8l2.2,2.2c-1.6,1.7 -3.4,2.8 -6.3,2.8c-4.6,-0.1 -8,-3.6 -8,-8.1Z" />
    <path d="M68.3,14.5c0,-4.4 3.3,-8 8.1,-8c2.9,0 4.7,1 6.1,2.4l-2.2,2.5c-1.2,-1.1 -2.4,-1.7 -4,-1.7c-2.6,0 -4.5,2.2 -4.5,4.8c0,2.7 1.8,4.9 4.5,4.9c1.8,0 2.8,-0.7 4.1,-1.8l2.2,2.2c-1.6,1.7 -3.4,2.8 -6.3,2.8c-4.6,-0.1 -8,-3.6 -8,-8.1Z" />
    <path d="M85.3,6.8l11.6,0l0,3l-8.2,0l0,3.1l7.2,0l0,3l-7.2,0l0,3.3l8.4,0l0,3l-11.8,0l0,-15.4Z" />
    <path d="M99.5,20l2,-2.4c1.4,1.1 2.8,1.9 4.6,1.9c1.4,0 2.2,-0.6 2.2,-1.5c0,-0.9 -0.5,-1.3 -3.1,-2c-3.1,-0.8 -5.1,-1.7 -5.1,-4.7c0,-2.8 2.3,-4.7 5.4,-4.7c2.3,0 4.2,0.7 5.7,2l-1.8,2.6c-1.4,-0.9 -2.7,-1.5 -4,-1.5c-1.3,0 -2,0.6 -2,1.3c0,1 0.7,1.3 3.3,2c3.1,0.8 4.9,1.9 4.9,4.6c0,3.1 -2.3,4.8 -5.7,4.8c-2.2,0 -4.6,-0.8 -6.4,-2.4Z" />
    <path d="M113.8,20l2,-2.4c1.4,1.1 2.8,1.9 4.6,1.9c1.4,0 2.2,-0.6 2.2,-1.5c0,-0.9 -0.5,-1.3 -3.1,-2c-3.1,-0.8 -5.1,-1.7 -5.1,-4.7c0,-2.8 2.3,-4.7 5.4,-4.7c2.3,0 4.2,0.7 5.7,2l-1.8,2.6c-1.4,-0.9 -2.7,-1.5 -4,-1.5c-1.3,0 -2,0.6 -2,1.3c0,1 0.7,1.3 3.3,2c3.1,0.8 4.9,1.9 4.9,4.6c0,3.1 -2.3,4.8 -5.7,4.8c-2.2,0 -4.5,-0.8 -6.4,-2.4Z" />
    <path d="M134.4,6.8l3.2,0l7.2,9.5l0,-9.5l3.4,0l0,15.4l-2.9,0l-7.5,-9.8l0,9.8l-3.4,0l0,-15.4Z" />
    <path d="M155.9,16.1l-6,-9.3l4,0l3.7,6.2l3.8,-6.2l3.8,0l-5.9,9.3l0,6.1l-3.4,0l0,-6.1Z" />
    <path d="M165,14.5c0,-4.4 3.3,-8 8.1,-8c2.9,0 4.7,1 6.1,2.4l-2.2,2.5c-1.2,-1.1 -2.4,-1.7 -4,-1.7c-2.6,0 -4.5,2.2 -4.5,4.8c0,2.7 1.8,4.9 4.5,4.9c1.8,0 2.8,-0.7 4.1,-1.8l2.2,2.2c-1.6,1.7 -3.4,2.8 -6.3,2.8c-4.6,-0.1 -8,-3.6 -8,-8.1Z" />
    <path d="M46.5,15.8l-2.1,-5l-2.1,5l4.2,0Zm-3.6,-9.1l3.1,0l6.6,15.6l-3.6,0l-1.4,-3.5l-6.5,0l-1.4,3.5l-3.5,0l6.7,-15.6Z" />
    <path d="M52.6,14.5c0,-4.4 3.3,-8 8.1,-8c2.9,0 4.7,1 6.1,2.4l-2.2,2.5c-1.2,-1.1 -2.4,-1.7 -4,-1.7c-2.6,0 -4.5,2.2 -4.5,4.8c0,2.7 1.8,4.9 4.5,4.9c1.8,0 2.8,-0.7 4.1,-1.8l2.2,2.2c-1.6,1.7 -3.4,2.8 -6.3,2.8c-4.6,-0.1 -8,-3.6 -8,-8.1Z" />
    <path d="M68.3,14.5c0,-4.4 3.3,-8 8.1,-8c2.9,0 4.7,1 6.1,2.4l-2.2,2.5c-1.2,-1.1 -2.4,-1.7 -4,-1.7c-2.6,0 -4.5,2.2 -4.5,4.8c0,2.7 1.8,4.9 4.5,4.9c1.8,0 2.8,-0.7 4.1,-1.8l2.2,2.2c-1.6,1.7 -3.4,2.8 -6.3,2.8c-4.6,-0.1 -8,-3.6 -8,-8.1Z" />
    <path d="M85.3,6.8l11.6,0l0,3l-8.2,0l0,3.1l7.2,0l0,3l-7.2,0l0,3.3l8.4,0l0,3l-11.8,0l0,-15.4Z" />
    <path d="M99.5,20l2,-2.4c1.4,1.1 2.8,1.9 4.6,1.9c1.4,0 2.2,-0.6 2.2,-1.5c0,-0.9 -0.5,-1.3 -3.1,-2c-3.1,-0.8 -5.1,-1.7 -5.1,-4.7c0,-2.8 2.3,-4.7 5.4,-4.7c2.3,0 4.2,0.7 5.7,2l-1.8,2.6c-1.4,-0.9 -2.7,-1.5 -4,-1.5c-1.3,0 -2,0.6 -2,1.3c0,1 0.7,1.3 3.3,2c3.1,0.8 4.9,1.9 4.9,4.6c0,3.1 -2.3,4.8 -5.7,4.8c-2.2,0 -4.6,-0.8 -6.4,-2.4Z" />
    <path d="M113.8,20l2,-2.4c1.4,1.1 2.8,1.9 4.6,1.9c1.4,0 2.2,-0.6 2.2,-1.5c0,-0.9 -0.5,-1.3 -3.1,-2c-3.1,-0.8 -5.1,-1.7 -5.1,-4.7c0,-2.8 2.3,-4.7 5.4,-4.7c2.3,0 4.2,0.7 5.7,2l-1.8,2.6c-1.4,-0.9 -2.7,-1.5 -4,-1.5c-1.3,0 -2,0.6 -2,1.3c0,1 0.7,1.3 3.3,2c3.1,0.8 4.9,1.9 4.9,4.6c0,3.1 -2.3,4.8 -5.7,4.8c-2.2,0 -4.5,-0.8 -6.4,-2.4Z" />
    <path d="M134.4,6.8l3.2,0l7.2,9.5l0,-9.5l3.4,0l0,15.4l-2.9,0l-7.5,-9.8l0,9.8l-3.4,0l0,-15.4Z" />
    <path d="M155.9,16.1l-6,-9.3l4,0l3.7,6.2l3.8,-6.2l3.8,0l-5.9,9.3l0,6.1l-3.4,0l0,-6.1Z" />
    <path d="M165,14.5c0,-4.4 3.3,-8 8.1,-8c2.9,0 4.7,1 6.1,2.4l-2.2,2.5c-1.2,-1.1 -2.4,-1.7 -4,-1.7c-2.6,0 -4.5,2.2 -4.5,4.8c0,2.7 1.8,4.9 4.5,4.9c1.8,0 2.8,-0.7 4.1,-1.8l2.2,2.2c-1.6,1.7 -3.4,2.8 -6.3,2.8c-4.6,-0.1 -8,-3.6 -8,-8.1Z" />
  </g>
</svg>