<?xml version="1.0" encoding="UTF-8" standalone="no"?>
<!DOCTYPE svg PUBLIC "-//W3C//DTD SVG 1.1//EN" "http://www.w3.org/Graphics/SVG/1.1/DTD/svg11.dtd">
<svg width="100%" height="100%" viewBox="0 0 50 50" version="1.1" xmlns="http://www.w3.org/2000/svg" xmlns:xlink="http://www.w3.org/1999/xlink" xml:space="preserve" style="fill-rule:evenodd;clip-rule:evenodd;stroke-linejoin:round;stroke-miterlimit:1.41421;">
    <g>
        <circle cx="25" cy="25" r="25" style="fill:#118df0;" />
        <circle cx="25" cy="25" r="23.7" style="fill:#fff;" />
        <circle cx="25" cy="25" r="21.6" style="fill:#118df0;" />
    </g>
    <g>
        <path d="M37.5,34.8l-25,0c-0.3,0 -0.6,-0.3 -0.6,-0.6l0,-18.6c0,-0.3 0.3,-0.6 0.6,-0.6l25,0c0.3,0 0.6,0.3 0.6,0.6l0,18.6c0,0.3 -0.3,0.6 -0.6,0.6Z" style="fill:#fff;fill-rule:nonzero;" />
        <g>
            <rect id="Bottom_x5F_line_2_" x="25.7" y="26.1" width="9.1" height="1.8" style="fill:#118df0;" />
            <rect id="Top_x5F_line_2_" x="25.7" y="21.8" width="9.1" height="1.8" style="fill:#118df0;" />
        </g>
        <g>
            <path d="M14.4,30c0,-0.1 0,-0.3 0,-0.4c0,-2.4 1.9,-4.3 4.3,-4.3c2.4,0 4.3,1.9 4.3,4.3c0,0.1 0,0.3 0,0.4" style="fill:#118df0;fill-rule:nonzero;" />
            <circle id="Head_4_" cx="18.9" cy="22.7" r="2.9" style="fill:#118df0;" />
        </g>
    </g>
</svg>