<svg width="48" height="48" fill="none" xmlns="http://www.w3.org/2000/svg"><path d="M24 48c13.255 0 24-10.745 24-24S37.255 0 24 0 0 10.745 0 24s10.745 24 24 24z"/><path d="M24 44c11.046 0 20-8.954 20-20S35.046 4 24 4 4 12.954 4 24s8.954 20 20 20z" fill="currentColor"/><path d="M20.352 23.03l-5.625 2.78M27.648 23.03l5.717 2.835" stroke="#fff" stroke-width="4.5" stroke-linecap="round"/><path d="M28.17 31.37l5.195 2.779M19.83 31.37l-5.02 2.936" stroke="#fff" stroke-width="6" stroke-linecap="round"/><path d="M26.227 33.975h-4.454c-2.809 0-5.07-2.498-5.07-5.602v-2.347c0-3.104 2.261-5.602 5.07-5.602h4.454c2.809 0 5.07 2.498 5.07 5.602v2.347c0 3.104-2.33 5.602-5.07 5.602z" fill="#fff"/><path d="M24.521 32.933H23.48c-2.007 0-4.69-2.114-4.69-4.74v-1.986c0-2.627 1.614-4.74 3.62-4.74h3.182c2.006 0 3.621 2.113 3.621 4.74v1.986c0 2.626-2.733 4.74-4.69 4.74z" fill="currentColor"/><path d="M17.224 15.212a2.606 2.606 0 100-5.212 2.606 2.606 0 000 5.212zM30.776 15.212a2.606 2.606 0 100-5.212 2.606 2.606 0 000 5.212z" fill="#fff"/><path d="M24 22.509c-2.81 0-7.297-2.75-7.297-5.49v-2.073c0-2.74 2.261-4.946 5.07-4.946h4.454c2.809 0 5.07 2.206 5.07 4.946v2.073c0 2.74-4.556 5.49-7.297 5.49z" fill="#fff"/><circle cx="21" cy="14" r="1" fill="currentColor"/><circle cx="27" cy="14" r="1" fill="currentColor"/><ellipse cx="24" cy="18.5" rx="3" ry="2.5" fill="currentColor"/><circle cx="24" cy="18" r="1" fill="#fff"/></svg>