<svg viewBox="0 0 20 21" xmlns="http://www.w3.org/2000/svg"><g fill="none" fill-rule="evenodd"><g fill="#118DF0"><path d="M.5 17.3v-.7c0-4 3.3-7.3 7.3-7.3s7.3 3.3 7.3 7.3v.7" fill-rule="nonzero"/><circle cx="7.8" cy="5" r="5"/></g><g transform="translate(7 8)"><circle fill="#184E9E" cx="6.4" cy="6.4" r="6.1"/><path d="M6.4 6.8c-.3 0-.4-.2-.4-.4v-4c0-.2.2-.4.4-.4h.1c.2 0 .4.2.4.4v4c-.2.2-.3.4-.5.4z" fill="#FFF" fill-rule="nonzero"/><path d="M8.7 8.7l-.1.1c-.1.1-.3.1-.5 0L6 6.7c-.1-.1-.1-.3 0-.5l.1-.1c.1-.1.3-.1.5 0l2.1 2.1c.2.1.2.3 0 .5z" fill="#FFF" fill-rule="nonzero"/></g></g></svg>