<?xml version="1.0" encoding="UTF-8" standalone="no"?><!DOCTYPE svg PUBLIC "-//W3C//DTD SVG 1.1//EN" "http://www.w3.org/Graphics/SVG/1.1/DTD/svg11.dtd"><svg width="100%" height="100%" viewBox="0 0 50 50" version="1.1" xmlns="http://www.w3.org/2000/svg" xmlns:xlink="http://www.w3.org/1999/xlink" xml:space="preserve" style="fill-rule:evenodd;clip-rule:evenodd;stroke-miterlimit:10;"><g id="Icon:_Housing_15_"><circle cx="25" cy="25" r="25" style="fill:#118df0;"/><circle cx="25" cy="25" r="22.9" style="fill:none;stroke:#fff;stroke-width:2px;"/></g><g><path d="M28.3,40.2l-6.5,0c-4.1,0 -7.4,-3.3 -7.4,-7.4l0,-3.1c0,-4.1 3.3,-7.4 7.4,-7.4l6.5,0c4.1,0 7.4,3.3 7.4,7.4l0,3.1c0,4.1 -3.4,7.4 -7.4,7.4Z" style="fill:#fff;fill-rule:nonzero;"/><g><g><path id="left_x5F_arm_4_" d="M13.4,23c1.8,0.3 3,1.9 2.7,3.6c-0.3,1.7 -2,2.8 -3.8,2.6c-1.8,-0.2 -3,-1.9 -2.7,-3.6c0.3,-1.8 2,-2.9 3.8,-2.6Z" style="fill:#fff;fill-rule:nonzero;"/><path d="M20.1,24l-1.1,6.1l-6.7,-1l1.1,-6.1l6.7,1Z" style="fill:#fff;fill-rule:nonzero;"/></g><g><path id="left_x5F_arm_3_" d="M36.6,23c-1.8,0.3 -3,1.9 -2.7,3.6c0.3,1.7 2,2.8 3.8,2.6c1.8,-0.3 3,-1.9 2.7,-3.6c-0.3,-1.8 -2,-2.9 -3.8,-2.6Z" style="fill:#fff;fill-rule:nonzero;"/><path d="M29.9,24l1.1,6.1l6.7,-1l-1.1,-6.1l-6.7,1Z" style="fill:#fff;fill-rule:nonzero;"/></g></g><g><ellipse id="face_2_" cx="25" cy="18.1" rx="8.9" ry="8.3" style="fill:#fff;"/><ellipse cx="19" cy="11.6" rx="3.3" ry="3.1" style="fill:#fff;"/><ellipse cx="31" cy="11.6" rx="3.3" ry="3.1" style="fill:#fff;"/><ellipse id="left_eye_2_" cx="21.5" cy="16.8" rx="1.4" ry="1.3" style="fill:#118df0;"/><ellipse id="right_eye_2_" cx="28.5" cy="16.8" rx="1.4" ry="1.3" style="fill:#118df0;"/><ellipse cx="24.9" cy="20" rx="1.5" ry="0.8" style="fill:#184e9e;"/></g><g><path d="M21.7,35.4c0.9,2.7 -0.3,5.4 -2.6,6.1c-2.4,0.7 -5.1,-0.9 -6,-3.5c-0.9,-2.7 0.3,-5.4 2.6,-6.1c2.4,-0.7 5,0.9 6,3.5Z" style="fill:#184e9e;fill-rule:nonzero;"/><path d="M28.3,35.4c-0.9,2.7 0.3,5.4 2.6,6.1c2.4,0.7 5.1,-0.9 6,-3.5c0.9,-2.7 -0.3,-5.4 -2.6,-6.1c-2.4,-0.7 -5.1,0.9 -6,3.5Z" style="fill:#184e9e;fill-rule:nonzero;"/></g></g></svg>