<?xml version="1.0" encoding="UTF-8" standalone="no"?><!DOCTYPE svg PUBLIC "-//W3C//DTD SVG 1.1//EN" "http://www.w3.org/Graphics/SVG/1.1/DTD/svg11.dtd"><svg width="100%" height="100%" viewBox="0 0 50 50" version="1.1" xmlns="http://www.w3.org/2000/svg" xmlns:xlink="http://www.w3.org/1999/xlink" xml:space="preserve" style="fill-rule:evenodd;clip-rule:evenodd;stroke-miterlimit:10;"><g id="Icon:_Housing_2_"><circle cx="25" cy="25" r="25" style="fill:#118df0;"/><circle cx="25" cy="25" r="22.9" style="fill:none;stroke:#fff;stroke-width:2px;"/></g><g><g><path d="M9.4,36.5c0,-0.4 -0.1,-0.8 -0.1,-1.2c0,-6.6 5.4,-12 12,-12c6.6,0 12,5.4 12,12c0,0.4 0,0.8 -0.1,1.2" style="fill:#fff;fill-rule:nonzero;"/><circle id="Head_5_" cx="21.4" cy="16.4" r="8.2" style="fill:#fff;"/></g><g><circle cx="30.7" cy="31.8" r="10" style="fill:#184e9e;"/><path d="M30.6,32.4c-0.4,0 -0.7,-0.3 -0.7,-0.6l0,-7c0,-0.4 0.3,-0.6 0.6,-0.6l0.1,0c0.4,0 0.6,0.3 0.6,0.6l0,7c0,0.3 -0.3,0.6 -0.6,0.6Z" style="fill:#fff;fill-rule:nonzero;"/><path d="M34.5,35.5l-0.2,0.2c-0.2,0.2 -0.6,0.2 -0.8,0l-3.5,-3.5c-0.2,-0.2 -0.2,-0.6 0,-0.8l0.2,-0.2c0.2,-0.2 0.6,-0.2 0.8,0l3.5,3.5c0.2,0.2 0.2,0.6 0,0.8Z" style="fill:#fff;fill-rule:nonzero;"/></g></g></svg>