<?xml version="1.0" encoding="UTF-8" standalone="no"?><!DOCTYPE svg PUBLIC "-//W3C//DTD SVG 1.1//EN" "http://www.w3.org/Graphics/SVG/1.1/DTD/svg11.dtd"><svg width="100%" height="100%" viewBox="0 0 50 50" version="1.1" xmlns="http://www.w3.org/2000/svg" xmlns:xlink="http://www.w3.org/1999/xlink" xml:space="preserve" style="fill-rule:evenodd;clip-rule:evenodd;stroke-miterlimit:10;"><g id="Icon:_Housing_13_"><circle cx="25" cy="25" r="25" style="fill:#118df0;"/><circle cx="25" cy="25" r="22.9" style="fill:none;stroke:#fff;stroke-width:2px;"/></g><g><g><path d="M25.6,8.8l4.3,7.5l-8.7,0l4.4,-7.5Z" style="fill:#fff;fill-rule:nonzero;"/><path d="M25.3,41.8l-4.4,-7.4l8.7,0l-4.3,7.4Z" style="fill:#fff;fill-rule:nonzero;"/><path d="M9.1,25.4l7.5,-4.3l0,8.6l-7.5,-4.3Z" style="fill:#fff;fill-rule:nonzero;"/><path d="M42.2,25.4l-7.6,4.3l0,-8.6l7.6,4.3Z" style="fill:#fff;fill-rule:nonzero;"/><g><path d="M13.9,13.7l8.3,2.2l-6.1,6.1l-2.2,-8.3Z" style="fill:#fff;fill-rule:nonzero;"/><path d="M37.2,37l-8.3,-2.2l6.1,-6.1l2.2,8.3Z" style="fill:#fff;fill-rule:nonzero;"/><path d="M13.6,37.1l2.3,-8.4l6.1,6.1l-8.4,2.3Z" style="fill:#fff;fill-rule:nonzero;"/><path d="M37.3,13.7l-2.2,8.3l-6.1,-6.1l8.3,-2.2Z" style="fill:#fff;fill-rule:nonzero;"/></g></g><g><circle cx="25.3" cy="25.3" r="10.6" style="fill:#118df0;"/><circle cx="25.3" cy="25.3" r="9.5" style="fill:#fff;"/></g></g></svg>