<?xml version="1.0" encoding="utf-8"?>
<!-- Generator: Adobe Illustrator 16.0.4, SVG Export Plug-In . SVG Version: 6.00 Build 0)  -->
<!DOCTYPE svg PUBLIC "-//W3C//DTD SVG 1.1//EN" "http://www.w3.org/Graphics/SVG/1.1/DTD/svg11.dtd">
<svg version="1.1" id="Layer_1" xmlns="http://www.w3.org/2000/svg" xmlns:xlink="http://www.w3.org/1999/xlink" x="0px" y="0px"
	 width="500px" height="500px" viewBox="0 0 500 500" enable-background="new 0 0 500 500" xml:space="preserve">
<path d="M468.723,125.107c-22.463-38.484-52.937-68.955-91.422-91.418C338.807,11.229,296.783,0,251.212,0
	c-45.577,0-87.61,11.229-126.094,33.689c-38.488,22.459-68.959,52.93-91.424,91.418C11.229,163.599,0,205.631,0,251.203
	c0,45.573,11.232,87.599,33.689,126.093c22.469,38.48,52.94,68.955,91.425,91.418c38.488,22.463,80.517,33.69,126.094,33.69
	c45.573,0,87.601-11.228,126.091-33.69c38.482-22.459,68.959-52.933,91.419-91.418c22.456-38.489,33.687-80.523,33.687-126.093
	C502.404,205.627,491.174,163.593,468.723,125.107z M209.339,62.796c0-3.054,0.981-5.559,2.944-7.521
	c1.964-1.96,4.474-2.944,7.524-2.944h62.803c3.059,0,5.567,0.984,7.516,2.944c1.961,1.962,2.948,4.468,2.948,7.521v52.336
	c0,3.053-0.987,5.562-2.948,7.521c-1.948,1.961-4.457,2.941-7.516,2.941h-62.803c-3.051,0-5.561-0.98-7.524-2.941
	c-1.963-1.959-2.944-4.468-2.944-7.521V62.796z M334.938,408.205c0,3.051-0.985,5.562-2.935,7.515
	c-1.958,1.963-4.467,2.941-7.523,2.941H177.944c-3.062,0-5.564-0.979-7.524-2.941c-1.965-1.958-2.945-4.469-2.945-7.52v-52.336
	c0-3.06,0.98-5.559,2.945-7.523c1.96-1.958,4.47-2.943,7.524-2.943h31.395V240.732h-31.395c-3.062,0-5.561-0.98-7.524-2.941
	c-1.965-1.961-2.945-4.47-2.945-7.525v-52.331c0-3.054,0.98-5.56,2.945-7.524c1.963-1.962,4.473-2.942,7.524-2.942h104.667
	c3.059,0,5.567,0.98,7.516,2.942c1.961,1.964,2.948,4.47,2.948,7.524v167.467h31.394c3.058,0,5.566,0.983,7.521,2.943
	c1.953,1.961,2.941,4.47,2.941,7.522L334.938,408.205L334.938,408.205z"/>
</svg>
