<?xml version="1.0" encoding="UTF-8" standalone="no"?><!DOCTYPE svg PUBLIC "-//W3C//DTD SVG 1.1//EN" "http://www.w3.org/Graphics/SVG/1.1/DTD/svg11.dtd"><svg width="100%" height="100%" viewBox="0 0 33 33" version="1.1" xmlns="http://www.w3.org/2000/svg" xmlns:xlink="http://www.w3.org/1999/xlink" xml:space="preserve" style="fill-rule:evenodd;clip-rule:evenodd;stroke-linejoin:round;stroke-miterlimit:1.41421;"><g id="Increase"><path d="M14.4,17.7l-5.4,0l0,-3.2l5.5,0l0,-5.7l3.4,0l0,5.7l5.5,0l0,3.2l-5.5,0l0,5.7l-3.4,0l0,-5.7l-0.1,0Z" style="fill:#112e51;fill-rule:nonzero;"/><path d="M16.294,0.039c0.675,0.009 1.349,0.053 2.018,0.144c1.603,0.216 3.171,0.676 4.635,1.363c1.946,0.913 3.699,2.222 5.136,3.819c1.384,1.539 2.472,3.34 3.187,5.283c0.66,1.796 0.998,3.707 0.988,5.621c-0.005,0.888 -0.082,1.778 -0.235,2.653c-0.117,0.666 -0.28,1.325 -0.481,1.971c-0.46,1.476 -1.133,2.883 -1.995,4.167c-1,1.49 -2.252,2.809 -3.685,3.889c-1.475,1.112 -3.139,1.97 -4.9,2.526c-1.513,0.478 -3.096,0.731 -4.683,0.749c-0.712,0.008 -1.425,-0.039 -2.13,-0.142c-0.178,-0.026 -0.354,-0.055 -0.531,-0.089c-0.114,-0.022 -0.228,-0.048 -0.342,-0.07c-0.135,-0.027 -0.271,-0.049 -0.406,-0.076c-0.202,-0.04 -0.404,-0.084 -0.605,-0.132c-0.657,-0.157 -1.305,-0.356 -1.937,-0.595c-1.775,-0.672 -3.424,-1.666 -4.848,-2.92c-1.397,-1.229 -2.575,-2.704 -3.468,-4.336c-0.806,-1.471 -1.381,-3.069 -1.694,-4.717c-0.26,-1.365 -0.341,-2.763 -0.241,-4.149c0.123,-1.696 0.51,-3.374 1.154,-4.948c0.697,-1.702 1.693,-3.278 2.926,-4.643c1.387,-1.536 3.069,-2.802 4.927,-3.714c1.402,-0.688 2.903,-1.173 4.443,-1.432c0.717,-0.121 1.44,-0.188 2.167,-0.215c0.2,-0.005 0.4,-0.007 0.6,-0.007Zm-0.354,1.687c-0.53,0.009 -1.059,0.041 -1.586,0.105c-1.087,0.132 -2.158,0.389 -3.188,0.763c-1.453,0.528 -2.82,1.289 -4.034,2.246c-1.258,0.993 -2.349,2.197 -3.208,3.551c-0.683,1.077 -1.218,2.245 -1.587,3.465c-0.175,0.579 -0.311,1.169 -0.414,1.765c-0.176,1.021 -0.252,2.056 -0.211,3.092c0.066,1.646 0.418,3.277 1.034,4.805c0.692,1.72 1.716,3.304 2.999,4.642c1.297,1.355 2.857,2.453 4.573,3.212c1.838,0.812 3.846,1.232 5.855,1.227c2.003,-0.004 3.997,-0.434 5.826,-1.249c1.588,-0.707 3.046,-1.699 4.286,-2.916c1.085,-1.065 2.002,-2.3 2.702,-3.649c0.582,-1.123 1.014,-2.324 1.282,-3.56c0.31,-1.426 0.403,-2.898 0.273,-4.352c-0.142,-1.576 -0.548,-3.126 -1.192,-4.572c-0.754,-1.694 -1.833,-3.24 -3.163,-4.532c-1.263,-1.227 -2.749,-2.22 -4.369,-2.912c-0.666,-0.285 -1.354,-0.518 -2.056,-0.699c-0.238,-0.061 -0.478,-0.116 -0.719,-0.165c-0.183,-0.038 -0.184,-0.035 -0.367,-0.07c-0.084,-0.017 -0.167,-0.036 -0.252,-0.051c-0.164,-0.03 -0.329,-0.054 -0.496,-0.074c-0.402,-0.046 -0.807,-0.062 -1.213,-0.07c-0.258,-0.003 -0.517,-0.004 -0.775,-0.002Z" style="fill:#112e51;"/></g></svg>