<?xml version="1.0" encoding="utf-8"?>
<!-- Generator: Adobe Illustrator 16.0.4, SVG Export Plug-In . SVG Version: 6.00 Build 0)  -->
<!DOCTYPE svg PUBLIC "-//W3C//DTD SVG 1.1//EN" "http://www.w3.org/Graphics/SVG/1.1/DTD/svg11.dtd">
<svg version="1.1" id="Capa_1" xmlns="http://www.w3.org/2000/svg" xmlns:xlink="http://www.w3.org/1999/xlink" x="0px" y="0px"
	 width="500px" height="500px" viewBox="0 0 500 500" enable-background="new 0 0 500 500" xml:space="preserve">
<path d="M468.011,124.918c-22.429-38.426-52.854-68.851-91.279-91.279C338.295,11.211,296.338,0,250.829,0
	c-45.506,0-87.475,11.211-125.903,33.639c-38.43,22.425-68.854,52.85-91.283,91.279C11.211,163.35,0,205.319,0,250.82
	c0,45.506,11.215,87.467,33.639,125.903c22.429,38.422,52.854,68.851,91.283,91.279c38.432,22.427,80.397,33.639,125.902,33.639
	c45.506,0,87.475-11.212,125.903-33.639c38.426-22.425,68.851-52.854,91.279-91.279c22.423-38.433,33.635-80.401,33.635-125.903
	C501.642,205.315,490.43,163.344,468.011,124.918z M413.46,212.61L236.125,389.947c-4.138,4.138-9.143,6.209-15.024,6.209
	c-5.661,0-10.558-2.071-14.696-6.209L88.175,271.725c-3.915-3.924-5.876-8.813-5.876-14.695c0-6.097,1.956-11.107,5.876-15.028
	l29.72-29.391c4.142-4.136,9.035-6.205,14.699-6.205s10.563,2.069,14.7,6.205l73.811,73.811l133.25-132.924
	c4.136-4.138,9.035-6.207,14.695-6.207c5.654,0,10.562,2.069,14.695,6.207l29.72,29.395c3.925,3.917,5.88,8.923,5.88,15.019
	C419.346,203.792,417.389,208.691,413.46,212.61z"/>
</svg>
