<?xml version="1.0" encoding="UTF-8" standalone="no"?><!DOCTYPE svg PUBLIC "-//W3C//DTD SVG 1.1//EN" "http://www.w3.org/Graphics/SVG/1.1/DTD/svg11.dtd"><svg width="100%" height="100%" viewBox="0 0 20 21" version="1.1" xmlns="http://www.w3.org/2000/svg" xmlns:xlink="http://www.w3.org/1999/xlink" xml:space="preserve" style="fill-rule:evenodd;clip-rule:evenodd;stroke-linejoin:round;stroke-miterlimit:1.41421;"><g><path d="M16.5,14.6c0,2.5 -2.1,4.6 -4.6,4.6l-3.9,0c-2.5,0 -4.6,-2.1 -4.6,-4.6l0,-1.9c0,-2.5 2.1,-4.6 4.6,-4.6l3.9,0c2.5,0 4.6,2.1 4.6,4.6l0,1.9Z" style="fill:#118df0;fill-rule:nonzero;"/><g><g><path id="left_x5F_arm_14_" d="M2.8,8.9c1.1,0.2 1.9,1.2 1.7,2.2c-0.2,1 -1.2,1.8 -2.4,1.6c-1.1,-0.2 -1.9,-1.2 -1.7,-2.2c0.2,-1 1.3,-1.8 2.4,-1.6Z" style="fill:#118df0;fill-rule:nonzero;"/><path d="M6.9,9.5l-0.7,3.8l-4.1,-0.6l0.7,-3.8l4.1,0.6Z" style="fill:#118df0;fill-rule:nonzero;"/></g><g><path id="left_x5F_arm_13_" d="M17.1,8.9c-1.1,0.2 -1.9,1.2 -1.7,2.2c0.2,1 1.2,1.8 2.4,1.6c1.1,-0.2 1.9,-1.2 1.7,-2.2c-0.2,-1 -1.3,-1.8 -2.4,-1.6Z" style="fill:#118df0;fill-rule:nonzero;"/><path d="M13,9.5l0.7,3.8l4.1,-0.6l-0.7,-3.8l-4.1,0.6Z" style="fill:#118df0;fill-rule:nonzero;"/></g></g><g><ellipse id="face_7_" cx="9.9" cy="5.9" rx="5.5" ry="5.1" style="fill:#118df0;"/><ellipse cx="6.2" cy="1.9" rx="2" ry="1.9" style="fill:#118df0;"/><ellipse cx="13.6" cy="1.9" rx="2" ry="1.9" style="fill:#118df0;"/><circle id="left_eye_7_" cx="7.8" cy="5.1" r="0.8" style="fill:#fff;"/><circle id="right_eye_7_" cx="12.1" cy="5.1" r="0.8" style="fill:#fff;"/><ellipse cx="9.9" cy="7.1" rx="0.9" ry="0.5" style="fill:#184e9e;"/></g><g><path d="M7.9,16.6c0.6,1.6 -0.2,3.3 -1.6,3.8c-1.5,0.4 -3.1,-0.5 -3.7,-2.2c-0.6,-1.7 0.2,-3.3 1.6,-3.8c1.4,-0.5 3.1,0.6 3.7,2.2Z" style="fill:#184e9e;fill-rule:nonzero;"/><path d="M12,16.6c-0.6,1.6 0.2,3.3 1.6,3.8c1.5,0.4 3.1,-0.5 3.7,-2.2c0.6,-1.7 -0.2,-3.3 -1.6,-3.8c-1.4,-0.5 -3.1,0.6 -3.7,2.2Z" style="fill:#184e9e;fill-rule:nonzero;"/></g></g></svg>