<?xml version="1.0" encoding="UTF-8" standalone="no"?><!DOCTYPE svg PUBLIC "-//W3C//DTD SVG 1.1//EN" "http://www.w3.org/Graphics/SVG/1.1/DTD/svg11.dtd"><svg width="100%" height="100%" viewBox="0 0 50 50" version="1.1" xmlns="http://www.w3.org/2000/svg" xmlns:xlink="http://www.w3.org/1999/xlink" xml:space="preserve" style="fill-rule:evenodd;clip-rule:evenodd;stroke-linejoin:round;stroke-miterlimit:1.41421;"><g><g><circle cx="25" cy="24.6" r="25" style="fill:#118df0;"/><circle cx="25" cy="24.6" r="23.7" style="fill:#fff;"/><circle cx="25" cy="24.6" r="21.6" style="fill:#118df0;"/></g><g id="Grad_x5F_cap_x5F_opt_x5F_1_2_"><rect id="cord_4_" x="11" y="21.7" width="0.9" height="11.5" style="fill:#184e9e;"/><path id="tassel_4_" d="M11.5,30.2l1.7,3l-3.4,0l1.7,-3Z" style="fill:#184e9e;fill-rule:nonzero;"/><path d="M25,13.8l17,8.1l-17,8l-17,-8l17,-8.1Z" style="fill:#fff;fill-rule:nonzero;"/><path d="M16.1,26.9l8.7,4.4c0.2,0.1 0.5,0.1 0.7,0l8.7,-4.4l0,6.9c-0.3,-0.2 -0.6,-0.3 -1,-0.4c-0.2,-0.1 -0.4,-0.1 -0.5,-0.2l-0.1,0c-0.1,0 -0.2,-0.1 -0.3,-0.1c-0.4,-0.1 -0.8,-0.2 -1.2,-0.3c-0.4,-0.1 -0.8,-0.1 -1.2,-0.2c-0.3,0 -0.6,-0.1 -0.9,-0.1c-0.6,-0.1 -1.2,-0.1 -1.9,-0.2l-1,0l-0.1,0l-2.8,0c-0.1,0 -0.1,0 -0.2,0c-0.2,0 -0.5,0 -0.7,0.1c-0.2,0 -0.3,0 -0.5,0c-0.4,0 -0.9,0.1 -1.3,0.1c-0.5,0.1 -1,0.2 -1.5,0.2c-0.1,0 -0.1,0 -0.2,0c-0.4,0.1 -0.7,0.1 -1,0.2c-0.1,0 -0.2,0.1 -0.3,0.1l-0.1,0c-0.1,0 -0.2,0.1 -0.3,0.1c-0.1,0 -0.1,0 -0.2,0.1c-0.4,0.1 -0.7,0.2 -1,0.4l0,-6.7l0.2,0Z" style="fill:#fff;fill-rule:nonzero;"/><ellipse cx="24.9" cy="21.6" rx="1.4" ry="0.7" style="fill:#118df0;"/><path d="M25.2,32.1l1.3,0c0.8,0 1.6,0.1 2.3,0.2c0.2,0 0.4,0 0.6,0.1c0.1,0 0.1,0 0.2,0c0.1,0 0.3,0 0.4,0.1c0.2,0 0.4,0.1 0.6,0.1c0.3,0 0.5,0.1 0.7,0.1c0.1,0 0.2,0 0.3,0.1l0.1,0c0.8,0.2 1.4,0.4 1.9,0.6c0.3,0.2 0.5,0.3 0.5,0.4c0,0 -0.1,0.1 -0.3,0.2c-0.4,0.2 -1.1,0.5 -1.9,0.7c-1.7,0.4 -4.2,0.7 -6.9,0.7c-2.7,0 -5.1,-0.3 -6.8,-0.7c-0.9,-0.2 -1.5,-0.5 -1.9,-0.7c-0.2,-0.1 -0.3,-0.2 -0.3,-0.2c0.1,0 0.2,-0.2 0.6,-0.4c0.4,-0.2 0.9,-0.4 1.5,-0.5c0.1,0 0.2,0 0.2,-0.1c0.4,-0.1 0.9,-0.2 1.4,-0.3c0.2,0 0.4,-0.1 0.6,-0.1c0.1,0 0.3,0 0.4,-0.1c0.1,0 0.1,0 0.2,0c0.2,0 0.4,0 0.6,-0.1c0.2,0 0.5,0 0.7,-0.1c0.4,0 0.7,-0.1 1.1,-0.1c0.3,0 0.5,0 0.8,0c0.5,0.1 0.8,0.1 1.1,0.1Z" style="fill:#fff;fill-rule:nonzero;"/></g></g></svg>