<svg viewBox="0 0 50 50" xmlns="http://www.w3.org/2000/svg" fill-rule="evenodd" clip-rule="evenodd" stroke-linejoin="round" stroke-miterlimit="1.414"><circle cx="25" cy="25" r="25" fill="#118df0"/><circle cx="25" cy="25" r="23.7" fill="#fff"/><circle cx="25" cy="25" r="21.6" fill="#118df0"/><g fill="#fff" fill-rule="nonzero"><path d="M19.4 23l3.5 3.5 8-8 8 8c1-1.7 1.5-3.5 1.5-5.3 0-4.8-3.7-8.5-8.5-8.5-2.7 0-5.3 1.3-7 3.2-1.7-2-4.3-3.2-7-3.2-4.8 0-8.5 3.7-8.5 8.5 0 2.9 1.3 5.5 3.5 8.2l6.5-6.4z"/><path d="M31 21.1l-8 8-3.5-3.5-5.3 5.3c2.2 2.5 5.1 5.1 8.6 8.2l2.2 2 2.2-2c4.7-4.3 8.5-7.7 10.8-11l-7-7z"/></g></svg>