<?xml version="1.0" encoding="UTF-8" standalone="no"?><!DOCTYPE svg PUBLIC "-//W3C//DTD SVG 1.1//EN" "http://www.w3.org/Graphics/SVG/1.1/DTD/svg11.dtd"><svg width="100%" height="100%" viewBox="0 0 25 25" version="1.1" xmlns="http://www.w3.org/2000/svg" xmlns:xlink="http://www.w3.org/1999/xlink" xml:space="preserve" style="fill-rule:evenodd;clip-rule:evenodd;stroke-linejoin:round;stroke-miterlimit:1.41421;"><g><path d="M12.5,23.988c-0.7,0 -1.3,-0.1 -2,-0.2c-6.2,-1.1 -10.4,-7.1 -9.3,-13.3c1.1,-6.2 7.1,-10.4 13.3,-9.3c6.2,1.1 10.4,7.1 9.3,13.3c-1,5.6 -5.8,9.5 -11.3,9.5Zm0,-22c-5,0 -9.4,3.6 -10.3,8.7c-1,5.7 2.8,11.1 8.5,12.1c5.7,1 11.1,-2.8 12.1,-8.5c1,-5.7 -2.8,-11.2 -8.5,-12.2c-0.6,0 -1.2,-0.1 -1.8,-0.1Z" style="fill:#fbb720;fill-rule:nonzero;"/><path d="M12.631,0.013c0.526,0.008 1.049,0.043 1.57,0.115c1.246,0.172 2.465,0.534 3.602,1.072c1.508,0.713 2.864,1.733 3.974,2.977c1.1,1.232 1.955,2.68 2.501,4.238c0.472,1.348 0.71,2.776 0.697,4.204c-0.024,2.495 -0.815,4.973 -2.238,7.022c-0.867,1.248 -1.963,2.333 -3.218,3.188c-0.996,0.678 -2.091,1.21 -3.24,1.575c-1.22,0.387 -2.501,0.586 -3.781,0.584c-0.546,-0.001 -1.088,-0.06 -1.628,-0.137c-0.409,-0.058 -0.41,-0.052 -0.702,-0.108c-0.824,-0.157 -1.632,-0.398 -2.407,-0.718c-1.407,-0.581 -2.702,-1.425 -3.806,-2.473c-1.125,-1.067 -2.051,-2.341 -2.717,-3.74c-0.631,-1.324 -1.028,-2.758 -1.162,-4.219c-0.105,-1.146 -0.047,-2.307 0.168,-3.438c0.206,-1.076 0.554,-2.125 1.035,-3.109c0.577,-1.182 1.344,-2.269 2.26,-3.212c1.046,-1.076 2.283,-1.964 3.637,-2.609c1.093,-0.52 2.261,-0.882 3.457,-1.068c0.559,-0.086 1.122,-0.13 1.687,-0.143c0.156,-0.002 0.156,-0.002 0.311,-0.001Zm-0.237,2.975c-0.315,0.005 -0.629,0.023 -0.942,0.058c-0.716,0.081 -1.423,0.245 -2.102,0.487c-1.729,0.617 -3.262,1.744 -4.371,3.207c-0.609,0.803 -1.089,1.702 -1.416,2.656c-0.321,0.934 -0.498,1.918 -0.52,2.906c-0.024,1.046 0.129,2.094 0.45,3.089c0.36,1.118 0.931,2.166 1.674,3.076c0.771,0.946 1.725,1.739 2.797,2.323c1.156,0.629 2.442,1.011 3.753,1.123c1.28,0.109 2.578,-0.045 3.795,-0.454c1.15,-0.386 2.221,-0.995 3.142,-1.784c0.869,-0.744 1.601,-1.646 2.148,-2.652c0.454,-0.834 0.78,-1.736 0.968,-2.667c0.212,-1.057 0.247,-2.147 0.098,-3.215c-0.155,-1.106 -0.506,-2.182 -1.03,-3.168c-0.773,-1.453 -1.919,-2.701 -3.308,-3.584c-0.693,-0.44 -1.444,-0.788 -2.228,-1.032c-0.346,-0.108 -0.698,-0.193 -1.054,-0.263l-0.043,-0.007c-0.098,-0.001 -0.195,-0.006 -0.293,-0.01c-0.375,-0.021 -0.749,-0.06 -1.125,-0.081c-0.131,-0.006 -0.262,-0.009 -0.393,-0.008Z" style="fill:#fbb720;fill-rule:nonzero;"/><path d="M19.7,12.388c-0.4,-0.1 -0.8,-0.2 -1.2,-0.2c0,-0.7 -0.2,-1.3 -0.4,-1.9c0.3,-0.2 0.6,-0.4 1,-0.7c0,0 0.1,0 0.1,-0.1c0.1,-0.1 0.2,-0.2 0.1,-0.4c-0.4,-0.6 -0.8,-1.2 -1.2,-1.7c-0.1,-0.1 -0.3,-0.2 -0.4,-0.1c-0.3,0.2 -0.7,0.5 -1,0.7c-0.5,-0.4 -1,-0.8 -1.6,-1c0.1,-0.4 0.1,-0.8 0.2,-1.2l0,-0.1c0,-0.1 -0.1,-0.3 -0.2,-0.3c-0.7,-0.1 -1.4,-0.2 -2.1,-0.4c-0.2,0 -0.4,0.1 -0.4,0.2c-0.1,0.4 -0.2,0.8 -0.2,1.2c-0.7,0 -1.3,0.2 -1.9,0.4c-0.5,-0.1 -0.7,-0.5 -1,-0.8c0,0 0,-0.1 -0.1,-0.1c0,-0.1 -0.2,-0.1 -0.3,0c-0.6,0.4 -1.2,0.8 -1.7,1.2c-0.2,0.1 -0.3,0.3 -0.1,0.4c0.2,0.3 0.5,0.7 0.7,1c-0.4,0.5 -0.8,1 -1,1.6c-0.4,0 -0.8,-0.1 -1.2,-0.1c-0.2,0 -0.4,0.1 -0.4,0.2c-0.1,0.7 -0.2,1.4 -0.4,2.1c0,0.2 0.1,0.4 0.2,0.4c0.4,0.1 0.8,0.2 1.2,0.2c0,0.7 0.2,1.3 0.4,1.9c-0.3,0.2 -0.6,0.5 -1,0.7c-0.1,0.1 -0.2,0.3 -0.1,0.4c0.5,0.5 0.9,1.1 1.3,1.7c0.1,0.1 0.3,0.2 0.4,0.1c0.3,-0.2 0.7,-0.5 1,-0.7c0.5,0.4 1.1,0.8 1.7,1.1c-0.1,0.4 -0.1,0.8 -0.2,1.2c0,0.2 0.1,0.4 0.2,0.4c0.7,0.1 1.4,0.2 2.1,0.4c0.2,0 0.4,-0.1 0.4,-0.2c0.1,-0.4 0.2,-0.8 0.2,-1.2c0.7,0 1.3,-0.2 1.9,-0.4c0.2,0.3 0.5,0.6 0.7,1c0.1,0.1 0.3,0.2 0.4,0.1c0.6,-0.4 1.2,-0.8 1.7,-1.2c0.1,-0.1 0.2,-0.3 0.1,-0.4c-0.2,-0.3 -0.5,-0.7 -0.7,-1c0.4,-0.5 0.8,-1 1.1,-1.6c0.4,0.1 0.8,0.1 1.2,0.2c0.2,0 0.4,-0.1 0.4,-0.2c0.1,-0.7 0.2,-1.4 0.4,-2.1l0,-0.1c0,-0.4 -0.1,-0.6 -0.3,-0.6Zm-7.8,3.3c-1.8,-0.3 -3,-2 -2.7,-3.8c0.3,-1.8 2,-3 3.9,-2.7c1.8,0.3 3,2 2.7,3.8c-0.3,1.9 -2.1,3.1 -3.9,2.7Z" style="fill:#112e51;fill-rule:nonzero;"/></g></svg>