<svg viewBox="0 0 50 50" xmlns="http://www.w3.org/2000/svg" fill-rule="evenodd" clip-rule="evenodd" stroke-linejoin="round" stroke-miterlimit="1.414"><circle cx="25" cy="24.6" r="25" fill="#118df0"/><circle cx="25" cy="24.6" r="23.7" fill="#fff"/><circle cx="25" cy="24.6" r="21.6" fill="#118df0"/><g><path fill="#184e9e" d="M11 21.7h.9v11.5H11z"/><path d="M11.5 30.2l1.7 3H9.8l1.7-3z" fill="#184e9e" fill-rule="nonzero"/><path d="M25 13.8l17 8.1-17 8-17-8 17-8.1z" fill="#fff" fill-rule="nonzero"/><path d="M16.1 26.9l8.7 4.4c.2.1.5.1.7 0l8.7-4.4v6.9c-.3-.2-.6-.3-1-.4-.2-.1-.4-.1-.5-.2h-.1c-.1 0-.2-.1-.3-.1l-1.2-.3c-.4-.1-.8-.1-1.2-.2-.3 0-.6-.1-.9-.1-.6-.1-1.2-.1-1.9-.2H23c-.2 0-.5 0-.7.1h-.5c-.4 0-.9.1-1.3.1-.5.1-1 .2-1.5.2h-.2c-.4.1-.7.1-1 .2-.1 0-.2.1-.3.1h-.1c-.1 0-.2.1-.3.1-.1 0-.1 0-.2.1-.4.1-.7.2-1 .4v-6.7h.2z" fill="#fff" fill-rule="nonzero"/><ellipse cx="24.9" cy="21.6" rx="1.4" ry=".7" fill="#118df0"/><path d="M25.2 32.1h1.3c.8 0 1.6.1 2.3.2.2 0 .4 0 .6.1h.2c.1 0 .3 0 .4.1.2 0 .4.1.6.1.3 0 .5.1.7.1.1 0 .2 0 .3.1h.1c.8.2 1.4.4 1.9.6.3.2.5.3.5.4 0 0-.1.1-.3.2-.4.2-1.1.5-1.9.7-1.7.4-4.2.7-6.9.7s-5.1-.3-6.8-.7c-.9-.2-1.5-.5-1.9-.7-.2-.1-.3-.2-.3-.2.1 0 .2-.2.6-.4.4-.2.9-.4 1.5-.5.1 0 .2 0 .2-.1.4-.1.9-.2 1.4-.3.2 0 .4-.1.6-.1.1 0 .3 0 .4-.1h.2c.2 0 .4 0 .6-.1.2 0 .5 0 .7-.1.4 0 .7-.1 1.1-.1h.8c.5.1.8.1 1.1.1z" fill="#fff" fill-rule="nonzero"/></g></svg>