<?xml version="1.0" encoding="UTF-8" standalone="no"?><!DOCTYPE svg PUBLIC "-//W3C//DTD SVG 1.1//EN" "http://www.w3.org/Graphics/SVG/1.1/DTD/svg11.dtd"><svg width="100%" height="100%" viewBox="0 0 20 21" version="1.1" xmlns="http://www.w3.org/2000/svg" xmlns:xlink="http://www.w3.org/1999/xlink" xml:space="preserve" style="fill-rule:evenodd;clip-rule:evenodd;stroke-linejoin:round;stroke-miterlimit:1.41421;"><g><g><path d="M0.5,17.3c0,-0.2 0,-0.5 0,-0.7c0,-4 3.3,-7.3 7.3,-7.3c4,0 7.3,3.3 7.3,7.3c0,0.2 0,0.5 0,0.7" style="fill:#118df0;fill-rule:nonzero;"/><circle id="Head_5_" cx="7.8" cy="5" r="5" style="fill:#118df0;"/></g><g><circle cx="13.4" cy="14.4" r="6.1" style="fill:#184e9e;"/><path d="M13.4,14.8c-0.3,0 -0.4,-0.2 -0.4,-0.4l0,-4c0,-0.2 0.2,-0.4 0.4,-0.4l0.1,0c0.2,0 0.4,0.2 0.4,0.4l0,4c-0.2,0.2 -0.3,0.4 -0.5,0.4Z" style="fill:#fff;fill-rule:nonzero;"/><path d="M15.7,16.7l-0.1,0.1c-0.1,0.1 -0.3,0.1 -0.5,0l-2.1,-2.1c-0.1,-0.1 -0.1,-0.3 0,-0.5l0.1,-0.1c0.1,-0.1 0.3,-0.1 0.5,0l2.1,2.1c0.2,0.1 0.2,0.3 0,0.5Z" style="fill:#fff;fill-rule:nonzero;"/></g></g></svg>