<svg viewBox="0 0 3000 2750" xmlns="http://www.w3.org/2000/svg" fill-rule="evenodd" clip-rule="evenodd" stroke-linejoin="round" stroke-miterlimit="1.414"><g fill="currentColor" fill-rule="nonzero"><path d="M912.213 1.962c-9.904 2.571-18.666 6.762-27.238 13.143-5.238 3.809-63.714 64.095-206.285 212.857-173.714 181.333-199.905 208.285-207.428 213.333-14.953 10.286-25.334 25.238-30.667 44.19l-2.191 8-.381 102.667-.285 102.666-117.143.381c-116 .381-117.428.381-129.714 2.572-31.429 5.619-57.429 15.524-82.476 31.428-56.191 35.619-93.524 92.476-104.667 159.715-1.047 6.38-2.381 19.904-2.952 29.999-.667 12.286-.953 170.953-.667 472 .286 427.142.381 454.285 2.095 465.523 7.81 53.143 28.857 97.429 63.619 133.81 33.048 34.571 73.905 56.476 123.048 65.904 11.333 2.096 12.857 2.191 130.19 2.572l118.762.286.286 309.237.285 309.238 2.191 8.476c6.476 24.667 18.762 42.762 37.619 55.905l5.905 4.095h2038.28l7.429-4.952c15.238-10 30.381-28 36.857-43.619 4.095-10 6-17.714 7.143-28.476.571-6.095.952-116.667.952-309.619v-300.19l112.286-.381c110.666-.381 112.476-.476 123.809-2.572 49.048-9.428 89.905-31.333 122.952-65.904 34.762-36.381 55.81-80.667 63.619-133.81 1.715-11.238 1.81-38.381 2.096-465.523.285-301.047 0-459.714-.667-472-.571-10.095-1.905-23.619-2.952-29.999-11.143-67.239-48.476-124.096-104.667-159.715-25.047-15.904-51.047-25.809-82.381-31.428-12.381-2.191-13.714-2.191-129.809-2.572l-117.238-.381-.286-309.142-.286-309.238-2.095-8.476c-9.143-36.667-32.381-61.714-64.762-70-7.904-2-9.047-2-791.523-1.905-759.808 0-783.713.096-790.666 1.905zm1450.67 507.523v324.476H611.837l.095-140.762V552.438L963.36 185.009h699.714l699.809-.095v324.571zm-1924.76 402.19c.381 24.858.666 27.524 3.047 36.762 9.619 36.191 34.286 59.81 72 68.762l9.143 2.191 974.571.285c662.951.286 977.808 0 984.856-.666 5.809-.572 13.809-2 17.904-3.143 31.619-8.857 59.048-34.095 69.334-63.905 4.095-11.619 5.047-19.048 5.619-43.238l.476-23.809 103.143.285 103.142.286 6 2.857c7.429 3.714 18.191 14.191 22.096 21.619l2.857 5.524v910.951l-2.191 4.762c-4.666 10.191-11.809 16.286-23.333 19.905-5.905 1.81-10.952 1.905-115.428 1.81h-109.334l-.476-26.667c-.381-22.857-.762-28-2.571-35.333-4.762-19.048-13.715-34.667-26.953-47.048-12.381-11.524-26.476-18.952-44.285-23.143l-9.429-2.286H1489.36c-956.952 0-989.237.096-995.999 1.905-9.524 2.476-23.619 9.334-31.715 15.524-16.571 12.571-28.761 33.048-33.809 56.762-1.619 7.809-2.19 15.048-2.667 35.143l-.666 25.238-103.048-.286-103.143-.286-6.476-3.428c-8.286-4.476-17.905-14.095-21.619-21.619l-2.857-5.905-.286-446.571c-.285-444.38-.285-446.476 1.715-454.38 3.619-14.286 13.619-27.048 25.428-32.667l6.095-2.857H328.98l108.667-.095.476 26.761zm1936.76 1334.76v318.476H624.884v-636.952h1750v318.476z"/><path d="M819.928 2015.01c-15.048 3.904-28.095 11.904-39.429 24-13.143 14-24.285 35.619-28.095 54.381-9.809 47.428 23.048 103.333 67.238 114.666 7.333 1.905 16.952 1.905 536.571 1.905 528.571 0 529.142 0 537.619-2 31.904-7.714 57.238-34.762 65.047-69.619 3.81-17.524 3.619-39.143-.667-56.191-7.238-28.857-27.428-53.047-52.761-63.238-16.191-6.476 28.476-6-550.476-5.904-518.381.095-527.809.095-535.047 2zM807.737 2284.91c-29.619 7.905-54.381 34-65.238 68.571-11.143 35.524-.762 77.905 24.857 101.334 16.096 14.762 35.81 22.952 59.81 25.143 14.667 1.333 1366 1.333 1379.9 0 38.667-3.715 72.857-29.715 86.381-65.81 4.095-10.762 5.524-19.619 5.429-33.714-.096-47.429-27.048-83.048-71.524-94.571l-9.048-2.381-701.999-.191c-671.999-.19-702.285-.095-708.571 1.619z"/></g></svg>