<?xml version="1.0" encoding="utf-8"?>
<!-- Generator: Adobe Illustrator 16.0.4, SVG Export Plug-In . SVG Version: 6.00 Build 0)  -->
<!DOCTYPE svg PUBLIC "-//W3C//DTD SVG 1.1//EN" "http://www.w3.org/Graphics/SVG/1.1/DTD/svg11.dtd">
<svg version="1.1" id="Capa_1" xmlns="http://www.w3.org/2000/svg" xmlns:xlink="http://www.w3.org/1999/xlink" x="0px" y="0px"
	 width="500px" height="500px" viewBox="0 0 500 500" enable-background="new 0 0 500 500" xml:space="preserve">
<path d="M468.573,124.42c-22.34-38.272-52.643-68.576-90.916-90.916C339.375,11.167,297.585,0,252.257,0
	c-45.324,0-87.122,11.167-125.401,33.504C88.579,55.84,58.276,86.144,35.937,124.42C13.595,162.699,2.428,204.5,2.428,249.821
	c0,45.321,11.171,87.118,33.504,125.401c22.339,38.265,52.643,68.576,90.919,90.915c38.279,22.338,80.077,33.505,125.401,33.505
	s87.126-11.167,125.4-33.505c38.273-22.335,68.576-52.643,90.916-90.915c22.334-38.283,33.501-80.084,33.501-125.401
	C502.07,204.5,490.903,162.693,468.573,124.42z M293.896,405.632c0,3.039-0.982,5.582-2.932,7.643
	c-1.948,2.061-4.336,3.086-7.159,3.086h-62.457c-2.817,0-5.312-1.082-7.48-3.25c-2.17-2.168-3.252-4.663-3.252-7.479V343.83
	c0-2.818,1.082-5.314,3.252-7.482c2.167-2.167,4.663-3.249,7.48-3.249h62.457c2.823,0,5.215,1.031,7.159,3.086
	c1.949,2.068,2.932,4.608,2.932,7.646V405.632z M293.241,293.735c-0.22,2.168-1.354,4.069-3.409,5.692
	c-2.064,1.626-4.609,2.438-7.643,2.438h-60.181c-3.038,0-5.64-0.812-7.808-2.438c-2.17-1.623-3.255-3.524-3.255-5.692
	l-5.529-202.007c0-2.606,1.082-4.554,3.25-5.856c2.172-1.733,4.774-2.603,7.81-2.603h71.57c3.039,0,5.638,0.866,7.806,2.603
	c2.168,1.303,3.246,3.254,3.246,5.856L293.241,293.735z"/>
</svg>
