<svg viewBox="0 0 50 50" xmlns="http://www.w3.org/2000/svg" fill-rule="evenodd" clip-rule="evenodd" stroke-miterlimit="10"><circle cx="25" cy="25" r="25" fill="#118df0"/><circle cx="25" cy="25" r="22.9" fill="none" stroke="#fff" stroke-width="2"/><g><path d="M28.3 40.2h-6.5c-4.1 0-7.4-3.3-7.4-7.4v-3.1c0-4.1 3.3-7.4 7.4-7.4h6.5c4.1 0 7.4 3.3 7.4 7.4v3.1c0 4.1-3.4 7.4-7.4 7.4z" fill="#fff" fill-rule="nonzero"/><g fill="#fff" fill-rule="nonzero"><path d="M13.4 23c1.8.3 3 1.9 2.7 3.6-.3 1.7-2 2.8-3.8 2.6-1.8-.2-3-1.9-2.7-3.6.3-1.8 2-2.9 3.8-2.6z"/><path d="M20.1 24L19 30.1l-6.7-1 1.1-6.1 6.7 1z"/><g><path d="M36.6 23c-1.8.3-3 1.9-2.7 3.6.3 1.7 2 2.8 3.8 2.6 1.8-.3 3-1.9 2.7-3.6-.3-1.8-2-2.9-3.8-2.6z"/><path d="M29.9 24l1.1 6.1 6.7-1-1.1-6.1-6.7 1z"/></g></g><ellipse cx="25" cy="18.1" rx="8.9" ry="8.3" fill="#fff"/><ellipse cx="19" cy="11.6" rx="3.3" ry="3.1" fill="#fff"/><ellipse cx="31" cy="11.6" rx="3.3" ry="3.1" fill="#fff"/><ellipse cx="21.5" cy="16.8" rx="1.4" ry="1.3" fill="#118df0"/><ellipse cx="28.5" cy="16.8" rx="1.4" ry="1.3" fill="#118df0"/><ellipse cx="24.9" cy="20" rx="1.5" ry=".8" fill="#184e9e"/><g fill="#184e9e" fill-rule="nonzero"><path d="M21.7 35.4c.9 2.7-.3 5.4-2.6 6.1-2.4.7-5.1-.9-6-3.5-.9-2.7.3-5.4 2.6-6.1 2.4-.7 5 .9 6 3.5zM28.3 35.4c-.9 2.7.3 5.4 2.6 6.1 2.4.7 5.1-.9 6-3.5.9-2.7-.3-5.4-2.6-6.1-2.4-.7-5.1.9-6 3.5z"/></g></g></svg>