<?xml version="1.0" encoding="UTF-8" standalone="no"?><!DOCTYPE svg PUBLIC "-//W3C//DTD SVG 1.1//EN" "http://www.w3.org/Graphics/SVG/1.1/DTD/svg11.dtd"><svg width="100%" height="100%" viewBox="0 0 20 21" version="1.1" xmlns="http://www.w3.org/2000/svg" xmlns:xlink="http://www.w3.org/1999/xlink" xml:space="preserve" style="fill-rule:evenodd;clip-rule:evenodd;stroke-linejoin:round;stroke-miterlimit:1.41421;"><g><g><path d="M9.7,0.3l2.6,4.5l-5.2,0l2.6,-4.5Z" style="fill:#184e9e;fill-rule:nonzero;"/><path d="M9.7,20.2l-2.6,-4.4l5.2,0l-2.6,4.4Z" style="fill:#184e9e;fill-rule:nonzero;"/><path d="M0,10.6l4.5,-2.6l0,5.2l-4.5,-2.6Z" style="fill:#184e9e;fill-rule:nonzero;"/><path d="M20,10.6l-4.5,2.6l0,-5.2l4.5,2.6Z" style="fill:#184e9e;fill-rule:nonzero;"/><g><path d="M2.7,3.6l5,1.3l-3.7,3.7l-1.3,-5Z" style="fill:#184e9e;fill-rule:nonzero;"/><path d="M16.7,17.6l-5.1,-1.3l3.7,-3.7l1.4,5Z" style="fill:#184e9e;fill-rule:nonzero;"/><path d="M2.7,17.6l1.4,-5l3.6,3.7l-5,1.3Z" style="fill:#184e9e;fill-rule:nonzero;"/><path d="M16.7,3.6l-1.3,5l-3.7,-3.6l5,-1.4Z" style="fill:#184e9e;fill-rule:nonzero;"/></g></g><g><ellipse cx="9.7" cy="10.6" rx="6.4" ry="6.3" style="fill:#fff;"/><circle cx="9.7" cy="10.6" r="5.7" style="fill:#118df0;"/></g></g></svg>