<svg viewBox="0 0 50 50" xmlns="http://www.w3.org/2000/svg" fill-rule="evenodd" clip-rule="evenodd" stroke-miterlimit="10"><circle cx="25" cy="25" r="25" fill="#118df0"/><circle cx="25" cy="25" r="22.9" fill="none" stroke="#fff" stroke-width="2"/><g><g fill="#fff"><path d="M9.4 36.5c0-.4-.1-.8-.1-1.2 0-6.6 5.4-12 12-12s12 5.4 12 12c0 .4 0 .8-.1 1.2" fill-rule="nonzero"/><circle cx="21.4" cy="16.4" r="8.2"/></g><circle cx="30.7" cy="31.8" r="10" fill="#184e9e"/><path d="M30.6 32.4c-.4 0-.7-.3-.7-.6v-7c0-.4.3-.6.6-.6h.1c.4 0 .6.3.6.6v7c0 .3-.3.6-.6.6z" fill="#fff" fill-rule="nonzero"/><path d="M34.5 35.5l-.2.2c-.2.2-.6.2-.8 0L30 32.2c-.2-.2-.2-.6 0-.8l.2-.2c.2-.2.6-.2.8 0l3.5 3.5c.2.2.2.6 0 .8z" fill="#fff" fill-rule="nonzero"/></g></svg>