<?xml version="1.0" encoding="UTF-8" standalone="no"?><!DOCTYPE svg PUBLIC "-//W3C//DTD SVG 1.1//EN" "http://www.w3.org/Graphics/SVG/1.1/DTD/svg11.dtd"><svg width="100%" height="100%" viewBox="0 0 3000 2750" version="1.1" xmlns="http://www.w3.org/2000/svg" xmlns:xlink="http://www.w3.org/1999/xlink" xml:space="preserve" style="fill-rule:evenodd;clip-rule:evenodd;stroke-linejoin:round;stroke-miterlimit:1.41421;"><g><path d="M912.213,1.962c-9.904,2.571 -18.666,6.762 -27.238,13.143c-5.238,3.809 -63.714,64.095 -206.285,212.857c-173.714,181.333 -199.905,208.285 -207.428,213.333c-14.953,10.286 -25.334,25.238 -30.667,44.19l-2.191,8l-0.381,102.667l-0.285,102.666l-117.143,0.381c-116,0.381 -117.428,0.381 -129.714,2.572c-31.429,5.619 -57.429,15.524 -82.476,31.428c-56.191,35.619 -93.524,92.476 -104.667,159.715c-1.047,6.38 -2.381,19.904 -2.952,29.999c-0.667,12.286 -0.953,170.953 -0.667,472c0.286,427.142 0.381,454.285 2.095,465.523c7.81,53.143 28.857,97.429 63.619,133.81c33.048,34.571 73.905,56.476 123.048,65.904c11.333,2.096 12.857,2.191 130.19,2.572l118.762,0.286l0.286,309.237l0.285,309.238l2.191,8.476c6.476,24.667 18.762,42.762 37.619,55.905l5.905,4.095l2038.28,0l7.429,-4.952c15.238,-10 30.381,-28 36.857,-43.619c4.095,-10 6,-17.714 7.143,-28.476c0.571,-6.095 0.952,-116.667 0.952,-309.619l0,-300.19l112.286,-0.381c110.666,-0.381 112.476,-0.476 123.809,-2.572c49.048,-9.428 89.905,-31.333 122.952,-65.904c34.762,-36.381 55.81,-80.667 63.619,-133.81c1.715,-11.238 1.81,-38.381 2.096,-465.523c0.285,-301.047 0,-459.714 -0.667,-472c-0.571,-10.095 -1.905,-23.619 -2.952,-29.999c-11.143,-67.239 -48.476,-124.096 -104.667,-159.715c-25.047,-15.904 -51.047,-25.809 -82.381,-31.428c-12.381,-2.191 -13.714,-2.191 -129.809,-2.572l-117.238,-0.381l-0.286,-309.142l-0.286,-309.238l-2.095,-8.476c-9.143,-36.667 -32.381,-61.714 -64.762,-70c-7.904,-2 -9.047,-2 -791.523,-1.905c-759.808,0 -783.713,0.096 -790.666,1.905Zm1450.67,507.523l0,324.476l-875.523,0l-875.523,0l0.095,-140.762l0,-140.761l351.428,-367.429l699.714,0l699.809,-0.095l0,324.571Zm-1924.76,402.19c0.381,24.858 0.666,27.524 3.047,36.762c9.619,36.191 34.286,59.81 72,68.762l9.143,2.191l974.571,0.285c662.951,0.286 977.808,0 984.856,-0.666c5.809,-0.572 13.809,-2 17.904,-3.143c31.619,-8.857 59.048,-34.095 69.334,-63.905c4.095,-11.619 5.047,-19.048 5.619,-43.238l0.476,-23.809l103.143,0.285l103.142,0.286l6,2.857c7.429,3.714 18.191,14.191 22.096,21.619l2.857,5.524l0,455.428l0,455.523l-2.191,4.762c-4.666,10.191 -11.809,16.286 -23.333,19.905c-5.905,1.81 -10.952,1.905 -115.428,1.81l-109.334,0l-0.476,-26.667c-0.381,-22.857 -0.762,-28 -2.571,-35.333c-4.762,-19.048 -13.715,-34.667 -26.953,-47.048c-12.381,-11.524 -26.476,-18.952 -44.285,-23.143l-9.429,-2.286l-988.951,0c-956.952,0 -989.237,0.096 -995.999,1.905c-9.524,2.476 -23.619,9.334 -31.715,15.524c-16.571,12.571 -28.761,33.048 -33.809,56.762c-1.619,7.809 -2.19,15.048 -2.667,35.143l-0.666,25.238l-103.048,-0.286l-103.143,-0.286l-6.476,-3.428c-8.286,-4.476 -17.905,-14.095 -21.619,-21.619l-2.857,-5.905l-0.286,-446.571c-0.285,-444.38 -0.285,-446.476 1.715,-454.38c3.619,-14.286 13.619,-27.048 25.428,-32.667l6.095,-2.857l108.667,0l108.667,-0.095l0.476,26.761Zm1936.76,1334.76l0,318.476l-875.047,0l-874.952,0l0,-636.952l1750,0l0,318.476Z" style="fill:#505c66;fill-rule:nonzero;"/><path d="M819.928,2015.01c-15.048,3.904 -28.095,11.904 -39.429,24c-13.143,14 -24.285,35.619 -28.095,54.381c-9.809,47.428 23.048,103.333 67.238,114.666c7.333,1.905 16.952,1.905 536.571,1.905c528.571,0 529.142,0 537.619,-2c31.904,-7.714 57.238,-34.762 65.047,-69.619c3.81,-17.524 3.619,-39.143 -0.667,-56.191c-7.238,-28.857 -27.428,-53.047 -52.761,-63.238c-16.191,-6.476 28.476,-6 -550.476,-5.904c-518.381,0.095 -527.809,0.095 -535.047,2Z" style="fill:#505c66;fill-rule:nonzero;"/><path d="M807.737,2284.91c-29.619,7.905 -54.381,34 -65.238,68.571c-11.143,35.524 -0.762,77.905 24.857,101.334c16.096,14.762 35.81,22.952 59.81,25.143c14.667,1.333 1366,1.333 1379.9,0c38.667,-3.715 72.857,-29.715 86.381,-65.81c4.095,-10.762 5.524,-19.619 5.429,-33.714c-0.096,-47.429 -27.048,-83.048 -71.524,-94.571l-9.048,-2.381l-701.999,-0.191c-671.999,-0.19 -702.285,-0.095 -708.571,1.619Z" style="fill:#505c66;fill-rule:nonzero;"/></g></svg>