<?xml version="1.0" encoding="UTF-8" standalone="no"?><!DOCTYPE svg PUBLIC "-//W3C//DTD SVG 1.1//EN" "http://www.w3.org/Graphics/SVG/1.1/DTD/svg11.dtd"><svg width="100%" height="100%" viewBox="0 0 50 50" version="1.1" xmlns="http://www.w3.org/2000/svg" xmlns:xlink="http://www.w3.org/1999/xlink" xml:space="preserve" style="fill-rule:evenodd;clip-rule:evenodd;stroke-linejoin:round;stroke-miterlimit:1.41421;"><g><g><circle cx="25" cy="25" r="25" style="fill:#118df0;"/><circle cx="25" cy="25" r="23.7" style="fill:#fff;"/><circle cx="25" cy="25" r="21.6" style="fill:#118df0;"/></g><g><path d="M19.4,23l3.5,3.5l8,-8l8,8c1,-1.7 1.5,-3.5 1.5,-5.3c0,-4.8 -3.7,-8.5 -8.5,-8.5c-2.7,0 -5.3,1.3 -7,3.2c-1.7,-2 -4.3,-3.2 -7,-3.2c-4.8,0 -8.5,3.7 -8.5,8.5c0,2.9 1.3,5.5 3.5,8.2l6.5,-6.4Z" style="fill:#fff;fill-rule:nonzero;"/><path d="M31,21.1l-8,8l-3.5,-3.5l-5.3,5.3c2.2,2.5 5.1,5.1 8.6,8.2l2.2,2l2.2,-2c4.7,-4.3 8.5,-7.7 10.8,-11l-7,-7Z" style="fill:#fff;fill-rule:nonzero;"/></g></g></svg>