<?xml version="1.0" encoding="UTF-8" standalone="no"?>
<!-- Created with Inkscape (http://www.inkscape.org/) -->

<svg
   xmlns:dc="http://purl.org/dc/elements/1.1/"
   xmlns:cc="http://creativecommons.org/ns#"
   xmlns:rdf="http://www.w3.org/1999/02/22-rdf-syntax-ns#"
   xmlns:svg="http://www.w3.org/2000/svg"
   xmlns="http://www.w3.org/2000/svg"
   xmlns:sodipodi="http://sodipodi.sourceforge.net/DTD/sodipodi-0.dtd"
   xmlns:inkscape="http://www.inkscape.org/namespaces/inkscape"
   width="52.027439mm"
   height="53.148357mm"
   viewBox="0 0 52.027439 53.148357"
   version="1.1"
   id="svg4043"
   inkscape:version="0.92.3 (2405546, 2018-03-11)"
   sodipodi:docname="SHORTPIXEL Robot Winky.svg">
  <defs
     id="defs4037" />
  <sodipodi:namedview
     id="base"
     pagecolor="#ffffff"
     bordercolor="#666666"
     borderopacity="1.0"
     inkscape:pageopacity="0.0"
     inkscape:pageshadow="2"
     inkscape:zoom="0.35"
     inkscape:cx="-1798.8233"
     inkscape:cy="486.15214"
     inkscape:document-units="mm"
     inkscape:current-layer="layer1"
     showgrid="false"
     fit-margin-top="0"
     fit-margin-left="0"
     fit-margin-right="0"
     fit-margin-bottom="0"
     inkscape:window-width="1853"
     inkscape:window-height="1025"
     inkscape:window-x="67"
     inkscape:window-y="27"
     inkscape:window-maximized="1" />
  <metadata
     id="metadata4040">
    <rdf:RDF>
      <cc:Work
         rdf:about="">
        <dc:format>image/svg+xml</dc:format>
        <dc:type
           rdf:resource="http://purl.org/dc/dcmitype/StillImage" />
        <dc:title></dc:title>
      </cc:Work>
    </rdf:RDF>
  </metadata>
  <g
     inkscape:label="Layer 1"
     inkscape:groupmode="layer"
     id="layer1"
     transform="translate(-447.21247,-224.31273)">
    <g
       id="g6944"
       transform="matrix(-0.53078769,0,0,0.53078769,489.41328,252.13805)">
      <g
         transform="matrix(0.35277777,0,0,-0.35277777,46.460542,25.88487)"
         id="g997">
        <path
           inkscape:connector-curvature="0"
           id="path999"
           style="fill:#1fbfca;fill-opacity:1;fill-rule:nonzero;stroke:none"
           d="m 0,0 c 0,0 6.101,-5.748 6.101,-20.201 0,-14.454 -22.813,-41.661 -76.704,-41.661 -53.889,0 -72.254,18.875 -72.254,34.348 0,15.475 3.796,17.287 3.796,17.287 z" />
      </g>
      <g
         transform="matrix(0.35277777,0,0,-0.35277777,44.515462,25.72298)"
         id="g1001">
        <path
           inkscape:connector-curvature="0"
           id="path1003"
           style="fill:#c22828;fill-opacity:1;fill-rule:nonzero;stroke:none"
           d="m 0,0 5.559,-0.459 c 0,0 1.689,-15.385 1.689,-19.979 0,-10.438 -21.007,-37.632 -71.505,-37.632 -43.358,0 -69.29,13.539 -69.29,30.062 v 19.024 l 10.327,5.301 z" />
      </g>
      <g
         transform="matrix(0.35277777,0,0,-0.35277777,45.233402,21.01421)"
         id="g1005">
        <path
           inkscape:connector-curvature="0"
           id="path1007"
           style="fill:#ed2d26;fill-opacity:1;fill-rule:nonzero;stroke:none"
           d="m 0,0 c 0,0 3.523,-2.039 3.523,-16.554 0,-10.312 -20.755,-37.179 -70.647,-37.179 -42.837,0 -68.458,13.377 -68.458,29.7 0,19.725 10.202,24.033 10.202,24.033 z" />
      </g>
      <g
         transform="matrix(0.35277777,0,0,-0.35277777,54.701222,-44.619004)"
         id="g1009">
        <path
           inkscape:connector-curvature="0"
           id="path1011"
           style="fill:#116c7e;fill-opacity:1;fill-rule:nonzero;stroke:none"
           d="m 0,0 38.855,-37.736 v -129.459 l -40.3,-15.984 z" />
      </g>
      <g
         transform="matrix(0.35277777,0,0,-0.35277777,27.077062,24.43347)"
         id="g1013">
        <path
           inkscape:connector-curvature="0"
           id="path1015"
           style="fill:#d7292a;fill-opacity:1;fill-rule:nonzero;stroke:none"
           d="m 0,0 -0.781,9.692 h 52.248 c 0,0 3.523,-2.039 3.523,-16.553 0,-2.9 -1.641,-7.112 -5.111,-11.665 z" />
      </g>
      <g
         transform="matrix(0.35277777,0,0,-0.35277777,14.719852,25.9531)"
         id="g1017">
        <path
           inkscape:connector-curvature="0"
           id="path1019"
           style="fill:#ebeadb;fill-opacity:1;fill-rule:nonzero;stroke:none"
           d="m 0,0 c 0,-4.442 8.672,-8.044 19.371,-8.044 10.699,0 19.372,3.602 19.372,8.044 0,4.444 -8.673,8.044 -19.372,8.044 C 8.672,8.044 0,4.444 0,0" />
      </g>
      <path
         inkscape:connector-curvature="0"
         id="path1021"
         style="fill:#ebeadb;fill-opacity:1;fill-rule:nonzero;stroke:none;stroke-width:0.35277778"
         d="m 14.719822,22.13075 h 13.66767 v 3.82235 h -13.66767 z" />
      <g
         transform="matrix(0.35277777,0,0,-0.35277777,14.719852,22.13075)"
         id="g1023">
        <path
           inkscape:connector-curvature="0"
           id="path1025"
           style="fill:#cbcdc5;fill-opacity:1;fill-rule:nonzero;stroke:none"
           d="m 0,0 c 0,-4.443 8.672,-8.044 19.371,-8.044 10.699,0 19.372,3.601 19.372,8.044 0,4.442 -8.673,8.044 -19.372,8.044 C 8.672,8.044 0,4.442 0,0" />
      </g>
      <path
         inkscape:connector-curvature="0"
         id="path1027"
         style="fill:#cbcdc5;fill-opacity:1;fill-rule:nonzero;stroke:none;stroke-width:0.35277778"
         d="m 14.719822,19.56253 h 13.66767 v 2.56822 h -13.66767 z" />
      <g
         transform="matrix(0.35277777,0,0,-0.35277777,17.822852,-46.01357)"
         id="g1029">
        <path
           inkscape:connector-curvature="0"
           id="path1031"
           style="fill:#1fbfca;fill-opacity:1;fill-rule:nonzero;stroke:none"
           d="M 0,0 H 93.569 C 102.547,0 109,-7.092 109,-16.069 v -157.8 C 109,-182.847 102.547,-190 93.569,-190 H 0 Z" />
      </g>
      <g
         transform="matrix(0.35277777,0,0,-0.35277777,-12.514658,-46.01357)"
         id="g1033">
        <path
           inkscape:connector-curvature="0"
           id="path1035"
           style="fill:#92d5e3;fill-opacity:1;fill-rule:nonzero;stroke:none"
           d="M 0,0 H 85.996 V -190 H 0 c -8.978,0 -17.004,7.153 -17.004,16.131 v 157.8 C -17.004,-7.092 -8.978,0 0,0" />
      </g>
      <g
         transform="matrix(0.35277777,0,0,-0.35277777,12.178412,-51.562235)"
         id="g1037">
        <path
           inkscape:connector-curvature="0"
           id="path1039"
           style="fill:#ed2d26;fill-opacity:1;fill-rule:nonzero;stroke:none"
           d="m 0,0 v -7.481 l -44.041,-5.504 -0.494,11.115 z" />
      </g>
      <g
         transform="matrix(0.35277777,0,0,-0.35277777,21.678252,-50.782631)"
         id="g1041">
        <path
           inkscape:connector-curvature="0"
           id="path1043"
           style="fill:#ed2d26;fill-opacity:1;fill-rule:nonzero;stroke:none"
           d="M 0,0 55.889,4.649 56.454,-9.068 0.51,-8.843 Z" />
      </g>
      <g
         transform="matrix(0.35277777,0,0,-0.35277777,60.430082,-10.1112)"
         id="g1045">
        <path
           inkscape:connector-curvature="0"
           id="path1047"
           style="fill:#1fbfca;fill-opacity:1;fill-rule:nonzero;stroke:none"
           d="m 0,0 c 0,-20.854 9.82,-37.761 21.936,-37.761 12.115,0 21.935,16.907 21.935,37.761 0,20.854 -9.82,37.76 -21.935,37.76 C 9.82,37.76 0,20.854 0,0" />
      </g>
      <g
         transform="matrix(0.35277777,0,0,-0.35277777,68.012052,-21.92855)"
         id="g1049">
        <path
           inkscape:connector-curvature="0"
           id="path1051"
           style="fill:#c22828;fill-opacity:1;fill-rule:nonzero;stroke:none"
           d="m 0,0 c 0.146,0 7.769,0.032 7.916,0.032 9.428,0 17.069,-15.014 17.069,-33.514 0,-18.5 -7.641,-33.506 -17.069,-33.506 -0.147,0 -7.77,-0.017 -7.916,-0.017 -9.43,0 -17.071,15.001 -17.071,33.503 C -17.071,-15.001 -9.43,0 0,0" />
      </g>
      <g
         transform="matrix(0.35277777,0,0,-0.35277777,64.869082,-10.1112)"
         id="g1053">
        <path
           inkscape:connector-curvature="0"
           id="path1055"
           style="fill:#ed2d26;fill-opacity:1;fill-rule:nonzero;stroke:none"
           d="m 0,0 c 0,-18.5 7.588,-33.499 16.947,-33.499 9.361,0 16.948,14.999 16.948,33.499 0,18.5 -7.587,33.498 -16.948,33.498 C 7.588,33.498 0,18.5 0,0" />
      </g>
      <g
         transform="matrix(0.35277777,0,0,-0.35277777,70.747772,-10.41092)"
         id="g1057">
        <path
           inkscape:connector-curvature="0"
           id="path1059"
           style="fill:#c22828;fill-opacity:1;fill-rule:nonzero;stroke:none"
           d="m 0,0 c 0,-4.602 2.285,-8.332 5.102,-8.332 2.816,0 5.101,3.73 5.101,8.332 0,4.603 -2.285,8.333 -5.101,8.333 C 2.285,8.333 0,4.603 0,0" />
      </g>
      <g
         transform="matrix(0.35277777,0,0,-0.35277777,73.327462,-13.35062)"
         id="g1061">
        <path
           inkscape:connector-curvature="0"
           id="path1063"
           style="fill:#92d5e3;fill-opacity:1;fill-rule:nonzero;stroke:none"
           d="m 0,0 h 14.793 c 1.503,0 2.721,-3.73 2.721,-8.333 0,-4.602 -1.218,-8.332 -2.721,-8.332 H 0 c -1.503,0 -2.721,3.73 -2.721,8.332 C -2.721,-3.73 -1.503,0 0,0" />
      </g>
      <g
         transform="matrix(0.35277777,0,0,-0.35277777,29.464522,-28.6689)"
         id="g1065">
        <path
           inkscape:connector-curvature="0"
           id="path1067"
           style="fill:#c22828;fill-opacity:1;fill-rule:nonzero;stroke:none"
           d="m 0,0 c 3,0.011 6.16,1.143 6.273,1.132 16.645,-1.478 27.931,-12.87 27.931,-27.38 0,-14.51 -12.386,-26.29 -27.334,-26.29 -0.114,0 -3.87,-0.003 -6.87,-0.003 z" />
      </g>
      <g
         transform="matrix(0.35277777,0,0,-0.35277777,20.518992,-19.67927)"
         id="g1069">
        <path
           inkscape:connector-curvature="0"
           id="path1071"
           style="fill:#ed2d26;fill-opacity:1;fill-rule:nonzero;stroke:none"
           d="m 0,0 c 0,-14.948 12.117,-27.066 27.065,-27.066 14.949,0 27.067,12.118 27.067,27.066 0,14.947 -12.118,27.065 -27.067,27.065 C 12.117,27.065 0,14.947 0,0" />
      </g>
      <g
         transform="matrix(0.35277777,0,0,-0.35277777,22.977392,-19.85908)"
         id="g1073">
        <path
           inkscape:connector-curvature="0"
           id="path1075"
           style="fill:#b4d9e8;fill-opacity:1;fill-rule:nonzero;stroke:none"
           d="m 0,0 c 0,-10.816 8.77,-19.587 19.587,-19.587 10.816,0 19.585,8.771 19.585,19.587 0,10.816 -8.769,19.587 -19.585,19.587 C 8.77,19.587 0,10.816 0,0" />
      </g>
      <g
         transform="matrix(0.35277777,0,0,-0.35277777,26.313652,-19.79915)"
         id="g1077">
        <path
           inkscape:connector-curvature="0"
           id="path1079"
           style="fill:#ffffff;fill-opacity:1;fill-rule:nonzero;stroke:none"
           d="m 0,0 c 0,-5.688 4.611,-10.299 10.3,-10.299 5.686,0 10.298,4.611 10.298,10.299 0,5.688 -4.612,10.298 -10.298,10.298 C 4.611,10.298 0,5.688 0,0" />
      </g>
      <g
         transform="matrix(0.35277777,0,0,-0.35277777,26.192362,4.34062)"
         id="g1081">
        <path
           inkscape:connector-curvature="0"
           id="path1083"
           style="fill:#116c7e;fill-opacity:1;fill-rule:nonzero;stroke:none"
           d="M 0,0 C -0.095,-6.427 5.036,-11.713 11.462,-11.808 17.889,-11.903 23.174,-6.771 23.27,-0.344 23.365,6.08 18.232,11.366 11.807,11.461 5.381,11.557 0.096,6.426 0,0" />
      </g>
      <g
         transform="matrix(0.35277777,0,0,-0.35277777,0.9835719,3.96753)"
         id="g1085">
        <path
           inkscape:connector-curvature="0"
           id="path1087"
           style="fill:#116c7e;fill-opacity:1;fill-rule:nonzero;stroke:none"
           d="M 0,0 C -0.096,-6.426 5.035,-11.713 11.462,-11.808 17.889,-11.903 23.174,-6.771 23.27,-0.345 23.365,6.081 18.233,11.367 11.808,11.462 5.38,11.556 0.096,6.426 0,0" />
      </g>
      <g
         transform="matrix(0.35277777,0,0,-0.35277777,2.4887319,7.20179)"
         id="g1089">
        <path
           inkscape:connector-curvature="0"
           id="path1091"
           style="fill:#116c7e;fill-opacity:1;fill-rule:nonzero;stroke:none"
           d="m 0,0 c 0,0 15.184,-16.789 44.56,-17.224 25.579,-0.379 42.743,17.209 42.743,17.209 L 70.541,16.109 c 0,0 -12.923,-10.922 -26.808,-10.641 -18.97,0.382 -27.667,11.35 -27.667,11.35 z" />
      </g>
      <g
         transform="matrix(0.35277777,0,0,-0.35277777,25.803432,2.9867)"
         id="g1093">
        <path
           inkscape:connector-curvature="0"
           id="path1095"
           style="fill:#ed2d26;fill-opacity:1;fill-rule:nonzero;stroke:none"
           d="m 0,0 c 0,-6.514 5.279,-11.794 11.792,-11.794 6.514,0 11.793,5.28 11.793,11.794 0,6.512 -5.279,11.791 -11.793,11.791 C 5.279,11.791 0,6.512 0,0" />
      </g>
      <g
         transform="matrix(0.35277777,0,0,-0.35277777,0.2535719,2.9867)"
         id="g1097">
        <path
           inkscape:connector-curvature="0"
           id="path1099"
           style="fill:#ed2d26;fill-opacity:1;fill-rule:nonzero;stroke:none"
           d="m 0,0 c 0,-6.514 5.279,-11.794 11.791,-11.794 6.514,0 11.793,5.28 11.793,11.794 0,6.512 -5.279,11.791 -11.793,11.791 C 5.279,11.791 0,6.512 0,0" />
      </g>
      <g
         transform="matrix(0.35277777,0,0,-0.35277777,1.8265719,6.24199)"
         id="g1101">
        <path
           inkscape:connector-curvature="0"
           id="path1103"
           style="fill:#ed2d26;fill-opacity:1;fill-rule:nonzero;stroke:none"
           d="m 0,0 c 0,0 15.639,-16.784 45.412,-16.784 25.925,0 43.055,18.081 43.055,18.081 L 71.241,17.382 c 0,0 -12.932,-11.261 -27.007,-11.186 C 25.006,6.3 16.028,17.283 16.028,17.283 Z" />
      </g>
      <path
         inkscape:connector-curvature="0"
         id="path1105"
         style="fill:#ffffff;fill-opacity:1;fill-rule:nonzero;stroke:none;stroke-width:0.35277778"
         d="m 15.722772,9.51259 h 2.00624 V 6.94578 h -2.00624 z" />
      <g
         transform="matrix(0.35277777,0,0,-0.35277777,19.211212,9.38185)"
         id="g1107">
        <path
           inkscape:connector-curvature="0"
           id="path1109"
           style="fill:#ffffff;fill-opacity:1;fill-rule:nonzero;stroke:none"
           d="M 0,0 5.545,1.259 3.936,8.355 -1.612,7.097 Z" />
      </g>
      <g
         transform="matrix(0.35277777,0,0,-0.35277777,22.456162,8.56778)"
         id="g1111">
        <path
           inkscape:connector-curvature="0"
           id="path1113"
           style="fill:#ffffff;fill-opacity:1;fill-rule:nonzero;stroke:none"
           d="M 0,0 5.298,2.069 2.65,8.846 -2.646,6.778 Z" />
      </g>
      <g
         transform="matrix(0.35277777,0,0,-0.35277777,25.490622,7.34615)"
         id="g1115">
        <path
           inkscape:connector-curvature="0"
           id="path1117"
           style="fill:#ffffff;fill-opacity:1;fill-rule:nonzero;stroke:none"
           d="M 0,0 5.069,2.576 1.773,9.063 -3.296,6.487 Z" />
      </g>
      <g
         transform="matrix(0.35277777,0,0,-0.35277777,28.467182,5.74694)"
         id="g1119">
        <path
           inkscape:connector-curvature="0"
           id="path1121"
           style="fill:#ffffff;fill-opacity:1;fill-rule:nonzero;stroke:none"
           d="M 0,0 4.602,3.341 0.328,9.227 -4.273,5.886 Z" />
      </g>
      <path
         inkscape:connector-curvature="0"
         id="path1123"
         style="fill:#ffffff;fill-opacity:1;fill-rule:nonzero;stroke:none;stroke-width:0.35277778"
         d="m 17.728662,9.51259 h -2.00625 V 6.94578 h 2.00625 z" />
      <g
         transform="matrix(0.35277777,0,0,-0.35277777,14.240642,9.38185)"
         id="g1125">
        <path
           inkscape:connector-curvature="0"
           id="path1127"
           style="fill:#ffffff;fill-opacity:1;fill-rule:nonzero;stroke:none"
           d="M 0,0 -5.545,1.259 -3.936,8.355 1.61,7.097 Z" />
      </g>
      <g
         transform="matrix(0.35277777,0,0,-0.35277777,10.995012,8.56778)"
         id="g1129">
        <path
           inkscape:connector-curvature="0"
           id="path1131"
           style="fill:#ffffff;fill-opacity:1;fill-rule:nonzero;stroke:none"
           d="M 0,0 -5.297,2.069 -2.649,8.846 2.648,6.778 Z" />
      </g>
      <g
         transform="matrix(0.35277777,0,0,-0.35277777,7.9609119,7.34615)"
         id="g1133">
        <path
           inkscape:connector-curvature="0"
           id="path1135"
           style="fill:#ffffff;fill-opacity:1;fill-rule:nonzero;stroke:none"
           d="M 0,0 -5.069,2.576 -1.775,9.063 3.296,6.487 Z" />
      </g>
      <g
         transform="matrix(0.35277777,0,0,-0.35277777,4.9840019,5.74694)"
         id="g1137">
        <path
           inkscape:connector-curvature="0"
           id="path1139"
           style="fill:#ffffff;fill-opacity:1;fill-rule:nonzero;stroke:none"
           d="M 0,0 -4.602,3.341 -0.327,9.227 4.274,5.886 Z" />
      </g>
      <g
         transform="matrix(0.35277777,0,0,-0.35277777,-6.9722081,-44.023691)"
         id="g1141">
        <path
           inkscape:connector-curvature="0"
           id="path1143"
           style="fill:#ffffff;fill-opacity:1;fill-rule:nonzero;stroke:none"
           d="m 0,0 v -4.307 c 0,0 -9.411,1.02 -15.418,-4.987 -6.008,-6.009 -5.441,-14.512 -5.441,-14.512 h -4.081 c 0,0 -1.816,13.152 5.214,19.273 C -12.697,1.589 0,0 0,0" />
      </g>
      <g
         transform="matrix(0.35277777,0,0,-0.35277777,-10.267078,-18.98197)"
         id="g1145">
        <path
           inkscape:connector-curvature="0"
           id="path1147"
           style="fill:#ee2824;fill-opacity:1;fill-rule:nonzero;stroke:none"
           d="m 0,0 c 0,0 8.375,10.125 21.125,10.125 12.75,0 19.125,-12.875 19.125,-12.875 l 5.375,2 c 0,0 -5.25,19.5 -24.75,19.5 C 1.375,18.75 -6.25,2.125 -6.25,2.125 Z" />
      </g>
      <g
         transform="matrix(0.35277777,0,0,-0.35277777,-11.991348,-20.57413)"
         id="g1149">
        <path
           inkscape:connector-curvature="0"
           id="path1151"
           style="fill:#c22828;fill-opacity:1;fill-rule:nonzero;stroke:none"
           d="M 0,0 C 0.002,0.001 11.373,9.681 26.263,9.362 39.589,9.076 46.138,3.528 46.183,3.49 42.526,8.674 36.179,14.237 25.763,14.237 10.909,14.237 2.952,4.597 0,0" />
      </g>
    </g>
  </g>
</svg>
