<?xml version="1.0" encoding="UTF-8"?><!DOCTYPE svg PUBLIC "-//W3C//DTD SVG 1.1//EN" "http://www.w3.org/Graphics/SVG/1.1/DTD/svg11.dtd"><svg xmlns="http://www.w3.org/2000/svg"><symbol id="icon-card-cash-expenses" viewBox="0 0 50 50"><circle cx="25" cy="25" r="25" fill="#118df0"/><circle cx="25" cy="25" r="23.7" fill="#fff"/><circle cx="25" cy="25" r="21.6" fill="#118df0"/><path d="M37.1 18.5v16.8c0 1.668-1.348 3.047-3.1 3.1H15.9c-1.7 0-3.1-1.4-3.1-3.1V14.7c0-1.7 1.4-3.1 3.1-3.1h14.4v5.2c0 1 .8 1.7 1.7 1.7h5.1z" fill="#fff"/><path d="M37.1 18.5H32c-.9 0-1.7-.7-1.7-1.7v-5.2h.1l6.7 6.9z" fill="#184e9e"/><path d="M27.4 21.9c-.3-.3-.7-.5-1-.7-.3-.1-.7-.2-1.1-.2-.5 0-.9.1-1.1.3-.3.2-.4.6-.4 1 0 .3.1.6.4.8.2.2.5.4.9.6.4.2.8.4 1.2.5.4.2.8.4 1.2.7.4.3.7.6.9.9.2.4.4.8.4 1.4 0 .8-.2 1.5-.7 2-.5.5-1.2.9-2.1 1v1.7h-1.4v-1.7c-.5-.1-1.1-.2-1.6-.4-.6-.2-1-.5-1.4-.9l.9-1.3c.4.3.8.6 1.3.7.4.2.9.3 1.4.3.6 0 1-.1 1.3-.4.3-.2.4-.6.4-1.1 0-.4-.1-.7-.4-.9-.2-.2-.5-.5-.9-.7l-2.4-1.2c-.4-.2-.7-.5-.9-.9-.2-.3-.4-.8-.4-1.3 0-.8.2-1.4.7-1.9.5-.5 1.1-.8 1.9-1v-1.7h1.4v1.7c.6.1 1.1.2 1.5.5.4.2.8.5 1.1.8l-1.1 1.4z" fill="#118df0" fill-rule="nonzero"/></symbol><symbol id="icon-card-child-care" viewBox="0 0 50 50"><circle cx="25" cy="25" r="25" fill="#118df0"/><circle cx="25" cy="25" r="22.9" fill="none" stroke="#fff" stroke-width="2"/><g><path d="M28.3 40.2h-6.5c-4.1 0-7.4-3.3-7.4-7.4v-3.1c0-4.1 3.3-7.4 7.4-7.4h6.5c4.1 0 7.4 3.3 7.4 7.4v3.1c0 4.1-3.4 7.4-7.4 7.4z" fill="#fff" fill-rule="nonzero"/><g fill="#fff" fill-rule="nonzero"><path d="M13.4 23c1.8.3 3 1.9 2.7 3.6-.3 1.7-2 2.8-3.8 2.6-1.8-.2-3-1.9-2.7-3.6.3-1.8 2-2.9 3.8-2.6z"/><path d="M20.1 24L19 30.1l-6.7-1 1.1-6.1 6.7 1z"/><g><path d="M36.6 23c-1.8.3-3 1.9-2.7 3.6.3 1.7 2 2.8 3.8 2.6 1.8-.3 3-1.9 2.7-3.6-.3-1.8-2-2.9-3.8-2.6z"/><path d="M29.9 24l1.1 6.1 6.7-1-1.1-6.1-6.7 1z"/></g></g><ellipse cx="25" cy="18.1" rx="8.9" ry="8.3" fill="#fff"/><ellipse cx="19" cy="11.6" rx="3.3" ry="3.1" fill="#fff"/><ellipse cx="31" cy="11.6" rx="3.3" ry="3.1" fill="#fff"/><ellipse cx="21.5" cy="16.8" rx="1.4" ry="1.3" fill="#118df0"/><ellipse cx="28.5" cy="16.8" rx="1.4" ry="1.3" fill="#118df0"/><ellipse cx="24.9" cy="20" rx="1.5" ry=".8" fill="#184e9e"/><g fill="#184e9e" fill-rule="nonzero"><path d="M21.7 35.4c.9 2.7-.3 5.4-2.6 6.1-2.4.7-5.1-.9-6-3.5-.9-2.7.3-5.4 2.6-6.1 2.4-.7 5 .9 6 3.5zM28.3 35.4c-.9 2.7.3 5.4 2.6 6.1 2.4.7 5.1-.9 6-3.5.9-2.7-.3-5.4-2.6-6.1-2.4-.7-5.1.9-6 3.5z"/></g></g></symbol><symbol id="icon-card-city-id-card" viewBox="0 0 50 50"><circle cx="25" cy="25" r="25" fill="#118df0"/><circle cx="25" cy="25" r="23.7" fill="#fff"/><circle cx="25" cy="25" r="21.6" fill="#118df0"/><g><path d="M37.5 34.8h-25c-.3 0-.6-.3-.6-.6V15.6c0-.3.3-.6.6-.6h25c.3 0 .6.3.6.6v18.6c0 .3-.3.6-.6.6z" fill="#fff" fill-rule="nonzero"/><g fill="#118df0"><path d="M25.7 26.1h9.1v1.8h-9.1zM25.7 21.8h9.1v1.8h-9.1z"/></g><g fill="#118df0"><path d="M14.4 30v-.4c0-2.4 1.9-4.3 4.3-4.3s4.3 1.9 4.3 4.3v.4" fill-rule="nonzero"/><circle cx="18.9" cy="22.7" r="2.9"/></g></g></symbol><symbol id="icon-card-education" viewBox="0 0 50 50"><circle cx="25" cy="24.6" r="25" fill="#118df0"/><circle cx="25" cy="24.6" r="23.7" fill="#fff"/><circle cx="25" cy="24.6" r="21.6" fill="#118df0"/><g><path fill="#184e9e" d="M11 21.7h.9v11.5H11z"/><path d="M11.5 30.2l1.7 3H9.8l1.7-3z" fill="#184e9e" fill-rule="nonzero"/><path d="M25 13.8l17 8.1-17 8-17-8 17-8.1z" fill="#fff" fill-rule="nonzero"/><path d="M16.1 26.9l8.7 4.4c.2.1.5.1.7 0l8.7-4.4v6.9c-.3-.2-.6-.3-1-.4-.2-.1-.4-.1-.5-.2h-.1c-.1 0-.2-.1-.3-.1l-1.2-.3c-.4-.1-.8-.1-1.2-.2-.3 0-.6-.1-.9-.1-.6-.1-1.2-.1-1.9-.2H23c-.2 0-.5 0-.7.1h-.5c-.4 0-.9.1-1.3.1-.5.1-1 .2-1.5.2h-.2c-.4.1-.7.1-1 .2-.1 0-.2.1-.3.1h-.1c-.1 0-.2.1-.3.1-.1 0-.1 0-.2.1-.4.1-.7.2-1 .4v-6.7h.2z" fill="#fff" fill-rule="nonzero"/><ellipse cx="24.9" cy="21.6" rx="1.4" ry=".7" fill="#118df0"/><path d="M25.2 32.1h1.3c.8 0 1.6.1 2.3.2.2 0 .4 0 .6.1h.2c.1 0 .3 0 .4.1.2 0 .4.1.6.1.3 0 .5.1.7.1.1 0 .2 0 .3.1h.1c.8.2 1.4.4 1.9.6.3.2.5.3.5.4 0 0-.1.1-.3.2-.4.2-1.1.5-1.9.7-1.7.4-4.2.7-6.9.7s-5.1-.3-6.8-.7c-.9-.2-1.5-.5-1.9-.7-.2-.1-.3-.2-.3-.2.1 0 .2-.2.6-.4.4-.2.9-.4 1.5-.5.1 0 .2 0 .2-.1.4-.1.9-.2 1.4-.3.2 0 .4-.1.6-.1.1 0 .3 0 .4-.1h.2c.2 0 .4 0 .6-.1.2 0 .5 0 .7-.1.4 0 .7-.1 1.1-.1h.8c.5.1.8.1 1.1.1z" fill="#fff" fill-rule="nonzero"/></g></symbol><symbol id="icon-card-enrichment" viewBox="0 0 50 50"><circle cx="25" cy="25" r="25" fill="#118df0"/><circle cx="25" cy="25" r="22.9" fill="none" stroke="#fff" stroke-width="2"/><g><g fill="#fff" fill-rule="nonzero"><path d="M25.6 8.8l4.3 7.5h-8.7l4.4-7.5zM25.3 41.8l-4.4-7.4h8.7l-4.3 7.4zM9.1 25.4l7.5-4.3v8.6l-7.5-4.3zM42.2 25.4l-7.6 4.3v-8.6l7.6 4.3z"/><path d="M13.9 13.7l8.3 2.2-6.1 6.1-2.2-8.3zM37.2 37l-8.3-2.2 6.1-6.1 2.2 8.3zM13.6 37.1l2.3-8.4 6.1 6.1-8.4 2.3zM37.3 13.7L35.1 22 29 15.9l8.3-2.2z"/></g><circle cx="25.3" cy="25.3" r="10.6" fill="#118df0"/><circle cx="25.3" cy="25.3" r="9.5" fill="#fff"/></g></symbol><symbol id="icon-card-expenses" viewBox="0 0 50 50"><circle cx="25" cy="25" r="25" fill="#118df0"/><circle cx="25" cy="25" r="23.7" fill="#fff"/><circle cx="25" cy="25" r="21.6" fill="#118df0"/><g fill-rule="nonzero"><path d="M32.1 21c-.9 0-3.1-1.5-3.1-2.3V13H15.7c-1.9 0-3.7 1.5-3.7 3.3v19.5c0 1.8 1.8 3.1 3.7 3.1h18.2c1.9 0 3.1-1.3 3.1-3.1V21h-4.9z" fill="#fff"/><path d="M29 18.7c0 1.2 1.4 2.3 2.9 2.3H37l-8-8v5.7z" fill="#184e9e"/><path d="M27.2 23.1c-.3-.3-.7-.5-1-.6-.3-.1-.7-.2-1.2-.2s-.9.1-1.2.3c-.3.2-.4.5-.4 1 0 .3.1.6.4.8.2.2.6.4.9.6.4.2.8.4 1.2.5l1.2.6c.4.3.7.6.9.9.2.4.4.8.4 1.4 0 .8-.2 1.4-.7 2-.5.5-1.2.9-2.1 1v1.7h-1.5v-1.6c-.6-.1-1.1-.2-1.7-.4-.6-.2-1.1-.5-1.5-.8l1-1.3c.4.3.9.6 1.3.7.4.2.9.3 1.4.3.6 0 1.1-.1 1.4-.4.3-.2.4-.6.4-1s-.1-.7-.4-.9c-.2-.2-.6-.5-.9-.7l-2.4-1.2c-.4-.2-.7-.5-.9-.9-.2-.3-.4-.8-.4-1.3 0-.8.2-1.4.7-1.9.5-.5 1.2-.8 2-1V19h1.5v1.6c.6.1 1.1.2 1.5.5.4.2.8.5 1.2.8l-1.1 1.2z" fill="#118df0"/></g></symbol><symbol id="icon-card-family-services" viewBox="0 0 50 50"><circle cx="25" cy="25" r="25" fill="#118df0"/><circle cx="25" cy="25" r="22.9" fill="none" stroke="#fff" stroke-width="2"/><g><path d="M12.5 38.2c0-.4-.1-.8-.1-1.2 0-6.8 5.5-12.3 12.3-12.3C31.5 24.7 37 30.2 37 37c0 .4 0 .8-.1 1.2" fill="#fff" fill-rule="nonzero"/><g fill="#118df0"><circle cx="24.5" cy="29.9" r="3.6"/><path d="M19.6 38.2c0-2.9 2.3-5.2 5.2-5.2 2.9 0 5.2 2.3 5.2 5.2" fill-rule="nonzero"/></g><circle cx="24.4" cy="18.9" r="7.3" fill="#fff"/></g></symbol><symbol id="icon-card-food" viewBox="0 0 50 50"><circle cx="25" cy="25" r="25" fill="#118df0"/><circle cx="25" cy="25" r="23.7" fill="#fff"/><circle cx="25" cy="25" r="21.6" fill="#118df0"/><g fill="#fff" fill-rule="nonzero"><path d="M26.6 13.3c-1.6-3.1-5.3-4.1-8.5-3.2.8 3.1 3.4 5.7 6.8 5.7-1.1 1.1-1.1 2.1-.1 3 .9-2.2 3.1-4.7 5.1-6-.4-.6-.9-1.1-1.3-1.7-.6.7-1.3 1.4-2 2.2z"/><path d="M30.7 15.1c-2.7 0-4.9 1.4-5.9 3.6-1-2.2-3.2-3.6-5.9-3.6-13.9 0-8.8 26.7 3.6 25 1.1-.1 1.8-.5 2.3-1 .5.5 1.2.9 2.3 1 12.4 1.7 17.5-25 3.6-25zM18 19.9c-2.3 1-3.4 3.6-2.5 6 .2.5 0 1-.5 1.2-.1 0-.2.1-.3.1-.3 0-.7-.2-.8-.5-1.3-3.2.2-7 3.4-8.3.5-.2 1 0 1.2.5.2.3 0 .8-.5 1z"/></g></symbol><symbol id="icon-card-health" viewBox="0 0 50 50"><circle cx="25" cy="25" r="25" fill="#118df0"/><circle cx="25" cy="25" r="23.7" fill="#fff"/><circle cx="25" cy="25" r="21.6" fill="#118df0"/><g fill="#fff" fill-rule="nonzero"><path d="M19.4 23l3.5 3.5 8-8 8 8c1-1.7 1.5-3.5 1.5-5.3 0-4.8-3.7-8.5-8.5-8.5-2.7 0-5.3 1.3-7 3.2-1.7-2-4.3-3.2-7-3.2-4.8 0-8.5 3.7-8.5 8.5 0 2.9 1.3 5.5 3.5 8.2l6.5-6.4z"/><path d="M31 21.1l-8 8-3.5-3.5-5.3 5.3c2.2 2.5 5.1 5.1 8.6 8.2l2.2 2 2.2-2c4.7-4.3 8.5-7.7 10.8-11l-7-7z"/></g></symbol><symbol id="icon-card-housing" viewBox="0 0 50 50"><circle cx="25" cy="25" r="25" fill="#118df0"/><circle cx="25" cy="25" r="22.9" fill="none" stroke="#fff" stroke-width="2"/><g><path fill="#fff" d="M24.9 11.1h11.9v25.7H24.9z"/><path fill="#118df0" d="M29.5 30.5h2.6v2.6h-2.6zM29.5 25.4h2.6V28h-2.6zM29.5 20.3h2.6v2.6h-2.6zM29.5 15.2h2.6v2.6h-2.6z"/><path d="M27.1 36.8H11.3v-9.5l7.9-7 7.8 6.9.1.1v9.5z" fill="#fff" fill-rule="nonzero"/><path fill="#118df0" d="M17.9 30.5h2.6v2.6h-2.6zM17.9 25.4h2.6V28h-2.6z"/></g></symbol><symbol id="icon-card-special-needs" viewBox="0 0 50 50"><circle cx="25" cy="25" r="25" fill="#118df0"/><circle cx="25" cy="25" r="23.7" fill="#fff"/><circle cx="25" cy="25" r="21.6" fill="#118df0"/><g fill="#fff" fill-rule="nonzero"><path d="M25.4 9.5l5.8 4.5 6.9-2.2-2.5 6.9 4.3 5.9-7.4-.2-4.3 5.8-2-7-6.9-2.3 6-4.1.1-7.3zM14.7 25.4l4.1 3.2 5-1.5L22 32l3.1 4.3-5.3-.2-3.1 4.3-1.5-5.1-5-1.7 4.4-2.9.1-5.3z"/></g></symbol><symbol id="icon-card-work" viewBox="0 0 50 50"><circle cx="25" cy="25" r="25" fill="#118df0"/><circle cx="25" cy="25" r="22.9" fill="none" stroke="#fff" stroke-width="2"/><g><g fill="#fff"><path d="M9.4 36.5c0-.4-.1-.8-.1-1.2 0-6.6 5.4-12 12-12s12 5.4 12 12c0 .4 0 .8-.1 1.2" fill-rule="nonzero"/><circle cx="21.4" cy="16.4" r="8.2"/></g><circle cx="30.7" cy="31.8" r="10" fill="#184e9e"/><path d="M30.6 32.4c-.4 0-.7-.3-.7-.6v-7c0-.4.3-.6.6-.6h.1c.4 0 .6.3.6.6v7c0 .3-.3.6-.6.6z" fill="#fff" fill-rule="nonzero"/><path d="M34.5 35.5l-.2.2c-.2.2-.6.2-.8 0L30 32.2c-.2-.2-.2-.6 0-.8l.2-.2c.2-.2.6-.2.8 0l3.5 3.5c.2.2.2.6 0 .8z" fill="#fff" fill-rule="nonzero"/></g></symbol><symbol id="icon-cash-expenses" viewBox="0 0 20 20"><g fill-rule="nonzero"><path d="M15.55 6c-.7 0-2.1-1.1-2.1-1.8V0H3.25C1.75 0 .45 1.1.45 2.5v14.6c0 1.4 1.3 2.9 2.8 2.9h13.7c1.4 0 2.6-1.5 2.6-2.8V6h-4z" fill="#118df0"/><path d="M13.45 4.3c0 .8.8 1.7 2 1.7h4l-6-6v4.3z" fill="#184e9e"/><path d="M11.85 7.5c-.3-.2-.5-.4-.8-.5-.3-.1-.5-.2-.9-.2-.3.1-.6.2-.8.3-.2.2-.3.5-.3.8 0 .2.1.4.3.6.2.2.4.3.7.4.3.1.6.3.9.4.3.1.6.3.9.5.3.2.5.4.7.7.2.3.3.6.3 1 0 .6-.2 1.1-.6 1.5-.4.4-.9.7-1.6.8v1.3h-1.1v-1.2c-.4 0-.9-.1-1.3-.3-.4-.2-.8-.4-1.1-.6l.7-1c.3.2.7.4 1 .6.3.1.7.2 1.1.2.5 0 .8-.1 1-.3.2-.2.3-.4.3-.8 0-.3-.1-.5-.3-.7-.2-.2-.4-.3-.7-.5-.3-.1-.6-.3-.9-.4-.3-.2-.6-.4-.9-.5-.3-.2-.5-.4-.7-.7-.2-.3-.3-.6-.3-1 0-.6.2-1.1.6-1.4.4-.4.9-.6 1.5-.7V4.5h1.1v1.2c.4 0 .8.2 1.2.3l.9.6-.9.9z" fill="#fff"/></g></symbol><symbol id="icon-child-care" viewBox="0 0 20 21"><path d="M16.5 14.6c0 2.5-2.1 4.6-4.6 4.6H8c-2.5 0-4.6-2.1-4.6-4.6v-1.9c0-2.5 2.1-4.6 4.6-4.6h3.9c2.5 0 4.6 2.1 4.6 4.6v1.9z" fill="#118df0" fill-rule="nonzero"/><g fill="#118df0" fill-rule="nonzero"><path d="M2.8 8.9c1.1.2 1.9 1.2 1.7 2.2-.2 1-1.2 1.8-2.4 1.6C1 12.5.2 11.5.4 10.5c.2-1 1.3-1.8 2.4-1.6z"/><path d="M6.9 9.5l-.7 3.8-4.1-.6.7-3.8 4.1.6z"/><g><path d="M17.1 8.9c-1.1.2-1.9 1.2-1.7 2.2.2 1 1.2 1.8 2.4 1.6 1.1-.2 1.9-1.2 1.7-2.2-.2-1-1.3-1.8-2.4-1.6z"/><path d="M13 9.5l.7 3.8 4.1-.6-.7-3.8-4.1.6z"/></g></g><ellipse cx="9.9" cy="5.9" rx="5.5" ry="5.1" fill="#118df0"/><ellipse cx="6.2" cy="1.9" rx="2" ry="1.9" fill="#118df0"/><ellipse cx="13.6" cy="1.9" rx="2" ry="1.9" fill="#118df0"/><circle cx="7.8" cy="5.1" r=".8" fill="#fff"/><circle cx="12.1" cy="5.1" r=".8" fill="#fff"/><ellipse cx="9.9" cy="7.1" rx=".9" ry=".5" fill="#184e9e"/><g fill="#184e9e" fill-rule="nonzero"><path d="M7.9 16.6c.6 1.6-.2 3.3-1.6 3.8-1.5.4-3.1-.5-3.7-2.2-.6-1.7.2-3.3 1.6-3.8 1.4-.5 3.1.6 3.7 2.2zM12 16.6c-.6 1.6.2 3.3 1.6 3.8 1.5.4 3.1-.5 3.7-2.2.6-1.7-.2-3.3-1.6-3.8-1.4-.5-3.1.6-3.7 2.2z"/></g></symbol><symbol id="icon-city-id-card" viewBox="0 0 20 17"><path d="M20 15.6c0 .2-.2.4-.4.4H.4c-.2 0-.4-.2-.4-.4V1.5c0-.3.2-.5.4-.5h19.1c.3 0 .5.2.5.5v14.1z" fill="#118df0" fill-rule="nonzero"/><g fill="#fff"><path d="M10 9h7v2h-7zM10 6h7v2h-7z"/></g><g fill="#fff"><path d="M1.8 12.4v-.3c0-1.8 1.4-3.2 3.2-3.2 1.8 0 3.2 1.4 3.2 3.2v.3" fill-rule="nonzero"/><circle cx="5" cy="7" r="2.2"/></g></symbol><symbol id="icon-close" viewBox="0 0 20 20"><path d="M9.9 13.7l-6.1 6.1-3.6-3.6 6.1-6.1L0 3.7 3.7 0 10 6.3 16.1.2l3.6 3.6-6.1 6.1 6.3 6.3-3.6 3.8-6.4-6.3z" fill="#112e51" fill-rule="nonzero"/></symbol><symbol id="icon-contact" viewBox="0 0 22.2 20"><path d="M13.5 4.7c-4.8 0-8.7 3.4-8.7 7.6S8.6 20 13.5 20c1.7 0 3.4-.4 4.7-1.2 1.2.7 2.6.7 3.3.6.2 0 .3-.3.1-.4-.7-.5-1.1-1.2-1.4-1.8 1.2-1.3 1.9-3 1.9-4.8.1-4.3-3.8-7.7-8.6-7.7zm.6 10.8c0 .2-.2.4-.4.4h-.9c-.2 0-.4-.2-.4-.4v-.6c0-.2.2-.4.4-.4h.9c.2 0 .4.2.4.4v.6zm1.3-3.4c-.2.3-.5.6-.9.8-.2.1-.3.3-.4.4 0 .1-.1.2-.1.4 0 .1-.1.2-.2.2h-1.1c-.1 0-.3-.1-.2-.3 0-.3.1-.5.2-.7.1-.2.4-.5.8-.7.2-.1.4-.3.5-.5.1-.2.2-.4.2-.7 0-.3-.1-.5-.2-.6-.1-.2-.3-.2-.6-.2-.2 0-.4.1-.5.2-.1.1-.1.2-.2.3 0 .2-.2.3-.4.3h-1c-.1 0-.2-.1-.2-.2 0-.5.2-.9.6-1.2.4-.3 1-.5 1.7-.5s1.3.2 1.7.6c.4.4.6.9.6 1.5.1.2 0 .6-.3.9zM1.6 10.3C.6 9.2 0 7.8 0 6.3 0 2.8 3.2 0 7.2 0c2.7 0 5.1 1.3 6.3 3.2-5.3 0-9.7 3.7-10.2 8.4-1 .6-2.1.6-2.7.5-.2 0-.2-.3-.1-.4.6-.4.9-.9 1.1-1.4z" fill="#fff"/></symbol><symbol id="icon-education" viewBox="0 0 20 17"><path fill="#184e9e" d="M1.9 7h.5v6.7h-.5z"/><path d="M2.2 12l1 1.7H1.1L2.2 12z" fill="#184e9e" fill-rule="nonzero"/><path d="M10 2.4l10 4.7-9.9 4.7-10-4.7L10 2.4z" fill="#118df0" fill-rule="nonzero"/><ellipse cx="10" cy="6.9" rx=".8" ry=".4" fill="#fff"/><path d="M15.5 14.087c0 .497-2.375.9-5.3.9s-5.3-.403-5.3-.9V10l5.1 2.6c.1.1.3.1.4 0l5.1-2.6v4.087z" fill="#118df0"/></symbol><symbol id="icon-eligibilitycheck" viewBox="0 0 25 21"><path d="M9 20.1L.1 11.2c-.2-.2-.2-.4 0-.6l4.1-4.1c.2-.2.4-.2.6 0L9 10.6c.2.2.4.2.6 0L20.1.1c.2-.2.4-.2.6 0l4.1 4.1c.2.2.2.4 0 .6L9.6 20.1c-.1.2-.4.2-.6 0z" fill="#d1d5d9" fill-rule="nonzero"/></symbol><symbol id="icon-enrichment" viewBox="0 0 20 21"><g fill="#184e9e" fill-rule="nonzero"><path d="M9.7.3l2.6 4.5H7.1L9.7.3zM9.7 20.2l-2.6-4.4h5.2l-2.6 4.4zM0 10.6L4.5 8v5.2L0 10.6zM20 10.6l-4.5 2.6V8l4.5 2.6z"/><path d="M2.7 3.6l5 1.3L4 8.6l-1.3-5zM16.7 17.6l-5.1-1.3 3.7-3.7 1.4 5zM2.7 17.6l1.4-5 3.6 3.7-5 1.3zM16.7 3.6l-1.3 5L11.7 5l5-1.4z"/></g><ellipse cx="9.7" cy="10.6" rx="6.4" ry="6.3" fill="#fff"/><circle cx="9.7" cy="10.6" r="5.7" fill="#118df0"/></symbol><symbol id="icon-family-services" viewBox="0 0 20 21"><path d="M.7 20.5v-.9c0-5.2 4.2-9.5 9.5-9.5s9.5 4.2 9.5 9.5v.9" fill="#118df0" fill-rule="nonzero"/><g fill="#eef3f7"><circle cx="10" cy="14" r="2.8"/><path d="M6.1 20.5c0-2.2 1.8-4 4-4s4 1.8 4 4" fill-rule="nonzero"/></g><circle cx="9.9" cy="5.6" r="5.6" fill="#118df0"/></symbol><symbol id="icon-food" viewBox="0 0 20 21"><g fill-rule="nonzero"><path d="M11.2 2.5C10.1.4 7.6-.2 5.5.4c.5 2.1 2.3 3.8 4.6 3.8-.7.7-.8 1.4-.1 2 .6-1.5 2.1-3.1 3.4-4-.3-.4-.6-.7-.9-1.1-.4.4-.9.9-1.3 1.4z" fill="#184e9e"/><path d="M13.9 3.7c-1.8 0-3.3.9-3.9 2.4-.7-1.5-2.1-2.4-3.9-2.4-9.3 0-5.9 17.9 2.4 16.7.7-.1 1.2-.3 1.5-.7.3.3.8.6 1.5.7 8.3 1.2 11.7-16.7 2.4-16.7zM5.4 6.9c-1.6.6-2.3 2.4-1.6 4 .1.3 0 .7-.3.8h-.2c-.2 0-.5-.1-.6-.4-.9-2.1.1-4.6 2.3-5.5.3-.1.7 0 .8.3.1.3-.1.7-.4.8z" fill="#118df0"/></g></symbol><symbol id="icon-gear" viewBox="0 0 25 25"><g fill-rule="nonzero"><path d="M12.5 23.988c-.7 0-1.3-.1-2-.2-6.2-1.1-10.4-7.1-9.3-13.3 1.1-6.2 7.1-10.4 13.3-9.3 6.2 1.1 10.4 7.1 9.3 13.3-1 5.6-5.8 9.5-11.3 9.5zm0-22c-5 0-9.4 3.6-10.3 8.7-1 5.7 2.8 11.1 8.5 12.1s11.1-2.8 12.1-8.5-2.8-11.2-8.5-12.2c-.6 0-1.2-.1-1.8-.1z" fill="#fbb720"/><path d="M12.631.013a12.4 12.4 0 0 1 9.146 4.164 12.678 12.678 0 0 1 2.501 4.238c.472 1.348.71 2.776.697 4.204a12.606 12.606 0 0 1-2.238 7.022 12.488 12.488 0 0 1-3.218 3.188 12.483 12.483 0 0 1-7.021 2.159 11.685 11.685 0 0 1-1.628-.137c-.409-.058-.41-.052-.702-.108a12.388 12.388 0 0 1-2.407-.718 12.44 12.44 0 0 1-3.806-2.473 12.68 12.68 0 0 1-2.717-3.74 12.479 12.479 0 0 1-1.162-4.219 12.388 12.388 0 0 1 1.203-6.547 12.474 12.474 0 0 1 2.26-3.212 12.706 12.706 0 0 1 3.637-2.609A12.55 12.55 0 0 1 10.633.157c.559-.086 1.122-.13 1.687-.143.156-.002.156-.002.311-.001zm-.237 2.975a9.425 9.425 0 0 0-3.044.545 9.5 9.5 0 0 0-5.787 5.863 9.618 9.618 0 0 0-.52 2.906 9.38 9.38 0 0 0 .45 3.089 9.461 9.461 0 0 0 4.471 5.399 9.579 9.579 0 0 0 3.753 1.123 9.43 9.43 0 0 0 9.085-4.89 9.53 9.53 0 0 0 .968-2.667 9.616 9.616 0 0 0 .098-3.215 9.606 9.606 0 0 0-4.338-6.752 9.34 9.34 0 0 0-3.282-1.295l-.043-.007c-.098-.001-.195-.006-.293-.01-.375-.021-.749-.06-1.125-.081a7.36 7.36 0 0 0-.393-.008z" fill="#fbb720"/><path d="M19.7 12.388c-.4-.1-.8-.2-1.2-.2 0-.7-.2-1.3-.4-1.9.3-.2.6-.4 1-.7 0 0 .1 0 .1-.1.1-.1.2-.2.1-.4-.4-.6-.8-1.2-1.2-1.7-.1-.1-.3-.2-.4-.1-.3.2-.7.5-1 .7-.5-.4-1-.8-1.6-1 .1-.4.1-.8.2-1.2v-.1c0-.1-.1-.3-.2-.3-.7-.1-1.4-.2-2.1-.4-.2 0-.4.1-.4.2-.1.4-.2.8-.2 1.2-.7 0-1.3.2-1.9.4-.5-.1-.7-.5-1-.8 0 0 0-.1-.1-.1 0-.1-.2-.1-.3 0-.6.4-1.2.8-1.7 1.2-.2.1-.3.3-.1.4.2.3.5.7.7 1-.4.5-.8 1-1 1.6-.4 0-.8-.1-1.2-.1-.2 0-.4.1-.4.2-.1.7-.2 1.4-.4 2.1 0 .2.1.4.2.4.4.1.8.2 1.2.2 0 .7.2 1.3.4 1.9-.3.2-.6.5-1 .7-.1.1-.2.3-.1.4.5.5.9 1.1 1.3 1.7.1.1.3.2.4.1.3-.2.7-.5 1-.7.5.4 1.1.8 1.7 1.1-.1.4-.1.8-.2 1.2 0 .2.1.4.2.4.7.1 1.4.2 2.1.4.2 0 .4-.1.4-.2.1-.4.2-.8.2-1.2.7 0 1.3-.2 1.9-.4.2.3.5.6.7 1 .1.1.3.2.4.1.6-.4 1.2-.8 1.7-1.2.1-.1.2-.3.1-.4-.2-.3-.5-.7-.7-1 .4-.5.8-1 1.1-1.6.4.1.8.1 1.2.2.2 0 .4-.1.4-.2.1-.7.2-1.4.4-2.1v-.1c0-.4-.1-.6-.3-.6zm-7.8 3.3c-1.8-.3-3-2-2.7-3.8.3-1.8 2-3 3.9-2.7 1.8.3 3 2 2.7 3.8-.3 1.9-2.1 3.1-3.9 2.7z" fill="#112e51"/></g></symbol><symbol id="icon-health" viewBox="0 0 20 21"><g fill="#118df0" fill-rule="nonzero"><path d="M6.5 7.7L8.8 10 14 4.8l5.1 5.1c.6-1.1 1-2.2 1-3.4 0-3.1-2.4-5.5-5.5-5.5-1.7 0-3.4.8-4.5 2.1C9 1.8 7.4 1 5.6 1 2.5 1 .1 3.4.1 6.5c0 1.8.8 3.5 2.2 5.3l4.2-4.1z"/><path d="M13.9 6.5l-5.1 5.1-2.3-2.3-3.4 3.4C4.5 14.3 6.4 16 8.6 18l1.4 1.3 1.4-1.3c3-2.7 5.4-4.9 6.9-7.1l-4.4-4.4z"/></g></symbol><symbol id="icon-housing" viewBox="0 0 20 21"><path fill="#118df0" d="M10.7.2H20v20h-9.3z"/><path fill="#fff" d="M14.3 15.3h2v2h-2zM14.3 11.4h2v2h-2zM14.3 7.4h2v2h-2zM14.3 3.4h2v2h-2z"/><path d="M12.4 20.3H.1v-7.4l6.1-5.5 6.2 5.4v7.5z" fill="#118df0" fill-rule="nonzero"/><path fill="#fff" d="M5.2 15.3h2v2h-2zM5.2 11.4h2v2h-2z"/></symbol><symbol id="icon-info" viewBox="0 0 500 500"><path d="M468.723 125.107c-22.463-38.484-52.937-68.955-91.422-91.418C338.807 11.229 296.783 0 251.212 0c-45.577 0-87.61 11.229-126.094 33.689-38.488 22.459-68.959 52.93-91.424 91.418C11.229 163.599 0 205.631 0 251.203c0 45.573 11.232 87.599 33.689 126.093 22.469 38.48 52.94 68.955 91.425 91.418 38.488 22.463 80.517 33.69 126.094 33.69 45.573 0 87.601-11.228 126.091-33.69 38.482-22.459 68.959-52.933 91.419-91.418 22.456-38.489 33.687-80.523 33.687-126.093-.001-45.576-11.231-87.61-33.682-126.096zM209.339 62.796c0-3.054.981-5.559 2.944-7.521 1.964-1.96 4.474-2.944 7.524-2.944h62.803c3.059 0 5.567.984 7.516 2.944 1.961 1.962 2.948 4.468 2.948 7.521v52.336c0 3.053-.987 5.562-2.948 7.521-1.948 1.961-4.457 2.941-7.516 2.941h-62.803c-3.051 0-5.561-.98-7.524-2.941-1.963-1.959-2.944-4.468-2.944-7.521V62.796zm125.599 345.409c0 3.051-.985 5.562-2.935 7.515-1.958 1.963-4.467 2.941-7.523 2.941H177.944c-3.062 0-5.564-.979-7.524-2.941-1.965-1.958-2.945-4.469-2.945-7.52v-52.336c0-3.06.98-5.559 2.945-7.523 1.96-1.958 4.47-2.943 7.524-2.943h31.395V240.732h-31.395c-3.062 0-5.561-.98-7.524-2.941-1.965-1.961-2.945-4.47-2.945-7.525v-52.331c0-3.054.98-5.56 2.945-7.524 1.963-1.962 4.473-2.942 7.524-2.942h104.667c3.059 0 5.567.98 7.516 2.942 1.961 1.964 2.948 4.47 2.948 7.524v167.467h31.394c3.058 0 5.566.983 7.521 2.943 1.953 1.961 2.941 4.47 2.941 7.522l.007 52.338z"/></symbol><symbol id="icon-logo-full" viewBox="0 0 180 30"><path d="M22.4 23c0 .5-.4 1-1 1H8.6c-.5 0-1-.4-1-1v-8.7c0-.5.4-1 1-1h11.2v-2.5c0-2.4-1.2-3.5-3.9-3.5-5.5 0-5.5 1.7-5.5 2.8v1c0 .3-.2.6-.7.4l-1.6-.6c-.3-.1-.3-.3-.3-.7V10c0-5.4 5.9-5.4 8.1-5.4 4.1 0 6.5 2.2 6.5 6.1V23zM15 0C6.7 0 0 6.7 0 15s6.7 15 15 15 15-6.7 15-15S23.3 0 15 0zm4.3 16h-8.6c-.3 0-.5.2-.5.5v4.4c0 .3.2.5.5.5h8.6c.3 0 .5-.2.5-.5v-4.4c0-.3-.2-.5-.5-.5z" fill="#fbb720" fill-rule="nonzero" class="logo-mark"/><g class="logo-name" fill-rule="nonzero"><path d="M46.5 15.8l-2.1-5-2.1 5h4.2zm-3.6-9.1H46l6.6 15.6H49l-1.4-3.5h-6.5l-1.4 3.5h-3.5l6.7-15.6zM52.6 14.5c0-4.4 3.3-8 8.1-8 2.9 0 4.7 1 6.1 2.4l-2.2 2.5c-1.2-1.1-2.4-1.7-4-1.7-2.6 0-4.5 2.2-4.5 4.8 0 2.7 1.8 4.9 4.5 4.9 1.8 0 2.8-.7 4.1-1.8l2.2 2.2c-1.6 1.7-3.4 2.8-6.3 2.8-4.6-.1-8-3.6-8-8.1zM68.3 14.5c0-4.4 3.3-8 8.1-8 2.9 0 4.7 1 6.1 2.4l-2.2 2.5c-1.2-1.1-2.4-1.7-4-1.7-2.6 0-4.5 2.2-4.5 4.8 0 2.7 1.8 4.9 4.5 4.9 1.8 0 2.8-.7 4.1-1.8l2.2 2.2c-1.6 1.7-3.4 2.8-6.3 2.8-4.6-.1-8-3.6-8-8.1zM85.3 6.8h11.6v3h-8.2v3.1h7.2v3h-7.2v3.3h8.4v3H85.3V6.8zM99.5 20l2-2.4c1.4 1.1 2.8 1.9 4.6 1.9 1.4 0 2.2-.6 2.2-1.5s-.5-1.3-3.1-2c-3.1-.8-5.1-1.7-5.1-4.7 0-2.8 2.3-4.7 5.4-4.7 2.3 0 4.2.7 5.7 2l-1.8 2.6c-1.4-.9-2.7-1.5-4-1.5-1.3 0-2 .6-2 1.3 0 1 .7 1.3 3.3 2 3.1.8 4.9 1.9 4.9 4.6 0 3.1-2.3 4.8-5.7 4.8-2.2 0-4.6-.8-6.4-2.4zM113.8 20l2-2.4c1.4 1.1 2.8 1.9 4.6 1.9 1.4 0 2.2-.6 2.2-1.5s-.5-1.3-3.1-2c-3.1-.8-5.1-1.7-5.1-4.7 0-2.8 2.3-4.7 5.4-4.7 2.3 0 4.2.7 5.7 2l-1.8 2.6c-1.4-.9-2.7-1.5-4-1.5-1.3 0-2 .6-2 1.3 0 1 .7 1.3 3.3 2 3.1.8 4.9 1.9 4.9 4.6 0 3.1-2.3 4.8-5.7 4.8-2.2 0-4.5-.8-6.4-2.4zM134.4 6.8h3.2l7.2 9.5V6.8h3.4v15.4h-2.9l-7.5-9.8v9.8h-3.4V6.8zM155.9 16.1l-6-9.3h4l3.7 6.2 3.8-6.2h3.8l-5.9 9.3v6.1h-3.4v-6.1zM165 14.5c0-4.4 3.3-8 8.1-8 2.9 0 4.7 1 6.1 2.4l-2.2 2.5c-1.2-1.1-2.4-1.7-4-1.7-2.6 0-4.5 2.2-4.5 4.8 0 2.7 1.8 4.9 4.5 4.9 1.8 0 2.8-.7 4.1-1.8l2.2 2.2c-1.6 1.7-3.4 2.8-6.3 2.8-4.6-.1-8-3.6-8-8.1z"/><path d="M46.5 15.8l-2.1-5-2.1 5h4.2zm-3.6-9.1H46l6.6 15.6H49l-1.4-3.5h-6.5l-1.4 3.5h-3.5l6.7-15.6zM52.6 14.5c0-4.4 3.3-8 8.1-8 2.9 0 4.7 1 6.1 2.4l-2.2 2.5c-1.2-1.1-2.4-1.7-4-1.7-2.6 0-4.5 2.2-4.5 4.8 0 2.7 1.8 4.9 4.5 4.9 1.8 0 2.8-.7 4.1-1.8l2.2 2.2c-1.6 1.7-3.4 2.8-6.3 2.8-4.6-.1-8-3.6-8-8.1zM68.3 14.5c0-4.4 3.3-8 8.1-8 2.9 0 4.7 1 6.1 2.4l-2.2 2.5c-1.2-1.1-2.4-1.7-4-1.7-2.6 0-4.5 2.2-4.5 4.8 0 2.7 1.8 4.9 4.5 4.9 1.8 0 2.8-.7 4.1-1.8l2.2 2.2c-1.6 1.7-3.4 2.8-6.3 2.8-4.6-.1-8-3.6-8-8.1zM85.3 6.8h11.6v3h-8.2v3.1h7.2v3h-7.2v3.3h8.4v3H85.3V6.8zM99.5 20l2-2.4c1.4 1.1 2.8 1.9 4.6 1.9 1.4 0 2.2-.6 2.2-1.5s-.5-1.3-3.1-2c-3.1-.8-5.1-1.7-5.1-4.7 0-2.8 2.3-4.7 5.4-4.7 2.3 0 4.2.7 5.7 2l-1.8 2.6c-1.4-.9-2.7-1.5-4-1.5-1.3 0-2 .6-2 1.3 0 1 .7 1.3 3.3 2 3.1.8 4.9 1.9 4.9 4.6 0 3.1-2.3 4.8-5.7 4.8-2.2 0-4.6-.8-6.4-2.4zM113.8 20l2-2.4c1.4 1.1 2.8 1.9 4.6 1.9 1.4 0 2.2-.6 2.2-1.5s-.5-1.3-3.1-2c-3.1-.8-5.1-1.7-5.1-4.7 0-2.8 2.3-4.7 5.4-4.7 2.3 0 4.2.7 5.7 2l-1.8 2.6c-1.4-.9-2.7-1.5-4-1.5-1.3 0-2 .6-2 1.3 0 1 .7 1.3 3.3 2 3.1.8 4.9 1.9 4.9 4.6 0 3.1-2.3 4.8-5.7 4.8-2.2 0-4.5-.8-6.4-2.4zM134.4 6.8h3.2l7.2 9.5V6.8h3.4v15.4h-2.9l-7.5-9.8v9.8h-3.4V6.8zM155.9 16.1l-6-9.3h4l3.7 6.2 3.8-6.2h3.8l-5.9 9.3v6.1h-3.4v-6.1zM165 14.5c0-4.4 3.3-8 8.1-8 2.9 0 4.7 1 6.1 2.4l-2.2 2.5c-1.2-1.1-2.4-1.7-4-1.7-2.6 0-4.5 2.2-4.5 4.8 0 2.7 1.8 4.9 4.5 4.9 1.8 0 2.8-.7 4.1-1.8l2.2 2.2c-1.6 1.7-3.4 2.8-6.3 2.8-4.6-.1-8-3.6-8-8.1z"/></g></symbol><symbol id="icon-logo-mark" viewBox="0 0 30 30"><path d="M22.4 23c0 .5-.4 1-1 1H8.6c-.5 0-1-.4-1-1v-8.7c0-.5.4-1 1-1h11.2v-2.5c0-2.4-1.2-3.5-3.9-3.5-5.5 0-5.5 1.7-5.5 2.8v1c0 .3-.2.6-.7.4l-1.6-.6c-.3-.1-.3-.3-.3-.7V10c0-5.4 5.9-5.4 8.1-5.4 4.1 0 6.5 2.2 6.5 6.1V23zM15 0C6.7 0 0 6.7 0 15s6.7 15 15 15 15-6.7 15-15S23.3 0 15 0zm4.3 16h-8.6c-.3 0-.5.2-.5.5v4.4c0 .3.2.5.5.5h8.6c.3 0 .5-.2.5-.5v-4.4c0-.3-.2-.5-.5-.5z" fill="#fbb720" fill-rule="nonzero"/></symbol><symbol id="icon-logo-nyc" viewBox="0 0 350 117"><g fill="#231f20" fill-rule="nonzero"><path d="M327.9 0H255l-21.8 21.9v72.8l21.8 21.9h72.9l21.8-21.9V72.9l-7.2-7.3H306v7.3h-29.1V43.7H306v7.2h36.5l7.2-7.2V21.9L327.9 0zM109.3 0H80.1l-7.2 7.3v29.1L36.4 0H7.3L0 7.3v102l7.3 7.3h29.1l7.3-7.3V80.1l36.4 36.5h29.2l7.3-7.3V7.3L109.3 0zM160.3 116.6h29.1l7.3-7.3V87.4L233.2 51V7.3L225.9 0h-29.2l-7.3 7.3v14.6l-14.5 14.5-14.6-14.5V7.3L153 0h-29.1l-7.3 7.3V51L153 87.4v21.9l7.3 7.3z"/></g></symbol><symbol id="icon-minus" viewBox="0 0 33 33"><g fill="#112e51"><path fill-rule="nonzero" d="M8.2 14.5h15.9v3.2H8.2z"/><path d="M16.294.039a15.935 15.935 0 0 1 6.653 1.507 16.175 16.175 0 0 1 5.136 3.819 16.383 16.383 0 0 1 3.187 5.283c.66 1.796.998 3.707.988 5.621a15.943 15.943 0 0 1-.235 2.653 16.054 16.054 0 0 1-6.161 10.027 16.32 16.32 0 0 1-4.9 2.526 16.179 16.179 0 0 1-4.683.749 13.679 13.679 0 0 1-2.661-.231c-.114-.022-.228-.048-.342-.07-.135-.027-.271-.049-.406-.076a15.92 15.92 0 0 1-2.542-.727A15.836 15.836 0 0 1 5.48 28.2a16.083 16.083 0 0 1-5.162-9.053 16.033 16.033 0 0 1-.241-4.149c.123-1.696.51-3.374 1.154-4.948a15.976 15.976 0 0 1 2.926-4.643 16.378 16.378 0 0 1 4.927-3.714A16.203 16.203 0 0 1 13.527.261a16.74 16.74 0 0 1 2.167-.215c.2-.005.4-.007.6-.007zm-.354 1.687a14.453 14.453 0 0 0-4.774.868A14.562 14.562 0 0 0 7.132 4.84a14.288 14.288 0 0 0-3.208 3.551 14.097 14.097 0 0 0-2.001 5.23 14.76 14.76 0 0 0-.211 3.092 14.42 14.42 0 0 0 1.034 4.805 14.6 14.6 0 0 0 2.999 4.642 14.425 14.425 0 0 0 4.573 3.212 14.448 14.448 0 0 0 5.855 1.227 14.423 14.423 0 0 0 5.826-1.249 14.624 14.624 0 0 0 4.286-2.916 14.454 14.454 0 0 0 2.702-3.649 14.458 14.458 0 0 0 1.555-7.912 14.447 14.447 0 0 0-1.192-4.572 14.626 14.626 0 0 0-3.163-4.532 14.304 14.304 0 0 0-7.144-3.776c-.183-.038-.184-.035-.367-.07-.084-.017-.167-.036-.252-.051a8.115 8.115 0 0 0-.496-.074 12.9 12.9 0 0 0-1.213-.07 40.043 40.043 0 0 0-.775-.002z"/></g></symbol><symbol id="icon-plus" viewBox="0 0 33 33"><g fill="#112e51"><path d="M14.4 17.7H9v-3.2h5.5V8.8h3.4v5.7h5.5v3.2h-5.5v5.7h-3.4v-5.7h-.1z" fill-rule="nonzero"/><path d="M16.294.039a15.935 15.935 0 0 1 6.653 1.507 16.175 16.175 0 0 1 5.136 3.819 16.383 16.383 0 0 1 3.187 5.283c.66 1.796.998 3.707.988 5.621a15.943 15.943 0 0 1-.235 2.653 16.054 16.054 0 0 1-6.161 10.027 16.32 16.32 0 0 1-4.9 2.526 16.179 16.179 0 0 1-4.683.749 13.679 13.679 0 0 1-2.661-.231c-.114-.022-.228-.048-.342-.07-.135-.027-.271-.049-.406-.076a15.92 15.92 0 0 1-2.542-.727A15.836 15.836 0 0 1 5.48 28.2a16.083 16.083 0 0 1-5.162-9.053 16.033 16.033 0 0 1-.241-4.149c.123-1.696.51-3.374 1.154-4.948a15.976 15.976 0 0 1 2.926-4.643 16.378 16.378 0 0 1 4.927-3.714A16.203 16.203 0 0 1 13.527.261a16.74 16.74 0 0 1 2.167-.215c.2-.005.4-.007.6-.007zm-.354 1.687a14.453 14.453 0 0 0-4.774.868A14.562 14.562 0 0 0 7.132 4.84a14.288 14.288 0 0 0-3.208 3.551 14.097 14.097 0 0 0-2.001 5.23 14.76 14.76 0 0 0-.211 3.092 14.42 14.42 0 0 0 1.034 4.805 14.6 14.6 0 0 0 2.999 4.642 14.425 14.425 0 0 0 4.573 3.212 14.448 14.448 0 0 0 5.855 1.227 14.423 14.423 0 0 0 5.826-1.249 14.624 14.624 0 0 0 4.286-2.916 14.454 14.454 0 0 0 2.702-3.649 14.458 14.458 0 0 0 1.555-7.912 14.447 14.447 0 0 0-1.192-4.572 14.626 14.626 0 0 0-3.163-4.532 14.304 14.304 0 0 0-7.144-3.776c-.183-.038-.184-.035-.367-.07-.084-.017-.167-.036-.252-.051a8.115 8.115 0 0 0-.496-.074 12.9 12.9 0 0 0-1.213-.07 40.043 40.043 0 0 0-.775-.002z"/></g></symbol><symbol id="icon-printer" viewBox="0 0 3000 2750"><g fill="#505c66" fill-rule="nonzero"><path d="M912.213 1.962c-9.904 2.571-18.666 6.762-27.238 13.143-5.238 3.809-63.714 64.095-206.285 212.857-173.714 181.333-199.905 208.285-207.428 213.333-14.953 10.286-25.334 25.238-30.667 44.19l-2.191 8-.381 102.667-.285 102.666-117.143.381c-116 .381-117.428.381-129.714 2.572-31.429 5.619-57.429 15.524-82.476 31.428-56.191 35.619-93.524 92.476-104.667 159.715-1.047 6.38-2.381 19.904-2.952 29.999-.667 12.286-.953 170.953-.667 472 .286 427.142.381 454.285 2.095 465.523 7.81 53.143 28.857 97.429 63.619 133.81 33.048 34.571 73.905 56.476 123.048 65.904 11.333 2.096 12.857 2.191 130.19 2.572l118.762.286.286 309.237.285 309.238 2.191 8.476c6.476 24.667 18.762 42.762 37.619 55.905l5.905 4.095h2038.28l7.429-4.952c15.238-10 30.381-28 36.857-43.619 4.095-10 6-17.714 7.143-28.476.571-6.095.952-116.667.952-309.619v-300.19l112.286-.381c110.666-.381 112.476-.476 123.809-2.572 49.048-9.428 89.905-31.333 122.952-65.904 34.762-36.381 55.81-80.667 63.619-133.81 1.715-11.238 1.81-38.381 2.096-465.523.285-301.047 0-459.714-.667-472-.571-10.095-1.905-23.619-2.952-29.999-11.143-67.239-48.476-124.096-104.667-159.715-25.047-15.904-51.047-25.809-82.381-31.428-12.381-2.191-13.714-2.191-129.809-2.572l-117.238-.381-.286-309.142-.286-309.238-2.095-8.476c-9.143-36.667-32.381-61.714-64.762-70-7.904-2-9.047-2-791.523-1.905-759.808 0-783.713.096-790.666 1.905zm1450.67 507.523v324.476H611.837l.095-140.762V552.438L963.36 185.009h699.714l699.809-.095v324.571zm-1924.76 402.19c.381 24.858.666 27.524 3.047 36.762 9.619 36.191 34.286 59.81 72 68.762l9.143 2.191 974.571.285c662.951.286 977.808 0 984.856-.666 5.809-.572 13.809-2 17.904-3.143 31.619-8.857 59.048-34.095 69.334-63.905 4.095-11.619 5.047-19.048 5.619-43.238l.476-23.809 103.143.285 103.142.286 6 2.857c7.429 3.714 18.191 14.191 22.096 21.619l2.857 5.524v910.951l-2.191 4.762c-4.666 10.191-11.809 16.286-23.333 19.905-5.905 1.81-10.952 1.905-115.428 1.81h-109.334l-.476-26.667c-.381-22.857-.762-28-2.571-35.333-4.762-19.048-13.715-34.667-26.953-47.048-12.381-11.524-26.476-18.952-44.285-23.143l-9.429-2.286H1489.36c-956.952 0-989.237.096-995.999 1.905-9.524 2.476-23.619 9.334-31.715 15.524-16.571 12.571-28.761 33.048-33.809 56.762-1.619 7.809-2.19 15.048-2.667 35.143l-.666 25.238-103.048-.286-103.143-.286-6.476-3.428c-8.286-4.476-17.905-14.095-21.619-21.619l-2.857-5.905-.286-446.571c-.285-444.38-.285-446.476 1.715-454.38 3.619-14.286 13.619-27.048 25.428-32.667l6.095-2.857H328.98l108.667-.095.476 26.761zm1936.76 1334.76v318.476H624.884v-636.952h1750v318.476z"/><path d="M819.928 2015.01c-15.048 3.904-28.095 11.904-39.429 24-13.143 14-24.285 35.619-28.095 54.381-9.809 47.428 23.048 103.333 67.238 114.666 7.333 1.905 16.952 1.905 536.571 1.905 528.571 0 529.142 0 537.619-2 31.904-7.714 57.238-34.762 65.047-69.619 3.81-17.524 3.619-39.143-.667-56.191-7.238-28.857-27.428-53.047-52.761-63.238-16.191-6.476 28.476-6-550.476-5.904-518.381.095-527.809.095-535.047 2zM807.737 2284.91c-29.619 7.905-54.381 34-65.238 68.571-11.143 35.524-.762 77.905 24.857 101.334 16.096 14.762 35.81 22.952 59.81 25.143 14.667 1.333 1366 1.333 1379.9 0 38.667-3.715 72.857-29.715 86.381-65.81 4.095-10.762 5.524-19.619 5.429-33.714-.096-47.429-27.048-83.048-71.524-94.571l-9.048-2.381-701.999-.191c-671.999-.19-702.285-.095-708.571 1.619z"/></g></symbol><symbol id="icon-screening" viewBox="0 0 21 20"><g fill="#fff" fill-rule="nonzero"><path d="M17.5 19.9l-4.7-4.7c-1.3.8-2.8 1.3-4.5 1.3-4.6 0-8.3-3.7-8.3-8.2C0 3.7 3.7 0 8.3 0c4.6 0 8.3 3.7 8.3 8.3 0 1.6-.4 3.1-1.2 4.3l4.8 4.8c.3.2 0 .9-.5 1.4l-.7.7c-.6.4-1.2.6-1.5.4zM13.8 8.3c0-3-2.5-5.5-5.5-5.5S2.8 5.3 2.8 8.3s2.5 5.5 5.5 5.5 5.5-2.5 5.5-5.5z"/><path d="M12 6.7H7.4c-.2 0-.3-.1-.3-.3 0-.2.1-.3.3-.3H12c.2 0 .3.1.3.3 0 .2-.2.3-.3.3zM5.7 6.7h-.6c-.1 0-.3-.1-.3-.3 0-.2.1-.3.3-.3h.6c.2 0 .3.1.3.3 0 .2-.1.3-.3.3zM12 8.6H7.4c-.2 0-.3-.1-.3-.3 0-.2.1-.3.3-.3H12c.2 0 .3.1.3.3 0 .2-.2.3-.3.3zM5.7 8.6h-.6c-.1 0-.3-.1-.3-.3 0-.2.2-.3.3-.3h.6c.2 0 .3.1.3.3 0 .2-.1.3-.3.3z"/><g><path d="M12 10.5H7.4c-.2 0-.3-.1-.3-.3 0-.2.1-.3.3-.3H12c.2 0 .3.1.3.3 0 .2-.2.3-.3.3zM5.7 10.5h-.6c-.2 0-.3-.1-.3-.3 0-.2.2-.3.3-.3h.6c.2 0 .3.1.3.3 0 .2-.1.3-.3.3z"/></g></g></symbol><symbol id="icon-search" viewBox="0 0 16 16"><path d="M13.7 15.9L10 12.1c-1 .7-2.2 1.1-3.5 1.1-3.6 0-6.5-3-6.5-6.6C0 3 2.9 0 6.5 0S13 3 13 6.6c0 1.3-.3 2.5-1 3.5l3.7 3.8c.2.2 0 .7-.4 1.1l-.6.6c-.3.3-.8.5-1 .3zm-2.9-9.3c0-2.4-1.9-4.4-4.3-4.4s-4.3 2-4.3 4.4C2.2 9 4.1 11 6.5 11c2.3 0 4.3-2 4.3-4.4z" fill-rule="nonzero"/></symbol><symbol id="icon-share" viewBox="0 0 23 17"><path d="M0 0v16.1h23V0H0zm1.4 1.4h20.1v.7l-10 6.5L1.4 2.1v-.7zm10.1 9l1.7-1.1 6.9 5.4H2.8l6.9-5.5 1.8 1.2zM8.4 8.3l-7 5.5v-10l7 4.5zM21.6 14l-7-5.6 7-4.6V14z" fill="#505c66" fill-rule="nonzero"/></symbol><symbol id="icon-special-needs" viewBox="0 0 20 21"><g fill="#118df0" fill-rule="nonzero"><path d="M10.3.1l3.8 3 4.6-1.4-1.6 4.5 2.8 3.9L15 10l-2.8 3.8-1.3-4.6-4.6-1.6 4-2.6V.1zM3.3 10.6L6 12.8l3.3-1.1L8.1 15l2 2.8-3.4-.1-2.1 2.8-1-3.4L.3 16l2.9-1.9.1-3.5z"/></g></symbol><symbol id="icon-success" viewBox="0 0 500 500"><path d="M468.011 124.918c-22.429-38.426-52.854-68.851-91.279-91.279C338.295 11.211 296.338 0 250.829 0c-45.506 0-87.475 11.211-125.903 33.639-38.43 22.425-68.854 52.85-91.283 91.279C11.211 163.35 0 205.319 0 250.82c0 45.506 11.215 87.467 33.639 125.903 22.429 38.422 52.854 68.851 91.283 91.279 38.432 22.427 80.397 33.639 125.902 33.639 45.506 0 87.475-11.212 125.903-33.639 38.426-22.425 68.851-52.854 91.279-91.279 22.423-38.433 33.635-80.401 33.635-125.903.001-45.505-11.211-87.476-33.63-125.902zM413.46 212.61L236.125 389.947c-4.138 4.138-9.143 6.209-15.024 6.209-5.661 0-10.558-2.071-14.696-6.209L88.175 271.725c-3.915-3.924-5.876-8.813-5.876-14.695 0-6.097 1.956-11.107 5.876-15.028l29.72-29.391c4.142-4.136 9.035-6.205 14.699-6.205s10.563 2.069 14.7 6.205l73.811 73.811 133.25-132.924c4.136-4.138 9.035-6.207 14.695-6.207 5.654 0 10.562 2.069 14.695 6.207l29.72 29.395c3.925 3.917 5.88 8.923 5.88 15.019.001 5.88-1.956 10.779-5.885 14.698z"/></symbol><symbol id="icon-urgent" viewBox="0 0 500 500"><path d="M468.573 124.42c-22.34-38.272-52.643-68.576-90.916-90.916C339.375 11.167 297.585 0 252.257 0c-45.324 0-87.122 11.167-125.401 33.504-38.277 22.336-68.58 52.64-90.919 90.916C13.595 162.699 2.428 204.5 2.428 249.821s11.171 87.118 33.504 125.401c22.339 38.265 52.643 68.576 90.919 90.915 38.279 22.338 80.077 33.505 125.401 33.505s87.126-11.167 125.4-33.505c38.273-22.335 68.576-52.643 90.916-90.915 22.334-38.283 33.501-80.084 33.501-125.401.001-45.321-11.166-87.128-33.496-125.401zM293.896 405.632c0 3.039-.982 5.582-2.932 7.643-1.948 2.061-4.336 3.086-7.159 3.086h-62.457c-2.817 0-5.312-1.082-7.48-3.25-2.17-2.168-3.252-4.663-3.252-7.479V343.83c0-2.818 1.082-5.314 3.252-7.482 2.167-2.167 4.663-3.249 7.48-3.249h62.457c2.823 0 5.215 1.031 7.159 3.086 1.949 2.068 2.932 4.608 2.932 7.646v61.801zm-.655-111.897c-.22 2.168-1.354 4.069-3.409 5.692-2.064 1.626-4.609 2.438-7.643 2.438h-60.181c-3.038 0-5.64-.812-7.808-2.438-2.17-1.623-3.255-3.524-3.255-5.692l-5.529-202.007c0-2.606 1.082-4.554 3.25-5.856 2.172-1.733 4.774-2.603 7.81-2.603h71.57c3.039 0 5.638.866 7.806 2.603 2.168 1.303 3.246 3.254 3.246 5.856l-5.857 202.007z"/></symbol><symbol id="icon-warning" viewBox="0 0 500 500"><path d="M496.535 430.03L281.516 35.808c-3.175-5.786-7.562-10.36-13.169-13.717-5.595-3.361-11.664-5.042-18.196-5.042-6.533 0-12.602 1.685-18.2 5.042-5.598 3.357-9.987 7.932-13.159 13.717L3.766 430.03c-6.534 11.763-6.348 23.522.559 35.281 3.176 5.41 7.516 9.706 13.021 12.874 5.509 3.177 11.434 4.767 17.782 4.767h430.05c6.354 0 12.276-1.59 17.785-4.767 5.509-3.168 9.841-7.464 13.021-12.874 6.906-11.762 7.091-23.518.551-35.281zm-210.538-28.001c0 2.611-.891 4.805-2.656 6.576-1.773 1.774-3.874 2.656-6.303 2.656H223.28c-2.426 0-4.527-.882-6.299-2.656-1.774-1.775-2.66-3.965-2.66-6.576v-53.198c0-2.611.886-4.801 2.66-6.576 1.772-1.774 3.869-2.656 6.299-2.656h53.753c2.43 0 4.53.882 6.303 2.656 1.771 1.775 2.658 3.965 2.658 6.576v53.198h.003zm-.557-104.712c-.193 1.866-1.174 3.405-2.942 4.62-1.776 1.215-3.967 1.817-6.581 1.817h-51.799c-2.611 0-4.851-.605-6.719-1.817-1.869-1.219-2.8-2.754-2.8-4.626l-4.759-127.946c0-2.616.935-4.574 2.8-5.879 2.426-2.052 4.667-3.079 6.722-3.079h61.596c2.056 0 4.296 1.023 6.722 3.079 1.866 1.306 2.794 3.079 2.794 5.319l-5.034 128.512z"/></symbol><symbol id="icon-work" viewBox="0 0 20 21"><g fill="#118df0"><path d="M.5 17.3v-.7c0-4 3.3-7.3 7.3-7.3s7.3 3.3 7.3 7.3v.7" fill-rule="nonzero"/><circle cx="7.8" cy="5" r="5"/></g><circle cx="13.4" cy="14.4" r="6.1" fill="#184e9e"/><path d="M13.4 14.8c-.3 0-.4-.2-.4-.4v-4c0-.2.2-.4.4-.4h.1c.2 0 .4.2.4.4v4c-.2.2-.3.4-.5.4z" fill="#fff" fill-rule="nonzero"/><path d="M15.7 16.7l-.1.1c-.1.1-.3.1-.5 0L13 14.7c-.1-.1-.1-.3 0-.5l.1-.1c.1-.1.3-.1.5 0l2.1 2.1c.2.1.2.3 0 .5z" fill="#fff" fill-rule="nonzero"/></symbol></svg>