<svg width="724" height="242" viewBox="0 0 724 242" fill="none" xmlns="http://www.w3.org/2000/svg">
<g clip-path="url(#clip0_2024_1450)">
<path d="M654.61 6H564.33C526.3 6 495.47 36.8297 495.47 74.86V165.14C495.47 203.17 526.3 234 564.33 234H654.61C692.64 234 723.47 203.17 723.47 165.14V74.86C723.47 36.8297 692.64 6 654.61 6Z" fill="#1642DF"/>
<path d="M544 118.31C538.59 118.31 534.57 116.48 532 112.83C529.43 109.18 528.08 104.02 528.08 97.37C528.08 90.72 529.38 85.56 532 81.91C534.62 78.26 538.62 76.43 544 76.43C545.881 76.3979 547.753 76.6818 549.54 77.27C552.57 78.2746 555.084 80.4294 556.54 83.27C557.324 84.7986 557.918 86.4173 558.31 88.09L550.19 90.09C549.971 89.1841 549.698 88.2924 549.37 87.42C549.093 86.6637 548.695 85.9577 548.19 85.33C547.697 84.7497 547.083 84.2853 546.39 83.97C545.575 83.6231 544.695 83.456 543.81 83.48C542.8 83.4062 541.79 83.6266 540.903 84.1147C540.016 84.6027 539.289 85.3375 538.81 86.23C537.707 88.6163 537.199 91.2344 537.33 93.86V100.94C537.199 103.562 537.707 106.177 538.81 108.56C539.286 109.455 540.012 110.193 540.9 110.683C541.788 111.173 542.799 111.394 543.81 111.32C544.637 111.392 545.468 111.26 546.232 110.936C546.995 110.611 547.668 110.105 548.19 109.46C549.176 108.031 549.857 106.414 550.19 104.71L558.31 106.71C557.92 108.38 557.326 109.996 556.54 111.52C555.813 112.912 554.841 114.162 553.67 115.21C552.457 116.26 551.046 117.055 549.52 117.55C547.734 118.104 545.869 118.36 544 118.31Z" fill="white"/>
<path d="M565.92 110.88H575.43V94.41H565.92V87.68H584V110.88H592.82V117.61H565.92V110.88ZM579.73 83.88C577.79 83.88 576.45 83.49 575.73 82.7C575.36 82.319 575.069 81.8681 574.875 81.3737C574.681 80.8792 574.588 80.351 574.6 79.82V78.11C574.585 77.5756 574.677 77.0437 574.871 76.5456C575.065 76.0475 575.357 75.5933 575.73 75.21C576.48 74.44 577.82 74.05 579.73 74.05C581.64 74.05 583 74.44 583.73 75.21C584.102 75.5933 584.394 76.0475 584.589 76.5456C584.783 77.0437 584.875 77.5756 584.86 78.11V79.79C584.879 80.8617 584.473 81.8973 583.73 82.67C583 83.46 581.66 83.85 579.73 83.85V83.88Z" fill="white"/>
<path d="M606.41 117.61L595.68 87.68H604.68L608.57 100.5L611.41 110.5H611.88L614.72 100.5L618.6 87.68H627.3L616.57 117.61H606.41Z" fill="white"/>
<path d="M634.36 110.88H643.87V94.41H634.36V87.68H652.46V110.88H661.27V117.61H634.36V110.88ZM648.17 83.88C646.23 83.88 644.89 83.49 644.17 82.7C643.791 82.3171 643.493 81.8625 643.292 81.3628C643.091 80.8632 642.992 80.3285 643 79.79V78.11C642.985 77.5756 643.077 77.0437 643.271 76.5456C643.465 76.0475 643.757 75.5933 644.13 75.21C644.89 74.44 646.23 74.05 648.13 74.05C650.03 74.05 651.4 74.44 652.13 75.21C652.502 75.5933 652.794 76.0475 652.989 76.5456C653.183 77.0437 653.275 77.5756 653.26 78.11V79.79C653.279 80.8617 652.873 81.8973 652.13 82.67C651.44 83.46 650.1 83.85 648.17 83.85V83.88Z" fill="white"/>
<path d="M681.17 118.31C679.005 118.344 676.852 117.978 674.82 117.23C673.019 116.57 671.392 115.51 670.06 114.13C668.723 112.717 667.7 111.037 667.06 109.2C665.673 104.94 665.673 100.35 667.06 96.09C667.703 94.2543 668.725 92.5745 670.06 91.16C671.395 89.7835 673.021 88.7241 674.82 88.06C676.833 87.3221 678.966 86.9627 681.11 87C683.88 86.8706 686.626 87.5666 689 89C690.976 90.3134 692.551 92.1477 693.55 94.3L687 97.89C686.501 96.7871 685.78 95.7996 684.88 94.99C683.819 94.1551 682.487 93.7419 681.14 93.83C680.304 93.7762 679.465 93.9008 678.681 94.1956C677.897 94.4904 677.184 94.9487 676.59 95.54C675.468 96.8284 674.894 98.5042 674.99 100.21V105.08C674.894 106.786 675.468 108.462 676.59 109.75C677.202 110.348 677.934 110.809 678.737 111.104C679.54 111.399 680.396 111.52 681.25 111.46C682.652 111.544 684.039 111.134 685.17 110.3C686.165 109.47 686.984 108.45 687.58 107.3L694 111C692.946 113.168 691.312 115.003 689.28 116.3C686.826 117.736 684.01 118.433 681.17 118.31Z" fill="white"/>
<path d="M564.82 138.26V171.61H556.12V138.26H544.46V131.13H576.46V138.26H564.82Z" fill="white"/>
<path d="M591.44 172.31C586.42 172.31 582.613 170.917 580.02 168.13C577.427 165.343 576.13 161.553 576.13 156.76C576.092 154.526 576.43 152.302 577.13 150.18C577.738 148.33 578.726 146.627 580.03 145.18C581.298 143.801 582.864 142.73 584.61 142.05C586.544 141.314 588.601 140.951 590.67 140.98C592.72 140.953 594.756 141.316 596.67 142.05C598.383 142.72 599.927 143.762 601.19 145.1C602.469 146.478 603.45 148.105 604.07 149.88C604.762 151.904 605.101 154.031 605.07 156.17V158.72H584.66V159.25C584.623 160.109 584.763 160.967 585.071 161.771C585.379 162.574 585.848 163.305 586.45 163.92C587.169 164.549 588.007 165.03 588.913 165.334C589.819 165.638 590.777 165.759 591.73 165.69C593.316 165.741 594.89 165.397 596.31 164.69C597.582 164.02 598.708 163.102 599.62 161.99L604.26 167.04C602.921 168.611 601.26 169.876 599.39 170.75C596.897 171.879 594.175 172.413 591.44 172.31ZM590.75 147.13C589.931 147.092 589.113 147.225 588.349 147.521C587.584 147.818 586.89 148.27 586.31 148.85C585.744 149.471 585.306 150.198 585.023 150.99C584.74 151.781 584.616 152.621 584.66 153.46V153.92H596.72V153.46C596.82 151.765 596.248 150.098 595.13 148.82C594.559 148.248 593.874 147.801 593.119 147.51C592.365 147.219 591.558 147.09 590.75 147.13Z" fill="white"/>
<path d="M625.49 172.31C623.325 172.344 621.172 171.978 619.14 171.23C617.341 170.567 615.714 169.508 614.38 168.13C613.046 166.715 612.024 165.035 611.38 163.2C609.993 158.94 609.993 154.35 611.38 150.09C612.027 148.256 613.048 146.577 614.38 145.16C615.716 143.786 617.343 142.726 619.14 142.06C621.154 141.324 623.286 140.961 625.43 140.99C628.21 140.855 630.967 141.551 633.35 142.99C635.326 144.303 636.901 146.138 637.9 148.29L631.29 151.89C630.789 150.789 630.067 149.802 629.17 148.99C628.109 148.155 626.777 147.742 625.43 147.83C624.594 147.776 623.755 147.901 622.971 148.196C622.187 148.49 621.474 148.949 620.88 149.54C619.758 150.828 619.184 152.504 619.28 154.21V159.08C619.184 160.786 619.758 162.462 620.88 163.75C621.494 164.349 622.227 164.81 623.032 165.105C623.837 165.4 624.695 165.521 625.55 165.46C626.949 165.542 628.332 165.131 629.46 164.3C630.457 163.473 631.277 162.452 631.87 161.3L638.36 165.01C637.307 167.182 635.673 169.019 633.64 170.32C631.17 171.751 628.341 172.442 625.49 172.31Z" fill="white"/>
<path d="M644.28 128.69H652.86V147.13H653.21C653.55 146.296 653.98 145.502 654.49 144.76C655.525 143.216 657.045 142.062 658.81 141.48C659.839 141.144 660.917 140.982 662 141C663.347 140.985 664.685 141.229 665.94 141.72C667.123 142.197 668.177 142.943 669.02 143.9C669.911 144.938 670.591 146.141 671.02 147.44C671.525 148.992 671.769 150.618 671.74 152.25V171.62H663.16V153.4C663.16 149.527 661.477 147.593 658.11 147.6C657.455 147.601 656.802 147.689 656.17 147.86C655.554 148.019 654.973 148.294 654.46 148.67C653.977 149.019 653.581 149.474 653.3 150C652.997 150.59 652.846 151.247 652.86 151.91V171.57H644.28V128.69Z" fill="white"/>
<path d="M26.35 175.62C42.81 175.62 52.19 187.74 52.19 202.96C52.19 218.18 42.79 230.29 26.35 230.29C9.91 230.29 0.5 218.17 0.5 203C0.5 187.83 9.88 175.62 26.35 175.62ZM26.35 218.54C35.17 218.54 38.55 210.82 38.55 202.96C38.55 195.1 35.17 187.37 26.35 187.37C17.53 187.37 14.14 195.09 14.14 203C14.14 210.91 17.53 218.58 26.35 218.58V218.54Z" fill="#1642DF"/>
<path d="M58.3999 191.05H70.3099V195.47H70.4499C71.5821 193.721 73.1504 192.296 75.0002 191.337C76.8501 190.378 78.9178 189.917 80.9999 190C92.9999 190 98.0499 200.22 98.0499 211C98.0499 220.92 92.7599 230.33 81.9499 230.33C79.8344 230.426 77.7279 229.997 75.8177 229.083C73.9075 228.169 72.2525 226.797 70.9999 225.09H70.8599V242H58.3999V191.05ZM70.4499 209.73C70.4499 216.41 72.3499 220.73 78.0199 220.73C83.5299 220.73 85.5099 214.92 85.5099 209.73C85.5099 204.87 83.6699 199.51 78.0899 199.51C74.7899 199.51 70.4499 201.78 70.4499 209.73Z" fill="#1642DF"/>
<path d="M104 191.05H115.9V195.47H116C117.131 193.722 118.698 192.299 120.546 191.34C122.394 190.381 124.46 189.919 126.54 190C138.54 190 143.54 200.22 143.54 211C143.54 220.92 138.25 230.33 127.44 230.33C125.338 230.417 123.246 229.987 121.349 229.077C119.452 228.166 117.808 226.804 116.56 225.11H116.41V242H104V191.05ZM116 209.73C116 216.41 117.89 220.73 123.56 220.73C129.23 220.73 131.06 214.92 131.06 209.73C131.06 204.87 129.22 199.51 123.63 199.51C120.37 199.51 116 201.78 116 209.73Z" fill="#1642DF"/>
<path d="M167.78 190C179.61 190 187.92 198.75 187.92 210.21C187.92 221.67 179.61 230.35 167.78 230.35C155.95 230.35 147.78 221.68 147.78 210.23C147.78 198.78 155.93 190 167.78 190ZM167.78 220.79C173.66 220.79 175.43 215.12 175.43 210.21C175.43 205.3 173.66 199.55 167.78 199.55C161.9 199.55 160.22 205.36 160.22 210.21C160.22 215.06 161.98 220.8 167.78 220.8V220.79Z" fill="#1642DF"/>
<path d="M192.34 191.05H204.47V197.74H204.61C206.46 192.82 210.72 190.32 216.08 190.32C217.068 190.311 218.053 190.409 219.02 190.61V202C217.475 201.509 215.862 201.262 214.24 201.27C208.07 201.27 204.84 205.53 204.84 210.27V229.2H192.34V191.05Z" fill="#1642DF"/>
<path d="M249.16 199.14H241.44V216.48C241.44 219.48 243.21 220.16 245.92 220.16C247.03 220.16 248.05 220.01 249.16 220.01V229.2C246.88 229.27 244.6 229.56 242.32 229.56C231.66 229.56 228.95 226.41 228.95 216.11V199.11H222.64V191.02H229V179.51H241.49V191.05H249.21L249.16 199.14Z" fill="#1642DF"/>
<path d="M293.41 229.2H281.28V224H281.14C279.87 225.925 278.145 227.507 276.119 228.607C274.092 229.708 271.826 230.293 269.52 230.31C258.57 230.31 255.41 224 255.41 213.99V191.05H267.9V213.18C267.9 218.18 270.03 220.01 274.08 220.01C276.72 220.01 280.91 218.25 280.91 211.48V191.05H293.4L293.41 229.2Z" fill="#1642DF"/>
<path d="M301.79 191.05H313.92V196.27H314.07C316.42 192.38 321.49 189.97 326.07 189.97C338.79 189.97 339.81 199.23 339.81 204.75V229.22H327.3V206.93C327.3 203.26 326.04 200.24 321.05 200.24C316.35 200.24 314.29 204.24 314.29 208.4V229.2H301.79V191.05Z" fill="#1642DF"/>
<path d="M360.3 186.28H347.81V176.72H360.3V186.28ZM347.81 191.05H360.3V229.2H347.81V191.05Z" fill="#1642DF"/>
<path d="M392.13 199.14H384.41V216.48C384.41 219.48 386.18 220.16 388.9 220.16C390 220.16 391.03 220.01 392.13 220.01V229.2C389.85 229.27 387.57 229.56 385.3 229.56C374.64 229.56 371.92 226.41 371.92 216.11V199.11H365.62V191.02H371.92V179.51H384.41V191.05H392.13V199.14Z" fill="#1642DF"/>
<path d="M420.36 232.58C417.42 240.96 412.79 241.99 404.41 241.99H398.53V231.84H402.87C405.73 231.84 407.87 230.22 407.87 227.58C407.87 225.53 405.45 219.65 404.72 217.58L394.85 191.04H408.09L415.29 215.89H415.44L422.64 191.04H435.43L420.36 232.58Z" fill="#1642DF"/>
<path d="M426.4 73.68L435.47 64.72V37.5L408.26 10.28H317.53L290.32 37.5V19.36L281.25 10.28H244.96L235.88 19.36V37.5L217.74 55.64L199.59 37.5V19.36L190.52 10.28H154.23L145.16 19.36L136.09 10.28H99.8L90.73 19.36V55.64L45.37 10.28H9.08L0 19.36V146.37L9.08 155.44H45.37L54.44 146.37V110.08L99.8 155.44H136.09L145.16 146.37V73.79L190.52 119.15V146.37L199.59 155.44H235.88L244.96 146.37V119.15L290.32 73.79V128.22L317.53 155.44H408.26L435.47 128.22V101L426.4 91.92H381.04V101H344.75V64.72H381.04V73.68H426.4Z" fill="#1642DF"/>
<path d="M429 16.4C429.85 16.4 430.6 16.32 430.6 15.33C430.6 14.5 429.78 14.4 429.11 14.4H427.74V16.4H429ZM427.74 20.3H426.61V13.44H429.22C430.88 13.44 431.72 14.02 431.72 15.44C431.737 15.6836 431.702 15.928 431.62 16.1576C431.537 16.3873 431.407 16.5972 431.239 16.774C431.07 16.9508 430.867 17.0906 430.642 17.1846C430.416 17.2786 430.174 17.3247 429.93 17.32L431.86 20.32H430.58L428.8 17.39H427.74V20.3ZM429 11.63C428.344 11.6327 427.695 11.7697 427.094 12.0324C426.493 12.295 425.952 12.678 425.504 13.1575C425.056 13.6371 424.711 14.2032 424.491 14.821C424.27 15.4388 424.178 16.0953 424.22 16.75C424.22 19.57 426.05 21.88 429 21.88C429.655 21.8747 430.302 21.7355 430.901 21.4709C431.5 21.2063 432.038 20.8219 432.483 20.3413C432.928 19.8608 433.27 19.2943 433.488 18.6766C433.706 18.059 433.795 17.4034 433.75 16.75C433.792 16.0978 433.701 15.4438 433.482 14.828C433.263 14.2122 432.921 13.6475 432.476 13.1684C432.032 12.6892 431.494 12.3057 430.896 12.0412C430.299 11.7767 429.653 11.6368 429 11.63ZM429 23C428.185 23.0155 427.375 22.8646 426.62 22.5567C425.865 22.2488 425.181 21.7903 424.609 21.2092C424.037 20.628 423.59 19.9364 423.295 19.1766C422.999 18.4168 422.861 17.6048 422.89 16.79C422.89 15.1748 423.532 13.6258 424.674 12.4837C425.816 11.3416 427.365 10.7 428.98 10.7C430.595 10.7 432.144 11.3416 433.286 12.4837C434.428 13.6258 435.07 15.1748 435.07 16.79C435.098 17.6014 434.962 18.4101 434.669 19.1671C434.376 19.9242 433.932 20.6139 433.364 21.1945C432.797 21.775 432.117 22.2344 431.367 22.5448C430.617 22.8551 429.812 23.01 429 23Z" fill="#1642DF"/>
</g>
<defs>
<clipPath id="clip0_2024_1450">
<rect width="723.47" height="242" fill="white"/>
</clipPath>
</defs>
</svg>
