<?xml version="1.0" encoding="utf-8"?>
<!-- Generator: Adobe Illustrator 19.1.0, SVG Export Plug-In . SVG Version: 6.00 Build 0)  -->
<svg version="1.1" id="Layer_1" xmlns="http://www.w3.org/2000/svg" xmlns:xlink="http://www.w3.org/1999/xlink" x="0px" y="0px"
	 viewBox="-78 356.4 453.9 80.6" style="enable-background:new -78 356.4 453.9 80.6;" xml:space="preserve">
<style type="text/css">
	.st0{fill:#0AB3C4;}
	.st1{fill:#23282D;}
</style>
<path class="st0" d="M-15.6,363.8c3.6,0,6.5,2.9,6.5,6.5c0,2.1-0.3,35.8,3,57.8c-18.9-2.6-50.4-2.8-57.5-2.8h-0.5
	c-3.6,0-6.5-2.9-6.5-6.5v-48.5c0-3.6,2.9-6.5,6.5-6.5H-15.6 M-15.6,356.4h-48.5c-7.7,0-13.9,6.2-13.9,13.9v48.5
	c0,7.7,6.2,13.9,13.9,13.9c0,0,0.2,0,0.5,0c5.3,0,49.4,0.1,64.3,4.2c0.1,0,0.3,0.1,0.4,0.1c1,0,1.8-1,1.5-2
	c-4.8-19.8-4.4-64.7-4.4-64.7C-1.7,362.6-7.9,356.4-15.6,356.4L-15.6,356.4z"/>
<path class="st1" d="M41.5,399.1h7.9v9.6c-1.8,0.5-4.3,0.8-6.7,0.8c-3.5,0-5.7-0.6-7.2-2.2c-2-1.9-2.4-6.2-2.4-12.6
	c0-7.8,0.8-10.3,2.2-12c1.4-1.6,3.6-2.4,6.9-2.4c3.9,0,7,1,9.5,3.1l0.1,0.1l4.5-5.6l-0.1-0.1c-3-2.9-7.4-4.3-13.3-4.3
	c-6,0-10.3,1.5-13.3,4.5c-4.3,4.4-4.9,11-4.9,17.4c0,6.9,0.8,12.4,4.8,16.3c2.9,3,7.2,4.4,13.5,4.4c4.9,0,9.8-0.9,13.7-2.5h0.1
	v-21.2H41.5L41.5,399.1L41.5,399.1z M73.5,384.4c-5.2,0-8.9,1.4-11.6,4.3l-0.1,0.1l3.9,4.6l0.1-0.1c1.9-2,4.1-2.8,7.3-2.8
	c3.9,0,5.2,1.3,5.2,5.3v1h-3.6c-4.8,0-8.1,0.8-10.6,2.5s-3.6,4.1-3.6,7.6c0,3,0.8,5.1,2.6,6.8c1.8,1.6,3.9,2.4,6.6,2.4
	c3.9,0,7-1.6,9.1-4.7v4h6.8v-19.6C85.6,388,81.8,384.4,73.5,384.4z M78.3,402.2c-0.3,5.5-4.6,8-7.5,8c-2,0-2.9-1.1-2.9-3.6
	c0-3.7,2.1-4.4,6.2-4.4H78.3z M105.2,408.6c-1.3,0.3-2.9,0.5-4.3,0.5c-3.4,0-3.7-1.2-3.7-4.9v-11.8h8.3v-6.8h-8.3v-7.8h-7.7v26.9
	c0,7,1.6,11.1,10,11.1c2.1,0,4.5-0.3,6.2-0.7h0.1L105.2,408.6L105.2,408.6z M297.7,408.6c-1.3,0.3-2.9,0.5-4.3,0.5
	c-3.4,0-3.7-1.2-3.7-4.9v-11.8h8.3v-6.8h-8.3v-7.8H282v26.9c0,7,1.6,11.1,10,11.1c2.1,0,4.5-0.3,6.2-0.7h0.1L297.7,408.6
	L297.7,408.6z M375.3,408.6h-0.2c-1.3,0.3-2.9,0.5-4.3,0.5c-3.4,0-3.7-1.2-3.7-4.9v-11.8h8.3v-6.8h-8.3v-7.8h-7.7v26.9
	c0,7,1.6,11.1,10,11.1c2.1,0,4.5-0.3,6.2-0.7h0.1L375.3,408.6z M126.7,384.3c-3.9,0-7.2,1.9-8.8,4.9v-15.5h-7.7v41.7h7.7v-11.2
	c0-9.4,3.6-12.8,7-12.8c2.2,0,3.1,1.4,3.1,4.7v19.4h7.7v-20.7C135.6,388.2,132.4,384.3,126.7,384.3z M152.7,384.3
	c-4.4,0-7.8,1.3-10.1,4c-2.5,2.7-3.7,7-3.7,12.7c0,5.7,1.2,9.3,3.9,11.8c2.4,2.3,5.4,3.3,9.6,3.3c5.2,0,9.2-1.6,12.4-5l0.1-0.1
	l-3.9-4.6l-0.1,0.1c-2.5,2.3-5.2,3.4-8.3,3.4c-4.9,0-5.9-2.6-6-7.7l18.4-0.1V402c0.2-1.4,0.3-2.8,0.3-3.9
	C165.2,386.7,158.4,384.3,152.7,384.3z M146.7,396.6c0.2-4.4,1.9-6.3,5.8-6.3c3.2,0,5.1,1,5.1,6.3H146.7z M183.9,384.3
	c-3.5,0-6.3,1.9-8,5.5l0.1-4.7h-7.3v30.3h7.7v-10.8c0-8,2.6-12.7,7-12.7c0.9,0,2,0.2,2.4,0.5h0.2l1.5-7.3h-0.1
	C186.5,384.6,185.2,384.3,183.9,384.3z M214.9,404.9c-2.6,2.9-5.6,4.4-9.1,4.4c-2.4,0-4.1-0.7-5.3-2.2c-1.6-2-2.3-5.6-2.3-12
	c0-6.2,0.6-10.2,1.9-12.1c1.2-1.8,3.3-2.7,6.4-2.7c3.3,0,6,1,8.1,3.1l0.1,0.1l4.4-5.4L219,378c-2.8-3.1-6.9-4.6-12.3-4.6
	c-5.2,0-9.1,1.4-11.9,4.3c-3.5,3.7-5,9-5,17.4c0,10.9,2.8,15,4.9,17.2c2.6,2.7,6.2,4,10.9,4c5.8,0,10.4-2.1,13.9-6.4l0.1-0.1
	L214.9,404.9L214.9,404.9z M235.6,384.3c-4.4,0-7.8,1.2-10.2,3.7c-2.7,2.7-3.9,6.5-3.9,12.8c0,5,0.6,8.9,3.7,11.9
	c2.5,2.4,5.6,3.5,9.8,3.5c4.4,0,7.6-1.2,10.2-3.9c2.7-2.8,3.8-6.4,3.8-12.5c0-5.1-0.6-9-3.7-12C242.9,385.4,239.8,384.3,235.6,384.3
	z M239.3,408.1c-0.5,0.6-1.7,1.6-4.2,1.6c-1.8,0-3.2-0.5-4-1.4c-1.2-1.3-1.8-4-1.8-7.8c0-3.9,0.6-6.7,1.8-8.1c0.9-1,2.3-1.6,4.2-1.6
	c1.9,0,3.2,0.5,4,1.4c1.1,1.2,1.8,4,1.8,7.8C241.2,403.9,240.5,406.7,239.3,408.1z M269.1,384.3c-4.2,0-7.3,1.9-9.2,5.5V385h-7.3
	v30.3h7.7V404c0-9.3,3.6-12.6,7-12.6c2.2,0,3.1,1.4,3.1,5v19.1h7.7v-20.7C278.1,388.2,274.8,384.3,269.1,384.3z M313.7,384.3
	c-4.4,0-7.8,1.3-10.1,4c-2.5,2.7-3.7,7-3.7,12.7c0,5.7,1.2,9.3,3.9,11.8c2.4,2.3,5.4,3.3,9.6,3.3c5.2,0,9.2-1.6,12.4-5l0.1-0.1
	l-3.9-4.6l-0.1,0.1c-2.5,2.3-5.2,3.4-8.3,3.4c-4.9,0-5.9-2.6-6-7.7l18.4-0.1V402c0.2-1.4,0.3-2.8,0.3-3.9
	C326.3,386.7,319.5,384.3,313.7,384.3z M307.7,396.6c0.2-4.4,1.9-6.3,5.8-6.3c3.2,0,5.1,1,5.1,6.3H307.7z M346.8,384.3
	c-4.2,0-7.3,1.9-9.2,5.5V385h-7.3v30.3h7.7V404c0-9.3,3.6-12.6,7-12.6c2.2,0,3.1,1.4,3.1,5v19.1h7.7v-20.7
	C355.7,388.2,352.5,384.3,346.8,384.3z"/>
<rect x="-61.8" y="378.4" class="st0" width="26.4" height="7.4"/>
<rect x="-61.8" y="390.9" class="st0" width="44" height="7.4"/>
<rect x="-61.8" y="403.5" class="st0" width="35.2" height="7.4"/>
</svg>
