<?xml version="1.0" encoding="utf-8"?>
<!-- Generator: Adobe Illustrator 19.1.0, SVG Export Plug-In . SVG Version: 6.00 Build 0)  -->
<svg version="1.1" id="Layer_1" xmlns="http://www.w3.org/2000/svg" xmlns:xlink="http://www.w3.org/1999/xlink" x="0px" y="0px"
	 viewBox="0 0 36 45" style="enable-background:new 0 0 36 45;" xml:space="preserve">
<style type="text/css">
	.st0{fill:#FFFFFF;}
</style>
<path class="st0" d="M23.1,1.7c0.8,0,1.5,0.7,1.5,1.5c0,0.5-0.1,8.3,0.7,13.4C20.9,16,13.6,16,12,16h-0.1c-0.8,0-1.5-0.7-1.5-1.5
	V3.2c0-0.8,0.7-1.5,1.5-1.5L23.1,1.7 M23.1,0H11.9c-1.8,0-3.2,1.4-3.2,3.2v11.2c0,1.8,1.4,3.2,3.2,3.2c0,0,0,0,0.1,0
	c1.2,0,11.5,0,14.9,1c0,0,0.1,0,0.1,0c0.2,0,0.4-0.2,0.3-0.5c-1.1-4.6-1-15-1-15C26.3,1.4,24.9,0,23.1,0L23.1,0z"/>
<rect x="12.4" y="5.1" class="st0" width="6.1" height="1.7"/>
<rect x="12.4" y="8" class="st0" width="10.2" height="1.7"/>
<rect x="12.4" y="10.9" class="st0" width="8.2" height="1.7"/>
</svg>
