<svg viewBox="0 0 20 21" xmlns="http://www.w3.org/2000/svg" fill-rule="evenodd" clip-rule="evenodd" stroke-linejoin="round" stroke-miterlimit="1.414"><g fill-rule="nonzero"><path d="M11.2 2.5C10.1.4 7.6-.2 5.5.4c.5 2.1 2.3 3.8 4.6 3.8-.7.7-.8 1.4-.1 2 .6-1.5 2.1-3.1 3.4-4-.3-.4-.6-.7-.9-1.1-.4.4-.9.9-1.3 1.4z" fill="#184e9e"/><path d="M13.9 3.7c-1.8 0-3.3.9-3.9 2.4-.7-1.5-2.1-2.4-3.9-2.4-9.3 0-5.9 17.9 2.4 16.7.7-.1 1.2-.3 1.5-.7.3.3.8.6 1.5.7 8.3 1.2 11.7-16.7 2.4-16.7zM5.4 6.9c-1.6.6-2.3 2.4-1.6 4 .1.3 0 .7-.3.8h-.2c-.2 0-.5-.1-.6-.4-.9-2.1.1-4.6 2.3-5.5.3-.1.7 0 .8.3.1.3-.1.7-.4.8z" fill="#118df0"/></g></svg>