<svg viewBox="0 0 30 30" xmlns="http://www.w3.org/2000/svg" fill-rule="evenodd" clip-rule="evenodd" stroke-linejoin="round" stroke-miterlimit="1.414"><path d="M22.4 23c0 .5-.4 1-1 1H8.6c-.5 0-1-.4-1-1v-8.7c0-.5.4-1 1-1h11.2v-2.5c0-2.4-1.2-3.5-3.9-3.5-5.5 0-5.5 1.7-5.5 2.8v1c0 .3-.2.6-.7.4l-1.6-.6c-.3-.1-.3-.3-.3-.7V10c0-5.4 5.9-5.4 8.1-5.4 4.1 0 6.5 2.2 6.5 6.1V23zM15 0C6.7 0 0 6.7 0 15s6.7 15 15 15 15-6.7 15-15S23.3 0 15 0zm4.3 16h-8.6c-.3 0-.5.2-.5.5v4.4c0 .3.2.5.5.5h8.6c.3 0 .5-.2.5-.5v-4.4c0-.3-.2-.5-.5-.5z" fill="#fbb720" fill-rule="nonzero"/></svg>