<svg width="1900" height="1900" xmlns="http://www.w3.org/2000/svg">
 <g>
  <title>Layer 1</title>
  <g id="Слой_x0020_1">
   <metadata transform="translate(4.545379161834717,0) translate(4.545379161834717,0) translate(4.545379161834717,0) translate(4.545379161834717,0) translate(4.545379161834717,0) translate(0,4.545379161834717) translate(0,4.545379161834717) translate(0,4.545379161834717) translate(0,-3736) translate(0,-0.19775390625) translate(-2544,0) translate(-0.43212890625,0) " id="CorelCorpID_0Corel-Layer"/>
   <g id="_2023950051456">
    <g id="svg_1">
     <path fill="#ffffff" id="svg_2" d="m910.35477,806.09838c-55.39,18.28 -101.52,65.48 -107.51,133.61c-8.8,100.09 44.13,106.22 67.85,170.93c18.63,50.81 9.41,168.24 10.19,230.4c0.93,73.58 56.85,135.82 124.67,85.88c47.33,-34.85 33.42,-129.91 33.16,-200.76c-0.46,-127.15 2.46,-105.23 55.43,-184.95c79.44,-119.54 -39.89,-282.59 -183.78,-235.1l-0.01,-0.01z" class="fil1"/>
     <path fill="#ffffff" id="svg_3" d="m855.04477,257.76838c-798.07,127.22 -807.37,1218.74 -75.56,1402.33c43.98,11.04 139.78,28.84 186.72,20.15c66.28,-12.26 72.56,-103.46 15.14,-123.54c-61.47,-21.5 -180.86,4.44 -332.15,-92.77c-407.08,-261.53 -363.78,-865.57 101.31,-1044.51c111.93,-43.07 247.37,-52.55 370.44,-15.62c52.44,15.74 101.14,38.32 145.4,66.83c31.26,20.14 94.5,88.09 145.16,37.62c84.51,-84.19 -121.76,-179.79 -188.14,-207.57c-106.46,-44.56 -239.56,-63.45 -368.31,-42.93l-0.01,0.01z" class="fil2"/>
     <path fill="#ffffff" id="svg_4" d="m879.43477,495.70838c-462.87,86.36 -495.19,633.63 -227.2,834.27c37.39,27.99 94.58,21.46 108.61,-26.1c27.18,-92.15 -172.08,-120.51 -147.9,-370.31c18.35,-189.6 184.7,-339.82 394.5,-309.85c243.9,34.83 376.5,323.78 233.56,531.58c-20.56,29.89 -78.59,84.3 -83.56,98.11c-17.38,48.38 32.08,177.2 173.71,0.21c262.1,-327.54 -30.23,-836.54 -451.73,-757.9l0.01,-0.01z" class="fil3"/>
     <path fill="#ffffff" id="svg_5" d="m50.99477,1109.69838c-46.58,31.33 -26.28,79.12 -5.09,140.67c102.2,296.76 343.35,522.9 643.33,605.41c168.52,46.35 339.85,42.91 497.42,0.65c81.71,-20.91 62.8,-148.76 -31.87,-124.53c-364.59,97.57 -767.75,-72.95 -942.09,-422.41c-37.76,-75.69 -61.69,-267.04 -161.7,-199.79z" class="fil2"/>
     <path fill="#ffffff" id="svg_6" d="m1034.49477,16.63838c-263.91,-21.87 -519.3,77.52 -713.63,240.35c-48.9,50.91 13.73,140.77 103.06,77.1c204.33,-159.26 365.61,-188.44 607.36,-190.59c91.35,-0.81 107.25,-116.33 3.21,-126.85l0,-0.01z" class="fil2"/>
    </g>
   </g>
  </g>
 </g>
</svg>