<svg viewBox="0 0 21 20" xmlns="http://www.w3.org/2000/svg" fill-rule="evenodd" clip-rule="evenodd" stroke-linejoin="round" stroke-miterlimit="1.414"><g fill="currentColor" fill-rule="nonzero"><path d="M17.5 19.9l-4.7-4.7c-1.3.8-2.8 1.3-4.5 1.3-4.6 0-8.3-3.7-8.3-8.2C0 3.7 3.7 0 8.3 0c4.6 0 8.3 3.7 8.3 8.3 0 1.6-.4 3.1-1.2 4.3l4.8 4.8c.3.2 0 .9-.5 1.4l-.7.7c-.6.4-1.2.6-1.5.4zM13.8 8.3c0-3-2.5-5.5-5.5-5.5S2.8 5.3 2.8 8.3s2.5 5.5 5.5 5.5 5.5-2.5 5.5-5.5z"/><path d="M12 6.7H7.4c-.2 0-.3-.1-.3-.3 0-.2.1-.3.3-.3H12c.2 0 .3.1.3.3 0 .2-.2.3-.3.3zM5.7 6.7h-.6c-.1 0-.3-.1-.3-.3 0-.2.1-.3.3-.3h.6c.2 0 .3.1.3.3 0 .2-.1.3-.3.3zM12 8.6H7.4c-.2 0-.3-.1-.3-.3 0-.2.1-.3.3-.3H12c.2 0 .3.1.3.3 0 .2-.2.3-.3.3zM5.7 8.6h-.6c-.1 0-.3-.1-.3-.3 0-.2.2-.3.3-.3h.6c.2 0 .3.1.3.3 0 .2-.1.3-.3.3z"/><g><path d="M12 10.5H7.4c-.2 0-.3-.1-.3-.3 0-.2.1-.3.3-.3H12c.2 0 .3.1.3.3 0 .2-.2.3-.3.3zM5.7 10.5h-.6c-.2 0-.3-.1-.3-.3 0-.2.2-.3.3-.3h.6c.2 0 .3.1.3.3 0 .2-.1.3-.3.3z"/></g></g></svg>