<svg viewBox="0 0 20 21" xmlns="http://www.w3.org/2000/svg" fill-rule="evenodd" clip-rule="evenodd" stroke-linejoin="round" stroke-miterlimit="1.414"><g fill="#118df0"><path d="M.5 17.3v-.7c0-4 3.3-7.3 7.3-7.3s7.3 3.3 7.3 7.3v.7" fill-rule="nonzero"/><circle cx="7.8" cy="5" r="5"/></g><circle cx="13.4" cy="14.4" r="6.1" fill="#184e9e"/><path d="M13.4 14.8c-.3 0-.4-.2-.4-.4v-4c0-.2.2-.4.4-.4h.1c.2 0 .4.2.4.4v4c-.2.2-.3.4-.5.4z" fill="#fff" fill-rule="nonzero"/><path d="M15.7 16.7l-.1.1c-.1.1-.3.1-.5 0L13 14.7c-.1-.1-.1-.3 0-.5l.1-.1c.1-.1.3-.1.5 0l2.1 2.1c.2.1.2.3 0 .5z" fill="#fff" fill-rule="nonzero"/></svg>