<svg viewBox="0 0 20 21" xmlns="http://www.w3.org/2000/svg" fill-rule="evenodd" clip-rule="evenodd" stroke-linejoin="round" stroke-miterlimit="1.414"><path d="M16.5 14.6c0 2.5-2.1 4.6-4.6 4.6H8c-2.5 0-4.6-2.1-4.6-4.6v-1.9c0-2.5 2.1-4.6 4.6-4.6h3.9c2.5 0 4.6 2.1 4.6 4.6v1.9z" fill="#118df0" fill-rule="nonzero"/><g fill="#118df0" fill-rule="nonzero"><path d="M2.8 8.9c1.1.2 1.9 1.2 1.7 2.2-.2 1-1.2 1.8-2.4 1.6C1 12.5.2 11.5.4 10.5c.2-1 1.3-1.8 2.4-1.6z"/><path d="M6.9 9.5l-.7 3.8-4.1-.6.7-3.8 4.1.6z"/><g><path d="M17.1 8.9c-1.1.2-1.9 1.2-1.7 2.2.2 1 1.2 1.8 2.4 1.6 1.1-.2 1.9-1.2 1.7-2.2-.2-1-1.3-1.8-2.4-1.6z"/><path d="M13 9.5l.7 3.8 4.1-.6-.7-3.8-4.1.6z"/></g></g><ellipse cx="9.9" cy="5.9" rx="5.5" ry="5.1" fill="#118df0"/><ellipse cx="6.2" cy="1.9" rx="2" ry="1.9" fill="#118df0"/><ellipse cx="13.6" cy="1.9" rx="2" ry="1.9" fill="#118df0"/><circle cx="7.8" cy="5.1" r=".8" fill="#fff"/><circle cx="12.1" cy="5.1" r=".8" fill="#fff"/><ellipse cx="9.9" cy="7.1" rx=".9" ry=".5" fill="#184e9e"/><g fill="#184e9e" fill-rule="nonzero"><path d="M7.9 16.6c.6 1.6-.2 3.3-1.6 3.8-1.5.4-3.1-.5-3.7-2.2-.6-1.7.2-3.3 1.6-3.8 1.4-.5 3.1.6 3.7 2.2zM12 16.6c-.6 1.6.2 3.3 1.6 3.8 1.5.4 3.1-.5 3.7-2.2.6-1.7-.2-3.3-1.6-3.8-1.4-.5-3.1.6-3.7 2.2z"/></g></svg>