<?xml version="1.0" encoding="UTF-8"?>
<svg width="350px" height="117px" viewBox="0 0 350 117" version="1.1" xmlns="http://www.w3.org/2000/svg" xmlns:xlink="http://www.w3.org/1999/xlink">
    <!-- Generator: Sketch 49.3 (51167) - http://www.bohemiancoding.com/sketch -->
    <title>icon-logo-nyc</title>
    <desc>Created with Sketch.</desc>
    <defs></defs>
    <g id="Page-1" stroke="none" stroke-width="1" fill="none" fill-rule="evenodd">
        <g id="icon-logo-nyc" fill="#000000">
            <path d="M327.9,0 L255,0 L233.2,21.9 L233.2,94.7 L255,116.6 L327.9,116.6 L349.7,94.7 L349.7,72.9 L342.5,65.6 L306,65.6 L306,72.9 L276.9,72.9 L276.9,43.7 L306,43.7 L306,50.9 L342.5,50.9 L349.7,43.7 L349.7,21.9 L327.9,0 Z M109.3,0 L80.1,0 L72.9,7.3 L72.9,36.4 L36.4,0 L7.3,0 L0,7.3 L0,109.3 L7.3,116.6 L36.4,116.6 L43.7,109.3 L43.7,80.1 L80.1,116.6 L109.3,116.6 L116.6,109.3 L116.6,7.3 L109.3,0 Z M160.3,116.6 L189.4,116.6 L196.7,109.3 L196.7,87.4 L233.2,51 L233.2,7.3 L225.9,0 L196.7,0 L189.4,7.3 L189.4,21.9 L174.9,36.4 L160.3,21.9 L160.3,7.3 L153,0 L123.9,0 L116.6,7.3 L116.6,51 L153,87.4 L153,109.3 L160.3,116.6 Z" id="Shape"></path>
        </g>
    </g>
</svg>