<svg viewBox="0 0 50 50" xmlns="http://www.w3.org/2000/svg" fill-rule="evenodd" clip-rule="evenodd" stroke-linejoin="round" stroke-miterlimit="1.414"><circle cx="25" cy="25" r="25" fill="#118df0"/><circle cx="25" cy="25" r="23.7" fill="#fff"/><circle cx="25" cy="25" r="21.6" fill="#118df0"/><g fill="#fff" fill-rule="nonzero"><path d="M26.6 13.3c-1.6-3.1-5.3-4.1-8.5-3.2.8 3.1 3.4 5.7 6.8 5.7-1.1 1.1-1.1 2.1-.1 3 .9-2.2 3.1-4.7 5.1-6-.4-.6-.9-1.1-1.3-1.7-.6.7-1.3 1.4-2 2.2z"/><path d="M30.7 15.1c-2.7 0-4.9 1.4-5.9 3.6-1-2.2-3.2-3.6-5.9-3.6-13.9 0-8.8 26.7 3.6 25 1.1-.1 1.8-.5 2.3-1 .5.5 1.2.9 2.3 1 12.4 1.7 17.5-25 3.6-25zM18 19.9c-2.3 1-3.4 3.6-2.5 6 .2.5 0 1-.5 1.2-.1 0-.2.1-.3.1-.3 0-.7-.2-.8-.5-1.3-3.2.2-7 3.4-8.3.5-.2 1 0 1.2.5.2.3 0 .8-.5 1z"/></g></svg>