<svg viewBox="0 0 50 50" xmlns="http://www.w3.org/2000/svg" fill-rule="evenodd" clip-rule="evenodd" stroke-linejoin="round" stroke-miterlimit="1.414"><circle cx="25" cy="25" r="25" fill="#118df0"/><circle cx="25" cy="25" r="23.7" fill="#fff"/><circle cx="25" cy="25" r="21.6" fill="#118df0"/><path d="M37.1 18.5v16.8c0 1.668-1.348 3.047-3.1 3.1H15.9c-1.7 0-3.1-1.4-3.1-3.1V14.7c0-1.7 1.4-3.1 3.1-3.1h14.4v5.2c0 1 .8 1.7 1.7 1.7h5.1z" fill="#fff"/><path d="M37.1 18.5H32c-.9 0-1.7-.7-1.7-1.7v-5.2h.1l6.7 6.9z" fill="#184e9e"/><path d="M27.4 21.9c-.3-.3-.7-.5-1-.7-.3-.1-.7-.2-1.1-.2-.5 0-.9.1-1.1.3-.3.2-.4.6-.4 1 0 .3.1.6.4.8.2.2.5.4.9.6.4.2.8.4 1.2.5.4.2.8.4 1.2.7.4.3.7.6.9.9.2.4.4.8.4 1.4 0 .8-.2 1.5-.7 2-.5.5-1.2.9-2.1 1v1.7h-1.4v-1.7c-.5-.1-1.1-.2-1.6-.4-.6-.2-1-.5-1.4-.9l.9-1.3c.4.3.8.6 1.3.7.4.2.9.3 1.4.3.6 0 1-.1 1.3-.4.3-.2.4-.6.4-1.1 0-.4-.1-.7-.4-.9-.2-.2-.5-.5-.9-.7l-2.4-1.2c-.4-.2-.7-.5-.9-.9-.2-.3-.4-.8-.4-1.3 0-.8.2-1.4.7-1.9.5-.5 1.1-.8 1.9-1v-1.7h1.4v1.7c.6.1 1.1.2 1.5.5.4.2.8.5 1.1.8l-1.1 1.4z" fill="#118df0" fill-rule="nonzero"/></svg>