<?xml version="1.0" standalone="no"?>
<!DOCTYPE svg PUBLIC "-//W3C//DTD SVG 1.1//EN" "http://www.w3.org/Graphics/SVG/1.1/DTD/svg11.dtd" >
<svg xmlns="http://www.w3.org/2000/svg">
<metadata>Generated by IcoMoon</metadata>
<defs>
<font id="gravitysmtp-icons-admin" horiz-adv-x="1024">
<font-face units-per-em="1024" ascent="960" descent="-64" />
<missing-glyph horiz-adv-x="1024" />
<glyph unicode="&#x20;" horiz-adv-x="512" d="" />
<glyph unicode="&#xe900;" glyph-name="trash" d="M460.8 857.6c-19.393 0-37.122-10.957-45.795-28.303l-37.048-74.097h-173.157c-28.277 0-51.2-22.923-51.2-51.2s22.923-51.2 51.2-51.2v-512c0-56.556 45.846-102.4 102.4-102.4h409.6c56.556 0 102.4 45.844 102.4 102.4v512c28.278 0 51.2 22.923 51.2 51.2s-22.922 51.2-51.2 51.2h-173.158l-37.048 74.097c-8.673 17.346-26.399 28.303-45.793 28.303h-102.4zM358.4 550.4c0 28.277 22.923 51.2 51.2 51.2s51.2-22.923 51.2-51.2v-307.2c0-28.278-22.923-51.2-51.2-51.2s-51.2 22.922-51.2 51.2v307.2zM614.4 601.6c28.278 0 51.2-22.923 51.2-51.2v-307.2c0-28.278-22.922-51.2-51.2-51.2s-51.2 22.922-51.2 51.2v307.2c0 28.277 22.922 51.2 51.2 51.2z" />
<glyph unicode="&#xe901;" glyph-name="settings" d="M256 755.2c0 28.277-22.923 51.2-51.2 51.2s-51.2-22.923-51.2-51.2v-372.101c-30.607-17.705-51.2-50.796-51.2-88.699s20.593-70.994 51.2-88.699v-64.901c0-28.278 22.923-51.2 51.2-51.2s51.2 22.922 51.2 51.2v64.901c30.607 17.705 51.2 50.796 51.2 88.699s-20.593 70.994-51.2 88.699v372.101zM563.2 755.2c0 28.277-22.922 51.2-51.2 51.2-28.277 0-51.2-22.923-51.2-51.2v-64.899c-30.607-17.705-51.2-50.799-51.2-88.701s20.593-70.995 51.2-88.701v-372.099c0-28.278 22.923-51.2 51.2-51.2s51.2 22.922 51.2 51.2v372.099c30.607 17.705 51.2 50.799 51.2 88.701s-20.593 70.995-51.2 88.701v64.899zM819.2 806.4c28.278 0 51.2-22.923 51.2-51.2v-372.101c30.607-17.705 51.2-50.796 51.2-88.699s-20.593-70.994-51.2-88.699v-64.901c0-28.278-22.922-51.2-51.2-51.2s-51.2 22.922-51.2 51.2v64.901c-30.607 17.705-51.2 50.796-51.2 88.699s20.593 70.994 51.2 88.699v372.101c0 28.277 22.922 51.2 51.2 51.2z" />
<glyph unicode="&#xe902;" glyph-name="debug" d="M208.276 144.276c-38.344 38.344-64.448 83.323-78.311 134.943-13.863 51.615-13.715 103.383 0.442 155.295l-64.595 64.593c-10.029 10.029-14.895 21.679-14.6 34.952s5.456 24.924 15.485 34.952c10.029 10.029 21.827 15.043 35.395 15.043s25.367-5.014 35.395-15.043l38.935-38.934c10.028 13.568 20.794 26.398 32.297 38.492s23.154 24.039 34.952 35.837l-36.28 36.279c-10.029 10.029-14.895 21.68-14.6 34.952s5.457 24.924 15.485 34.952c10.028 10.029 21.827 15.043 35.395 15.043s25.366-5.015 35.395-15.043l35.395-35.395c11.798 11.799 23.744 23.449 35.837 34.952s24.924 22.269 38.492 32.297l-39.819 39.819c-10.029 10.029-14.895 21.679-14.6 34.952s5.456 24.924 15.485 34.952c10.029 10.029 21.827 15.043 35.395 15.043s25.366-5.014 35.395-15.043l63.711-63.71c21.827 5.309 43.799 8.701 65.923 10.175s44.39-0.147 66.806-4.867l0.886 66.365c0.589 13.568 5.898 25.071 15.928 34.51s21.53 14.158 34.509 14.158c12.979 0 24.484-5.014 34.509-15.043 10.030-10.029 15.043-21.532 15.043-34.51v-102.645c21.827-11.208 41.298-25.366 58.404-42.473s31.263-36.574 42.47-58.401l105.303-0.885c13.568-0.59 25.068-5.899 34.509-15.927 9.436-10.029 14.157-21.532 14.157-34.51s-5.012-24.481-15.043-34.51c-10.030-10.029-21.53-15.043-34.509-15.043h-67.251c4.721-22.417 6.784-44.833 6.195-67.25s-3.835-44.832-9.733-67.252l64.594-64.594c10.030-10.025 14.894-21.678 14.602-34.949-0.297-13.276-5.458-24.924-15.488-34.954-10.025-10.030-21.827-15.043-35.395-15.043s-25.364 5.012-35.395 15.043l-38.932 38.932c-10.030-13.568-20.797-26.399-32.297-38.492-11.505-12.093-23.158-24.038-34.954-35.835l36.28-36.28c10.030-10.030 14.894-21.678 14.602-34.949-0.297-13.276-5.458-24.924-15.488-34.954s-21.827-15.043-35.395-15.043c-13.568 0-25.364 5.012-35.395 15.043l-35.395 35.395c-11.796-11.796-23.741-23.45-35.835-34.954-12.093-11.5-24.924-22.267-38.492-32.297l39.818-39.818c10.030-10.030 14.894-21.678 14.602-34.949-0.297-13.276-5.458-24.924-15.488-34.954s-21.827-15.043-35.395-15.043c-13.568 0-25.364 5.012-35.395 15.043l-63.71 63.708c-51.912-14.157-103.677-14.305-155.294-0.44s-96.598 39.967-134.942 78.31zM349.855 356.644l71.674-71.675c10.028-10.030 21.679-14.894 34.952-14.597 13.273 0.292 24.924 5.453 34.952 15.483s15.043 21.827 15.043 35.395c0 13.568-5.015 25.364-15.043 35.395l-71.674 71.675c-10.029 10.030-21.679 14.894-34.952 14.597-13.273-0.292-24.924-5.453-34.952-15.483s-15.043-21.827-15.043-35.395c0-13.568 5.014-25.364 15.043-35.395zM491.433 498.223l71.674-71.675c10.030-10.025 21.678-14.894 34.954-14.597 13.271 0.292 24.919 5.453 34.949 15.483s15.043 21.827 15.043 35.395c0 13.567-5.012 25.366-15.043 35.395l-71.675 71.674c-10.025 10.029-21.678 14.895-34.949 14.6-13.276-0.295-24.926-5.456-34.954-15.485s-15.043-21.827-15.043-35.395c0-13.568 5.015-25.366 15.043-35.395z" />
<glyph unicode="&#xe903;" glyph-name="closed-lock" d="M256 499.2c-56.554 0-102.4-45.846-102.4-102.4v-256c0-56.556 45.846-102.4 102.4-102.4h512c56.556 0 102.4 45.844 102.4 102.4v256c0 56.554-45.844 102.4-102.4 102.4v102.4c0 141.385-114.616 256-256 256s-256-114.615-256-256v-102.4zM665.6 601.6v-102.4h-307.2v102.4c0 84.831 68.769 153.6 153.6 153.6 84.833 0 153.6-68.769 153.6-153.6z" />
<glyph unicode="&#xe904;" glyph-name="dashboard-icon" horiz-adv-x="1059" d="M917.284 275.656l-285.404 559.559c-7.296 12.329-25.267 22.385-39.798 22.385h-160.18c-14.53 0-32.429-10.125-39.869-22.385l-285.475-559.559c-7.37-12.329-3.299-28.652-0.281-44.979l23.935-125.629c3.299-14.602 24.989-22.595 39.589-22.595l342.542-0.824 341.77 0.824c14.597 0 36.5 7.992 39.588 22.595l23.936 125.629c3.297 14.879 7.091 32.65-0.282 44.979h-0.072zM738.785 224.271l-134.349 40.294c-19.164 6.267-32.22 10.537-38.815 23.485l-38.82 107.587c-3.297 6.405-7.578 9.436-11.93 9.436 0 0-0.282 0-0.353 0s-0.282 0.072-0.42 0c-4.283-0.067-8.565-3.098-11.864-9.503l-38.817-107.587c-6.598-12.948-19.513-16.671-38.817-23.485l-134.419-40.294c-14.74 0-20.707 10.194-13.337 22.728l218.3 436.752c8.564 17.839 28.431 19.492 38.819 0l218.296-436.752c7.373-12.467 1.403-22.728-13.338-22.728l-0.138 0.067z" />
<glyph unicode="&#xe905;" glyph-name="calendar" horiz-adv-x="975" d="M292.571 838.095c26.93 0 48.762-21.832 48.762-48.762v-48.762h292.571v48.762c0 26.93 21.831 48.762 48.762 48.762s48.762-21.832 48.762-48.762v-48.762h48.762c53.862 0 97.524-43.663 97.524-97.524v-487.619c0-53.862-43.661-97.524-97.524-97.524h-585.143c-53.861 0-97.524 43.661-97.524 97.524v487.619c0 53.861 43.663 97.524 97.524 97.524h48.762v48.762c0 26.93 21.832 48.762 48.762 48.762zM292.571 594.286c-26.93 0-48.762-21.832-48.762-48.762s21.832-48.762 48.762-48.762h390.095c26.931 0 48.762 21.832 48.762 48.762s-21.831 48.762-48.762 48.762h-390.095z" />
<glyph unicode="&#xe906;" glyph-name="check" d="M388.697 394.782l-94.58 88.213c-23.227 21.657-60.069 21.657-83.289 0-24.309-22.678-24.309-60.211 0-82.883l136.384-127.201c23.226-21.667 60.069-21.667 83.288 0l345.197 321.957c24.308 22.678 24.308 60.211 0 82.882-23.229 21.658-60.070 21.658-83.289 0l-303.705-282.974z" />
<glyph unicode="&#xe907;" glyph-name="save-disk" horiz-adv-x="975" d="M729.912 812.523c-16.472 16.47-38.576 25.573-61.547 25.573h-484.153c-48.112 0-86.688-39.010-86.688-86.688v-606.814c0-47.679 39.010-86.689 86.688-86.689h606.814c47.679 0 86.689 39.010 86.689 86.689v484.151c0 22.972-9.104 45.077-25.571 61.115l-122.231 122.663zM487.619 144.594c-71.951 0-130.032 58.080-130.032 130.028 0 71.953 58.081 130.033 130.032 130.033 71.953 0 130.033-58.080 130.033-130.033 0-71.948-58.080-130.028-130.033-130.028zM530.964 578.032h-260.064c-47.678 0-86.688 39.010-86.688 86.687s39.010 86.688 86.688 86.688h260.064c47.679 0 86.689-39.010 86.689-86.688s-39.010-86.687-86.689-86.687z" />
<glyph unicode="&#xe908;" glyph-name="circle-tool" d="M512 857.6c-226.099 0-409.6-183.501-409.6-409.6s183.501-409.6 409.6-409.6c226.099 0 409.6 183.501 409.6 409.6s-183.501 409.6-409.6 409.6zM697.958 290.304l-28.262-28.262c-15.974-15.974-41.779-15.974-57.754 0l-124.928 124.928c-49.971-17.613-108.134-6.963-148.275 33.178-38.59 38.59-50.033 94.001-34.828 142.687 4.083 13.073 20.386 15.524 30.070 5.84l76.848-76.848 57.754 57.754-77.108 76.782c-9.737 9.695-7.267 26.063 5.854 30.145 48.841 15.192 103.942 3.746 142.525-34.836 40.141-40.141 50.79-98.304 33.178-148.275l124.928-124.928c15.974-15.974 15.974-42.189 0-58.163z" />
<glyph unicode="&#xe909;" glyph-name="clipboard-check" d="M460.8 857.6c-28.277 0-51.2-22.923-51.2-51.2s22.923-51.2 51.2-51.2h102.4c28.278 0 51.2 22.923 51.2 51.2s-22.922 51.2-51.2 51.2h-102.4zM204.8 704c0 56.554 45.846 102.4 102.4 102.4 0-84.831 68.769-153.6 153.6-153.6h102.4c84.833 0 153.6 68.769 153.6 153.6 56.556 0 102.4-45.846 102.4-102.4v-563.2c0-56.556-45.844-102.4-102.4-102.4h-409.6c-56.554 0-102.4 45.844-102.4 102.4v563.2zM701.804 411.796c19.994 19.994 19.994 52.412 0 72.408s-52.413 19.995-72.407 0l-168.596-168.597-66.196 66.196c-19.995 19.994-52.413 19.994-72.408 0s-19.995-52.413 0-72.407l102.4-102.4c19.995-19.994 52.413-19.994 72.408 0l204.799 204.8z" />
<glyph unicode="&#xe90a;" glyph-name="x" d="M219.797 740.203c19.995 19.995 52.413 19.995 72.408 0l219.797-219.795 219.797 219.795c19.994 19.995 52.413 19.995 72.406 0s19.994-52.413 0-72.408l-219.795-219.797 219.797-219.797c19.994-19.994 19.994-52.413 0-72.406s-52.413-19.994-72.406 0l-219.795 219.795-219.797-219.797c-19.995-19.994-52.413-19.994-72.408 0s-19.995 52.413 0 72.406l219.797 219.795-219.797 219.797c-19.995 19.995-19.995 52.413 0 72.408z" />
<glyph unicode="&#xe90b;" glyph-name="cloud1" d="M281.6 140.8c-98.97 0-179.2 80.23-179.2 179.2 0 92.59 70.219 168.777 160.308 178.216-4.377 16.66-6.708 34.15-6.708 52.184 0 113.108 91.692 204.8 204.8 204.8 96.195 0 176.901-66.323 198.886-155.738 10.301 1.41 20.823 2.138 31.514 2.138 127.247 0 230.4-103.154 230.4-230.4s-103.153-230.4-230.4-230.4h-409.6z" />
<glyph unicode="&#xe90c;" glyph-name="cog" d="M588.247 797.648c12.539-51.638 71.7-76.143 117.074-48.494 70.246 42.802 150.636-37.585 107.832-107.831-27.648-45.378-3.144-104.539 48.497-117.075 79.933-19.406 79.933-133.090 0-152.495-51.64-12.539-76.145-71.7-48.497-117.074 42.803-70.246-37.586-150.636-107.832-107.832-45.373 27.648-104.535 3.144-117.074-48.497-19.405-79.933-133.089-79.933-152.495 0-12.536 51.64-71.697 76.145-117.074 48.497-70.246-42.803-150.633 37.586-107.831 107.832 27.649 45.373 3.144 104.535-48.494 117.074-79.936 19.405-79.936 133.089 0 152.495 51.638 12.536 76.143 71.697 48.494 117.075-42.802 70.245 37.585 150.632 107.831 107.831 45.378-27.649 104.539-3.144 117.075 48.494 19.406 79.936 133.090 79.936 152.495 0zM512 294.4c84.833 0 153.6 68.767 153.6 153.6 0 84.831-68.767 153.6-153.6 153.6-84.831 0-153.6-68.769-153.6-153.6 0-84.833 68.769-153.6 153.6-153.6z" />
<glyph unicode="&#xe90d;" glyph-name="cursor-click" d="M341.594 862.13c-7.319 27.313-35.394 43.522-62.707 36.204s-43.523-35.394-36.204-62.707l13.252-49.456c7.319-27.313 35.394-43.523 62.707-36.204s43.523 35.393 36.204 62.707l-13.252 49.456zM124.37 717.314c-27.313 7.319-55.388-8.89-62.707-36.204s8.89-55.388 36.204-62.707l49.456-13.252c27.313-7.319 55.388 8.89 62.707 36.204s-8.89 55.389-36.204 62.707l-49.456 13.252zM575.621 746.417c19.994 19.995 19.994 52.412 0 72.408-19.999 19.995-52.413 19.995-72.41 0l-36.204-36.204c-19.995-19.995-19.995-52.413 0-72.408s52.411-19.995 72.41 0l36.204 36.204zM213.58 384.379l36.204 36.204c19.995 19.994 19.995 52.412 0 72.407s-52.413 19.995-72.408 0l-36.204-36.204c-19.995-19.993-19.995-52.413 0-72.407s52.413-19.994 72.408 0zM377.417 649.135c-19.017 7.607-40.737 3.149-55.219-11.334s-18.941-36.202-11.334-55.219l204.803-511.998c7.485-18.724 25.262-31.304 45.409-32.143 20.142-0.84 38.902 10.225 47.923 28.257l70.63 141.266 154.568-154.573c19.994-19.994 52.413-19.994 72.407 0 19.999 19.999 19.999 52.413 0 72.412l-154.568 154.568 141.261 70.63c18.038 9.016 29.097 27.781 28.262 47.923-0.84 20.147-13.425 37.924-32.143 45.409l-511.999 204.801z" />
<glyph unicode="&#xe90e;" glyph-name="dots-horizontal" d="M87.2 448c0 51.92 42.48 94.4 94.4 94.4s94.4-42.48 94.4-94.4c0-51.92-42.48-94.4-94.4-94.4s-94.4 42.48-94.4 94.4zM512 353.6c51.92 0 94.4 42.48 94.4 94.4s-42.48 94.4-94.4 94.4c-51.92 0-94.4-42.48-94.4-94.4s42.48-94.4 94.4-94.4zM842.4 353.6c51.92 0 94.4 42.48 94.4 94.4s-42.48 94.4-94.4 94.4c-51.92 0-94.4-42.48-94.4-94.4s42.48-94.4 94.4-94.4z" />
<glyph unicode="&#xe90f;" glyph-name="dots-vertical" d="M512 844.8c48.496 0 88.176-39.68 88.176-88.176s-39.68-88.176-88.176-88.176c-48.496 0-88.176 39.68-88.176 88.176s39.68 88.176 88.176 88.176zM423.824 448c0-48.496 39.68-88.176 88.176-88.176s88.176 39.68 88.176 88.176c0 48.496-39.68 88.176-88.176 88.176s-88.176-39.68-88.176-88.176zM423.824 139.376c0-48.496 39.68-88.176 88.176-88.176s88.176 39.68 88.176 88.176c0 48.496-39.68 88.176-88.176 88.176s-88.176-39.68-88.176-88.176z" />
<glyph unicode="&#xe910;" glyph-name="export" d="M204.8 755.2c0 56.554 45.846 102.4 102.4 102.4h234.793c27.156 0 53.202-10.788 72.407-29.992l174.807-174.808c19.205-19.204 29.993-45.25 29.993-72.408v-439.592c0-56.556-45.844-102.4-102.4-102.4h-78.223c48.645 54.349 78.223 126.121 78.223 204.8 0 169.661-137.539 307.2-307.2 307.2-78.68 0-150.451-29.579-204.8-78.223v283.023zM307.2 294.4c-28.277 0-51.2 22.922-51.2 51.2s22.923 51.2 51.2 51.2h204.8c28.278 0 51.2-22.922 51.2-51.2v-204.8c0-28.278-22.922-51.2-51.2-51.2s-51.2 22.922-51.2 51.2v81.193l-117.396-117.396c-19.995-19.994-52.413-19.994-72.408 0s-19.995 52.413 0 72.407l117.396 117.396h-81.192z" />
<glyph unicode="&#xe911;" glyph-name="eye" d="M512 345.6c56.556 0 102.4 45.844 102.4 102.4 0 56.554-45.844 102.4-102.4 102.4-56.553 0-102.399-45.846-102.399-102.4 0-56.556 45.846-102.4 102.399-102.4zM23.438 448c65.243-207.724 259.305-358.4 488.56-358.4 229.256 0 423.319 150.676 488.563 358.402-65.244 207.722-259.308 358.398-488.562 358.398-229.256 0-423.319-150.677-488.561-358.4zM716.8 448c0-113.106-91.694-204.8-204.8-204.8s-204.799 91.694-204.799 204.8c0 113.108 91.692 204.8 204.799 204.8s204.8-91.692 204.8-204.8z" />
<glyph unicode="&#xe912;" glyph-name="mail-open" d="M150.528 631.685l307.2 192c33.205 20.753 75.341 20.753 108.544 0l307.2-192c29.942-18.713 48.128-51.529 48.128-86.835v-404.045c0-56.556-45.844-102.4-102.4-102.4h-614.4c-56.554 0-102.4 45.844-102.4 102.4v404.045c0 35.306 18.188 68.123 48.128 86.835zM284.401 507.667c-23.528 15.686-55.316 9.328-71.002-14.2s-9.328-55.318 14.2-71.001l256-170.67c17.198-11.464 39.603-11.464 56.801 0l256 170.67c23.526 15.683 29.885 47.473 14.203 71.001-15.688 23.528-47.478 29.886-71.004 14.2l-227.599-151.73-227.599 151.73z" />
<glyph unicode="&#xe913;" glyph-name="mail" d="M102.57 658.762l409.427-204.713 409.434 204.716c-3.092 53.778-47.677 96.435-102.231 96.435h-614.4c-54.553 0-99.142-42.659-102.23-96.438zM921.6 544.364l-409.603-204.8-409.597 204.797v-301.16c0-56.556 45.846-102.4 102.4-102.4h614.4c56.556 0 102.4 45.844 102.4 102.4v301.164z" />
<glyph unicode="&#xe914;" glyph-name="paper-clip" d="M409.6 755.2c-84.831 0-153.6-68.769-153.6-153.6v-204.8c0-141.384 114.615-256 256-256s256 114.616 256 256v204.8c0 28.277 22.922 51.2 51.2 51.2s51.2-22.923 51.2-51.2v-204.8c0-197.939-160.461-358.4-358.4-358.4s-358.4 160.461-358.4 358.4v204.8c0 141.385 114.615 256 256 256s256-114.615 256-256v-204.8c0-84.833-68.767-153.6-153.6-153.6-84.831 0-153.6 68.767-153.6 153.6v204.8c0 28.277 22.923 51.2 51.2 51.2s51.2-22.923 51.2-51.2v-204.8c0-28.278 22.923-51.2 51.2-51.2s51.2 22.922 51.2 51.2v204.8c0 84.831-68.769 153.6-153.6 153.6z" />
<glyph unicode="&#xe915;" glyph-name="paper-plane" d="M622.131 67.855c-6.226-14.95-17.121-24.31-32.686-28.068-15.565-3.717-28.948 0.036-40.156 11.249l-132.613 132.695c-6.849 6.851-10.883 15.575-12.103 26.163-1.27 10.593 1.208 20.25 7.434 28.969l169.969 280.342-279.234-172.878c-8.716-4.982-18.205-6.999-28.465-6.052-10.285 0.922-19.164 5.12-26.635 12.595l-132.613 132.694c-11.207 11.214-14.954 24.608-11.244 40.182 3.761 15.575 13.112 26.477 28.054 32.707l727.502 296.226c18.678 6.23 34.867 2.492 48.563-11.213s17.121-29.592 10.271-47.658l-296.044-727.953z" />
<glyph unicode="&#xe916;" glyph-name="routing" d="M788.634 705.997l83.61-83.2c8.352-8.402 13.515-19.982 13.517-32.768v0c0-11.11-4.096-23.194-14.131-31.232l-82.944-82.483c-8.061-8.26-19.304-13.383-31.744-13.383s-23.683 5.123-31.735 13.374l-0.009 0.009c-8.317 8.005-13.483 19.233-13.483 31.667s5.166 23.662 13.469 31.654l0.014 0.013 6.451 6.451h-31.488c-55.501 0-108.493-22.016-150.63-61.082l-149.146-148.275c-55.050-54.106-130.566-87.543-213.892-87.654h-0.022c-0.332-0.009-0.723-0.014-1.116-0.014-12.199 0-23.271 4.826-31.41 12.673l0.014-0.013c-7.892 8.092-12.761 19.165-12.761 31.376 0 0.363 0.004 0.726 0.013 1.087l-0.001-0.054c0 12.442 4.25 24.013 12.8 32.461 8.125 7.833 19.197 12.659 31.395 12.659 0.375 0 0.748-0.005 1.121-0.014l-0.055 0.001c55.808 0 111.616 22.272 150.426 60.826l149.35 148.48c54.366 54.169 129.367 87.659 212.19 87.659 0.606 0 1.211-0.002 1.816-0.005h31.344l-6.4 6.4c-8.317 8.005-13.483 19.233-13.483 31.667s5.166 23.662 13.469 31.654l0.014 0.013c3.902 4.037 8.516 7.357 13.643 9.762l0.283 0.119c5.050 2.236 10.94 3.537 17.134 3.537 0.222 0 0.444-0.002 0.666-0.005h-0.033c9.728 0 22.733-4.403 31.744-13.363zM788.634 406.016l83.61-83.149c8.353-8.395 13.517-19.971 13.517-32.752 0-0.006 0-0.011 0-0.017v0.001c0.005-0.244 0.009-0.533 0.009-0.821 0-12.182-5.49-23.083-14.131-30.362l-0.060-0.049-82.944-82.483c-8.061-8.26-19.304-13.383-31.744-13.383s-23.683 5.123-31.735 13.374l-0.009 0.009c-8.317 8.005-13.483 19.233-13.483 31.667s5.166 23.662 13.469 31.654l0.014 0.013 6.451 6.4h-31.437c-0.524-0.003-1.145-0.005-1.765-0.005-82.81 0-157.798 33.491-212.157 87.668l0.008-0.008c-8.317 8.005-13.483 19.233-13.483 31.667s5.166 23.662 13.469 31.654l0.014 0.013c3.904 4.017 8.518 7.32 13.642 9.711l0.284 0.119c5.078 2.267 11.005 3.588 17.24 3.588 0.203 0 0.406-0.001 0.609-0.004h-0.031c9.728 0 22.682-4.403 31.744-13.414 38.758-38.605 94.566-60.877 150.426-60.877h31.488l-6.451 6.451c-8.317 8.005-13.483 19.233-13.483 31.667s5.166 23.662 13.469 31.654l0.014 0.013c3.901 4.039 8.515 7.359 13.644 9.763l0.283 0.119c5.057 2.236 10.953 3.537 17.154 3.537 0.215 0 0.43-0.002 0.645-0.005h-0.033c9.728 0 22.682-4.403 31.744-13.414zM151.040 620.544c8.131 7.863 19.223 12.709 31.447 12.709 0.356 0 0.712-0.004 1.066-0.012l-0.053 0.001c78.592 0 157.184-31.232 213.914-87.654 8.317-8.005 13.483-19.233 13.483-31.667s-5.166-23.662-13.469-31.654l-0.014-0.013c-8.061-8.26-19.304-13.383-31.744-13.383s-23.683 5.123-31.735 13.374l-0.009 0.009c-38.758 38.605-94.566 60.877-150.426 60.877-0.333-0.009-0.725-0.014-1.118-0.014-12.173 0-23.224 4.806-31.358 12.623l0.015-0.014c-7.893 8.092-12.762 19.166-12.762 31.377 0 0.381 0.005 0.761 0.014 1.14l-0.001-0.056c0 12.39 4.25 23.962 12.749 32.41z" />
<glyph unicode="&#xe917;" glyph-name="switch-horizontal" d="M409.6 704c-28.277 0-51.2-22.923-51.2-51.2s22.923-51.2 51.2-51.2h285.993l-66.196-66.196c-19.994-19.995-19.994-52.413 0-72.408 19.994-19.993 52.413-19.993 72.407 0l153.6 153.6c9.6 9.602 14.996 22.625 14.996 36.204s-5.396 26.602-14.996 36.204l-153.6 153.6c-19.994 19.995-52.413 19.995-72.407 0s-19.994-52.413 0-72.408l66.196-66.196h-285.993zM614.4 192c28.278 0 51.2 22.922 51.2 51.2s-22.922 51.2-51.2 51.2h-285.992l66.196 66.196c19.995 19.994 19.995 52.413 0 72.407s-52.413 19.995-72.408 0l-153.6-153.6c-9.602-9.6-14.996-22.625-14.996-36.204s5.394-26.604 14.996-36.204l153.6-153.6c19.995-19.994 52.413-19.994 72.408 0s19.995 52.413 0 72.407l-66.196 66.196h285.992z" />
<glyph unicode="&#xe918;" glyph-name="clock" d="M512 38.4c-226.216 0-409.6 183.383-409.6 409.6s183.384 409.6 409.6 409.6c226.217 0 409.6-183.384 409.6-409.6s-183.383-409.6-409.6-409.6zM563.2 652.8c0 28.277-22.922 51.2-51.2 51.2-28.277 0-51.2-22.923-51.2-51.2v-204.8c0-13.578 5.394-26.604 14.996-36.204l144.815-144.814c19.994-19.999 52.413-19.999 72.407 0 19.999 19.994 19.999 52.413 0 72.407l-129.818 129.818v183.592z" />
<glyph unicode="&#xe919;" glyph-name="beaker" d="M358.392 857.6c-20.708 0-39.378-12.474-47.303-31.607s-3.544-41.154 11.099-55.797l36.204-36.204v-192.377c0-13.579-5.394-26.602-14.996-36.204l-204.8-204.801c-96.763-96.763-28.232-262.211 108.612-262.211h529.568c136.842 0 205.373 165.448 108.611 262.211l-204.8 204.801c-9.6 9.602-14.991 22.625-14.991 36.204v192.377l36.204 36.204c14.643 14.643 19.021 36.665 11.095 55.797-7.921 19.132-26.593 31.607-47.299 31.607h-307.203zM460.792 541.616v213.584h102.403v-213.584c0-40.737 16.179-79.806 44.984-108.612l52.613-52.608c-36.705 8.535-75.182 6.81-111.165-5.187l-24.074-8.023c-42.038-14.013-87.487-14.013-129.526 0l-28.797 9.6c-1.95 0.65-3.91 1.239-5.879 1.766l54.454 54.451c28.806 28.806 44.988 67.875 44.988 108.612z" />
<glyph unicode="&#xe91a;" glyph-name="api" d="M732.854 79.91c-80.978 0-147.236 66.258-147.236 147.236 0 63.799 41.23 118.765 98.157 138.889v226.742c0 6.875-2.944 13.743-8.347 18.651-5.403 5.403-13.248 8.347-21.11 8.347h-117.796c-26.999 0-49.079 22.080-49.079 49.079s22.080 49.079 49.079 49.079h117.796c33.864 0 65.77-12.763 89.81-36.315 24.055-23.067 37.787-55.954 37.787-89.325v-226.742c56.93-20.123 98.157-75.090 98.157-138.889 0-80.978-66.258-147.236-147.236-147.236zM732.854 276.225c-26.999 0-49.079-22.080-49.079-49.079s22.080-49.079 49.079-49.079 49.079 22.080 49.079 49.079-22.080 49.079-49.079 49.079zM291.146 79.91c-26.999 0-49.079 22.080-49.079 49.079v400.977c-56.93 20.123-98.157 74.605-98.157 138.889 0 80.978 66.258 147.236 147.236 147.236s147.236-66.258 147.236-147.236c0-63.799-41.23-118.765-98.157-138.889v-400.977c0-26.999-22.080-49.079-49.079-49.079zM291.146 717.933c-26.999 0-49.079-22.080-49.079-49.079s22.080-49.079 49.079-49.079 49.079 22.080 49.079 49.079-22.080 49.079-49.079 49.079z" />
<glyph unicode="&#xe91b;" glyph-name="primary" d="M654.932 590.932h-285.868v-285.868h285.868v285.868zM369.068 829.156v-47.644h-95.288c-52.626 0-95.288-42.662-95.288-95.288v-95.288h-47.644c-26.313 0-47.644-21.331-47.644-47.644s21.331-47.644 47.644-47.644h47.644v-95.288h-47.644c-26.313 0-47.644-21.331-47.644-47.644s21.331-47.644 47.644-47.644h47.644v-95.288c0-52.626 42.662-95.288 95.288-95.288h95.288v-47.644c0-26.313 21.331-47.644 47.644-47.644s47.644 21.331 47.644 47.644v47.644h95.288v-47.644c0-26.313 21.331-47.644 47.644-47.644s47.644 21.331 47.644 47.644v47.644h95.288c52.626 0 95.288 42.662 95.288 95.288v95.288h47.644c26.313 0 47.644 21.331 47.644 47.644s-21.331 47.644-47.644 47.644h-47.644v95.288h47.644c26.313 0 47.644 21.331 47.644 47.644s-21.331 47.644-47.644 47.644h-47.644v95.288c0 52.626-42.662 95.288-95.288 95.288h-95.288v47.644c0 26.313-21.331 47.644-47.644 47.644s-47.644-21.331-47.644-47.644v-47.644h-95.288v47.644c0 26.313-21.331 47.644-47.644 47.644s-47.644-21.331-47.644-47.644zM273.776 686.224h476.444v-476.444h-476.444v476.444z" />
<glyph unicode="&#xe91c;" glyph-name="left-arrow" d="M499.363 154.528c-11.28-11.274-26.874-18.256-44.076-18.256s-32.792 6.982-44.076 18.257l-249.4 249.4c-11.274 11.28-18.256 26.874-18.256 44.076s6.982 32.792 18.257 44.076l249.4 249.4c11.196 10.835 26.484 17.495 43.313 17.495 34.429 0 62.35-27.921 62.35-62.35 0-16.832-6.675-32.118-17.523-43.336l-142.95-142.95h472.981c34.429 0 62.35-27.921 62.35-62.35s-27.921-62.35-62.35-62.35v0h-472.981l142.969-142.969c11.274-11.28 18.256-26.874 18.256-44.076s-6.982-32.792-18.257-44.076v0z" />
<glyph unicode="&#xe91d;" glyph-name="correct" d="M778.919 541.087c28.121 28.122 28.121 73.705 0 101.828s-73.705 28.122-101.826 0l-237.093-237.095-93.087 93.089c-28.122 28.122-73.705 28.122-101.828 0s-28.122-73.707 0-101.828l144.006-144.006c28.122-28.121 73.705-28.121 101.828 0l288.007 288.007z" />
<glyph unicode="&#xe91e;" glyph-name="exclamation-simple" d="M572.8 204.8c0-33.582-27.218-60.8-60.8-60.8-33.581 0-60.8 27.218-60.8 60.8s27.219 60.8 60.8 60.8c33.582 0 60.8-27.218 60.8-60.8zM512 752c-33.581 0-60.8-27.219-60.8-60.8v-243.2c0-33.582 27.219-60.8 60.8-60.8s60.8 27.218 60.8 60.8v243.2c0 33.581-27.218 60.8-60.8 60.8zM512 752c-33.581 0-60.8-27.219-60.8-60.8v-243.2c0-33.582 27.219-60.8 60.8-60.8s60.8 27.218 60.8 60.8v243.2c0 33.581-27.218 60.8-60.8 60.8zM572.8 204.8c0-33.582-27.218-60.8-60.8-60.8-33.581 0-60.8 27.218-60.8 60.8s27.219 60.8 60.8 60.8c33.582 0 60.8-27.218 60.8-60.8z" />
<glyph unicode="&#xe91f;" glyph-name="checkmark-simple" d="M701.803 514.197c19.994 19.995 19.994 52.413 0 72.408s-52.413 19.995-72.406 0l-168.597-168.597-66.197 66.197c-19.995 19.995-52.413 19.995-72.408 0s-19.995-52.414 0-72.408l102.4-102.4c19.995-19.994 52.413-19.994 72.408 0l204.798 204.798z" />
<glyph unicode="&#xe920;" glyph-name="information-simple" d="M563.2 652.8c0-28.277-22.922-51.2-51.2-51.2s-51.2 22.923-51.2 51.2 22.923 51.2 51.2 51.2c28.278 0 51.2-22.923 51.2-51.2zM460.8 499.2c-28.277 0-51.2-22.923-51.2-51.2s22.923-51.2 51.2-51.2v-153.6c0-28.278 22.923-51.2 51.2-51.2h51.2c28.278 0 51.2 22.922 51.2 51.2s-22.922 51.2-51.2 51.2v153.6c0 28.277-22.922 51.2-51.2 51.2h-51.2zM460.8 499.2c-28.277 0-51.2-22.923-51.2-51.2s22.923-51.2 51.2-51.2v-153.6c0-28.278 22.923-51.2 51.2-51.2h51.2c28.278 0 51.2 22.922 51.2 51.2s-22.922 51.2-51.2 51.2v153.6c0 28.277-22.922 51.2-51.2 51.2h-51.2zM563.2 652.8c0-28.277-22.922-51.2-51.2-51.2s-51.2 22.923-51.2 51.2 22.923 51.2 51.2 51.2c28.278 0 51.2-22.923 51.2-51.2z" />
<glyph unicode="&#xe921;" glyph-name="question-mark-simple" d="M491.315 703.488c-11.622-1.536-23.040-2.202-34.458-5.325-34.876-9.946-63.936-30.803-84.014-58.579l-0.313-0.454c-6.502-9.062-11.776-18.176-13.568-29.389-3.635-23.552 10.24-47.104 32.41-55.603 18.944-7.219 41.114-2.355 55.398 11.981 9.062 9.114 13.926 20.019 25.242 27.187 23.501 14.95 54.528 5.478 69.12-17.152 4.704-7.509 7.495-16.633 7.495-26.41 0-11.991-4.198-23.001-11.204-31.642l0.074 0.094c-6.673-8.533-15.904-14.79-26.53-17.636l-0.35-0.080c-7.475-1.894-15.104-1.434-22.682-2.816-9.146-1.628-17.146-5.697-23.54-11.504l0.039 0.035c-3.413-2.967-6.426-6.24-9.048-9.818l-0.116-0.166c-10.547-15.514-8.448-33.382-8.448-51.2 0-13.21-2.048-28.262 1.024-41.165 5.274-22.426 26.112-39.322 49.357-39.322 22.682 0 42.803 14.234 49.766 35.942 1.456 4.515 2.298 9.71 2.304 15.101v0.003c0 2.714-0.666 6.554 1.331 8.704 2.406 2.56 7.322 3.482 10.394 4.966 8.090 3.891 16.179 7.885 23.552 13.005 25.702 17.869 45.414 42.496 56.934 71.629 22.323 56.474 7.424 123.904-35.994 166.195-18.81 18.221-42.338 31.683-68.571 38.375l-1.061 0.23c-13.824 3.43-30.31 6.656-44.544 4.762zM494.694 293.632c-19.558-2.355-37.581-13.107-44.8-32.41-10.65-28.672 5.427-61.542 35.533-68.762 4.762-1.126 10.24-2.099 15.104-1.536 20.378 2.304 38.4 13.261 45.619 33.331 11.776 33.024-14.336 73.83-51.456 69.376z" />
<glyph unicode="&#xe922;" glyph-name="x-simple" d="M656.814 520.408c19.999 19.995 19.999 52.413 0 72.408-19.994 19.995-52.413 19.995-72.407 0l-72.407-72.408-72.408 72.408c-19.995 19.995-52.413 19.995-72.408 0s-19.995-52.413 0-72.408l72.408-72.408-72.408-72.408c-19.995-19.994-19.995-52.413 0-72.407s52.413-19.994 72.408 0l72.408 72.407 72.407-72.407c19.994-19.994 52.413-19.994 72.407 0 19.999 19.994 19.999 52.413 0 72.407l-72.407 72.408 72.407 72.408z" />
<glyph unicode="&#xe923;" glyph-name="copy" horiz-adv-x="975" d="M341.333 496.762c0 53.861 43.663 97.524 97.524 97.524v0h292.571c53.861 0 97.524-43.663 97.524-97.524v0-292.571c0-53.861-43.663-97.524-97.524-97.524v0h-292.571c-53.861 0-97.524 43.663-97.524 97.524v0 292.571zM243.81 789.333c-53.861 0-97.524-43.663-97.524-97.524v0-292.571c0-53.861 43.663-97.524 97.524-97.524v0 390.095h390.095c0 53.861-43.663 97.524-97.524 97.524v0h-292.571z" />
<glyph unicode="&#xe924;" glyph-name="wand" d="M607.334 640.666c-15.411 16.179-42.445 16.179-58.624 0l-485.325-485.376c-16.23-16.179-16.23-43.264 0-58.624l97.28-97.28c15.411-16.23 42.445-16.23 58.675 0l485.274 485.274c16.23 16.23 16.23 43.315 0 58.675l-97.28 97.28zM621.875 557.875c11.29-11.278 18.273-26.865 18.273-44.083s-6.984-32.805-18.273-44.083v0l-13.312-13.312c-11.167-10.65-26.322-17.203-43.008-17.203-34.441 0-62.362 27.92-62.362 62.362 0 16.686 6.553 31.841 17.227 43.033l-0.023-0.025 13.312 13.312c11.284 11.277 26.869 18.252 44.083 18.252s32.799-6.975 44.083-18.252v0zM405.197 876.288c18.011-4.951 31.024-21.181 31.024-40.45 0-3.86-0.522-7.598-1.5-11.147l0.069 0.294-10.803-40.448 40.448-10.854c18.025-4.951 31.049-21.191 31.049-40.474 0-23.143-18.761-41.904-41.904-41.904-3.86 0-7.599 0.522-11.149 1.499l0.294-0.069-40.448 10.854-10.854-40.448c-5.226-17.594-21.251-30.208-40.222-30.208-23.131 0-41.882 18.751-41.882 41.882 0 3.544 0.44 6.986 1.269 10.273l-0.062-0.289 10.803 40.448-40.448 10.854c-18.237 4.795-31.469 21.136-31.469 40.567 0 23.131 18.751 41.882 41.882 41.882 4.022 0 7.911-0.567 11.592-1.625l-0.296 0.073 40.448-10.803 10.854 40.448c4.935 18.036 21.176 31.072 40.463 31.072 3.855 0 7.589-0.521 11.134-1.496l-0.294 0.069zM844.8 908.8c23.552 0 42.65-19.098 42.65-42.65v-42.701h42.701c23.555 0 42.65-19.095 42.65-42.65s-19.095-42.65-42.65-42.65v0h-42.701v-42.701c0-23.555-19.095-42.65-42.65-42.65s-42.65 19.095-42.65 42.65v0 42.701h-42.701c-23.555 0-42.65 19.095-42.65 42.65s19.095 42.65 42.65 42.65v0h42.701v42.701c0 23.552 19.098 42.65 42.65 42.65zM844.8 448c23.552 0 42.65-19.098 42.65-42.65v-42.701h42.701c23.555 0 42.65-19.095 42.65-42.65s-19.095-42.65-42.65-42.65v0h-42.701v-42.701c0-23.555-19.095-42.65-42.65-42.65s-42.65 19.095-42.65 42.65v0 42.701h-42.701c-23.555 0-42.65 19.095-42.65 42.65s19.095 42.65 42.65 42.65v0h42.701v42.701c0 23.552 19.098 42.65 42.65 42.65z" />
<glyph unicode="&#xe925;" glyph-name="right-arrow" d="M524.637 741.472c11.28 11.274 26.874 18.256 44.076 18.256s32.792-6.982 44.076-18.257l249.4-249.4c11.274-11.28 18.256-26.874 18.256-44.076s-6.982-32.792-18.257-44.076l-249.4-249.4c-11.196-10.835-26.484-17.495-43.313-17.495-34.429 0-62.35 27.921-62.35 62.35 0 16.832 6.675 32.118 17.523 43.336l142.95 142.95h-472.981c-34.429 0-62.35 27.921-62.35 62.35s27.921 62.35 62.35 62.35v0h472.981l-142.969 142.969c-11.274 11.28-18.256 26.874-18.256 44.076s6.982 32.792 18.257 44.076v0z" />
<glyph unicode="&#xe926;" glyph-name="arrow-narrow-right" d="M629.397 689.003c19.994 19.995 52.413 19.995 72.406 0l204.8-204.8c19.994-19.995 19.994-52.414 0-72.408l-204.8-204.8c-19.994-19.994-52.413-19.994-72.406 0s-19.994 52.413 0 72.406l117.397 117.395h-593.194c-28.277 0-51.2 22.922-51.2 51.2s22.923 51.2 51.2 51.2h593.194l-117.397 117.397c-19.994 19.995-19.994 52.413 0 72.408z" />
<glyph unicode="&#xe927;" glyph-name="expand" d="M612.572 699.424c-27.775 0-50.283 22.517-50.283 50.283s22.517 50.283 50.283 50.283v0h201.141c27.775 0 50.283-22.517 50.283-50.283v0-201.141c0-27.775-22.517-50.283-50.283-50.283s-50.283 22.517-50.283 50.283v0 79.755l-115.307-115.307c-9.031-8.734-21.352-14.113-34.933-14.113-27.775 0-50.283 22.517-50.283 50.283 0 13.581 5.379 25.903 14.132 34.946l115.296 115.296h-79.755zM160 347.428c0 27.775 22.517 50.283 50.283 50.283s50.283-22.517 50.283-50.283v0-79.755l115.307 115.307c9.031 8.734 21.352 14.113 34.933 14.113 27.775 0 50.283-22.517 50.283-50.283 0-13.581-5.379-25.903-14.132-34.946l-115.296-115.296h79.755c27.775 0 50.283-22.517 50.283-50.283s-22.517-50.283-50.283-50.283v0h-201.141c-27.775 0-50.283 22.517-50.283 50.283v0 201.141z" />
<glyph unicode="&#xe928;" glyph-name="contract" d="M827.539 605.77c29.047 0 52.587-23.547 52.587-52.587s-23.547-52.587-52.587-52.587v0h-210.356c-29.047 0-52.587 23.547-52.587 52.587v0 210.356c0 29.047 23.547 52.587 52.587 52.587s52.587-23.547 52.587-52.587v0-83.407l120.588 120.588c9.575 9.907 22.984 16.057 37.823 16.057 29.047 0 52.587-23.547 52.587-52.587 0-14.841-6.15-28.249-16.040-37.813l-120.599-120.599h83.407zM196.461 290.23c-29.047 0-52.587 23.547-52.587 52.587s23.547 52.587 52.587 52.587v0h210.356c29.047 0 52.587-23.547 52.587-52.587v0-210.356c0-29.047-23.547-52.587-52.587-52.587s-52.587 23.547-52.587 52.587v0 83.407l-120.588-120.588c-9.45-9.13-22.332-14.763-36.535-14.763-29.047 0-52.587 23.547-52.587 52.587 0 14.198 5.631 27.089 14.774 36.551l120.575 120.575h-83.407z" />
<glyph unicode="&#xe929;" glyph-name="arrow-narrow-left" d="M394.603 206.997c-19.995-19.994-52.413-19.994-72.408 0l-204.8 204.8c-19.995 19.994-19.995 52.411 0 72.408l204.8 204.8c19.995 19.995 52.413 19.995 72.408 0s19.995-52.413 0-72.408l-117.397-117.397h593.192c28.278 0 51.2-22.923 51.2-51.2s-22.922-51.2-51.2-51.2h-593.192l117.397-117.397c19.995-19.994 19.995-52.413 0-72.406z" />
<glyph unicode="&#xe92a;" glyph-name="check-circle" d="M512 16c238.59 0 432 193.41 432 432s-193.41 432-432 432c-238.59 0-432-193.41-432-432s193.41-432 432-432zM712.184 517.814l-215.998-215.998c-21.086-21.086-55.277-21.086-76.37 0l-108 107.998c-21.086 21.086-21.086 55.277 0 76.37s55.275 21.086 76.37 0l69.814-69.816 177.816 177.816c21.086 21.086 55.277 21.086 76.37 0s21.086-55.277 0-76.37z" />
<glyph unicode="&#xe92b;" glyph-name="exclamation-circle" d="M944 448c0-238.59-193.41-432-432-432s-432 193.41-432 432c0 238.59 193.41 432 432 432s432-193.41 432-432zM566 232c0 29.827-24.173 54-54 54s-54-24.173-54-54c0-29.827 24.174-54 54-54s54 24.173 54 54zM512 718c-29.826 0-54-24.174-54-54v-216c0-29.826 24.174-54 54-54s54 24.174 54 54v216c0 29.826-24.173 54-54 54z" />
<glyph unicode="&#xe92c;" glyph-name="document-text" d="M204.8 755.2c0 56.554 45.846 102.4 102.4 102.4h234.793c27.156 0 53.202-10.788 72.407-29.992l174.807-174.808c19.205-19.204 29.993-45.25 29.993-72.408v-439.592c0-56.556-45.844-102.4-102.4-102.4h-409.6c-56.554 0-102.4 45.844-102.4 102.4v614.4zM307.2 448c0-28.278 22.923-51.2 51.2-51.2h307.2c28.278 0 51.2 22.922 51.2 51.2 0 28.277-22.922 51.2-51.2 51.2h-307.2c-28.277 0-51.2-22.923-51.2-51.2zM358.4 294.4c-28.277 0-51.2-22.922-51.2-51.2s22.923-51.2 51.2-51.2h307.2c28.278 0 51.2 22.922 51.2 51.2s-22.922 51.2-51.2 51.2h-307.2z" />
<glyph unicode="&#xe92d;" glyph-name="account" horiz-adv-x="1059" d="M509.95 829.333c105.302 0 190.667-85.365 190.667-190.667s-85.365-190.667-190.667-190.667v0c-105.302 0-190.667 85.365-190.667 190.667s85.365 190.667 190.667 190.667v0zM509.95 352.667c210.687 0 381.333-85.323 381.333-190.667v-95.333h-762.667v95.333c0 105.343 170.647 190.667 381.333 190.667z" />
<glyph unicode="&#xe92e;" glyph-name="desktop" horiz-adv-x="975" d="M153.6 704v-409.6c0-56.554 45.846-102.4 102.4-102.4h113.664l-6.298-25.037-41.165-41.165c-9.262-9.265-14.991-22.063-14.991-36.198 0-28.273 22.917-51.194 51.189-51.2h307.201c28.272 0.006 51.188 22.927 51.188 51.2 0 14.136-5.729 26.934-14.991 36.198l-41.165 41.165-6.298 25.037h113.664c56.554 0 102.4 45.846 102.4 102.4v409.6c0 56.554-45.846 102.4-102.4 102.4h-512c-56.554 0-102.4-45.846-102.4-102.4zM449.075 345.6h-193.075v358.4h512v-358.4h-318.925z" />
<glyph unicode="&#xe92f;" glyph-name="mobile" horiz-adv-x="975" d="M358.4 857.6h307.2c56.554 0 102.4-45.846 102.4-102.4v-614.4c0-56.554-45.846-102.4-102.4-102.4h-307.2c-56.554 0-102.4 45.846-102.4 102.4v614.4c0 56.554 45.846 102.4 102.4 102.4zM512 140.8c28.277 0 51.2 22.923 51.2 51.2s-22.923 51.2-51.2 51.2v0c-28.277 0-51.2-22.923-51.2-51.2s22.923-51.2 51.2-51.2v0z" />
<glyph unicode="&#xe930;" glyph-name="x-circle" d="M512 17.905v0c-237.534 0-430.095 192.562-430.095 430.095s192.562 430.095 430.095 430.095v0c237.534 0 430.095-192.562 430.095-430.095s-192.562-430.095-430.095-430.095zM442.486 593.533c-9.66 9.339-22.833 15.093-37.35 15.093-29.69 0-53.762-24.071-53.762-53.762 0-14.517 5.754-27.691 15.106-37.364l-0.013 0.014 69.514-69.514-69.514-69.514c-10.124-9.789-16.411-23.496-16.411-38.669 0-29.69 24.071-53.762 53.762-53.762 15.173 0 28.88 6.287 38.656 16.398l0.013 0.014 69.514 69.514 69.514-69.514c9.66-9.339 22.833-15.093 37.35-15.093 29.69 0 53.762 24.071 53.762 53.762 0 14.517-5.754 27.691-15.106 37.364l0.013-0.014-69.514 69.514 69.514 69.514c9.339 9.66 15.093 22.833 15.093 37.35 0 29.69-24.071 53.762-53.762 53.762-14.517 0-27.691-5.754-37.364-15.106l0.014 0.013-69.514-69.514-69.514 69.514z" />
<glyph unicode="&#xe931;" glyph-name="accordion-arrow" d="M182.234 638.916c12.76 12.76 30.392 20.647 49.864 20.647s37.099-7.894 49.864-20.647l232.241-232.241 232.241 232.241c12.671 12.251 29.95 19.795 48.991 19.795 38.949 0 70.524-31.575 70.524-70.524 0-19.046-7.55-36.323-19.82-49.017l0.016 0.017-282.109-282.109c-12.76-12.76-30.392-20.647-49.864-20.647s-37.099 7.894-49.864 20.647l-282.108 282.108c-12.76 12.76-20.647 30.392-20.647 49.864s7.894 37.099 20.647 49.864l-0.001-0.001z" />
<glyph unicode="&#xe932;" glyph-name="arrow-sm-down" d="M753.004 433.004c19.994-19.994 19.994-52.413 0-72.407l-204.8-204.8c-19.994-19.994-52.412-19.994-72.408 0l-204.8 204.8c-19.995 19.994-19.995 52.413 0 72.407s52.413 19.995 72.408 0l117.396-117.396v388.393c0 28.277 22.923 51.2 51.2 51.2s51.2-22.923 51.2-51.2v-388.393l117.396 117.396c19.994 19.995 52.413 19.995 72.407 0z" />
<glyph unicode="&#xe933;" glyph-name="arrow-sm-up" d="M270.996 462.996c-19.995 19.995-19.995 52.413 0 72.408l204.8 204.8c19.995 19.995 52.414 19.995 72.408 0l204.8-204.8c19.994-19.995 19.994-52.413 0-72.408-19.994-19.993-52.413-19.993-72.407 0l-117.396 117.396v-388.392c0-28.278-22.922-51.2-51.2-51.2-28.277 0-51.2 22.922-51.2 51.2v388.392l-117.396-117.396c-19.995-19.993-52.413-19.993-72.408 0z" />
<glyph unicode="&#xe934;" glyph-name="filters" d="M460.8 294.4h102.4c28.277 0 51.2-22.923 51.2-51.2s-22.923-51.2-51.2-51.2h-102.4c-28.277 0-51.2 22.923-51.2 51.2s22.923 51.2 51.2 51.2zM153.6 704h716.8c28.277 0 51.2-22.923 51.2-51.2s-22.923-51.2-51.2-51.2h-716.8c-28.277 0-51.2 22.923-51.2 51.2s22.923 51.2 51.2 51.2zM307.2 499.2h409.6c28.277 0 51.2-22.923 51.2-51.2s-22.923-51.2-51.2-51.2h-409.6c-28.277 0-51.2 22.923-51.2 51.2s22.923 51.2 51.2 51.2z" />
<glyph unicode="&#xe935;" glyph-name="check-alt" d="M855.398 688.998c9.262-9.265 14.991-22.063 14.991-36.198s-5.729-26.934-14.991-36.199l-409.6-409.6c-9.265-9.262-22.063-14.991-36.198-14.991s-26.934 5.729-36.199 14.991l-204.8 204.8c-8.892 9.198-14.372 21.744-14.372 35.569 0 28.277 22.923 51.2 51.2 51.2 13.826 0 26.371-5.48 35.584-14.386l168.588-168.588 373.402 373.402c9.265 9.262 22.063 14.991 36.198 14.991s26.934-5.729 36.199-14.991v0z" />
<glyph unicode="&#xe936;" glyph-name="chevron-right" d="M373.402 207.002c-9.262 9.265-14.991 22.063-14.991 36.198s5.729 26.934 14.991 36.199l168.601 168.601-168.602 168.602c-8.892 9.198-14.372 21.744-14.372 35.569 0 28.277 22.923 51.2 51.2 51.2 13.826 0 26.371-5.48 35.584-14.386l204.786-204.786c9.262-9.265 14.991-22.063 14.991-36.198s-5.729-26.934-14.991-36.199l-204.8-204.8c-9.265-9.262-22.063-14.991-36.198-14.991s-26.934 5.729-36.199 14.991v0z" />
<glyph unicode="&#xe937;" glyph-name="circle-lightning-bolt" d="M102.4 445.286c-1.792 225.741 181.146 410.47 409.6 412.314 224.819 0 407.757-182.938 409.6-406.886 0.87-109.21-41.882-212.070-118.323-290.304-76.493-78.336-179.302-121.088-288.563-122.010h-2.714c-224.819 0-407.757 182.938-409.6 406.886zM656.691 489.165h-93.338c-2.92 0.055-5.501 1.459-7.152 3.613l-0.016 0.022c-1.242 1.617-1.991 3.669-1.991 5.897 0 0.778 0.091 1.534 0.264 2.259l-0.013-0.066 55.501 242.79c0.126 0.593 0.198 1.275 0.198 1.974 0 1.553-0.356 3.023-0.992 4.332l0.026-0.059c-0.925 1.93-2.435 3.457-4.298 4.379l-0.054 0.024c-1.126 0.561-2.453 0.89-3.857 0.89-0.776 0-1.529-0.1-2.246-0.289l0.061 0.014c-2.095-0.565-3.845-1.799-5.051-3.455l-0.018-0.026-233.779-329.421c-0.979-1.502-1.561-3.341-1.561-5.315 0-3.546 1.877-6.653 4.692-8.382l0.043-0.024c1.27-0.746 2.797-1.186 4.428-1.186 0.135 0 0.27 0.003 0.404 0.009l-0.019-0.001h93.389c0.004 0 0.009 0 0.014 0 2.928 0 5.525-1.421 7.137-3.611l0.017-0.024c1.248-1.619 2-3.676 2-5.909 0-0.792-0.095-1.561-0.273-2.298l0.014 0.066-56.166-243.046c-0.126-0.593-0.198-1.275-0.198-1.974 0-1.553 0.356-3.023 0.992-4.332l-0.026 0.059c0.929-1.928 2.438-3.453 4.298-4.379l0.054-0.025c1.126-0.561 2.453-0.89 3.857-0.89 0.776 0 1.529 0.1 2.246 0.289l-0.061-0.014c2.092 0.573 3.84 1.805 5.051 3.456l0.018 0.026 233.779 329.728c0.955 1.494 1.522 3.315 1.522 5.269 0 3.366-1.683 6.34-4.254 8.124l-0.033 0.021c-1.299 0.875-2.884 1.42-4.592 1.484h-0.016z" />
<glyph unicode="&#xe938;" glyph-name="lock" d="M342 482v68c0 93.891 76.109 170 170 170s170-76.109 170-170v-68c37.553 0 68-30.447 68-68v-170c0-37.553-30.447-68-68-68h-340c-37.553 0-68 30.447-68 68v170c0 37.553 30.447 68 68 68zM614 482v68c0 56.329-45.671 102-102 102s-102-45.671-102-102v-68h204z" />
<glyph unicode="&#xe939;" glyph-name="failed" d="M921.6 448v0c0 226.216-183.384 409.6-409.6 409.6s-409.6-183.384-409.6-409.6v0c0-226.216 183.384-409.6 409.6-409.6s409.6 183.384 409.6 409.6zM690.022 197.632c-49.462-35.524-111.235-56.809-177.978-56.809-169.662 0-307.2 137.538-307.2 307.2 0 66.731 21.277 128.492 57.416 178.87l-0.628-0.921 428.39-428.442zM762.419 270.029l-428.39 428.339c49.477 35.556 111.277 56.862 178.052 56.862 169.662 0 307.2-137.538 307.2-307.2 0-66.776-21.305-128.575-57.489-178.971l0.628 0.919z" />
<glyph unicode="&#xe93a;" glyph-name="drag-indicator" d="M341.333 704.010c0 23.564 19.103 42.667 42.667 42.667v0c23.564 0 42.667-19.102 42.667-42.667v0c0-23.564-19.103-42.667-42.667-42.667v0c-23.564 0-42.667 19.103-42.667 42.667v0zM341.333 448.009c0 23.565 19.103 42.667 42.667 42.667v0c23.564 0 42.667-19.102 42.667-42.667v0c0-23.561-19.103-42.667-42.667-42.667v0c-23.564 0-42.667 19.106-42.667 42.667v0zM341.333 192.009c0 23.565 19.103 42.667 42.667 42.667v0c23.564 0 42.667-19.102 42.667-42.667v0c0-23.561-19.103-42.667-42.667-42.667v0c-23.564 0-42.667 19.106-42.667 42.667v0zM597.333 704.010c0 23.564 19.102 42.667 42.667 42.667v0c23.565 0 42.667-19.102 42.667-42.667v0c0-23.564-19.102-42.667-42.667-42.667v0c-23.565 0-42.667 19.103-42.667 42.667v0zM597.333 448.009c0 23.565 19.102 42.667 42.667 42.667v0c23.565 0 42.667-19.102 42.667-42.667v0c0-23.561-19.102-42.667-42.667-42.667v0c-23.565 0-42.667 19.106-42.667 42.667v0zM597.333 192.009c0 23.565 19.102 42.667 42.667 42.667v0c23.565 0 42.667-19.102 42.667-42.667v0c0-23.561-19.102-42.667-42.667-42.667v0c-23.565 0-42.667 19.106-42.667 42.667v0z" />
<glyph unicode="&#xe93b;" glyph-name="chevron-down" d="M270.997 586.603c19.995 19.995 52.413 19.995 72.408 0l168.597-168.597 168.595 168.597c19.994 19.995 52.413 19.995 72.406 0s19.994-52.413 0-72.408l-204.8-204.798c-19.994-19.994-52.413-19.994-72.408 0l-204.8 204.798c-19.995 19.995-19.995 52.413 0 72.408z" />
<glyph unicode="&#xe93c;" glyph-name="chevron-up" d="M753.003 309.395c-19.994-19.994-52.413-19.994-72.406 0l-168.597 168.597-168.597-168.597c-19.995-19.994-52.413-19.994-72.408 0s-19.995 52.413 0 72.406l204.8 204.802c19.994 19.995 52.414 19.995 72.408 0l204.8-204.802c19.994-19.994 19.994-52.413 0-72.406z" />
<glyph unicode="&#xe93d;" glyph-name="exclamation-triangle" d="M419.952 761.706c40.374 71.781 143.722 71.781 184.098 0l294.669-523.861c39.603-70.403-11.277-157.386-92.046-157.386h-589.342c-80.776 0-131.646 86.989-92.046 157.386l294.672 523.861zM564.802 238.869c0 29.163-23.638 52.81-52.81 52.81s-52.81-23.638-52.81-52.81c0-29.165 23.638-52.81 52.81-52.81s52.81 23.638 52.81 52.81zM512 661.312c-29.162 0-52.81-23.638-52.81-52.81v-158.419c0-29.162 23.638-52.81 52.81-52.81s52.81 23.638 52.81 52.81v158.419c0 29.162-23.638 52.81-52.81 52.81z" />
<glyph unicode="&#xe93e;" glyph-name="reactivate" d="M536.576 11.776c53.687 0 104.302 10.24 151.747 30.818 48.090 20.867 89.167 49.055 123.866 83.638l-0.011-0.011c34.578 34.7 62.767 75.794 82.635 121.351l0.992 2.553c19.513 44.063 30.873 95.456 30.873 149.502 0 0.789-0.002 1.578-0.007 2.366l0.001-0.121c0 14.336-5.071 26.575-15.116 36.718-9.060 9.389-21.754 15.22-35.809 15.22-0.268 0-0.535-0.002-0.802-0.006l0.040 0.001c-14.336 0-26.575-5.071-36.815-15.214-9.505-9.075-15.414-21.845-15.414-35.996 0-0.254 0.002-0.507 0.006-0.76v0.038c0-78.458-28.087-145.798-84.261-201.972s-123.465-84.261-201.923-84.261-145.798 28.087-201.923 84.261c-56.222 56.222-84.309 123.514-84.309 201.972 0 78.409 28.087 145.749 84.309 201.923 56.174 56.174 123.611 84.261 202.362 84.261h-0.488l-19.017-19.066c-9.216-9.167-29.16-35.401-30.232-48.811-0.104-1.166-0.163-2.521-0.163-3.891 0-12.501 4.931-23.85 12.954-32.209l-0.015 0.016c8.554-10.586 21.494-17.334 36.014-17.457h0.021c14.482-0.341 41.838 19.651 52.419 30.232l109.227 106.057c10.581 10.338 16.043 22.43 16.384 36.376 0.011 0.384 0.017 0.835 0.017 1.289 0 13.982-5.902 26.585-15.351 35.454l-0.026 0.024-104.936 104.936c-10.63 10.581-32.037 23.211-45.495 23.211-13.41 0-25.6-5.315-36.571-15.896-9.482-9.3-15.36-22.246-15.36-36.564 0-0.003 0-0.005 0-0.008v0c0-13.8 14.726-33.304 25.356-43.886l15.896-15.896h-1.073c-0.682 0.004-1.488 0.007-2.295 0.007-54.029 0-105.405-11.36-151.869-31.823l2.417 0.949c-48.107-20.848-89.201-49.020-123.918-83.592l0.014 0.014c-34.562-34.717-62.736-75.827-82.586-121.398l-0.991-2.555c-19.513-44.060-30.873-95.449-30.873-149.491 0-0.776 0.002-1.551 0.007-2.326l-0.001 0.119c0-53.736 10.24-104.302 30.866-151.747 20.833-48.112 49.007-89.209 83.59-123.916l-0.012 0.012c34.701-34.577 75.795-62.766 121.35-82.634l2.554-0.992c47.445-20.529 98.011-30.818 151.747-30.818zM741.522 462.287c8.469 8.76 13.688 20.708 13.688 33.875 0 26.93-21.831 48.762-48.762 48.762-13.167 0-25.116-5.219-33.889-13.701l0.014 0.013-160.573-160.573-63.049 63.049c-8.76 8.469-20.708 13.688-33.875 13.688-26.93 0-48.762-21.831-48.762-48.762 0-13.167 5.219-25.116 13.701-33.889l-0.013 0.014 97.524-97.524c8.824-8.821 21.012-14.277 34.475-14.277s25.651 5.456 34.475 14.277l195.047 195.047z" />
<glyph unicode="&#xe93f;" glyph-name="play" d="M245.693 818.657c18.534 9.595 40.45 15.218 63.694 15.218 27.782 0 53.686-8.041 75.511-21.926l-0.569 0.34 405.176-257.239c37.624-23.876 60.149-64.008 60.149-107.034s-22.574-83.158-60.149-107.034l-405.176-257.239c-21.259-13.565-47.182-21.619-74.98-21.619-23.225 0-45.123 5.619-64.436 15.569l0.793-0.366c-43.894 22.429-71.34 66.034-71.34 113.498v514.429c0 47.464 27.398 91.020 71.34 113.401z" />
</font>
</defs>
</svg>
