<svg id="Layer_1_copy" data-name="Layer 1 copy" xmlns="http://www.w3.org/2000/svg" width="16" height="16" viewBox="0 0 20 20"><defs><style>.cls-1{fill:#a0a5aa;}</style></defs><title>Artboard 2</title><polyline class="cls-1" points="16.67 10 20 8.08 10 2.3 0 8.08 3.33 10 10 6.15 16.67 10"/><path class="cls-1" d="M16.67,10l-4.2,2.42L10,13.85l-.51-.3L8.3,12.87,7.15,14.13a.93.93,0,0,1-.64.27.9.9,0,0,1-.63-.27.88.88,0,0,1,0-1.27L6.81,12,3.33,10,0,11.92,10,17.7l10-5.78Z"/><path class="cls-1" d="M11.36,10A1.37,1.37,0,0,1,10,11.36h0V11h0a1,1,0,0,0,.72-.29A1,1,0,0,0,11,10ZM10,11.72a1.72,1.72,0,0,1-1.21-.5A1.74,1.74,0,0,1,8.29,10,1.71,1.71,0,1,1,10,11.72Zm0-3.94A2.23,2.23,0,0,0,7.77,10a2.17,2.17,0,0,0,.49,1.38c-.14.13-1.86,1.69-2,1.84a.37.37,0,1,0,.53.53c.15-.15,1.71-1.87,1.83-2a2.28,2.28,0,0,0,1.39.49,2.23,2.23,0,1,0,0-4.46Z"/></svg>