<svg xmlns="http://www.w3.org/2000/svg" width="18" height="12" fill="none" viewBox="0 0 36 24"><g clip-path="url(#a)"><path fill="#FF4B55" d="M36 0H0v23.992h36V-.001Z"/><path fill="#FFE15A" d="M24 0H0v23.992h24V-.001Z"/><path fill="#0052B4" d="M12 0H0v23.992h12V-.001Z"/><path fill="#FD823D" d="M21.46 9.79c1.94-2.4-1.95-2.59-1.09-1.46-1.86.95-.08-2.43-2.37-.96-2.29-1.47-.51 1.91-2.37.96.86-1.13-3.03-.94-1.09 1.46-3.41.1.71 3.31-1.32 4.15-.27 2.86 3.43 2.68 4.78 3.78 1.35-1.1 5.05-.92 4.78-3.78-2.03-.84 2.09-4.05-1.32-4.15Z"/><path fill="#FFE15A" d="M21.318 9.37h-6.636v6.636h6.636V9.37Z"/><path fill="#FF4B55" d="M17.815 9.738H15.04v2.773h2.774V9.738ZM18.977 9.738h-.396v2.773h.396V9.738ZM19.77 9.738h-.396v2.773h.396V9.738ZM20.562 9.738h-.396v2.773h.396V9.738ZM16.274 12.881h-.308v2.773h.308v-2.773ZM16.89 12.881h-.308v2.773h.308v-2.773ZM17.507 12.881H17.2v2.773h.308v-2.773Z"/><path fill="#FFE15A" d="M16.2 11.968c-.02.1-.1.19-.2.23-.09.04-.28.06-.5-.19-.02-.02-.04-.02-.06-.02-.03.01-.06.03-.06.07-.01.05.03.11.12.16.03.02.04.07.02.1-.02.02-.04.04-.06.04-.02 0-.03-.01-.04-.02-.19-.12-.2-.24-.19-.31.02-.08.08-.15.17-.18.08-.02.16 0 .22.07.11.13.23.18.33.15.05-.02.09-.06.1-.1h.15ZM17.45 12.338c-.01.01-.03.02-.04.02-.02 0-.05-.02-.06-.04a.078.078 0 0 1 .02-.1c.08-.05.13-.11.12-.16-.01-.04-.03-.06-.06-.07-.02 0-.05 0-.07.02-.21.25-.4.23-.49.19a.306.306 0 0 1-.21-.23h.15c.02.04.06.08.11.1.1.03.22-.02.33-.15.06-.07.14-.09.22-.07.09.03.15.1.16.18.01.07 0 .19-.18.31ZM17.51 10.138c-.01.07-.04.18-.21.24-.04.01-.08-.01-.09-.04-.02-.04 0-.08.04-.1.05-.02.11-.05.11-.11.01-.05-.02-.1-.06-.13-.02-.01-.06-.03-.1 0-.07.04-.08.08-.09.16-.01.05-.01.11-.05.16l-.28.36.3.36-.26.79h-.31v-1.48l.18.22.25-.33c.02-.02.02-.06.03-.11.01-.08.03-.18.15-.25.08-.05.18-.05.26 0 .09.06.14.16.13.26Z"/><path fill="#FFE15A" d="M16.37 10.348v1.48h-.32l-.04-.13-.54.71c-.01.02-.03.03-.05.03-.02 0-.04 0-.05-.01-.03-.03-.04-.07-.01-.1l.6-.79-.17-.5.58-.69Z"/><path fill="#FF4B55" d="M15.658 12.884h-.308v2.773h.308v-2.773ZM19.075 13.793c-.13.112-.032.2.037.371.083-.096.039-.148-.015-.224.156-.208.336.18.188.301.277.036.063-.521.608-.313.013.004.074.007.09.009a.298.298 0 0 0 .062-.012c-.03.042-.12.238-.187.232.192.125.137-.106.338-.217 0 0 .077.184-.019.283l.085.048c.04-.094.108-.365.014-.514.357-.777-.717-.318-1.135-.408l.048-.11c-.22.03-.342-.084-.532.19l.055.11c.183-.014.28.064.363.254ZM19.141 14.5l.048-.11c-.22.03-.342-.085-.532.19l.055.11c.183-.014.28.064.363.254-.13.112-.032.2.037.37.083-.095.039-.148-.015-.223.156-.208.336.18.188.301.277.035.063-.522.608-.314.013.005.074.008.09.01a.312.312 0 0 0 .062-.012c-.03.042-.12.238-.187.232.192.124.137-.106.338-.217 0 0 .077.184-.019.283l.085.047c.04-.093.108-.364.014-.514.357-.776-.717-.317-1.135-.407Z"/></g><defs><clipPath id="a"><path fill="#fff" d="M0 0h36v23.995H0z"/></clipPath></defs></svg>