<svg xmlns="http://www.w3.org/2000/svg" width="18" height="12" fill="none" viewBox="0 0 36 24"><g clip-path="url(#a)"><path fill="#FF4B55" d="M0 0h36v23.992H0V-.001Z"/><path fill="#73AF00" d="M24 0h12v23.992H24V-.001Z"/><path fill="#464655" d="M0 0h12v23.992H0V-.001Z"/><path fill="#F0F0F0" fill-rule="evenodd" d="M17.995 5.28a6.716 6.716 0 1 1 0 13.43 6.716 6.716 0 0 1 0-13.43Zm-1.783 5.248h3.567v-.751c0-.876-1.154-1.055-1.783-2.22-.628 1.165-1.783 1.344-1.783 2.22v.751Zm-2.535 4.153h.934V9.565c0-.219.288-.264.446-.555.156.291.446.336.446.555V14.68h.313v-3.914h4.36v3.914h.313V9.565c0-.219.289-.264.446-.555.157.291.446.336.446.555V14.68h.933a5.348 5.348 0 0 0-1.473-7.696 5.739 5.739 0 0 0-2.845-.75 5.739 5.739 0 0 0-2.845.75 5.348 5.348 0 0 0-2.507 4.534 5.32 5.32 0 0 0 1.033 3.162Zm7.925.793h-7.213a5.334 5.334 0 0 0 3.607 1.398c1.389 0 2.655-.53 3.606-1.398Zm-4.977-.793h2.741v-1.56a1.37 1.37 0 1 0-2.74 0v1.56Z" clip-rule="evenodd"/></g><defs><clipPath id="a"><path fill="#fff" d="M0 0h36v23.995H0z"/></clipPath></defs></svg>