<svg xmlns="http://www.w3.org/2000/svg" width="18" height="12" fill="none" viewBox="0 0 36 24"><g clip-path="url(#a)"><path fill="#F0F0F0" d="M0 0h36v23.992H0V-.001Z"/><path fill="#464655" d="M0 0h36l-2.348 11.996H2.348L0-.001Z"/><path fill="#FFE15A" d="m18 11.996-7.826-2.608 3.988-.763-3.392-2.231 3.976.82-2.28-3.358 3.36 2.28-.821-3.976 2.232 3.391L18 1.564l.763 3.987 2.232-3.391-.82 3.975 3.359-2.28-2.28 3.36 3.976-.821-3.392 2.23 3.988.764L18 11.996Z"/><path fill="#0052B4" d="M2.348 9.388h31.304v5.216H2.348V9.388Z"/><path fill="#FF4B55" d="m0 0 18 23.992L36-.001v23.993H0V-.001Z"/></g><defs><clipPath id="a"><path fill="#fff" d="M0 0h36v23.995H0z"/></clipPath></defs></svg>