<svg xmlns="http://www.w3.org/2000/svg" width="18" height="12" fill="none" viewBox="0 0 36 24"><g clip-path="url(#a)"><path fill="#F0F0F0" d="M36 0H0v23.996h36V0Z"/><path fill="#82AFFF" d="M36 17H0v7h36v-7Z"/><path fill="#FD823D" d="M18.111 6.938c.282.632 1.185 1.33 1.433 1.671-.316.342-.379.305-.337.94.55-.548.559-.606.912-.522.775.736.139 2.318-.5 2.662-.64.367-.524-.013-1.483.447.44.359.949-.052 1.365.057.226.256-.108.723.068 1.162.368-.034.324-.742.41-.999.268-.94 1.884-1.596 1.966-2.46.34-.152.681-.047 1.095.175-.206-.808-.888-.8-1.071-1.052-.436-.634-.822-1.358-1.752-1.546-.705-.142-.653.043-1.105-.251-.282-.21-1.138-.605-1-.284Z"/><path fill="#FD823D" d="M15.854 9.618c.454-.532.68-1.62.88-1.988.465.106.46.177 1.03-.154-.765-.208-.823-.19-.911-.526.321-.997 2.085-1.2 2.703-.821.64.368.233.447 1.107 1.04.127-.537-.492-.775-.584-1.177.131-.31.72-.247 1.045-.6-.203-.294-.84.074-1.117.121-.998.213-2.361-.842-3.2-.508-.3-.216-.362-.552-.35-1.005-.653.551-.327 1.123-.475 1.395-.385.663-.876 1.326-.616 2.198.198.662.345.53.284 1.05-.063.335-.03 1.24.204.975Z"/><path fill="#FD823D" d="M19.544 9.992c-.713-.095-1.805.284-2.24.31-.145-.434-.079-.466-.67-.76.209.732.255.77-.002 1.015-1.06.254-2.156-1.08-2.135-1.78 0-.712.281-.422.361-1.442-.548.175-.441.802-.754 1.086-.347.053-.594-.46-1.08-.542-.159.318.5.646.688.848.707.704.464 2.363 1.198 2.874-.039.357-.308.581-.72.805.832.248 1.176-.314 1.497-.333.794-.03 1.644.028 2.292-.635.491-.504.297-.556.795-.774.333-.123 1.13-.619.77-.672Z"/></g><defs><clipPath id="a"><path fill="#fff" d="M0 0h36v23.996H0z"/></clipPath></defs></svg>