<svg xmlns="http://www.w3.org/2000/svg" width="18" height="12" fill="none" viewBox="0 0 36 24"><g clip-path="url(#a)"><path fill="#0052B4" d="M36 0H0v23.996h36V0Z"/><path fill="#F0F0F0" d="m15.708 11.998.057-.064-.058.064Z"/><path fill="#F0F0F0" d="M18 0v2.148l-3.176 1.764H18v4.173h-4.156L18 10.394v1.604h-1.876l-5.167-2.87v2.87H7.043V8.583L.896 11.998H0V9.85l3.176-1.765H0V3.912h4.156L0 1.603V0h1.876l5.167 2.87V0h3.913v3.415L17.105 0H18Z"/><path fill="#FF4B55" d="M10.125 0h-2.25v4.874H0v2.25h7.875v4.874h2.25V7.124H18v-2.25h-7.875V0Z"/><path fill="#FF4B55" d="M10.957 8.085 18 11.998v-1.106l-5.052-2.807h-1.992ZM5.052 8.085 0 10.892v1.107l7.043-3.914H5.052Z"/><path fill="#F0F0F0" d="M22.136 7.746c0 6.229.722 8.374 2.168 9.82.862.856 1.245 1.178 2.584 2.058 1.338-.88 1.72-1.202 2.583-2.058 1.446-1.445 2.169-3.591 2.169-9.82-1.052.45-1.652.669-2.519.655-.776-.011-1.598-.372-2.233-.655-.636.283-1.458.644-2.234.655-.867.014-1.467-.204-2.518-.655Z"/><path fill="#82AFFF" d="M23.328 16.245c.255.488.585.933.976 1.321.862.857 1.245 1.179 2.584 2.059 1.338-.88 1.72-1.202 2.583-2.059.392-.387.72-.833.976-1.321h-7.12Z"/><path fill="#FD823D" d="M27.038 10.865c.223.5.939 1.053 1.136 1.324-.25.271-.3.242-.268.745.436-.434.443-.48.724-.414.613.584.11 1.838-.398 2.111-.507.29-.415-.01-1.175.354.349.285.752-.041 1.082.046.18.203-.085.572.054.92.292-.026.257-.588.325-.791.213-.746 1.494-1.266 1.559-1.95.27-.12.54-.038.868.138-.163-.64-.704-.634-.85-.834-.345-.503-.65-1.076-1.388-1.225-.56-.113-.518.034-.876-.2-.223-.165-.902-.479-.793-.224Z"/><path fill="#FD823D" d="M25.248 12.99c.36-.423.538-1.284.698-1.577.368.085.364.14.816-.122-.607-.164-.652-.15-.722-.417.255-.79 1.653-.951 2.143-.65.507.29.184.354.878.824.1-.426-.39-.614-.464-.933.104-.246.57-.196.829-.476-.161-.233-.666.058-.886.096-.791.17-1.872-.668-2.536-.403-.239-.171-.288-.438-.278-.796-.518.437-.259.89-.377 1.105-.305.526-.694 1.052-.488 1.743.157.524.274.42.225.832-.05.266-.023.984.162.774Z"/><path fill="#FD823D" d="M28.174 13.286c-.566-.076-1.431.225-1.776.246-.115-.345-.063-.37-.532-.603.166.58.203.61 0 .805-.842.2-1.71-.857-1.694-1.412 0-.564.223-.334.287-1.143-.435.139-.35.636-.599.861-.274.042-.47-.364-.855-.43-.126.252.396.513.545.673.56.558.368 1.873.95 2.278-.03.283-.245.461-.572.639.66.196.933-.25 1.188-.265.63-.023 1.303.022 1.816-.503.39-.4.237-.441.63-.614.265-.097.896-.49.612-.532Z"/><path fill="#FFE15A" d="M29.214 8.181c-.808-.012-1.664-.387-2.326-.682-.663.295-1.519.67-2.327.682-.904.014-1.528-.213-2.623-.682 0 6.487.752 8.723 2.258 10.229.898.892 1.297 1.227 2.691 2.144 1.395-.917 1.793-1.252 2.692-2.144 1.506-1.506 2.258-3.742 2.258-10.23-1.095.47-1.72.697-2.623.683Zm.203 9.32c-.844.842-1.218 1.159-2.53 2.024-1.31-.865-1.685-1.182-2.53-2.023-1.415-1.422-2.122-3.532-2.122-9.657 1.03.443 1.616.658 2.465.645.76-.012 1.565-.366 2.188-.645.622.279 1.427.633 2.187.645.849.013 1.436-.202 2.466-.645 0 6.125-.708 8.235-2.124 9.657Z"/><path fill="#0052B4" d="M7.043 3.913 0 0v1.107l5.052 2.806h1.991Z"/><path fill="#F0F0F0" d="M7.043 3.913 0 0v1.107l5.052 2.806h1.991Z"/><path fill="#FF4B55" d="M12.948 3.913 18 1.107V0l-7.043 3.913h1.991ZM7.043 3.913 0 0v1.107l5.052 2.806h1.991Z"/></g><defs><clipPath id="a"><path fill="#fff" d="M0 0h36v23.996H0z"/></clipPath></defs></svg>