<svg xmlns="http://www.w3.org/2000/svg" width="32" height="32" fill="none"><path fill="#FF4B55" d="M30 5H2a2 2 0 0 0-2 2v17.334a2 2 0 0 0 2 2h28a2 2 0 0 0 2-2V7a2 2 0 0 0-2-2Z"/><path fill="#464655" d="M22.035 18.357c-.302-.19-.483.111-.483.111l-.88.104.44-.37c.319.025.362-.07.448-.199.087-.13.449-.069.449-.069-.052-.396-.552-.172-.552-.172-.405-.044-.474.284-.474.284l-.63.483-1.385-.41c.144-.159.257-.315.273-.41.028-.158-1.023-.424-1.345-.758-.321-.333-.436-.862-.287-1 .15-.138.276.253.437.575.16.322.46.575.655.414.195-.161-.207-.402-.39-.747-.185-.345.137-.472.287-.437.15.034.241.747.597 1.115.357.368.678.299.713.069.034-.23-.588-.513-.715-.709-.126-.195-.159-.579.048-.59.207-.012.966 1.119 1.61 1.552.7.47 1.264-.08 1.172-.31-.092-.23-.517-.139-1.011-.265-.495-.127-1-.793-1.15-1.161-.15-.368-.026-.368.06-.333.087.034.414.517 1.044.888.629.37 1.069.017 1.12-.07.052-.085.25-.473-.396-.382-.736.104-1.155-.333-1.457-.566-.302-.232-.423-.551-.285-.68.138-.13.592.453 1.282.637.633.17.89-.103.873-.353-.017-.25-.163-.147-.879-.216-.715-.069-1.215-.741-1.241-.784-.026-.043-.018-.285.345-.052.362.233 1.008.37 1.387.354.38-.018.457-.526.276-.613-.18-.086-.224.044-.638.13-.413.086-1.19-.336-1.379-.535-.19-.198.017-.327.112-.31.095.017.716.38 1.267.362.552-.017.785-.526.768-.681-.018-.155-.173-.285-.405-.13-.233.156-.544.337-1.06.25-.518-.086-.76-.43-.69-.56.069-.129.569.095 1.362.009.793-.086.827-.785.75-.922-.078-.138-.268-.095-.535.155s-.784.301-1.19.301c-.405 0-.413-.198-.353-.336s.491-.103 1.095-.293c.603-.19.948-.672 1.043-.974.095-.302-.138-.535-.233-.535s-.034-.137-.448.457c-.414.595-1.5.828-1.5.828a.454.454 0 0 0-.198-.198c-.733.146-1.617.779-1.617.779s.156.5-.039.89c-.25.5-1.11.187-.876-.604.195-.66.948-1.058 1.584-1.13.636-.071.668-.311.668-.311s-.668.217-.68-.082c.138.028.342.04.687.01.513-.045.798-.409.571-.487-.227-.078-.13.156-.52.338-.277.13-.569.071-.714.027.134-.295.702-.144.702-.144.006-.513-.674-.33-.674-.33-.299-.643-2.046.104-2.046.104l.414.333C16.207 10.262 16 11.331 16 11.331s-.207-1.07-1.218-1.633l.414-.333s-1.748-.747-2.046-.103c0 0-.68-.184-.674.329 0 0 .567-.15.702.144-.146.044-.437.102-.715-.027-.39-.182-.292-.416-.52-.338-.227.078.059.442.572.487.345.03.548.018.686-.01-.012.299-.68.081-.68.081s.033.24.669.312c.636.072 1.389.47 1.584 1.13.233.791-.626 1.104-.877.603-.194-.39-.039-.89-.039-.89s-.883-.632-1.616-.778c0 0-.12.051-.198.198 0 0-1.087-.233-1.5-.828-.414-.595-.354-.457-.449-.457-.095 0-.327.233-.232.535.094.302.44.784 1.043.974.603.19 1.034.155 1.095.293.06.138.051.336-.354.336-.405 0-.922-.051-1.19-.301-.267-.25-.456-.293-.534-.156-.078.138-.043.837.75.923.793.086 1.293-.138 1.362-.009.069.13-.172.474-.69.56-.517.087-.827-.094-1.06-.25-.233-.155-.388-.025-.405.13-.017.155.215.664.767.68.552.018 1.173-.344 1.267-.361.095-.017.302.112.112.31s-.965.62-1.379.535c-.414-.086-.457-.216-.638-.13-.18.086-.103.595.276.612.38.018 1.026-.12 1.388-.353.362-.233.37.009.345.052-.026.043-.526.715-1.242.784-.715.07-.862-.034-.879.216-.017.25.24.522.874.353.69-.184 1.143-.767 1.281-.638.138.13.018.448-.284.681-.302.233-.722.67-1.457.566-.647-.09-.448.296-.397.383.052.086.492.44 1.121.069.63-.371.957-.854 1.043-.889.086-.034.21-.034.06.334-.149.368-.655 1.034-1.149 1.16-.494.127-.92.035-1.011.265-.092.23.47.782 1.172.31.644-.432 1.402-1.563 1.61-1.551.206.011.174.395.047.59-.126.195-.749.479-.714.708.034.23.356.3.712-.068.357-.368.449-1.08.598-1.115.15-.035.471.092.287.436-.184.345-.586.587-.39.748.195.16.494-.092.655-.414.16-.322.287-.713.437-.575.149.138.034.667-.288 1-.322.333-1.372.6-1.345.759.017.094.13.25.273.408l-1.385.41-.63-.482s-.068-.328-.473-.285c0 0-.5-.224-.552.173 0 0 .362-.06.448.069.087.13.13.224.449.198l.44.37-.88-.103s-.181-.301-.483-.112c0 0-.38-.12-.474.242 0 0 .328-.06.414-.018 0 0 .13.294.543.121l.87.043-.49.242s-.622-.199-.596.319c0 0-.18.206-.017.413 0 0 .035-.224.198-.319 0 0 .32.13.526-.25l.63-.379.62.302s-.017.336.44.198c0 0 .155.104.198.242 0 0 .198-.216-.12-.466 0 0-.078-.293-.457-.181l-.354-.181 1.308-.388c.226.215.47.392.556.363.169-.059.299-.234.416-.48.116-.247.642-1.104.902-1.098.26.007.376.215.311.585s-.57 1.078-.898 1.225c-.328.146-.38.215-.681.19-.302-.026-.405.103-.336.275.069.173.408.282.741.155.362-.137.5-.327.638-.215.138.112-.147.517-.535.638-.388.12-.68.043-.62.284.06.242.474.26.741.104.267-.155.57-.586.647-.448.077.138.026.491-.233.68-.259.19-.553.079-.612.25-.086.25.215.415.448.32.233-.095.5-.388.62-.647.121-.259.346-.034.277.207-.07.241-.012.44-.506.819l.92 1.414.919-1.414c-.494-.38-.437-.578-.506-.82-.069-.24.155-.465.276-.206.12.259.388.552.62.647.234.094.535-.07.449-.32-.06-.171-.353-.06-.612-.25-.259-.189-.31-.542-.233-.68.078-.138.38.293.647.448.267.155.68.138.741-.104.06-.241-.233-.163-.62-.284-.388-.12-.673-.526-.535-.638.138-.112.276.078.638.216.333.126.672.017.741-.156.07-.172-.034-.302-.336-.276-.302.026-.353-.043-.681-.19-.328-.146-.834-.855-.899-1.224-.064-.37.052-.578.312-.585.26-.006.785.85.902 1.097.117.247.247.422.416.48.085.03.33-.147.556-.362l1.308.388-.354.18c-.379-.111-.457.182-.457.182-.319.25-.12.466-.12.466.043-.139.198-.242.198-.242.457.138.44-.198.44-.198l.62-.302.63.38c.206.379.526.25.526.25.163.094.198.318.198.318.163-.206-.018-.413-.018-.413.026-.518-.594-.32-.594-.32l-.492-.24.87-.044c.415.173.544-.12.544-.12.086-.043.414.017.414.017-.095-.362-.474-.241-.474-.241Z"/></svg>