<svg xmlns="http://www.w3.org/2000/svg" width="18" height="12" fill="none" viewBox="0 0 36 24"><g fill-rule="evenodd" clip-path="url(#a)" clip-rule="evenodd"><path fill="#F0F0F0" d="M0 0h36v23.992H0V-.001Z"/><path fill="#FF4B55" d="M14.002 0h8.001v23.992h-8.001V-.001Z"/><path fill="#0052B4" d="M0 7.999h36v7.999H0v-8Z"/><path fill="#F0F0F0" d="m20.246 14.4-.24-.74-.259.74h-.749l.624.504-.244.74.614-.48.624.498-.216-.758.6-.504h-.754ZM16.248 14.4l-.24-.74-.26.74H15l.62.504-.246.74.62-.48.624.498-.216-.758.6-.504h-.754ZM24.331 11.737h-.753l-.236-.74-.264.74h-.744l.62.499-.245.74.619-.48.62.498-.212-.758.595-.5ZM12.912 11.737l-.24-.74-.26.74h-.748l.62.499-.246.74.62-.48.624.498-.216-.758.6-.5h-.754ZM19.214 10.312l.62-.48.624.5-.216-.764.6-.5h-.754l-.24-.738-.26.739h-.748l.62.499-.246.744ZM16.008 8.33l-.26.739H15l.62.499-.246.744.62-.48.624.5-.216-.764.6-.5h-.754l-.24-.738Z"/></g><defs><clipPath id="a"><path fill="#fff" d="M0 0h36v23.995H0z"/></clipPath></defs></svg>