<svg xmlns="http://www.w3.org/2000/svg" width="18" height="12" fill="none" viewBox="0 0 36 24"><g clip-path="url(#a)"><path fill="#464655" d="M0 0h36v23.992H0V-.001Z"/><path fill="#FF4B55" d="M0 0h36v11.996H0V-.001Z"/><path fill="#FFE15A" d="m16.894 6.926.377 1.13 1.192.01c.093 0 .131.119.057.173l-.96.709.36 1.136a.096.096 0 0 1-.147.108l-.97-.694-.97.694a.096.096 0 0 1-.148-.108l.36-1.136-.96-.709a.096.096 0 0 1 .057-.173l1.192-.01.378-1.13a.096.096 0 0 1 .182 0ZM21.993 16.529s-6.826-5.15-7.027-5.318c-.311-.262-.552-.725-.563-1.288 0 0-.736.754-.592 1.535.166.902.684 1.224 1.35 1.66.469.307 4.193 2.656 6.368 4.027l.464-.616ZM24.035 18.038c-.089-.063-.804-.592-1.796-1.327l-.36.655 1.213.764s.07.897.794.747c.26-.054.47-.609.149-.839ZM18.141 15.66a4.947 4.947 0 0 1-1.646.286 4.947 4.947 0 0 1-3.687-1.647l-.808.727c.27.3.56.584.886.826l-.16.279 1.194.69.158-.275c.54.235 1.12.393 1.727.462v.317h1.38v-.317a6.024 6.024 0 0 0 1.727-.462l.158.274.475-.274-1.404-.885Z"/><path fill="#FFE15A" d="M22.522 10.29a6.024 6.024 0 0 0-.462-1.726l.274-.159-.69-1.194-.278.16a6.095 6.095 0 0 0-1.263-1.262l.161-.278-1.194-.69-.158.274A6.02 6.02 0 0 0 17.492 5l-.182 1.088a4.963 4.963 0 0 1 4.15 4.893c0 1.326-.523 2.529-1.371 3.42l.872.658c.14-.153.281-.303.405-.47l.279.161.69-1.194-.275-.158c.235-.54.393-1.12.462-1.728h.318v-1.379h-.318Z"/></g><defs><clipPath id="a"><path fill="#fff" d="M0 0h36v23.995H0z"/></clipPath></defs></svg>