<svg xmlns="http://www.w3.org/2000/svg" width="18" height="12" fill="none" viewBox="0 0 36 24"><g clip-path="url(#a)"><path fill="#82AFFF" d="M36 0H0v23.992h36V-.001Z"/><path fill="#F0F0F0" d="m10.056 11.08-.612 1.226.612 1.226-1.223.613 1.834 1.225v1.226l1.833.613 1.222 1.226 2.445-.613h1.222l1.222.613.611-.613.611 1.226-.61.613-.612 1.226 1.222.612h2.445l2.444-.612 1.834-1.226.61-1.226.612-1.226L29 15.37V10.467l-1.833-.613V8.016l.61-2.452-1.833-.613-1.222-.613-1.833-.613h-1.222L19.833 2.5H17.39l-1.222 1.226-.611 1.839-1.223 1.839-1.222.613h-2.444l-.611-.613-1.223-1.84H7.611L7 6.79l1.222 1.226v1.838l1.834 1.226Z"/></g><defs><clipPath id="a"><path fill="#fff" d="M0 0h36v23.995H0z"/></clipPath></defs></svg>