<svg xmlns="http://www.w3.org/2000/svg" width="18" height="12" fill="none" viewBox="0 0 36 24"><g clip-path="url(#a)"><path fill="#5E7C24" d="M36 0H0v23.992h36V-.001Z"/><path fill="#F0F0F0" d="M26.847 9.838c0 2.234-2.495 3.498-7.483 3.792-.18.466-.36 1.019-.541 1.659-.378-.302-.021-1.293.045-1.66h-1.05c.958 7.729-12.868 8.02-7.629-.282l.214.08c-4.304 6.927 10.412 5.579 6.128-.813l.599-1.343c.225.36.395.692.508.993h1.952c1.278-2.347 6.432-6.78 7.257-2.426Zm-.88.7c-1.026-2.052-4.72-.346-5.835 1.726 1.474.094 5.156-.418 5.834-1.727Zm-3.804-5.203-.756 1.309-1.185-.847.767-1.298 1.174.836Z"/></g><defs><clipPath id="a"><path fill="#fff" d="M0 0h36v23.995H0z"/></clipPath></defs></svg>