<svg xmlns="http://www.w3.org/2000/svg" width="18" height="12" fill="none" viewBox="0 0 36 24"><g clip-path="url(#a)"><path fill="#0052B4" d="M0 0h36v23.992H0V-.001Z"/><path fill="#FF4B55" d="M0 11.996 36-.001v23.993L0 11.996Z"/><path fill="#F0F0F0" d="M3.857 11.996 36 1.285v21.421"/><path fill="#FAC586" d="M32.114 9.557s2.125.09 2.323-.072c.198-.162.234-1.243-.468-1.405-.703-.162-2.612.883-2.612.883l.757.594Z"/><path fill="#FD823D" d="M27.953 11.232s-.024.06-.036.325c-.012.264.036.948.864 1.248l-.192.805.877.528s.648-.96.684-1.765c.036-.804-2.197-1.14-2.197-1.14ZM25.323 10.692l.342-.342s-.7.427-.967.042c-.348-.505.12-1.033.607-1.267.486-.234 1.459-.054 1.459-.054l.612 1.567-1.855 1.17-.198-1.116ZM31.069 7.702l1.657-.198s-.486.702-1.441 1.225c0 0 .99 0 1.279.342.288.342-.288.666-.504.774-.217.108-2.09 1.261-2.09 1.261l-1.675-.198 2.774-3.206Z"/><path fill="#FD823D" d="M32.3 6.429s.36-.84.348-1.429l-1.213.84s.276-.131.18-.612l-3.963 2.15-.804 1.429 2.45.756L32.3 6.43Z"/><path fill="#FFE15A" d="m29.313 12.98-.415.657s-.738-.162-.99.018c-.253.18-.28.856.162.91 0 0 .306.189.486.036 0 0 .37.144.432-.09.063-.235-.018-.433-.018-.433h.261l.46-.82-.378-.279Z"/><path fill="#A36D56" d="M25.611 11.556s1.153-.576 1.153-1.44c0-.865-1.069-.913-1.933-.625 0 0-.517-.408-.084-.817.592-.56 3.17-1.729 3.17-1.729l-.289 1.441s1.027.54 1.442.288c.348-.211 3.746-2.882 3.746-2.882s-.288 1.441-2.306 2.882l-.213 1.07a.775.775 0 0 1-.414.541l-.813.407s2.305.288 2.305.576-.576 1.73-1.73 2.306l-.575-.577.288-.864s-.865-.289-1.441-.577c0 0-.865.288-1.441.288-.577 0-.865-.287-.865-.287Z"/><path fill="#FAC586" d="M23.882 12.998v-.6c0-.17.067-.333.188-.453l1.253-1.253.288.576h1.153l-.288.288v.289l-1.441.864-1.153.289Z"/><path fill="#FFE15A" d="M24.458 12.71h-.576s-.577.864 0 .864c0 0 .865-.576 1.153-.865 0 0 0-.288-.577 0ZM31.488 13.988h-3.984a.178.178 0 0 0-.13-.059s-.699-.289-.798-.289h-.082c-.099 0-.18.08-.18.18v.168h-.91v-.168c0-.1-.08-.18-.18-.18h-.082c-.099 0-.18.08-.18.18v.003c-.39-.016-1.224-.066-1.657-.21L21 14.19l2.305.576c.433-.144 1.267-.194 1.658-.21v.003c0 .1.08.18.18.18h.081c.1 0 .18-.08.18-.18v-.168h.91v.168c0 .1.081.18.18.18h.082c.1 0 .797-.29.797-.29a.177.177 0 0 0 .131-.058h3.984a.202.202 0 1 0 0-.403Z"/><path fill="#FFE15A" d="M31.315 14.763c-.24-.048-2.99.432-2.99.432s-.168-.168.336-.636l-.24-.06s-.528.372-.744.42c-.187.041-.603.243-.692.513l-1.674.28.036.143 1.642-.192c.078.252.337.303.52.228 0 0 .24.096.456-.072 0 0 .432.072.456-.324l3.014-.456s.12-.228-.12-.276Z"/><path fill="#FFE15A" d="M29.61 16.792s-.228.3-.793.036c-.564-.264-1.225.024-1.585-.06-.36-.084-.9-.3-1.405-.108-.504.192-.78.18-.672-.06.108-.24.168-.42 0-.504l.192-.24-.036-.145s-.96-.372-1.61.144c-.648.517-.455 1.694.625 1.778 0 0 .337.42 1.165.3 0 0 .54.372 1.465.204 0 0 .036.108.637.06.6-.048 1.272.024 1.152.432 0 0 .445-.084.18-.492 0 0 .529-.024.89.288 0 0 .023-.36-.325-.552 0 0 .588-.204.913 0 0 0-.217-.457-.793-.396 0 0 .42-.337.612-.253 0 0-.18-.216-.708 0 0 0 .336-.204.096-.432Z"/></g><defs><clipPath id="a"><path fill="#fff" d="M0 0h36v23.995H0z"/></clipPath></defs></svg>