<svg xmlns="http://www.w3.org/2000/svg" width="18" height="12" fill="none" viewBox="0 0 36 24"><g clip-path="url(#a)"><path fill="#FF4B55" d="M36 23.992H0V-.001h36v23.993Z"/><path fill="#F0F0F0" d="M36 7.997H0v7.997h36V7.997Z"/><path fill="#464655" d="M23.968 13.892c-.835-.667-1.464-1.709-1.69-2.29 0 0 .836.656 1.55.713-.337-.229-1.804-1.672-1.812-2.272 0 0 .895.807 1.558.78-5.71-7.293-1.555 2.125-4.76-1.208 0 0 .163 0 .226.075-.088-.263-.55-1.09-.65-1.208l.2.034c-.77-1.085-3.287-.633-2.247.166-.126-.726 1.627.31.144.117.734.13.902.6-.013 1.354.432-.113.482.081.482.081-3.293.282 1.186-6.002-4.562.479.664.028 1.558-.78 1.558-.78.013.562-1.458 2.037-1.811 2.272.713-.056 1.549-.713 1.549-.713-.226.582-.855 1.624-1.69 2.29.901-.206 2.075-1.445 2.075-1.445-.254.807-.817 1.445-.817 1.445.432.132 1.69-1.596 1.69-1.596.037.395-.364 1.202-.614 1.521.901-.42 1.59-1.802 1.59-1.802s.068.526-.388 1.164c.375.037.941-.704 1.054-1.39.483.918-.614 1.798-.868 2.51-.077-.363-.146-1.313-.592-.655.154-.065.552.355.324.636-.362-.5-.763-.706-.757.036.08-.192.619-.137.6.114-.526-.113-.919.351-.523.734.115-.934 1.204-.286.299.368.854-.18.867-1.53 1.933-1.978-.035.683-1.28 2.171-1.42 2.804.313-.225 1.283-1.127 1.283-1.127.079.433-.364 1.239-.407 1.69 1.498-1.81 1.093-.84 1.522.858.275-.526.43-2.022.43-2.022s.764.814 1.142 1.06c-.04-.433-.536-1.037-.456-1.476 0 0 .97.9 1.282 1.126-.148-.651-1.366-2.08-1.42-2.803 1.064.446 1.077 1.791 1.933 1.977-.906-.657.186-1.299.3-.368.407-.377-.024-.852-.525-.733-.018-.243.482-.3.588-.131.003-.024.006-.048.012-.072-.026-.639-.41-.425-.756.053-.227-.282.17-.702.324-.637-.449-.659-.514.295-.591.655-.256-.714-1.351-1.589-.869-2.51.113.686.679 1.428 1.055 1.39-.457-.638-.389-1.164-.389-1.164s.689 1.382 1.59 1.802c-.25-.319-.65-1.126-.613-1.52 0 0 1.258 1.727 1.69 1.596 0 0-.564-.639-.817-1.446 0 0 1.173 1.239 2.074 1.446Z"/><path fill="#FFE15A" d="M16.723 7.875c.03-.22-.092-.712.082-.655.12.075.212.325.36.257.063-.039.334-.472.4-.312.045.046.179.513.287.428.137-.048.37-.283.394-.116l-.18.591-1.343-.193Z"/><path fill="#FF4B55" d="M19.192 10.741h-2.255v2.377c.004.018.01.037.017.057a.957.957 0 0 0 .694.568c.133.034.27.05.407.05.15.001.301-.02.446-.062l.035-.012a1.015 1.015 0 0 0 .651-.586l.005-.015v-2.377Z"/><path fill="#F0F0F0" d="M19.192 11.728h-2.255v1.007h2.255v-1.007Z"/></g><defs><clipPath id="a"><path fill="#fff" d="M0 0h36v23.995H0z"/></clipPath></defs></svg>