<svg xmlns="http://www.w3.org/2000/svg" width="18" height="12" fill="none" viewBox="0 0 36 24"><g clip-path="url(#a)"><path fill="#82AFFF" d="M36 0H0v24h36V0Z"/><path fill="#FFE15A" d="M36 18.261H0v1.566h36V18.26ZM36 15.13H0v1.566h36v-1.565Z"/><path fill="#F0F0F0" d="M3.412 5.743 1.068 4.708l2.344-1.035L4.447 1.33 5.48 3.673l2.345 1.035-2.345 1.035-1.034 2.344-1.035-2.344Z"/><path fill="#FF4B55" d="m4.447 2.621.639 1.448 1.448.64-1.448.638-.64 1.448-.638-1.448-1.448-.639 1.448-.639.639-1.448Z"/></g><defs><clipPath id="a"><path fill="#fff" d="M0 0h36v24H0z"/></clipPath></defs></svg>