<svg xmlns="http://www.w3.org/2000/svg" width="18" height="12" fill="none" viewBox="0 0 36 24"><g clip-path="url(#a)"><path fill="#FF4B55" d="M36 0H0v24h36V0Z"/><path fill="#73AF00" d="M36 16H0v8h36v-8Z"/><path fill="#F0F0F0" d="M18.225 14.925a2.925 2.925 0 1 1 1.391-5.498 3.6 3.6 0 1 0 0 5.147 2.91 2.91 0 0 1-1.391.351Z"/><path fill="#F0F0F0" d="m20.475 9.975.387 1.09 1.045-.497-.497 1.045L22.5 12l-1.09.387.497 1.045-1.045-.497-.387 1.09-.387-1.09-1.045.497.497-1.045L18.45 12l1.09-.387-.497-1.045 1.045.497.387-1.09Z"/><path fill="#82AFFF" d="M36 0H0v8h36V0Z"/></g><defs><clipPath id="a"><path fill="#fff" d="M0 0h36v24H0z"/></clipPath></defs></svg>