<svg xmlns="http://www.w3.org/2000/svg" width="18" height="12" fill="none" viewBox="0 0 36 24"><g clip-path="url(#a)"><path fill="#FFE15A" d="M36 0H0v24h36V0Z"/><path fill="#0052B4" d="M36 0H24v24h12V0ZM12 0H0v24h12V0Z"/><path fill="#464655" d="M23.52 7.485c-1.042.162-2.116.707-2.85 1.465-.086.104.454-.114.503-.12.403-.122-.12.564-.15.744-.413 1.314-.772 2.584-.905 4.096 0 .104-.016.181-.065.186l-1.38-.204V8.783c.324-.008.829.077 1.118.172-.93-.923-1.365-2.127-1.791-3.285-.426 1.158-.86 2.362-1.79 3.285.288-.095.793-.18 1.118-.172v4.869l-1.38.204c-.05-.005-.066-.082-.066-.186-.133-1.512-.492-2.782-.905-4.096-.03-.18-.553-.866-.15-.745.05.007.589.225.504.12-.735-.757-1.809-1.302-2.852-1.464-.092-.022-.146.023-.064.13 1.384 2.12 2.542 4.623 2.532 7.593.538 0 1.841-.317 2.38-.317v3.435h1.345v-3.435c.54 0 1.843.317 2.381.317-.01-2.97 1.148-5.473 2.532-7.594.082-.106.028-.151-.064-.129Z"/></g><defs><clipPath id="a"><path fill="#fff" d="M0 0h36v24H0z"/></clipPath></defs></svg>