<svg xmlns="http://www.w3.org/2000/svg" width="18" height="12" fill="none" viewBox="0 0 36 24"><path fill="#FF4B55" d="M36 0H0v24h36V0Z"/><path fill="#F0F0F0" d="M18 0H0v12h18V0Z"/><path fill="#FF4B55" d="M10.125 0h-2.25v4.876H0v2.25h7.875V12h2.25V7.126H18v-2.25h-7.875V0Z"/><path fill="#FF4B55" d="M0 0v1.06l4.034 2.69h1.591L0 0ZM18 12v-1.06l-4.034-2.69h-1.591L18 12Z"/><path fill="#0052B4" d="M18 10.41V8.25h-3.24L18 10.41ZM11.25 12V8.56L16.409 12H11.25Z"/><path fill="#FF4B55" d="M0 12v-1.06l4.034-2.69h1.591L0 12Z"/><path fill="#0052B4" d="M0 10.41V8.25h3.24L0 10.41ZM6.75 12V8.56L1.591 12H6.75ZM0 1.59v2.16h3.24L0 1.59ZM6.75 0v3.44L1.591 0H6.75Z"/><path fill="#FF4B55" d="M18 0v1.06l-4.034 2.69h-1.591L18 0Z"/><path fill="#0052B4" d="M18 1.59v2.16h-3.24L18 1.59ZM11.25 0v3.44L16.409 0H11.25Z"/><path fill="#FF4B55" d="M0 0v1.06l4.034 2.69h1.591L0 0Z"/><path fill="#0052B4" d="M0 1.59v2.16h3.24L0 1.59ZM6.75 0v3.44L1.591 0H6.75Z"/><path fill="#FF4B55" d="M18 0v1.06l-4.034 2.69h-1.591L18 0Z"/><path fill="#0052B4" d="M18 1.59v2.16h-3.24L18 1.59ZM11.25 0v3.44L16.409 0H11.25Z"/><path fill="#F0F0F0" d="M31.677 7.01v8.78c0 2.345-4.643 3.107-4.643 3.107s-4.643-.762-4.643-3.107V7.01h9.286Z"/><path fill="#73AF00" d="M31.677 15.01v.78c0 2.345-4.643 3.107-4.643 3.107s-4.643-.762-4.643-3.107v-.78h9.286Z"/><path fill="#FF4B55" d="M28.31 10.28c-.02.03-.04.22 0 .39h-2.65c.09-.12.12-.24.03-.39-.68-.8.36-.11.28-.77-.49.36-.63-.32-.44-.39.49.53.09-.4.14-.4.8.36-.2-.86.61-.59-.23-.48.09-.32.31-.26-.27-.45 1.1-.45.83 0 .21-.06.54-.22.31.26.81-.27-.19.95.61.59.03.02-.35.91.13.4.19.07.05.75-.43.39-.08.66.95-.03.27.77Z"/><path fill="#82AFFF" d="M29.56 10.67v4.84c0 1.29-2.56 1.71-2.56 1.71s-2.56-.42-2.56-1.71v-4.84h4.12v.01s.01-.01.02-.01h.98Z"/><path fill="#A36D56" d="m27.657 12.983-.699-1.281.034-.013-.013-.037-.246.094-.114-.397-.027.007.101.406-.263.1.013.037.034-.013.282 1.395c-.041.026-.08.041-.122.07a.638.638 0 0 1-.042.442l-.738-1.666-.024.01.75 1.693a1.115 1.115 0 0 1-.138.213l-.673-1.858-.017.007a.48.48 0 0 0 .156-.128l-.018-.042s-.098 0-.219.04l-.073-.256-.028.008.066.262a.609.609 0 0 0-.233.152l.01.043h.03l-.018.002.281 2.29c-.078.025-.147.037-.182.02.066.102.141.183.217.263l.004.03.019-.003c.701.705 1.765.471 2.365-.374.99.633.794-1.502-.475-1.516Zm-1.686 1.462-.377-2.193-.025.004.378 2.202a1.283 1.283 0 0 1-.213.098l-.28-2.286a.787.787 0 0 0 .221-.048l.519 2.069c-.075.06-.15.11-.223.154Zm.318-.238-.573-2c.01-.005.021-.007.032-.013l.68 1.875c-.043.05-.091.093-.139.138Zm.494-.94-.28-1.388-.013.003.122-.047.342 1.335c-.056.027-.114.063-.171.098Zm.194-.11-.34-1.33-.013.003.079-.03.332 1.327c-.019.008-.04.02-.058.03Zm.143-.06-.376-1.313.059-.023-.012.006.58 1.245c-.08.018-.165.052-.25.085Zm.278-.087-.583-1.253.131-.05-.01.006.693 1.273c-.074 0-.15.008-.231.024Z"/><path fill="#F0F0F0" d="M29.56 14.04v1.47c0 1.29-2.56 1.71-2.56 1.71s-2.56-.42-2.56-1.71v-1.25c.44-.29 1.2-.17 1.28.5 0-.28.87-.17.83.4.98.45 1.69-1.45 3.01-1.12Z"/></svg>