<svg xmlns="http://www.w3.org/2000/svg" width="18" height="12" fill="none" viewBox="0 0 36 24"><g clip-path="url(#a)"><path fill="#73AF00" d="M36 0H0v23.988h36V0Z"/><path fill="#FFE15A" fill-rule="evenodd" d="M18 2.476 3.06 12.013 18 21.55l14.94-9.537L18 2.476Z" clip-rule="evenodd"/><path fill="#0052B4" d="M18 18a6 6 0 1 0 0-12 6 6 0 0 0 0 12Z"/><path fill="#F0F0F0" d="M12.851 8.93a5.956 5.956 0 0 0-.646 1.536c3.326-.25 8.247.68 11.378 3.72a5.95 5.95 0 0 0 .39-1.66c-3.233-2.72-7.704-3.689-11.122-3.595ZM18.248 14.048l.16.479.505.004c.066 0 .093.083.04.122l-.406.3.152.482a.068.068 0 0 1-.104.075l-.411-.293-.41.293a.068.068 0 0 1-.105-.075l.152-.482-.406-.3a.068.068 0 0 1 .04-.123l.505-.003.16-.48a.068.068 0 0 1 .128 0ZM20.211 15.287l.069.206.217.002a.03.03 0 0 1 .017.052l-.175.13.066.207a.03.03 0 0 1-.045.032l-.177-.126-.177.126a.03.03 0 0 1-.045-.032l.066-.208-.175-.129c-.023-.016-.011-.052.017-.053l.218-.001.068-.206a.03.03 0 0 1 .056 0ZM17.4 13.137l.069.207.217.001c.028 0 .04.037.017.053l-.175.13.066.207a.03.03 0 0 1-.045.032l-.177-.126-.177.126c-.023.017-.053-.006-.045-.032l.066-.208-.175-.129c-.023-.016-.011-.052.017-.053l.217-.001.07-.207c.008-.026.046-.026.055 0ZM13.593 12.888l.069.206.217.001a.03.03 0 0 1 .017.053l-.175.13.066.207a.03.03 0 0 1-.045.032l-.177-.126-.177.126a.03.03 0 0 1-.045-.032l.066-.208-.175-.129a.03.03 0 0 1 .017-.053l.218-.001.068-.206c.01-.027.047-.027.056 0ZM16.778 15.216l.069.206.217.001a.03.03 0 0 1 .017.053l-.175.13.066.207a.03.03 0 0 1-.045.032l-.177-.126-.177.126a.03.03 0 0 1-.045-.033l.066-.207-.175-.129a.03.03 0 0 1 .017-.053l.217-.001.069-.207c.01-.026.047-.026.056 0ZM15.025 12.744l.057.168.177.002c.023 0 .033.03.015.043l-.143.105.053.17a.024.024 0 0 1-.037.027l-.144-.104-.145.104a.024.024 0 0 1-.037-.027l.054-.17-.143-.105c-.018-.014-.009-.043.014-.043l.178-.002.056-.168c.007-.022.038-.022.045 0ZM20.364 9.264l.07.21.222.002c.029 0 .04.037.018.054l-.18.133.068.212a.03.03 0 0 1-.046.033l-.18-.13-.182.13c-.023.017-.054-.006-.046-.033l.067-.212-.178-.133c-.024-.017-.012-.053.017-.054l.222-.001.07-.211a.03.03 0 0 1 .058 0ZM13.838 11.713l.056.168.178.002c.023 0 .032.03.014.043l-.143.105.054.17c.007.022-.018.04-.037.026l-.145-.103-.144.103a.024.024 0 0 1-.037-.026l.053-.17-.143-.105c-.018-.014-.009-.043.014-.043l.178-.002.056-.168c.008-.022.039-.022.046 0ZM14.696 14.088l.085.256.27.002c.034 0 .049.045.02.065l-.216.16.081.257a.036.036 0 0 1-.056.04l-.219-.156-.218.156a.036.036 0 0 1-.056-.04l.081-.257-.216-.16c-.029-.02-.014-.065.02-.065l.27-.002.085-.255c.011-.034.058-.034.069 0ZM21.305 15.34l.054.16.17.002c.021 0 .03.028.013.041l-.137.1.051.162a.023.023 0 0 1-.035.026l-.137-.099-.138.099c-.018.012-.042-.005-.035-.026l.05-.161-.135-.1a.023.023 0 0 1 .013-.042l.17-.001.053-.16c.007-.022.036-.022.043 0ZM21.898 14.114l.069.206.217.002a.03.03 0 0 1 .017.053l-.175.129.066.207a.03.03 0 0 1-.045.033l-.177-.127-.177.127c-.023.016-.053-.006-.045-.033l.066-.207-.175-.13a.03.03 0 0 1 .017-.052l.217-.002.07-.206a.03.03 0 0 1 .055 0Z"/></g><defs><clipPath id="a"><path fill="#fff" d="M0 0h36v23.995H0z"/></clipPath></defs></svg>