<svg xmlns="http://www.w3.org/2000/svg" width="18" height="12" fill="none" viewBox="0 0 36 24"><path fill="#0052B4" d="M36 0H0v24h36V0Z"/><path fill="#FFE15A" d="M7.025 0h24v24"/><path fill="#F0F0F0" d="m2.57 1.077 1.044-.76 1.046.759L4.31 0H2.92l-.35 1.077Z"/><path fill="#F0F0F0" d="M6.21 1.287 5.812.058l-.399 1.229h-1.29l1.045.76-.399 1.228 1.044-.76 1.045.759-.4-1.229 1.045-.759H6.211Z"/><path fill="#F0F0F0" d="m8.409 3.485-.4-1.229-.399 1.229H6.32l1.045.76-.398 1.227 1.044-.76 1.045.76-.4-1.23L9.7 3.485H8.409Z"/><path fill="#F0F0F0" d="m10.606 5.682-.4-1.228-.398 1.228-1.291.001 1.045.76-.398 1.227 1.044-.76 1.045.76-.4-1.23 1.045-.758h-1.292Z"/><path fill="#F0F0F0" d="m12.804 7.88-.4-1.228-.398 1.228h-1.292l1.046.76-.398 1.228 1.043-.76 1.046.759-.4-1.229 1.044-.759-1.29.001Z"/><path fill="#F0F0F0" d="m15.002 10.078-.4-1.229-.399 1.229h-1.29l1.044.76-.398 1.228 1.044-.76 1.045.759-.4-1.229 1.045-.759h-1.291Z"/><path fill="#F0F0F0" d="m17.2 12.276-.4-1.229-.399 1.229H15.11l1.045.76-.398 1.227 1.044-.76 1.045.76-.4-1.23 1.045-.758H17.2Z"/><path fill="#F0F0F0" d="m19.397 14.473-.4-1.228-.398 1.228-1.291.001 1.045.76-.398 1.227 1.044-.76 1.045.76-.4-1.23 1.045-.758h-1.292Z"/><path fill="#F0F0F0" d="m21.595 16.671-.4-1.228-.398 1.228h-1.292l1.046.76-.398 1.228 1.043-.76 1.046.759-.4-1.229 1.044-.759-1.29.001Z"/><path fill="#F0F0F0" d="m23.793 18.869-.4-1.229-.399 1.229h-1.29l1.044.76-.398 1.227 1.044-.76 1.045.76-.4-1.229 1.045-.759h-1.291Z"/><path fill="#F0F0F0" d="m25.99 21.067-.399-1.229-.399 1.229h-1.291l1.045.76-.398 1.227 1.044-.76 1.045.76-.4-1.23 1.045-.758H25.99Z"/><path fill="#F0F0F0" d="m27.789 22.036-.4 1.228-1.29.001L27.11 24h1.355l1.014-.736h-1.292l-.4-1.228Z"/></svg>