<svg xmlns="http://www.w3.org/2000/svg" width="18" height="12" fill="none" viewBox="0 0 36 24"><g clip-path="url(#a)"><path fill="#FD823D" d="M36 .001H0v24h36v-24Z"/><path fill="#FFE15A" d="M36 0H0v24"/><path fill="#F0F0F0" d="M28.323 10.196a.279.279 0 0 0-.304.101.908.908 0 0 1-1.432-1.12.272.272 0 0 0 .022-.32.285.285 0 0 0-.463-.028c-.246.311-.34.702-.304 1.07l-.723-.028a2.024 2.024 0 0 1-.586-.13l-.535-.21a4.824 4.824 0 0 0-1.02-.275l-.807-.127c-.016-.02-.03-.042-.046-.063-.145-.072-.449-.332-.449-.947-.027-.31.196-.821.666-.782.423.036 2.02 1.365 3.016 1.317.782-.037.78-1.087-.463-1.338-1.24-2.284 2.631.348 2.538-1.504.409-1.49.012-.759-1.272-.955-1.606-.506-.248-.892-2.778-.832-.534-.274-2.61-1.432-2.112.123-.608-.273-1.704.02-1.1.817-.576.032-1.414.538-.773 1.121-.506.177-1.11.79-.47 1.215-.75.177-.771 1.316.094 1.18l-.239.303a.552.552 0 0 0 .043.73.557.557 0 0 0-.426.29l-.044.108-.774-.397c-.318-.17-.74.04-.78.397-.43-.166-1.327-.383-1.238.377-.466-.047-1.394-.02-1.099.701l-.586.152a.486.486 0 0 0-.022.933l-.643.145c-.442.082-.51.73-.109.911-.493.16-1.268.865-.427 1.157-.653.027-1.502.931-.506 1.1-.496.217-2.013.384-1.338 1.164-.35.163-1.332.296-1.07.89-.354.172-1.483.324-1.136.955-2.272.324-1.321 1.535.405.723.118.842.951.09 1.251-.195.32.893 1.002-.197 1.23-.557.429.84.95-.255 1.078-.687.534.32.688-.501.803-.84a.41.41 0 0 0 .368-.274l.492-1.483a.409.409 0 0 0 .022-.13c.217.195.376.398.369.492-.044.643-.109 1.215-.109 1.222a.55.55 0 0 0 .109.39c.18.254.463.688.571.955a1.459 1.459 0 0 0-.673 1.208c0 .152.109.304.268.311.16.008.29-.123.29-.274 0-.5.405-.912.91-.912.5 0 .905.405.912.904 0 .138.109.268.246.282a.276.276 0 0 0 .311-.274c0-.702-.492-1.288-1.15-1.433-.116-.42-.456-.954-.658-1.236.022-.232.058-.622.087-1.05a1.305 1.305 0 0 0-.102-.578c-.012-.023-.03-.047-.045-.07l.195.023c.203.572.738.977 1.374.984a.287.287 0 0 0 .283-.224.278.278 0 0 0-.268-.34.912.912 0 0 1-.007-1.823.288.288 0 0 0 .282-.246.276.276 0 0 0-.275-.311c-.557 0-1.042.311-1.295.774l-.996-.11c.07-.15.144-.307.181-.371.13-.232.268-.448.427-.622.159-.174.325-.297.506-.376a1.29 1.29 0 0 1 .571-.123c.405 0 .883.173 1.382.405.253.115.514.246.788.383.275.13.565.268.897.39.167.059.34.117.535.153.188.043.398.072.63.072.067 0 .127-.015.192-.022l.085.702c.029.217.18.398.383.463l2.112.694c.015.008.03.008.044.008a1.47 1.47 0 0 0 .824 1.396.282.282 0 0 0 .246-.506c-.615-.297-.752-1.194-.029-1.65.246-.152.55-.137.81 0 .145.08.326.007.39-.145.051-.115-.014-.274-.151-.34a1.474 1.474 0 0 0-1.635.268.6.6 0 0 0-.166-.087l-1.765-.586-.073-.623c.018-.015.037-.029.056-.042.188-.13.39-.311.55-.55.166-.239.282-.542.318-.832a2.28 2.28 0 0 0-.036-.78c-.04-.205-.105-.38-.165-.541.303.05.6.137.881.245l.803.311c.05.022.108.029.16.036l2.053.13c.6.268 1.324.102 1.75-.433.116-.16.058-.384-.137-.449Z"/></g><defs><clipPath id="a"><path fill="#fff" d="M0 0h36v24H0z"/></clipPath></defs></svg>