<svg xmlns="http://www.w3.org/2000/svg" width="18" height="12" fill="none" viewBox="0 0 36 24"><g clip-path="url(#a)"><path fill="#FF4B55" d="M36 .003H0v23.992h36V.003Z"/><path fill="#73AF00" d="M36 16.694H0v7.301h36v-7.301Z"/><path fill="#F0F0F0" d="M6.3.003H0v23.992h6.3V.003Z"/><path fill="#FF4B55" d="M4.686 19.576a.412.412 0 0 0-.144-.117.426.426 0 0 0-.53.126l-.86 1.294-.868-1.305a.435.435 0 0 0-.333-.16.423.423 0 0 0-.34.17L.418 21.377a.403.403 0 0 0 0 .444l1.201 1.8c.036.055.086.1.144.132.114.06.261.06.378 0a.412.412 0 0 0 .145-.132l.867-1.302.867 1.301a.404.404 0 0 0 .522.132.416.416 0 0 0 .145-.132l1.201-1.8a.403.403 0 0 0 0-.444l-1.201-1.8ZM1.95 22.68l-.72-1.081.72-1.081.72 1.08-.72 1.082Zm2.402 0-.72-1.081.72-1.081.72 1.08-.72 1.082ZM1.788 18.962c.067.03.143.04.218.031a.404.404 0 0 0 .326-.27l.82-2.462.82 2.462a.407.407 0 0 0 .328.271.401.401 0 0 0 .386-.176l1.09-1.633-.666-.446-.637.954-.889-2.669.819-1.635.707 1.06.666-.444-.961-1.442.497-.993a.406.406 0 0 0-.001-.359L3.599 7.79l.804-1.606.688 1.034-.407.814.717.359.511-1.023a.406.406 0 0 0-.026-.4l-1.2-1.801a.399.399 0 0 0-.555-.112.409.409 0 0 0-.137.156L3.15 6.895l-.84-1.687a.397.397 0 0 0-.333-.221h-.034a.402.402 0 0 0-.323.178L.42 6.965a.4.4 0 0 0-.026.401l.512 1.022.716-.357-.407-.814.69-1.035.799 1.607-1.712 3.423a.402.402 0 0 0 0 .359l.497.992-.961 1.442.666.444.707-1.06.818 1.635-.888 2.67-.636-.956-.666.446 1.09 1.634c.042.063.1.113.169.144Zm.01-7.57 1.354-2.708 1.353 2.707L3.152 14.1 1.798 11.39ZM1.762 4.539a.49.49 0 0 0 .193.047h.005a.397.397 0 0 0 .325-.179l.867-1.303.867 1.303c.037.054.087.1.144.13a.41.41 0 0 0 .38 0 .423.423 0 0 0 .143-.13l1.201-1.802a.404.404 0 0 0 0-.442L4.686.362a.416.416 0 0 0-.144-.117.439.439 0 0 0-.379 0 .438.438 0 0 0-.15.127l-.861 1.293L2.284.36A.422.422 0 0 0 1.951.2a.428.428 0 0 0-.339.168L.417 2.162a.399.399 0 0 0 0 .445l1.201 1.8c.036.055.086.1.144.132Zm2.59-3.235.722 1.08-.721 1.082-.72-1.081.72-1.081Zm-2.4 0 .72 1.08-.72 1.082-.722-1.081.721-1.082Z"/></g><defs><clipPath id="a"><path fill="#fff" d="M0 0h36v23.995H0z"/></clipPath></defs></svg>