<svg xmlns="http://www.w3.org/2000/svg" width="18" height="12" fill="none" viewBox="0 0 36 24"><g clip-path="url(#a)"><path fill="#FF4B55" d="M36 0H.005v2.526H0v18.94h.009v2.522h35.977v-2.526H36V-.002Z"/><path fill="#0052B4" d="M36 2.526H0v18.94h36V2.526Z"/><path fill="#F0F0F0" d="M18 20.208c4.459 0 8.073-3.677 8.073-8.212S22.46 3.784 18 3.784c-4.459 0-8.073 3.677-8.073 8.212S13.54 20.208 18 20.208Z"/><path fill="#73AF00" d="M18.916 8.422c-.653-2.825-4.725 1.964-1.832 2.155.653 2.825 4.725-1.964 1.832-2.155Z"/><path fill="#DDD" d="M17.984 11.164v1.68l-1.66 1.47a3.305 3.305 0 0 1-.173-1.067v-2.083h1.833Z"/><path fill="#FFE15A" d="M17.984 11.164v1.68l1.657 1.47c.16-.469.172-.887.172-1.067v-2.083h-1.829"/><path fill="#82AFFF" d="M16.323 14.305c.06.178.14.349.234.51h.004l-.003.003c.26.438.701.871 1.426 1.132.713-.257 1.147-.671 1.411-1.112h-.001l.009-.015c.107-.173.184-.353.242-.522l-1.661-1.457-1.66 1.461Z"/><path fill="#FD823D" d="M13.643 10.524c.182-.117 3.213-1.388 2.719-1.637-.71.21-4.38 2.358-2.72 1.637Z"/><path fill="#DDD" d="M15.89 9.094ZM15.89 9.094c.02.039.005-.02 0 0 .19.405.108.763.108.763.437-.027.686-.337.686-.337-.548-.392-.191-.8-.794-.426Z"/><path fill="#FD823D" d="M18.824 8.418c-.505.837 1.183 1.059 1.477 1.076.34-.01 2.732 1.728 2.396 1.151.004-.213-2.662-1.589-3.873-2.227Z"/><path fill="#A36D56" d="M21.972 10.344c.008-.054-.03-.127-.03-.127.171-.051-.044-.145-.096-.015-.044.152.195.439-.031.502-.14-.19-.143-.41-.173-.529-.079-.068-.836-.335-.701-.545-.007.007.023-.017 0 0 .187-.199.214-.41.147-.664.035-.588-1.028-.353-.722.222.334.72-.534.506-.522 1.037.012.576.004.707-.03.94-.063.576.344.355.4-.048-.012.052.025.285.025.285.005.094 1.084.021 1.043-.015-.012-.21.076-.464.076-.464.584.95.76.195.967-.4l-.353-.18Zm-1.526-.974v-.004.004Z"/><path fill="#DDD" d="M20.01 12.118c-.007-.303.188-.549.192-.572.14.06.939.086 1.09.03.174 1.019.174 2.293.271 3.402-1.276.44-.24-1.445-.809-2.247-.272.435-.26 1.732-.287 2.266-1.32 1.007-.435-1.96-.457-2.88Z"/><path fill="#A36D56" d="M22.421 10.29c-.095-.276-.681-.146-.35.085.051.03.405.186.35-.085Z"/><path fill="#FAC586" d="M13.654 10.524c.206.594.382 1.35.966.399 0 0 .088.253.077.464-.04.036 1.038.109 1.043.015 0 0 .037-.233.024-.285.057.402.463.624.402.047-.035-.232-.044-.363-.031-.94.011-.53-.857-.316-.522-1.036.305-.575-.757-.81-.723-.222-.066.254-.04.465.148.664-.024-.017.007.007 0 0 .134.21-.623.477-.702.545-.03.12-.032.34-.172.53-.227-.064.013-.35-.031-.503-.052-.13-.268-.036-.096.015 0 0-.038.073-.03.127l-.353.18Z"/><path fill="#FAC586" d="M13.51 10.183c.094-.276.68-.146.35.085-.052.03-.406.186-.35-.085Z"/><path fill="#DDD" d="M14.456 12.118c-.007-.303.188-.549.192-.572.14.06.939.086 1.089.03.174 1.019.175 2.293.272 3.402-1.276.44-.24-1.445-.81-2.247-.27.435-.259 1.732-.287 2.266-1.32 1.007-.435-1.96-.456-2.88Z"/><path stroke="#73AF00" stroke-width=".8" d="M18 18.6a6.6 6.6 0 1 0 0-13.2 6.6 6.6 0 0 0 0 13.2Z"/></g><defs><clipPath id="a"><path fill="#fff" d="M0 0h36v23.995H0z"/></clipPath></defs></svg>