<svg xmlns="http://www.w3.org/2000/svg" width="18" height="12" fill="none" viewBox="0 0 36 24"><path fill="#F0F0F0" d="M36 0H0v24h36V0Z"/><path fill="#FF4B55" d="m21.335 15.51 3.415-2.766-.77-.36a.236.236 0 0 1-.123-.286l.675-2.076-1.967.418a.236.236 0 0 1-.265-.138l-.38-.897-1.536 1.648a.236.236 0 0 1-.402-.207l.74-3.818-1.187.686a.236.236 0 0 1-.33-.098L18 5.25l-1.205 2.366a.236.236 0 0 1-.33.098l-1.187-.686.74 3.818a.236.236 0 0 1-.402.207L14.08 9.405l-.381.897a.236.236 0 0 1-.265.138l-1.967-.418.675 2.076a.236.236 0 0 1-.124.287l-.769.36 3.415 2.764c.078.064.108.17.073.265l-.421 1.162 3.117-.548a.345.345 0 0 1 .403.355l-.164 3.132h.654l-.164-3.132a.345.345 0 0 1 .403-.355l3.117.548-.42-1.162a.236.236 0 0 1 .072-.265ZM36 0h-9v24h9V0ZM9 0H0v24h9V0Z"/></svg>