<svg xmlns="http://www.w3.org/2000/svg" width="18" height="12" fill="none" viewBox="0 0 36 24"><path fill="#73AF00" d="M36 0H0v24h36V0Z"/><path fill="#FFE15A" d="M18.786 16.124a3.937 3.937 0 1 0 0-7.874 3.937 3.937 0 0 0 0 7.874Z"/><path fill="#73AF00" d="M20.013 15.426a3.24 3.24 0 1 0 0-6.479 3.24 3.24 0 0 0 0 6.48Z"/><path fill="#FFE15A" d="M6.375 12.374a4.124 4.124 0 1 0 0-8.249 4.124 4.124 0 0 0 0 8.25ZM28.235 17.136l.26.81.795-.302-.47.709.73.433-.847.074.117.842-.585-.616-.586.616.116-.842-.846-.074.73-.434-.47-.708.795.301.26-.809ZM30.124 12.187l.206.504.543.04-.416.351.13.53-.463-.288-.463.287.13-.529-.416-.351.544-.04.205-.504ZM23.51 9.656l.26.81.795-.302-.47.708.731.434-.847.074.117.842-.586-.617-.586.617.117-.842-.847-.074.731-.434-.47-.708.795.301.26-.81ZM32.434 8.396l.26.81.795-.302-.47.708.731.434-.847.074.117.842-.586-.616-.586.616.117-.842-.847-.074.731-.434-.47-.708.795.301.26-.81ZM28.235 4.538l.26.809.795-.301-.47.708.73.434-.847.073.117.843-.585-.617-.586.617.116-.843-.846-.073.73-.434-.47-.708.795.3.26-.808Z"/><path fill="#A36D56" d="M5.8 10.8h.79s.448-2.21.035-3l-.25.178s.412 1.52-.575 2.822Z"/><path fill="#73AF00" d="M5.904 7.566s-.548.297-.375 1.178c0 0 .418-.274.649-.88 0 0-.332.503.13.903 0 0 .489-.55.417-1.03 0 0 1.629 1.35 1.282 1.007-.057-.057.087-.63-.475-1.098 0 0 .922.183 1.268.114 0 0 .029-.583-.85-.686l.201-.458s-.677-.034-1.037.24c0 0-.087-.709.274-1.052 0 0-1.067-.126-1.11.984 0 0-.389-.71-1.585-.538 0 0 .677.39.793.56 0 0-.951-.514-1.398.207 0 0 .764-.16 1.038.126 0 0-1.225-.103-1.326.732 0 0 1.138-.424 2.104-.31Z"/></svg>