<svg xmlns="http://www.w3.org/2000/svg" width="18" height="12" fill="none" viewBox="0 0 36 24"><g clip-path="url(#a)"><path fill="#0052B4" d="M36 0H0v23.996h36V0Z"/><path fill="#F0F0F0" d="m27.216 16.946.368.769.83-.192-.372.766.667.53-.83.187.002.852-.665-.533-.664.533.002-.852-.83-.187.666-.53-.371-.766.83.192.367-.769ZM13.304 14.945l.77 1.611 1.74-.402-.778 1.607 1.399 1.11-1.742.393.005 1.785-1.394-1.117-1.393 1.117.005-1.785-1.742-.393 1.4-1.11-.78-1.607 1.74.402.77-1.61ZM15.708 11.998l.057-.064-.058.064ZM28.067 11.707l.29.89h.935l-.757.55.289.889-.757-.55-.757.55.29-.89-.757-.55h.935l.29-.89ZM23.797 8.796l.368.768.83-.192-.372.767.668.53-.831.186.002.852-.665-.533-.664.533.002-.852-.83-.187.667-.53-.372-.766.83.192.367-.768ZM30.203 7.631l.367.769.83-.192-.372.767.668.529-.831.187.002.852-.665-.533-.664.533.002-.852-.83-.187.667-.53-.372-.766.83.192.367-.769ZM27.216 4.138l.368.769.83-.192-.372.767.667.529-.83.187.002.852-.665-.533-.664.533.002-.852-.83-.187.666-.53-.371-.766.83.192.367-.769Z"/><path fill="#F0F0F0" d="M18 0v2.148l-3.176 1.764H18v4.173h-4.156L18 10.394v1.604h-1.876l-5.167-2.87v2.87H7.043V8.583L.896 11.998H0V9.85l3.176-1.765H0V3.912h4.156L0 1.603V0h1.876l5.167 2.87V0h3.913v3.415L17.105 0H18Z"/><path fill="#FF4B55" d="M10.125 0h-2.25v4.874H0v2.25h7.875v4.874h2.25V7.124H18v-2.25h-7.875V0Z"/><path fill="#0052B4" d="M10.957 8.085 18 11.998v-1.106l-5.052-2.807h-1.992Z"/><path fill="#F0F0F0" d="M10.957 8.085 18 11.998v-1.106l-5.052-2.807h-1.992Z"/><path fill="#FF4B55" d="M10.957 8.085 18 11.998v-1.106l-5.052-2.807h-1.992ZM5.052 8.085 0 10.892v1.107l7.043-3.914H5.052Z"/><path fill="#0052B4" d="M7.043 3.913 0 0v1.107l5.052 2.806h1.991Z"/><path fill="#F0F0F0" d="M7.043 3.913 0 0v1.107l5.052 2.806h1.991Z"/><path fill="#FF4B55" d="M12.948 3.913 18 1.107V0l-7.043 3.913h1.991ZM7.043 3.913 0 0v1.107l5.052 2.806h1.991Z"/></g><defs><clipPath id="a"><path fill="#fff" d="M0 0h36v23.996H0z"/></clipPath></defs></svg>