<svg xmlns="http://www.w3.org/2000/svg" width="18" height="12" fill="none" viewBox="0 0 36 24"><g fill-rule="evenodd" clip-path="url(#a)" clip-rule="evenodd"><path fill="#0052B4" d="M0 0h36v23.992H0V-.001Z"/><path fill="#FFE15A" d="m21.304 15.96-3.273-2.384-3.28 2.375 1.253-3.854-3.269-2.39 4.048.003 1.26-3.851 1.248 3.855 4.047.01-3.276 2.38 1.242 3.856ZM3.916 23.13l-.989-.72-.99.717.378-1.164-.987-.721h1.223l.38-1.163.377 1.164 1.222.003-.99.719.376 1.165Zm0-3.85-.989-.72-.99.716.378-1.163-.987-.722 1.223.001.38-1.163.377 1.164 1.222.003-.99.719.376 1.164Zm0-3.779-.989-.72-.99.717.378-1.163-.987-.722h1.223l.38-1.162.377 1.164 1.222.003-.99.718.376 1.165Zm0-3.85-.989-.72-.99.717.378-1.164-.987-.721h1.223L2.93 8.6l.377 1.165 1.222.002-.99.719.376 1.165Zm0-3.88-.989-.72-.99.718.378-1.164-.987-.722 1.223.001.38-1.163.377 1.164 1.222.003-.99.719.376 1.165Zm0-3.879-.989-.72-.99.718.378-1.164-.987-.722 1.223.001.38-1.163.377 1.164 1.222.003-.99.719.376 1.164Z"/></g><defs><clipPath id="a"><path fill="#fff" d="M0 0h36v23.995H0z"/></clipPath></defs></svg>