<svg xmlns="http://www.w3.org/2000/svg" width="18" height="12" fill="none" viewBox="0 0 36 24"><path fill="#0052B4" d="M36 0H0v24h36V0Z"/><path fill="#F0F0F0" d="m15.708 12 .057-.065-.058.065Z"/><path fill="#F0F0F0" d="M18 0v2.148l-3.176 1.765H18v4.174h-4.156L18 10.395V12h-1.876l-5.167-2.87V12H7.043V8.584L.896 12H0V9.85l3.176-1.764H0V3.913h4.156L0 1.603V0h1.876l5.167 2.87V0h3.913v3.415L17.105 0H18Z"/><path fill="#FF4B55" d="M10.125 0h-2.25v4.875H0v2.25h7.875V12h2.25V7.125H18v-2.25h-7.875V0Z"/><path fill="#FF4B55" d="M10.957 8.087 18 12v-1.107l-5.052-2.806h-1.992ZM5.052 8.087 0 10.893V12l7.043-3.913H5.052ZM12.948 3.913 18 1.106V0l-7.043 3.913h1.991ZM7.043 3.913 0 0v1.106l5.052 2.807h1.991Z"/><path fill="#F0F0F0" d="m27.533 6 .374 1.151h1.21l-.979.712.374 1.151-.98-.712-.979.712.374-1.151-.979-.712h1.21L27.534 6ZM22.56 8.06l1.078.55.856-.857-.189 1.196 1.079.55-1.196.189-.19 1.195-.549-1.078-1.196.19.857-.857-.55-1.078ZM20.5 13.033l1.151-.374v-1.21l.712.979 1.151-.375-.712.98.712.979-1.151-.374-.712.98v-1.211l-1.151-.374ZM22.56 18.006l.55-1.079-.857-.856 1.196.19.55-1.08.189 1.197 1.196.189-1.079.55.19 1.195-.857-.856-1.078.55ZM27.533 20.065l-.374-1.15h-1.21l.978-.712-.373-1.152.979.712.98-.712-.375 1.152.98.711h-1.211l-.374 1.151ZM32.506 18.006l-1.079-.55-.856.856.19-1.196-1.08-.549 1.197-.19.189-1.195.55 1.079 1.195-.19-.856.856.55 1.079ZM34.566 13.033l-1.152.374v1.21l-.711-.979-1.152.374.712-.98-.712-.979 1.152.374.711-.979v1.21l1.151.375ZM32.506 8.06l-.55 1.078.856.856-1.196-.189-.549 1.079-.19-1.196-1.195-.19 1.079-.549-.19-1.195.856.855 1.079-.549Z"/></svg>