<svg xmlns="http://www.w3.org/2000/svg" width="18" height="12" fill="none" viewBox="0 0 36 24"><g clip-path="url(#a)"><path fill="#FF4B55" d="M36 0H0v23.992h36V-.001Z"/><path fill="#FFE15A" d="M15.527 7.986 13.73 9.392l.627-2.194.783 2.144-1.894-1.275 2.281-.081ZM12.423 9.674l-.106 2.28-1.254-1.907 2.136.805-2.202.604 1.426-1.782ZM6 2.399l2.116 6.51-5.54-4.024h6.848L3.884 8.91 6 2.399ZM12.47 1.295l-.2 2.274-1.175-1.957 2.1.893-2.224.512 1.499-1.722ZM15.261 3.963 14.194 5.98l-.323-2.26 1.59 1.639-2.25-.391 2.05-1.005Z"/></g><defs><clipPath id="a"><path fill="#fff" d="M0 0h36v23.995H0z"/></clipPath></defs></svg>