<svg xmlns="http://www.w3.org/2000/svg" width="18" height="12" fill="none" viewBox="0 0 36 24"><g clip-path="url(#a)"><path fill="#0052B4" d="M0 0h36v23.992H0V-.001Z"/><path fill="#F0F0F0" d="M0 3.998h36v15.995H0V3.998Z"/><path fill="#FF4B55" d="M0 7.997h36v7.998H0V7.997Z"/><path fill="#F0F0F0" d="M10 15.495c1.657 0 3-1.567 3-3.5 0-1.932-1.343-3.498-3-3.498s-3 1.566-3 3.499c0 1.932 1.343 3.499 3 3.499Z"/><path fill="#FAC586" d="M12.12 11.94c-.35.09-.62-.47-.21-.59-.01.2.31.23.31.01-.19-.71-.85-1.25-1.78-1.31.13-.16-.15-.24-.419-.24h-.001c-.27 0-.548.08-.419.24-.93.06-1.59.6-1.78 1.31 0 .22.32.19.31-.01.41.12.14.68-.21.59-1.629.54 1.178 2.848 2.099 2.93h.001c.922-.082 3.728-2.39 2.099-2.93Z"/><path fill="#82AFFF" d="M10.987 9.524c.52-.719-2.45-.72-1.932 0-.414-.016-.757.245-.77.332l.117.175c.403-.467 2.836-.468 3.239 0l.116-.175c-.011-.007-.16-.296-.77-.332Zm-.546-.029c.161-.196-1-.197-.84 0-1.653-.345 2.494-.345.84 0ZM11.3 10.85H8.7v1.64h2.6v-1.64Z"/><path fill="#FFE15A" d="M9.49 12.055a.3.3 0 1 1-.6 0 .3.3 0 0 1 .6 0Z"/><path fill="#0052B4" d="M11.3 12.49v.4c0 .06 0 .11-.02.17v.01c-.12.56-.76.9-1.1 1.05-.09.04-.15.06-.18.07a1.86 1.86 0 0 1-.18-.07c-.34-.15-.98-.49-1.1-1.05v-.01c-.01-.01-.01-.01 0-.02-.02-.05-.02-.1-.02-.15v-.4h2.6Z"/><path fill="#73AF00" d="M11.3 11.97v.52H9.9c.62-.415 1.02-1.572 1.4-.52Z"/><path fill="#F0F0F0" d="M10 11.1c-.27 0-.52.09-.72.26l.13.13a.99.99 0 0 1 .59-.19c.22 0 .43.07.59.19l.13-.13c-.2-.17-.45-.26-.72-.26ZM10.047 13.1v-.052h.335c-.02-.038-.377-.597-.335-.63h-.051v.683h-.421c.133.306.76.306.893 0h-.42Z"/><path fill="#F0F0F0" d="m9.943 12.664-.288.384h.288v-.384Z"/></g><defs><clipPath id="a"><path fill="#fff" d="M0 0h36v23.995H0z"/></clipPath></defs></svg>