<svg xmlns="http://www.w3.org/2000/svg" width="18" height="12" fill="none" viewBox="0 0 36 24"><g clip-path="url(#a)"><path fill="#0052B4" d="M0 0h36v23.992H0V-.001Z"/><path fill="#F0F0F0" d="M0 11.996h36v5.998H0v-5.998Z"/><path fill="#FF4B55" d="M0 13.995h36v2H0v-2Z"/><path fill="#FFE15A" d="m13.033 8 .374 1.151h1.21l-.979.712.374 1.151-.98-.712-.979.712.374-1.151-.979-.712h1.21L13.034 8ZM8.06 10.06l1.078.55.856-.857-.189 1.196 1.079.55-1.196.189-.19 1.195-.549-1.078-1.196.19.857-.857-.55-1.078ZM6 15.033l1.151-.374v-1.21l.712.979 1.151-.375-.712.98.712.979-1.151-.374-.712.98v-1.211L6 15.033ZM8.06 20.006l.55-1.079-.857-.856 1.196.19.55-1.08.189 1.197 1.195.189-1.078.55.19 1.195-.857-.856-1.078.55ZM13.033 22.065l-.374-1.15h-1.21l.979-.712-.375-1.152.98.712.98-.712-.375 1.152.98.711h-1.211l-.374 1.151ZM18.006 20.006l-1.079-.55-.856.856.19-1.196-1.08-.549 1.197-.19.189-1.195.55 1.079 1.195-.19-.856.856.55 1.079ZM20.066 15.033l-1.152.374v1.21l-.711-.979-1.152.374.712-.98-.712-.979 1.152.374.711-.979v1.21l1.151.375ZM18.006 10.06l-.55 1.078.856.856-1.196-.189-.549 1.079-.19-1.196-1.195-.19 1.079-.549-.19-1.195.856.855 1.079-.549Z"/></g><defs><clipPath id="a"><path fill="#fff" d="M0 0h36v23.995H0z"/></clipPath></defs></svg>