<svg xmlns="http://www.w3.org/2000/svg" width="18" height="12" fill="none" viewBox="0 0 36 24"><g clip-path="url(#a)"><path fill="#0052B4" d="M36 0H0v23.988h36V0Z"/><path fill="#73AF00" d="M0 0h36v23.988L0 0Z"/><path fill="#73AF00" d="M33.107 6.982c-.019.051-.102.072-.185.046-.083-.027-.136-.09-.118-.141.019-.052.102-.072.185-.046.084.026.136.09.118.14Z"/><path fill="#F0F0F0" d="m6.865 19.888-.46-.43-.464.424.05-.626-.621-.1.52-.351-.309-.547.6.188.235-.584.227.587.602-.18-.316.542.516.359-.622.09.042.628ZM8.402 15.409l-.495-.33-.482.347.17-.56-.49-.339.6-.016.18-.558.202.55.6-.005-.476.357.191.553ZM2.74 14.64l-.46-.43-.464.424.05-.627-.621-.099.52-.352-.31-.547.601.188.235-.583.227.586.602-.18-.317.543.517.358-.622.091.041.628ZM10.677 13.265l-.459-.43-.464.424.05-.627-.622-.099.522-.351-.31-.548.6.188.234-.583.228.586.602-.18-.317.543.517.359-.622.09.041.628Z"/><path fill="#FFE15A" d="M18 15.58a3.251 3.251 0 1 0 .001-6.502A3.251 3.251 0 0 0 18 15.58Z"/><path fill="#73AF00" d="M18.086 14.5h1.142s.496-.877 0-1.715l1.143-1.143L19.8 10.5h-.572s-.285.858-1.428.858-1.429-.858-1.429-.858H15.8l.571 1.143-.571 1.143.571.572s.572-1.143 1.715-.572c0 0 .485.714 0 1.714Z"/><path fill="#F0F0F0" d="m6.774 10.205-.46-.43-.464.424.05-.627-.621-.099.521-.351-.31-.548.6.188.235-.583.227.586.603-.18-.317.543.516.359-.622.09.042.628Z"/><path fill="#FFE15A" d="M31.305 6.563c.038-.191.059-.39.059-.592 0-1.389-.95-2.565-2.265-2.971a5.61 5.61 0 0 1 .552 3.499 3.252 3.252 0 0 0-.761-.817 3.49 3.49 0 0 0-3.948-.164c.912.19 1.794.576 2.573 1.168.61.464 1.104 1.09 1.482 1.696L24 9.875c4.909.78 9-2.342 9-2.342-.453-.865-1.157-1.011-1.695-.97Z"/></g><defs><clipPath id="a"><path fill="#fff" d="M0 0h36v23.995H0z"/></clipPath></defs></svg>