<svg xmlns="http://www.w3.org/2000/svg" width="18" height="12" fill="none" viewBox="0 0 36 24"><g clip-path="url(#a)"><path fill="#73AF00" d="M36 0H0v23.988h36V0Z"/><path fill="#F0F0F0" d="M36 0H0v12h36V0Z"/><path fill="#FF4B55" d="m29.127 5.808-1.97 2.909h.965s-.752 2.508-5.54 2.952l-.672-.47 4.676-3.458V4.617l-3.939 2.765V4l-6.039 4.992v1.356l-1.499 1.023-.601-1.43h.532l-.532-1.266h.532l-.532-1.423h.532l-.705-1.37 1.247-1.101h-.558v-.53l-1.729.816h-2.384l-.317.464-2.407.881 1.564.056v.474h1.084v-.53h.525v.914l-1.095.352v.876l1.62-.558-1.59 5.364-1.922-1.102-.405-1.514.768-.65V8.695l-.768 1.058V9.07l-.841-.805.22.815v.65l-.44-.683L6 8.806l.394.681.535 1.106-.11 1.433-.754 1.287 1.28-.849 2.498 4.203.642-1.043h1.298L10.28 18.12H7.64l-.569.985.686-.282h.729l-.831.515-.28.661.992-.47 3.02-.338 1.23.463-.982-1.125 1.888-2.909h3.375l2.034 1.47-.547 1.014-3.07.014-.57.985.686-.282h.73l-.832.515-.28.66.993-.47 3.02-.337 1.23.463-.983-1.124 2.486-2.212-1.205-2.068 4.592 1.372.009 2.475-2.809.016-.569.984.686-.281h.729l-.831.513-.28.662.992-.468 3.02-.338 1.231.464-.983-1.125 1.02-3.482-2.171-1.521s3.42-1.147 3.856-4.717H30l-.873-2.995Z"/></g><defs><clipPath id="a"><path fill="#fff" d="M0 0h36v23.995H0z"/></clipPath></defs></svg>