<svg xmlns="http://www.w3.org/2000/svg" width="32" height="32" fill="none"><g clip-path="url(#a)"><path fill="#0052B4" d="M30 5.33H2a2 2 0 0 0-2 2v17.333a2 2 0 0 0 2 2h28a2 2 0 0 0 2-2V7.33a2 2 0 0 0-2-2Z"/><path fill="#FF4B55" fill-rule="evenodd" d="M32 16H13.449L.657 26.145c.355.322.826.518 1.343.518h28a2 2 0 0 0 2-2V16Z" clip-rule="evenodd"/><path fill="#F0F0F0" fill-rule="evenodd" d="M.655 5.853c.355-.323.827-.52 1.345-.52h28a2 2 0 0 1 2 2V16H13.45L.654 5.853Z" clip-rule="evenodd"/></g><defs><clipPath id="a"><path fill="#fff" d="M0 0h32v32H0z"/></clipPath></defs></svg>