<svg xmlns="http://www.w3.org/2000/svg" width="18" height="12" fill="none" viewBox="0 0 36 24"><g clip-path="url(#a)"><path fill="#73AF00" d="M0 0h36v23.989H0V-.001Z"/><path fill="#FFE15A" d="M0 8.996h36v3.998H0V8.996Z"/><path fill="#F0F0F0" d="M0 10.995h36v3.998H0v-3.998Z"/><path fill="#464655" d="M0 10.995h36v2H0v-2Z"/><path fill="#FFE15A" d="M15 0h4v23.988h-4V0Z"/><path fill="#F0F0F0" d="M17 0h4v23.988h-4V0Z"/><path fill="#464655" d="M17 0h2v23.988h-2V0Z"/><path fill="#FF4B55" d="M18.007 18.204a6.207 6.207 0 1 0 0-12.415 6.207 6.207 0 0 0 0 12.415Z"/><path fill="#9461C9" d="M17.08 10.41c-.44.88 0 3.007.96 3.894.643.594.455-3.882-.96-3.895Z"/><path fill="#73AF00" d="M19.16 15.67c-.3-.15-.53-.32-.7-.51-.23-.25-.35-.54-.42-.85-.28-1.26.45-2.85-.96-3.9.89-2.19 3.28-.3 2.08 5.26Z"/><path fill="#9461C9" d="M17.107 9.3c.456-1.06 1.638-.578 2.474 1.314-.704.626-2.59-.705-2.474-1.314Z"/><path fill="#FFE15A" d="M17.358 9.542c.009-.417-.683-.328-.493.367-.023-.184.513-.024.493-.367Z"/><path fill="#73AF00" d="m18 6.3.24.736h.773l-.626.455.24.736L18 7.772l-.626.455.239-.736-.626-.455h.774L18 6.299ZM14.6 7.404l.627.455.627-.455-.24.736.627.455h-.775l-.239.737-.24-.737h-.773l.626-.455-.24-.736ZM12.5 10.295h.774l.24-.736.239.736h.774l-.627.456.24.736-.627-.455-.626.455.24-.737-.627-.455ZM12.5 13.87l.626-.455-.239-.737.626.455.627-.455-.24.736.627.456h-.774l-.24.736-.239-.736H12.5ZM14.6 16.761l.24-.736-.626-.455h.774l.24-.737.238.737h.775l-.627.455.24.736-.627-.455-.626.455ZM18 17.866l-.24-.737h-.773l.626-.455-.24-.736.627.455.626-.455-.239.736.626.455h-.774l-.239.736ZM21.4 16.761l-.627-.455-.626.455.239-.736-.627-.455h.775l.239-.737.24.737h.773l-.626.455.24.736ZM23.5 13.87h-.774l-.24.736-.239-.736h-.774l.627-.456-.24-.736.627.455.626-.455-.24.736.627.456ZM23.5 10.295l-.626.455.239.737-.626-.455-.627.455.24-.736-.627-.455h.774l.24-.737.239.736h.774ZM21.4 7.404l-.24.736.626.455h-.774l-.24.737-.238-.737h-.775l.627-.455-.24-.736.627.455.626-.455Z"/></g><defs><clipPath id="a"><path fill="#fff" d="M0 0h36v23.995H0z"/></clipPath></defs></svg>