<svg xmlns="http://www.w3.org/2000/svg" width="18" height="12" fill="none" viewBox="0 0 36 24"><g clip-path="url(#a)"><path fill="#F0F0F0" d="M0 0h36v23.992H0V-.001Z"/><path fill="#0052B4" d="M20.4 14.395H36v9.597H20.4v-9.597Z"/><path fill="#FF4B55" d="M0 14.395h15.6v9.597H0v-9.597ZM20.4 0H36v9.596H20.4V0Z"/><path fill="#0052B4" d="M0 0h15.6v9.596H0V0Z"/><path fill="#73AF00" d="M18.04 13.51c-.14 0-.386 0-.644-.07a.544.544 0 0 0 .137-.391c0-.33-.227-.12-.227-.12s-.15.126-.06.462a1.305 1.305 0 0 1-.258-.132c.052-.065.155-.217.215-.457 0 0-.378-.075-.482.21a1.3 1.3 0 0 1-.163-.271c.098.001.233-.063.233-.434 0 0-.247 0-.313.215a2.11 2.11 0 0 1-.06-.287c.098.029.354.05.354-.505 0 0-.307.001-.378.272a3.287 3.287 0 0 1-.004-.215.598.598 0 0 0 .332-.6s-.141.032-.27.14a.482.482 0 0 0-.19-.49s-.188.332.087.601a.559.559 0 0 0-.062.115.588.588 0 0 0-.32-.235s-.073.446.342.632c.01.26.051.49.12.689-.118-.105-.214-.25-.214-.25 0-.494-.406-.506-.406-.506-.075.564.342.587.342.587l.228.25c-.494-.083-.494.329-.494.329.33.082.494-.082.494-.082l.179.091c-.317.01-.426.32-.426.32.397.067.688-.027.787-.066.4.28.893.28 1.121.28v-.082Z"/><path fill="#73AF00" d="M18.012 13.51c.14 0 .386 0 .645-.07a.544.544 0 0 1-.138-.391c0-.33.228-.12.228-.12s.149.126.059.462a1.31 1.31 0 0 0 .258-.132 1.207 1.207 0 0 1-.215-.457s.378-.075.482.21c.064-.08.118-.171.163-.271-.097.001-.233-.063-.233-.434 0 0 .247 0 .313.215a2.11 2.11 0 0 0 .06-.287c-.098.029-.353.05-.353-.505 0 0 .306.001.377.272.004-.069.005-.14.005-.215a.598.598 0 0 1-.333-.6s.141.032.27.14a.482.482 0 0 1 .19-.49s.188.332-.086.601a.554.554 0 0 1 .061.115.589.589 0 0 1 .32-.235s.073.446-.342.632c-.01.26-.05.49-.12.689.118-.105.215-.25.215-.25 0-.494.405-.506.405-.506.076.564-.341.587-.341.587l-.229.25c.495-.083.495.329.495.329-.33.082-.495-.082-.495-.082l-.178.091c.316.01.425.32.425.32a1.505 1.505 0 0 1-.787-.066c-.4.28-.893.28-1.12.28v-.082Z"/><path fill="#FF4B55" d="M18.027 12.06h1.154v.66a.33.33 0 0 1-.33.33h-.494a.41.41 0 0 0-.33.166V12.06Z"/><path fill="#82AFFF" d="M18.275 11.319v-.907h1.236l-.33.33v.906h-.906v-.33Z"/><path fill="#FF4B55" d="M18.027 12.06h-1.153v.66c0 .181.147.33.33.33h.494a.41.41 0 0 1 .33.166V12.06Z"/><path fill="#F0F0F0" d="M17.821 13.069a.414.414 0 0 1 .204.145h.004a.415.415 0 0 1 .204-.145v-1.68h-.412v1.68Z"/><path fill="#82AFFF" d="M17.78 11.319v-.907h-1.236l.33.33v.906h.906v-.33Z"/><path fill="#0052B4" d="M18.4 9.857a2.498 2.498 0 0 0-.746 0l-.003.148a2.498 2.498 0 0 0-.872.136l.034.055a2.496 2.496 0 0 0-.663.619l-.265-.196c.12-.162.255-.31.405-.44l-.08-.143c.339-.19.712-.307 1.096-.346l-.025-.09a2.829 2.829 0 0 1 1.493 0l-.025.09c.384.039.757.156 1.096.346l-.08.142c.15.132.286.28.405.441l-.265.196a2.496 2.496 0 0 0-.663-.62l.034-.054a2.499 2.499 0 0 0-.872-.136l-.004-.148Z"/><path fill="#FF4B55" d="M19.067 13.805a5.646 5.646 0 0 0-2.078.003l.039.117a5.64 5.64 0 0 0-1.003.36l-.14-.298c.255-.12.518-.222.787-.305l-.033-.136a5.978 5.978 0 0 1 2.791 0l-.034.14c.264.082.523.183.774.301l-.14.298a5.64 5.64 0 0 0-1.003-.36l.04-.12Z"/></g><defs><clipPath id="a"><path fill="#fff" d="M0 0h36v23.995H0z"/></clipPath></defs></svg>