<svg xmlns="http://www.w3.org/2000/svg" width="18" height="12" fill="none" viewBox="0 0 36 24"><g clip-path="url(#a)"><path fill="#F0F0F0" d="M0 0h36v23.992H0V-.001Z"/><path fill="#5E7C24" d="M0 0h18v23.992H0V-.001Z"/><path fill="#FF4B55" d="M23.196 8.997a6 6 0 1 0-9.956 6.65 6 6 0 0 0 9.956-.652 4.8 4.8 0 0 1-7.663-5.774 4.8 4.8 0 0 1 7.663-.224Zm.231 2.999L18 10.233l3.354 4.615V9.143L18 13.758l5.427-1.762Z"/></g><defs><clipPath id="a"><path fill="#fff" d="M0 0h36v23.995H0z"/></clipPath></defs></svg>