<svg xmlns="http://www.w3.org/2000/svg" width="18" height="12" fill="none" viewBox="0 0 36 24"><g clip-path="url(#a)"><path fill="#FFE15A" d="M36 0H0v23.996h36V0Z"/><path fill="#FF4B55" d="M36 18.121H0v5.876h36V18.12Z"/><path fill="#0052B4" d="M36 11.998H0v6.124h36v-6.124Z"/><g clip-path="url(#b)"><path fill="#FFE15A" d="M22.38 9.62v5.44a1.656 1.656 0 0 1-2.77 1.23l-1.4-1.26c.14-.02.27-.06.4-.12.2-.09.4-.23.57-.4l1.13 1.01c.05.04.11.08.17.11.08.03.16.05.24.05.32 0 .59-.25.62-.57v-4.59l-.63.53V9.48l1.05-.9v1.57l.62-.53Z"/><path fill="#FFE15A" d="m21.34 10.52-.63.54v-.01l.63-.53ZM17.79 15.03l-1.4 1.26a1.656 1.656 0 0 1-2.77-1.23V9.62l.62.53V8.58l1.05.9v1.57l-.63-.53v4.59c.03.32.3.57.62.57.08 0 .16-.02.24-.05a.99.99 0 0 0 .17-.11l1.13-1.01c.17.17.37.31.57.4.13.06.26.1.4.12Z"/><path fill="#FFE15A" d="M15.29 11.05v.01l-.63-.54.63.53Z"/><path fill="#A36D56" d="M19.67 6.024c-1.325-.237-1.107 1.357-1.055 1.659a.613.613 0 0 0-.607-.564h-.015a.613.613 0 0 0-.607.564c.052-.302.27-1.896-1.055-1.66-1.461.262-1.461.679-3.131 1.514 0 0 1.878.417 2.713.209 0 0 .627.834 1.253 1.043H18.835c.626-.209 1.253-1.043 1.253-1.043.834.208 2.713-.21 2.713-.21-1.67-.834-1.67-1.251-3.13-1.512Zm-2.296 1.722Zm1.253 0Z"/><path fill="#FAC586" d="m17.583 7.732-.478-.256c0-.197.16-.357.356-.357h.122l.245.246a.416.416 0 0 1 .59.38.417.417 0 1 1-.835-.013Z"/><path fill="#FD823D" d="M17.373 7.509h-.708c.194-.657 1.497-.556.708 0Z"/><path fill="#FFE15A" d="M15.29 11.05v.01l-.63-.54.63.53ZM21.34 10.52l-.63.54v-.01l.63-.53Z"/><path fill="#FF4B55" d="M16.33 13.79v.31l-1.04.94V9.48l.94.8c-.07.15-.13.31-.17.48-.07.26-.12.54-.13.84v.01c-.02.1-.02.2-.02.31 0 .33.03.65.09.95.07.33.18.64.33.92ZM16.23 10.28l-.94-.8v-.01l.94.81ZM20.71 9.48v5.56l-1.04-.94v-.31c.15-.28.26-.59.33-.92.06-.3.09-.62.09-.95 0-.11 0-.22-.02-.32-.01-.3-.06-.58-.13-.84-.04-.17-.1-.33-.17-.48l.94-.8Z"/><path fill="#FF4B55" d="M20.71 9.47v.01l-.94.8.94-.81Z"/><path fill="#0052B4" d="m16.82 14.51-1.13 1.01a.99.99 0 0 1-.17.11c-.08.03-.16.05-.24.05-.32 0-.59-.25-.62-.57v-4.59l.63.54v3.98l1.04-.94v-.31c.07.15.16.3.26.43.07.1.15.2.23.29ZM21.34 10.52v4.59c-.03.32-.3.57-.62.57-.08 0-.16-.02-.24-.05a.99.99 0 0 1-.17-.11l-1.13-1.01c.19-.2.36-.44.49-.72v.31l1.04.94v-3.98l.63-.54Z"/><path fill="#82AFFF" d="M19.94 10.76h-3.88c.04-.17.1-.33.17-.48.36-.9 1.02-1.49 1.77-1.49s1.41.59 1.77 1.49c.07.15.13.31.17.48ZM20 12.87c-.07.33-.18.64-.33.92-.13.28-.3.52-.49.72-.17.17-.37.31-.57.4-.13.06-.26.1-.4.12-.07.01-.14.02-.21.02-.07 0-.14-.01-.21-.02a1.42 1.42 0 0 1-.4-.12c-.2-.09-.4-.23-.57-.4-.08-.09-.16-.19-.23-.29-.1-.13-.19-.28-.26-.43a3.47 3.47 0 0 1-.33-.92h4Z"/><path fill="#FFE15A" d="m17.37 16.09-.41 1.05-.27-.09-.36-.12.63-.84h.41Z"/><path fill="#FF4B55" d="M18.84 17.76 18 18l-.83-.24.06-.24.14.04.42-1.47h.42l.42 1.47.15-.04.06.24Z"/><path fill="#FFE15A" d="m19.67 16.93-.36.12-.27.09-.41-1.05h.41l.63.84Z"/><path fill="#73AF00" d="M20.09 11.92c0 .33-.03.65-.09.95h-4c-.06-.3-.09-.62-.09-.95 0-.11 0-.21.02-.31v-.01c.01-.3.06-.58.13-.84h3.88c.07.26.12.54.13.84.02.1.02.21.02.32Z"/></g></g><defs><clipPath id="a"><path fill="#fff" d="M0 0h36v23.996H0z"/></clipPath><clipPath id="b"><path fill="#fff" d="M13 6h10v12H13z"/></clipPath></defs></svg>