<svg xmlns="http://www.w3.org/2000/svg" width="18" height="12" fill="none" viewBox="0 0 36 24"><g clip-path="url(#a)"><path fill="#464655" d="M0 0h36v23.992H0V-.001Z"/><path fill="#F0F0F0" d="M0 0h36v15.994H0V0Z"/><path fill="#FF4B55" d="M0 0h36v7.997H0V-.001Z"/><path fill="#FAC586" d="M20 10.617c0-.347-.305-.592-.6-.482l-.553.206-.134-.908c-.08-.54-.496-.934-.987-.934h-.518l-.541.745h.717l-.2 1.108-.585-.217c-.295-.11-.599.135-.599.482v3.765l.806-.901-.38 1.273H16v.745h4v-.745h-.426l-.38-1.273.806.9v-3.764Zm-2.333 4.137h-.538l.37-1.103.168.24v.863Zm.666 0v-.863l.168-.24.37 1.103h-.538ZM18 13.404s-1.031-.78-.99-2.235c0 0 .636-.117.99-.745.354.628.99.745.99.745.041 1.455-.99 2.235-.99 2.235Z"/></g><defs><clipPath id="a"><path fill="#fff" d="M0 0h36v23.995H0z"/></clipPath></defs></svg>