<svg xmlns="http://www.w3.org/2000/svg" width="18" height="12" fill="none" viewBox="0 0 36 24"><g clip-path="url(#a)"><path fill="#73AF00" d="M0 0h36v23.992H0V-.001Z"/><path fill="#F0F0F0" d="M0 0h36v15.994H0V0Z"/><path fill="#FF4B55" d="M19.8 15.195c1.878 0 3.4-1.433 3.4-3.2 0-1.766-1.522-3.198-3.4-3.198s-3.4 1.432-3.4 3.199c0 1.766 1.522 3.199 3.4 3.199Z"/><path fill="#F0F0F0" d="M21.075 15.195c1.878 0 3.4-1.433 3.4-3.2 0-1.766-1.522-3.198-3.4-3.198s-3.4 1.432-3.4 3.199c0 1.766 1.522 3.199 3.4 3.199Z"/><path fill="#FF4B55" d="m18.887 13.933 1.45-.976 1.439.99-.538-1.598 1.445-.982-1.782-.012-.545-1.597-.564 1.59-1.782-.004 1.433.996-.556 1.593Z"/><path fill="#464655" d="M0 0h36v7.997H0V-.001Z"/><path fill="#FF4B55" d="M0 0v23.992l12-11.996L0-.001Z"/></g><defs><clipPath id="a"><path fill="#fff" d="M0 0h36v23.995H0z"/></clipPath></defs></svg>