<svg xmlns="http://www.w3.org/2000/svg" width="18" height="12" fill="none" viewBox="0 0 36 24"><g clip-path="url(#a)"><path fill="#0052B4" fill-rule="evenodd" d="M0 24h36V12L0 24Z" clip-rule="evenodd"/><path fill="#73AF00" d="M0 0h36v12L15.976 5.884 0 0Z"/><path fill="#FF4B55" d="M0 0v24l36-12L0 0Z"/><path fill="#FFE15A" d="M12.822 15.643s1.823-.665 2.338-2.66c0 0-.794 1.03-1.351 1.33 0 0 1.222-1.63.965-3.216 0 0-.15.643-.45.9 0 0 .536-2.294-.15-3.26 0 0 .02.816-.28 1.63 0 0 .115-2.58-1.058-3.238 0 0 .458.815.265 1.501 0 0-.322-1.458-1.816-2.037 0 0-.093.107-.071.429 0 0-.408-.493-1.416-.472 0 0 .022.365.28.708 0 0-.408.214-.666.15 0 0 .408.45 1.845.408 0 0-.193.171-.58.214 0 0 .588.27 1.166.322.793.071 1.108.536 1.258 1.115 0 0-.622-.365-.858-.73 0 0-.043.623 1.137 1.824l-.6-.258s.385 1.115.857 2.38l-.493-.535s-.107.9-.193 2.573l-.343-.793s-.6 1.973-1.523 2.294c-.722.252-1.52.424-1.834.488-.03-1.104.44-1.346.44-1.346.836.043 1.03-.879 1.03-.879-.172.172-.494.172-.494.172.493-.515.493-1.244.493-1.244-.3.579-.772.665-.772.665l.043-.58c-.872.635-.81 1.378-.795 1.487-.02-.139-.175-1.226-.256-1.486-.085-.28.108-.837.408-.751.972.278 1.2-.429 1.2-.429-.514.236-.814.064-.814.064.665-.643.386-1.243.386-1.243-.215.621-.815.729-.815.729l-.022-.687c-.278.15-.536.815-.536.815s-.064-.536.129-1.008c.193-.471.686-.236.686-.236.88.172 1.158-.664 1.158-.664l-.579.085c.644-.471.45-1.05.45-1.05-.15.364-.686.429-.686.429l.258-.687c-.558 0-.88.73-.88.73l-.042-.708c.257-.922-.344-1.33-.344-1.33-.128.172-.064.536-.064.536-.536-.471-.943.086-.943.086.407.43.793.386.793.386-.129.086-.6.129-.6.129.536.45.836.364.836.364.257 1.094-.429 1.587-.429 1.587-.129-.815-.622-1.2-.622-1.2l.022.536c-.322-.193-.58-.772-.58-.772-.214.814.365 1.522.365 1.522l-.536-.043c.472 1.094 1.222.75 1.222.75-.064.773.193 2.038.193 2.038-.107-.128-1.243-1.2-1.243-1.2-.043.428.364.986.364.986-.214-.043-.836-.515-.836-.515.064.686.965 1.137.965 1.137-.343.043-1.008-.343-1.008-.343.386 1.65 1.801.922 1.801.922l.109 2.233a17.832 17.832 0 0 1-1.631-.475c-.922-.321-1.523-2.294-1.523-2.294l-.343.793c-.086-1.673-.193-2.573-.193-2.573l-.493.536c.471-1.265.857-2.38.857-2.38l-.6.257C5.96 9.36 5.917 8.738 5.917 8.738c-.236.364-.858.729-.858.729.15-.58.622-1.18 1.2-1.222a7.808 7.808 0 0 0 1.223-.215c-.386-.043-.579-.214-.579-.214 1.673-.15 1.844-.6 1.844-.6-.257.063-1.05-.022-1.05-.022.664-.365 1.758-.708 1.758-.708-1.351-.236-2.51.536-2.51.536.194-.365.537-.772.537-.772-1.651.73-2.423 2.38-2.423 2.38-.193-.686.264-1.5.264-1.5-1.172.657-1.058 3.237-1.058 3.237-.3-.814-.279-1.63-.279-1.63-.686.966-.15 3.26-.15 3.26-.3-.257-.45-.9-.45-.9-.257 1.587.965 3.216.965 3.216-.558-.3-1.351-1.33-1.351-1.33.515 1.995 2.338 2.66 2.338 2.66C4.33 15.257 3.9 15.58 3.9 15.58c.707.15 1.394.579 1.951.986.558.408 1.308.494 1.973.58.275.035.503.08.679.123-.364.178-.614.55-.614.982h2.187c0-.416-.232-.777-.573-.962.22-.047.512-.103.83-.144.665-.085 1.36-.262 1.973-.579.665-.343 1.244-.836 1.952-.986 0 0-.429-.322-1.437.064Z"/></g><defs><clipPath id="a"><path fill="#fff" d="M0 0h36v24H0z"/></clipPath></defs></svg>