<svg xmlns="http://www.w3.org/2000/svg" width="18" height="12" fill="none" viewBox="0 0 36 24"><g clip-path="url(#a)"><path fill="#FF4B55" d="M36 0H0v23.992h36V-.001Z"/><path fill="#FFE15A" d="M36 5.997H0v11.997h36V5.997Z"/><path fill="#FF4B55" d="M11 12.53a.5.5 0 0 0-.5-.5H9v-1.5a.499.499 0 0 0-.5-.5H6v2.5a.499.499 0 0 0 .5.5H8v2a.5.5 0 0 0 .5.5 2.5 2.5 0 0 0 2.5-2.5v-.5Z"/><path fill="#FD823D" d="M8.5 12.5H6v.5a2.5 2.5 0 0 0 2.5 2.5v-3Z"/><path fill="#F0F0F0" d="M4 10.109h1v5.502H4v-5.502ZM12 10.109h1v5.502h-1v-5.502ZM8.5 10H11V12.5H8.5V10Z"/><path fill="#FD823D" d="M11 8.5H6a1 1 0 0 0 .999 1H10a1 1 0 0 0 1-1Z"/></g><defs><clipPath id="a"><path fill="#fff" d="M0 0h36v23.995H0z"/></clipPath></defs></svg>