<svg xmlns="http://www.w3.org/2000/svg" width="18" height="12" fill="none" viewBox="0 0 36 24"><g clip-path="url(#a)"><path fill="#FF4B55" d="M0 0h36v23.989H0V-.001Z"/><path fill="#FFE15A" d="M0 0h36v15.992H0V0Z"/><path fill="#73AF00" d="M0 0h36v7.996H0V-.001Z"/><path fill="#0052B4" d="M18 19.99a7.998 7.998 0 0 0 7.999-7.996A7.998 7.998 0 0 0 18 3.998a7.997 7.997 0 1 0 0 15.992Z"/><path fill="#FFE15A" d="m18 5.597-.28.863 1.156 3.557h-1.542l-.173.533h4.943l.734-.533h-3.401L18 5.597Z"/><path fill="#FFE15A" d="M24.086 10.017h-.907l-3.028 2.2-.476-1.467h-.56l1.527 4.7.734.533-1.051-3.234 3.76-2.732Z"/><path fill="#FFE15A" d="m21.761 17.17-.28-.863-3.027-2.199 1.247-.906-.173-.533-4 2.905-.28.862L18 14.438l3.761 2.731Z"/><path fill="#FFE15A" d="m14.239 17.17.734-.534 1.156-3.557 1.247.905.454-.329-4-2.905h-.907l2.752 2-1.436 4.42Z"/><path fill="#FFE15A" d="m11.914 10.017.734.534h3.742l-.476 1.465.453.33 1.528-4.7-.28-.863-1.052 3.234h-4.649Z"/></g><defs><clipPath id="a"><path fill="#fff" d="M0 0h36v23.995H0z"/></clipPath></defs></svg>