<svg xmlns="http://www.w3.org/2000/svg" width="18" height="12" fill="none" viewBox="0 0 36 24"><g clip-path="url(#a)"><path fill="#FF4B55" d="M36 0H0v23.996h36V-.001Z"/><path fill="#73AF00" d="M36 0v4.036l-10.935 6.117-3.296 1.845 3.296 1.844L36 19.959v4.037h-.337l-15.818-8.85L18 14.111l-1.845 1.035-15.818 8.85H0V19.97l10.935-6.128 3.296-1.845-3.296-1.844L0 4.025V-.001h.338l15.817 8.85L18 9.883l1.845-1.034 15.818-8.85H36Z"/><path fill="#F0F0F0" d="M36 10.153v3.689H19.845v10.154h-3.69V13.842H0v-3.689h16.155V.011h3.69v10.142H36Z"/></g><defs><clipPath id="a"><path fill="#fff" d="M0 0h36v23.995H0z"/></clipPath></defs></svg>