<svg xmlns="http://www.w3.org/2000/svg" width="18" height="12" fill="none" viewBox="0 0 36 24"><g clip-path="url(#a)"><path fill="#82AFFF" d="M0 0h36v23.992H0V-.001Z"/><path fill="#0052B4" d="M0 0v11.996h18V0H0Z"/><path fill="#F0F0F0" fill-rule="evenodd" d="M0 0v1.442l6.837 4.556L0 10.555v1.441h2.163L9 7.44l6.836 4.556H18v-1.441l-6.837-4.557L18 1.442V0h-2.163L9 4.557 2.163 0H0Z" clip-rule="evenodd"/><path fill="#FF4B55" d="m0 11.996 6-3.999h1.342l-6 4H0ZM0 0l6 3.999H4.658L0 .894V0Zm10.658 3.999 6-4H18l-6 4h-1.342ZM18 11.996l-6-3.999h1.342L18 11.102v.894Z"/><path fill="#464655" d="M9 0v11.996V0ZM0 5.998h18H0Z"/><path fill="#F0F0F0" d="M11 11.997H7v-4H0V4h7V0h4v4h7v3.998h-7v3.999Z"/><path fill="#464655" d="M9 0v11.996V0ZM0 5.998h18H0Z"/><path fill="#FF4B55" d="M10.2 11.997H7.8V7.198H0v-2.4h7.8V0h2.4V4.8H18v2.4h-7.8v4.798Z"/><path fill="#F0F0F0" d="M31.64 6.33v7.29c0 .23-.02.44-.07.65-.43 1.99-2.74 3.23-3.93 3.74-.32.14-.55.22-.65.26-.1-.04-.34-.12-.66-.26-1.19-.52-3.5-1.75-3.93-3.74-.05-.21-.07-.42-.07-.65V6.33h9.31Z"/><path fill="#FF4B55" d="M27.64 9.67v3.29h4v.66c0 .23-.02.44-.07.65h-3.93v3.74c-.32.14-.55.22-.65.26-.1-.04-.34-.12-.66-.26v-3.74H22.4c-.05-.21-.07-.42-.07-.65v-.66h4V9.67h-4V6.33h9.31v3.34h-4Z"/><path fill="#FFE15A" d="M25.2 6.947a.554.554 0 0 0-.26-.303c.094.245-.254 1.112-.64.917-.369-.274-.578-.38-.953-.163-.7.422-.073.886.31.31l.72.325c-.033.099-.099.25-.099.25.112.06.283.04.283.04-.072.079-.079.356-.079.356-.19.066-.415.29-.415.29-.237-.109-.758-.513-1.04-.198-.207.468.955.494.955.494.268-.073.915-.376.915-.376l.369-.145c1.734.756 2.927-.975 3.569-.709-.182.143-1.062.145-.448.576.285.591-.669-.024-.815.307-.28.63 2.268.491 1.258-.404.343.053.303-.307.303-.307.145.32.545.395.545.395l.008-.215c.33.456.86.07.86.07.536.692-.517-.018-.368.76.043.226 1.322-.217 1.05-.558 0 0-.228-.159-.253-.327-.043-.626-1.183.128-1.304-.523 1.02-.173.686-1.405-.777-.83-1.152.28-2.039.235-2.594-.223-.178.777.572.75.572.75-.032-.059-.002-.184-.002-.184.899.45 2.105-.265 2.925-.226.294.088.1.608-.348.443-.761-.419-3.089.98-3.777.281-.153-.374.351-.619.43-.614-.15-.145-.426-.066-.426-.066.03-.32-.079-.443-.079-.443-.25.04-.395.25-.395.25Z"/><path fill="#73AF00" d="M24.43 10.949c-.053-.486.731-.794.981-.837-.47.008-.958-.04-1.107.777-1.01-1.367-.54-.542-.125.136-.856-.29-.185.626-.276.936.276-.136-.096-1.273.46-.455-.04-.434.367-.515.44.096.084-.096-.04-.73-.373-.653Z"/><path fill="#73AF00" d="M25.592 10.949c.202-.118.336.232.336.232.06-.619-.497-.53-.673-.123-.23-.513-.501-.504-.607-.406 1.111.268-.102 1.475.32 1.682.029-.304.413-.343.453.03.085-.049.102-.58-.217-.541.135-.355.56.078.56.108-.039-.646-.626-.42-.172-.982ZM22.784 11.931c0-.03.424-.463.56-.108-.32-.038-.303.492-.217.54.04-.372.424-.333.453-.029.422-.207-.791-1.414.32-1.682-.106-.098-.377-.107-.607.406-.177-.407-.734-.496-.673.123.567-.642.505.227.164.75ZM29.623 11.515c-.156-.012-.588.344-.714.887-.563-.199 1.536-2.144-.498-.593-.451-.53 2.475-1.36-.258-.875 0 0 .726-1.05 1.62-.075 0 0 .799-1.062 1.477.044 0 0-.877-.362-1.297.044 0 0 .9-.244.829.8 0 0-.355-.62-.93-.538.402.113 1.046 1.856-.229.306Z"/><path fill="#DDD" d="M23.49 14.932c1.047-.134-.068 1.004.809 1.398 1.206.223.405 1.07 1.5.557-1.71-1.088-.144-.692.008-2.242-.238.275-1.437-.048-1.247.733-.297-.497-.466-1.016-1.07-.446Z"/><path fill="#FFE15A" d="M29.78 15.78c-.263-.425-.675-.784-1.11-.68-.03-1.22 2.41.14 1.11.68Z"/><path fill="#73AF00" d="M28.23 16.68c-.34-.98-.01-1.48.44-1.58.39-.07.87.17 1.07.68h.01c0 .01.01.03.01.04.32.89-1.17.99-1.53.86Z"/></g><defs><clipPath id="a"><path fill="#fff" d="M0 0h36v23.995H0z"/></clipPath></defs></svg>