<svg xmlns="http://www.w3.org/2000/svg" width="18" height="12" fill="none" viewBox="0 0 36 24"><g clip-path="url(#a)"><path fill="#0052B4" d="M36 0H0v23.996h36V0Z"/><path fill="#F0F0F0" d="m15.708 11.998.057-.065-.058.065Z"/><path fill="#F0F0F0" d="M18 0v2.148l-3.176 1.764H18v4.173h-4.156L18 10.394v1.604h-1.876l-5.167-2.87v2.87H7.043V8.583L.896 11.998H0V9.85l3.176-1.765H0V3.912h4.156L0 1.603V0h1.876l5.167 2.87V0h3.913v3.415L17.105 0H18Z"/><path fill="#FF4B55" d="M10.125 0h-2.25v4.874H0v2.25h7.875v4.874h2.25V7.124H18v-2.25h-7.875V0Z"/><path fill="#FF4B55" d="M10.957 8.085 18 11.998v-1.106l-5.052-2.807h-1.992ZM5.052 8.085 0 10.892v1.107l7.043-3.914H5.052ZM12.948 3.913 18 1.106V0l-7.043 3.913h1.991ZM7.043 3.913 0 0v1.106l5.052 2.807h1.991Z"/><path fill="#0052B4" d="M30.98 7.23v5.59c0 .11 0 .23-.01.37-.01.24-.04.53-.09.83-.04.25-.1.52-.19.79-.09.28-.2.57-.36.86-.11.23-.25.45-.42.67-.16.22-.35.44-.57.65-.52.48-1.2.89-2.09 1.19-.86-.29-1.53-.69-2.03-1.14-.23-.21-.43-.43-.6-.65-.18-.24-.34-.5-.46-.75-.16-.3-.28-.6-.36-.9-.09-.27-.14-.54-.19-.79-.04-.31-.07-.6-.07-.84-.01-.11-.01-.2-.01-.29V7.23h7.45Z"/><path fill="#DDD" d="M28.881 8.63c-.463-.062-2.23.171-2.583-.204C26 8 25 7 24.69 8.164c-.573-.178-1.06.533-.349.699.19.006.588-.067.582.232.019.653-.201 1.895.699 2.063v.732h.465l.175-.699h2.154l.233.233v.466h.232v-.699h.233v.699h.233v-.764c.42-.157.169-1.479.233-1.798a.7.7 0 0 0-.699-.698Z"/><path fill="#73AF00" d="m24.69 11.657.466 1.397h4.191l.466-1.397H24.69Z"/><path fill="#F0F0F0" d="M30.97 13.19c-.01.24-.04.53-.09.83-.19.06-.39.11-.58.11-.49 0-.98-.32-1.46-.32-.49 0-.98.32-1.47.32s-.98-.32-1.47-.32-.98.32-1.47.32c-.27 0-.55-.1-.82-.18-.04-.31-.07-.6-.07-.84.29.09.59.21.89.21.49 0 .98-.32 1.47-.32s.98.32 1.47.32.98-.32 1.47-.32c.48 0 .97.32 1.46.32.22 0 .44-.06.67-.13ZM30.69 14.81c-.09.28-.2.57-.36.86h-.03c-.49 0-.98-.32-1.46-.32-.49 0-.98.32-1.47.32s-.98-.32-1.47-.32-.98.32-1.47.32c-.09 0-.18-.01-.27-.03-.16-.3-.28-.6-.36-.9.21.06.42.12.63.12.49 0 .98-.32 1.47-.32s.98.32 1.47.32.98-.32 1.47-.32c.48 0 .97.32 1.46.32.13 0 .26-.02.39-.05ZM29.91 16.34c-.16.22-.35.44-.57.65-.17-.05-.33-.09-.5-.09-.49 0-.98.32-1.47.32s-.98-.32-1.47-.32c-.23 0-.45.07-.68.14-.23-.21-.43-.43-.6-.65.43-.07.85-.31 1.28-.31.49 0 .98.32 1.47.32s.98-.32 1.47-.32c.35 0 .71.17 1.07.26Z"/><path fill="#FD823D" d="M27.368 12.588h-.233v3.959h.233v-3.959Z"/><path fill="#FFE15A" d="M27.95 13h-1.398v.921h1.398V13Z"/><path fill="#FD823D" d="M28.92 12.588h-.233v2.736h.233v-2.736Z"/><path fill="#FFE15A" d="M29.502 13h-1.397v.921h1.397V13Z"/><path fill="#FD823D" d="M25.806 12.588h-.233v2.717h.233v-2.717Z"/><path fill="#FFE15A" d="M26.388 13h-1.397v.921h1.397V13Z"/><path fill="#FD823D" d="M28.416 15.15c.02 1.51-2.35 1.51-2.329 0 0 0-1.704-.287-2.04-.357l-.052.228 1.111.303c.084 1.682 3.192 2.852 4.187.291h.752v-.583l-1.63.117Z"/><path fill="#F0F0F0" d="M30.977 7.233v5.588c0 1.164-.233 4.191-3.726 5.355-3.492-1.164-3.725-4.19-3.725-5.355V7.233H30.977ZM31.21 7h-7.917v5.821c0 2.761 1.38 4.741 3.885 5.576l.073.025.074-.025c2.505-.835 3.885-2.815 3.885-5.576V7Z"/><path fill="#FD823D" d="M27.251 19.34c-1.713 0-3.303-.573-4.251-1.535l.663-.654c.777.788 2.119 1.258 3.588 1.258 1.47 0 2.812-.47 3.589-1.258l.663.654c-.948.961-2.538 1.536-4.252 1.536Z"/></g><defs><clipPath id="a"><path fill="#fff" d="M0 0h36v23.996H0z"/></clipPath></defs></svg>