<svg xmlns="http://www.w3.org/2000/svg" width="18" height="12" fill="none" viewBox="0 0 36 24"><g clip-path="url(#a)"><path fill="#82AFFF" d="M36 0H0v23.988h36V0Z"/><path fill="#F0F0F0" d="m18.687 17.933.426-1.312-1.113.81-1.113-.81.426 1.312-1.113.81h1.374L18 20.051l.426-1.308H19.8l-1.113-.81ZM24.272 12.9l1.307-.427-1.307-.426v-1.373l-.81 1.112-1.313-.426.81 1.113-.81 1.113 1.313-.427.81 1.113V12.9ZM12.538 11.786l-.81-1.112v1.373l-1.307.426 1.307.426v1.373l.81-1.113 1.313.427-.81-1.113.81-1.113-1.313.426ZM18 4.896l-.426 1.308H16.2l1.113.81-.426 1.312L18 7.516l1.113.81-.426-1.312 1.113-.81h-1.374L18 4.896Z"/></g><defs><clipPath id="a"><path fill="#fff" d="M0 0h36v23.995H0z"/></clipPath></defs></svg>