<svg xmlns="http://www.w3.org/2000/svg" width="32" height="32" fill="none"><mask id="a" width="32" height="22" x="0" y="5" mask-type="alpha" maskUnits="userSpaceOnUse"><path fill="#F0F0F0" d="M30 5.333H2a2 2 0 0 0-2 2v17.334a2 2 0 0 0 2 2h28a2 2 0 0 0 2-2V7.333a2 2 0 0 0-2-2Z"/></mask><g mask="url(#a)"><path fill="#F0F0F0" d="M30 5.333H2a2 2 0 0 0-2 2v17.334a2 2 0 0 0 2 2h28a2 2 0 0 0 2-2V7.333a2 2 0 0 0-2-2Z"/><path fill="#FF4B55" d="M18 5.333h-4V14H0v4h14v8.666h4V18h14v-4H18V5.333Z"/><path fill="#0052B4" d="M24.612 19.71 32 23.815V19.71h-7.388ZM19.478 19.71 32 26.666V24.7l-8.98-4.99h-3.542ZM28.665 26.666l-9.187-5.104v5.104h9.187Z"/><path fill="#F0F0F0" d="M19.478 19.71 32 26.666V24.7l-8.98-4.99h-3.542Z"/><path fill="#FF4B55" d="M19.478 19.71 32 26.666V24.7l-8.98-4.99h-3.542Z"/><path fill="#0052B4" d="M5.646 19.71 0 22.847V19.71h5.646ZM12.522 20.594v6.072H1.593l10.929-6.072Z"/><path fill="#FF4B55" d="M8.98 19.71 0 24.7v1.966l12.522-6.956H8.98Z"/><path fill="#0052B4" d="M7.388 12.29 0 8.185v4.105h7.388ZM12.522 12.29 0 5.333V7.3l8.98 4.99h3.542ZM3.335 5.333l9.187 5.104V5.333H3.335Z"/><path fill="#F0F0F0" d="M12.522 12.29 0 5.333V7.3l8.98 4.99h3.542Z"/><path fill="#FF4B55" d="M12.522 12.29 0 5.333V7.3l8.98 4.99h3.542Z"/><path fill="#0052B4" d="M26.354 12.29 32 9.153v3.137h-5.646ZM19.478 11.405V5.333h10.929l-10.929 6.072Z"/><path fill="#FF4B55" d="M23.02 12.29 32 7.3V5.333L19.478 12.29h3.541Z"/></g></svg>