<svg xmlns="http://www.w3.org/2000/svg" width="18" height="12" fill="none" viewBox="0 0 36 24"><g clip-path="url(#a)"><path fill="#FF4B55" d="M0 0h36v23.992H0V-.001Z"/><path fill="#5E7C24" d="M2.36 3.358h31.28v17.275H2.36V3.358Z"/><path fill="#FFE15A" d="M2.36 3.358h31.28L2.36 20.633h31.28L2.36 3.358Z"/><path fill="#FF4B55" d="M4.42 12.03c.36.673 1.06 1.4 1.673 1.66.014-.68-.233-1.554-.56-2.254l-1.113.593Z"/><path fill="#FFE15A" d="M3.807 9.73c.52 1.086-1.354 3.685 1.773 4.292-.387-.527-.633-1.393-.54-2.093.653.247 1.347.98 1.627 1.54.82-2.973-2.1-2.793-2.86-3.74Z"/><path fill="#FF4B55" d="M18 14.875a2.88 2.88 0 1 0 0-5.76 2.88 2.88 0 0 0 0 5.76Z"/><path fill="#FFE15A" d="m18.94 12.302 1.573-1.12-1.933.014-.58-1.84-.58 1.84-1.933-.013 1.573 1.12-.613 1.825L18 12.982l1.553 1.146-.613-1.826ZM10 .12l-.347 1.086-1.14-.007.934.66-.367 1.08.92-.673.92.673-.367-1.08.934-.66-1.14.007L10 .12ZM18 .12l-.347 1.086-1.14-.007.934.66-.367 1.08.92-.673.92.673-.367-1.08.934-.66-1.14.007L18 .12ZM25.447 1.86l-.367 1.08.92-.674.92.673-.367-1.08.934-.66-1.14.007L26 .12l-.347 1.087-1.14-.007.934.66ZM10.347 21.84 10 20.753l-.347 1.087-1.14-.007.934.66-.367 1.08.92-.674.92.674-.367-1.08.934-.66-1.14.007ZM18.347 21.84 18 20.753l-.347 1.087-1.14-.007.934.66-.367 1.08.92-.674.92.674-.367-1.08.934-.66-1.14.007ZM26.347 21.84 26 20.753l-.347 1.087-1.14-.007.934.66-.367 1.08.92-.674.92.674-.367-1.08.934-.66-1.14.007Z"/></g><defs><clipPath id="a"><path fill="#fff" d="M0 0h36v23.995H0z"/></clipPath></defs></svg>