<svg xmlns="http://www.w3.org/2000/svg" width="18" height="12" fill="none" viewBox="0 0 36 24"><g clip-path="url(#a)"><path fill="#F0F0F0" d="M0 0h36v24H0V0Z"/><path fill="#FF4B55" d="M15.6 0h4.8v24h-4.8V0ZM0 9.6h36v4.8H0V9.6ZM30.656 18.356c-.608.124-1.224.2-1.84.228.032-.616.108-1.232.228-1.84a6.623 6.623 0 0 1-1.688 0c.124.608.2 1.224.228 1.84a12.991 12.991 0 0 1-1.84-.228c.072.56.072 1.128 0 1.688.608-.124 1.224-.2 1.84-.228a12.994 12.994 0 0 1-.228 1.84 6.623 6.623 0 0 1 1.688 0c-.124-.608-.2-1.224-.228-1.84.616.032 1.232.108 1.84.228a6.277 6.277 0 0 1 0-1.688ZM8.416 18.584c.032-.616.108-1.232.228-1.84a6.623 6.623 0 0 1-1.688 0c.124.608.2 1.224.228 1.84a12.991 12.991 0 0 1-1.84-.228c.072.56.072 1.128 0 1.688.608-.124 1.224-.2 1.84-.228a12.994 12.994 0 0 1-.228 1.84 6.623 6.623 0 0 1 1.688 0c-.124-.608-.2-1.224-.228-1.84.616.032 1.232.108 1.84.228a6.623 6.623 0 0 1 0-1.688c-.608.124-1.224.2-1.84.228ZM30.656 3.956c-.608.124-1.224.2-1.84.228.032-.616.108-1.232.228-1.84a6.623 6.623 0 0 1-1.688 0c.124.608.2 1.224.228 1.84a12.991 12.991 0 0 1-1.84-.228c.072.56.072 1.128 0 1.688.608-.124 1.224-.2 1.84-.228a12.991 12.991 0 0 1-.228 1.84 6.623 6.623 0 0 1 1.688 0c-.124-.608-.2-1.224-.228-1.84.616.032 1.232.108 1.84.228a6.277 6.277 0 0 1 0-1.688ZM8.416 4.184c.032-.616.108-1.232.228-1.84a6.623 6.623 0 0 1-1.688 0c.124.608.2 1.224.228 1.84a12.991 12.991 0 0 1-1.84-.228c.072.56.072 1.128 0 1.688.608-.124 1.224-.2 1.84-.228a12.991 12.991 0 0 1-.228 1.84 6.623 6.623 0 0 1 1.688 0c-.124-.608-.2-1.224-.228-1.84.616.032 1.232.108 1.84.228a6.623 6.623 0 0 1 0-1.688c-.608.124-1.224.2-1.84.228Z"/></g><defs><clipPath id="a"><path fill="#fff" d="M0 0h36v24H0z"/></clipPath></defs></svg>