<svg xmlns="http://www.w3.org/2000/svg" width="18" height="12" fill="none" viewBox="0 0 36 24"><g clip-path="url(#a)"><path fill="#FF4B55" d="M36 0H0v23.996h36V0Z"/><path fill="#F0F0F0" d="M36 0H0v16.076h36V0Z"/><path fill="#FF4B55" d="M24.825 8.828V7.586h-1.241V4.483h.62V3.24H20.48v1.242h.621v3.103H19.24V3.241h.62V2h-3.724v1.241h.621v4.345h-1.862V4.483h.62V3.24h-3.723v1.242h.62v3.103H11.17v1.242h.62v4.965h-.62v1.242h13.655v-1.242h-.62V8.828h.62Z"/><path fill="#464655" d="M19.239 14.414h-2.483V11.93a1.241 1.241 0 1 1 2.483 0v2.483ZM17.998 5.724a.62.62 0 0 0-.621.62v1.863h1.241V6.345a.62.62 0 0 0-.62-.62ZM22.342 6.345a.62.62 0 0 0-.62.62v1.242h1.241V6.966a.62.62 0 0 0-.62-.621ZM13.653 6.345a.62.62 0 0 0-.62.62v1.242h1.24V6.966a.62.62 0 0 0-.62-.621ZM22.963 14.414H20.48v-1.862a1.241 1.241 0 0 1 2.483 0v1.862ZM15.515 14.414h-2.483v-1.862a1.241 1.241 0 1 1 2.483 0v1.862Z"/><path fill="#FFE15A" d="M19.704 16.586a.31.31 0 0 0-.138-.258l-1.258-.839v-.263l1.07-.535a.31.31 0 1 0-.278-.555l-1.102.551-1.103-.55a.31.31 0 1 0-.277.554l1.07.535v.263l-1.26.839a.31.31 0 0 0 0 .516l1.26.84v2.626h-1.242v.476a.31.31 0 0 0 .584.145h.657v.62h-.662a.31.31 0 0 0-.579.156v.465h1.241v.31a.31.31 0 1 0 .621 0V17.684l1.258-.838a.31.31 0 0 0 .139-.259Zm-1.706.558-.837-.558.837-.558.837.558-.837.558Z"/></g><defs><clipPath id="a"><path fill="#fff" d="M0 0h36v23.996H0z"/></clipPath></defs></svg>