<svg xmlns="http://www.w3.org/2000/svg" width="18" height="12" fill="none" viewBox="0 0 36 24"><g clip-path="url(#a)"><path fill="#F0F0F0" d="M36 0H0v23.992h36V-.001Z"/><path fill="#82AFFF" d="M36 20.5 5.162 0H0v3.415l30.954 20.577H36V20.5Z"/><path fill="#0052B4" d="M17.797 18.306c-3.609 0-3.491-3.393-3.491-3.393v-5.21h6.981v5.21s.122 3.393-3.49 3.393Z"/><path fill="#FAC586" d="M17.636 13.394h-1.227s-.121 1.096.824 1.428l.201.1v.131s-.347.312-.045.669l.05.11.056.177v.286a1.883 1.883 0 0 1-1.049 1.513v.06h2.68v-.06a1.883 1.883 0 0 1-1.05-1.513v-.287l.056-.175.05-.111c.302-.357-.045-.669-.045-.669v-.13l.201-.1c.945-.333.825-1.429.825-1.429h-1.527Z"/><path fill="#F0F0F0" d="M17.796 13.33a.783.783 0 1 0 0-1.566.783.783 0 0 0 0 1.566ZM15.975 11.031h-.488v-.488h-.432v.488h-.488v.433h.488v.487h.432v-.487h.488v-.433M21.046 11.031h-.488v-.488h-.433v.488h-.488v.433h.488v.487h.433v-.487h.488v-.433M18.476 10.418h-.488v-.487h-.432v.487h-.488v.433h.488v.488h.432v-.488h.488v-.433ZM15.975 13.143h-.488v-.488h-.432v.488h-.488v.432h.488v.488h.432v-.488h.488v-.432ZM21.046 13.143h-.488v-.488h-.433v.488h-.488v.432h.488v.488h.433v-.488h.488v-.432ZM15.975 15.275h-.488v-.488h-.432v.488h-.488v.433h.488v.487h.432v-.487h.488v-.433ZM21.046 15.275h-.488v-.488h-.433v.488h-.488v.433h.488v.487h.433v-.487h.488v-.433Z"/><path fill="#FF4B55" d="M21.153 6.077a.663.663 0 0 0-.44-.329c-.603-.127-1.77-.342-2.831-.343v-.453h.227v-.226h-.226v-.227h-.227v.227h-.226v.226h.226v.453h.002c-1.061 0-2.229.216-2.83.344a.662.662 0 0 0-.441.328.692.692 0 0 0-.045.573l.48 1.324c.012.033.042.05.066.073l.164.982h5.436l.16-.965a.22.22 0 0 0 .07-.09l.48-1.324a.693.693 0 0 0-.045-.573ZM19.152 7.67h-1.155V5.871c.515.033 1.056.201 1.34.305.032.027.088.178.052.35l-.237 1.144ZM16.15 6.527a.51.51 0 0 1 .04-.345c.295-.11.838-.278 1.354-.311v1.8h-1.156l-.238-1.144Zm-1.382-.032a.24.24 0 0 1 .015-.198.209.209 0 0 1 .139-.105c.215-.046.52-.102.851-.157a.975.975 0 0 0-.066.584l.218 1.051h-.732l-.425-1.175Zm5.578 1.175h-.732l.219-1.051a.975.975 0 0 0-.066-.584c.331.055.635.11.85.156a.21.21 0 0 1 .14.106.24.24 0 0 1 .015.198l-.425 1.175Z"/></g><defs><clipPath id="a"><path fill="#fff" d="M0 0h36v23.995H0z"/></clipPath></defs></svg>