<svg xmlns="http://www.w3.org/2000/svg" width="18" height="12" fill="none" viewBox="0 0 36 24"><g clip-path="url(#a)"><path fill="#FF4B55" d="M0 0h36v23.992H0V-.001Z"/><path fill="#F0F0F0" d="M0 0h36v15.994H0V0Z"/><path fill="#464655" d="M18.018 15.174h-.046c-.09-.289-.415-.282-.791-.275-.338.006-.688.013-.907-.202-.14-.137-.208-.346-.208-.64 0-1.384-.01-3.905-.01-3.93l.024-.025h3.83l.024.024v4.01c0 .267-.063.457-.192.583-.212.205-.56.194-.898.183-.373-.012-.726-.023-.826.272Zm-.672-.325c.29 0 .546.03.65.253.133-.271.482-.26.85-.248.327.01.665.021.862-.17.12-.116.178-.295.178-.547V10.15h-3.782c.001.263.01 2.596.01 3.907 0 .28.063.478.193.606.205.2.545.194.873.188l.166-.002Z"/><path fill="#A36D56" d="M17.96 11.618h.18c-.01.09-.018.177-.025.262.159-.152.275-.202.275-.202l.12.1c-.435.222-.412.537-.374 1.072l.004.058.005.129c.007.185.015.401.055.61.031.148.077.286.118.411.051.156.096.293.102.41.01.13-.15.06-.15.06s-.033.032-.093.024c-.146.15-.23.026-.252-.013-.163.169-.233 0-.25-.042a.09.09 0 0 0-.004-.007l.013.035c-.17.08-.194-.078-.184-.098.37-.75.53-2.4.19-2.58l.02-.16c.116.036.225.177.246.205l.004-.274Z"/><path fill="#73AF00" d="M18.55 10.938c.06-.07.06-.07.17-.07.02-.15.27-.15.29.04.2-.04.24.08.16.2.19-.05.36 0 .31.22.34.09.21.33.06.38-.02.15-.16.2-.35.14-.24.17-.38.11-.49-.06-.27.04-.29-.02-.41-.17-.21.09-.25.09-.43-.02-.01.14-.06.1-.15.09.01.18-.06.26-.22.2.12.25-.19.36-.34.15-.14.01-.15-.03-.22-.08-.06.2-.28.17-.32.06-.28-.04-.25-.19-.02-.2.02-.16.16-.13.25-.11.01-.1.07-.08.12-.06-.03-.07-.01-.11.08-.13-.13-.17-.05-.23.08-.29-.07-.16.05-.15.14-.16-.01-.17.04-.2.22-.22-.02-.06.01-.11.11-.11-.06-.17.02-.209.2-.18.03-.247.56-.13.52.21.15.02.2.05.24.17Z"/><path fill="#FFE15A" d="m19.985 9.824.2.1.01.221.19-.122.2.098-.01-.222.18-.123-.2-.1-.01-.222-.19.122-.2-.098.02.222-.19.124ZM16.005 9.824l-.2.1-.01.221-.19-.122-.2.098.02-.222-.19-.123.2-.1.02-.222.18.122.2-.098-.01.222.18.124ZM19.085 9.637l.21.054.06.213.16-.16.21.052-.06-.213.16-.162-.22-.053-.06-.214-.16.16-.21-.052.06.214-.15.161ZM16.915 9.637l-.22.054-.06.213-.16-.16-.21.052.06-.213-.15-.162.21-.053.06-.214.16.16.22-.052-.07.214.16.161ZM18.145 9.564l.22.01.1.197.12-.188.22.01-.1-.199.12-.188-.22-.01-.11-.197-.12.188-.22-.009.1.198-.11.188ZM17.855 9.564l-.22.01-.11.197-.12-.188-.22.01.1-.199-.12-.188.23-.01.1-.197.12.188.22-.009-.1.198.12.188Z"/><path fill="#73AF00" d="M0 0h36v7.997H0V-.001Z"/><path fill="#0052B4" d="M0 0v23.992l9-11.996L0-.001Z"/></g><defs><clipPath id="a"><path fill="#fff" d="M0 0h36v23.995H0z"/></clipPath></defs></svg>