<svg xmlns="http://www.w3.org/2000/svg" width="18" height="12" fill="none" viewBox="0 0 36 24"><g clip-path="url(#a)"><path fill="#0052B4" d="M36 0H0v23.996h36V0Z"/><path fill="#F0F0F0" d="m15.708 11.998.057-.065-.058.065Z"/><path fill="#F0F0F0" d="M18 0v2.148l-3.176 1.764H18v4.173h-4.156L18 10.394v1.604h-1.876l-5.167-2.87v2.87H7.043V8.583L.896 11.998H0V9.85l3.176-1.765H0V3.912h4.156L0 1.603V0h1.876l5.167 2.87V0h3.913v3.415L17.105 0H18Z"/><path fill="#FF4B55" d="M10.125 0h-2.25v4.874H0v2.25h7.875v4.874h2.25V7.124H18v-2.25h-7.875V0Z"/><path fill="#FF4B55" d="M10.957 8.085 18 11.998v-1.106l-5.052-2.807h-1.992ZM5.052 8.085 0 10.892v1.107l7.043-3.914H5.052ZM12.948 3.913 18 1.106V0l-7.043 3.913h1.991ZM7.043 3.913 0 0v1.106l5.052 2.807h1.991Z"/><g clip-path="url(#b)"><path fill="#FAC586" d="M27.087 7.141a4.985 4.985 0 0 0-.501-.318.465.465 0 0 1-.172-.623c.11-.208.372-.281.308-.086-.064.196-.132.436 0 .457.132.02.095-.26.217-.248.122.012-.122.452 0 .464.122.013.086-.39.22-.342.135.048.11.403 0 .428-.11.024.014.183.093.268.08.085-.054.085-.165 0Zm.625 0c.106-.081.27-.183.502-.318a.465.465 0 0 0 .171-.623c-.11-.208-.371-.281-.308-.086.063.196.132.436 0 .457-.132.02-.095-.26-.218-.248-.122.012.123.452 0 .464-.122.013-.085-.39-.22-.342-.134.048-.11.403 0 .428.111.024-.012.183-.09.269-.08.084.054.084.163-.001Z"/><path fill="#A36D56" d="M27.291 7.826c.072-.273-.016-.538-.228-.456-.212.08-.408-.049-.375-.115.033-.065.278-.26.603-.26.326 0 .75.179.717.26-.032.082-.391.155-.391.155s.05.318.652.318c.604 0 1.109.147.995.88-.113.733-.147.831-.244.8-.097-.033-.114-.278-.065-.49.05-.212-.081-.505-.147-.293-.066.212-.197.62-.36.651-.162.032.066-.62.05-.766-.017-.146-.392-.114-.409.115-.016.228.03.603-.107.7-.137.099-.153-.228-.137-.455.015-.228-.147-.587-.163-.277-.017.31-.033.7-.18.75-.146.048 0-.376-.048-.636s-.244-.571-.163-.881Z"/><path fill="#82AFFF" d="M30.171 10.887s.319-.841.347-1.073c-.676.13-.899 1.216-1.11 1.644.553.366 1.435-.317 1.572-.585-.403-.079-.809.014-.809.014ZM26.513 10.887s-.319-.841-.346-1.073c.676.13.898 1.216 1.11 1.644-.554.366-1.435-.317-1.572-.585.402-.079.808.014.808.014Z"/><path fill="#F0F0F0" d="M29.075 10.945c1.793-2.308-3.253-2.308-1.46 0 .82 1.05-1.768 1.9.73 1.9s-.09-.85.73-1.9Z"/><path fill="#82AFFF" d="M29.83 12.61v1.73c0 .15-.02.38-.11.63-.06.19-.16.4-.3.6-.01.02-.02.03-.03.05-.09.11-.19.21-.31.31-.02.02-.04.03-.06.05-.14.11-.31.21-.51.3-.02.01-.03.02-.05.03a.37.37 0 0 1-.11.05c-.01 0-.03-.01-.04-.02-.05-.02-.08-.04-.12-.06-.18-.08-.34-.17-.48-.28-.03-.02-.06-.05-.09-.07-.11-.09-.21-.19-.29-.29-.01-.01-.02-.02-.02-.03-.16-.21-.26-.42-.33-.62-.09-.26-.11-.5-.11-.65v-1.73h.1l.19-.01 1.18 3.32c0 .01.01.01.01 0l1.18-3.32.22.01h.08Z"/><path fill="#73AF00" d="m29.53 12.6-1.18 3.32c0 .01-.01.01-.01 0l-1.18-3.32c.4 0 .87.02 1.19.21.31-.19.79-.21 1.18-.21Z"/><path fill="#F0F0F0" d="M24.948 13.354c.205-1.01-.09-1.724.612-1.847.222-.038.784.077.696.366-.321.676-.36.711.16 1.48.422.625.23 2.552-.147 2.8-.058.09-.053-1.113-.269-1.112-.819.727-.579 1.743.6 1.858-.812.533-3.015-.683-2.532-2.005.406-.599.775-.796.88-1.54ZM30.796 11.92c.694.303 1.602 4.02.623 4.507-1.664.017-1.076-3.777-.623-4.506Z"/><path fill="#464655" d="M30.684 11.92c1.544-2.066 2.55 4.618.723 4.617 0 0 .352-2.933-.294-.627-1.206-.993.335-3.11-.428-3.99Z"/><path fill="#FD823D" d="M30.796 11.921c.072-.378-.611-.018-.648.08-.037.098.575.305.648-.08ZM30.873 16.328c-.451-.01-.843.014-.297.233-.761.567 1.98-.194.297-.233Z"/><path fill="#FFE15A" d="M24.912 18.648s.443.527.452.667c1.19-1.764 4.225-2.314 5.956-.123.23-.304.468-.626.468-.626-1.822-2.38-5.448-2.084-6.876.082Z"/></g></g><defs><clipPath id="a"><path fill="#fff" d="M0 0h36v23.996H0z"/></clipPath><clipPath id="b"><path fill="#fff" d="M24 6h9v14h-9z"/></clipPath></defs></svg>