<svg xmlns="http://www.w3.org/2000/svg" width="18" height="12" fill="none" viewBox="0 0 36 24"><path fill="#F0F0F0" d="M36 0H0v23.995h36V0Z"/><path fill="#82AFFF" d="M36 0H24v23.996h12V0ZM12 0H0v23.996h12V0Z"/><path fill="#73AF00" d="M19.48 8.09v.539c1.2.55 2.03 1.77 2.03 3.18 0 1.94-1.57 3.51-3.51 3.51-1.94 0-3.51-1.57-3.51-3.51 0-1.41.83-2.63 2.03-3.18v-.54a3.996 3.996 0 0 0-2.53 3.72c0 2.21 1.8 4.01 4.01 4.01s4.01-1.8 4.01-4.01c0-1.69-1.05-3.14-2.53-3.72Z"/><path fill="#DDD" d="M14.768 8h-.124l5.519 5.791.293-.293L14.768 8Z"/><path fill="#DDD" d="M21.422 8h.124l-5.519 5.791-.293-.293L21.422 8Z"/><path fill="#DDD" d="m16.156 11.683-.017.017c1.143 1.187 3.373 3.555 3.382 3.061l-3.365-3.078Z"/><path fill="#DDD" d="m19.842 11.732.017.017c-1.142 1.187-3.372 3.555-3.382 3.061l3.365-3.078Z"/><path fill="#73AF00" d="M18.183 8.444a.28.28 0 0 1-.02.105c3.058 1.267 1.55 5.629.206 7.088 0 0 .471-.923.896-1.922a10.682 10.682 0 0 1-1.27 1.549c1.013-1.167 1.438-2.149 1.62-2.92l-.498.678c2.052-3.943-1.098-2.542-1.381-4.352l-.3-.124.186-.094c-.015-.368.566-.376.56-.008Z"/><path fill="#FFE15A" d="M18.61 10.22c.068.27.194.555.32.84.187.42.374.84.374 1.214a.373.373 0 0 1-.374.374h-2.241a.374.374 0 1 1 0-.747h.32c-.069-.27-.195-.556-.322-.84-.186-.421-.372-.841-.372-1.215 0-.206.167-.374.373-.374h2.242a.374.374 0 0 1 0 .748h-.32Z"/><path fill="#FAC586" d="M19.898 15.29a.188.188 0 0 1-.265 0l-.274-.275a.188.188 0 0 1 0-.265.188.188 0 0 1 .265 0l.274.274a.188.188 0 0 1 0 .265ZM16.14 15.29a.188.188 0 0 0 .265 0l.274-.275a.188.188 0 0 0 0-.265.188.188 0 0 0-.265 0l-.274.274a.188.188 0 0 0 0 .265Z"/><path fill="#A36D56" d="m21.413 14.568-.492.491-.528-.527a.696.696 0 0 1 0-.984l1.02 1.02ZM14.722 14.528l.492.492.527-.528a.696.696 0 0 0 0-.984l-1.02 1.02Z"/></svg>