<svg xmlns="http://www.w3.org/2000/svg" width="18" height="12" fill="none" viewBox="0 0 36 24"><g clip-path="url(#a)"><path fill="#FF4B55" fill-rule="evenodd" d="M0 0h36V23.99H0V0Z" clip-rule="evenodd"/><path fill="#0052B4" fill-rule="evenodd" d="M1.09 1.09h33.818V22.9H1.091V1.09Z" clip-rule="evenodd"/><path fill="#57DFD7" d="M18 5.79c-2.359 1.241-3.95 4.197-3.95 6.207s1.591 4.966 3.95 6.207c2.36-1.241 3.95-4.197 3.95-6.207S20.36 7.031 18 5.79Z"/><path fill="#73AF00" d="M18.51 9.872c.38-.201 1.031-.422 1.77-.15 0 0-.711-.794-1.7-.148.266-.322.666-.721 1.098-.832 0 0-.86-.322-1.381.826.1-.579.082-1.49-.85-2.02 0 0 .521 1.12.573 2.049a.934.934 0 0 0-.252-.504c-.493-.515-.922-.558-.922-.558s.684.758 1.02 1.475c-.193-.232-.535-.528-1.084-.51-1.287.043-1.566.815-1.566.815.534-.225 1.38-.336 2.037-.281-.848.15-1.149 1.205-1.149 1.205.68-.849 1.423-.986 1.72-1.007-.542.449-.509 1.273-.509 1.273.126-.464.613-.993.851-1.23.64.692.715 1.47.715 1.47s.14-.235.076-.71c-.061-.45-.343-.746-.559-.92 1.13.156 1.867.976 1.867.976-.37-1.078-1.294-1.219-1.755-1.22Z"/><path fill="#FD823D" d="m16.74 13.497.569-.983 4.674-.103-.31 1.293-4.933-.207Z"/><path fill="#0052B4" d="M14.221 13.239c.469 1.838 1.872 3.962 3.78 4.965 1.906-1.003 3.31-3.127 3.779-4.966H14.22Z"/><path fill="#FFE15A" d="M14.897 15.1s1.354-.066 2.167.268c.203.083.23.357.046.478-.396.26-.972.71-.972 1.117L14.897 15.1ZM17.276 17.583c-.052-.517.406-.893 1.035-1.138.814-.316.368-.82-.04-1.15-.485-.394.143-.505 2.781-.556l-1.293 2.017L18 18.204l-.724-.62Z"/><path fill="#FF4B55" d="m18 18.555-.144-.076c-2.462-1.295-4.116-4.397-4.116-6.482 0-2.084 1.654-5.187 4.116-6.481L18 5.439l.145.077c2.462 1.294 4.116 4.397 4.116 6.481 0 2.085-1.654 5.187-4.116 6.482l-.145.076Zm0-12.411c-2.183 1.233-3.64 3.99-3.64 5.853 0 1.863 1.457 4.62 3.64 5.854 2.184-1.233 3.64-3.991 3.64-5.854S20.184 7.377 18 6.144Z"/><path fill="#A36D56" d="M19.32 15.54a.154.154 0 0 1-.083-.024 2.79 2.79 0 0 1-1.327-2.407v-2.857a.155.155 0 0 1 .31 0v2.857c0 .89.43 1.672 1.182 2.144a.155.155 0 0 1-.083.287Z"/><path fill="#A36D56" d="M18.065 10.6a.34.34 0 1 0 0-.678.34.34 0 0 0 0 .679Z"/></g><defs><clipPath id="a"><path fill="#fff" d="M0 0h36v23.995H0z"/></clipPath></defs></svg>