<svg xmlns="http://www.w3.org/2000/svg" width="18" height="12" fill="none" viewBox="0 0 36 24"><g clip-path="url(#a)"><path fill="#F0F0F0" d="M36 0H0v23.992h36V-.001Z"/><path fill="#0052B4" d="M36 17.994H0v3.749h36v-3.75ZM21 11.996l1.5-2.598h-3L18 6.801l-1.5 2.597h-3l1.5 2.598-1.5 2.597h3L18 17.19l1.5-2.597h3L21 11.996Zm.071-1.773-.547.948-.548-.948h1.095Zm-1.024 1.773-1.023 1.772h-2.048l-1.023-1.772 1.023-1.773h2.048l1.023 1.773ZM18 8.45l.547.947h-1.094L18 8.451Zm-3.071 1.772h1.095l-.548.948-.547-.948Zm0 3.545.547-.948.548.948h-1.095ZM18 15.541l-.547-.948h1.094L18 15.54Zm2.524-2.72.547.947h-1.095l.548-.948ZM36 2.249H0v3.749h36v-3.75Z"/></g><defs><clipPath id="a"><path fill="#fff" d="M0 0h36v23.995H0z"/></clipPath></defs></svg>