<svg xmlns="http://www.w3.org/2000/svg" width="18" height="12" fill="none" viewBox="0 0 36 24"><g clip-path="url(#a)"><path fill="#FF4B55" d="M0 0h36v23.992H0V-.001Z"/><path fill="#F0F0F0" d="M18.937 8.648c-1.136.62-1.36 1.759-1.69 2.897-.344-1.138-1.691-1.594-1.691-3.187 0-1.986 2.338-2.959 3.817-2.959-.211 1.242.7 2.628-.436 3.249ZM21.506 12.22c-1.098-.686-2.183-.314-3.32-.035.8-.87.515-2.28 1.877-3.077 1.697-.993 3.697.573 4.437 1.871-1.166.436-1.895 1.929-2.994 1.242ZM14.625 10.154c.298 1.273 1.324 1.787 2.323 2.405-1.173.041-1.956 1.243-3.475.83-1.893-.513-2.214-3.054-1.83-4.502 1.128.528 2.685-.006 2.982 1.267ZM19.33 16.128c.217-1.289-.528-2.172-1.209-3.139 1.096.431 2.28-.36 3.519.626 1.543 1.23.857 3.692-.055 4.87-.835-.937-2.474-1.07-2.256-2.357ZM14.434 14.891c1.29.038 2.046-.834 2.894-1.652-.264 1.16.678 2.237-.108 3.617-.98 1.72-3.485 1.377-4.766.627.796-.968.69-2.63 1.98-2.592Z"/></g><defs><clipPath id="a"><path fill="#fff" d="M0 0h36v23.995H0z"/></clipPath></defs></svg>