<svg xmlns="http://www.w3.org/2000/svg" width="18" height="12" fill="none" viewBox="0 0 36 24"><g clip-path="url(#a)"><path fill="#0052B4" d="M36 0H0v23.992h36V-.001Z"/><path fill="#F0F0F0" d="M36 7.997H0v7.997h36V7.997Z"/><path fill="#0052B4" d="m24.966 13.45-.3-.921-.299.921H23.4l.783.57-.299.92.784-.569.783.57-.299-.921.784-.57h-.969ZM11.633 13.45l-.3-.921-.299.921h-.969l.784.57-.3.92.784-.569.784.57-.3-.921.784-.57h-.968ZM18.3 11.584l-.3-.921-.3.921h-.968l.784.57-.3.92.784-.569.784.57-.3-.922.784-.569H18.3ZM24.182 10.02l-.299.922.784-.57.783.57-.299-.921.784-.57h-.969l-.3-.921-.299.921H23.4l.783.57ZM11.333 8.53l-.299.921h-.969l.784.57-.3.921.784-.57.784.57-.3-.921.784-.57h-.968l-.3-.921Z"/></g><defs><clipPath id="a"><path fill="#fff" d="M0 0h36v23.995H0z"/></clipPath></defs></svg>