<svg xmlns="http://www.w3.org/2000/svg" width="18" height="12" fill="none" viewBox="0 0 36 24"><g clip-path="url(#a)"><path fill="#0052B4" d="M36 0H0v23.992h36V-.001Z"/><path fill="#F0F0F0" d="M36 0H0v15.994h36V0Z"/><path fill="#FF4B55" d="M36 0H0v7.997h36V-.001ZM15.089 8.02h-1.92v2.194h1.92V8.02ZM18.929 8.02h-1.92v2.194h1.92V8.02ZM17.01 10.214h-1.921v2.195h1.92v-2.195ZM22.77 8.02h-1.92v2.194h1.92V8.02ZM20.849 10.214h-1.92v2.195h1.92v-2.195Z"/><path fill="#F0F0F0" d="M17.01 8.02h-1.921v2.194h1.92V8.02ZM20.849 8.02h-1.92v2.194h1.92V8.02ZM15.089 10.214h-1.92v2.195h1.92v-2.195ZM18.929 10.214h-1.92v2.195h1.92v-2.195ZM22.77 10.214h-1.92v2.195h1.92v-2.195Z"/><path fill="#FF4B55" d="M18.929 12.409h-1.92v2.194h1.92V12.41Z"/><path fill="#FF4B55" d="M17.01 14.603h-1.921v2.195h1.92v-2.195ZM20.849 14.603h-1.92v2.195h1.92v-2.195Z"/><path fill="#F0F0F0" d="M17.01 12.409h-1.921v2.194h1.92V12.41ZM20.849 12.409h-1.92v2.194h1.92V12.41Z"/><path fill="#F0F0F0" d="M18.929 14.603h-1.92v2.195h1.92v-2.195Z"/><path fill="#FF4B55" d="M15.089 14.603V12.41h-1.92v1.783c0 .139.009.275.02.411h1.9Z"/><path fill="#F0F0F0" d="M22.748 14.603h-1.9v2.194h1.148c.417-.642.684-1.389.752-2.194ZM13.94 16.798h1.149v-2.195h-1.9c.069.805.335 1.552.752 2.195Z"/><path fill="#FF4B55" d="M20.849 14.603h1.899a4.82 4.82 0 0 0 .02-.411v-1.783h-1.92v2.194ZM15.089 18.025v-1.227H13.94c.307.474.697.888 1.148 1.227ZM21.996 16.797H20.85v1.228c.45-.339.84-.753 1.147-1.227Z"/><path fill="#F0F0F0" d="M15.088 18.025a4.77 4.77 0 0 0 1.92.87v-2.097h-1.92v1.227ZM18.929 18.895a4.77 4.77 0 0 0 1.92-.87v-1.227h-1.92v2.097Z"/><path fill="#FF4B55" d="M18.929 16.798h-1.92v2.098a4.82 4.82 0 0 0 1.92 0v-2.098Z"/><path fill="#82AFFF" d="M14.494 4.389a14.059 14.059 0 0 0-1.28-.138c-.338.277-.66.566-.964.866l.918 2.217a12.553 12.553 0 0 1 1.884-.61l-.558-2.335ZM19.134 4.025c-.375-.19-.764-.366-1.165-.526-.402.16-.79.336-1.166.526l.187 2.393a12.519 12.519 0 0 1 1.957 0l.187-2.393ZM23.687 5.117c-.305-.3-.626-.589-.963-.866-.436.027-.863.073-1.28.138l-.559 2.334c.64.153 1.269.357 1.884.611l.918-2.217Z"/><path fill="#0052B4" d="M16.803 4.025c-.4-.13-.812-.242-1.235-.338-.372.221-.73.455-1.074.702l.558 2.334a12.541 12.541 0 0 1 1.938-.305l-.187-2.393ZM21.443 4.389a14.566 14.566 0 0 0-1.074-.702c-.423.096-.835.209-1.235.338l-.187 2.393c.651.05 1.3.152 1.938.305l.558-2.334Z"/></g><defs><clipPath id="a"><path fill="#fff" d="M0 0h36v23.995H0z"/></clipPath></defs></svg>