<svg xmlns="http://www.w3.org/2000/svg" width="18" height="12" fill="none" viewBox="0 0 36 24"><g clip-path="url(#a)"><path fill="#FF4B55" d="M0 0h36v23.992H0V-.001Z"/><path fill="#0052B4" d="M0 0h36v11.996H0V-.001Z"/><path fill="#F0F0F0" d="M13.6 9h8.75v6.125H13.6V9Z"/><path fill="#0052B4" d="m21.2 12.469-.325-.813-.937.375.534-.534-.619-.619-1.75 1.75.747 1.184h2.188v-.874h-1.01l1.172-.47ZM15.478 11.497l.534.534-.937-.375-.325.813 1.172.469h-1.01v.874H17.1l.747-1.184-1.75-1.75-.619.619Z"/><path fill="#FFE15A" d="M17.538 9.438h.875v3.5h-.875v-3.5Z"/><path fill="#73AF00" d="m19.462 11.1-1.487-1.116-1.488 1.116-.524-.7 1.75-1.313a.437.437 0 0 1 .524 0l1.75 1.313-.524.7Z"/><path fill="#FF4B55" d="M17.1 12.5h1.75v2.625H17.1V12.5Z"/></g><defs><clipPath id="a"><path fill="#fff" d="M0 0h36v23.995H0z"/></clipPath></defs></svg>