<svg xmlns="http://www.w3.org/2000/svg" width="18" height="12" fill="none" viewBox="0 0 36 24"><g clip-path="url(#a)"><path fill="#F0F0F0" d="M36 0H0v23.992h36V0Z"/><path fill="#0052B4" d="M36 17.994H0v3.75h36v-3.75ZM21 11.996 22.5 9.4h-3L18 6.802l-1.5 2.597h-3l1.5 2.597-1.5 2.598h3L18 17.19l1.5-2.597h3L21 11.995Zm.071-1.772-.547.948-.548-.948h1.095Zm-1.024 1.772-1.023 1.773h-2.048l-1.023-1.773 1.023-1.772h2.048l1.023 1.772ZM18 8.451l.547.948h-1.094L18 8.451Zm-3.071 1.773h1.095l-.548.947-.547-.947Zm0 3.545.547-.948.548.948h-1.095ZM18 15.54l-.547-.947h1.094L18 15.54Zm2.524-2.72.547.948h-1.095l.548-.948ZM36 2.25H0v3.748h36V2.25Z"/></g><defs><clipPath id="a"><path fill="#fff" d="M0 0h36v23.996H0z"/></clipPath></defs></svg>