<svg xmlns="http://www.w3.org/2000/svg" width="18" height="12" fill="none" viewBox="0 0 36 24"><g clip-path="url(#a)"><path fill="#FF4B55" d="M36 0H0v23.989h36V-.001Z"/><path fill="#F0F0F0" d="m23.433 6.203-1.554 4.143-2.59-1.035-1.043-2.783a1.554 1.554 0 0 0-1.901-.943l-3.788 1.136-1.352-1.014a1.036 1.036 0 0 0-1.355.096l-.4.4 2.072 2.59 4.66-1.036.518 1.554-2.175 2.9a1.554 1.554 0 0 0 .31 2.175l2.901 2.175-.285 1.14a1.036 1.036 0 0 0 .677 1.233l.644.216 1.036-3.107-3.626-3.107 2.072-1.554 3.27 1.088a1.554 1.554 0 0 0 1.935-.894l1.527-3.82h.518a1.035 1.035 0 0 0 1.036-1.035v-.518h-3.107Z"/></g><defs><clipPath id="a"><path fill="#fff" d="M0 0h36v23.995H0z"/></clipPath></defs></svg>