<svg xmlns="http://www.w3.org/2000/svg" width="18" height="12" fill="none" viewBox="0 0 36 24"><g clip-path="url(#a)"><path fill="#FD823D" d="M36 0H0v23.992h36V-.001Z"/><path fill="#73AF00" d="M36 15.994H0v7.998h36v-7.998Z"/><path fill="#F0F0F0" d="M36 7.997H0v7.997h36V7.997Z"/><path fill="#0052B4" fill-rule="evenodd" d="M18 15c-1.654 0-3-1.346-3-3s1.346-3 3-3 3 1.346 3 3-1.346 3-3 3Zm-.875-5.28c.253-.097.526-.154.81-.161l-.073 1.577.034.343-.099-.33-.672-1.429Zm-.805.51c.2-.19.432-.347.687-.46l.534 1.484.164.304-.218-.267-1.167-1.062Zm-.55.777a2.45 2.45 0 0 1 .46-.687l1.061 1.167.268.218-.305-.164-1.485-.534Zm-.211.929c.007-.285.064-.558.161-.81l1.429.671.33.1-.343-.035-1.577.074Zm.161.939a2.429 2.429 0 0 1-.161-.81l1.577.073.343-.034-.33.099-1.429.672Zm.51.805a2.45 2.45 0 0 1-.46-.687l1.484-.534.305-.164-.268.218-1.062 1.167Zm.777.55a2.452 2.452 0 0 1-.687-.46l1.167-1.061.218-.267-.163.304-.535 1.485Zm.929.211a2.429 2.429 0 0 1-.81-.161l.671-1.429.1-.33-.035.343.074 1.577Zm.939-.161a2.429 2.429 0 0 1-.81.161l.073-1.577-.034-.343.099.33.672 1.429Zm.805-.51c-.2.19-.432.347-.687.46l-.534-1.484-.164-.304.218.267 1.167 1.062Zm.55-.777a2.45 2.45 0 0 1-.46.687l-1.061-1.167-.268-.218.305.164 1.485.534Zm.211-.929a2.429 2.429 0 0 1-.161.81l-1.429-.671-.33-.1.343.035 1.577-.074Zm-.161-.939c.097.253.154.526.161.81l-1.577-.073-.343.034.33-.099 1.429-.672Zm-.51-.805c.19.2.347.432.46.687l-1.484.534-.305.164.268-.218 1.062-1.167Zm-.777-.55c.255.113.487.27.687.46l-1.167 1.061-.218.267.163-.304.535-1.485Zm-.929-.211c.285.007.558.064.81.161l-.671 1.429-.1.33.035-.343-.074-1.577Z" clip-rule="evenodd"/><path fill="#F0F0F0" d="M18 12.459a.459.459 0 1 0 0-.918.459.459 0 0 0 0 .918Z"/></g><defs><clipPath id="a"><path fill="#fff" d="M0 0h36v23.995H0z"/></clipPath></defs></svg>