<svg xmlns="http://www.w3.org/2000/svg" width="18" height="12" fill="none" viewBox="0 0 36 24"><g clip-path="url(#a)"><path fill="#F0F0F0" d="M36 .003H0v23.985h36V.003Z"/><path fill="#0052B4" d="M30.233 1.336C28.194 1.336 26.155 0 24.116 0 22.078 0 20.04 1.336 18 1.336 15.961 1.336 13.922 0 11.883 0 9.845 0 7.806 1.336 5.768 1.336 3.845 1.336 1.922.174 0 .058V3.44c1.922.116 3.845 1.278 5.767 1.278 2.039 0 4.078-1.336 6.116-1.336 2.04 0 4.078 1.336 6.117 1.336 2.039 0 4.078-1.336 6.116-1.336 2.04 0 4.078 1.336 6.117 1.336 1.922 0 3.845-1.162 5.767-1.278V.058c-1.922.116-3.845 1.278-5.767 1.278ZM30.233 7.763c-2.039 0-4.078-1.336-6.117-1.336-2.038 0-4.077 1.336-6.116 1.336-2.039 0-4.078-1.336-6.117-1.336-2.038 0-4.077 1.336-6.116 1.336-1.922 0-3.845-1.161-5.767-1.278v3.383c1.922.116 3.845 1.277 5.767 1.277 2.039 0 4.078-1.335 6.116-1.335 2.04 0 4.078 1.335 6.117 1.335 2.039 0 4.078-1.335 6.116-1.335 2.04 0 4.078 1.335 6.117 1.335 1.922 0 3.845-1.161 5.767-1.277V6.485c-1.922.117-3.845 1.278-5.767 1.278ZM30.233 14.19c-2.039 0-4.078-1.335-6.117-1.335-2.038 0-4.077 1.335-6.116 1.335-2.039 0-4.078-1.335-6.117-1.335-2.038 0-4.077 1.335-6.116 1.335-1.922 0-3.845-1.161-5.767-1.277V16.295c1.922.116 3.845 1.278 5.767 1.278 2.039 0 4.078-1.336 6.116-1.336 2.04 0 4.078 1.336 6.117 1.336 2.039 0 4.078-1.336 6.116-1.336 2.04 0 4.078 1.336 6.117 1.336 1.922 0 3.845-1.162 5.767-1.278V12.913c-1.922.116-3.845 1.277-5.767 1.277ZM30.233 20.618c-2.039 0-4.078-1.336-6.117-1.336-2.038 0-4.077 1.336-6.116 1.336-2.039 0-4.078-1.336-6.117-1.336-2.038 0-4.077 1.336-6.116 1.336-1.922 0-3.845-1.162-5.767-1.278v3.383C1.922 22.839 3.845 24 5.767 24c2.039 0 4.078-1.335 6.116-1.335C13.924 22.665 15.962 24 18 24c2.039 0 4.078-1.335 6.116-1.335 2.04 0 4.078 1.335 6.117 1.335 1.922 0 3.845-1.161 5.767-1.277V19.34c-1.922.116-3.845 1.278-5.767 1.278Z"/><path fill="#0052B4" d="M18 0H0v11.995h18V0Z"/><path fill="#F0F0F0" d="M18 .003V2.15l-3.176 1.764H18v4.17h-4.156L18 10.393v1.603h-1.876l-5.167-2.869v2.87H7.043V8.581L.896 11.995H0V9.848l3.176-1.763H0V3.914h4.156L0 1.606V.003h1.876l5.167 2.869V.003h3.913v3.413L17.105.003H18Z"/><path fill="#FF4B55" d="M10.125.003h-2.25v4.872H0v2.248h7.875v4.872h2.25V7.123H18V4.875h-7.875V.003Z"/><path fill="#FF4B55" d="M10.957 8.085 18 11.995V10.89l-5.052-2.804h-1.992ZM5.052 8.085 0 10.889v1.106l7.043-3.91H5.052ZM7.043 3.913 0 .003v1.106l5.052 2.804h1.991ZM12.948 3.913 18 1.11V.003l-7.043 3.91h1.991Z"/><path fill="#A36D56" d="M27.477 20.751a.32.32 0 0 1-.32-.32V10.199h.64v10.234a.32.32 0 0 1-.32.32Z"/><path fill="#73AF00" d="M31.954 11.477c-.385-.39-2.477-.536-2.994-.614.317-.43 1.681-1.995 1.683-2.552-.548-.003-2.13 1.373-2.552 1.683-.08-.528-.222-2.6-.614-2.994-.39.385-.536 2.477-.614 2.994-.43-.317-1.995-1.68-2.552-1.683-.003.548 1.373 2.131 1.683 2.552-.528.08-2.6.222-2.994.614.385.39 2.477.537 2.994.614-.317.43-1.68 1.996-1.683 2.552.944-.249 2.729-1.65 3.166-2.526.437.875 2.223 2.278 3.166 2.526.004-.548-1.372-2.13-1.683-2.552.528-.08 2.6-.222 2.994-.614Z"/><path fill="#FFE15A" d="M28.87 15.202c-.288-.287-.903-.182-1.233-.098v-.269a.16.16 0 0 0-.32 0v.268c-.33-.083-.945-.188-1.232.099-.274.274-.076.934.113 1.394v.425c0 .117.095.213.213.213h2.133a.213.213 0 0 0 .212-.213v-.425c.189-.46.387-1.12.113-1.394Zm-.227.226c.122.122-.014.657-.235 1.166h-.771v-1.16c.36-.102.85-.162 1.006-.006Zm-2.332 0c.155-.156.647-.096 1.006.006v1.16h-.771c-.22-.509-.357-1.044-.235-1.166Z"/></g><defs><clipPath id="a"><path fill="#fff" d="M0 0h36v23.995H0z"/></clipPath></defs></svg>