<svg xmlns="http://www.w3.org/2000/svg" width="18" height="12" fill="none" viewBox="0 0 36 24"><g clip-path="url(#a)"><path fill="#FF4B55" d="M0 0h36v23.992H0V-.001Z"/><path fill="#F0F0F0" d="M0 7.997h36v15.995H0V7.997Z"/><path fill="#464655" d="M0 15.994h36v7.998H0v-7.998Z"/><path fill="#5E7C24" d="M21.51 10.5a.434.434 0 0 1-.123-.093c-.027-.038-.011-.04.102-.009.203.055.334.034.464-.076l.115-.097.134.069c.075.037.154.063.176.057.059-.015.18-.17.176-.224-.005-.067.052-.05.079.023.053.143-.025.306-.164.343-.068.018-.13.011-.233-.025-.126-.044-.147-.043-.21.005a.477.477 0 0 1-.517.026ZM22.012 10.04c-.05-.062-.109-.3-.09-.358.017-.05.034-.06.08-.046.08.025.1.08.087.269-.01.153-.032.193-.077.135ZM16.098 9.87c-.016.115.203.4.303.452-.068.03-.152.016-.213.05-.346.346-1.61 1.577-1.84 1.87.683.014 1.44-.008 2.081-.038 0-.464.44-.488.734-.657.152.24.532.22.58.58v1.545h-5.835c-.102.453-.512.8-1.082.657.176-.184.473-.248.58-.502.09-.558-.18-.902-.353-1.218.287-.105.331-.13.623-.327-.205.623.534.555 1.082.54.019-.211.008-.461-.154-.492.21-.076.245-.102.58-.386v.84c1.303 0 2.71-.01 4.04-.01 0-.263.07-.685-.138-.685-.198 0-.009.54-.163.54h-3.121l-.003-.534c.132-.132.116-.12 1.02-1.024.09-.09.724-.663 1.279-1.201ZM23.899 9.848c.217.117.39.28.657.347-.031.11-.13.155-.155.27v2.357c.298.066.36-.103.502-.193.039.377.28.747.27 1.043H23.9V9.848ZM22.198 11.11s.464-.392.464-.407v2.056h.334c0-.783-.01-1.578-.01-2.306.136-.136.401-.332.468-.47v3.683l-2.93.002c-.043-.765-.05-1.556.841-1.386v-.312c-.027-.054-.076.013-.087-.057.141-.141.19-.177.572-.512 0 .404.007 1.357.007 1.357h.338l.003-1.648Zm-1.1 1.629c.064.094.277.092.267-.066-.036-.131-.317-.081-.266.066Z"/><path fill="#5E7C24" d="M12.619 14.285a.179.179 0 1 0 0-.358.179.179 0 0 0 0 .358ZM18.14 9.851c.217.118.39.28.656.348-.03.11-.13.154-.155.27v2.357c.298.066.361-.103.503-.193.038.377.279.747.27 1.043H18.14V9.85Z"/></g><defs><clipPath id="a"><path fill="#fff" d="M0 0h36v23.995H0z"/></clipPath></defs></svg>