<svg xmlns="http://www.w3.org/2000/svg" width="18" height="12" fill="none" viewBox="0 0 36 24"><g clip-path="url(#a)"><path fill="#FF4B55" d="M35.998 0H0v23.995h35.998V0Z"/><path fill="#F0F0F0" d="M35.998 7.998H0v7.999h35.998V7.998Z"/><path fill="#73AF00" d="M36 0H0v7.998H36V0Z"/><path fill="#FF4B55" d="M18 9.62a.35.35 0 0 1-.647-.11.37.37 0 0 0 .648.35.37.37 0 0 0 .648-.35.351.351 0 0 1-.648.11Z"/><path fill="#FF4B55" d="m18 14.569-.2-.276-.003-.08a2.346 2.346 0 0 1-1.206-.065c.344.017.686-.036 1.006-.153a2.345 2.345 0 0 1-.441-3.855 2.572 2.572 0 0 0 .619 3.52l-.078-1.92v-1.512a.797.797 0 0 0 .304-.255c.078.11.182.197.303.255v1.511l-.078 1.921a2.57 2.57 0 0 0 .62-3.52 2.345 2.345 0 0 1-.442 3.855c.32.117.663.17 1.006.153a2.346 2.346 0 0 1-1.206.065l-.003.08-.2.276Z"/><path fill="#FF4B55" d="M20.373 12.858a1.964 1.964 0 0 1-.782.84l.004-.005a2.571 2.571 0 0 0-.51-3.6 1.964 1.964 0 0 1 1.288 2.765ZM15.628 12.858c.172.352.444.644.783.84l-.005-.005a2.572 2.572 0 0 1 .51-3.6 1.964 1.964 0 0 0-1.288 2.765Z"/><path fill="#F0F0F0" d="M0 7h1v1H0V7ZM1 16H0v1h1v-1ZM3 16H2v1h1v-1ZM4 16h1v1H4v-1ZM7 16H6v1h1v-1ZM8 16h1v1H8v-1ZM11 16h-1v1h1v-1ZM12 16h1v1h-1v-1ZM15 16h-1v1h1v-1ZM16 16h1v1h-1v-1ZM19 16h-1v1h1v-1ZM20 16h1v1h-1v-1ZM23 16h-1v1h1v-1ZM24 16h1v1h-1v-1ZM27 16h-1v1h1v-1ZM28 16h1v1h-1v-1ZM31 16h-1v1h1v-1ZM32 16h1v1h-1v-1ZM35 16h-1v1h1v-1ZM3 7H2v1h1V7ZM4 7h1v1H4V7ZM7 7H6v1h1V7ZM8 7h1v1H8V7ZM11 7h-1v1h1V7ZM12 7h1v1h-1V7ZM15 7h-1v1h1V7ZM16 7h1v1h-1V7ZM19 7h-1v1h1V7ZM20 7h1v1h-1V7ZM23 7h-1v1h1V7ZM24 7h1v1h-1V7ZM27 7h-1v1h1V7ZM28 7h1v1h-1V7ZM31 7h-1v1h1V7ZM32 7h1v1h-1V7ZM35 7h-1v1h1V7Z"/></g><defs><clipPath id="a"><path fill="#fff" d="M0 0h36v24H0z"/></clipPath></defs></svg>