<svg xmlns="http://www.w3.org/2000/svg" width="18" height="12" fill="none" viewBox="0 0 36 24"><g clip-path="url(#a)"><path fill="#F0F0F0" d="M36 0H0v23.989h36V-.001Z"/><path fill="#FF4B55" d="m36 1.554-15.668 10.44L36 22.435v1.554h-2.332L18 13.548 2.332 23.989H0v-1.554l15.668-10.441L0 1.554V-.001h2.332L18 10.44 33.668 0H36v1.555Z"/><path fill="#FFE15A" d="M20.367 2.623s-.25-.375-.624-.125c0 0 .433.312.14.64-.309.347-.735.007-.761-.241a.22.22 0 0 0-.017-.438.22.22 0 0 0-.076.425c-.053.213-.611.376-.772.024-.181-.397.105-.734.491-.687 0 0-.074-.491-.596-.285 0 0 .218-.562-.156-.936-.375.374-.156.936-.156.936-.523-.207-.597.285-.597.285.386-.047.673.29.492.687-.161.352-.72.19-.773-.024a.22.22 0 0 0-.075-.425.22.22 0 0 0-.017.438c-.027.248-.453.588-.762.24-.293-.327.14-.639.14-.639-.374-.25-.624.125-.624.125-.125-.5-.624-.375-.624-.375.5.624 1.248 2.028 1.248 2.028h3.495s.75-1.403 1.249-2.028c0 0-.5-.124-.625.375Z"/><path fill="#FF4B55" d="M19.802 4.277a5.968 5.968 0 0 0-3.604 0C15.253 8.004 18 9 18 9s2.747-.996 1.802-4.723Z"/></g><defs><clipPath id="a"><path fill="#fff" d="M0 0h36v23.995H0z"/></clipPath></defs></svg>