<svg xmlns="http://www.w3.org/2000/svg" width="18" height="12" fill="none" viewBox="0 0 36 24"><g clip-path="url(#a)"><path fill="#73AF00" d="M0 0h36v23.992H0V-.001Z"/><path fill="#F0F0F0" d="M0 0h36v15.994H0V0Z"/><path fill="#464655" d="M0 0h36v7.997H0V-.001Z"/><path fill="#FF4B55" d="M0 0v23.992l18-11.996L0-.001Z"/><path fill="#F0F0F0" d="m5.989 10.282.372.942.968-.296-.505.878.836.572-1.001.153.074 1.01-.744-.687-.744.687.074-1.01-1.002-.153.836-.572-.504-.878.968.296.372-.942Z"/></g><defs><clipPath id="a"><path fill="#fff" d="M0 0h36v23.995H0z"/></clipPath></defs></svg>