<svg xmlns="http://www.w3.org/2000/svg" width="18" height="12" fill="none" viewBox="0 0 36 24"><g clip-path="url(#a)"><path fill="#F0F0F0" d="M36 0H0v23.992h36V-.001Z"/><path fill="#73AF00" d="M36 16.794H0v7.198h36v-7.198Z"/><path fill="#FF4B55" d="M36 8.397H0v7.197h36V8.398Z"/><path fill="#464655" d="M36 0H0v7.197h36V0Z"/><path fill="#464655" d="m13.713 19.118.26.15L20.98 7.136c.41-.11.635-.5.86-.89.15-.259.75-1.298 1.01-2.648-1.04.9-1.64 1.94-1.79 2.199-.225.39-.45.78-.34 1.189l-7.007 12.132Z"/><path fill="#F0F0F0" d="m13.713 19.118.26.15L20.98 7.136c.41-.11.635-.5.86-.89.15-.259.75-1.298 1.01-2.648-1.04.9-1.64 1.94-1.79 2.199-.225.39-.45.78-.34 1.189l-7.007 12.132Z"/><path fill="#464655" d="m22.287 19.118-.26.15L15.02 7.136c-.41-.11-.635-.5-.86-.89a8.704 8.704 0 0 1-1.01-2.648c1.04.9 1.64 1.94 1.79 2.199.225.39.45.78.34 1.189l7.007 12.132Z"/><path fill="#F0F0F0" d="m22.287 19.118-.26.15L15.02 7.136c-.41-.11-.635-.5-.86-.89a8.704 8.704 0 0 1-1.01-2.648c1.04.9 1.64 1.94 1.79 2.199.225.39.45.78.34 1.189l7.007 12.132Z"/><path fill="#FF4B55" d="M15.15 15.595c.45 1.2 1.95 3.598 2.85 3.598.9 0 2.4-2.399 2.85-3.599V8.398c-.45-1.2-1.95-3.6-2.85-3.6-.9 0-2.4 2.4-2.85 3.6v7.197Z"/><path fill="#F0F0F0" d="M18 12.896c.331 0 .6-.403.6-.9s-.269-.9-.6-.9c-.331 0-.6.403-.6.9s.269.9.6.9Z"/><path fill="#F0F0F0" d="M18.15 12.873s.6 1.2.6 3.149c0 1.95-.6 3.149-.6 3.149v-6.298ZM17.85 12.873s-.6 1.2-.6 3.149c0 1.95.6 3.149.6 3.149v-6.298Z"/><path fill="#464655" d="M20.85 15.595c.45-1.2.75-2.4.75-3.6 0-1.199-.3-2.399-.75-3.598-.45 1.2-.75 2.399-.75 3.599 0 1.2.3 2.399.75 3.598ZM15.15 15.595c-.45-1.2-.75-2.4-.75-3.6 0-1.199.3-2.399.75-3.598.45 1.2.75 2.399.75 3.599 0 1.2-.3 2.399-.75 3.598Z"/><path fill="#F0F0F0" d="M18.15 11.118s.6-1.2.6-3.149-.6-3.149-.6-3.149v6.298ZM17.85 11.118s-.6-1.2-.6-3.149.6-3.149.6-3.149v6.298Z"/></g><defs><clipPath id="a"><path fill="#fff" d="M0 0h36v23.995H0z"/></clipPath></defs></svg>