<svg xmlns="http://www.w3.org/2000/svg" width="18" height="12" fill="none" viewBox="0 0 36 24"><g clip-path="url(#a)"><path fill="#FF4B55" d="M36 0H0v23.992h36V-.001Z"/><path fill="#FFE15A" fill-rule="evenodd" d="M18 7.928a4.063 4.063 0 0 0-3.162 1.506A6.95 6.95 0 0 1 18 10.52a6.95 6.95 0 0 1 3.162-1.085A4.063 4.063 0 0 0 18 7.928ZM18 4.5l.689 2.272 1.253-2.016.076 2.373 1.732-1.624-.54 2.311 2.093-1.12-1.12 2.094 2.312-.54-1.623 1.733 2.372.076-2.016 1.253 2.272.688-2.272.689 2.016 1.253-2.372.076 1.623 1.732-2.312-.54 1.12 2.094-2.093-1.12.54 2.312-1.732-1.624-.077 2.373-1.253-2.017L18 19.5l-.689-2.271-1.253 2.016-.076-2.373-1.733 1.624.54-2.312-2.093 1.12 1.12-2.093-2.311.54 1.623-1.732-2.372-.077 2.016-1.253-2.272-.689 2.272-.688-2.016-1.253 2.372-.077-1.623-1.732 2.312.54-1.12-2.093 2.093 1.12-.54-2.312 1.732 1.623.077-2.373 1.253 2.017L18 4.499Zm0 2.553a4.948 4.948 0 1 1 0 9.896 4.948 4.948 0 0 1 0-9.896Zm-3.611 3.067a6.253 6.253 0 0 1 2.99.85 6.995 6.995 0 0 0-.39.341 6.957 6.957 0 0 0-2.665-1.062c.02-.044.042-.087.065-.13Zm-.317.806a4.07 4.07 0 0 0 .917 3.815 6.974 6.974 0 0 1 1.5-2.908 6.248 6.248 0 0 0-2.417-.907Zm1.526 4.363c.146.107.3.204.46.291a6.972 6.972 0 0 1 1.46-2.932 6.46 6.46 0 0 0-.449-.4 6.262 6.262 0 0 0-1.47 3.04Zm1.124.578a4.067 4.067 0 0 0 2.557 0A6.261 6.261 0 0 0 18 13.176a6.257 6.257 0 0 0-1.278 2.69Zm3.22-.287c.16-.087.314-.185.46-.292a6.266 6.266 0 0 0-1.47-3.04 6.247 6.247 0 0 0-.448.4 6.981 6.981 0 0 1 1.459 2.932Zm1.07-.839a4.057 4.057 0 0 0 1.06-2.74c0-.373-.05-.732-.144-1.075a6.254 6.254 0 0 0-2.418.907 6.96 6.96 0 0 1 1.501 2.908Zm.665-4.492a6.955 6.955 0 0 0-2.666 1.063 7.019 7.019 0 0 0-.39-.341 6.256 6.256 0 0 1 2.99-.851c.023.042.045.085.066.129ZM18 11.384a6.451 6.451 0 0 0-.43.356c.148.123.292.252.43.386.139-.134.282-.263.431-.386a6.278 6.278 0 0 0-.43-.356Z" clip-rule="evenodd"/></g><defs><clipPath id="a"><path fill="#fff" d="M0 0h36v23.995H0z"/></clipPath></defs></svg>