<svg xmlns="http://www.w3.org/2000/svg" width="18" height="12" fill="none" viewBox="0 0 36 24"><g clip-path="url(#a)"><path fill="#0052B4" d="M0 0h36v23.992H0V-.001Z"/><path fill="#FF4B55" d="M0 5.998h36v11.996H0V5.998Z"/><path fill="#FF4B55" d="M21.428 13.891h-6.79l-.028-.029V11.25l.029-.029h6.79l.028.029v2.612l-.029.029Zm-6.76-.057H21.4v-2.556h-6.733v2.556Z"/><path fill="#F0F0F0" d="M24.759 15.27v-.73h-.242v-.486h-.241v-.486h-.241v-.487h-.725v-1.46l.242-.243v-.73h-.242v-.486h-.241v-.73h-.241v-.486h-.242v-.487h-.241v-.243h-.483v.243h-.241v.487h-.242v.486h-.241v.73h-.241v.487h-1.449v-.73h-.241v-.73h-.242v-.73h-.24v-.486h-.242v-.487h-.242v-.243h-.12V7h-.242v.243h-.12v.243h-.242v.487h-.241v.486h-.241v.73h-.242v.73h-.241v.73h-1.448v-.487h-.242v-.73h-.241v-.486h-.242v-.487h-.241v-.243h-.483v.243h-.241v.487h-.242v.486h-.241v.73h-.241v.487h-.242v.73l.242.243v1.46h-.724v.486h-.242v.486h-.241v.486h-.242v.73H11V16h14v-.73h-.241Z"/></g><defs><clipPath id="a"><path fill="#fff" d="M0 0h36v23.995H0z"/></clipPath></defs></svg>