<svg xmlns="http://www.w3.org/2000/svg" width="18" height="12" fill="none" viewBox="0 0 36 24"><g clip-path="url(#a)"><path fill="#FF4B55" d="M36 0H0v12.955h36V0Z"/><path fill="#FFE15A" d="M25.183 1s-1.862 1.598-5.524 1.74l-.713.78 2.635.09c-.1 0-.528.161-1.081.37-1.015.383-2.451.925-3.066.925-.951 0-2.104-.547-2.408-1.073h-.854a.436.436 0 0 1-.349-.174l-.08-.108a.127.127 0 0 1 .101-.203h.838s.526-.445 1.052-.182l.526.263.308.01c-.34-.302-1.053-.745-2.346-.92C11.522 2.15 11 1.343 11 1.343c.565.268 2.332.448 3.768.594.621.063 1.18.12 1.553.175.607.09.913.531 1.07.957.583-.615 1.507-1.46 2.248-1.524l.373-.032c1.493-.128 4.93-.422 5.17-.514ZM22.003 14.123 19.467 12.8l.75 2.708-1.696-2.265L17.992 16l-.52-2.758-1.704 2.26.759-2.706-2.54 1.315 1.887-2.116-2.874.11 2.642-1.109-2.638-1.116 2.873.119-1.88-2.122L16.532 9.2l-.75-2.708 1.697 2.265L18.008 6l.52 2.758 1.704-2.26-.759 2.706 2.54-1.315-1.887 2.116L23 9.895l-2.642 1.109 2.638 1.116-2.873-.119 1.88 2.122Z"/><path fill="#0052B4" d="M36 12.955v11.037H0V12.955H36Z"/><path fill="#F0F0F0" d="M0 15.413c1.922.116 3.845 1.277 5.767 1.277 2.039 0 4.078-1.335 6.116-1.335 2.04 0 4.078 1.335 6.117 1.335 2.039 0 4.078-1.335 6.116-1.335 2.04 0 4.078 1.335 6.117 1.335 1.922 0 3.845-1.16 5.767-1.277v2.206c-1.922.116-3.845 1.278-5.767 1.278-2.039 0-4.078-1.336-6.117-1.336-2.038 0-4.077 1.336-6.116 1.336-2.039 0-4.078-1.336-6.117-1.336-2.038 0-4.077 1.336-6.116 1.336-1.922 0-3.845-1.162-5.767-1.278v-2.206ZM0 11.058c1.922.116 3.845 1.277 5.767 1.277 2.039 0 4.078-1.335 6.116-1.335 2.04 0 4.078 1.335 6.117 1.335 2.039 0 4.078-1.335 6.116-1.335 2.04 0 4.078 1.335 6.117 1.335 1.922 0 3.845-1.16 5.767-1.277v2.207c-1.922.116-3.845 1.277-5.767 1.277-2.039 0-4.078-1.335-6.117-1.335-2.038 0-4.077 1.335-6.116 1.335-2.039 0-4.078-1.335-6.117-1.335-2.038 0-4.077 1.335-6.116 1.335-1.922 0-3.845-1.161-5.767-1.277v-2.207ZM0 19.6c1.922.116 3.845 1.277 5.767 1.277 2.039 0 4.078-1.335 6.116-1.335 2.04 0 4.078 1.335 6.117 1.335 2.039 0 4.078-1.335 6.116-1.335 2.04 0 4.078 1.335 6.117 1.335 1.922 0 3.845-1.16 5.767-1.277v2.206c-1.922.117-3.845 1.278-5.767 1.278-2.039 0-4.078-1.336-6.117-1.336-2.038 0-4.077 1.336-6.116 1.336-2.039 0-4.078-1.336-6.117-1.336-2.038 0-4.077 1.336-6.116 1.336-1.922 0-3.845-1.161-5.767-1.278V19.6Z"/></g><defs><clipPath id="a"><path fill="#fff" d="M0 0h36v23.995H0z"/></clipPath></defs></svg>