<svg xmlns="http://www.w3.org/2000/svg" width="18" height="12" fill="none" viewBox="0 0 36 24"><g clip-path="url(#a)"><path fill="#FFE15A" d="M36 0H0v23.992h36V-.001Z"/><path fill="#F0F0F0" d="M36 5.997H0v17.995h36V5.997Z"/><path fill="#FF4B55" d="M36 11.996H0v11.996h36V11.996Z"/><path fill="#0052B4" d="M36 17.994H0v5.998h36v-5.998Z"/><path fill="#73AF00" d="m0 23.992 18-11.996L0-.001v23.993Z"/><path fill="#F0F0F0" d="M10.98 11.996a4.857 4.857 0 0 1-5.808 4.765 4.86 4.86 0 0 1-3.542-6.625A4.859 4.859 0 0 1 9.557 8.56a4.86 4.86 0 0 1 1.423 3.436Z"/><path fill="#73AF00" d="M13.14 11.996a4.858 4.858 0 0 1-5.808 4.765 4.86 4.86 0 0 1-3.542-6.625 4.859 4.859 0 0 1 7.927-1.576 4.86 4.86 0 0 1 1.423 3.436Z"/><path fill="#F0F0F0" d="M6.344 15.195h.654l.202-.622.202.622h.654l-.53.384.203.622-.53-.384-.528.384.202-.622-.529-.384ZM6.344 12.877h.654l.202-.622.202.622h.654l-.53.384.203.622-.53-.384-.528.384.202-.622-.529-.384ZM6.344 10.558h.654l.202-.621.202.621h.654l-.53.385.203.622-.53-.385-.528.385.202-.622-.529-.385ZM6.344 8.24h.654l.202-.622.202.622h.654l-.53.385.203.621-.53-.384-.528.384.202-.621-.529-.385Z"/></g><defs><clipPath id="a"><path fill="#fff" d="M0 0h36v23.995H0z"/></clipPath></defs></svg>