<svg xmlns="http://www.w3.org/2000/svg" width="18" height="12" fill="none" viewBox="0 0 36 24"><g clip-path="url(#a)"><path fill="#73AF00" d="M36 0 26.392 6.4l-2.94 1.96-10.904 7.27-.564.371-1.816 1.212L0 23.992V-.001h36Z"/><path fill="#FF4B55" d="M36 0v23.992H0l10.168-6.778 2.38-1.583 10.904-7.27 2.94-1.96L36 0Z"/><path fill="#FFE15A" fill-rule="evenodd" d="M36 0v6.053L9.088 23.992H0v-6.054L26.912-.001H36Z" clip-rule="evenodd"/><path fill="#464655" fill-rule="evenodd" d="M36 0v4.326L6.492 23.992H0v-4.327L29.512 0H36Z" clip-rule="evenodd"/><path fill="#F0F0F0" d="m12.312 16.262.236-.632.612-1.655-2.032 1.356-1.916-1.512.66 2.351-2.032 1.356 1.764.072.676.028.66 2.351.848-2.287 2.44.1-1.916-1.528ZM26.16 7.033l.232-.632.612-1.655-2.032 1.351-1.916-1.511.66 2.351-2.032 1.356 1.764.072.676.028.66 2.351.848-2.287 2.44.1-1.912-1.524Z"/></g><defs><clipPath id="a"><path fill="#fff" d="M0 0h36v23.995H0z"/></clipPath></defs></svg>