<svg xmlns="http://www.w3.org/2000/svg" width="18" height="12" fill="none" viewBox="0 0 36 24"><g clip-path="url(#a)"><path fill="#F0F0F0" d="M0 0h36v23.992H0V-.001Z"/><path fill="#464655" d="m5.52 7.282 3.327-4.99.832.554-3.328 4.99-.832-.554Zm1.247.832 3.328-4.99.833.554-3.329 4.99-.832-.554Zm1.248.832 3.329-4.991.832.554L8.847 9.5l-.832-.554ZM23.824 19.482l3.328-4.991.833.555-3.329 4.99-.832-.554Zm1.248.832 3.329-4.991.832.554-3.329 4.991-.832-.554Zm1.248.831 3.329-4.99.832.554-3.329 4.99-.832-.554Z"/><path fill="#464655" d="m25.072 16.71 4.16 2.773-4.16-2.774Z"/><path fill="#F0F0F0" d="m25.211 16.501-.277.416 4.16 2.773.278-.416-4.16-2.773Z"/><path fill="#FF4B55" d="M13.008 8.668a6 6 0 0 1 9.984 6.655l-9.984-6.655Z"/><path fill="#0052B4" d="M13.008 8.668a5.998 5.998 0 1 0 9.984 6.655A3 3 0 1 0 18 11.996l-4.992-3.328Z"/><path fill="#FF4B55" d="M15.504 13.331a3 3 0 1 0 0-5.999 3 3 0 0 0 0 5.999Z"/><path fill="#464655" d="M8.847 21.7 5.52 16.71l.832-.556 3.328 4.991-.832.555Zm1.248-.832-3.328-4.99.832-.555 3.329 4.99-.833.555Zm1.249-.832-3.329-4.99.832-.555 3.329 4.99-.832.555ZM27.152 9.5l-3.328-4.99.832-.555 3.329 4.99-.832.555Zm1.249-.832-3.329-4.99.832-.555 3.329 4.99-.832.555Zm1.248-.831L26.32 2.846l.832-.555 3.329 4.991-.832.555Z"/><path fill="#464655" d="m8.223 18.511 1.248-.831-1.248.831Zm16.85-11.229 1.456-.97-1.457.97Zm2.704-1.802 1.248-.832-1.248.832Z"/><path fill="#F0F0F0" d="m8.362 18.72-.277-.417 1.248-.831.277.415-1.248.832Zm16.85-11.23-.278-.416 1.456-.97.277.416-1.456.97Zm2.703-1.802-.277-.416 1.248-.832.277.416-1.248.832Z"/></g><defs><clipPath id="a"><path fill="#fff" d="M0 0h36v23.995H0z"/></clipPath></defs></svg>