<svg xmlns="http://www.w3.org/2000/svg" width="18" height="12" fill="none" viewBox="0 0 36 24"><g clip-path="url(#a)"><path fill="#0052B4" d="M36 0H0v23.992h36V-.001Z"/><path fill="#F0F0F0" d="M36 3.997H0v15.994h36V3.997Z"/><path fill="#FF4B55" d="M36 4.666H0v14.662h36V4.666Z"/><path fill="#F0F0F0" d="M9.999 17.328a5.333 5.333 0 1 0 0-10.665 5.333 5.333 0 1 0 0 10.665Z"/><path fill="#FF4B55" d="m11.877 12.604 3.036-2.204H11.16L9.999 6.831l-1.158 3.57H5.085l3.039 2.204-1.161 3.568 3.036-2.204 3.039 2.204-1.161-3.568Z"/></g><defs><clipPath id="a"><path fill="#fff" d="M0 0h36v23.995H0z"/></clipPath></defs></svg>