<svg xmlns="http://www.w3.org/2000/svg" width="18" height="12" fill="none" viewBox="0 0 36 24"><g clip-path="url(#a)"><path fill="#F0F0F0" d="M0 0h36v23.992H0V0Z"/><path fill="#464655" d="m5.52 7.283 3.327-4.991.833.555-3.329 4.99-.832-.554Zm1.247.832 3.328-4.991.833.554L7.599 8.67l-.832-.554Zm1.248.831 3.329-4.99.832.554L8.847 9.5l-.832-.554ZM23.824 19.482l3.328-4.99.833.554-3.329 4.99-.832-.554Zm1.248.832 3.329-4.99.832.554-3.329 4.99-.832-.554Zm1.248.832 3.329-4.99.832.554-3.329 4.99-.832-.554ZM25.072 16.71l4.16 2.773-4.16-2.773Z"/><path fill="#F0F0F0" d="m25.211 16.502-.277.416 4.16 2.773.278-.416-4.16-2.773Z"/><path fill="#FF4B55" d="M13.008 8.669a6 6 0 0 1 9.984 6.654L13.008 8.67Z"/><path fill="#0052B4" d="M13.008 8.67a5.998 5.998 0 1 0 9.984 6.653A3 3 0 1 0 18 11.996L13.008 8.67Z"/><path fill="#FF4B55" d="M15.504 13.332a3 3 0 1 0 0-6 3 3 0 0 0 0 6Z"/><path fill="#464655" d="M8.847 21.7 5.52 16.71l.832-.555 3.329 4.99-.833.555Zm1.248-.831-3.328-4.991.832-.555 3.329 4.991-.833.555Zm1.249-.832-3.329-4.99.832-.555 3.329 4.99-.832.555ZM27.152 9.5l-3.328-4.99.832-.554 3.329 4.99-.832.555Zm1.249-.83-3.329-4.992.832-.554 3.329 4.99-.832.555Zm1.248-.833-3.329-4.99.832-.555 3.329 4.99-.832.555Z"/><path fill="#464655" d="m8.223 18.512 1.248-.832-1.248.832Zm16.85-11.23 1.456-.97-1.457.97Zm2.704-1.801 1.248-.832-1.248.832Z"/><path fill="#F0F0F0" d="m8.362 18.72-.277-.416 1.248-.832.277.416-1.248.832Zm16.85-11.23-.278-.415 1.456-.97.277.415-1.456.97Zm2.703-1.802-.277-.415 1.248-.832.277.416-1.248.831Z"/></g><defs><clipPath id="a"><path fill="#fff" d="M0 0h36v23.996H0z"/></clipPath></defs></svg>