<svg xmlns="http://www.w3.org/2000/svg" width="18" height="12" fill="none" viewBox="0 0 36 24"><g clip-path="url(#a)"><path fill="#73AF00" d="M36 0H0v23.992h36V-.001Z"/><path fill="#F0F0F0" d="M36 0H0v17.137h36V-.001Z"/><path fill="#FFE15A" d="m14.596 16.12.156.526a11.355 11.355 0 0 1 6.495 0l.157-.526a11.901 11.901 0 0 0-6.808 0Z"/><path fill="#FFE15A" d="M22.11 14.498a1.354 1.354 0 0 1-1.76-.756 1.302 1.302 0 0 1-2.189-.834V11.88a.428.428 0 0 1 .799-.202 1.011 1.011 0 1 0-1.92 0 .428.428 0 0 1 .799.202v1.03a1.302 1.302 0 0 1-2.19.833 1.353 1.353 0 0 1-2.047.598c.125 1.249 1.997.994 2.137-.22.588 1.032 1.88.737 2.26-.527h.003c.379 1.264 1.671 1.56 2.26.527.139 1.214 2.011 1.469 2.136.22-.09.065-.186.118-.288.158Z"/><path fill="#FFE15A" d="M16.589 15.126s-.133-.08-.408-.044c-.04-.178-.195-.331-.307-.408-.106.118-.182.335-.145.492a1.11 1.11 0 0 0-.38.165c.457.455.979.358 1.24-.205ZM18.632 15.062s-.117-.1-.395-.11c-.01-.182-.139-.358-.236-.452-.125.099-.235.3-.224.461-.139.008-.275.043-.402.102.377.523.908.512 1.257-.001ZM20.659 15.331s-.1-.118-.372-.172c.02-.181-.079-.376-.16-.484-.139.076-.28.258-.296.418a1.11 1.11 0 0 0-.413.035c.287.577.812.653 1.24.203ZM23.111 13.125l.504-.366h-.623l-.192-.592-.192.592h-.623l.504.366-.193.593.504-.367.504.367-.193-.593ZM13.392 12.76l-.192-.593-.192.592h-.623l.504.366-.193.593.504-.367.504.367-.193-.593.504-.366h-.623Z"/><path fill="#F0F0F0" d="M17.27 11.23a.686.686 0 0 1 .73.327.685.685 0 0 1 .73-.327.738.738 0 0 0-1.46 0Z"/><path fill="#FFE15A" d="m22.157 10.952.504.366-.193-.592.504-.366h-.623l-.192-.592-.192.592h-.623l.504.366-.193.592.504-.366ZM14.036 10.36l-.193-.592-.192.592h-.623l.504.366-.193.592.504-.366.504.366-.192-.592.503-.366h-.622ZM20.592 8.604 20.4 8.01l-.192.593h-.623l.504.366-.193.592.504-.366.504.366-.193-.592.504-.366h-.623ZM15.792 8.604 15.6 8.01l-.192.593h-.623l.504.366-.193.592.504-.366.504.366-.193-.592.504-.366h-.623ZM18.192 7.96 18 7.37l-.192.592h-.623l.504.366-.193.592.504-.366.504.366-.193-.592.504-.366h-.623Z"/><path fill="#FF4B55" d="M36 0H0v6.854h36V0Z"/></g><defs><clipPath id="a"><path fill="#fff" d="M0 0h36v23.995H0z"/></clipPath></defs></svg>