<svg xmlns="http://www.w3.org/2000/svg" width="18" height="12" fill="none" viewBox="0 0 36 24"><g clip-path="url(#a)"><path fill="#0052B4" d="M36 0H0v23.996h36V0Z"/><path fill="#F0F0F0" d="m15.708 11.998.057-.065-.058.065Z"/><path fill="#F0F0F0" d="M18 0v2.148l-3.176 1.764H18v4.173h-4.156L18 10.394v1.604h-1.876l-5.167-2.87v2.87H7.043V8.583L.896 11.998H0V9.85l3.176-1.765H0V3.912h4.156L0 1.603V0h1.876l5.167 2.87V0h3.913v3.415L17.105 0H18Z"/><path fill="#FF4B55" d="M10.125 0h-2.25v4.874H0v2.25h7.875v4.874h2.25V7.124H18v-2.25h-7.875V0Z"/><path fill="#FF4B55" d="M10.957 8.085 18 11.998v-1.106l-5.052-2.807h-1.992ZM5.052 8.085 0 10.892v1.107l7.043-3.914H5.052ZM12.948 3.913 18 1.106V0l-7.043 3.913h1.991ZM7.043 3.913 0 0v1.106l5.052 2.807h1.991Z"/><path fill="#FFE15A" d="M26.568 10.224c.376 0 .681-.396.681-.883 0-.488-.305-.883-.68-.883-.377 0-.681.395-.681.883 0 .487.304.883.68.883Z"/><path fill="#73AF00" d="M28.12 10.47c.08.06.14.12.18.19h-3.24c-.01-.11.01-.25.05-.42-.13-.28-.49-.22-.84-.46.03-.37.7-.47.97-.12.51-.37 1.86-.67 2.92.37.26.19.36.21.57.19-.19.24-.45.26-.61.25Z"/><path fill="#FFE15A" d="M29.922 15.643a3.659 3.659 0 0 1-3.402 2.324 3.659 3.659 0 0 1-3.401-2.324l-.8.313a4.52 4.52 0 0 0 4.201 2.872 4.52 4.52 0 0 0 4.202-2.872l-.8-.313Z"/><path fill="#FF4B55" d="M29.164 10.66h-5.328v1.672h5.328V10.66Z"/><path fill="#82AFFF" d="M23.836 12.563v2.284c0 2.039 2.664 2.664 2.664 2.664s2.664-.625 2.664-2.664v-2.284h-5.328Z"/><path fill="#F0F0F0" d="M26.5 13.783c-.666 0-.666.609-1.332.609s-.666-.61-1.332-.61v1.066c.666 0 .666.61 1.332.61s.666-.61 1.332-.61.666.61 1.332.61.666-.61 1.332-.61v-1.065c-.666 0-.666.609-1.332.609s-.666-.61-1.332-.61ZM26.5 11.65c-.666 0-.666.608-1.332.608s-.666-.608-1.332-.608v1.065c.666 0 .666.61 1.332.61s.666-.61 1.332-.61.666.61 1.332.61.666-.61 1.332-.61V11.65c-.666 0-.666.61-1.332.61s-.666-.61-1.332-.61Z"/></g><defs><clipPath id="a"><path fill="#fff" d="M0 0h36v23.996H0z"/></clipPath></defs></svg>