<svg xmlns="http://www.w3.org/2000/svg" width="18" height="12" fill="none" viewBox="0 0 36 24"><g clip-path="url(#a)"><path fill="#82AFFF" d="M0 0h36v23.992H0V-.001Z"/><path fill="#FFE15A" d="M27.781 10.813a.193.193 0 0 0-.252.104l-.01.027c-.146.34-.447.837-.751 1.305.283-.912.542-1.886.56-1.955a.193.193 0 0 0-.372-.1c-.132.473-.402 1.096-.652 1.624a20.67 20.67 0 0 0 .055-1.173.193.193 0 0 0-.184-.195c-.098.003-.193.074-.2.178-.247 3.393-3.511 4.91-3.83 5.05-.165.016-.94.104-1.643.348-.08.027-.147.055-.215.083a.198.198 0 0 0-.08-.013c-2.158.156-3.879-.73-5.115-2.626a9.263 9.263 0 0 1-1.23-2.951.193.193 0 1 0-.378.071c.007.042.136.698.49 1.562a8.092 8.092 0 0 1-.92-2.125c-.003-.01-.009-.017-.012-.026-.006-.013-.01-.027-.018-.038-.006-.008-.013-.014-.02-.021-.01-.011-.02-.022-.034-.03-.007-.005-.015-.008-.023-.011-.014-.007-.028-.014-.044-.017-.011-.002-.022 0-.034 0-.011 0-.022-.004-.034-.002-.003 0-.005.003-.007.003h-.007c-.01.003-.019.01-.028.013-.012.006-.024.01-.035.017-.01.007-.018.016-.027.025-.008.009-.017.017-.024.027-.007.01-.01.022-.015.034-.005.011-.01.022-.013.034-.002.012-.001.025-.001.038 0 .01-.003.02-.001.031 0 .005.002.009.003.014v.003c.12.702.404 1.43.66 1.984-.408-.462-.748-.995-.869-1.31-.003-.01-.01-.016-.015-.025-.007-.012-.013-.025-.023-.036l-.023-.019c-.012-.009-.023-.018-.037-.025-.008-.004-.018-.005-.027-.008-.014-.005-.028-.01-.043-.01-.012-.001-.024.002-.036.003-.01.002-.022 0-.033.004-.002 0-.003.002-.005.003l-.007.001c-.01.004-.017.012-.027.017-.01.007-.023.012-.032.02-.01.01-.016.02-.024.03-.007.01-.015.018-.02.03-.005.01-.008.023-.01.035-.004.012-.008.023-.009.035 0 .013.002.025.004.038.001.01 0 .021.003.032.21.676.714 1.48 1.109 2.047a4.463 4.463 0 0 1-.664-.638.193.193 0 0 0-.298.243 11.626 11.626 0 0 0 .931.986l-.39-.166a.192.192 0 0 0-.192.332c.039.028.73.544 1.327.85a1.53 1.53 0 0 1-.196-.007.193.193 0 0 0-.087.37c.014.006.196.081.421.161a.192.192 0 0 0-.023.345c.02.012.292.168.63.306a.193.193 0 0 0 .052.264c.058.04 1.366.928 2.894.928.1 0 .201-.004.303-.012a.192.192 0 1 0-.03-.384c-.96.078-1.885-.282-2.435-.557a.96.96 0 0 0 .125-.038.193.193 0 0 0-.069-.371c-.223-.005-.532-.114-.799-.23.101-.05.16-.099.165-.103a.193.193 0 0 0-.092-.338 2.457 2.457 0 0 1-.291-.072.404.404 0 0 0 .165-.16.193.193 0 0 0-.132-.274 1.152 1.152 0 0 1-.169-.054.193.193 0 0 0-.017-.288c-.004-.003-.153-.12-.38-.316a.192.192 0 0 0 .082-.3 13.72 13.72 0 0 1-.36-.48c.069.053.137.107.205.15a.194.194 0 0 0 .238-.023.193.193 0 0 0 .036-.05c.117.125.24.239.369.335.017.013.037.013.056.019.055.091.112.183.171.275 1.17 1.8 2.819 2.763 4.797 2.821-.182.111-.38.225-.693.347-.068.027-.129.053-.19.08a.183.183 0 0 0-.08.035c-.546.253-.772.503-.864.677-.091.174-.012.353.1.445a.197.197 0 0 0 .212.023.198.198 0 0 0 .11-.182c.008-.008.041-.036.146-.04.077-.006.238.011.426.026.167.014.37.022.582.04.493.044.815-.038 1.196-.095 1.063-.156.732-.627.415-.45-.355.198-1.208.19-1.794.15.09-.074.198-.146.285-.194a.193.193 0 0 0 .096-.204c-.01-.06-.054-.102-.106-.128.163-.082.296-.162.423-.239.22-.134.427-.261.805-.393.73-.253 1.575-.33 1.583-.331a.193.193 0 0 0 .056-.014c.03-.012 2.412-1.01 3.534-3.312a2.19 2.19 0 0 1-.047.189.192.192 0 0 0 .315.198c-.071.187-.136.334-.188.42a.193.193 0 0 0 .122.288 6.121 6.121 0 0 1-.262.358.192.192 0 0 0 .006.247c-.151.158-.285.288-.386.371a.193.193 0 0 0-.058.22 1.3 1.3 0 0 1-.234.113.192.192 0 0 0-.056.341 6.008 6.008 0 0 1-.387.09.193.193 0 0 0-.058.356c.006.004.072.04.172.084-.372.15-1.037.346-2.13.453a.193.193 0 0 0-.172.211c.01.106.102.18.211.173 2.072-.205 2.712-.724 2.738-.746.06-.05.084-.132.06-.206a.193.193 0 0 0-.095-.112c.662-.208.947-.44.961-.451a.193.193 0 0 0-.192-.328.77.77 0 0 1-.114.029 24.683 24.683 0 0 0 1.222-.906.193.193 0 0 0-.243-.299l-.094.074a5.294 5.294 0 0 1-.351.234 50.188 50.188 0 0 0 1.157-1.371l.039-.049a.192.192 0 0 0-.3-.242l-.048.06c-.152.185-.312.364-.47.532.514-.931.903-1.848.96-1.983l.006-.015a.192.192 0 0 0-.104-.252Z"/><path fill="#FFE15A" d="M20 14a4 4 0 1 0 0-8 4 4 0 0 0 0 8ZM1.968 16.736a.755.755 0 0 0-.228.56c0 .303.347.906.644 1.331l.15.216.149-.216c.427-.64.644-1.088.644-1.331a.794.794 0 0 0-.228-.56.803.803 0 0 0-1.13 0Zm.992.595a2.39 2.39 0 0 1-.33.691l-.101.144-.1-.144a2.344 2.344 0 0 1-.322-.691l-.005-.035c0-.113.045-.223.124-.302a.433.433 0 0 1 .605 0 .438.438 0 0 1 .134.302l-.005.035Z"/><path fill="#FFE15A" d="M3.93 1.62H1.12v20.76h2.82L3.93 1.62Zm-.62.36-.78.79-.77-.79h1.55Zm.17 2.26-.95.7-.94-.7.94-.95.95.95ZM1.49 2.26l.78.77-.78.78V2.26Zm0 2.37.74.54-.74.55V4.63Zm0 6.12.75.55-.75.54v-1.09Zm1.04.78.95.71-.95.95-.94-.95.94-.71Zm-1.04 1.24.74.55-.74.55v-1.1Zm0 6.12.74.55-.74.55v-1.1Zm.35 3.12h-.35V20.8l.78.79-.43.42Zm-.25-1.63.94-.71.95.71-.95.94-.94-.94Zm1.98 1.63h-.35l-.43-.42.78-.79v1.21Zm0-2.02-.73-.55.73-.54v1.09Zm0-1.56-1.04.78-1.04-.78v-4.11l1.04-.78 1.04.78v4.11Zm0-4.57-.74-.54.21-.16v.01l.53-.4v1.09Zm0-2.02-.74-.54.74-.55v1.09Zm0-1.55-1.04.78-1.04-.78V6.18l1.04-.78 1.04.78v4.11Zm0-4.57-.74-.54v-.01l.74-.54v1.09Zm0-1.91-.78-.78.78-.77v1.55Z"/><path fill="#FFE15A" d="M1.968 8.592a.78.78 0 0 0-.238.56c0 .25.245.748.654 1.332l.15.221.148-.22c.428-.64.645-1.09.645-1.332a.81.81 0 0 0-.23-.563c-.29-.288-.827-.3-1.129.002Zm.992.595a2.388 2.388 0 0 1-.33.693l-.101.143-.1-.143a2.353 2.353 0 0 1-.322-.693l-.005-.034c0-.115.044-.222.124-.302a.433.433 0 0 1 .605-.001.438.438 0 0 1 .134.303l-.005.034ZM2.385 5.987c-.41.588-.655 1.085-.655 1.333a.804.804 0 0 0 1.368.56.809.809 0 0 0 .23-.56c0-.242-.218-.69-.647-1.333l-.147-.22-.149.22Zm.575 1.299.005.034a.437.437 0 0 1-.133.302.412.412 0 0 1-.303.124.427.427 0 0 1-.302-.123.428.428 0 0 1-.125-.303l.005-.034c.078-.266.186-.5.321-.693l.1-.143.101.143c.144.206.259.445.33.693ZM2.385 14.131c-.26.36-.645 1.009-.645 1.332 0 .215.081.414.228.56a.83.83 0 0 0 1.133-.002.828.828 0 0 0 .226-.558c0-.292-.333-.879-.645-1.33l-.148-.222-.149.22Zm.575 1.298.005.034a.438.438 0 0 1-.134.303.463.463 0 0 1-.302.123.478.478 0 0 1-.294-.115.435.435 0 0 1-.133-.31l.005-.035c.076-.26.183-.495.32-.7l.102-.153.102.153c.148.222.258.457.329.7Z"/></g><defs><clipPath id="a"><path fill="#fff" d="M0 0h36v23.995H0z"/></clipPath></defs></svg>