<svg xmlns="http://www.w3.org/2000/svg" width="18" height="12" fill="none" viewBox="0 0 36 24"><g clip-path="url(#a)"><path fill="#FF4B55" d="M0 0h36v23.992H0V-.001Z"/><path fill="#F0F0F0" d="M0 5.997h36v11.997H0V5.997Z"/><path fill="#73AF00" d="M16.25 7.28c.464-.359.949-.738 1.206-1.28.05 1.44 3.059 1.298 2.738 2.277-.122-.063-.477.01-.285.173 1.057.648 1.2.974-.151.468-1.271.288 2.651 1.813 2.23 2.286-1.419-.358-1.408.201-.058.428 1.345.348-.245.565-.82.463-.483.122-.146.402.194.343.649.132.969.823 1.527 1.121.723.974-1.012-.248-1.32.135-.344.834 1.594 1.02 1.985 1.722.493 1.122-2.204-.994-3.04-.402-1.248-.445-1.833-.518-1.588 1.081-.01.895 1.234 1.156 1.37 1.827-.334.188-1.67-1.456-1.776-.33-.176.227-.731-.397-.857-.588-.415-.395-1.402-.279-1.813.205-.436.46-1.207.153-1.62.607-1.024.171 2.76-1.422 1.848-2.637-.274-1.076-4.258 1.549-3.429.094.988.033 3.184-1.718.989-.955-2.702 1.322-1.445-.185.122-1.036.507-.058.566-.904-.014-.77-.273.167-1.021.75-1.052.112.553-.747 1.574-.855 2.04-1.623.377-1.112-1.445.081-1.056-.737.395-.359.994-.442 1.322-.867.207-.636 1.455-.37.38-.972.182-.246 1.706-.853.8-.851-.138-.099.052-.228.128-.294Z"/></g><defs><clipPath id="a"><path fill="#fff" d="M0 0h36v23.995H0z"/></clipPath></defs></svg>