<svg xmlns="http://www.w3.org/2000/svg" width="18" height="12" fill="none" viewBox="0 0 36 24"><g clip-path="url(#a)"><path fill="#0052B4" d="M36 0H0v23.992h36V-.001Z"/><path fill="#FF4B55" d="M36 11.996H0v11.996h36V11.996Z"/><path fill="#FFE15A" d="M6.85 3.634v-.335H6.3v-.3h.55v-.5h.3V3h.55v.3h-.55v.322a.335.335 0 1 1-.3.013ZM4.75 4.414c-.548 0-.842.292-.993.536a1.568 1.568 0 0 0-.058 1.473c.097.002.199.014.3.042-.119-.342-.318-1.167.313-1.6.557-.381 1.868.038 2.197.153.008-.108.012-.216.012-.32-.483-.12-1.237-.284-1.771-.284ZM7.926 4.434l.004.003.004.002-.01.002.001-.003v-.001l.001-.003ZM6.936 4.807a13.81 13.81 0 0 0-.261-.07c-.004.568-.121 1.186-.23 1.638a.769.769 0 0 1 .491-.26V4.808ZM7.09 4.807c.053-.015.14-.039.252-.068.004.563.12 1.173.227 1.624a.762.762 0 0 0-.479-.247V4.807ZM7.507 5.012c.36-.124 1.633-.521 2.18-.147.636.437.427 1.273.31 1.61.11-.034.223-.05.33-.052a1.568 1.568 0 0 0-.057-1.473c-.151-.244-.446-.536-.993-.536-.538 0-1.299.166-1.781.286 0 .102.004.206.011.312Z"/><path fill="#FFE15A" fill-rule="evenodd" d="M7.013 8.272c1.452 0 2.67.13 3.025.306.184-.851.624-1.675.771-1.935-.244-.074-.944-.222-1.257.404a.077.077 0 0 1-.146-.035c0-.005-.005-.43-.243-.663a1.248 1.248 0 0 1-.038-.032l-.02-.017a.487.487 0 0 0-.068-.042c-.36-.178-.945.417-1.131.789-.01.02-.03.031-.051.036l-.004.003a.077.077 0 0 1-.097-.05 6.898 6.898 0 0 1-.058-.19c-.096-.226-.307-.58-.683-.58-.442 0-.656.491-.723.686a5.91 5.91 0 0 1-.026.082v.002c-.001.004-.004.006-.006.009a.036.036 0 0 0-.005.005l-.003.005a.056.056 0 0 1-.012.017.044.044 0 0 1-.014.006l-.006.002a.058.058 0 0 0-.007.004l-.012.005H6.19a.076.076 0 0 1-.024-.003l-.005-.004-.003-.001h-.001l-.008-.005a.077.077 0 0 1-.028-.03c-.186-.371-.77-.968-1.13-.788-.365.182-.37.749-.37.754a.077.077 0 0 1-.146.035c-.314-.628-1.013-.479-1.258-.404.147.26.587 1.083.771 1.935.356-.176 1.574-.306 3.025-.306Z" clip-rule="evenodd"/></g><defs><clipPath id="a"><path fill="#fff" d="M0 0h36v23.995H0z"/></clipPath></defs></svg>