<svg xmlns="http://www.w3.org/2000/svg" width="18" height="12" fill="none" viewBox="0 0 36 24"><g clip-path="url(#a)"><path fill="#FFE15A" d="M36 0H0v23.992h36V-.001Z"/><path fill="#FF4B55" d="M34.65 1.499H12.9v20.993h21.75V1.5Z"/><path fill="#FD823D" d="M11.4 1.499H1.5v20.993h9.9V1.5Z"/><path fill="#5E7C24" d="M6.45 1.499H1.5v20.993h4.95V1.5Z"/><path fill="#FFE15A" d="M32.83 3.649a.649.649 0 1 0 0-1.298.649.649 0 0 0 0 1.298ZM32.83 21.649a.649.649 0 1 0 0-1.298.649.649 0 0 0 0 1.298ZM14.83 21.649a.649.649 0 1 0 0-1.298.649.649 0 0 0 0 1.298ZM14.83 3.649a.649.649 0 1 0 0-1.298.649.649 0 0 0 0 1.298ZM31.885 9.405a4.706 4.706 0 0 0-3.315-1.347h-3.06c-.633 0-1.177.478-1.209 1.1a1.168 1.168 0 0 0 1.174 1.217h4.4c.102 0 .196.068.216.168a.21.21 0 0 1-.208.25s-.638-.014-1.124.432c-.157.144-.355.248-.57.236a1.388 1.388 0 0 0-.077-.002l-.072.003v-.003h-3.773a.897.897 0 0 1-.463-.145c.061-.518-.069-2.382-.182-2.746.628-.586.525-.676-.226-.39-.066-.442-.69-.63-.942-.242-.258-.036-.705-.458-.97.016-.619-.398-.883-.025-1.255.487-.613.408-2.42-.874-1.72.579.072.51 1.146.874 1.383.64 2.069 2.132-2.878-1.309-1.134 1.278.152.147.523-.111.826.174.305.287 1.307.009.713.359-1.088.17-1.308 1.425-1.657 2.029l-.671-.663a.746.746 0 0 1-.13-.19l-.01-.015a.296.296 0 0 0 .268-.32c-.014-.155-.157-.268-.315-.268h-.433V6.31a.307.307 0 0 0-.269-.308.3.3 0 0 0-.33.294v5.746h-.436c-.156 0-.297.112-.312.265a.298.298 0 0 0 .298.326h.097a.849.849 0 0 0-.113.422v.535c0 .325.187.618.466.756l1.94 1.172c.482.524.909-.34 1.416-.1.685.21 1.183 1.745.223 1.852-.22 0-.557-.039-.719.152-1.314.772 2.255.81 2.056.048-.236-.725.84-.394.814-.995-.119-.216-.505.026-.626-.2-.45-.768 3.49-2.501 3.3-1.293-.04.665.872.896.831 1.56-.006.271.084.818-.34.807-2.476.588.332.617.925.599.607-.143 3.453.441 2.326-.58-.303-.283.287-.632.432-.82a.277.277 0 0 0-.012-.406c-.633-.624-.26-1.976-.018-2.647.072-.12.125-.253.156-.393v-.003a1.338 1.338 0 0 0-.122-.906c-.158-.304.045-.679.392-.683h.132c.504 0 .94-.382.964-.879a.932.932 0 0 0-.937-.971h-4.392a.458.458 0 0 1-.46-.385.445.445 0 0 1 .444-.501h3.095c1.06 0 2.042.453 2.824 1.16.156.14.407.123.539-.054a.364.364 0 0 0-.048-.475Zm-3.798 7.462c.002.391-.465.236-.656.45-.425.585-.598-.202-.32-.539.05-.125.514-.566.163-.612-.582.155-.402-.692.015-.543.281.307.94.744.798 1.244Z"/></g><defs><clipPath id="a"><path fill="#fff" d="M0 0h36v23.995H0z"/></clipPath></defs></svg>