<svg xmlns="http://www.w3.org/2000/svg" width="18" height="12" fill="none" viewBox="0 0 36 24"><g clip-path="url(#a)"><path fill="#FF4B55" d="M36 0H0v23.992h36V-.001Z"/><path fill="#F0F0F0" d="M36 19.63H0v2.18h36v-2.18ZM36 15.267H0v2.18h36v-2.18ZM36 10.904H0v2.18h36v-2.18ZM36 6.541H0v2.18h36v-2.18ZM36 2.179H0v2.18h36v-2.18Z"/><path fill="#0052B4" d="M10.908 0H0v10.904h10.908V-.001Z"/><path fill="#F0F0F0" d="m6.644 5.838 1.924-1.396h-2.38l-.732-2.263-.736 2.263H2.34l1.924 1.396L3.532 8.1l1.924-1.4 1.924 1.4-.736-2.263Z"/></g><defs><clipPath id="a"><path fill="#fff" d="M0 0h36v23.995H0z"/></clipPath></defs></svg>