<svg xmlns="http://www.w3.org/2000/svg" width="18" height="12" fill="none" viewBox="0 0 36 24"><g clip-path="url(#a)"><path fill="#F0F0F0" d="M0 23.98V0h36v23.992L0 23.98Z"/><path fill="#0052B4" d="M36 23.992V-.001L0 23.992h36Z"/><path fill="#73AF00" d="M36 23.992V7.997L12 23.992h24Z"/><path fill="#A36D56" d="M9.284 13.191c.4.22.768.344 1.04.148.4-.288-.156-1.331-.644-2.04-.488-.707-1.132-2.282-.512-2.726.62-.444 1.472.264 1.732 1.395.112.488.4 1.132.976 1 .576-.132.536-1.004.22-1.931-.264-.776-1.2-2.468-2.992-3.283l.48-.9a1.143 1.143 0 0 0 .832-2.115 1.144 1.144 0 0 0-1.28 1.879l-.504.948a5.103 5.103 0 0 0-.86-.208c.008-.156.012-.3-.044-.3-.128 0 0-.6-.096-.6s.032-.612-.088-.612.056-.6-.06-.6c-.116 0-.012-.643-.108-.643s-.032-.576-.148-.576c-.116 0-.012-.444-.296-.444-.288 0-.18.444-.296.444-.116 0-.052.576-.148.576s.012.643-.108.643c-.116 0 .06.6-.06.6s.008.612-.088.612.032.6-.096.6c-.056 0-.056.128-.048.276-.32.032-.616.084-.892.156l-.768-1.444 1.288.104-2.648-2.123.276 3.379.636-1.124.724 1.364c-1.596.603-2.336 1.931-2.78 3.634-.12.468-.164 1.196.312 1.324.44.116.764-.272.964-.768.48-1.2 1.188-1.807 1.776-1.463.612.356.356 1.667-.376 2.55-.808.977-1.684 2.8.124 2.008l-1.44 2.707c-.16.304.292.532.448.236l1.752-3.299c.352-.152.76-.287 1.228-.307v3.494c0 .332.424.344.424 0V12.28c.396.04.832.163 1.312.423l1.692 3.187c.156.292.608.068.448-.236l-1.304-2.463Z"/></g><defs><clipPath id="a"><path fill="#fff" d="M0 0h36v23.995H0z"/></clipPath></defs></svg>