<svg xmlns="http://www.w3.org/2000/svg" width="18" height="12" fill="none" viewBox="0 0 36 24"><g clip-path="url(#a)"><path fill="#FF4B55" d="M36 0H0v23.992h36V-.001Z"/><path fill="#FFE15A" d="M24 0H0v23.992h24V-.001Z"/><path fill="#0052B4" d="M12 0H0v23.992h12V-.001Z"/><path fill="#A36D56" d="M14.254 8.177c0-.273.22-.494.493-.494h.276c.272 0 .493.221.493.494v.585a.843.843 0 0 1 1.052.815h-.842v3.998c0 .387-.237.774-.42 1.015v.037c0 .4-.255.801-.44 1.04-.107.559-.612 1.064-.612 1.064V8.177Z"/><path fill="#73AF00" d="M13.6 12.12a.635.635 0 0 1 .139-.366c.128.092.23.276.256.5a.772.772 0 0 1-.086.476l.32.495a.757.757 0 0 1 .171.131.636.636 0 0 1 .138-.365c.129.092.23.276.256.5a.773.773 0 0 1-.085.476l.32.495a.758.758 0 0 1 .17.13.635.635 0 0 1 .139-.364c.129.092.23.276.256.5a.772.772 0 0 1-.085.476l.93 1.44-.176.114-.931-1.44a.771.771 0 0 1-.47-.117c-.193-.116-.32-.284-.35-.44a.636.636 0 0 1 .39.025.754.754 0 0 1-.05-.21l-.32-.495a.77.77 0 0 1-.469-.117c-.194-.116-.32-.284-.35-.439a.636.636 0 0 1 .389.024.758.758 0 0 1-.05-.21l-.32-.495a.771.771 0 0 1-.469-.117c-.193-.115-.32-.284-.35-.439a.635.635 0 0 1 .39.024.632.632 0 0 1-.036-.382c.11.018.23.084.334.19Z"/><path fill="#FF4B55" d="m17.563 14.552-.652-.532-.654.803.163.133-.495.606-.076-.096-.514.41.525.658.514-.41-.18-.226.552-.676.163.133.654-.803Z"/><path fill="#A36D56" d="m16.568 16.941 1.052-2.104.42.21.422-.21 1.052 2.104-1.473 1.052-1.473-1.052Z"/><path fill="#FF4B55" d="M15.726 9.577v3.998c0 1.052 1.526.911 2.315 1.683.789-.772 2.314-.631 2.314-1.683V9.577h-4.629Z"/><path fill="#A36D56" d="M21.828 16.73s-.505-.504-.611-1.062c-.186-.24-.44-.64-.44-1.041v-.037c-.184-.242-.422-.628-.422-1.015V9.577h-.841a.842.842 0 0 1 1.052-.815v-.585c0-.273.22-.494.493-.494h.276c.272 0 .493.221.493.494v8.554Z"/><path fill="#FAC586" d="m23.002 11.973-.27-.164-2.946 4.839.27.164 2.946-4.839Z"/><path fill="#FF4B55" d="m19.382 15.355.164-.134.552.677-.18.225.514.41.526-.657-.514-.41-.078.096-.494-.606.163-.133-.654-.802-.653.531.654.803Z"/><path fill="#0052B4" d="M15.726 11.891v1.684c0 1.052 1.526.911 2.315 1.683.789-.772 2.314-.631 2.314-1.683V11.89h-4.629Z"/><path fill="#FFE15A" d="m18.04 14.627-.63-.421v-.21l.21-.211v-1.262l-.631-.421.631-.842h.21l.21.21.211-.21h.21l.632.842-.631.42v1.263l.21.21v.21l-.631.422Z"/><path fill="#FFE15A" d="M17.2 9.787s-.842.21-.842 1.052c0 .842.841 1.263.841 1.263l.421-.631c-1.262-.421-.42-1.684-.42-1.684ZM18.883 9.787s.841.21.841 1.052c0 .842-.841 1.263-.841 1.263l-.421-.631c1.262-.421.42-1.684.42-1.684ZM18.04 9.893l.154.156.219-.002-.003.219.157.153-.157.153.003.219-.22-.003-.152.157-.153-.157-.219.002.003-.218-.157-.153.157-.153-.003-.22.219.003.153-.156ZM16.612 12.81l.152.169.21-.084a.124.124 0 0 1 .154.178l-.114.196.145.175a.124.124 0 0 1-.121.2l-.222-.047-.122.192a.124.124 0 0 1-.228-.054l-.023-.226-.22-.056a.124.124 0 0 1-.02-.233l.208-.093-.015-.226a.124.124 0 0 1 .216-.09ZM19.414 13.29a.542.542 0 0 1 .475-.434.54.54 0 0 0-.153-.057.544.544 0 0 0-.207 1.067c.055.01.11.01.163.004a.542.542 0 0 1-.278-.58Z"/><path fill="#464655" d="M16.779 6h.21v.21h.21v.211h-.21v1.052h-.21V6.42h-.21v-.21h.21V6Z"/><path fill="#A36D56" d="m17.62 7.473-.42 2.104h1.893s-.21-1.683-.21-2.314c0-.632-.421-.842-.842-.842s-.631.21-.631.21h-.421l-.21.21.841.632Z"/></g><defs><clipPath id="a"><path fill="#fff" d="M0 0h36v23.995H0z"/></clipPath></defs></svg>