<svg xmlns="http://www.w3.org/2000/svg" width="18" height="12" fill="none" viewBox="0 0 36 24"><g clip-path="url(#a)"><path fill="#FAC586" d="M0 0h36v23.992H0V-.001Z"/><path fill="#FF4B55" d="M1.2 1.199h33.6v21.593H1.2V1.2Z"/><path fill="#FAC586" d="M21.456 16.994a.694.694 0 0 1-.981 0l-1.328-1.328.981-.981 1.328 1.327a.694.694 0 0 1 0 .982Z"/><path fill="#FAC586" fill-rule="evenodd" d="M23.14 11.75c1.66-.45 1.48-2.2 1.48-2.2-.61.79-1.22 1.01-1.22 1.01 1.28-.87.67-3.07.67-3.07-.42 1.31-.77 1.69-.77 1.69.82-2.19-.58-3.4-.58-3.4-.138 3.368-3.168 4.93-2.37 8.25l-.082.5c.58.51 1.652.21 1.152-.06 1.22.14 1.449-.528.909-.608 1.82-.17 1.436-.983.52-.892 1.94-.52 1.66-1.64 1.66-1.69-.444.358-1.457.51-1.37.47ZM12.486 11.75c-1.66-.45-1.48-2.2-1.48-2.2.61.79 1.22 1.01 1.22 1.01-1.28-.87-.67-3.07-.67-3.07.42 1.31.77 1.69.77 1.69-.82-2.19.58-3.4.58-3.4.137 3.368 3.167 4.93 2.37 8.25l.082.5c-.58.51-1.652.21-1.152-.06-1.22.14-1.45-.528-.91-.608-1.82-.17-1.435-.983-.52-.892-1.94-.52-1.66-1.64-1.66-1.69.444.358 1.458.51 1.37.47Z" clip-rule="evenodd"/><path fill="#FAC586" d="M18.11 4.6c0-.12-.08-.23-.18-.27v-.21h.19v-.23h-.19V3.7h-.23v.19h-.19v.23h.19v.21c-.11.04-.19.15-.19.27-1.78.32-1.87 1.49-.91 2.2v.24h2.43V6.8c.31-.17.65-.63.59-1.1-.04-.38-.35-.87-1.51-1.1Zm-1.28 1.83h-.08c-.41-.27-.53-.94.08-1.19-.2.37-.15.85 0 1.19Zm.78 0h-.34c-.09-.14-.22-.48-.16-.81.05-.27.22-.46.5-.59v1.4Zm.74 0h-.34v-1.4c.61.19.61 1.06.34 1.4Zm.52 0h-.08c.15-.34.2-.82.01-1.19.61.25.49.92.07 1.19ZM14.207 15.959l-1.943-2.147a.298.298 0 1 0-.441.4l2.314 2.557a.696.696 0 0 0 1.086.134l1.328-1.328-.981-.981-1.328 1.327a.72.72 0 0 0-.035.038Z"/><path fill="#FAC586" fill-rule="evenodd" d="m19.8 18-2 1-2-1.01 1-2.49h2l1 2.5Z" clip-rule="evenodd"/><path fill="#FAC586" d="M20.154 8.169c-.148-.894-2.275-.365-2.466 1.58h-.017c-.19-1.945-2.317-2.474-2.465-1.58-.434.07-.66.113-.556.711.27-.269.686-.234 1.077-.043.573.287.894.912.894 1.554v.121h2.118v-.121c0-.642.32-1.267.894-1.554.39-.19.807-.226 1.076.043.104-.598-.121-.642-.555-.711Z"/><path fill="#0052B4" fill-rule="evenodd" d="M23.008 16.216a.854.854 0 0 1-.122.446.668.668 0 0 1-.193.245.907.907 0 0 1-.613.237.922.922 0 0 1-.814-.49.76.76 0 0 1-.105-.306c0-.027-.008-.044-.008-.08v-.052c0-.044 0-.079.008-.123a.93.93 0 0 1 .893-.813h.026a.936.936 0 0 1 .928.937Z" clip-rule="evenodd"/><path fill="#73AF00" d="M20.35 13.35v.68a1.575 1.575 0 0 1-.25.85c-.12.2-.29.37-.5.49l-.6.37-.18.11-1.01.62-1.01-.62-.19-.12-.59-.36c-.21-.13-.38-.3-.5-.5a.206.206 0 0 1-.06-.1c-.12-.22-.19-.48-.19-.74v-.68h5.08Z"/><path fill="#0052B4" d="M20.35 10.34h-5.08v3.01h5.08v-3.01Z"/></g><defs><clipPath id="a"><path fill="#fff" d="M0 0h36v23.995H0z"/></clipPath></defs></svg>