<svg xmlns="http://www.w3.org/2000/svg" width="18" height="12" fill="none" viewBox="0 0 36 24"><g clip-path="url(#a)"><path fill="#0052B4" d="M36 0H0v23.992h36V-.001Z"/><path fill="#F0F0F0" d="M0 23.608v-.576L36 2.8v6.99L0 23.607Z"/><path fill="#FD823D" d="M0 23.224v-.384L36 .383v4.703L0 23.224Z"/><path fill="#F0F0F0" d="M10.094 9.067 15.2 8.76l-5.106-.308 2.812-1.071-2.971.478 2.438-1.762-2.745 1.23 1.899-2.333-2.334 1.898 1.23-2.745L8.66 6.585l.478-2.97-1.071 2.81-.308-5.103-.307 5.104-1.072-2.81.478 2.97-1.763-2.438 1.231 2.745-2.334-1.899 1.9 2.333-2.746-1.23L5.584 7.86l-2.97-.477 2.81 1.07L.32 8.76l5.106.307-2.811 1.071 2.97-.478-2.438 1.762 2.746-1.23-1.9 2.333 2.334-1.898-1.23 2.745 1.763-2.438-.478 2.97 1.07-2.81.308 5.103.308-5.104 1.071 2.81-.478-2.97 1.763 2.438-1.23-2.745 2.333 1.899-1.899-2.333 2.746 1.23L9.934 9.66l2.97.477-2.81-1.07Z"/></g><defs><clipPath id="a"><path fill="#fff" d="M0 0h36v23.995H0z"/></clipPath></defs></svg>