<svg xmlns="http://www.w3.org/2000/svg" width="18" height="12" fill="none" viewBox="0 0 36 24"><g clip-path="url(#a)"><path fill="#FF4B55" d="M35.997 0H0v23.992h35.997V-.001Z"/><path fill="#FFE15A" d="M16.199 23.992h3.6l-1.8-9.426-1.8 9.426ZM19.798 0h-3.6l1.8 9.425 1.8-9.426Z"/><path fill="#FFE15A" d="M35.997 14.395V9.596l-17.624 2.348L36 0h-5.4L18.004 11.77 5.405 0h-5.4l17.63 11.947L0 9.597v4.798l17.636-2.35L.006 23.991h5.4l12.598-11.77L30.6 23.991H36L18.373 12.044l17.624 2.35Z"/><path fill="#FF4B55" d="M17.999 16.28a4.285 4.285 0 1 0 0-8.57 4.285 4.285 0 0 0 0 8.57Z"/><path fill="#FFE15A" d="M17.999 15.423a3.428 3.428 0 1 0 0-6.856 3.428 3.428 0 0 0 0 6.856Z"/></g><defs><clipPath id="a"><path fill="#fff" d="M0 0h36v23.995H0z"/></clipPath></defs></svg>