<svg xmlns="http://www.w3.org/2000/svg" width="18" height="12" fill="none" viewBox="0 0 36 24"><g clip-path="url(#a)"><path fill="#FF4B55" d="M36 0H0v23.992h36V-.001Z"/><path fill="#0052B4" fill-rule="evenodd" d="M0 0h19.2v11.995H0V0Z" clip-rule="evenodd"/><g clip-path="url(#b)"><path fill="#F0F0F0" fill-rule="evenodd" d="m10.095 11.116-.507-.347-.509.344.181-.578-.492-.367.619-.01.205-.571.201.572.619.014-.494.364.177.58ZM12.148 10.742l-.507-.347-.51.344.182-.578-.492-.367.618-.01.205-.57.201.57.62.015-.495.364.178.58ZM6.62 9.293l-.507-.347-.509.344.181-.578-.492-.367.619-.01.204-.571.202.572.619.014-.495.364.178.58ZM8.136 10.649l-.507-.347-.509.344.181-.578-.492-.367.619-.01.204-.571.202.571.619.014-.495.364.178.58ZM13.664 9.387l-.507-.347-.51.344.182-.578-.492-.367.618-.01.205-.571.202.571.618.014-.494.364.178.58ZM14.503 7.517l-.507-.347-.508.344.18-.578-.492-.367.619-.01.205-.571.201.572.619.014-.494.364.177.579ZM5.827 7.423l-.507-.346-.509.344.181-.579-.492-.366.619-.011.204-.57.202.571.619.014-.495.364.178.58ZM14.363 5.694l-.507-.347-.509.344.181-.578-.492-.367.619-.01.205-.571.201.572.619.014-.494.364.177.579ZM5.827 5.554l-.507-.347-.509.344.181-.579-.492-.366.619-.01.204-.572.202.572.619.014-.495.364.178.58ZM13.524 3.964l-.507-.346-.51.344.182-.579-.492-.367.618-.01.205-.57.202.571.618.014-.494.364.178.58ZM8.206 2.749l-.507-.347-.509.344.181-.578-.492-.367.619-.01.204-.571.202.572.619.014-.495.364.178.579ZM6.62 3.87l-.507-.346-.509.344.181-.578-.492-.367.619-.01.204-.571.202.572.619.014-.495.364.178.579ZM12.218 2.749l-.507-.347-.51.344.182-.578-.492-.367.618-.01.205-.571.202.572.618.014-.494.364.178.579ZM10.165 2.329l-.507-.347-.509.344.181-.579-.492-.366.619-.011.205-.57.201.571.619.014-.494.364.177.58Z" clip-rule="evenodd"/><path fill="#F0F0F0" d="M9.66 9.172a3.105 3.105 0 1 0 0-6.209 3.105 3.105 0 0 0 0 6.21Z"/><path fill="#0052B4" d="M8.937 4.556c.102-.4-.202-.525-.366-.557-.057-.01-.267 1.022.154.823a.413.413 0 0 0 .212-.266ZM10.77 5.067c.19-.272-.005-.452-.12-.523-.04-.025-.489.695-.116.664a.333.333 0 0 0 .235-.14Z"/><path fill="#0052B4" d="M11.025 6.138c.172-.426-.512-.032-.555.052-.037-.504.87-.388.713-.892-.076-.242-.702.214-.722.315-.07-.232-.335-.871-.543-.648-.418.45.531.71.342 1.186-.075-.158-.154-.385-.377-.257-.541.311.773.605-.354 1.583-.03-.035-.061-.07-.092-.101.891-.502.23-1.472-.192-.433-.252-.589.66-.74.446-1.37-.08-.352-.599.336-.6.394-.246-.589.73-.717.425-1.321-.19-.376-.715.556-.696.678-.184-.24-.675-1.013-.919-.512-.27.555.948.553.932 1.251-.153-.166-.58-.566-.761-.324-.346.462.933.595.897 1.2C8.396 6.465 7.7 6.12 7 5.988c3.248 3.45 2.547 2.358 5.5-.481a5.021 5.021 0 0 0-1.475.63Z"/></g></g><defs><clipPath id="a"><path fill="#fff" d="M0 0h36v23.995H0z"/></clipPath><clipPath id="b"><path fill="#fff" d="M4 0h11v12H4z"/></clipPath></defs></svg>