<svg xmlns="http://www.w3.org/2000/svg" width="18" height="12" fill="none" viewBox="0 0 36 24"><g clip-path="url(#a)"><path fill="#FF4B55" d="M0 0h36v23.992H0V-.001Z"/><path fill="#FFE15A" d="m4 19.193 2 1.2 2-1.2H4ZM4 17.994h4v.8H4v-.8ZM6.95 13.837A1.18 1.18 0 0 1 6 15.714a.94.94 0 1 0 0 1.88 1.998 1.998 0 0 0 .95-3.757ZM6 16.254a.4.4 0 1 1 0 .8.4.4 0 0 1 0-.8Z"/><path fill="#FFE15A" d="M5.05 17.352A1.18 1.18 0 0 1 6 15.474a.94.94 0 0 0 0-1.879 1.998 1.998 0 0 0-.95 3.757ZM6 14.935a.4.4 0 1 1 0-.8.4.4 0 0 1 0 .8ZM4 12.395h4v.8H4v-.8ZM8.4 10.796h2v9.597h-2v-9.597ZM4 10.796l2 1.2 2-1.2H4ZM1.6 10.796h2v9.597h-2v-9.597ZM3.804 8.153l-.004.044a2.2 2.2 0 1 0 4.4-.04A2.4 2.4 0 0 1 6 9.597a2.4 2.4 0 0 1-2.197-1.444Z"/><path fill="#FFE15A" d="M6.002 9.197a1.6 1.6 0 1 0 0-3.2 1.6 1.6 0 0 0 0 3.2ZM6.168 2.399a.48.48 0 0 0-.29.415c-.01.136.051.29.057.423 0 .23-.237.305-.237.633 0 .112.104.237.104.529-.018.153-.104.188-.2.2a.2.2 0 0 1-.125-.358c.046-.046.109-.064.108-.185 0-.062-.04-.12-.079-.23a.462.462 0 0 1 .077-.392c-.14.054-.226.188-.27.309-.047.148-.006.233-.07.356-.039.08-.085.113-.129.179a.764.764 0 0 0-.112.32 1 1 0 1 0 2 0 .762.762 0 0 0-.112-.32c-.044-.066-.091-.1-.13-.18-.063-.122-.022-.207-.069-.355-.044-.12-.13-.255-.27-.309a.462.462 0 0 1 .077.392c-.04.11-.08.167-.08.23 0 .121.062.14.108.185a.2.2 0 0 1 .02.02.2.2 0 0 1-.144.338c-.111-.014-.19-.066-.2-.2 0-.385.164-.41.164-.695 0-.407-.364-.6-.364-.897 0-.1.023-.272.166-.408Z"/><path fill="#0052B4" d="M12 0h12v23.992H12V-.001Z"/></g><defs><clipPath id="a"><path fill="#fff" d="M0 0h36v23.995H0z"/></clipPath></defs></svg>