<svg xmlns="http://www.w3.org/2000/svg" width="18" height="12" fill="none" viewBox="0 0 36 24"><g clip-path="url(#a)"><path fill="#FF4B55" d="M36 0H0v23.992h36V-.001Z"/><path fill="#FFE15A" d="M24 0H0v23.992h24V-.001Z"/><path fill="#0052B4" d="M12 0H0v23.992h12V-.001Z"/><path fill="#FD823D" d="M21.329 9.795c1.94-2.4-1.95-2.59-1.09-1.46-1.86.95-.08-2.43-2.37-.96-2.29-1.47-.51 1.91-2.37.96.86-1.13-3.03-.94-1.09 1.46-3.41.1.71 3.31-1.32 4.15-.27 2.86 3.43 2.68 4.78 3.78 1.35-1.1 5.05-.92 4.78-3.78-2.03-.84 2.09-4.05-1.32-4.15Z"/><path fill="#FFE15A" d="M21.186 9.375h-6.635v6.636h6.635V9.375Z"/><path fill="#FF4B55" d="M17.683 9.743H14.91v2.773h2.773V9.743ZM18.846 9.743h-.396v2.773h.396V9.743ZM19.639 9.743h-.396v2.773h.396V9.743ZM20.431 9.743h-.396v2.773h.396V9.743ZM16.143 12.886h-.308v2.774h.308v-2.774ZM16.759 12.886h-.308v2.774h.308v-2.774ZM17.376 12.886h-.308v2.774h.308v-2.774Z"/><path fill="#FFE15A" d="M16.069 11.973c-.02.1-.1.19-.2.23-.09.04-.28.06-.5-.19-.02-.02-.04-.02-.06-.02-.03.01-.06.03-.06.07-.01.05.03.11.12.16.03.02.04.07.02.1-.02.02-.04.04-.06.04-.02 0-.03-.01-.04-.02-.19-.12-.2-.24-.19-.31.02-.08.08-.15.17-.18.08-.02.16 0 .22.07.11.13.23.18.33.15.05-.02.09-.06.1-.1h.15ZM17.319 12.343c-.01.01-.03.02-.04.02-.02 0-.05-.02-.06-.04a.078.078 0 0 1 .02-.1c.08-.05.13-.11.12-.16-.01-.04-.03-.06-.06-.07-.02 0-.05 0-.07.02-.21.25-.4.23-.49.19a.306.306 0 0 1-.21-.23h.15c.02.04.06.08.11.1.1.03.22-.02.33-.15.06-.07.14-.09.22-.07.09.03.15.1.16.18.01.07 0 .19-.18.31ZM17.379 10.143c-.01.07-.04.18-.21.24-.04.01-.08-.01-.09-.04-.02-.04 0-.08.04-.1.05-.02.11-.05.11-.11.01-.05-.02-.1-.06-.13-.02-.01-.06-.03-.1 0-.07.04-.08.08-.09.16-.01.05-.01.11-.05.16l-.28.36.3.36-.26.79h-.31v-1.48l.18.22.25-.33c.02-.02.02-.06.03-.11.01-.08.03-.18.15-.25.08-.05.18-.05.26 0 .09.06.14.16.13.26Z"/><path fill="#FFE15A" d="M16.238 10.353v1.48h-.32l-.04-.13-.54.71c-.01.02-.03.03-.05.03-.02 0-.04 0-.05-.01-.03-.03-.04-.07-.01-.1l.6-.79-.17-.5.58-.69Z"/><path fill="#FF4B55" d="M15.527 12.89h-.308v2.773h.308v-2.774ZM18.944 13.799c-.13.112-.032.2.037.37.082-.095.039-.148-.015-.223.156-.208.336.18.187.3.278.036.064-.521.609-.313.013.005.073.008.09.01a.299.299 0 0 0 .062-.012c-.03.041-.121.238-.188.231.192.125.137-.105.338-.217 0 0 .077.184-.018.283l.084.048c.04-.093.109-.364.015-.514.356-.776-.717-.317-1.135-.408l.048-.11c-.22.031-.343-.084-.533.191l.055.11c.184-.014.28.063.364.254ZM19.01 14.505l.048-.11c-.22.03-.343-.084-.533.19l.055.111c.184-.014.28.063.364.254-.13.111-.032.2.037.37.082-.096.039-.148-.015-.224.156-.207.336.18.187.302.278.035.064-.522.609-.314.013.004.073.008.09.01a.299.299 0 0 0 .062-.012c-.03.041-.121.238-.188.231.192.125.137-.106.338-.217 0 0 .077.184-.018.283l.084.048c.04-.094.109-.364.015-.514.356-.777-.717-.318-1.135-.408Z"/></g><defs><clipPath id="a"><path fill="#fff" d="M0 0h36v23.995H0z"/></clipPath></defs></svg>