<svg xmlns="http://www.w3.org/2000/svg" width="18" height="12" fill="none" viewBox="0 0 36 24"><g clip-path="url(#a)"><path fill="#82AFFF" d="M0 0h36v23.992H0V-.001Z"/><path fill="#F0F0F0" d="M26.5 12a8.5 8.5 0 1 1-17 0 8.5 8.5 0 0 1 17 0Zm-14.45 0a5.95 5.95 0 1 0 11.9 0 5.95 5.95 0 0 0-11.9 0Z"/><path fill="#FFE15A" d="M18 19.5c-3.984 0-7.231-3.3-7.231-7.364 0-4.063 3.24-7.363 7.231-7.363 3.99 0 7.231 3.307 7.231 7.363 0 4.057-3.247 7.363-7.231 7.363ZM18 5.32c-3.69 0-6.693 3.059-6.693 6.815 0 3.757 3.004 6.816 6.693 6.816 3.69 0 6.693-3.06 6.693-6.816S21.689 5.321 18 5.321Z"/><path fill="#FD823D" d="M11.038 12.684a.543.543 0 0 0 .538-.548.543.543 0 0 0-.538-.547.543.543 0 0 0-.538.547c0 .303.24.548.538.548ZM24.962 12.684a.543.543 0 0 0 .538-.548.543.543 0 0 0-.538-.547.543.543 0 0 0-.538.547c0 .303.24.548.538.548ZM18 5.595a.543.543 0 0 0 .538-.548A.543.543 0 0 0 18 4.5a.543.543 0 0 0-.538.548c0 .303.24.548.538.548ZM13.075 7.669a.543.543 0 0 0 .538-.548.543.543 0 0 0-.538-.548.543.543 0 0 0-.538.548c0 .303.24.548.538.548ZM22.925 7.669a.543.543 0 0 0 .538-.548.543.543 0 0 0-.538-.548.543.543 0 0 0-.538.548c0 .303.241.548.538.548ZM24.43 9.971a.543.543 0 0 0 .538-.548.543.543 0 0 0-.538-.548.543.543 0 0 0-.538.548c0 .303.241.548.538.548ZM15.336 6.136a.543.543 0 0 0 .538-.547.543.543 0 0 0-.538-.548.543.543 0 0 0-.538.548c0 .302.24.547.538.547ZM11.57 9.971a.543.543 0 0 0 .538-.548.543.543 0 0 0-.538-.548.543.543 0 0 0-.538.548c0 .303.24.548.538.548ZM20.664 6.136a.543.543 0 0 0 .538-.547.543.543 0 0 0-.538-.548.543.543 0 0 0-.538.548c0 .302.241.547.538.547ZM24.828 11.302a.543.543 0 0 0 .538-.548.543.543 0 0 0-.538-.548.543.543 0 0 0-.538.548c0 .302.24.548.538.548ZM16.642 5.732a.543.543 0 0 0 .538-.548.543.543 0 0 0-.538-.548.543.543 0 0 0-.538.548c0 .303.241.548.538.548ZM12.21 8.745a.543.543 0 0 0 .538-.548.543.543 0 0 0-.538-.548.543.543 0 0 0-.538.548c0 .303.241.548.538.548ZM21.869 6.789a.543.543 0 0 0 .538-.548.543.543 0 0 0-.538-.548.543.543 0 0 0-.538.548c0 .302.24.548.538.548ZM23.79 8.745a.543.543 0 0 0 .538-.548.543.543 0 0 0-.538-.548.543.543 0 0 0-.538.548c0 .303.24.548.538.548ZM14.132 6.789a.543.543 0 0 0 .537-.548.543.543 0 0 0-.537-.548.543.543 0 0 0-.538.548c0 .302.24.548.538.548ZM11.172 11.302a.543.543 0 0 0 .538-.548.543.543 0 0 0-.538-.548.543.543 0 0 0-.538.548c0 .302.241.548.538.548ZM19.358 5.732a.543.543 0 0 0 .538-.548.543.543 0 0 0-.538-.548.543.543 0 0 0-.538.548c0 .303.24.548.538.548Z"/><path fill="#DDD" d="M16.226 10.057a.293.293 0 0 1-.285-.252l-.206-1.906a.559.559 0 0 1 .551-.617h3.207c.332 0 .591.285.551.617l-.206 1.892a.296.296 0 0 1-.278.265l.982 9.323a1.111 1.111 0 0 1-1.109 1.221h-3.087a1.108 1.108 0 0 1-1.102-1.228l.982-9.315Z"/><path fill="#F0F0F0" d="m18.02 7.926 1.028 2.96 3.134.067c.126 0 .18.166.08.246l-2.497 1.892.91 3.001c.04.126-.1.226-.206.153l-2.576-1.793-2.576 1.793a.135.135 0 0 1-.206-.153l.91-3-2.497-1.893a.138.138 0 0 1 .08-.246l3.134-.066 1.029-2.961a.131.131 0 0 1 .252 0Z"/></g><defs><clipPath id="a"><path fill="#fff" d="M0 0h36v23.995H0z"/></clipPath></defs></svg>