<svg xmlns="http://www.w3.org/2000/svg" width="18" height="12" fill="none" viewBox="0 0 36 24"><g clip-path="url(#a)"><path fill="#FF4B55" d="M0 0h36v24H0V0Z"/><path fill="#5E7C24" fill-rule="evenodd" d="m18 6.5 1.416 4.201H24l-3.708 2.597 1.416 4.201L18 14.903l-3.708 2.596 1.416-4.201L12 10.7h4.584L18 6.5Zm-1.611 4.78h-2.543l2.057 1.44.486-1.44Zm.024 1.797.606-1.798h1.962l.606 1.798L18 14.188l-1.587-1.111Zm-.195.578-.785 2.33 2.057-1.44-1.271-.89Zm2.292.89 2.057 1.44-.785-2.33-1.272.89Zm1.587-1.825 2.057-1.44h-2.543l.486 1.44ZM18.786 10.7h-1.572L18 8.371l.786 2.33Z" clip-rule="evenodd"/></g><defs><clipPath id="a"><path fill="#fff" d="M0 0h36v23.995H0z"/></clipPath></defs></svg>