<svg xmlns="http://www.w3.org/2000/svg" width="18" height="12" fill="none" viewBox="0 0 36 24"><g clip-path="url(#a)"><path fill="#0052B4" d="M36 0H0v23.996h36V0Z"/><path fill="#F0F0F0" d="m15.708 11.998.057-.065-.058.065Z"/><path fill="#F0F0F0" d="M18 0v2.148l-3.176 1.764H18v4.173h-4.156L18 10.394v1.604h-1.876l-5.167-2.87v2.87H7.043V8.583L.896 11.998H0V9.85l3.176-1.765H0V3.912h4.156L0 1.603V0h1.876l5.167 2.87V0h3.913v3.415L17.105 0H18Z"/><path fill="#FF4B55" d="M10.125 0h-2.25v4.874H0v2.25h7.875v4.874h2.25V7.124H18v-2.25h-7.875V0Z"/><path fill="#FF4B55" d="M10.957 8.085 18 11.998v-1.106l-5.052-2.807h-1.992ZM5.052 8.085 0 10.892v1.107l7.043-3.914H5.052ZM12.948 3.913 18 1.106V0l-7.043 3.913h1.991ZM7.043 3.913 0 0v1.106l5.052 2.807h1.991Z"/><g clip-path="url(#b)"><path fill="#82AFFF" fill-rule="evenodd" d="M21.387 7.499h9.833l-.012 7.014c.082 2.82-1.671 4.57-4.897 5.359-2.29-.57-4.932-1.75-4.936-5.279l.012-7.094Z" clip-rule="evenodd"/><path fill="#A36D56" fill-rule="evenodd" d="M31.18 15.309c-.345 2.9-2.43 3.929-4.869 4.563-2.16-.58-4.438-1.27-4.895-4.55l9.764-.013Z" clip-rule="evenodd"/><path fill="#464655" fill-rule="evenodd" d="m24.002 8.799 1.92.007-.014-.884.699.006.007.878h1.912l.007.685-1.92.007-.015 8.082-.682.004-.008-8.093-1.906.007v-.7Z" clip-rule="evenodd"/><path fill="#FD823D" fill-rule="evenodd" d="m24.373 15.678 1.75 1.816c.606-.665.186-3.152-.61-3.61-.095.294-.258.647-.43.761-.38.259-1.31.561-.999.755.071-.098.256-.19.344.027.103.344-.387.366-.387.366a.439.439 0 0 1-.366-.355c-.054-.316.463-.605.507-.627.044-.016.72-.196.835-.796.142-.59.289-.502.316-.513 1.572.284 1.869 3.872.954 4.68-.087.048-2.105-2.395-2.105-2.395l.191-.109Z" clip-rule="evenodd"/><path fill="#73AF00" d="M26.619 10.503c1.68-1.101 1.924 1.46 1.187 2.223 1.115 1.701.048 3.358.855 5.393-.992-.74-1.26.647-2.299.081.16-1.723.257-7.697.257-7.697Z"/><path fill="#FAC586" d="M27.035 10.07c.11.254-.154.518.02.762.26-.205.526-.304.676-.52-.52-.294.225-.664-.133-1.108-.542-.63-1.233.88-.563.866ZM25.912 11.22c-1.494.51-.356-2.164-.122-2.106.102-.05.218-.208.29-.127.062-.04.112.014.061.054.03-.006.062.044.005.09.11.182-.433.287-.402.506.066 1.02-.407 1.14.168 1.08v.502ZM25.946 13.136c1.025-.038 2.798-1.503 1.82-2.137-.472.264-.347 1.01-.769 1.196-.597.17-2.252 1.147-1.715 1.556-.011.07.084.046.09-.006-.003.075.098.032.104-.037.191-.019.178-.463.47-.572Z"/><path fill="#A36D56" d="M26.992 9.18c.043-.29.801-.283.768-.005.047.234.326.307.265.488.228.11.084.493-.135.297a.21.21 0 0 1-.231-.031c-.114.125-.415-.149-.249-.24.055-.152-.125-.25-.06-.41-.139.064-.268-.186-.358-.098Z"/></g></g><defs><clipPath id="a"><path fill="#fff" d="M0 0h36v23.996H0z"/></clipPath><clipPath id="b"><path fill="#fff" d="M21 7h11v13H21z"/></clipPath></defs></svg>