<svg xmlns="http://www.w3.org/2000/svg" width="18" height="12" fill="none" viewBox="0 0 36 24"><g clip-path="url(#a)"><path fill="#FF4B55" d="M0 0h36v23.992H0V-.001Z"/><path fill="#F0F0F0" d="M0 22.278h36v1.714H0v-1.714ZM0 18.85h36v1.715H0V18.85ZM0 15.423h36v1.714H0v-1.714ZM0 11.996h36v1.714H0v-1.714ZM0 8.568h36v1.714H0V8.568ZM0 5.14h36v1.715H0V5.14ZM0 1.713h36v1.714H0V1.713Z"/><path fill="#0052B4" d="M0 0h18v13.71H0V0Z"/><path fill="#FFE15A" d="M6.874 1.713c-2.848 0-5.16 2.303-5.16 5.141s2.312 5.142 5.16 5.142c.99.001 1.96-.283 2.793-.82a4.58 4.58 0 0 1-1.496.251c-2.525 0-4.575-2.042-4.575-4.559 0-2.516 2.05-4.558 4.575-4.558.542-.001 1.08.094 1.588.282a5.147 5.147 0 0 0-2.885-.879Z"/><path fill="#FFE15A" d="m15.431 9.53-2.173-1.133.643 2.32-1.454-1.94-.454 2.362-.446-2.364-1.46 1.937.65-2.319L8.56 9.52l1.617-1.813-2.463.094 2.265-.95-2.262-.956 2.463.101L8.57 4.178l2.173 1.134-.643-2.32 1.454 1.94.454-2.362.446 2.364 1.46-1.937-.65 2.318 2.177-1.127-1.617 1.814 2.463-.094-2.265.95 2.262.956-2.463-.102 1.611 1.819Z"/></g><defs><clipPath id="a"><path fill="#fff" d="M0 0h36v23.995H0z"/></clipPath></defs></svg>