<svg xmlns="http://www.w3.org/2000/svg" width="18" height="12" fill="none" viewBox="0 0 36 24"><g clip-path="url(#a)"><path fill="#FF4B55" d="M36 0H0v23.992h36V-.001Z"/><path fill="#F0F0F0" d="M18 0H0v23.992h18V-.001Z"/><path fill="#FF4B55" d="M4.2 2.2v1.605a.41.41 0 0 0-.27.126.41.41 0 0 0-.125.269H2.2v1.6h1.605a.41.41 0 0 0 .126.27.41.41 0 0 0 .269.125V7.8h1.6V6.195a.41.41 0 0 0 .269-.126.41.41 0 0 0 .126-.269H7.8V4.2H6.195a.41.41 0 0 0-.126-.269.41.41 0 0 0-.269-.125V2.2H4.2M4 2h2v1.648A.645.645 0 0 1 6.352 4H8v2H6.352a.644.644 0 0 1-.142.21.644.644 0 0 1-.21.142V8H4V6.352a.644.644 0 0 1-.21-.142.644.644 0 0 1-.142-.21H2V4h1.648a.644.644 0 0 1 .141-.21.643.643 0 0 1 .21-.142V2.2L4 2Z"/><path fill="#DDD" d="M5 5.8a.8.8 0 1 1 0-1.6.8.8 0 0 1 0 1.6Z"/><path fill="#DDD" d="M5 6.095a1.096 1.096 0 0 0 0-2.19 1.096 1.096 0 0 0 0 2.19Zm0-2.09a.996.996 0 0 1 0 1.99.996.996 0 0 1 0-1.99Z"/></g><defs><clipPath id="a"><path fill="#fff" d="M0 0h36v23.995H0z"/></clipPath></defs></svg>