<svg xmlns="http://www.w3.org/2000/svg" width="18" height="12" fill="none" viewBox="0 0 36 24"><g clip-path="url(#a)"><path fill="#464655" d="M0 0h36v23.992H0V-.001Z"/><path fill="#FF4B55" d="M26 9a8 8 0 1 1-16 0 8 8 0 0 1 16 0ZM11.6 9a6.4 6.4 0 1 0 12.8 0 6.4 6.4 0 0 0-12.8 0Z"/><path fill="#FF4B55" d="M18 14.275a5.16 5.16 0 1 0-5.16-5.158A5.16 5.16 0 0 0 18 14.275Z"/><path fill="#464655" d="M0 7.397h36v16.595H0V7.397Z"/><path fill="#FF4B55" d="M0 7.997h36v15.995H0V7.997Z"/><path fill="#73AF00" d="M0 15.994h36v7.998H0v-7.998Z"/></g><defs><clipPath id="a"><path fill="#fff" d="M0 0h36v23.995H0z"/></clipPath></defs></svg>