<svg xmlns="http://www.w3.org/2000/svg" width="18" height="12" fill="none" viewBox="0 0 36 24"><g clip-path="url(#a)"><path fill="#FF4B55" d="M0 0h36v23.992H0V-.001Z"/><path fill="#F0F0F0" d="M0 0h24v23.992H0V-.001Z"/><path fill="#73AF00" d="M0 0h12v23.992H0V-.001Z"/><path fill="#FFE15A" d="m19.114 12.386-1.117.558v.559h.559l.558-1.117Z"/><path fill="#57DFD7" d="M17.997 14.899a.28.28 0 0 1-.28-.28v-1.116a.28.28 0 1 1 .56 0v1.117a.28.28 0 0 1-.28.279Z"/><path fill="#57DFD7" d="M17.997 13.782a4.377 4.377 0 0 1-2.982-1.192.28.28 0 0 1 .38-.409 3.82 3.82 0 0 0 2.602 1.042c.955 0 1.88-.37 2.602-1.042a.28.28 0 0 1 .38.41 4.376 4.376 0 0 1-2.982 1.19Z"/><path fill="#82AFFF" d="M17.997 14.899c-.716 0-1.41-.21-2.005-.605l.309-.465c1.008.67 2.384.67 3.392 0l.31.465a3.612 3.612 0 0 1-2.006.605Z"/><path fill="#73AF00" d="M16.288 12.704c-.738 0-1.624-.62-1.86-2.005l.552-.093c.195 1.15.903 1.54 1.328 1.54.13-.004.267-.049.277-.141.013-.11.016-.137-.276-.235-.159-.054-.339-.115-.465-.26-.511-.582.18-1.2.513-1.496.059-.053.083-.097.076-.114-.018-.048-.127-.12-.25-.12-.356 0-.625-.2-.703-.523a.746.746 0 0 1 .365-.837l.256.497c-.069.035-.096.136-.078.208.006.029.023.096.16.096.341 0 .667.202.772.48.046.118.114.426-.226.73-.367.327-.586.573-.465.712.028.031.146.071.224.098.251.085.72.243.652.828-.042.368-.37.623-.816.635h-.036Z"/><path fill="#73AF00" d="M17.997 16.016a4.752 4.752 0 0 1-4.747-4.747h.559a4.193 4.193 0 0 0 4.188 4.188 4.193 4.193 0 0 0 4.189-4.188h.558a4.753 4.753 0 0 1-4.747 4.747Z"/><path fill="#FAC586" d="M18.276 15.178h-.558a.559.559 0 0 1 0-1.117h.558a.559.559 0 0 1 0 1.117Z"/><path fill="#A36D56" fill-rule="evenodd" d="M18.334 7.9c-.208 0-.337.018-.337.018 1.117.558.559 1.675.559 1.675v.009a6.05 6.05 0 0 0-.096-.2 1.675 1.675 0 0 0-1.498-.926h-.082v.559c.309 0 .559.25.559.558a1.095 1.095 0 0 0-.206 1.264l.126.253c.03.058.063.113.102.165l-.523.808-.104.314 1.407-.326.873.873v-.558l.559.558 1.117-.558-1.731-1.039a6.195 6.195 0 0 0-.232-1.038l1.416.82c.186.547.582 1.047 1.105 1.256.457-4.113-2.078-4.486-3.014-4.486Z" clip-rule="evenodd"/><path fill="#FFE15A" d="m16.88 8.476-.558.559v.558s.664-.336.888-.444c.156-.075.128-.252.038-.338-.07-.066-.368-.335-.368-.335Z"/></g><defs><clipPath id="a"><path fill="#fff" d="M0 0h36v23.995H0z"/></clipPath></defs></svg>