<svg xmlns="http://www.w3.org/2000/svg" width="18" height="12" fill="none" viewBox="0 0 36 24"><g clip-path="url(#a)"><path fill="#464655" d="M36 0H0v23.992h36V-.001Z"/><path fill="#F0F0F0" d="M36 15.735H0v8.257h36v-8.258Z"/><path fill="#FFE15A" d="M36 16.494H0v7.498h36v-7.498Z"/><path fill="#F0F0F0" d="M36 0H0v8.247h36V-.001Z"/><path fill="#5E7C24" d="M36 0H0v7.497h36V-.001Z"/><path fill="#FF4B55" d="M0 0v23.992l15.75-11.996L0-.001Z"/><path fill="#FFE15A" d="m8.175 16.494-2.926-2.142-2.923 2.142L3.46 13.05.519 10.934l3.626.013 1.105-3.45 1.108 3.452 3.623-.016-2.941 2.12 1.135 3.44Z"/><path fill="#F0F0F0" fill-rule="evenodd" d="M2.709 14.093h2.108c.17.19.548.268.908-.002.661-.362 1.94.002 1.94.002l.251-.268-.614-2.013-.22-.236s-.472-.283-1.368-.189c-.897.095-1.212-.031-1.212-.031s-.786.094-1.006.204c-.025.02-.252.252-.252.252l-.535 2.28Z" clip-rule="evenodd"/><path fill="#464655" fill-rule="evenodd" d="M1.34 14.334c.1.05.494.748.657.58.24-.356.991-1.037 1.102-1.439l.59-.524c.048.003.077.009.125.012-.176-.035.02-.164.079-.208l.103.132c-.052.096-.197.24-.324.191l-.308.28c.15.046.287.552.338.675l.25-.176-.162-.573.353-.382-.133-.205.088-.118s1.221.768 1.691.563c.013.004.029-.548.029-.548-.023-.005-2.114-.225-1.014-.661l-.133-.191.03-.103.22.279.5-.426 2.939 3.35c.16-.066.194-.105.205-.265l-2.88-3.305c.067-.094.296-.248.28-.382l.338-.294a.418.418 0 0 1 .22.176l.93-.787c.084.24 1.613-1.444 1.685-1.453L7.463 9.715l-.058-.044c.104-.376-.256.113-.469-.256l-.016.27-.426.397-.324-.015c-.096.103-.544.47-.529.632l.074.147c-.063.026-.26.311-.303.134l.215-.193.029-.132-.072-.112c-.344.676-.832-.454-1.103-.623l.044-.161c-.242-.273-.82-1.04-1.029-.22-.187.116-.47-.036-.632.058l-1.16 1.645.646.779 1.322-1.675.04-.474.277.31a.44.44 0 0 0 .265-.03l.783.875-.13.127c.044.05.074.08.118.13.044-.03.086-.065.13-.095l.054.077c-.065.036-.111.083-.177.119-.105-.069-.207-.154-.199-.29l-.44.368-.015.073-1.308 1.087-.118.015-.029.338.852-.706v-.102l.088.073.662-.529c.14.04-.56.55-.559.588l-.014.059-.103.088-.06-.044-.793.705H2.88l-.44.44c-.28-.065-.904.65-1.1.786Z" clip-rule="evenodd"/></g><defs><clipPath id="a"><path fill="#fff" d="M0 0h36v23.995H0z"/></clipPath></defs></svg>