<svg xmlns="http://www.w3.org/2000/svg" width="18" height="12" fill="none" viewBox="0 0 36 24"><g clip-path="url(#a)"><path fill="#0052B4" d="M36 0 0 23.991V-.001h36Z"/><path fill="#73AF00" d="M36 0v23.992H0L36-.001Z"/><path fill="#F0F0F0" fill-rule="evenodd" d="M36 0v4.806L7.212 23.992H0v-4.807L28.788 0H36Z" clip-rule="evenodd"/><path fill="#FF4B55" fill-rule="evenodd" d="M36 0v3.602L5.408 23.992H0v-3.603L30.592-.001H36Z" clip-rule="evenodd"/><path fill="#FFE15A" d="m7.2 2.535.62 1.679L9.2 3.07l-.304 1.768 1.768-.304-1.144 1.38 1.68.62-1.68.62 1.144 1.379-1.768-.304.304 1.767-1.38-1.143-.62 1.679-.62-1.68L5.2 9.997l.304-1.767-1.768.304 1.144-1.38-1.68-.62 1.68-.62-1.144-1.38 1.768.305L5.2 3.07l1.38 1.144.62-1.68Z"/><path fill="#FFE15A" d="M7.2 8.733a2.198 2.198 0 1 0 0-4.399 2.198 2.198 0 1 0 0 4.399Z"/><path fill="#0052B4" fill-rule="evenodd" d="M8.9 4.838c-.004 0-.004 0 0 0a2.394 2.394 0 0 0-1.7-.704A2.397 2.397 0 0 0 5.508 8.23a2.385 2.385 0 0 0 1.696.704c.664 0 1.26-.268 1.696-.704a2.39 2.39 0 0 0 .7-1.696c0-.663-.268-1.26-.7-1.695ZM7.2 8.533a2 2 0 1 1 0-4.001 2 2 0 0 1 0 4Z" clip-rule="evenodd"/></g><defs><clipPath id="a"><path fill="#fff" d="M0 0h36v23.995H0z"/></clipPath></defs></svg>