<svg xmlns="http://www.w3.org/2000/svg" width="18" height="12" fill="none" viewBox="0 0 36 24"><g clip-path="url(#a)"><path fill="#F0F0F0" d="M36 .003H0v23.992h36V.003Z"/><path fill="#FF4B55" d="M8.128 7.746a3.28 3.28 0 0 1-3.285 3.282l.002.009A3.282 3.282 0 0 1 1.56 7.755 3.48 3.48 0 0 0 3.04 9.49l.215-.166.059-.045-.418-.313-.132-.1.027-.006.644-.164-.313-.521-.045-.075.688.102-.102-.687.594.352.173-.67.413.55.412-.55.17.673.597-.357-.102.68.688-.098-.352.596.665.17-.55.412.28.209a3.515 3.515 0 0 0 1.477-1.736ZM7.9 19.21l-1.474-.184.182 1.472-1.188-.895-.577 1.367-.583-1.367-1.182.892.18-1.475-1.473.182.894-1.181-1.24-.524-.126-.053.125-.053 1.241-.53-.894-1.18 1.474.181-.181-1.472 1.187.893.578-1.365.583 1.37 1.182-.893-.182 1.472L7.9 15.69l-.894 1.18 1.367.583-1.367.577.894 1.181Z"/><path fill="#0052B4" d="m1.313 17.444.126.053v-.106l-.126.053Zm4.515-6.566L3.123 8.175l.313.521-.645.164-.026.007.132.099.418.313-.06.045-.215.166a3.48 3.48 0 0 1-1.48-1.735c0 .364.06.727.18 1.072l2.033 2.03c.345.12.708.18 1.073.18l-.003-.009c.039 0 .078 0 .116-.002.295-.01.588-.06.87-.148Zm0 0L3.123 8.175l.313.521-.645.164-.026.007.132.099.418.313-.06.045-.215.166a3.48 3.48 0 0 1-1.48-1.735c0 .364.06.727.18 1.072l2.033 2.03c.345.12.708.18 1.073.18l-.003-.009c.039 0 .078 0 .116-.002.295-.01.588-.06.87-.148Zm-4.39 6.62v-.107l-.125.053.126.053Zm5.849-5.163H19.72L.028.017 0-.001v23.99h18.952l-.01-.01L7.288 12.335ZM.719 1.298l16.497 10.318H5.55L17.215 23.27H.72V1.298Zm5.11 9.58L3.122 8.175l.313.521-.645.164-.026.007.132.099.418.313-.06.045-.215.166a3.48 3.48 0 0 1-1.48-1.735c0 .364.06.727.18 1.072l2.033 2.03c.345.12.708.18 1.073.18l-.003-.009c.039 0 .078 0 .116-.002.295-.01.588-.06.87-.148Zm-4.39 6.62v-.107l-.126.053.126.053Z"/><path fill="#FF4B55" d="M17.215 11.616.72 1.298v21.971h16.496L5.55 11.616h11.665ZM3.04 9.49l.216-.166.06-.045-.418-.313-.133-.1.027-.006.644-.164-.313-.521-.044-.075.687.102-.101-.687.593.352.174-.67.412.55.412-.55.171.673.597-.357-.102.68.687-.098-.352.596.665.17-.55.412.281.209a3.515 3.515 0 0 0 1.476-1.736 3.28 3.28 0 0 1-3.285 3.282l.003.009A3.284 3.284 0 0 1 1.56 7.755 3.48 3.48 0 0 0 3.04 9.49Zm-1.6 7.9 1.24-.528-.893-1.181 1.473.181-.181-1.472 1.187.893.578-1.365.583 1.37 1.182-.893-.181 1.472L7.9 15.69l-.893 1.18 1.366.583-1.366.577.893 1.181-1.473-.184.181 1.472-1.188-.895-.577 1.367-.583-1.367-1.182.892.181-1.475-1.473.182.893-1.181-1.24-.524-.126-.053.125-.053Z"/><path fill="#F0F0F0" d="M8.128 7.746a3.28 3.28 0 0 1-3.285 3.282l.003.009A3.282 3.282 0 0 1 1.56 7.755 3.48 3.48 0 0 0 3.04 9.49l.215-.166.06-.045-.418-.313-.133-.1.027-.006.644-.164-.313-.521-.044-.075.687.102-.101-.687.593.352.173-.67.413.55.412-.55.17.673.598-.357-.102.68.687-.098-.352.596.665.17-.55.412.281.209a3.515 3.515 0 0 0 1.476-1.736ZM7.9 19.21l-1.474-.184.182 1.472-1.188-.895-.577 1.367-.583-1.367-1.183.892.182-1.475-1.474.182.894-1.181-1.24-.524-.126-.053.125-.053 1.241-.53-.894-1.18 1.474.181-.182-1.472 1.188.893.578-1.365.583 1.37 1.182-.893-.182 1.472L7.9 15.69l-.894 1.18 1.367.583-1.367.577.894 1.181Z"/></g><defs><clipPath id="a"><path fill="#fff" d="M0 0h36v23.995H0z"/></clipPath></defs></svg>