<svg xmlns="http://www.w3.org/2000/svg" width="18" height="12" fill="none" viewBox="0 0 36 24"><g clip-path="url(#a)"><path fill="#F0F0F0" d="M36 0H0v23.995h36V0Z"/><path fill="#73AF00" d="M36 0H24v23.996h12V0ZM12 0H0v23.996h12V0Z"/><path fill="#73AF00" fill-rule="evenodd" d="m15.603 12.844-1.103 3.45h2.616v2.35c0 .227.086.444.236.604a.78.78 0 0 0 .568.252.781.781 0 0 0 .567-.252.888.888 0 0 0 .236-.604v-2.35H21.5l-1.125-3.45h.78L17.97 4.5l-3.124 8.344h.758Z" clip-rule="evenodd"/></g><defs><clipPath id="a"><path fill="#fff" d="M0 0h36v23.996H0z"/></clipPath></defs></svg>