<svg xmlns="http://www.w3.org/2000/svg" width="18" height="12" fill="none" viewBox="0 0 36 24"><g clip-path="url(#a)"><path fill="#0052B4" d="M0 0h36v23.989H0V-.001Z"/><path fill="#F0F0F0" d="M0 0h36v15.992H0V0Z"/><path fill="#0052B4" d="M0 0h36v7.996H0V-.001Z"/><path fill="#FFE15A" fill-rule="evenodd" d="M18 14.2a2.2 2.2 0 1 0 0-4.4 2.2 2.2 0 0 0 0 4.4Zm0 .8a3 3 0 1 0 0-6 3 3 0 0 0 0 6Z" clip-rule="evenodd"/><path fill="#0052B4" d="M19.485 12.429 18 12l-1.485.429-.495.857h3.96l-.495-.857Z"/><path fill="#57DFD7" d="m18 9.857-.99 1.715L18 12l.99-.428L18 9.857Z"/><path fill="#73AF00" d="M16.515 12.428h2.97l-.495-.857h-1.98l-.495.857Z"/></g><defs><clipPath id="a"><path fill="#fff" d="M0 0h36v23.995H0z"/></clipPath></defs></svg>