<svg xmlns="http://www.w3.org/2000/svg" width="18" height="12" fill="none" viewBox="0 0 36 24"><g clip-path="url(#a)"><path fill="#0052B4" d="M0 0h36v23.992H0V-.001Z"/><path fill="#FFE15A" d="M0 10.996h36v2H0v-2Z"/><path fill="#F0F0F0" d="m9 20.993-.518-2.068L7 20.457l.586-2.05-2.05.586 1.532-1.481L5 16.994l2.068-.517-1.532-1.482 2.05.585L7 13.531l1.482 1.532L9 12.995l.518 2.068L11 13.53l-.586 2.05 2.05-.586-1.532 1.482 2.068.517-2.068.518 1.532 1.481-2.05-.585.586 2.05-1.482-1.533L9 20.993Z"/></g><defs><clipPath id="a"><path fill="#fff" d="M0 0h36v23.995H0z"/></clipPath></defs></svg>