<svg xmlns="http://www.w3.org/2000/svg" width="18" height="12" fill="none" viewBox="0 0 36 24"><g clip-path="url(#a)"><path fill="#FFE15A" d="M36 0v23.992H0V-.001h36Z"/><path fill="#0052B4" d="M0 0v11.996h18V-.001H0Z"/><path fill="#F0F0F0" fill-rule="evenodd" d="M0 0v1.439l6.835 4.559L0 10.556v1.44h2.165L9 7.437l6.835 4.559H18v-1.44l-6.835-4.558L18 1.438V0h-2.165L9 4.558 2.165-.001H0Z" clip-rule="evenodd"/><path fill="#FF4B55" d="m0 11.996 6-3.998h1.344l-6 3.998H0ZM0-.001l6 3.998H4.656L0 .892v-.893Zm10.66 3.998 5.996-3.998H18l-6 3.998h-1.34ZM18 11.996l-6-3.998h1.344L18 11.103v.893Z"/><path fill="#464655" d="M9 0v11.996V-.001ZM0 5.997h18H0Z"/><path fill="#F0F0F0" d="M11.002 11.996H6.998V7.998H0V3.997h6.998V-.001h4.004v3.998H18v4.001h-6.998v3.998Z"/><path fill="#464655" d="M9 0v11.996V-.001ZM0 5.997h18H0Z"/><path fill="#FF4B55" d="M10.2 11.996H7.8V7.197H0v-2.4h7.8V0h2.4v4.799H18v2.4h-7.8v4.798Z"/><path fill="#0052B4" d="M9 8.038a2.041 2.041 0 1 0 0-4.082 2.041 2.041 0 0 0 0 4.082Z"/><path fill="#FFE15A" d="m9.817 6.202 1.02-.817H9.409L9 3.957l-.408 1.428H6.958l1.225.817-.408 1.428L9 6.814l1.225.816-.408-1.428ZM2.28 5.758 2 4.918l-.28.84H.84l.72.48-.28.84.72-.52.72.52-.28-.84.68-.48h-.84ZM16.44 6.238l.68-.48h-.84l-.28-.84-.28.84h-.88l.72.48-.28.84.72-.52.72.52-.28-.84ZM9.28 9.757 9 8.917l-.28.84h-.88l.72.48-.28.84.72-.52.72.52-.28-.84.68-.48h-.84ZM9 .92l-.28.84h-.88l.72.48-.28.84.72-.52.72.52-.28-.84.68-.48h-.84L9 .92Z"/></g><defs><clipPath id="a"><path fill="#fff" d="M0 0h36v23.995H0z"/></clipPath></defs></svg>