<svg xmlns="http://www.w3.org/2000/svg" width="18" height="12" fill="none" viewBox="0 0 36 24"><g fill-rule="evenodd" clip-path="url(#a)" clip-rule="evenodd"><path fill="#0052B4" d="M0 0h36v23.992H0V-.001Z"/><path fill="#F0F0F0" d="m27.237 16.919.513 1.589 1.67-.004-1.353.98.52 1.586-1.35-.984-1.35.984.52-1.587-1.353-.979 1.67.004.513-1.59Z"/><path fill="#FF4B55" d="m27.237 17.723.33 1.02 1.07-.003-.868.628.333 1.018-.865-.63-.865.63.333-1.018-.868-.628 1.071.003.33-1.02Z"/><path fill="#F0F0F0" d="m21.602 8.526.466 1.443 1.516-.003-1.229.889.472 1.44-1.225-.893-1.226.894.472-1.441-1.229-.89 1.517.004.466-1.443Z"/><path fill="#FF4B55" d="m21.602 9.33.282.873.918-.001-.744.538.285.872-.741-.54-.742.54.285-.872-.743-.538.918.001.282-.873ZM13.2 7.997H12l6 3.999v-.8l-4.8-3.2ZM.6 11.996h.6l6-4H6l-6 4h.6Z"/><path fill="#F0F0F0" d="m32.152 7.222.419 1.297 1.363-.002-1.104.8.423 1.295-1.101-.803-1.102.803.424-1.296-1.105-.8 1.364.003.419-1.297Z"/><path fill="#FF4B55" d="m32.152 8.026.235.728.764-.002-.62.449.239.727-.618-.451-.618.45.238-.726-.62-.449.765.002.235-.728Z"/><path fill="#F0F0F0" d="m27.262 2.135.466 1.443 1.517-.003-1.229.889.472 1.44-1.226-.893-1.225.894.472-1.441-1.23-.89 1.518.004.465-1.443Z"/><path fill="#FF4B55" d="m27.262 2.939.282.874.918-.002-.743.538.285.873-.742-.542-.741.542.285-.873-.744-.538.918.002.282-.874ZM11.4 3.998h.6L18 0h-1.2l-6 4h.6ZM5.4 3.998H6L0 0v.8L4.8 4h.6Z"/><path fill="#F0F0F0" d="M4.2 7.997 0 10.796v1.2l6-4h1v.134l-5.8 3.866h.6L7 8.53v3.466h4V8.53l5.2 3.466H18l-6-4h1.2l4.8 3.2v-.4l-4.2-2.8H18V3.999h-4.2L18 1.2v-1.2l-6 4h-1v-.134l5.8-3.866h-.6L11 3.465V-.001H7v3.466L1.8-.001H0l6 4H4.8L0 .798v.4l4.2 2.8H0v3.998h4.2Z"/><path fill="#FF4B55" d="M7.8 11.996V7.197H0v-2.4h7.8V0h2.4v4.799H18v2.4h-7.8v4.798H7.8Z"/></g><defs><clipPath id="a"><path fill="#fff" d="M0 0h36v23.995H0z"/></clipPath></defs></svg>