<svg xmlns="http://www.w3.org/2000/svg" width="18" height="12" fill="none" viewBox="0 0 36 24"><g clip-path="url(#a)"><path fill="#FF4B55" d="M0 0h36v23.992H0V-.001Z"/><path fill="#73AF00" d="M12 15.994h24v7.998H12v-7.998Z"/><path fill="#F0F0F0" d="M12 0h24v7.997H12V-.001ZM8.242 7.242c.253.253.442.38.569.505.126.127.252.253.252.19C9.063 8 9 8 9 8h-.126c-.316 0-.821-.253-1.263-.695-.38-.379-.822-.758-1.264-1.2l-.063-.063-.063.063c-.126.063-.19.127-.316.127H5.59c-.378.379-.757.694-1.136 1.01-.506.442-1.01.695-1.264.695h-.126C3 7.937 3 7.874 3 7.874c0-.063.063-.127.253-.253s.379-.316.568-.505h.063c.316-.253.632-.569 1.074-.948h-.126c-.127 0-.19-.063-.316-.063h-.063c-.127 0-.19-.063-.316-.063l-.19-.063c-.315-.063-.568-.19-.568-.316 0-.063.253-.126.568-.19H5.526c.063 0 .063-.062.063-.126l-.189-.19c-.063 0-.126-.062-.126-.062a.482.482 0 0 1-.316.126.482.482 0 0 1-.316-.126h-.126v.126a.136.136 0 0 1-.127.126H3.253a.136.136 0 0 1-.127-.126v-.505c0-.063.063-.127.127-.127h1.073c.063 0 .127.064.127.127v.063h.252a.482.482 0 0 1 .316-.126c-.695-1.137-1.137-2.148-1.074-2.337v-.063c.19 0 .821.947 1.58 2.21v.063h.062V4.4a1.391 1.391 0 0 1-.063-.063.225.225 0 0 1-.053-.082.116.116 0 0 1-.01-.044c0-.127.063-.19.126-.19v-.19h.127s.063-.063.063-.126v-.19h.505v.19l.127.127h.126v.189c.063.063.126.126.126.19 0 .126-.063.189-.126.189v.126H6.6c.063 0 .063-.063.063-.063H6.6c.758-1.263 1.39-2.21 1.579-2.21v.063c.063.19-.379 1.2-1.074 2.4.19 0 .316.063.316.126h.126v-.126c0-.063.064-.127.127-.127H8.81c.063 0 .126.064.126.127v.505a.136.136 0 0 1-.126.126H7.674a.136.136 0 0 1-.127-.126v-.126h-.126a.482.482 0 0 1-.316.126c-.19 0-.316-.063-.316-.19-.063.127-.189.19-.252.316v.379l.316.316c.568.569 1.01.947 1.326 1.2h.063Z"/><path fill="#F0F0F0" d="M6.221 3.137h-.379v.19h.38v-.19ZM5.653 2.632c.063.063.126.126.252.126v.126h.316v-.126c.126 0 .19-.063.253-.19a.136.136 0 0 0 .126-.126.136.136 0 0 0-.126-.126c-.063-.063-.127-.19-.316-.19A.136.136 0 0 0 6.032 2a.136.136 0 0 0-.127.126c-.126.063-.252.127-.252.253a.136.136 0 0 0-.127.126c-.063.063 0 .127.127.127Z"/></g><defs><clipPath id="a"><path fill="#fff" d="M0 0h36v23.995H0z"/></clipPath></defs></svg>