<svg xmlns="http://www.w3.org/2000/svg" width="18" height="12" fill="none" viewBox="0 0 36 24"><g clip-path="url(#a)"><path fill="#FD823D" d="M36 0H0v23.996h36V0Z"/><path fill="#464655" d="M21.32 7.94c2.73 2.49.9 6-2.15 7.66-.98.69-.51.08-.63-.52.36-.28.87-.56 1.24-.73-.03-.29-.55-.6.04-.76 2.7-1.29 2.44-5.19-.2-6.33-.1-.03.07-.32.09-.4-.48-.41-1.19-.94-1.48-1.42-.07-.09-.13-.17-.15-.18-.02.01-.08.09-.15.18-.29.48-1 1.01-1.48 1.42.02.08.19.37.09.4-2.64 1.14-2.9 5.04-.2 6.33.59.16.07.47.04.76.37.17.88.45 1.24.73-.12.6.35 1.21-.63.52-3.05-1.66-4.88-5.17-2.15-7.66-2.19.6-3.05 3.39-2.08 5.44.22 1.09 2.01 2.71 2.15 3.77.09.37-.02.2.68-.33.48-.42.67-.59.87-.72.23.06.85.37.85.43-.73.32-1.57.71-1.58 1.47.06.98 1.42.26.91-.48.25-.18.71-.37 1.01-.4 0 .22.01.96-.02 1.05-.34.35-.37.92.14 1.16a.815.815 0 0 0 .62 0c.51-.24.48-.81.14-1.16-.03-.09-.02-.83-.02-1.05.3.03.76.22 1.01.4-.51.74.85 1.46.91.48-.01-.76-.85-1.15-1.58-1.47 0-.06.62-.37.85-.43.2.13.39.3.87.72.7.53.59.7.68.33.14-1.06 1.93-2.68 2.15-3.77.97-2.05.11-4.84-2.08-5.44Zm-2.03.05c2.27.68 2.18 4.38-.05 5.05-.66-1.6-.56-3.11.05-5.05Zm-2.37 5.05c-2.23-.67-2.32-4.37-.05-5.05.61 1.94.71 3.45.05 5.05Z"/></g><defs><clipPath id="a"><path fill="#fff" d="M0 0h36v23.996H0z"/></clipPath></defs></svg>