<svg xmlns="http://www.w3.org/2000/svg" width="18" height="12" fill="none" viewBox="0 0 36 24"><g clip-path="url(#a)"><path fill="#FF4B55" d="M0 0h36v23.992H0V-.001Z"/><path fill="#F0F0F0" d="M0 5.997h36v11.997H0V5.997Z"/><path fill="#FAC586" d="M23 12a5 5 0 1 0-10 0h10Z"/><path fill="#0052B4" d="M13.206 13.37c.034.127.074.254.117.378h9.355c.044-.124.083-.25.117-.379-.458-.06-.515-.356-1.073-.356-.62 0-.62.367-1.24.367s-.62-.367-1.24-.367-.62.367-1.24.367-.62-.367-1.239-.367c-.62 0-.62.367-1.24.367-.621 0-.621-.367-1.242-.367-.559 0-.616.297-1.075.356ZM21.576 14.299c-.597 0-.597-.368-1.194-.368s-.597.368-1.194.368-.597-.368-1.194-.368c-.596 0-.596.368-1.194.368-.596 0-.596-.368-1.193-.368-.597 0-.597.368-1.195.368-.53 0-.59-.289-1.014-.354.101.25.221.492.36.721h8.485c.14-.23.26-.471.36-.723-.435.061-.492.356-1.027.356ZM22.05 14.958a.94.94 0 0 0-.466-.108c-.597 0-.597.367-1.194.367s-.597-.367-1.194-.367-.597.367-1.194.367c-.596 0-.596-.367-1.193-.367-.597 0-.597.367-1.195.367-.597 0-.597-.367-1.195-.367a.944.944 0 0 0-.467.108c.158.223.333.433.525.627h7.048a4.98 4.98 0 0 0 .525-.627ZM21.058 16c-.18-.105-.326-.231-.676-.231-.597 0-.597.367-1.194.367s-.597-.367-1.194-.367-.597.367-1.194.367c-.596 0-.596-.367-1.193-.367-.346 0-.491.123-.669.226.246.193.51.364.791.508h4.544c.278-.143.54-.312.785-.504ZM16.809 16.687a.95.95 0 0 0-.436.093c.51.177 1.057.275 1.628.275-.595 0-.596-.368-1.192-.368ZM18.005 17.055c.57-.001 1.117-.099 1.626-.276a.948.948 0 0 0-.434-.092c-.597 0-.598.366-1.192.367Z"/><path fill="#FF4B55" d="m18.653 11.466-1.572-.454a.207.207 0 0 1-.15-.197c-.007-.582-.033-2.632-.033-2.947 0-.367.368-.919 1.103-.919h.58c.054 0 .07.075.02.097-.265.113-.6.35-.6.822 0 .56.533.8.787.882a.19.19 0 0 1 .131.18v2.336a.208.208 0 0 1-.266.2ZM17.267 13.522a.07.07 0 0 1 .1.086c-.154.37-.531 1.058-1.204 1.058-.918 0-1.102-.735-1.102-1.286V9.483c0-.08.065-.145.145-.145h.261c.08 0 .145.065.145.145v3.713c0 .497 1.045.695 1.655.326ZM18.658 13.522a.07.07 0 0 0-.1.086c.154.37.53 1.058 1.203 1.058.919 0 1.102-.735 1.102-1.286V9.483a.145.145 0 0 0-.145-.145h-.26a.145.145 0 0 0-.146.145v3.713c0 .497-1.045.695-1.654.326Z"/><path fill="#464655" d="M19.97 12.683h-3.938a.053.053 0 0 1-.052-.053v-.078c0-.029.023-.053.052-.053h3.937c.03 0 .053.024.053.053v.079a.053.053 0 0 1-.053.052Z"/></g><defs><clipPath id="a"><path fill="#fff" d="M0 0h36v23.995H0z"/></clipPath></defs></svg>