<svg xmlns="http://www.w3.org/2000/svg" width="18" height="12" fill="none" viewBox="0 0 36 24"><g clip-path="url(#a)"><path fill="#464655" d="M36 0H0v23.992h36V-.001Z"/><path fill="#F0F0F0" d="m8.387 19.654-.37-1.202-.373 1.202H6.458l.96.726-.355 1.143.94-.7.97.733-.365-1.182.969-.72h-1.19ZM9.84 16.502l-.186-.601-.186.6h-.593l.48.364-.178.571.47-.35.485.367-.182-.591.484-.36h-.595ZM4.72 13.322l-.37-1.201-.373 1.201H2.792l.96.727-.356 1.143.941-.7.968.733-.363-1.182.968-.72H4.72ZM12.258 13.71l.968-.72h-1.19l-.37-1.203-.373 1.202h-1.185l.96.727-.356 1.143.941-.7.968.733-.363-1.183ZM7.418 9.363l-.355 1.143.94-.7.97.733-.365-1.183.969-.72h-1.19l-.37-1.201-.373 1.201H6.458l.96.727Z"/><path fill="#FF4B55" d="M0 0h36v23.992L0-.001Z"/><path fill="#FFE15A" d="M23.812 6.97c-.237.306-.796-.306-1.466-.32-.67-.014-1.145.641-1.34.865-.195.223-.823 1.395-.81 1.52.014.126.391-.348.531-.432.014.168-.154.363-.112.419.042.056.489-.335.642-.349.042.112-.083.223-.042.39.056.056.308-.278.475-.348.028.125-.153.363-.056.516.07.014.489-.474.628-.53.14-.056-.07.46 0 .502.126-.084.517-.53.642-.586.126-.056-.013.572.042.572.154-.111.545-.642.587-.725.041-.084-.042.809.39 1.283.433.475 1.09 1.02 1.159 1.02.084-.154-.028-.475.042-.461.195.209.558.516.642.516.084 0-.056-.335.056-.335.223.21.865 1.033 2.122 1.41-.084-.238-.266-.447-.28-.559.084.014.377.154.433.14.056-.014-.614-.838-.572-.95.153-.013.223.085.279.015-.07-.112-.656-.768-.656-.921 0-.154.181.028.237 0 .056-.028-.223-.614-.167-.684.055-.07.67.377.823.377.154 0 .042-.544.112-.572.07-.028.586.293.698.293.111 0 .098-.237.14-.21.041.028 1.256 1.242.837 2.666-.419 1.018-1.256 1.563-2.485 1.116.07.112.726.656 1.438.46.712-.195 1.577-.753 1.48-2.148-.098-1.396-.559-1.591-.629-1.8-.07-.21.112.055.266.111.153.056-.028-.293-.07-.446-.042-.154.46.32.586.362.126.042-.293-1.144-.419-1.228-.125-.083.126.028.21.056.084.028-.768-1.297-.95-1.297-.18 0 .154-.07.252-.07s-.977-.865-1.159-.865c-.181 0 .391-.224.447-.238.098.014-1.242-.711-2.443.014-.07-.055.566-.495.587-.683.006-.05-.21-.154-.224-.21-.014-.056.335-.223.35-.349-.085-.111-.238-.07-.322-.097-.02-.105.293-.363.265-.475-.02-.062-.251-.083-.307-.041-.056.041.147-.294.112-.391-.028-.042-.14-.014-.251.014-.07-.014.362-.614.279-.698-.084-.084-1.257.614-1.69 1.395-.432.782-.097 1.41-.153 1.675-.056.265-.125.53-.307.53-.181 0-.6-.279-.74-.418-.14-.14-.167-.238-.363-.293-.195-.056-.642.111-.81.125-.167.014-.823-.125-.864-.084-.042.042.642.293.795.377.154.084.168.196.28.265.11.07 1.158.377.823.81Zm4.09 1.968c.334.335 2.596 1.842 2.596 3.684s-1.647 1.786-2.122 1.73c.53.447 2.54.363 2.54-1.73 0-1.842-2.596-3.684-2.93-3.851-.336-.168-.42-.168-.085.167Z"/></g><defs><clipPath id="a"><path fill="#fff" d="M0 0h36v23.995H0z"/></clipPath></defs></svg>