<svg xmlns="http://www.w3.org/2000/svg" width="18" height="12" fill="none" viewBox="0 0 36 24"><g clip-path="url(#a)"><path fill="#0052B4" d="M36 0H0v23.992h36V-.001Z"/><path fill="#FF4B55" d="M36 11.996H0v11.996h36V11.996Z"/><path fill="#F0F0F0" d="M15.588 11.996 0 23.992V-.001"/><path fill="#FFE15A" d="M5.465 13.74a1.806 1.806 0 1 0 0-3.613 1.806 1.806 0 0 0 0 3.612Z"/><path fill="#FFE15A" d="m5.465 11.933-.678-2.709.678-.903.677.903-.677 2.71Z"/><path fill="#FFE15A" d="m5.465 11.934.677 2.708-.677.903-.678-.903.678-2.708ZM5.465 11.933l-2.71.678-.902-.678.903-.677 2.709.677ZM5.465 11.933l2.708-.677.903.677-.903.678-2.708-.678Z"/><path fill="#FFE15A" d="M5.465 11.933 6.9 9.54l1.118-.16-.16 1.118-2.394 1.436ZM5.465 11.934l-1.437 2.394-1.118.16.16-1.118 2.395-1.436Z"/><path fill="#FFE15A" d="M5.465 11.933 3.07 10.497l-.16-1.118 1.118.16 1.437 2.394ZM5.465 11.934l2.394 1.436.16 1.118-1.118-.16-1.436-2.394ZM.893 2.109l.094.702-.634.317a.096.096 0 0 0 .025.179l.698.127.105.701c.013.091.135.112.178.032l.337-.624.699.117a.095.095 0 0 0 .085-.16l-.49-.513.328-.63a.096.096 0 0 0-.126-.13l-.64.307-.496-.505a.096.096 0 0 0-.163.08ZM1.199 20.08l-.12.698-.699.114a.095.095 0 0 0-.029.179l.628.329-.108.7a.096.096 0 0 0 .161.083l.507-.495.633.32a.096.096 0 0 0 .129-.128l-.315-.636.5-.503a.096.096 0 0 0-.082-.162l-.702.103-.324-.63a.096.096 0 0 0-.18.028ZM13.211 11.04l-.408.58-.68-.198a.096.096 0 0 0-.103.15l.425.566-.4.586a.096.096 0 0 0 .11.144l.671-.229.434.56a.096.096 0 0 0 .171-.06l-.01-.708.667-.24a.096.096 0 0 0-.004-.18l-.678-.21-.021-.708a.095.095 0 0 0-.174-.052Z"/></g><defs><clipPath id="a"><path fill="#fff" d="M0 0h36v23.995H0z"/></clipPath></defs></svg>