<svg xmlns="http://www.w3.org/2000/svg" width="18" height="12" fill="none" viewBox="0 0 36 24"><g clip-path="url(#a)"><path fill="#F0F0F0" d="M36 0H0v23.992h36V-.001Z"/><path fill="#5E7C24" d="M36 0H9v23.992h27V-.001Z"/><path fill="#F0F0F0" d="M22.5 19.193a7.199 7.199 0 1 0 0-14.395 7.199 7.199 0 1 0 0 14.395Z"/><path fill="#5E7C24" d="M28.725 15.291a6.596 6.596 0 0 0 .548-9.314 6.601 6.601 0 0 0-9.317-.548 6.596 6.596 0 0 0-.549 9.315 6.601 6.601 0 0 0 9.318.547Z"/><path fill="#F0F0F0" d="m25.125 6.61 3.033 3.41-4.459-.977 4.182-1.83-2.307 3.938-.449-4.541Z"/></g><defs><clipPath id="a"><path fill="#fff" d="M0 0h36v23.995H0z"/></clipPath></defs></svg>