<svg xmlns="http://www.w3.org/2000/svg" width="18" height="12" fill="none" viewBox="0 0 36 24"><g clip-path="url(#a)"><path fill="#0052B4" d="M36 0H0v23.996h36V0Z"/><path fill="#F0F0F0" d="m15.708 11.998.057-.065-.058.065Z"/><path fill="#F0F0F0" d="M18 0v2.148l-3.176 1.764H18v4.173h-4.156L18 10.394v1.604h-1.876l-5.167-2.87v2.87H7.043V8.583L.896 11.998H0V9.85l3.176-1.765H0V3.912h4.156L0 1.603V0h1.876l5.167 2.87V0h3.913v3.415L17.105 0H18Z"/><path fill="#FF4B55" d="M10.125 0h-2.25v4.874H0v2.25h7.875v4.874h2.25V7.124H18v-2.25h-7.875V0Z"/><path fill="#FF4B55" d="M10.957 8.085 18 11.998v-1.106l-5.052-2.807h-1.992ZM5.052 8.085 0 10.892v1.107l7.043-3.914H5.052ZM12.948 3.913 18 1.106V0l-7.043 3.913h1.991ZM7.043 3.913 0 0v1.106l5.052 2.807h1.991Z"/><path fill="#73AF00" d="M28.644 16.015c-.03.1-.07.2-.11.27-.38.89-1.07 1.49-1.76 1.88-.69-.39-1.37-.99-1.76-1.88-.03-.06-.05-.13-.08-.2l1.84-3.38 1.84 3.38c.01-.02.02-.05.03-.07Z"/><path fill="#82AFFF" d="M28.874 12.395v2.2a5.362 5.362 0 0 1-.07.82 4.18 4.18 0 0 1-.13.5l-1.83-3.39-.07-.12-.14.25-1.76 3.26c-.02-.05-.03-.11-.05-.16-.03-.11-.05-.23-.08-.34a5.362 5.362 0 0 1-.07-.82v-2.2h4.2Z"/><path fill="#FFE15A" d="m26.844 12.525-.07-.12-.14.25-1.76 3.26v.01c.01.03.03.08.05.13 0 .01.01.02.01.03.03.07.05.14.08.2l1.76-3.28 1.76 3.28c.04-.07.08-.17.11-.27l.03-.09v-.01l-1.83-3.39Z"/><path fill="#F0F0F0" d="M28.21 11.868c.137.142.226.554-.078.481-.062-1.276-1.239.437-2.106.52-.28-.726.255-2.333-1.065-2.261 1.327-1.902 3.353-1.011 3.249 1.26Z"/><path fill="#73AF00" d="m26.877 7.72-.048-.12c.433-1.121-1.66-.482-1.092.377-.132-.488 1.337-1.4.992-.315-.462-.367-.785.554-.433.822.014-.196.302-.233.462-.32.053.182.162.604.409.49-.416-.266-.104-.686-.29-.935Z"/><path fill="#FF4B55" d="M26.885 7.561c.04-.377 1.126-.004.975.117-.032.244-.903.202-.975-.117Z"/><path fill="#DDD" d="M26.387 9.719c-1.632-1.668 1.175-.59 1.846-1.768.423.107-.479.5-.611.728.623.351 1.148-.84 1.39-.299-1.45.829-.561 1.65-2.625 1.339Z"/><path fill="#73AF00" d="M29.358 12.761c1.9 1.703 1.895 2.802-.002 4.504 2.923.038 2.921-4.547.002-4.504Z"/><path fill="#FFE15A" d="M24.192 17.265c-1.897-1.702-1.901-2.8-.002-4.504-2.92-.043-2.921 4.542.002 4.504Z"/><path fill="#73AF00" d="M22.002 8.257C23.9 9.961 23.897 11.06 22 12.761c2.923.039 2.92-4.547.002-4.504Z"/><path fill="#FFE15A" d="M31.548 12.76c-1.897-1.7-1.901-2.8-.002-4.503-2.919-.043-2.921 4.543.002 4.504Z"/></g><defs><clipPath id="a"><path fill="#fff" d="M0 0h36v23.996H0z"/></clipPath></defs></svg>