<svg xmlns="http://www.w3.org/2000/svg" width="18" height="12" fill="none" viewBox="0 0 36 24"><g clip-path="url(#a)"><path fill="#73AF00" d="M36 0H0v23.989h36V0Z"/><path fill="#FFE15A" fill-rule="evenodd" d="M18 2.477 3.06 12.014 18 21.551l14.94-9.537L18 2.477Z" clip-rule="evenodd"/><path fill="#0052B4" d="M18 18a6 6 0 1 0 0-12 6 6 0 0 0 0 12Z"/><path fill="#F0F0F0" d="M12.851 8.931a5.956 5.956 0 0 0-.646 1.536c3.326-.25 8.247.68 11.378 3.72a5.95 5.95 0 0 0 .39-1.66C20.74 9.806 16.27 8.838 12.851 8.931ZM18.248 14.048l.16.48.505.003c.066 0 .093.084.04.123l-.406.3.152.481a.068.068 0 0 1-.104.076l-.411-.293-.41.293a.068.068 0 0 1-.105-.076l.152-.481-.406-.3a.068.068 0 0 1 .04-.123l.505-.004.16-.479a.068.068 0 0 1 .128 0ZM20.211 15.287l.069.206.217.002a.03.03 0 0 1 .017.053l-.175.129.066.207a.03.03 0 0 1-.045.033l-.177-.127-.177.127a.03.03 0 0 1-.045-.033l.066-.207-.175-.13c-.023-.016-.011-.052.017-.052l.218-.002.068-.206a.03.03 0 0 1 .056 0ZM17.4 13.138l.069.206.217.002a.03.03 0 0 1 .017.053l-.175.129.066.207a.03.03 0 0 1-.045.033l-.177-.127-.177.127a.03.03 0 0 1-.045-.033l.066-.207-.175-.13c-.023-.016-.011-.052.017-.052l.217-.002.07-.206c.008-.026.046-.026.055 0ZM13.593 12.888l.069.206.217.002a.03.03 0 0 1 .017.053l-.175.129.066.207a.03.03 0 0 1-.045.033l-.177-.127-.177.127c-.023.016-.053-.006-.045-.033l.066-.207-.175-.13a.03.03 0 0 1 .017-.052l.218-.002.068-.206c.01-.026.047-.026.056 0ZM16.778 15.216l.069.206.217.002a.03.03 0 0 1 .017.053l-.175.129.066.207a.03.03 0 0 1-.045.033l-.177-.127-.177.127a.03.03 0 0 1-.045-.033l.066-.207-.175-.13a.03.03 0 0 1 .017-.052l.217-.002.069-.206c.01-.026.047-.026.056 0ZM15.025 12.744l.057.169.177.001c.023 0 .033.03.015.044l-.143.105.053.17a.024.024 0 0 1-.037.026l-.144-.103-.145.103a.024.024 0 0 1-.037-.027l.054-.169-.143-.105a.024.024 0 0 1 .014-.044l.178-.001.056-.169c.007-.021.038-.021.045 0ZM20.364 9.264l.07.211.222.002c.029 0 .04.037.018.054l-.18.132.068.212a.03.03 0 0 1-.046.034l-.18-.13-.182.13c-.023.016-.054-.007-.046-.034l.067-.212-.178-.132c-.024-.017-.012-.054.017-.054l.222-.002.07-.21a.03.03 0 0 1 .058 0ZM13.838 11.713l.056.169.178.001c.023 0 .032.03.014.043l-.143.106.054.17c.007.021-.018.04-.037.026l-.145-.103-.144.103a.024.024 0 0 1-.037-.027l.053-.17-.143-.105c-.018-.013-.009-.043.014-.043l.178-.001.056-.169c.008-.022.039-.022.046 0ZM14.696 14.09l.085.254.27.003c.034 0 .049.044.02.065l-.216.16.081.256a.036.036 0 0 1-.056.04l-.219-.156-.218.157a.036.036 0 0 1-.056-.04l.081-.257-.216-.16c-.029-.02-.014-.065.02-.066l.27-.002.085-.255c.011-.033.058-.033.069 0ZM21.305 15.34l.054.162h.17c.021 0 .03.029.013.042l-.137.1.051.162a.023.023 0 0 1-.035.025l-.137-.098-.138.098c-.018.013-.042-.004-.035-.025l.05-.161-.135-.101a.023.023 0 0 1 .013-.041l.17-.002.053-.16c.007-.021.036-.021.043 0ZM21.898 14.115l.069.206.217.002a.03.03 0 0 1 .017.053l-.175.129.066.207a.03.03 0 0 1-.045.032l-.177-.126-.177.126c-.023.017-.053-.005-.045-.032l.066-.207-.175-.13a.03.03 0 0 1 .017-.052l.217-.002.07-.206a.03.03 0 0 1 .055 0Z"/></g><defs><clipPath id="a"><path fill="#fff" d="M0 0h36v23.996H0z"/></clipPath></defs></svg>