<svg xmlns="http://www.w3.org/2000/svg" width="18" height="12" fill="none" viewBox="0 0 36 24"><g clip-path="url(#a)"><path fill="#FF4B55" d="M36 0H0v23.992h36V0Z"/><path fill="#5E7C24" d="M14.4 0H0v23.992h14.4V0Z"/><path fill="#FFE15A" d="M14.387 5.5a6.387 6.387 0 1 0 6.386 6.39 6.394 6.394 0 0 0-6.386-6.39Zm5.486 5.945h-4.42l.088-.088 1.607-1.608 1.428-1.428a5.474 5.474 0 0 1 1.297 3.124Zm-5.045-5.044a5.475 5.475 0 0 1 3.002 1.196l.118.1-3.12 3.123V6.4Zm-.883 0v4.42l-.159-.16-1.766-1.768-1.196-1.197.118-.099a5.474 5.474 0 0 1 3.003-1.196Zm-3.748 1.92 1.429 1.428 1.607 1.61.088.089h-4.42a5.478 5.478 0 0 1 1.296-3.127Zm-1.295 4.007h4.421l-.612.612-.844.843-.883.883-.784.785a5.485 5.485 0 0 1-1.3-3.123h.002Zm5.045 5.044a5.481 5.481 0 0 1-3.123-1.295l.67-.671.869-.868 1.582-1.584.002 4.418Zm.883 0v-4.42l3.124 3.124a5.482 5.482 0 0 1-3.126 1.296h.002Zm3.748-1.92-1.668-1.669-.842-.84-.615-.615h4.42a5.481 5.481 0 0 1-1.297 3.123h.002Z"/><path fill="#FF4B55" d="M11.031 7.592a.5.5 0 0 0-.5.5v5.177h.022a3.856 3.856 0 0 0 7.668 0h.021v-5.18a.5.5 0 0 0-.5-.497h-6.71Z"/><path fill="#F0F0F0" d="M12.109 8.887a.483.483 0 0 0-.483.483v3.579h.015a2.76 2.76 0 0 0 5.492 0h.015V9.367a.482.482 0 0 0-.483-.483l-4.556.003Z"/><path fill="#0052B4" d="M13.833 9.443a.118.118 0 0 0-.118.118v.871h.004a.672.672 0 0 0 1.336 0h.003v-.871a.118.118 0 0 0-.117-.118h-1.108ZM13.833 13.382a.117.117 0 0 0-.118.118v.872h.004a.672.672 0 0 0 1.336 0h.003V13.5a.118.118 0 0 0-.117-.118h-1.108ZM13.833 11.36a.118.118 0 0 0-.118.117v.871h.004a.672.672 0 0 0 1.336 0h.003v-.871a.118.118 0 0 0-.117-.118h-1.108ZM12.243 11.36a.118.118 0 0 0-.117.117v.871h.004a.672.672 0 0 0 1.335 0h.004v-.871a.118.118 0 0 0-.118-.118h-1.108ZM15.452 11.36a.118.118 0 0 0-.118.117v.871h.004a.671.671 0 0 0 1.336 0h.003v-.871a.118.118 0 0 0-.118-.118h-1.107Z"/></g><defs><clipPath id="a"><path fill="#fff" d="M0 0h36v23.996H0z"/></clipPath></defs></svg>