<svg xmlns="http://www.w3.org/2000/svg" width="18" height="12" fill="none" viewBox="0 0 36 24"><g clip-path="url(#a)"><path fill="#0052B4" d="M0 0h36v23.992H0V-.001Z"/><path fill="#F0F0F0" d="M0 0h36v15.994H0V0Z"/><path fill="#FF4B55" d="M0 0h36v7.997H0V-.001Z"/><g clip-path="url(#b)"><path fill="#FF4B55" d="M18 8.5a3.5 3.5 0 1 1 0 7 3.5 3.5 0 0 1 0-7Zm0 6.139a2.64 2.64 0 1 0 0-5.28 2.64 2.64 0 0 0 0 5.28Z"/><path fill="#0052B4" d="M18 13.213a1.214 1.214 0 1 1 0-2.428 1.214 1.214 0 0 1 0 2.428Z"/><path fill="#FFE15A" d="m17.92 11.08-.195.587-.618.004a.083.083 0 0 0-.05.15l.498.368-.186.59a.083.083 0 0 0 .128.093l.503-.36.503.36a.083.083 0 0 0 .128-.093l-.186-.59.497-.367a.083.083 0 0 0-.049-.15l-.618-.005-.196-.587a.083.083 0 0 0-.158 0Z"/><path fill="#73AF00" d="M15.704 12.028s-.07-.321.271.064c.024.135-.383-1.57.088-.679.064.044.082-1.41.281-.586.067.03.406-1.043.373-.408-.02.057.778-.773.441-.241.201-.102.235.015.018.123.401.03.007.214-.281.092a.321.321 0 0 1-.08.142c.45-.104.168.195-.248.185a.465.465 0 0 1-.054.216c.859-.297-.255.22-.23.547.808-.57-.09.25-.076.593.27-.642.398-.048.018.468a.57.57 0 0 1 .134.163c.037-.655.329-.24.198.376.065.02.136.055.188.097-.163-1.012.197.308.58.377-.338-1.177.448.84.895.302-.011-.005.723-.606.72-.61l-.014.199.363-.65.045.222.119-.718.105.106-.04-.669.137.074-.25-.497.118.033-.309-.296.163.014-.39-.177.143-.022-.38-.192.164-.008-.494-.17.09-.08-.426-.126.511-.039-.145-.18.39.2-.056-.27.341.352-.059-.246.32.318-.021-.24.316.535.04-.24.263.601.072-.262.117.745.098-.11-.128.718.163-.122-.3.645c.66-.36-.253.385-.274.46l.285-.03-.551.387.204.05-.458.18.112.086c-.253.045-.975-.028-1.165.232.189.175.383.055.559-.021.035.353-1.46.39-1.422.015.185.087.37.19.568.01-.303-.275-.253.11-.892-.148 0 0-.293-.147.221-.171-.216-.253-.316.052-.848-.26 0 0-.27-.187.242-.138-.166-.242-.34-.021-.718-.518 0 0-.173-.278.278-.031-.05-.309-.284-.269-.443-.772Z"/></g></g><defs><clipPath id="a"><path fill="#fff" d="M0 0h36v23.995H0z"/></clipPath><clipPath id="b"><path fill="#fff" d="M14 8h8v8h-8z"/></clipPath></defs></svg>