<svg xmlns="http://www.w3.org/2000/svg" width="18" height="12" fill="none" viewBox="0 0 36 24"><g clip-path="url(#a)"><path fill="#73AF00" d="M36 0H0v23.992h36V-.001Z"/><path fill="#FFE15A" d="M36 0H0v17.994h36V-.001Z"/><path fill="#82AFFF" d="M36 0H0v11.996h36V-.001Z"/><path fill="#FFE15A" d="m30.74 6.424 2.68-.157-2.68-.156 2.547-.843-2.627.54L32.9 4.33l-2.397 1.207 1.784-2.006-2.007 1.782 1.203-2.395-1.473 2.239.54-2.626-.843 2.546-.157-2.68-.157 2.68-.843-2.546.54 2.626-1.473-2.24 1.203 2.396-2.007-1.782 1.784 2.006L26.2 4.33l2.24 1.477-2.627-.54 2.547.843-2.68.156 2.68.157-2.547.843 2.627-.54-2.24 1.477 2.397-1.207-1.784 2.006 2.007-1.782-1.203 2.395 1.473-2.239-.54 2.626.843-2.546.157 2.68.157-2.68.843 2.546-.54-2.626 1.473 2.24L30.28 7.22l2.007 1.782-1.784-2.006L32.9 8.204l-2.24-1.477 2.627.54-2.547-.843Z"/><path fill="#82AFFF" d="M29.55 7.468a1.2 1.2 0 1 1-.001-2.399 1.2 1.2 0 0 1 .001 2.399Zm0-2.287a1.087 1.087 0 1 0 0 2.174 1.087 1.087 0 0 0 0-2.174Z"/></g><defs><clipPath id="a"><path fill="#fff" d="M0 0h36v23.995H0z"/></clipPath></defs></svg>