<svg xmlns="http://www.w3.org/2000/svg" width="18" height="12" fill="none" viewBox="0 0 36 24"><g clip-path="url(#a)"><path fill="#5E7C24" d="M36 23.992V-.001H0v23.993h36Z"/><path fill="#F0F0F0" d="M8.788 8.647c.053.34.258.447.437.433.211-.017.396-.21.396-.413V7.499a.106.106 0 0 1 .212 0v1.173a.424.424 0 0 0 .582.394l.107-.042c.01.98-.05 1.841-.051 1.857a.212.212 0 1 0 .423.03c.005-.069.07-1.012.051-2.057l.064-.025a.213.213 0 0 1 .174.007.606.606 0 0 0 .7-.114l.038-.038a.634.634 0 0 0 .154-.652l-.181-.542a.212.212 0 0 0 .157-.393l-.424-.212a.212.212 0 0 0-.297.257l.342 1.025a.211.211 0 0 1-.051.217l-.038.038a.182.182 0 0 1-.21.034.635.635 0 0 0-.442-.044c-.03-.682-.103-1.36-.26-1.83a.212.212 0 1 0-.402.135c.153.459.22 1.158.243 1.853l-.254.102V7.499a.531.531 0 0 0-1.062 0v1.028l-.216-1.07a.212.212 0 1 0-.416.084l.224 1.106ZM9.196 6.862a.212.212 0 0 0 .213-.212v-.212a.212.212 0 1 0-.425 0v.212c0 .117.095.212.212.212ZM11.32 6.65h.212a.212.212 0 1 0 0-.425h-.213a.212.212 0 1 0 0 .425Z"/><path fill="#F0F0F0" d="m9.936 9.44-1.061.637a.212.212 0 1 0 .218.364l1.062-.637a.212.212 0 1 0-.219-.364Z"/><path fill="#F0F0F0" d="m12.799 9.816.005-.004a.484.484 0 0 0 .097.2.417.417 0 0 0 .362.14.586.586 0 0 0 .442-.232.402.402 0 0 0 .418.014c.321-.165.39-.547.38-.747-.005-.116-.104-.198-.22-.2a.213.213 0 0 0-.204.22c0 .002.005.254-.149.348a.517.517 0 0 1-.066-.18.213.213 0 0 0-.226-.176.213.213 0 0 0-.196.212c0 .03-.007.303-.217.326-.024-.033-.025-.174 0-.278a.212.212 0 0 0-.327-.225l-.118.081c-.056-1.231-.186-2.666-.188-2.684a.212.212 0 1 0-.423.039c.002.02.152 1.679.199 2.947l-.033.031a.547.547 0 0 0-.465-.365c-.302-.027-.63.179-.747.473-.102.253-.038.501.162.633.143.095.36.125.633.03a1.777 1.777 0 0 1-.345.654c-.141.164-.377.354-.679.345a.558.558 0 0 1-.412-.176c-.246-.268-.224-.754-.224-.76a.212.212 0 0 0-.2-.222c-.118-.013-.218.083-.224.2-.002.027-.033.665.333 1.067a.974.974 0 0 0 .753.316c.356 0 .7-.174.975-.494.258-.3.433-.709.486-1.088 0 .726-.439 1.545-1.019 1.906-.246.153-.63.291-1.063.078-.534-.263-.47-.873-.467-.898a.212.212 0 1 0-.422-.053c-.004.038-.106.933.701 1.332.207.102.424.153.643.153.28 0 .564-.084.832-.251.707-.44 1.22-1.393 1.22-2.269 0-.137-.003-.286-.007-.443Zm-1.28.218c-.039-.025-.009-.105-.002-.12a.36.36 0 0 1 .296-.21l.017.001c.027.003.099.01.13.17a.77.77 0 0 1 .008.052c-.236.14-.395.143-.45.107ZM9.304 11.987a.213.213 0 0 0-.29.075.44.44 0 0 1-.037.05.316.316 0 0 1-.006-.017c-.089-.236-.026-.6.006-.72a.213.213 0 0 0-.41-.11c-.016.058-.146.573.006.98.097.259.247.324.355.333l.029.002c.229 0 .38-.23.423-.304a.212.212 0 0 0-.076-.289Z"/><path fill="#F0F0F0" d="M13.221 8.136a.21.21 0 0 0 .131-.045l1.07-.84c.015-.012.025-.027.036-.042a.53.53 0 0 0-.273-.984.527.527 0 0 0-.338.937l-.757.595a.212.212 0 0 0 .131.38Zm.964-1.486a.106.106 0 1 1 0 .213.106.106 0 0 1 0-.213ZM13.934 7.935a.212.212 0 0 0-.268.134c-.023.068-.126.418.082.626.08.08.187.121.317.121a.932.932 0 0 0 .294-.054.212.212 0 1 0-.135-.403c-.118.04-.168.033-.173.038a.406.406 0 0 1 .017-.195.212.212 0 0 0-.134-.267ZM16.364 7.057a.213.213 0 0 0 .263-.144l.124-.425a.212.212 0 0 0-.408-.119l-.123.425a.212.212 0 0 0 .144.263ZM15.126 7.032a.211.211 0 0 0 .29-.076.212.212 0 0 0-.075-.29c-.043-.025-.037-.095-.036-.11.007-.055.04-.123.098-.141a.212.212 0 1 0-.127-.406.583.583 0 0 0-.393.5.523.523 0 0 0 .243.523ZM13.442 10.471a.212.212 0 0 0-.04.421c.012.017.04.073.04.216a.212.212 0 0 0 .425 0c0-.63-.407-.637-.425-.637ZM17.044 9.592a.49.49 0 0 0 .08.007c.167 0 .335-.084.502-.251a.212.212 0 1 0-.3-.3c-.127.127-.195.13-.213.125-.04-.005-.077-.058-.085-.073a.212.212 0 0 0-.379.193c.013.026.136.257.395.3ZM20.653 8.1l-.004-.009a.212.212 0 0 0-.402.136c.016.05.11.3.345.33a.355.355 0 0 0 .047.004c.147 0 .285-.095.41-.284a.212.212 0 1 0-.353-.235.637.637 0 0 1-.043.058Z"/><path fill="#F0F0F0" d="M20.236 11.957c0-.905-.04-1.754-.095-2.498.301.522.572 1.05.745 1.512a.212.212 0 0 0 .398-.15c-.269-.716-.752-1.57-1.228-2.326-.116-1.144-.246-1.87-.248-1.883a.212.212 0 1 0-.418.076c.002.01.069.383.148 1.012-.163-.242-.314-.46-.441-.64l.01.004a.212.212 0 1 0 .134-.403l-.636-.212a.211.211 0 0 0-.27.142c-.128-.094-.291-.17-.444-.106-.093.038-.203.135-.203.377 0 .187.071.388.147.602.125.354.203.614.07.738-.073.069-.146.095-.217.077-.131-.033-.26-.208-.347-.467-.004-.01-.012-.019-.017-.029.045-.329.025-.725-.065-1.175a.212.212 0 1 0-.416.083c.139.694.097 1.26-.111 1.514a.381.381 0 0 1-.318.143.122.122 0 0 1-.101-.047c-.168-.193-.167-.816-.113-1.197a.212.212 0 0 0-.21-.242c-.366 0-.504.416-.626.782-.054.161-.154.461-.223.492-.129 0-.212-.377-.213-.637a.212.212 0 0 0-.425 0c0 .49.167 1.062.637 1.062.35 0 .492-.382.611-.736.02.282.084.574.24.754.11.127.257.194.423.194a.808.808 0 0 0 .725-.416c.123.175.274.29.445.334.05.012.1.019.15.019a.674.674 0 0 0 .462-.198c.029-.027.05-.057.071-.086a.572.572 0 0 0 .157.024c.172 0 .337-.07.44-.135a.212.212 0 0 0-.228-.358c-.002 0-.143.082-.24.063 0-.233-.084-.48-.161-.698-.044-.124-.089-.25-.11-.355.018.015.035.03.05.045a.212.212 0 0 0 .3 0c.014-.013.022-.03.031-.046.22.303.673.94 1.138 1.674.09.903.167 2.054.167 3.317a.212.212 0 0 0 .425 0ZM20.448 7.287a.212.212 0 1 0 .425 0c0-.25-.196-.653-.235-.732a.213.213 0 0 0-.38.19c.077.153.19.431.19.542Z"/><path fill="#F0F0F0" d="M19.482 11.98a.212.212 0 0 0-.285.094.604.604 0 0 1-.088.126c-.01-.084.013-.253.056-.392a.213.213 0 0 0-.353-.213l-.425.425a.212.212 0 1 0 .3.3l.011-.01a.44.44 0 0 0 .114.222.388.388 0 0 0 .334.117c.24-.039.39-.304.43-.384a.212.212 0 0 0-.094-.284Z"/><path fill="#F0F0F0" d="M19.4 10.272h-1.496c.013-.053.026-.103.04-.15.597-.125.952-.317 1.056-.574.036-.09.074-.27-.08-.477-.138-.186-.334-.27-.537-.229-.301.061-.57.386-.763.907-.6.102-.983.318-1.226.53-.086-.87-.423-1.387-.44-1.411a.212.212 0 1 0-.353.235c.004.006.389.595.389 1.58 0 .97-.773 1.699-1.274 1.699-.238 0-.343-.283-.389-.523.491-.344.924-.742 1.02-1.124.129-.517-.034-.899-.142-1.15a2.356 2.356 0 0 1-.015-.038l.013.013a.212.212 0 1 0 .3-.3c-.124-.124-.365-.32-.584-.228-.093.038-.203.135-.203.378 0 .11.046.217.099.341.095.224.214.502.12.881-.056.224-.332.496-.695.767a.209.209 0 0 0-.161-.078.212.212 0 0 0-.212.212c0 .038.001.079.004.12a11.16 11.16 0 0 1-1.366.748.212.212 0 0 0 .176.386c.119-.054.686-.318 1.268-.678.107.364.334.698.767.698.51 0 1.087-.417 1.42-1.039.04.071.087.14.142.203.534.616 1.578.623 1.622.623a.212.212 0 0 0 .016-.424c-.002 0-.171-.018-.265-.129-.057-.066-.08-.157-.07-.278.022-.262.866-.457 1.61-.469a.213.213 0 0 0 .196-.141l.213-.597a.212.212 0 0 0-.2-.284Zm-.932-1.013c.004-.001.01-.003.016-.003.02 0 .052.01.095.068.008.01.034.048.028.064-.025.06-.171.16-.477.25.135-.263.266-.365.338-.38Zm-1.282 2.79c-.216-.07-.436-.18-.588-.357-.167-.193-.229-.438-.188-.748a.617.617 0 0 1 .044-.09c.299-.027 1.098.091 1.153.32-.246.125-.428.302-.449.553a.895.895 0 0 0 .028.322ZM21.711 7.22l-.212-.637a.212.212 0 0 0-.413.088c.147 1.465.424 4.322.424 4.65 0 .294-.524.873-1.37 1.296a.212.212 0 0 0 .19.38c.773-.387 1.604-1.076 1.604-1.677 0-.313-.217-2.57-.34-3.838a.212.212 0 0 0 .117-.262ZM23.482 9.135a.212.212 0 0 0 .356-.202c-.038-.15-.05-.336-.03-.412a.215.215 0 0 0 .22-.182.212.212 0 0 0-.18-.24.383.383 0 0 0-.35.117.484.484 0 0 0-.106.228l-.246-.246a.212.212 0 1 0-.3.3l.636.637ZM23.96 9.357l-.796.57a.212.212 0 1 0 .247.345l.796-.57a.212.212 0 0 0-.247-.345ZM23.89 10.155a.212.212 0 0 0 .018.282c.01.015.05.096.043.305a.212.212 0 0 0 .424.016c.016-.434-.126-.592-.188-.64a.212.212 0 0 0-.297.037Z"/><path fill="#F0F0F0" d="M25.742 11.719a.212.212 0 0 0 .212-.213c0-.313-.016-.663-.042-1.026.21.345.386.663.498.924a.212.212 0 1 0 .39-.167c-.195-.454-.558-1.054-.972-1.675a46.655 46.655 0 0 0-.276-2.09.21.21 0 0 0 .227-.225c.005.021.01.042.023.061a.772.772 0 0 1 .077.52.212.212 0 1 0 .416.086 1.203 1.203 0 0 0-.135-.834.213.213 0 0 0-.293-.065.21.21 0 0 0-.095.192.208.208 0 0 0-.024-.061l-.358-.558a.213.213 0 0 0-.388.152c.003.017.165.948.31 2.071-.164-.23-.326-.454-.484-.669a81.926 81.926 0 0 0-.074-.864.212.212 0 0 0 .13-.299l-.213-.424a.212.212 0 0 0-.4.116c.025.254.051.534.077.829a57.504 57.504 0 0 0-.365-.476.212.212 0 0 0-.043-.351l-.425-.213a.213.213 0 0 0-.26.323c.01.014.534.67 1.159 1.515.108 1.403.18 2.862.078 3.168-.018.056-.05.122-.081.124-.129.018-.435-.269-.589-.576-.088-.178-.216-.196-.284-.193-.228.014-.317.265-.479.721-.116.326-.26.732-.422.899-.088-.108-.2-.467-.264-.836a.21.21 0 0 0 .41-.072c0-.316-.221-2.728-.345-4.049a.212.212 0 0 0 .122-.264l-.212-.637a.212.212 0 0 0-.413.087c.144 1.515.415 4.44.423 4.844l-.002-.01a.212.212 0 0 0-.42.06c.062.433.22 1.18.585 1.3.03.01.068.02.113.02.084 0 .19-.03.3-.14.23-.23.387-.671.525-1.06.031-.088.068-.192.103-.281.195.284.535.638.879.61.12-.008.341-.073.454-.413.113-.338.069-1.52-.008-2.65.18.25.358.507.53.76.066.636.113 1.273.113 1.796 0 .118.095.213.212.213Z"/><path fill="#F0F0F0" d="M27.353 10.602c-.15-1.12-.36-2.418-.492-3.215a.212.212 0 0 0 .218-.335l-.385-.504a.212.212 0 0 0-.378.165c.004.022.382 2.201.616 3.945.09.667-.04 1.263-.35 1.593-.197.213-.46.31-.778.29a.212.212 0 1 0-.027.424c.036.003.072.004.107.004.4 0 .747-.147 1.01-.428.4-.43.567-1.136.46-1.939ZM25.018 12.001a.215.215 0 0 0 .01.299c.012.01.026.033.026.044 0 .006-.009.024-.032.047a.212.212 0 1 0 .3.3.481.481 0 0 0 .156-.362.505.505 0 0 0-.166-.346.21.21 0 0 0-.294.018ZM24.27 16.657h-1.487v-.212a.212.212 0 1 0-.424 0v.212H11.107c.425.425 1.274.637 1.91.637h9.342v.425c0 .117.095.212.212.212h1.698a.638.638 0 0 0 0-1.274Zm0 .85h-1.487v-.213h1.699l-.038-.114a.206.206 0 0 1 .038.114.212.212 0 0 1-.212.212Z"/></g><defs><clipPath id="a"><path fill="#fff" d="M0 0h36v23.995H0z"/></clipPath></defs></svg>