<svg xmlns="http://www.w3.org/2000/svg" width="18" height="12" fill="none" viewBox="0 0 36 24"><g clip-path="url(#a)"><path fill="#0052B4" d="M36 0 0 23.991V-.001h36Z"/><path fill="#5E7C24" d="M36 0v23.992H0L36-.001Z"/><path fill="#FFE15A" d="M0 23.992V22.9L34.236 0H36V1.09l-34.236 22.9H0Z"/><path fill="#F0F0F0" d="m13.11 11.54 1.41-1.026-1.746.006-.534-1.661-.54 1.661H9.954l1.41 1.02-.534 1.661 1.41-1.026 1.41 1.026-.54-1.661ZM3.3 10.52 2.76 8.86l-.534 1.661-1.746-.006 1.41 1.026-.54 1.661 1.41-1.026 1.41 1.026-.534-1.661 1.41-1.02H3.3ZM8.04 6.453 7.5 4.798l-.54 1.655H5.22L6.63 7.48 6.09 9.14 7.5 8.115 8.91 9.14 8.37 7.48l1.41-1.026H8.04ZM11.364 3.425l-.54 1.655 1.41-1.026L13.65 5.08l-.54-1.655 1.41-1.026h-1.746L12.24.743 11.7 2.4H9.954l1.41 1.026ZM2.76.743 2.226 2.4H.48l1.41 1.026-.54 1.655 1.416-1.026 1.41 1.026-.54-1.655 1.41-1.026H3.3L2.76.743Z"/></g><defs><clipPath id="a"><path fill="#fff" d="M0 0h36v23.995H0z"/></clipPath></defs></svg>