<svg xmlns="http://www.w3.org/2000/svg" width="18" height="12" fill="none" viewBox="0 0 36 24"><g clip-path="url(#a)"><path fill="#F0F0F0" d="M0 0h36v23.992H0V-.001Z"/><path fill="#FF4B55" d="M0 0h36v11.996H0V-.001Z"/><path fill="#F0F0F0" d="M7.604 10.412a4.415 4.415 0 1 0-4.416-4.414 4.415 4.415 0 0 0 4.416 4.414Z"/><path fill="#FF4B55" d="M9.604 10.412a4.415 4.415 0 1 0-4.416-4.414 4.415 4.415 0 0 0 4.416 4.414Z"/><path fill="#F0F0F0" d="m11.768 7.693-.26-.796-.256.796h-.836l.676.488-.26.796.676-.492.676.492-.256-.796.676-.488h-.836ZM8.788 7.693l-.256-.796-.26.796h-.836l.676.488-.256.796.676-.492.676.492-.26-.796.676-.488h-.836ZM13.524 4.858h-.836l-.26-.792-.256.792h-.836l.676.492-.26.796.676-.492.676.492-.256-.796.676-.492ZM7.612 5.654l.676.492-.26-.796.676-.492h-.836l-.256-.792-.26.792h-.836l.676.492-.256.796.676-.492ZM9.604 3.603l-.26.792.676-.492.676.492-.26-.792.676-.492h-.832l-.26-.796-.26.796h-.832l.676.492Z"/></g><defs><clipPath id="a"><path fill="#fff" d="M0 0h36v23.995H0z"/></clipPath></defs></svg>