<svg xmlns="http://www.w3.org/2000/svg" width="18" height="12" fill="none" viewBox="0 0 36 24"><g clip-path="url(#a)"><path fill="#0052B4" d="M36 0H0v23.996h36V0Z"/><path fill="#F0F0F0" d="m15.708 11.998.057-.065-.058.065Z"/><path fill="#F0F0F0" d="M18 0v2.148l-3.176 1.764H18v4.173h-4.156L18 10.394v1.604h-1.876l-5.167-2.87v2.87H7.043V8.583L.896 11.998H0V9.85l3.176-1.765H0V3.912h4.156L0 1.603V0h1.876l5.167 2.87V0h3.913v3.415L17.105 0H18Z"/><path fill="#FF4B55" d="M10.125 0h-2.25v4.874H0v2.25h7.875v4.874h2.25V7.124H18v-2.25h-7.875V0Z"/><path fill="#0052B4" d="M10.957 8.085 18 11.998v-1.106l-5.052-2.807h-1.992Z"/><path fill="#F0F0F0" d="M10.957 8.085 18 11.998v-1.106l-5.052-2.807h-1.992Z"/><path fill="#FF4B55" d="M10.957 8.085 18 11.998v-1.106l-5.052-2.807h-1.992ZM5.052 8.085 0 10.892v1.107l7.043-3.914H5.052Z"/><path fill="#0052B4" d="M7.043 3.913 0 0v1.106l5.052 2.807h1.991Z"/><path fill="#F0F0F0" d="M7.043 3.913 0 0v1.106l5.052 2.807h1.991Z"/><path fill="#FF4B55" d="M12.948 3.913 18 1.106V0l-7.043 3.913h1.991ZM7.043 3.913 0 0v1.106l5.052 2.807h1.991Z"/><path fill="#FFE15A" d="M31.474 7.268c-.311-.213-2.249-.768-4.448-.768-2.2 0-4.138.555-4.449.768-.214 5.081-.316 9.371 4.448 11.232 4.767-1.862 4.664-6.151 4.449-11.232Z"/><path fill="#82AFFF" d="M22.507 10.506c.053 3.62.809 6.545 4.518 7.994 3.711-1.449 4.468-4.373 4.519-7.994h-9.037Z"/><path fill="#F0F0F0" d="M27.026 18.5c1.955-.764 3.085-1.941 3.728-3.41h-7.457c.644 1.469 1.774 2.646 3.729 3.41Z"/><path fill="#FAC586" d="M25.65 15.68c-.142-.448-2.387-4.632-2.53-4.632-.099 0-.361.386-.558.73.127 1.724.499 3.25 1.397 4.48.757-.064 1.79-.258 1.69-.577Z"/><path fill="#FFE15A" d="M26.4 10.813h.148v4.302h-.149v-4.302Zm1.512-.119h.148v4.42h-.148v-4.42Zm1.394.12h.148v4.3h-.148v-4.3Z"/><path fill="#464655" d="M24.372 14.02c.225.063 1.179.591 1.769.768.709.213 1.754.185 2.037.185.284 0 .826-.827 1.063-.827h1.42c.212 0 .14 1.418-.402 1.418H26.43c-.355 0-1.56-1.11-1.796-1.229-.236-.118-.462-.37-.262-.315Z"/><path fill="#F0F0F0" d="M25.357 7.622c.034-.152.413.005.578-.118.164-.12.61-.411.914.038.168.25.107.408.304.62.194.21 1.277.79 1.652.706-.037.228-.375.316-.375.316s.29.257.306.53c.017.271-.427-.458-1.155-.329-.29.052-.633.322-1.196.13-.567-.189-.51-1.058-.495-1.423.003-.132-.557-.37-.533-.47ZM26 11h1v3h-1zM27.5 11h1v3h-1zM28.9 11h1v3h-1z"/></g><defs><clipPath id="a"><path fill="#fff" d="M0 0h36v23.996H0z"/></clipPath></defs></svg>