<svg xmlns="http://www.w3.org/2000/svg" width="18" height="12" fill="none" viewBox="0 0 36 24"><g clip-path="url(#a)"><path fill="#FF4B55" d="M36 0H0v23.992h36V-.001Z"/><path fill="#0052B4" d="M36 0H0v15.994h36V0Z"/><path fill="#F0F0F0" d="M36 0H0v7.997h36V-.001Z"/><path fill="#F0F0F0" d="M15.74 5.638H5.853l-.034.322c-.007.07-.18 1.758-.18 5.466 0 1.742.59 3.278 1.75 4.567.815.904 1.878 1.664 3.25 2.325l.157.075.156-.075c1.373-.661 2.436-1.421 3.25-2.325 1.162-1.289 1.75-2.825 1.75-4.567 0-3.708-.172-5.396-.18-5.466l-.034-.322Z"/><path fill="#FF4B55" d="M10.797 17.994C8.823 17.044 6 15.157 6 11.426c0-3.732.178-5.428.178-5.428h9.237s.179 1.697.179 5.428-2.824 5.618-4.797 6.568Z"/><path fill="#F0F0F0" d="M11.22 10.448c.534.008 1.576.03 2.505-.281 0 0-.025.332-.025.719 0 .387.025.719.025.719-.852-.285-1.903-.291-2.506-.284v2.061h-.844v-2.06c-.602-.008-1.654-.002-2.505.283 0 0 .024-.332.024-.72 0-.386-.024-.718-.024-.718.928.31 1.97.29 2.505.28V9.154c-.487-.004-1.189.02-1.982.285 0 0 .024-.332.024-.72 0-.386-.024-.718-.024-.718.792.265 1.493.288 1.98.284-.025-.82-.264-1.853-.264-1.853s.492.039.688.039c.197 0 .688-.039.688-.039s-.238 1.034-.263 1.853c.487.004 1.188-.02 1.98-.284 0 0-.025.332-.025.719 0 .387.025.719.025.719-.794-.266-1.495-.29-1.983-.285v1.295Z"/><path fill="#0052B4" d="M10.796 13.159c-.994 0-1.526 1.378-1.526 1.378s-.296-.653-1.107-.653c-.549 0-.953.488-1.21.94.998 1.587 2.591 2.567 3.843 3.17 1.252-.603 2.846-1.583 3.845-3.17-.257-.452-.662-.94-1.21-.94-.812 0-1.108.653-1.108.653s-.533-1.378-1.527-1.378Z"/></g><defs><clipPath id="a"><path fill="#fff" d="M0 0h36v23.995H0z"/></clipPath></defs></svg>