<svg xmlns="http://www.w3.org/2000/svg" width="18" height="12" fill="none" viewBox="0 0 36 24"><g clip-path="url(#a)"><path fill="#FF4B55" d="M0 0h36v23.954H0V0Z"/><path fill="#0052B4" d="M0 0h36v15.97H0V0Z"/><path fill="#F0F0F0" d="M0 0h36v7.984H0V0Z"/><path fill="#0052B4" fill-rule="evenodd" d="m11.998 4.206-.161.002a7.007 7.007 0 0 0-2.71.622c-.076.03-.151.063-.222.094l.239 3.739c.165 1.953 1.438 3.091 2.854 3.538 1.415-.447 2.688-1.585 2.854-3.538l.236-3.727A7.012 7.012 0 0 0 12 4.206h-.002Z" clip-rule="evenodd"/><path fill="#F0F0F0" fill-rule="evenodd" d="m12 6.792-.7 1.363-.45-.586-1.18 1.559c.022.097.048.189.074.281.132.222.385.477.709.477.257 0 .514-.205.772-.205s.515.205.773.205c.257 0 .515-.205.772-.205.258 0 .515.205.773.205.32 0 .574-.248.706-.47.028-.094.054-.189.076-.29l-1.18-1.557-.45.586L12 6.792Zm-.775 3.094c-.258 0-.515.206-.772.206a.86.86 0 0 1-.516-.175c.048.101.1.2.154.295a.68.68 0 0 0 .362.111c.257 0 .514-.205.772-.205s.515.205.773.205c.257 0 .515-.205.772-.205.258 0 .515.205.773.205.132 0 .25-.042.356-.109a3.8 3.8 0 0 0 .154-.292.843.843 0 0 1-.51.17c-.258 0-.515-.206-.773-.206-.257 0-.515.206-.772.206-.258 0-.515-.206-.773-.206Zm0 .435c-.258 0-.515.205-.772.205a.886.886 0 0 1-.161-.016 3.598 3.598 0 0 0 1.706 1.223 3.59 3.59 0 0 0 1.703-1.221.83.83 0 0 1-.158.017c-.258 0-.515-.206-.773-.206-.257 0-.515.206-.772.206-.258 0-.515-.208-.773-.208Z" clip-rule="evenodd"/><path fill="#FFE15A" fill-rule="evenodd" d="m11.225 4.707-.097-.17-.097.17h-.196l.1.168-.1.17h.196l.097.168.097-.168h.196l-.097-.17.097-.168h-.196ZM13.063 4.875l.1-.168h-.197l-.097-.17-.097.17h-.196l.097.168-.097.17h.196l.097.168.097-.168h.196l-.099-.17ZM12.097 5.871 12 5.703l-.1.168h-.193l.097.168-.097.17h.194l.099.168.097-.168h.194l-.097-.17.096-.168h-.193Z" clip-rule="evenodd"/><path fill="#FF4B55" fill-rule="evenodd" d="M12.037 4.16h-.112.112Zm-2.925.675c-.112 0-.112.113-.225.113l.226 3.711c.112 1.912 1.462 3.037 2.812 3.487 1.462-.45 2.7-1.575 2.813-3.487l.225-3.711c-.113 0-.113-.113-.225-.113l-.113 3.712c-.113 1.912-1.35 3.036-2.7 3.486-1.35-.45-2.475-1.574-2.7-3.486l-.112-3.712Z" clip-rule="evenodd"/></g><defs><clipPath id="a"><path fill="#fff" d="M0 0h36v23.995H0z"/></clipPath></defs></svg>