<svg xmlns="http://www.w3.org/2000/svg" width="18" height="12" fill="none" viewBox="0 0 36 24"><g clip-path="url(#a)"><path fill="#82AFFF" d="M36 0H0v23.989h36V-.001Z"/><path fill="#F0F0F0" d="M36 0H0v11.994h36V0Z"/><path fill="#73AF00" d="M14.223 10.938a1.126 1.126 0 0 0-.05-.948c-1.124.236-.83 2.63.05.948ZM15.593 16.735c-3.352-.039.762 1.782.123-.83-.711-1.513-1.091.525-.123.83Z"/><path fill="#73AF00" d="M14.46 15.95c-1.738-1.316-1.674 1.275.037.04 1.394-1.587-1.174-1.892-.037-.04Z"/><path fill="#73AF00" d="M13.652 14.834c-1.112-1.875-2.032.548.02.051 1.889-.943-.374-2.196-.02-.05Z"/><path fill="#73AF00" d="M13.355 13.613c2.1-.226.415-2.19-.001-.055-.39-2.146-2.095-.194 0 .055Z"/><path fill="#73AF00" d="M13.381 12.506c2.108.124.772-2.09.008-.055-.028-2.18-2.034-.538-.008.055ZM21.688 10.939a1.126 1.126 0 0 1 .05-.949c1.123.236.83 2.63-.05.949ZM20.317 16.736c3.352-.04-.761 1.782-.122-.83.711-1.514 1.09.524.122.83Z"/><path fill="#73AF00" d="M21.451 15.951c1.738-1.317 1.673 1.274-.038.04-1.394-1.587 1.175-1.893.038-.04Z"/><path fill="#73AF00" d="M22.259 14.835c1.112-1.876 2.031.547-.02.05-1.89-.942.373-2.196.02-.05Z"/><path fill="#73AF00" d="M22.556 13.613c-2.1-.226-.416-2.19 0-.055.39-2.145 2.095-.194 0 .055Z"/><path fill="#73AF00" d="M22.53 12.506c-2.109.125-.772-2.09-.009-.054.029-2.18 2.034-.538.008.054Z"/><path fill="#82AFFF" d="M19.27 10.725c-3.712-1.448-6.015 3.83-2.593 5.209 3.712 1.446 6.015-3.832 2.593-5.209Z"/><path fill="#F0F0F0" d="M17.162 12.866h-.846v2.304h.846v-2.304ZM19.625 12.866h-.846v2.304h.846v-2.304ZM18.375 12.467h-.846v2.574h.846v-2.574Z"/><path fill="#73AF00" d="M20.086 15.179c-1.473-.34-2.752-.34-4.225 0 .845 2.435 2.921 3.544 4.225 0Z"/><path fill="#FFE15A" fill-rule="evenodd" d="M21.269 12.21c-.33-2.16-1.771-2.967-2.47-1.87-.356.558.422 1.427.98.9 1.7 3.189-1.527 5.858-1.83 6.11-.301-.252-3.528-2.921-1.829-6.11.558.527 1.336-.342.98-.9-.699-1.097-2.14-.29-2.47 1.87-.32 2.43 1.759 4.899 3.319 5.4h.001c1.56-.501 3.639-2.97 3.319-5.4Z" clip-rule="evenodd"/><path fill="#FFE15A" fill-rule="evenodd" d="M18.09 6.28c.25-.25-.13-.44-.04-.71.35.08.35-.33 0-.26.04-.15-.02-.24-.1-.25-.08.01-.14.1-.1.25-.35-.07-.35.34 0 .26.09.27-.29.46-.04.71-.3 1.39-3.3.42-1.96 2.33.53.93 1.33 1.23 2.1 1.18.77.05 1.57-.25 2.1-1.18 1.34-1.91-1.66-.94-1.96-2.33ZM17.6 8.1c-.03-.2-.49-.69-.56.1-.04-.1-.58-.46-.48.19-1.4-.93.55-.72 1.03-1.29-.03.32.23.68.01 1Zm1.74.29c.1-.65-.44-.29-.48-.19-.07-.79-.53-.3-.56-.1-.22-.32.04-.68.01-1 .48.57 2.43.36 1.03 1.29Z" clip-rule="evenodd"/><path fill="#F0F0F0" d="M22.018 17.872h-8.085c.017.133.812.527.812.527s-.701.34-.686.462c2.575-.068 5.258-.068 7.833 0 .016-.123-.685-.462-.685-.462s.794-.394.811-.527Z"/></g><defs><clipPath id="a"><path fill="#fff" d="M0 0h36v23.995H0z"/></clipPath></defs></svg>