<svg xmlns="http://www.w3.org/2000/svg" width="18" height="12" fill="none" viewBox="0 0 36 24"><g clip-path="url(#a)"><path fill="#FF4B55" d="M36 0H0v23.992h36V-.001Z"/><path fill="#464655" d="M24.49 14.584c-.324-.204-.52.121-.52.121l-.945.111.473-.4c.343.029.39-.073.482-.213.093-.14.482-.074.482-.074-.055-.428-.593-.186-.593-.186-.436-.046-.51.307-.51.307l-.677.52-1.49-.442c.155-.17.276-.339.294-.44.03-.172-1.1-.46-1.446-.818-.346-.36-.47-.93-.31-1.078.161-.149.297.272.47.62.174.346.495.619.705.445.21-.173-.222-.433-.42-.805-.198-.372.148-.508.309-.47.16.036.26.804.643 1.2.383.397.73.323.766.075.037-.248-.632-.553-.768-.764-.136-.21-.171-.623.051-.636.223-.012 1.039 1.206 1.73 1.673.755.508 1.36-.087 1.262-.335-.1-.248-.556-.148-1.088-.285-.532-.136-1.076-.855-1.236-1.251-.161-.396-.028-.396.064-.36.093.038.445.558 1.122.958.677.4 1.15.018 1.206-.075.055-.092.27-.51-.427-.412-.791.112-1.242-.359-1.567-.61-.324-.25-.454-.594-.306-.734.149-.14.637.49 1.379.688.681.182.958-.112.94-.381-.02-.27-.177-.158-.946-.232-.77-.075-1.308-.8-1.335-.846-.028-.046-.02-.307.37-.056s1.085.4 1.493.381c.408-.018.491-.567.297-.66-.195-.092-.241.047-.686.14-.445.093-1.28-.362-1.484-.576-.204-.214.019-.353.12-.335.103.019.77.41 1.364.39.593-.018.843-.566.825-.733-.019-.168-.186-.307-.436-.14-.25.167-.584.363-1.14.27-.557-.093-.816-.465-.742-.604.074-.14.612.102 1.465.009.853-.093.89-.846.806-.994-.083-.149-.287-.103-.575.167-.287.27-.843.325-1.279.325-.436 0-.445-.214-.38-.362.065-.149.528-.112 1.177-.316.65-.205 1.02-.725 1.122-1.05.102-.325-.148-.576-.25-.576-.102 0-.037-.149-.482.492s-1.613.892-1.613.892c-.084-.158-.214-.213-.214-.213-.788.158-1.738.84-1.738.84s.167.538-.042.958c-.27.54-1.194.203-.943-.65.21-.711 1.02-1.141 1.704-1.218.684-.077.719-.336.719-.336s-.719.235-.732-.087c.149.03.367.043.739.01.551-.049.858-.44.614-.525-.244-.083-.14.168-.558.364-.3.14-.613.077-.77.03.145-.318.756-.156.756-.156.007-.552-.725-.355-.725-.355-.322-.693-2.2.112-2.2.112l.444.36C18.223 5.858 18 7.01 18 7.01s-.223-1.152-1.31-1.759l.445-.36s-1.88-.805-2.2-.11c0 0-.733-.198-.726.354 0 0 .61-.162.756.155-.157.048-.47.111-.77-.029-.418-.196-.314-.447-.558-.364-.244.084.063.476.614.525.372.033.59.02.739-.01-.013.322-.732.087-.732.087s.035.259.72.336c.684.077 1.493.507 1.703 1.217.251.854-.673 1.191-.943.65-.21-.419-.042-.958-.042-.958s-.95-.681-1.738-.84c0 0-.13.056-.213.214 0 0-1.169-.25-1.614-.892-.445-.64-.38-.492-.482-.492-.102 0-.352.25-.25.576.102.325.473.846 1.122 1.05.649.204 1.112.167 1.177.316.065.148.056.362-.38.362s-.992-.056-1.28-.325c-.287-.27-.49-.316-.574-.167-.084.148-.047.901.806.994.853.093 1.391-.149 1.465-.01.074.14-.185.512-.742.605-.556.093-.89-.103-1.14-.27-.25-.167-.417-.028-.436.14-.018.167.232.715.825.734.594.018 1.261-.372 1.363-.39.102-.02.325.12.12.334-.203.214-1.038.669-1.483.576-.445-.093-.491-.232-.686-.14-.194.093-.11.642.297.66.408.019 1.103-.13 1.493-.38.39-.252.398.009.37.055-.027.047-.565.771-1.335.846-.77.074-.927-.037-.945.232-.019.27.258.563.94.38.741-.197 1.23-.826 1.378-.687.148.14.018.483-.306.734-.325.251-.776.722-1.567.61-.696-.098-.482.32-.427.412.056.093.529.474 1.206.075.676-.4 1.029-.92 1.122-.957.092-.037.225-.037.065.359-.161.396-.705 1.115-1.237 1.251-.531.137-.989.037-1.088.285-.098.248.507.843 1.261.335.693-.466 1.508-1.685 1.73-1.673.223.013.188.426.052.636-.136.211-.805.516-.768.764.037.248.383.322.766-.074.383-.397.482-1.165.643-1.202.16-.037.507.1.31.47-.199.373-.631.633-.421.806.21.174.531-.099.705-.446.173-.347.309-.768.47-.62.16.15.036.72-.31 1.079s-1.476.646-1.446.817c.018.102.139.27.293.44l-1.49.443-.676-.52s-.074-.353-.51-.307c0 0-.538-.242-.593.186 0 0 .39-.065.482.074.093.14.139.242.482.214l.473.4-.946-.112s-.195-.325-.52-.12c0 0-.407-.13-.509.26 0 0 .352-.066.445-.02 0 0 .14.317.584.13l.937.047-.529.26s-.667-.213-.64.344c0 0-.194.223-.018.446 0 0 .037-.241.213-.344 0 0 .343.14.566-.27l.677-.408.667.325s-.019.363.473.214c0 0 .167.111.213.26 0 0 .213-.232-.13-.502 0 0-.083-.316-.491-.195l-.38-.195 1.406-.418c.244.232.506.423.598.39.182-.062.322-.25.447-.517.126-.266.691-1.19.97-1.182.28.007.405.23.336.63-.07.398-.614 1.162-.967 1.32-.352.158-.407.233-.732.205-.325-.028-.436.111-.362.297.075.186.44.304.798.167.39-.148.537-.353.686-.232.148.12-.158.557-.575.688-.417.13-.732.046-.668.306.065.26.51.279.798.112.287-.168.612-.632.695-.483.084.148.028.53-.25.733-.278.205-.595.085-.658.27-.093.27.231.446.482.344.25-.102.537-.418.667-.697.13-.279.371-.037.297.223-.074.26-.012.474-.544.883L18 19.498l.989-1.523c-.532-.41-.47-.623-.544-.883-.074-.26.167-.502.297-.223.13.279.417.595.667.697.25.102.575-.075.482-.344-.063-.185-.38-.065-.658-.27-.278-.204-.334-.585-.25-.733.083-.15.408.315.695.483.288.167.733.148.798-.112.065-.26-.25-.176-.668-.306-.417-.13-.723-.567-.575-.688.149-.12.297.084.686.232.358.137.723.019.798-.167.074-.186-.037-.325-.362-.297-.324.028-.38-.047-.732-.205-.353-.158-.897-.921-.967-1.32-.07-.4.056-.623.335-.63.28-.007.845.916.97 1.182.126.266.266.455.448.518.092.032.354-.159.598-.391l1.406.418-.38.195c-.408-.12-.491.195-.491.195-.343.27-.13.502-.13.502.046-.149.213-.26.213-.26.492.149.473-.214.473-.214l.668-.325.676.409c.223.409.566.27.566.27.176.102.213.343.213.343.176-.223-.018-.446-.018-.446.027-.557-.64-.344-.64-.344l-.529-.26.937-.046c.445.186.584-.13.584-.13.093-.047.445.018.445.018-.102-.39-.51-.26-.51-.26Z"/></g><defs><clipPath id="a"><path fill="#fff" d="M0 0h36v23.995H0z"/></clipPath></defs></svg>