<svg xmlns="http://www.w3.org/2000/svg" width="18" height="12" fill="none" viewBox="0 0 36 24"><g clip-path="url(#a)"><path fill="#FF4B55" d="M36 0H0v23.992h36V-.001Z"/><path fill="#464655" fill-rule="evenodd" d="M18.909 18.129c-.21-.183-.466-.553-.463-.91.019-.266.201-.42.32-.096.166.359.524.951 1.016.604.215-.158.212-.39-.083-.364-.365-.025-.588-.226-.751-.742-.03-.284.088-.276.253-.094.212.243.633.61 1.098.414.26-.109.332-.332-.058-.387-.37.005-.672-.234-.973-.6-.164-.202.079-.406.225-.234.13.112.312.318.468.346.18.035.405.018.653-.114.267-.223.18-.385-.144-.422-.252.013-.39.108-.714-.108-.583-.394-1.047-.92-1.12-1.554-.047-.417.177-.543.364-.495.506.13.838 1.077 1.189 1.597.114.15.22.152.294.106.141-.12.253-.22.394-.354 0 0 1.032.185 1.593.368l-.625.222c-.237-.13-.523.01-.523.237-.224.155-.206.337-.11.512.03-.122.055-.28.232-.302.253.105.547-.044.547-.242l.738-.29.746.422c0 .286.27.376.551.299a.65.65 0 0 1 .263.377c.083-.22.065-.375-.065-.483.075-.285-.324-.558-.633-.376l-.536-.308.918-.026c.106.189.491.2.604 0 .096-.026.177-.043.364.097-.059-.226-.174-.322-.346-.322-.13-.232-.604-.23-.673.03l-.956.027.568-.404c.211.125.509-.014.568-.24.084-.1.189-.148.393-.08-.105-.187-.254-.243-.523-.116-.245-.186-.568.04-.519.227l-.755.513c-.547-.164-1.54-.418-1.54-.418.119-.124.238-.24.357-.365.042-.074-.023-.16-.113-.178-.886-.183-1.392-.54-1.7-1.446-.128-.38.15-.493.245-.26.132.322.278.675.675.949.137.095.545.017.304-.212-.25-.205-.357-.294-.48-.794 0-.254.258-.368.402-.125.154.499.17.713.45 1.035.211.243.487.406.624.402.247-.003.495-.27.165-.463-.484-.193-.661-.457-.732-.71-.078-.44.007-.652.272-.436.377.428 1.095 1.224 1.472 1.595.422.323.906.334 1.291.006.22-.254.142-.527-.203-.469-.78.066-1.37-.32-2.017-1.366-.126-.236-.161-.575.119-.323.322.437.793.808 1.23.967.44.158.802.07.942-.067.17-.17.125-.596-.168-.493a1.368 1.368 0 0 1-.935-.03c-.355-.14-.722-.437-1.113-.943-.134-.285-.09-.527.18-.38.641.543 1.467.983 1.889.719.31-.193.316-.69-.078-.658-.794.108-1.094-.068-1.856-.74-.173-.13-.161-.458.115-.248.64.413 1.515.574 1.859.358.309-.193.264-.784-.257-.575-.417.254-.877.247-1.798-.412-.233-.193-.06-.445.132-.337.74.423 1.82.603 2.101-.255.11-.328-.088-.52-.378-.293-.637.59-1.359.3-1.763.004-.116-.069-.328-.414.045-.35.965.22 1.92.029 2.093-.655.1-.221-.097-.614-.45-.285-.463.458-.954.473-1.572.47-.314-.066-.317-.412-.054-.463.488.01.969-.203 1.354-.419.377-.216.689-.52.788-.94.06-.376-.302-.776-.52-.376-.323.583-1.038 1.133-1.834 1.233-.04-.07-.145-.247-.274-.197-.233.09-.511.211-.797.347-.618.293-.875.435-.8.94.076.53-.33.863-.667.77-.294-.078-.456-.343-.403-.803.042-.366.41-.81.824-1.041.269-.15.674-.233 1.161-.341.297-.058.448-.174.465-.295 0 0-.202.149-.527.127-.154-.011-.256-.079-.295-.148.113-.023.317.004.501.004.245-.002.813-.057.964-.401.046-.227-.103-.268-.242-.123-.149.158-.21.299-.51.352-.182.032-.364.069-.599.012.132-.157.342-.317.521-.287.059.01.137.064.2.161.038-.248-.03-.529-.695-.412.011-.188-.385-.27-.623-.266-.135.004-.41.084-.61.18a4.316 4.316 0 0 1-.997.195c.214.182.254.193.467.347-.322.121-.572.37-.685.533 0 0 .376-.01.472.032-.394.115-.571.184-.78.397.073.013.183.034.23.052.048.017.036.05-.004.08-.085.064-.436.471-.538.569-.102-.098-.453-.505-.538-.57-.04-.03-.052-.062-.003-.08.047-.017.156-.038.229-.05-.209-.214-.386-.283-.78-.398.096-.043.472-.032.472-.032a1.554 1.554 0 0 0-.685-.533c.213-.154.253-.165.467-.347a4.314 4.314 0 0 1-.997-.196c-.199-.095-.475-.175-.61-.179-.238-.003-.634.078-.623.266-.665-.117-.733.164-.695.412.063-.097.141-.152.2-.161.179-.03.389.13.52.287-.234.057-.416.02-.598-.012-.3-.053-.361-.194-.51-.352-.14-.145-.289-.104-.242.123.151.344.719.399.964.4.184 0 .388-.026.501-.003-.038.07-.141.137-.295.147-.325.023-.527-.126-.527-.126.017.121.168.237.465.295.487.108.893.19 1.16.34.415.233.783.676.825 1.042.053.46-.11.725-.402.804-.337.092-.744-.242-.667-.77.074-.506-.183-.648-.8-.94a12.26 12.26 0 0 0-.798-.348c-.129-.05-.233.128-.274.197-.795-.1-1.51-.65-1.833-1.233-.219-.4-.582 0-.521.376.099.42.411.724.788.94.385.216.866.43 1.354.419.263.051.26.397-.054.463-.618.003-1.11-.012-1.572-.47-.353-.329-.55.064-.45.285.174.684 1.128.875 2.093.655.373-.064.16.281.045.35-.404.296-1.126.585-1.763-.004-.29-.227-.488-.035-.378.293.28.858 1.36.678 2.101.255.191-.108.365.144.132.337-.921.659-1.381.666-1.798.412-.52-.21-.566.382-.257.575.344.216 1.219.055 1.86-.358.275-.21.287.118.114.248-.762.672-1.063.848-1.856.74-.394-.032-.388.465-.078.658.422.264 1.248-.175 1.888-.719.271-.147.315.095.181.38-.39.506-.758.804-1.113.942a1.368 1.368 0 0 1-.935.03c-.293-.102-.338.324-.168.494.14.138.503.225.942.067.437-.16.908-.53 1.23-.967.28-.252.245.087.119.323-.648 1.045-1.238 1.432-2.017 1.366-.345-.058-.424.215-.203.469.385.328.87.317 1.291-.006.377-.37 1.095-1.167 1.472-1.595.265-.216.35-.003.272.437-.07.252-.248.516-.732.71-.33.193-.082.459.165.462.137.004.413-.16.625-.402.279-.322.295-.536.449-1.035.144-.243.403-.13.403.124-.123.501-.231.59-.481.795-.241.23.167.307.304.212.397-.274.543-.627.675-.95.095-.232.373-.119.244.261-.307.907-.813 1.263-1.699 1.446-.09.018-.155.104-.112.178.117.126.237.24.355.365 0 0-.992.255-1.54.418l-.754-.513c.05-.187-.274-.413-.52-.227-.268-.127-.417-.071-.522.116.205-.068.309-.02.393.08.06.226.357.365.568.24l.568.404-.956-.027c-.069-.26-.542-.261-.673-.03-.172 0-.287.096-.346.322.187-.14.268-.123.364-.097.113.2.498.189.604 0l.918.026-.536.308c-.31-.182-.708.091-.633.376-.13.108-.148.263-.065.483a.65.65 0 0 1 .263-.377c.281.077.551-.014.551-.299l.746-.422.738.29c0 .198.294.347.547.242.177.021.202.18.231.302.097-.175.115-.357-.11-.512 0-.227-.285-.368-.522-.237l-.625-.222c.562-.183 1.593-.368 1.593-.368.14.134.253.233.394.354.074.046.18.044.295-.106.35-.52.682-1.467 1.188-1.597.187-.048.41.078.363.495-.072.633-.536 1.16-1.12 1.554-.324.216-.46.12-.712.108-.325.037-.412.199-.145.422a.976.976 0 0 0 .653.114c.156-.028.338-.234.468-.346.146-.172.39.032.225.234-.3.366-.603.605-.972.6-.39.055-.318.278-.06.387.466.197.887-.17 1.1-.414.164-.182.282-.19.252.094-.163.517-.386.717-.75.742-.296-.027-.3.206-.084.364.492.347.85-.245 1.017-.604.118-.324.3-.17.319.096.004.357-.252.727-.463.91-.21.183.909 1.345.909 1.345s1.12-1.162.909-1.345Z" clip-rule="evenodd"/></g><defs><clipPath id="a"><path fill="#fff" d="M0 0h36v23.995H0z"/></clipPath></defs></svg>