<svg xmlns="http://www.w3.org/2000/svg" width="18" height="12" fill="none" viewBox="0 0 36 24"><g clip-path="url(#a)"><path fill="#FF4B55" fill-rule="evenodd" d="M0 0h36v23.994H0V-.002Z" clip-rule="evenodd"/><path fill="#0052B4" fill-rule="evenodd" d="M0 7.976h36v16.01H0V7.977Z" clip-rule="evenodd"/><path fill="#F0F0F0" fill-rule="evenodd" d="M0 15.935h36v8.058H0v-8.058Z" clip-rule="evenodd"/><g clip-path="url(#b)"><path fill="#FFE15A" d="M16.413 4.577a.663.663 0 0 0-.44-.329c-.603-.127-1.77-.342-2.831-.343v-.453h.227v-.226h-.226v-.227h-.227v.227h-.226v.226h.226v.453h.002c-1.061 0-2.229.216-2.83.344a.662.662 0 0 0-.441.328.693.693 0 0 0-.045.573l.48 1.324c.012.033.042.05.066.073l.164.982h5.436l.16-.965a.22.22 0 0 0 .07-.09l.48-1.324a.693.693 0 0 0-.045-.573ZM14.412 6.17h-1.155V4.371c.516.033 1.056.201 1.34.305.032.027.088.178.052.35l-.237 1.144ZM11.41 5.027a.51.51 0 0 1 .04-.345c.295-.11.838-.278 1.354-.311v1.8h-1.156l-.238-1.144Zm-1.382-.032a.24.24 0 0 1 .015-.198.209.209 0 0 1 .139-.105c.215-.046.52-.102.851-.157a.974.974 0 0 0-.066.584l.218 1.051h-.732l-.425-1.175Zm5.578 1.175h-.732l.218-1.051a.974.974 0 0 0-.066-.584c.332.055.636.11.852.157a.21.21 0 0 1 .139.105.24.24 0 0 1 .015.198l-.426 1.175Z"/><path fill="#FF4B55" d="M8.726 7.529a.227.227 0 0 0-.226.226v7.91c0 2.511 2.028 4.547 4.53 4.547 2.501 0 4.53-2.036 4.53-4.547v-7.91a.226.226 0 0 0-.227-.226H8.727Z"/><path fill="#FFE15A" d="m11.39 15.916-.4.1.879-1.582-.396-.22-1.068 1.921h-1v.453h.488l-.629.503.283.354.534-.427-.21.631.43.143.413-1.24.785-.197-.11-.44ZM14.67 15.916l.4.1-.88-1.582.397-.22 1.067 1.921h1v.453h-.487l.628.503-.283.354-.534-.427.21.631-.429.143-.414-1.24-.785-.197.11-.44ZM11.67 8.208h-1.132l.34.453.793.227-.453.226h.68l-.227-.906ZM14.389 8.208h1.132l-.34.453-.792.227.453.226h-.68l.227-.906Z"/><path fill="#F0F0F0" d="M16.278 8.305a.257.257 0 0 0-.45.223l.058.234a.453.453 0 0 1-.237.515l-1.034.517-.453-.453.546-1.093a.151.151 0 0 0-.16-.217l-1.065.177-.453.906-.453-.906-1.066-.177a.152.152 0 0 0-.16.217l.546 1.093-.453.453-1.034-.517a.453.453 0 0 1-.236-.515l.058-.234a.257.257 0 0 0-.45-.223 3.782 3.782 0 0 0-.83 2.363v4.788s.947-.19 1.801-1.432a.89.89 0 0 1 .69-.377l-.452 1.356.906.226.522-.62.158.394-1.133 3.85s.68.453 1.586.453 1.585-.453 1.585-.453l-1.132-3.85.157-.394.522.62.906-.226-.452-1.356a.89.89 0 0 1 .69.377c.855 1.243 1.8 1.432 1.8 1.432v-4.788c0-.86-.292-1.692-.828-2.363Zm-2.827 5.687-.421.105-.422-.105-1.164-4.198H14.615l-1.164 4.198Z"/><path fill="#FF4B55" d="M13.03 14.437a1.7 1.7 0 0 1-1.699-1.699V9.681h3.397v3.057a1.7 1.7 0 0 1-1.698 1.699Z"/><path fill="#F0F0F0" d="M12.69 14.286a1.584 1.584 0 0 0 .68 0V9.794h-.68v4.492Z"/><path fill="#F0F0F0" d="M14.615 11.662h-3.17v.68h3.17v-.68Z"/></g></g><defs><clipPath id="a"><path fill="#fff" d="M0 0h36v23.995H0z"/></clipPath><clipPath id="b"><path fill="#fff" d="M8 3h10v18H8z"/></clipPath></defs></svg>