<svg xmlns="http://www.w3.org/2000/svg" width="18" height="12" fill="none" viewBox="0 0 36 24"><g clip-path="url(#a)"><path fill="#73AF00" d="M36 0H0v23.992h36V-.001Z"/><path fill="#FFE15A" d="M36 6.854H0v10.283h36V6.854Z"/><path fill="#464655" d="m31.246 12.4 2.015-1.463H30.77L30 8.568l-.77 2.369h-2.49l2.014 1.463-.77 2.368L30 13.305l2.016 1.463-.77-2.368ZM18.77 10.937 18 8.568l-.77 2.369h-2.49l2.014 1.463-.77 2.368L18 13.305l2.016 1.463-.77-2.368 2.015-1.463H18.77Z"/><path fill="#FF4B55" d="M0 0v23.992l12-11.996"/></g><defs><clipPath id="a"><path fill="#fff" d="M0 0h36v23.995H0z"/></clipPath></defs></svg>