<svg xmlns="http://www.w3.org/2000/svg" width="18" height="12" fill="none" viewBox="0 0 36 24"><g clip-path="url(#a)"><path fill="#464655" d="M0 0h36v23.992H0V-.001Z"/><path fill="#F0F0F0" d="M0 0h36v15.994H0V0Z"/><path fill="#73AF00" d="m25.204 12.703 1.952-1.415h-2.412L24 8.997l-.744 2.29h-2.412l1.952 1.416-.744 2.292L24 13.579l1.948 1.416-.744-2.292ZM12.744 11.288 12 8.997l-.744 2.29H8.844l1.952 1.416-.744 2.292L12 13.579l1.948 1.416-.744-2.292 1.952-1.415h-2.412Z"/><path fill="#FF4B55" d="M0 0h36v7.997H0V-.001Z"/></g><defs><clipPath id="a"><path fill="#fff" d="M0 0h36v23.995H0z"/></clipPath></defs></svg>