<svg xmlns="http://www.w3.org/2000/svg" width="18" height="12" fill="none" viewBox="0 0 36 24"><g clip-path="url(#a)"><path fill="#0052B4" d="M0 0h36v23.992H0V-.001Z"/><path fill="#FFE15A" d="M0 4.498h36v14.995H0V4.498Z"/><path fill="#FF4B55" d="M0 5.997h36v11.997H0V5.997Z"/><g clip-path="url(#b)"><path fill="#F0F0F0" d="m29.411 9.223-1.457.514 1.457.514 1.457-.514-1.457-.514Z"/><path fill="#FFE15A" d="M7.398 9.566h21.055a.18.18 0 0 1 .186.171.18.18 0 0 1-.186.172H7.398a.18.18 0 0 1-.187-.172.18.18 0 0 1 .187-.171Z"/><path fill="#F0F0F0" d="m28.015 10.251-1.457.514 1.457.515 1.457-.514-1.457-.515Z"/><path fill="#FFE15A" d="M6.001 10.595h21.056a.18.18 0 0 1 .186.17.18.18 0 0 1-.186.172H6a.179.179 0 0 1-.186-.171.18.18 0 0 1 .186-.171ZM3.682 11.708h28.636a.255.255 0 0 1 .253.257.255.255 0 0 1-.253.258H3.682a.255.255 0 0 1-.253-.258.255.255 0 0 1 .253-.257Z"/><path fill="#F0F0F0" d="M26.411 11.965c-1.714 1.713-4 5.14-8.571 5.14-4 0-6.857-3.427-8.572-5.14 1.714-1.714 4.571-5.142 8.572-5.142 4.571 0 6.857 3.428 8.571 5.142Z"/><path fill="#464655" d="M23.326 12.422h-.416v1.371h.416v-1.371ZM22.494 12.422h-.415v1.371h.415v-1.371ZM21.663 12.422h-.415v1.371h.415v-1.371ZM20.832 12.422h-.415v1.371h.415v-1.371ZM17.241 8.612c.457.513.076.72.558.753.51.038.221.542.65.56.299.013-.03 1.208.257 1.603.294.411.54.12.545.417.005.308-.799.277-.813 1.223-.024.546-.679.58-.71.932-.039.33 1.29.516 1.273.811-.018.295-1.436.249-1.497.585-.032.302 1.947.549 2.106 1.422-4.725 1.343-8.554-2.883-10.341-4.953 1.714-1.714 4.571-5.142 8.571-5.142 0 0-1.187 1.085-.598 1.789ZM20 12.422h-.415v1.371h.416v-1.371Z"/><path fill="#464655" d="M19.17 12.422h-.416v1.371h.416v-1.371Z"/><path fill="#F0F0F0" d="M17.04 12.422h-.415v1.371h.415v-1.371ZM16.209 12.422h-.416v1.371h.416v-1.371ZM15.378 12.422h-.416v1.371h.416v-1.371ZM14.547 12.422h-.416v1.371h.416v-1.371ZM13.715 12.422H13.3v1.371h.415v-1.371ZM12.884 12.422h-.415v1.371h.415v-1.371Z"/><path fill="#464655" d="M23.326 10.137h-.416v1.371h.416v-1.371ZM22.494 10.137h-.415v1.371h.415v-1.371ZM21.663 10.137h-.415v1.371h.415v-1.371ZM20.832 10.137h-.415v1.371h.415v-1.371ZM20 10.137h-.415v1.371h.416v-1.371ZM19.17 10.137h-.416v1.371h.416v-1.371Z"/><path fill="#F0F0F0" d="M17.04 10.137h-.415v1.371h.415v-1.371ZM16.209 10.137h-.416v1.371h.416v-1.371ZM15.378 10.137h-.416v1.371h.416v-1.371ZM14.547 10.137h-.416v1.371h.416v-1.371ZM13.715 10.137H13.3v1.371h.415v-1.371ZM12.884 10.137h-.415v1.371h.415v-1.371Z"/><path fill="#0052B4" d="m32.044 13.82-.868 1.502-1.502-.868a1 1 0 0 1-.366-1.366l.867-1.502 1.503.867a1 1 0 0 1 .366 1.366ZM16.836 9.783l-.868 1.502-1.502-.867a1 1 0 0 1-.366-1.366l.867-1.503 1.503.868a1 1 0 0 1 .366 1.366ZM6.524 13.789l-.867 1.502-1.503-.867a1 1 0 0 1-.366-1.366l.867-1.502 1.503.867a1 1 0 0 1 .366 1.366Z"/></g></g><defs><clipPath id="a"><path fill="#fff" d="M0 0h36v23.995H0z"/></clipPath><clipPath id="b"><path fill="#fff" d="M3 6h30v12H3z"/></clipPath></defs></svg>