<svg xmlns="http://www.w3.org/2000/svg" width="18" height="12" fill="none" viewBox="0 0 36 24"><g clip-path="url(#a)"><path fill="#FF4B55" d="M0 0h36v23.992H0V-.001Z"/><path fill="#F0F0F0" d="M26.066 4.69v14.429h-1.938v-4.356h-2.566c-1.077 3.162-3.736 4.743-7.977 4.743-1.484 0-2.812-.27-3.984-.812-1.526-.706-2.289-1.74-2.289-3.1 0-.384.078-.73.234-1.04.155-.308.372-.57.65-.788.279-.218.61-.383.992-.496.383-.114.804-.17 1.265-.17h9.628c.036-.492.054-.886.054-1.182 0-.58-.04-1.13-.121-1.654a6.385 6.385 0 0 0-.377-1.417 3.829 3.829 0 0 0-.655-1.091 2.523 2.523 0 0 0-.947-.686c.108.114.2.27.279.468.077.198.14.398.188.6.048.202.084.386.108.553.024.167.036.275.036.326 0 .56-.083 1.055-.247 1.484a3.204 3.204 0 0 1-.655 1.072 2.673 2.673 0 0 1-.947.647 2.968 2.968 0 0 1-1.122.218c-.454 0-.877-.059-1.27-.175a2.52 2.52 0 0 1-1.018-.576c-.287-.268-.511-.62-.673-1.054-.161-.435-.242-.973-.242-1.616a4.209 4.209 0 0 1 .39-1.744c.135-.286.307-.557.516-.812.21-.255.458-.477.745-.667.287-.189.615-.34.982-.453.369-.114.783-.17 1.243-.17.766 0 1.491.12 2.176.363s1.286.64 1.804 1.191c.517.552.928 1.271 1.233 2.16.305.888.461 1.978.467 3.269 0 .145-.005.296-.014.454-.008.157-.019.32-.031.491h2.145V4.69h1.938Zm-6.47 10.073H10.13a.795.795 0 0 0-.637.302 1.02 1.02 0 0 0-.18.33 1.25 1.25 0 0 0-.062.398c0 .743.66 1.3 1.983 1.672.897.252 1.848.378 2.853.378 1.346 0 2.426-.205 3.24-.614.939-.479 1.695-1.3 2.27-2.466Zm-2.664-5.746a2.21 2.21 0 0 0-.323-1.03 1.684 1.684 0 0 0-.404-.454.88.88 0 0 0-.556-.188c-.251 0-.464.048-.637.146a1.255 1.255 0 0 0-.422.378 1.541 1.541 0 0 0-.233.534 2.654 2.654 0 0 0-.072.614c0 .334.042.616.126.846.083.23.193.414.327.553.135.138.289.237.462.297.174.06.353.09.539.09.161 0 .313-.024.457-.071a.811.811 0 0 0 .377-.27c.108-.132.195-.313.26-.543.066-.23.099-.53.099-.902Z"/></g><defs><clipPath id="a"><path fill="#fff" d="M0 0h36v23.995H0z"/></clipPath></defs></svg>