<svg xmlns="http://www.w3.org/2000/svg" width="18" height="12" fill="none" viewBox="0 0 36 24"><g clip-path="url(#a)"><path fill="#0052B4" d="M36 0H0v23.996h36V0Z"/><path fill="#F0F0F0" d="m15.708 11.998.057-.065-.058.065Z"/><path fill="#F0F0F0" d="M18 0v2.148l-3.176 1.764H18v4.173h-4.156L18 10.394v1.604h-1.876l-5.167-2.87v2.87H7.043V8.583L.896 11.998H0V9.85l3.176-1.765H0V3.912h4.156L0 1.603V0h1.876l5.167 2.87V0h3.913v3.415L17.105 0H18Z"/><path fill="#FF4B55" d="M10.125 0h-2.25v4.874H0v2.25h7.875v4.874h2.25V7.124H18v-2.25h-7.875V0Z"/><path fill="#FF4B55" d="M10.957 8.085 18 11.998v-1.106l-5.052-2.807h-1.992ZM5.052 8.085 0 10.892v1.107l7.043-3.914H5.052ZM12.948 3.913 18 1.106V0l-7.043 3.913h1.991ZM7.043 3.913 0 0v1.106l5.052 2.807h1.991Z"/><g clip-path="url(#b)"><path fill="#FFE15A" d="M31.627 7.499v4.055c0 2.704-1.352 5.616-4.732 7.193-3.38-1.577-4.732-4.49-4.732-7.193V7.5h9.464Z"/><path fill="#73AF00" d="M26.938 17.385c2.068 0 1.88-1.235 1.562-2.385-.47-1.7-1.773-3.187-2.997-.73-.93 1.866-.9 3.115 1.435 3.115Z"/><path fill="#FD823D" d="M25.188 11.966c-2.417.476-2.699-5.72-.428-2.687l.428 2.687Z"/><path fill="#FAC586" d="M25.497 8.913c1.336 1.353-.07 4.607-1.064 1.893-.26-.257.467-3.451 1.064-1.893Z"/><path fill="#FFE15A" d="M25.019 10.834c-.062-.147-.13-.293.034-.608.168-.322.061-.564.01-.727-.05-.158-.061-.304 0-.372a.25.25 0 0 0 .102-.208c.006-.102.09-.068.102-.017.01.05.022.135-.068.287-.09.158.253.54.096.952-.107.287.033.653.09.907.056.254.09.862-.282.952.254-.124.017-.93-.084-1.166Z"/><path fill="#FF4B55" d="M27.745 13.137c-.032-2.318-2.163-1.379-1.55.248.331.135 1.618.246 1.55-.248Z"/><path fill="#A36D56" d="M30.736 10.794c-.233-.176-.653-.346-.94-.206.134-.109.069-.508.083-.656 2.3.35-.284-3.322.265-1.06-.918-.86-.294.427.103.732-.208.08-.464.055-.63-.143.203-.263-.108-.388-.105-.038-.095-.036-.261-.024-.361-.022.005 0 .009.003.014.004-.031.002-.06.01-.089.018.002-.35-.309-.224-.105.038-.167.195-.417.22-.631.143.398-.305 1.022-1.592.103-.731.556-2.02-1.267.436-.577.863l-.002.001c.132.025.292.2.845.192.014.15-.051.549.082.66-.364-.177-1.143.14-1.095.568.433-.426 1.214-.882 1.226.12-.34-.241-1.08.006-.978.455.282-.287.503-.552.978-.326-.002.11-.014.27.072.352-.308-.196-.843.094-.738.446.256-.203.328-.498.768-.31.004.115-.026.32.071.404-.804-.028-.26 1.012.053.224-.053.268.344.268.292 0 .314.789.855-.253.053-.224.097-.084.066-.29.07-.403.442-.19.512.107.768.31.106-.353-.43-.643-.737-.447.085-.082.074-.243.072-.352.476-.226.695.04.977.326.103-.45-.637-.696-.977-.454.019-1.632 1.718.592 1.07-.484Z"/></g></g><defs><clipPath id="a"><path fill="#fff" d="M0 0h36v23.996H0z"/></clipPath><clipPath id="b"><path fill="#fff" d="M22 7h10v12H22z"/></clipPath></defs></svg>