<svg xmlns="http://www.w3.org/2000/svg" width="18" height="12" fill="none" viewBox="0 0 36 24"><g clip-path="url(#a)"><path fill="#73AF00" d="M36 0H0v23.992h36V-.001Z"/><path fill="#F0F0F0" d="M36 0H0v17.137h36V-.001Z"/><path fill="#FF4B55" d="M36 0H0v6.854h36V0Z"/><g fill="#FFE15A" clip-path="url(#b)"><path d="M15.492 14.67c.318-.161.504-.425.604-.616.899.51 1.44.182 1.902-.373.463.555 1.003.883 1.902.373.283.67 1.233.946 1.938.608l-.127-.337c-.811.423-1.605-.257-1.638-.866-2.11 2.08-2.65-2.907-1.021-1.923.033-1.468-2.142-1.467-2.108 0 1.627-.984 1.09 4-1.02 1.925-.037.607-.828 1.287-1.64.864l-.126.337c.464.171.913.215 1.334.007Zm1.877-3.549c-.022 0-.043.001-.065.003.236-.591 1.152-.59 1.388 0a.77.77 0 0 0-.694.329.764.764 0 0 0-.63-.332ZM14.884 15.813l.114.34c1.507-.529 4.493-.529 6 0l.114-.34c-1.58-.555-4.648-.555-6.228 0Z"/><path d="M17.998 15.033c.188 0 .353-.111.465-.261a.722.722 0 0 0-.287-.087.427.427 0 0 0-.178-.372.427.427 0 0 0-.178.372.72.72 0 0 0-.286.087c.111.15.277.261.464.26ZM16.347 15.203c.184-.037.324-.18.403-.349a.72.72 0 0 0-.297-.027.427.427 0 0 0-.25-.329.428.428 0 0 0-.1.4.719.719 0 0 0-.263.142c.14.125.324.2.507.163ZM19.793 14.498a.428.428 0 0 0-.25.328.719.719 0 0 0-.297.028c.149.377.626.474.91.186a.72.72 0 0 0-.263-.142.428.428 0 0 0-.1-.4ZM17.95 7.875l-.121.363c-.5-.033-.527.057-.105.324-.186.465-.109.519.275.2.385.32.46.263.275-.2.424-.268.393-.357-.105-.324-.036-.036-.106-.538-.219-.363ZM15.758 8.474l-.12.363c-.5-.033-.528.058-.106.324-.186.465-.108.52.275.2.385.32.46.263.275-.2.424-.267.393-.356-.105-.324-.036-.035-.106-.538-.219-.363ZM14.147 10.093l-.12.363c-.5-.033-.528.057-.106.323-.186.466-.108.52.275.2.385.321.46.264.276-.2.423-.267.392-.356-.106-.323-.036-.036-.105-.538-.219-.363ZM13.555 12.28l-.12.364c-.5-.033-.528.057-.106.323-.186.466-.108.52.275.2.385.321.46.264.276-.2.423-.267.392-.356-.106-.323-.036-.036-.105-.538-.219-.363ZM20.242 8.474l.12.363c.5-.033.528.058.106.324.186.465.108.52-.275.2-.385.32-.46.263-.275-.2-.424-.267-.393-.356.105-.324.036-.035.106-.538.219-.363ZM21.853 10.093l.12.363c.5-.033.528.057.106.324.186.465.108.519-.275.2-.385.32-.46.263-.275-.2-.424-.268-.393-.357.105-.324.036-.036.105-.538.219-.363ZM22.445 12.28l.12.364c.5-.033.528.057.106.323.186.466.108.52-.275.2-.386.32-.46.264-.276-.2-.424-.267-.392-.356.105-.323.037-.036.106-.538.22-.363Z"/></g></g><defs><clipPath id="a"><path fill="#fff" d="M0 0h36v23.995H0z"/></clipPath><clipPath id="b"><path fill="#fff" d="M13 7h10v10H13z"/></clipPath></defs></svg>