<svg xmlns="http://www.w3.org/2000/svg" width="18" height="12" fill="none" viewBox="0 0 36 24"><g clip-path="url(#a)"><path fill="#5E7C24" d="M36 0H0v23.992h36V-.001Z"/><path fill="#F0F0F0" d="m13.716 4.96.13-.398-.339.246-.338-.246.13.398-.34.246h.419l.13.398.128-.398h.419l-.339-.246ZM17.873 2.66a2.985 2.985 0 0 1-3.112 5.018 2.988 2.988 0 0 0 4.898-1.902 2.984 2.984 0 0 0-1.786-3.116ZM15.025 6.39l.129-.397h.418l-.338-.246.129-.398-.338.246-.339-.246.13.398-.339.246h.418l.13.398ZM15.025 4.855l.129-.398h.418l-.338-.246.129-.397-.338.245-.339-.245.13.397-.339.246h.418l.13.398ZM16.413 3.709l.13.397.128-.397h.419l-.339-.246.13-.398-.339.246-.338-.246.129.398-.338.246h.418ZM14.895 2.922l.13.397.129-.397h.418l-.338-.246.129-.398-.338.246-.339-.246.13.398-.339.246h.418Z"/><path fill="#FF4B55" d="M10.26 0H4v24h6.26V0Z"/><path fill="#F0F0F0" d="m6.39 6.318-1.049-.78V4.432l1.048-.78h1.483l1.048.78v1.104l-1.048.781H6.389Z"/><path fill="#FFE15A" d="M7.13 3.652h-.74l-1.049.78v.54h1.79v-1.32ZM7.13 6.318h.742l1.048-.78v-.564H7.13v1.344Z"/><path fill="#F0F0F0" d="m6.39 20.348-1.049-.78v-1.105l1.048-.78h1.483l1.048.78v1.104l-1.048.781H6.389Z"/><path fill="#FFE15A" d="M7.13 17.682h-.74l-1.049.78v.54h1.79v-1.32ZM7.13 20.348h.742l1.048-.78v-.564H7.13v1.344Z"/><path fill="#5E7C24" d="m6.39 13.333-1.049-.78v-1.105l1.048-.78h1.483l1.048.78v1.104l-1.048.781H6.389ZM8.957 15.051H8.5v-.457h-.802l-.568-.567-.567.567h-.802v.457h-.457v.913h.457v.457h.802l.567.567.568-.567H8.5v-.457h.457v-.913ZM8.957 8.036H8.5v-.457h-.802l-.568-.567-.567.567h-.802v.457h-.457v.913h.457v.457h.802l.567.567.568-.567H8.5v-.457h.457v-.913Z"/><path fill="#FF4B55" d="M7.652 11.478H6.61v1.044h1.043v-1.044ZM7.13 9.014a.522.522 0 1 0 0-1.043.522.522 0 0 0 0 1.043ZM7.13 16.03a.522.522 0 1 0 0-1.044.522.522 0 0 0 0 1.043Z"/></g><defs><clipPath id="a"><path fill="#fff" d="M0 0h36v23.995H0z"/></clipPath></defs></svg>