<svg xmlns="http://www.w3.org/2000/svg" width="18" height="12" fill="none" viewBox="0 0 36 24"><g clip-path="url(#a)"><path fill="#FF4B55" d="M0 0h36v23.992H0V0Z"/><path fill="#F0F0F0" d="M26.066 4.69v14.43h-1.938v-4.357h-2.566c-1.077 3.163-3.736 4.744-7.977 4.744-1.484 0-2.812-.271-3.984-.813-1.526-.705-2.289-1.738-2.289-3.1 0-.383.078-.73.234-1.038.155-.31.372-.572.65-.79.279-.217.61-.383.992-.496.383-.113.804-.17 1.265-.17h9.628c.036-.491.054-.885.054-1.181 0-.58-.04-1.131-.121-1.654a6.385 6.385 0 0 0-.377-1.417 3.829 3.829 0 0 0-.655-1.092 2.523 2.523 0 0 0-.947-.685c.108.113.2.27.279.468.077.198.14.398.188.6.048.201.084.386.108.553.024.166.036.275.036.326 0 .56-.083 1.055-.247 1.483a3.206 3.206 0 0 1-.655 1.073 2.674 2.674 0 0 1-.947.647 2.968 2.968 0 0 1-1.122.217c-.454 0-.877-.058-1.27-.174a2.519 2.519 0 0 1-1.018-.577c-.287-.268-.511-.619-.673-1.053-.161-.435-.242-.974-.242-1.616a4.209 4.209 0 0 1 .39-1.744c.135-.287.307-.558.516-.813.21-.255.458-.477.745-.666.287-.19.615-.34.982-.454.369-.113.783-.17 1.243-.17.766 0 1.491.121 2.176.364s1.286.64 1.804 1.19c.517.552.928 1.272 1.233 2.16.305.888.461 1.978.467 3.27 0 .145-.005.296-.014.453-.008.158-.019.322-.031.492h2.145V4.69h1.938Zm-6.47 10.073H10.13a.795.795 0 0 0-.637.303 1.02 1.02 0 0 0-.18.33 1.25 1.25 0 0 0-.062.397c0 .744.66 1.301 1.983 1.673.897.252 1.848.378 2.853.378 1.346 0 2.426-.205 3.24-.614.939-.48 1.695-1.301 2.27-2.467Zm-2.664-5.745a2.21 2.21 0 0 0-.323-1.03 1.684 1.684 0 0 0-.404-.454.88.88 0 0 0-.556-.189c-.251 0-.464.05-.637.147a1.255 1.255 0 0 0-.422.378 1.541 1.541 0 0 0-.233.533 2.654 2.654 0 0 0-.072.615c0 .333.042.615.126.845.083.23.193.414.327.553.135.139.289.238.462.298.174.06.353.09.539.09.161 0 .313-.024.457-.072a.81.81 0 0 0 .377-.269c.108-.132.195-.313.26-.543.066-.23.099-.53.099-.902Z"/></g><defs><clipPath id="a"><path fill="#fff" d="M0 0h36v23.996H0z"/></clipPath></defs></svg>