<svg xmlns="http://www.w3.org/2000/svg" width="18" height="12" fill="none" viewBox="0 0 36 24"><g clip-path="url(#a)"><path fill="#0052B4" d="M36 0H0v23.992h36V-.001Z"/><path fill="#82AFFF" d="M0 11.996h18V-.001h18v23.993H0V11.996Z"/><path fill="#FFE15A" d="m14.264 21.013-.452-1.384-.448 1.384h-1.456l1.176.856-.448 1.383 1.176-.856 1.18.856-.452-1.383 1.18-.856h-1.456ZM20.248 19.937l.452-1.383-1.18.855-1.176-.855.448 1.383-1.176.856h1.456l.448 1.384.452-1.384h1.456l-1.18-.856ZM25.288 18.706l.452-1.384-1.18.856-1.176-.856.448 1.384-1.176.855h1.456l.448 1.384.452-1.384h1.456l-1.18-.855ZM20.7 13.675l-1.18.856-1.176-.856.448 1.384-1.176.856h1.456l.448 1.383.452-1.383h1.456l-1.18-.856.452-1.384ZM28.308 14.979l-.452-1.384-.448 1.384h-1.456l1.176.856-.448 1.383 1.176-.856 1.18.856-.452-1.383 1.18-.856h-1.456ZM32.564 12.24l-.452-1.384-.448 1.384h-1.456l1.176.855-.448 1.384 1.176-.856 1.18.856-.452-1.384 1.18-.855h-1.456ZM24.112 8.945l.448 1.383.452-1.383h1.456l-1.18-.852.452-1.384-1.18.852-1.176-.852.448 1.384-1.176.852h1.456ZM28.348 7.501l.448 1.384.452-1.384h1.456l-1.18-.856.452-1.383-1.18.852-1.176-.852.448 1.383-1.176.856h1.456ZM31.384 3.734l-.448 1.384 1.176-.856 1.18.856-.452-1.384 1.18-.856h-1.456l-.452-1.383-.448 1.383h-1.456l1.176.856Z"/><path fill="#F0F0F0" fill-rule="evenodd" d="M0 0v1.439l6.835 4.559L0 10.556v1.44h2.165L9 7.437l6.835 4.559H18v-1.44l-6.835-4.558L18 1.438V0h-2.165L9 4.558 2.165-.001H0Z" clip-rule="evenodd"/><path fill="#FF4B55" d="m0 11.996 6-3.998h1.344L1.08 11.996H0ZM0-.001l6 3.998H4.656L0 .892v-.893Zm10.66 3.998 5.996-3.998H18l-6 3.998h-1.34ZM18 11.996l-6-3.998h1.344L18 11.103v.893Z"/><path fill="#464655" d="M9 0v11.996V-.001ZM0 5.997h18H0Z"/><path fill="#F0F0F0" d="M11.002 11.996H6.998V7.998H0V3.997h6.998V-.001h4.004v3.998H18v4.001h-6.998v3.998Z"/><path fill="#464655" d="M9 0v11.996V-.001ZM0 5.997h18H0Z"/><path fill="#FF4B55" d="M10.2 11.996H7.8V7.197H0v-2.4h7.8V0h2.4v4.799H18v2.4h-7.8v4.798Z"/></g><defs><clipPath id="a"><path fill="#fff" d="M0 0h36v23.995H0z"/></clipPath></defs></svg>