<svg xmlns="http://www.w3.org/2000/svg" width="18" height="12" fill="none" viewBox="0 0 36 24"><g clip-path="url(#a)"><path fill="#FF4B55" fill-rule="evenodd" d="M0 0h36v23.992H0V-.001Z" clip-rule="evenodd"/><path fill="#0052B4" fill-rule="evenodd" d="M0 0h18v11.996H0V-.001Z" clip-rule="evenodd"/><path fill="#F0F0F0" d="m11.252 6.601 2.248-.604-2.248-.603 1.644-1.644-2.248.6.604-2.247-1.648 1.643L9 1.5l-.604 2.247-1.644-1.643.6 2.247-2.248-.6 1.644 1.644-2.248.603 2.248.604L5.104 8.25l2.248-.604-.6 2.247L8.396 8.25 9 10.496l.604-2.247 1.648 1.643-.604-2.247 2.248.604L11.252 6.6Z"/><path fill="#F0F0F0" d="M9 8.397a2.4 2.4 0 1 0 0-4.8 2.4 2.4 0 0 0 0 4.8Z"/><path fill="#0052B4" d="M9 3.45a2.553 2.553 0 0 0-2.552 2.552A2.553 2.553 0 0 0 9 8.552a2.553 2.553 0 0 0 2.552-2.55A2.553 2.553 0 0 0 9 3.45ZM9 8.25a2.254 2.254 0 0 1-2.252-2.251A2.25 2.25 0 0 1 9 3.75a2.254 2.254 0 0 1 2.252 2.252A2.25 2.25 0 0 1 9 8.249Z"/></g><defs><clipPath id="a"><path fill="#fff" d="M0 0h36v23.995H0z"/></clipPath></defs></svg>