<svg xmlns="http://www.w3.org/2000/svg" width="18" height="12" fill="none" viewBox="0 0 36 24"><g clip-path="url(#a)"><path fill="#464655" d="M36 0H0v23.992h36V-.001Z"/><path fill="#FFE15A" d="M36 15.994H0v7.998h36v-7.998ZM36 3.998H0v7.998h36V3.998Z"/><path fill="#FF4B55" d="M36 19.993H0v3.999h36v-3.999ZM36 7.997H0v3.999h36v-4Z"/><path fill="#F0F0F0" d="M18 15.735a3.74 3.74 0 1 0 .001-7.48 3.74 3.74 0 0 0-.001 7.48Z"/><path fill="#FF4B55" d="m17.34 9.133-.244-.448c.092-.092.252-.164.504-.164l-.024.488-.236.124Z"/><path fill="#FFE15A" d="m17.576 9.013.036-.492s.504-.028.776.296l-.268.384-.544-.188Z"/><path fill="#FF4B55" d="m18.124 9.197.248-.384c.164.176.236.296.26.484.004.004-.392.096-.392.092 0 0-.112-.188-.116-.192Z"/><path fill="#464655" d="M17.464 15.519s.464-.532 1.364-.416c-.136-.22-.576-.196-.576-.196s-.136-1.036-.028-1.084c.108-.052.556.004.556.004.06 0 .16-.16.08-.264-.08-.104-.32-.492-.22-.572.096-.075.628.044.628.044l-1.504-1.923s-.152-.724.152-1.072c.372-.308.332-.64.32-.635-.052-.336-.56-.58-.908-.268-.204.248-.068.435-.068.435s-.536.144-.556.24c-.02.092.604-.016.604-.016l-.06.428s-1.216 1.108-.284 2.064a.196.196 0 0 0 .028-.044s.328.404.672.492c.324.331.292.28.292.28s.064.523.004.623c-.08-.024-.908-.056-1.028-.008-.112.036-.536.012-.428.708.08-.188.152-.352.152-.352s-.012.252.088.34c-.016-.264.096-.444.096-.444s.02.288.084.332c.064.044.064-.468.416-.424.352.044.608.028.608.028s.12 1 .08 1.092c-.256-.06-.864.024-.904.18.356-.02.524.02.524.02s-.272.256-.184.408Z"/><path fill="#F0F0F0" d="m18.204 13.175.012.476s.164.028.244 0c.076-.032-.004-.332-.256-.476Z"/><path fill="#DDD" d="M19.408 13.232s-.308-.74-1.088-.928c-.784-.188-.68-1.02-.616-1.072.036-.072.06-.184.284-.076.224.108 1.264.628 1.412.656.148.028.02 1.44.008 1.42Z"/><path fill="#FF4B55" d="M18.664 12.3c-.012.008 1.048.624.728 1.156.304-.2.204-.548.204-.548s.248.644-.352.956c.064.056.108.044.108.044l-.104.104s-.048.076.356-.12c-.112.088-.12.152-.12.152s.028.084.292-.144c-.212.228-.26.348-.26.344.576-.052 1.824-1.92-.396-2.472l.104.108-.56.42Z"/><path fill="#F0F0F0" d="M18.712 12.12c.144.104.196.136.212.188-.132-.028-.252-.02-.252-.02s-.284-.272-.336-.292c-.04 0-.26-.14-.26-.14-.112-.056-.212-.44.196-.328.42.2.48.216.48.216l.504.156.288.324s-.516-.256-.58-.26c.14.116.22.272.22.272-.16-.048-.3-.092-.472-.116Z"/><path fill="#FF4B55" d="M17.304 9.796c-.048.04-.292.292-.052.388.252-.068.184-.116.24-.172 0-.116-.128-.144-.188-.216Z"/><path fill="#464655" d="M16.708 9.832s.492-.12.552-.104l-.552.104Z"/></g><defs><clipPath id="a"><path fill="#fff" d="M0 0h36v23.995H0z"/></clipPath></defs></svg>