<svg xmlns="http://www.w3.org/2000/svg" width="18" height="12" fill="none" viewBox="0 0 36 24"><g clip-path="url(#a)"><path fill="#F0F0F0" d="M36 0H0v23.992h36V-.001Z"/><path fill="#FF4B55" d="M36 22.146H0v1.846h36v-1.846ZM36 18.455H0v1.846h36v-1.846ZM36 14.764H0v1.846h36v-1.846ZM36 11.073H0v1.846h36v-1.846ZM36 7.382H0v1.846h36V7.382ZM36 3.69H0v1.847h36V3.69ZM36 0H0v1.846h36V-.001Z"/><path fill="#0052B4" d="M16.246 0H0v12.918h16.246V0Z"/><path fill="#F0F0F0" d="m14.777 1.403-.166.509.435-.317.436.317-.166-.51.432-.317h-.536l-.166-.51-.166.51h-.535l.432.318ZM11.993 1.403l-.167.509.436-.317.436.317-.166-.51.432-.317h-.536l-.166-.51-.166.51h-.535l.432.318ZM13.488 2.38h-.535l.432.318-.166.51.435-.318.436.317-.166-.51.432-.317h-.536l-.166-.51-.166.51ZM15.046 3.166l-.166.51h-.535l.432.318-.166.51.435-.318.436.317-.166-.51.432-.317h-.536l-.166-.51ZM9.209 1.403l-.167.509.436-.317.436.317-.166-.51.432-.317h-.536l-.166-.51-.166.51h-.535l.432.318ZM10.704 2.38h-.535l.432.318-.167.51.436-.318.436.317-.166-.51.432-.317h-.536l-.166-.51-.166.51ZM12.428 3.676l-.166-.51-.166.51h-.535l.432.318-.167.51.436-.318.436.317-.166-.51.432-.317h-.536ZM13.82 4.972l-.166-.51-.166.51h-.535l.435.313-.166.51.436-.314.436.314-.167-.51.436-.313h-.543ZM15.046 5.758l-.166.51h-.535l.432.317-.166.51.435-.318.436.317-.166-.51.432-.317h-.536l-.166-.51ZM6.425 1.403l-.167.509.436-.317.436.317-.166-.51.432-.317H6.86l-.166-.51-.166.51h-.535l.432.318ZM7.92 2.38h-.535l.432.318-.167.51.436-.318.436.317-.166-.51.432-.317h-.536l-.166-.51-.166.51ZM9.478 3.166l-.166.51h-.535l.432.318-.167.51.436-.318.436.317-.166-.51.432-.317h-.536l-.166-.51ZM10.87 4.462l-.166.51h-.535l.435.313-.166.51.436-.314.435.314-.166-.51.436-.313h-.535l-.174-.51ZM12.428 6.267l-.166-.51-.166.51h-.535l.432.318-.167.51.436-.318.436.317-.166-.51.432-.317h-.536ZM13.82 7.563l-.166-.51-.166.51h-.535l.432.317-.166.51.435-.318.436.318-.166-.51.432-.317h-.536ZM15.046 8.349l-.166.51h-.535l.432.317-.166.51.435-.318.436.318-.166-.51.432-.318h-.536l-.166-.51ZM3.64 1.403l-.166.509.436-.317.436.317-.166-.51.432-.317h-.536L3.91.575l-.166.51h-.535l.432.318ZM5.136 2.38h-.535l.432.318-.167.51.436-.318.436.317-.166-.51.432-.317h-.536l-.166-.51-.166.51ZM6.694 3.166l-.166.51h-.535l.432.318-.167.51.436-.318.436.317-.166-.51.432-.317H6.86l-.166-.51ZM8.086 4.462l-.166.51h-.535l.435.313-.166.51.436-.314.436.314-.167-.51.436-.313H8.26l-.174-.51ZM9.644 6.267l-.166-.51-.166.51h-.535l.432.318-.167.51.436-.318.436.317-.166-.51.432-.317h-.536ZM11.036 7.563l-.166-.51-.166.51h-.535l.432.317-.167.51.436-.318.436.318-.166-.51.432-.317h-.536ZM12.428 8.858l-.166-.51-.166.51h-.535l.432.318-.167.51.436-.318.436.318-.166-.51.432-.318h-.536ZM13.924 10.472l.432-.318h-.536l-.166-.51-.166.51h-.535l.432.318-.166.51.435-.318.436.317-.166-.51ZM15.212 11.45l-.166-.51-.166.51h-.535l.432.317-.166.51.435-.318.436.318-.166-.51.432-.317h-.536ZM.857 1.403l-.167.509.436-.317.436.317-.166-.51.432-.317h-.536l-.166-.51-.166.51H.425l.432.318ZM2.352 2.38h-.535l.432.318-.167.51.436-.318.436.317-.166-.51.432-.317h-.536l-.166-.51-.166.51ZM3.91 3.166l-.166.51h-.535l.432.318-.167.51.436-.318.436.317-.166-.51.432-.317h-.536l-.166-.51ZM5.302 4.462l-.166.51h-.535l.435.313-.166.51.436-.314.436.314-.167-.51.436-.313h-.535l-.174-.51ZM6.86 6.267l-.166-.51-.166.51h-.535l.432.318-.167.51.436-.318.436.317-.166-.51.432-.317H6.86ZM8.252 7.563l-.166-.51-.166.51h-.535l.432.317-.167.51.436-.318.436.318-.166-.51.432-.317h-.536ZM9.644 8.858l-.166-.51-.166.51h-.535l.432.318-.167.51.436-.318.436.318-.166-.51.432-.318h-.536ZM11.14 10.472l.432-.318h-.536l-.166-.51-.166.51h-.535l.432.318-.167.51.436-.318.436.317-.166-.51ZM12.428 11.45l-.166-.51-.166.51h-.535l.432.317-.167.51.436-.318.436.318-.166-.51.432-.317h-.536ZM.69 4.503l.436-.317.436.317-.166-.51.432-.317h-.536l-.166-.51-.166.51H.425l.432.318-.167.51ZM2.518 5.481l.436.314-.166-.51.435-.313h-.539l-.166-.51-.166.51h-.535l.435.313-.166.51.432-.314ZM4.076 6.267l-.166-.51-.166.51h-.535l.432.318-.167.51.436-.318.436.317-.166-.51.432-.317h-.536ZM5.468 7.563l-.166-.51-.166.51h-.535l.432.317-.167.51.436-.318.436.318-.166-.51.432-.317h-.536ZM6.86 8.858l-.166-.51-.166.51h-.535l.432.318-.167.51.436-.318.436.318-.166-.51.432-.318H6.86ZM8.356 10.472l.432-.318h-.536l-.166-.51-.166.51h-.535l.432.318-.167.51.436-.318.436.317-.166-.51ZM9.644 11.45l-.166-.51-.166.51h-.535l.432.317-.167.51.436-.318.436.318-.166-.51.432-.317h-.536ZM.69 7.094l.436-.317.436.317-.166-.51.432-.317h-.536l-.166-.51-.166.51H.425l.432.318-.167.51ZM2.684 7.563l-.166-.51-.166.51h-.535l.432.317-.167.51.436-.318.436.318-.166-.51.432-.317h-.536ZM4.076 8.858l-.166-.51-.166.51h-.535l.432.318-.167.51.436-.318.436.318-.166-.51.432-.318h-.536ZM5.572 10.472l.432-.318h-.536l-.166-.51-.166.51h-.535l.432.318-.167.51.436-.318.436.317-.166-.51ZM6.86 11.45l-.166-.51-.166.51h-.535l.432.317-.167.51.436-.318.436.318-.166-.51.432-.317H6.86ZM.69 9.686l.436-.318.436.318-.166-.51.432-.318h-.536l-.166-.51-.166.51H.425l.432.318-.167.51ZM2.788 10.472l.432-.318h-.536l-.166-.51-.166.51h-.535l.432.318-.167.51.436-.318.436.317-.166-.51ZM4.076 11.45l-.166-.51-.166.51h-.535l.432.317-.167.51.436-.318.436.318-.166-.51.432-.317h-.536ZM1.292 11.45l-.166-.51-.166.51H.425l.432.317-.167.51.436-.318.436.318-.166-.51.432-.317h-.536Z"/></g><defs><clipPath id="a"><path fill="#fff" d="M0 0h36v23.995H0z"/></clipPath></defs></svg>