<svg xmlns="http://www.w3.org/2000/svg" width="18" height="12" fill="none" viewBox="0 0 36 24"><g clip-path="url(#a)"><path fill="#F0F0F0" d="M0 0h36v23.992H0V-.001Z"/><path fill="#0052B4" d="M0 18.66h36v2.667H0V18.66ZM0 13.329h36v2.666H0V13.33ZM13.333 7.997H36v2.667H13.333V7.997ZM13.333 2.665H36v2.667H13.333V2.665Z"/><path fill="#FFE15A" d="M4.411 1.42 5.5 6.454l1.702-.705-2.79-4.327Z"/><path fill="#FAC586" d="m4.411 1.42 1.94 4.68-.852.353-1.088-5.032Z"/><path fill="#FFE15A" d="M8.641 11.632 7.553 6.599l-1.701.705 2.79 4.328Z"/><path fill="#FAC586" d="m8.641 11.632-1.938-4.68.85-.353 1.088 5.033Z"/><path fill="#FFE15A" d="M11.632 4.411 6.599 5.5l.705 1.702 4.328-2.79Z"/><path fill="#FAC586" d="m11.632 4.411-4.68 1.94-.353-.852 5.033-1.088Z"/><path fill="#FFE15A" d="m1.42 8.641 5.033-1.088-.705-1.701-4.327 2.79Z"/><path fill="#FAC586" d="M1.42 8.641 6.1 6.703l.353.85-5.032 1.088Z"/><path fill="#FFE15A" d="m8.641 1.42-2.79 4.328 1.702.705 1.088-5.032Z"/><path fill="#FAC586" d="M8.641 1.42 6.703 6.1l-.851-.352 2.79-4.327Z"/><path fill="#FFE15A" d="m4.411 11.632 2.79-4.328L5.499 6.6l-1.088 5.033Z"/><path fill="#FAC586" d="m4.411 11.632 1.94-4.68.85.352-2.79 4.328Z"/><path fill="#FFE15A" d="m11.632 8.641-4.328-2.79L6.6 7.554l5.033 1.088Z"/><path fill="#FAC586" d="m11.632 8.641-4.68-1.938.352-.851 4.328 2.79Z"/><path fill="#FFE15A" d="m1.42 4.411 4.328 2.79.705-1.702-5.032-1.088Z"/><path fill="#FAC586" d="m1.42 4.411 4.68 1.94-.352.85-4.327-2.79Z"/><path fill="#FFE15A" d="m6.526 1-.92 5.066h1.841L6.527 1Z"/><path fill="#FAC586" d="M6.526 1v5.066h-.92L6.525 1Z"/><path fill="#FFE15A" d="m6.526 12.053.921-5.066H5.605l.921 5.066Z"/><path fill="#FAC586" d="M6.526 12.053V6.987h.921l-.92 5.066Z"/><path fill="#FFE15A" d="m12.053 6.526-5.066-.92v1.841l5.066-.92Z"/><path fill="#FAC586" d="M12.053 6.526H6.987v-.92l5.066.92Z"/><path fill="#FFE15A" d="m1 6.526 5.066.921V5.605L1 6.526Z"/><path fill="#FAC586" d="M1 6.526h5.066v.921L1 6.527Z"/><path fill="#FFE15A" d="m10.434 2.619-4.233 2.93 1.302 1.303 2.931-4.233Z"/><path fill="#FAC586" d="M10.434 2.619 6.852 6.2 6.2 5.549l4.233-2.93Z"/><path fill="#FFE15A" d="m2.619 10.434 4.233-2.93L5.549 6.2l-2.93 4.233Z"/><path fill="#FAC586" d="M2.619 10.434 6.2 6.852l.65.651-4.232 2.931Z"/><path fill="#FFE15A" d="m10.434 10.434-2.93-4.233L6.2 7.503l4.233 2.931Z"/><path fill="#FAC586" d="M10.434 10.434 6.852 6.852l.651-.651 2.931 4.233Z"/><path fill="#FFE15A" d="m2.619 2.619 2.93 4.233 1.303-1.303-4.233-2.93Z"/><path fill="#FAC586" d="M2.619 2.619 6.2 6.2l-.652.65L2.62 2.62Z"/><path fill="#FFE15A" d="M6.526 8.368a1.842 1.842 0 1 0 0-3.684 1.842 1.842 0 0 0 0 3.684Z"/></g><defs><clipPath id="a"><path fill="#fff" d="M0 0h36v23.995H0z"/></clipPath></defs></svg>