<svg xmlns="http://www.w3.org/2000/svg" width="18" height="12" fill="none" viewBox="0 0 36 24"><g clip-path="url(#a)"><path fill="#73AF00" d="M0 0h36v23.992H0V-.001Z"/><path fill="#82AFFF" d="M0 0h36v11.996H0V-.001Z"/><path fill="#FF4B55" d="M0 7.677h36v8.637H0V7.677Z"/><path fill="#F0F0F0" d="M0 8.157h36v7.678H0V8.157ZM5.76 6.717a2.88 2.88 0 1 0 0-5.759 2.88 2.88 0 0 0 0 5.76Z"/><path fill="#82AFFF" d="M6.72 6.717a2.88 2.88 0 1 0 0-5.759 2.88 2.88 0 0 0 0 5.76Z"/><path fill="#F0F0F0" d="m16.834 5.964-.13-.398-.13.398h-.417l.336.245-.13.398.341-.245.34.245-.129-.398.336-.245h-.417ZM14.53 5.964l-.13-.398-.13.398h-.417l.336.245-.13.398.341-.245.34.245-.129-.398.336-.245h-.417ZM12.226 5.964l-.13-.398-.13.398h-.417l.336.245-.13.398.341-.245.34.245-.129-.398.336-.245h-.417ZM9.922 5.964l-.13-.398-.13.398h-.417l.336.245-.13.398.341-.245.34.245-.129-.398.336-.245h-.417ZM7.618 5.964l-.13-.398-.13.398h-.417l.336.245-.13.398.341-.245.34.245L7.7 6.21l.336-.245h-.417ZM16.704 3.262l-.13.399h-.417l.336.245-.13.398.341-.245.34.245-.129-.398.336-.245h-.417l-.13-.399ZM14.4 3.262l-.13.399h-.417l.336.245-.13.398.341-.245.34.245-.129-.398.336-.245h-.417l-.13-.399ZM12.096 3.262l-.13.399h-.417l.336.245-.13.398.341-.245.34.245-.129-.398.336-.245h-.417l-.13-.399ZM9.792 3.262l-.13.399h-.417l.336.245-.13.398.341-.245.34.245-.129-.398.336-.245h-.417l-.13-.399ZM16.493 1.602l-.13.399.341-.245.34.245-.129-.399.336-.244h-.417l-.13-.399-.13.399h-.417l.336.244ZM14.4.96l-.13.398h-.417l.336.244-.13.399.341-.245.34.245-.129-.399.336-.244h-.417L14.4.959ZM12.096.96l-.13.398h-.417l.336.244-.13.399.341-.245.34.245-.129-.399.336-.244h-.417l-.13-.399Z"/></g><defs><clipPath id="a"><path fill="#fff" d="M0 0h36v23.995H0z"/></clipPath></defs></svg>