<svg xmlns="http://www.w3.org/2000/svg" width="18" height="12" fill="none" viewBox="0 0 36 24"><g clip-path="url(#a)"><path fill="#F0F0F0" d="M36 0H0v23.992h36V-.001Z"/><path fill="#FFE15A" d="M18 0H0v23.992h18V-.001Z"/><path fill="#FF4B55" d="M27.614 17.052a.212.212 0 0 1-.212-.212v-5.11a.212.212 0 1 1 .424 0v5.11a.212.212 0 0 1-.212.212Z"/><path fill="#FAC586" d="m28.784 12.518-4.65-4.649a.315.315 0 0 0-.445.446l.136.136-.494.495a.303.303 0 0 0 0 .428l.635.636c.118.118.31.118.429 0l.494-.495 3.45 3.449a1.628 1.628 0 1 0 .445-.446Zm1.72 2.165a1.15 1.15 0 1 1-1.628-1.627 1.15 1.15 0 0 1 1.627 1.628Z"/><path fill="#FFE15A" d="M22.977 12.72a1.627 1.627 0 1 0 2.502.244l3.449-3.45.495.496c.118.118.31.118.429 0l.635-.636a.303.303 0 0 0 0-.428l-.495-.495.136-.136a.315.315 0 0 0-.446-.446l-4.649 4.65a1.628 1.628 0 0 0-2.056.2Zm.337.336a1.15 1.15 0 1 1 1.627 1.628 1.15 1.15 0 0 1-1.627-1.628Z"/><path fill="#FF4B55" d="M26.855 18.166a.212.212 0 0 1-.212-.212v-7.577a.212.212 0 0 1 .424 0v7.577a.212.212 0 0 1-.212.212Z"/><path fill="#FF4B55" d="M27.626 11.333h-1.321a.212.212 0 0 1 0-.424h1.32a.212.212 0 0 1 0 .424ZM26.907 16.259c-.439 0-.839-.07-1.18-.166a5.206 5.206 0 0 1-1.827-.935.212.212 0 0 1 .276-.322 4.87 4.87 0 0 0 1.68.853c1.314.363 2.54.065 3.643-.887a.212.212 0 1 1 .277.32c-1.007.869-2.012 1.137-2.869 1.137ZM27.041 18.697h-.372a.217.217 0 0 1-.216-.216v-.818c0-.12.097-.217.216-.217h.372c.12 0 .217.098.217.217v.818a.217.217 0 0 1-.217.216ZM27.8 17.59h-.372a.217.217 0 0 1-.216-.217v-.818c0-.12.097-.217.216-.217h.372c.119 0 .216.098.216.217v.818a.217.217 0 0 1-.216.216ZM25.54 8.353v.183c0 .477.39.866.866.866h1.006c.476 0 .866-.39.866-.866v-.183c0-.01-.008-.02-.018-.021a8.823 8.823 0 0 0-2.702 0 .022.022 0 0 0-.019.02Z"/><path fill="#FAC586" d="M26.909 8.094c.408 0 .81.027 1.205.08a.144.144 0 0 0 .164-.142V7.79a.143.143 0 0 0-.123-.142 8.82 8.82 0 0 0-2.493 0 .143.143 0 0 0-.123.142v.242c0 .087.078.153.164.142.395-.053.797-.08 1.206-.08ZM26.909 7.426c.408 0 .81.027 1.205.08a.144.144 0 0 0 .164-.142v-.242a.143.143 0 0 0-.123-.142 8.82 8.82 0 0 0-2.493 0 .143.143 0 0 0-.123.142v.242c0 .087.078.154.164.142.395-.053.797-.08 1.206-.08Z"/><path fill="#FFE15A" d="M26.971 5.598v-.252h.163a.063.063 0 1 0 0-.125h-.163v-.158a.063.063 0 1 0-.125 0v.158h-.163a.063.063 0 0 0 0 .125h.163v.252a1.375 1.375 0 0 0-1.28 1.098.12.12 0 0 0 .136.142 9.091 9.091 0 0 1 2.413 0 .12.12 0 0 0 .135-.142 1.374 1.374 0 0 0-1.279-1.098Z"/></g><defs><clipPath id="a"><path fill="#fff" d="M0 0h36v23.995H0z"/></clipPath></defs></svg>