<svg xmlns="http://www.w3.org/2000/svg" width="18" height="12" fill="none" viewBox="0 0 36 24"><g clip-path="url(#a)"><path fill="#FF4B55" d="M0 0h36v23.992H0V-.001Z"/><path fill="#0052B4" d="M0 0h36v15.994H0V0Z"/><path fill="#F0F0F0" d="m25.132 14.44.572-.449-.724.024-.248-.68-.2.696-.728.024.604.408-.2.7.572-.448.6.404-.248-.68ZM11.468 14.031l-.2-.696-.248.68-.724-.024.572.448-.248.68.6-.404.572.448-.2-.7.604-.408-.728-.024ZM21.856 10.844l.724-.076-.632-.364.152-.708-.54.484-.628-.364.296.664-.54.488.72-.076.296.664.152-.712ZM23.66 12.524l.704.172-.468-.556.384-.616-.672.272-.468-.556.052.724-.676.272.708.176.048.728.388-.616ZM12.808 11.964l.052-.724-.468.556-.672-.272.384.616-.468.556.704-.172.388.616.048-.728.708-.176-.676-.272ZM14.772 10.48l.296-.664-.628.364-.54-.484.152.708-.632.364.724.076.152.712.296-.664.72.076-.54-.488ZM19.524 9.44l-.1-.72-.34.645-.716-.128.504.524-.34.64.652-.32.504.524-.1-.72.652-.316-.716-.128ZM16.916 9.365l-.34-.644-.1.72-.716.128.652.316-.1.72.504-.524.652.32-.34-.64.504-.524-.716.128Z"/><path fill="#FFE15A" d="M0 0h36v7.997H0V-.001Z"/></g><defs><clipPath id="a"><path fill="#fff" d="M0 0h36v23.995H0z"/></clipPath></defs></svg>