<svg xmlns="http://www.w3.org/2000/svg" width="18" height="12" fill="none" viewBox="0 0 36 24"><g clip-path="url(#a)"><path fill="#0052B4" d="M36 0H0v23.996h36V0Z"/><path fill="#F0F0F0" d="m15.708 11.998.057-.065-.058.065Z"/><path fill="#F0F0F0" d="M18 0v2.148l-3.176 1.764H18v4.173h-4.156L18 10.394v1.604h-1.876l-5.167-2.87v2.87H7.043V8.583L.896 11.998H0V9.85l3.176-1.765H0V3.912h4.156L0 1.603V0h1.876l5.167 2.87V0h3.913v3.415L17.105 0H18Z"/><path fill="#FF4B55" d="M10.125 0h-2.25v4.874H0v2.25h7.875v4.874h2.25V7.124H18v-2.25h-7.875V0Z"/><path fill="#FF4B55" d="M10.957 8.085 18 11.998v-1.106l-5.052-2.807h-1.992ZM5.052 8.085 0 10.892v1.107l7.043-3.914H5.052ZM12.948 3.913 18 1.106V0l-7.043 3.913h1.991ZM7.043 3.913 0 0v1.106l5.052 2.807h1.991Z"/><path fill="#73AF00" d="M26.636 7h-4.225v7.704c0 1.74 4.225 3.48 4.225 3.48s4.225-1.74 4.225-3.48V7h-4.225Z"/><path fill="#FFE15A" d="M24.961 11.931 24.3 13.08h1.325l-.663-1.148Z"/><path fill="#FAC586" d="M26.367 9.195s-.394-.116-.57 1.261c0 0-.963 1.225-.994 1.297-.03.073-.002.593.101.552.104-.042.29-.283.28-.459-.01-.176.069-.274.147-.362.148-.166.979-.917 1.01-1.082.031-.166.026-1.207.026-1.207Z"/><path fill="#F0F0F0" d="M27.26 12.11c.02-.006.039-.008.06-.015 0 0 .07-1.631.007-1.988-.062-.358.438-.632.438-.632-.179-.621-.787-.541-.787-.541s-.062-.016-.365.008c-.303.023-.427.295-.474.458-.046.163-.186.38-.24.575-.055.194.17.365.17.365.039.753-.21 1.677-.21 1.677s.043.03.12.068a15.03 15.03 0 0 0-.254 4.007s1.486.197 2.294-.098c0 0-.376-2.628-.759-3.884Z"/><path fill="#FAC586" d="M26.315 7.873v.746c0 .082.067.149.149.149h.013c.058 0 .105.047.105.105v.178s.1.261.49-.044V7.878l-.757-.005Z"/><path fill="#A36D56" d="M26.227 7.72c-.087.38.575.057.611.402.579 2.226 1.119-1.72-.61-.402Z"/><path fill="#FAC586" d="M27.765 9.475s.212 1.396.202 1.512c-.01.119-.751 1.263-.71 1.387.042.125.083.29-.145.353-.227.062-.204-.302-.142-.489.062-.186.583-1.179.583-1.293 0-.114-.296-.849-.223-1.139.072-.29.435-.331.435-.331Z"/><path fill="#FFE15A" d="M26.636 19.613a7.135 7.135 0 0 0 5.636-2.761l-1.126-.777a5.77 5.77 0 0 1-9.02 0L21 16.852a7.135 7.135 0 0 0 5.636 2.761ZM24.073 7.612l-.662 1.147h1.325l-.663-1.147ZM24.034 9.043l-.663 1.148h1.326l-.663-1.148ZM24.034 10.483l-.663 1.147h1.326l-.663-1.147ZM24.085 13.256l-.663 1.148h1.326l-.663-1.148ZM24.085 14.696l-.663 1.147h1.326l-.663-1.147ZM29.364 7.73l-.662 1.148h1.325l-.663-1.147ZM29.325 9.162l-.663 1.148h1.326l-.663-1.148ZM29.325 10.602l-.663 1.147h1.326l-.663-1.147ZM29.325 12l-.663 1.148h1.326L29.325 12ZM29.285 13.431l-.662 1.148h1.325l-.663-1.148ZM29.285 14.871l-.662 1.148h1.325l-.663-1.148Z"/></g><defs><clipPath id="a"><path fill="#fff" d="M0 0h36v23.996H0z"/></clipPath></defs></svg>