<svg xmlns="http://www.w3.org/2000/svg" width="18" height="12" fill="none" viewBox="0 0 36 24"><g clip-path="url(#a)"><path fill="#FF4B55" d="M36 0H0v11.996h36V-.001Z"/><path fill="#73AF00" d="M36 11.996H0v11.996h36V11.996Z"/><path fill="#464655" d="m0 0 23.276 11.996L0 23.992V-.001Z"/><path fill="#464655" d="M36 9.849H0v4.293h36V9.85Z"/><path fill="#FFE15A" d="m0 1.704 19.968 10.292L0 22.287V1.704Z"/><path fill="#FFE15A" d="M36 11.364H0v1.263h36v-1.263Z"/><path fill="#464655" d="m0 3.125 17.212 8.87L0 20.867V3.125Z"/><path fill="#FFE15A" d="M6.274 8.641c-1.839-.578-3.227.758-3.544 1.445-.269.583-.768 3.222 1.72 3.643 2.488.42 2.46-1.927 2.46-1.927-.112.374-.314 1.44-2.11 1.44-.673 0-1.64-1-1.458-2.104.171-1.038 1.099-1.57 1.8-1.6.664-.027 2.212.431 2.212 2.316 0 2.118-2.183 2.357-2.183 2.357v1.279c1.9-.187 2.976-1.24 3.26-2.926.284-1.678-.288-3.335-2.157-3.923Z"/><path fill="#FFE15A" d="M4.238 11.782a.32.32 0 0 0-.068.194l-.005.344-.067.117a.089.089 0 1 0 .154.088l.068-.12.275-.1a.325.325 0 0 0 .187-.173c.071-.16.225-.455.475-.762.25.307.404.601.476.762.036.08.103.143.186.173l.275.1.069.12a.088.088 0 1 0 .153-.088l-.067-.117-.005-.344a.32.32 0 0 0-.068-.194 4.926 4.926 0 0 0-.716-.725c.193-.181.41-.354.685-.488a.152.152 0 0 0-.132-.273c-.184.086-.5.255-.856.514a5.348 5.348 0 0 0-.856-.514.152.152 0 0 0-.132.273c.275.134.493.307.685.488a4.915 4.915 0 0 0-.716.725Z"/></g><defs><clipPath id="a"><path fill="#fff" d="M0 0h36v23.995H0z"/></clipPath></defs></svg>