<svg xmlns="http://www.w3.org/2000/svg" width="18" height="12" fill="none" viewBox="0 0 36 24"><g clip-path="url(#a)"><path fill="#FF4B55" d="M0 0h36v23.992H0V-.001Z"/><path fill="#F0F0F0" d="m25.2 11.036-2.88-2.88h5.76l-2.88 2.88Zm-.96.96-2.88-2.88v5.759l2.88-2.88Zm.96.96-2.88 2.878h5.76l-2.88-2.879Zm.96-.96 2.88-2.88v5.759l-2.88-2.88ZM0 0h9.6v9.596H0V0Z"/><path fill="#0052B4" d="M0 0h4.8v9.596H0V0Z"/><path fill="#F0F0F0" fill-rule="evenodd" d="M14.52 0v9.716H0v-.24h14.28V0h.24Z" clip-rule="evenodd"/></g><defs><clipPath id="a"><path fill="#fff" d="M0 0h36v23.995H0z"/></clipPath></defs></svg>