<svg xmlns="http://www.w3.org/2000/svg" width="18" height="12" fill="none" viewBox="0 0 36 24"><g clip-path="url(#a)"><path fill="#FF4B55" d="M0 0h36v23.992H0V-.001Z"/><path fill="#0052B4" d="M0 0h18v11.996H0V-.001Z"/><path fill="#F0F0F0" d="M9.368 9.493 9 8.327l-.368 1.166H7.333l1.05.787L8 11.493l1-.75 1 .75-.383-1.213 1.05-.787H9.368ZM11.018 6.662l-.185-.583-.185.583H10l.525.394-.192.606.5-.375.5.375-.191-.606.525-.394h-.649ZM5.628 4.432l-.295-.934-.295.934H4l.84.63-.307.97.8-.6.8.6-.306-.97.84-.63H5.628ZM13.213 4.463l.787-.59h-.973l-.277-.875-.277.875H11.5l.787.59-.287.91.75-.561.75.561-.287-.91ZM8.507 2.063l-.307.97.8-.6.8.6-.307-.97.84-.63H9.295L9 .499l-.295.934H7.667l.84.63Z"/></g><defs><clipPath id="a"><path fill="#fff" d="M0 0h36v23.995H0z"/></clipPath></defs></svg>