<svg xmlns="http://www.w3.org/2000/svg" width="18" height="12" fill="none" viewBox="0 0 36 24"><g clip-path="url(#a)"><path fill="#F0F0F0" d="M36 0H0v23.989h36V-.001Z"/><path fill="#464655" d="M36 17.992H0v3.748h36v-3.748ZM18.236 13.126v-.934a3.536 3.536 0 0 0 3.3-3.524v-.005h-.475a3.059 3.059 0 0 1-2.825 3.051v-.993a2.091 2.091 0 0 0 1.856-2.076v-.003h-.473a1.618 1.618 0 0 1-1.383 1.601V8.278h-.472v1.965a1.62 1.62 0 0 1-1.383-1.601h-.473a2.09 2.09 0 0 0 1.856 2.079v.993a3.06 3.06 0 0 1-2.825-3.048v-.003h-.476a3.535 3.535 0 0 0 3.3 3.53v.933a4.492 4.492 0 0 1-4.255-4.484h-.472a4.962 4.962 0 0 0 4.728 4.957v1.767l-2.335.52v.324h5.143v-.324l-2.336-.52v-1.767a4.965 4.965 0 0 0 4.729-4.957h-.473a4.49 4.49 0 0 1-4.256 4.484ZM22.965 8.542l.366-.495h-1.206l.367.495h.473Z"/><path fill="#464655" d="m21.528 8.542.367-.495h-1.206l.366.495h.473ZM20.091 8.542l.368-.495h-1.207l.367.495h.472ZM16.381 8.542l.367-.495H15.54l.368.495h.472ZM14.944 8.542l.367-.495h-1.206l.367.495h.473ZM13.508 8.542l.367-.495h-1.206l.366.495h.473ZM18.236 8.18l.367-.496h-1.206l.367.496h.472ZM36 2.248H0v3.749h36V2.248Z"/></g><defs><clipPath id="a"><path fill="#fff" d="M0 0h36v23.995H0z"/></clipPath></defs></svg>