<svg xmlns="http://www.w3.org/2000/svg" width="18" height="12" fill="none" viewBox="0 0 36 24"><g clip-path="url(#a)"><path fill="#FF4B55" d="M36 0H0v23.992h36V0Z"/><path fill="#FFE15A" d="M15.527 7.986 13.73 9.393l.627-2.195.783 2.144-1.894-1.274 2.281-.082ZM12.423 9.674l-.106 2.28-1.254-1.907 2.136.805-2.202.604 1.426-1.782ZM6 2.4l2.116 6.51-5.54-4.024h6.848L3.884 8.91 6 2.4ZM12.47 1.296l-.2 2.273-1.175-1.957 2.1.893-2.224.512 1.499-1.721ZM15.261 3.963l-1.067 2.018-.323-2.26 1.59 1.639-2.25-.391 2.05-1.006Z"/></g><defs><clipPath id="a"><path fill="#fff" d="M0 0h36v23.996H0z"/></clipPath></defs></svg>