<svg xmlns="http://www.w3.org/2000/svg" width="18" height="12" fill="none" viewBox="0 0 36 24"><g clip-path="url(#a)"><path fill="#73AF00" d="M36 0H0v23.992h36V-.001Z"/><path fill="#FF4B55" d="M31.714 8.568h-8.571v15.424h8.571V8.568Z"/><path fill="#FD823D" d="M36 8.568h-8.571v15.424H36V8.568Z"/><path fill="#464655" d="M31.714 8.568H27.43v15.424h4.285V8.568Z"/><path fill="#FD823D" d="M33.994 3.23c-.018-.218-.305.099-.42.123 1.091-1.156-.375-.184-.787-.049 1.392-1.077.019-.38-.63-.152.311-.62-1.494.318-2.053.312-.503-.09-.92.037-1.05.084-.175-.21.036-.338.238-.324.266.275.266-.434-.156-.333-.267-.343-1.17.105-1.16.503 0 .227-2.691-1-2.173-.31-.361-.132-1.861-1.083-1.12-.096-.383-.254-.866-.64-.532.008-.45.004.265.74.957.838-.528.019-.176.273.46.257-.53.04-.188.295.42.278.859.693 3.204.488 2.274 1.827.288.335 2.05.232 1.456-.502.239-.196 1.061-.207 1.554-.752.493-.058.846-.342.87-.373.415.108 2.13-.806 1.426-.858.298-.239.415-.46.426-.481Z"/></g><defs><clipPath id="a"><path fill="#fff" d="M0 0h36v23.995H0z"/></clipPath></defs></svg>