<svg xmlns="http://www.w3.org/2000/svg" width="18" height="12" fill="none" viewBox="0 0 36 24"><g clip-path="url(#a)"><path fill="#73AF00" d="M36 0H0v23.992h36V-.001Z"/><path fill="#FFE15A" d="M36 3.427H0v17.137h36V3.427Z"/><path fill="#FF4B55" d="M36 6.854H0v10.283h36V6.854Z"/><path fill="#464655" d="M36 10.282H0v3.428h36v-3.428Z"/><path fill="#464655" d="M16 11.996 0 23.992V-.001l16 11.997Z"/><path fill="#464655" d="M.952 0H0v23.992h.952l16-11.996-16-11.997Zm-.38 1.142 14.476 10.854L.57 22.849V1.142Z"/><path fill="#F0F0F0" d="M16 11.996 0 23.992V-.001l16 11.997Z"/><path fill="#FF4B55" d="m8.045 11.99 3.17-2.302H7.296l-1.21-3.724-1.21 3.724H.958l3.17 2.302-1.211 3.724 3.169-2.301 3.169 2.301-1.21-3.724Z"/><path fill="#FFE15A" fill-rule="evenodd" d="M5.824 8.327a.54.54 0 0 0-.86.063 1.498 1.498 0 0 0-.29.022.3.3 0 0 0-.226.408l.327-.019a.439.439 0 0 1 .223.37l.037 1.3a.935.935 0 0 0-.093.419c.002.174.016.348.041.521a.56.56 0 0 1-.154.475c-.19.194-.355.41-.492.646a.499.499 0 0 0 .046.568l.373 1.442h2.798l.155-1.224a1.74 1.74 0 0 1 .807-1.258l.11.031a.16.16 0 0 0 .201-.19.161.161 0 0 0-.058-.091L6.122 9.74l-.07-.87a.94.94 0 0 0-.228-.543Z" clip-rule="evenodd"/></g><defs><clipPath id="a"><path fill="#fff" d="M0 0h36v23.995H0z"/></clipPath></defs></svg>