<?xml version="1.0" encoding="UTF-8" standalone="no"?>
<!DOCTYPE svg PUBLIC "-//W3C//DTD SVG 1.1//EN" "http://www.w3.org/Graphics/SVG/1.1/DTD/svg11.dtd">
<svg version="1.1" xmlns="http://www.w3.org/2000/svg" xmlns:xlink="http://www.w3.org/1999/xlink" preserveAspectRatio="xMidYMid meet" viewBox="0 0 38 38" width="38" height="38"><defs><path d="M35.76 20.19C35.35 20.32 32.09 21.39 31.69 21.52C31.28 21.65 31.06 22.09 31.2 22.48C31.33 22.89 31.76 23.1 32.16 22.97C32.31 22.92 33.59 22.5 33.75 22.45C32.57 24.19 29.66 27.85 26.35 27.29C25.75 27.19 25.31 26.82 25.19 26.34C25.01 25.67 25.46 24.87 26.4 24.12C30.04 21.24 32.04 17.41 32.04 13.36C32.02 6.16 26.18 0.3 18.98 0.3C11.78 0.3 5.94 6.16 5.94 13.37C5.94 17.42 7.95 21.25 11.58 24.13C12.52 24.87 12.96 25.68 12.79 26.35C12.67 26.83 12.21 27.2 11.63 27.3C8.33 27.86 5.41 24.2 4.23 22.46C4.39 22.51 5.65 22.93 5.81 22.98C6.22 23.12 6.64 22.9 6.77 22.49C6.9 22.09 6.68 21.66 6.28 21.53C5.87 21.4 2.62 20.32 2.21 20.19C1.98 20.11 1.74 20.14 1.55 20.29C1.35 20.42 1.23 20.64 1.22 20.88C1.2 21.32 1.02 24.86 1 25.3C0.98 25.73 1.31 26.08 1.72 26.1C1.73 26.1 1.76 26.1 1.76 26.1C2.17 26.1 2.51 25.78 2.53 25.37C2.54 25.19 2.61 23.74 2.62 23.56C3.91 25.46 7.01 29.3 10.94 29.3C11.27 29.3 11.6 29.28 11.95 29.21C13.33 28.98 14.37 28.07 14.7 26.81C15.07 25.36 14.39 23.81 12.81 22.57C10.98 21.12 7.92 17.99 7.92 13.35C7.92 7.23 12.89 2.24 19 2.24C25.11 2.24 30.08 7.23 30.08 13.35C30.08 17.99 27.02 21.12 25.19 22.57C23.61 23.81 22.92 25.37 23.3 26.81C23.61 28.05 24.67 28.97 26.05 29.21C30.45 29.96 33.98 25.63 35.38 23.56C35.39 23.74 35.46 25.18 35.47 25.36C35.49 25.76 35.83 26.09 36.24 26.09C36.24 26.09 36.27 26.09 36.28 26.09C36.7 26.07 37.02 25.71 37 25.29C36.98 24.85 36.8 21.31 36.78 20.86C36.74 20.65 36.61 20.42 36.42 20.29C36.22 20.15 35.97 20.11 35.76 20.19ZM16 17.8C16 16.97 15.33 16.3 14.5 16.3C13.67 16.3 13 16.97 13 17.8C13 18.63 13.67 19.3 14.5 19.3C15.33 19.3 16 18.63 16 17.8ZM25 17.8C25 16.97 24.33 16.3 23.5 16.3C22.67 16.3 22 16.97 22 17.8C22 18.63 22.67 19.3 23.5 19.3C24.33 19.3 25 18.63 25 17.8ZM26.15 33.19C26.29 33.59 27.34 36.72 27.47 37.11C27.53 37.32 27.5 37.56 27.37 37.75C27.25 37.94 27.04 38.06 26.81 38.07C26.53 38.08 25.12 38.16 22.59 38.3C22.56 38.3 22.55 38.3 22.55 38.3C22.16 38.3 21.84 37.99 21.81 37.61C21.79 37.19 22.1 36.85 22.5 36.83C22.68 36.82 24.06 36.74 24.23 36.73C21.65 35.16 19.95 33.26 19 30.81C18.05 33.26 16.35 35.16 13.76 36.73C13.94 36.74 15.33 36.82 15.5 36.83C15.9 36.85 16.21 37.19 16.19 37.61C16.17 37.99 15.85 38.3 15.46 38.3C15.46 38.3 15.45 38.3 15.42 38.3C12.89 38.16 11.48 38.08 11.2 38.07C10.97 38.06 10.77 37.94 10.63 37.75C10.5 37.56 10.47 37.33 10.54 37.11C10.67 36.72 11.69 33.58 11.82 33.18C11.95 32.81 12.35 32.59 12.74 32.72C13.11 32.85 13.32 33.26 13.2 33.65C13.14 33.83 12.66 35.28 12.6 35.46C16.95 32.93 17.85 29.81 18.14 27.06C18.2 26.63 18.55 26.3 18.98 26.3C19.41 26.3 19.77 26.63 19.81 27.06C20.1 29.82 21 32.94 25.37 35.48C25.31 35.3 24.84 33.84 24.78 33.66C24.64 33.28 24.85 32.86 25.24 32.73C25.61 32.59 26.03 32.81 26.15 33.19Z" id="cDEo3EUV"></path><path d="M59.71 26.03C59.9 26.74 60.41 27.13 61.14 27.13C61.88 27.13 62.37 26.74 62.57 26.03C63.8 21.68 65.1 17.32 66.35 12.96C66.39 12.81 66.42 12.66 66.42 12.52C66.42 11.93 65.89 11.47 65.21 11.47C64.63 11.47 64.24 11.75 64.08 12.33C63.88 13.03 62.88 16.54 61.07 22.86C59.25 16.7 58.24 13.27 58.03 12.59C57.84 11.89 57.35 11.49 56.6 11.49C55.86 11.49 55.37 11.89 55.17 12.59C54.97 13.27 53.96 16.7 52.14 22.86C50.33 16.54 49.32 13.03 49.12 12.33C48.97 11.75 48.57 11.47 48 11.47C47.32 11.47 46.79 11.93 46.79 12.52C46.79 12.66 46.81 12.81 46.86 12.96C48.11 17.32 49.41 21.68 50.64 26.03C50.84 26.74 51.32 27.13 52.07 27.13C52.8 27.13 53.3 26.74 53.5 26.03C53.71 25.33 54.74 21.83 56.6 15.52C58.47 21.83 59.5 25.33 59.71 26.03ZM74.31 21.41C77.44 21.41 79.59 19.56 79.59 16.51C79.59 13.45 77.44 11.6 74.31 11.6C73.89 11.6 70.55 11.6 70.13 11.6C69.47 11.6 68.94 12.02 68.94 12.68C68.94 14.02 68.94 24.72 68.94 26.05C68.94 26.71 69.47 27.13 70.13 27.13C70.79 27.13 71.32 26.71 71.32 26.05C71.32 25.74 71.32 24.2 71.32 21.41C73.11 21.41 74.11 21.41 74.31 21.41ZM74.14 13.71C75.96 13.71 77.17 14.79 77.17 16.51C77.17 18.22 75.96 19.3 74.14 19.3C73.95 19.3 73.01 19.3 71.32 19.3L71.32 13.71C73.01 13.71 73.95 13.71 74.14 13.71ZM97.75 27.13C98.41 27.13 98.98 26.69 98.98 26.08C98.98 25.94 98.96 25.79 98.89 25.64C98.4 24.33 94.51 13.87 94.03 12.57C93.79 11.89 93.35 11.47 92.6 11.47C91.85 11.47 91.41 11.89 91.17 12.57C90.68 13.87 86.79 24.33 86.31 25.64C86.24 25.79 86.22 25.94 86.22 26.08C86.22 26.69 86.79 27.13 87.45 27.13C88.02 27.13 88.37 26.82 88.57 26.27C88.64 26.08 88.99 25.09 89.63 23.3L95.55 23.3L96.62 26.27C96.99 26.85 97.36 27.13 97.75 27.13ZM94.8 21.24L90.38 21.24L92.6 15.1L94.8 21.24ZM102.54 11.47C101.88 11.47 101.35 11.89 101.35 12.55C101.35 13.88 101.35 24.58 101.35 25.92C101.35 26.58 101.88 27 102.54 27C103.3 27 109.43 27 110.19 27C110.79 27 111.16 26.54 111.16 25.94C111.16 25.35 110.79 24.89 110.19 24.89C109.76 24.89 107.6 24.89 103.72 24.89L103.72 12.55C103.37 11.83 102.98 11.47 102.54 11.47ZM114.15 11.47C113.49 11.47 112.97 11.89 112.97 12.55C112.97 13.88 112.97 24.58 112.97 25.92C112.97 26.58 113.49 27 114.15 27C114.92 27 121.04 27 121.81 27C122.4 27 122.78 26.54 122.78 25.94C122.78 25.35 122.4 24.89 121.81 24.89C121.38 24.89 119.22 24.89 115.34 24.89L115.34 12.55C114.99 11.83 114.59 11.47 114.15 11.47ZM131.29 11.47C130.63 11.47 130.1 11.89 130.1 12.55C130.1 13.9 130.1 24.7 130.1 26.05C130.1 26.71 130.63 27.13 131.29 27.13C131.95 27.13 132.48 26.71 132.48 26.05C132.48 25.15 132.48 20.65 132.48 12.55C132.13 11.83 131.73 11.47 131.29 11.47ZM145.48 23.94C145.75 23.43 147.1 20.84 149.55 16.2C149.88 22.02 150.06 25.25 150.1 25.9C150.14 26.54 150.54 27 151.29 27C151.92 27 152.47 26.65 152.47 25.99C152.47 25.5 152.43 24.87 151.64 12.66C151.59 11.97 151.18 11.47 150.41 11.47C149.66 11.47 149.28 11.93 148.89 12.7C148.58 13.29 147.02 16.26 144.22 21.61C141.42 16.26 139.87 13.29 139.56 12.7C139.16 11.93 138.79 11.47 138.04 11.47C137.27 11.47 136.85 11.97 136.81 12.66C136.02 24.87 135.97 25.5 135.97 25.99C135.97 26.65 136.52 27 137.16 27C137.91 27 138.31 26.54 138.35 25.9C138.39 25.25 138.57 22.02 138.9 16.2C141.34 20.84 142.7 23.43 142.97 23.94C143.23 24.45 143.59 24.76 144.22 24.76C144.86 24.76 145.21 24.45 145.48 23.94ZM161.24 21.41C164.36 21.41 166.52 19.56 166.52 16.51C166.52 13.45 164.36 11.6 161.24 11.6C160.82 11.6 157.48 11.6 157.06 11.6C156.4 11.6 155.87 12.02 155.87 12.68C155.87 14.02 155.87 24.72 155.87 26.05C155.87 26.71 156.4 27.13 157.06 27.13C157.72 27.13 158.25 26.71 158.25 26.05C158.25 25.74 158.25 24.2 158.25 21.41C160.04 21.41 161.04 21.41 161.24 21.41ZM161.06 13.71C162.89 13.71 164.1 14.79 164.1 16.51C164.1 18.22 162.89 19.3 161.06 19.3C160.88 19.3 159.94 19.3 158.25 19.3L158.25 13.71C159.94 13.71 160.88 13.71 161.06 13.71ZM175.13 11.34C170.66 11.34 168.42 14.79 168.42 19.3C168.42 23.81 170.66 27.26 175.13 27.26C179.59 27.26 181.84 23.81 181.84 19.3C181.84 14.79 179.59 11.34 175.13 11.34ZM175.13 13.49C178.03 13.49 179.42 16.02 179.42 19.3C179.42 22.58 178.03 25.11 175.13 25.11C172.22 25.11 170.84 22.58 170.84 19.3C170.84 16.02 172.22 13.49 175.13 13.49ZM195.29 16.31C195.29 13.27 193.07 11.6 189.97 11.6C189.58 11.6 186.42 11.6 186.03 11.6C185.37 11.6 184.84 12.02 184.84 12.68C184.84 14.02 184.84 24.72 184.84 26.05C184.84 26.71 185.37 27.13 186.03 27.13C186.69 27.13 187.22 26.71 187.22 26.05C187.22 25.72 187.22 24.04 187.22 21.02L189.57 21.02C191.57 24.29 192.67 26.11 192.9 26.47C193.2 26.98 193.47 27.13 193.89 27.13C194.52 27.13 195.12 26.63 195.12 26.03C195.12 25.83 195.01 25.57 194.9 25.39C194.7 25.08 193.74 23.52 192.02 20.71C194.2 19.33 195.29 17.86 195.29 16.31ZM189.75 18.9C189.58 18.9 188.74 18.9 187.22 18.9L187.22 13.71C188.74 13.71 189.58 13.71 189.75 13.71C191.6 13.71 192.85 14.57 192.85 16.31C192.85 18.05 191.6 18.9 189.75 18.9ZM202.19 27.13C202.85 27.13 203.38 26.71 203.38 26.05C203.38 25.23 203.38 21.12 203.38 13.71C205.6 13.71 206.83 13.71 207.07 13.71C207.67 13.71 208.04 13.25 208.04 12.66C208.04 12.06 207.67 11.6 207.07 11.6C206.1 11.6 198.28 11.6 197.31 11.6C196.71 11.6 196.34 12.06 196.34 12.66C196.34 13.25 196.71 13.71 197.31 13.71C197.55 13.71 198.78 13.71 201 13.71L201 26.05C201.35 26.77 201.75 27.13 202.19 27.13Z" id="bdrFXV3V5"></path></defs><g><g><g><use xlink:href="#cDEo3EUV" opacity="1" fill="#02b3b6" fill-opacity="1"></use><g><use xlink:href="#cDEo3EUV" opacity="1" fill-opacity="0" stroke="#000000" stroke-width="1" stroke-opacity="0"></use></g></g><g><use xlink:href="#bdrFXV3V5" opacity="1" fill="#02182b" fill-opacity="1"></use><g><use xlink:href="#bdrFXV3V5" opacity="1" fill-opacity="0" stroke="#000000" stroke-width="1" stroke-opacity="0"></use></g></g></g></g></svg>