<?xml version="1.0" encoding="utf-8"?>
<!-- Generator: Adobe Illustrator 18.0.0, SVG Export Plug-In . SVG Version: 6.00 Build 0)  -->
<!DOCTYPE svg PUBLIC "-//W3C//DTD SVG 1.1//EN" "http://www.w3.org/Graphics/SVG/1.1/DTD/svg11.dtd">
<svg version="1.1" id="Layer_1" xmlns="http://www.w3.org/2000/svg" xmlns:xlink="http://www.w3.org/1999/xlink" x="0px" y="0px"
	 viewBox="0 0 1125.1 503.6" enable-background="new 0 0 1125.1 503.6" xml:space="preserve">
<g>
	<g>
		<path fill="#212221" d="M503.9,274.6c0,14.1-4.9,24.8-14.7,32.2c-9.8,7.4-24.5,11.1-44,11.1c-10,0-18.5-0.7-25.6-2
			c-7.1-1.4-13.6-3.3-19.8-6v-31c7,3.3,14.8,6,23.5,8.2s16.4,3.3,23.1,3.3c13.6,0,20.4-3.9,20.4-11.8c0-3-0.9-5.3-2.7-7.2
			c-1.8-1.8-4.9-3.9-9.3-6.3c-4.4-2.3-10.3-5.1-17.7-8.2c-10.6-4.4-18.3-8.5-23.3-12.3c-5-3.8-8.6-8.1-10.8-13
			c-2.3-4.9-3.4-10.9-3.4-18c0-12.2,4.7-21.7,14.2-28.3c9.5-6.7,22.9-10,40.3-10c16.6,0,32.7,3.6,48.3,10.8l-11.3,27.1
			c-6.9-3-13.3-5.4-19.3-7.3c-6-1.9-12.1-2.8-18.3-2.8c-11.1,0-16.6,3-16.6,9c0,3.4,1.8,6.3,5.3,8.7c3.6,2.5,11.4,6.1,23.4,10.9
			c10.7,4.3,18.6,8.4,23.6,12.2c5,3.8,8.7,8.1,11.1,13C502.7,262,503.9,267.8,503.9,274.6z"/>
		<path fill="#212221" d="M651.8,246.5c0,22.4-5.9,39.9-17.7,52.5c-11.8,12.6-28.2,18.9-49.3,18.9c-13.2,0-24.8-2.9-34.9-8.7
			c-10.1-5.8-17.8-14.1-23.2-24.9c-5.4-10.8-8.1-23.4-8.1-37.9c0-22.5,5.9-39.9,17.6-52.4c11.7-12.5,28.2-18.7,49.4-18.7
			c13.2,0,24.8,2.9,34.9,8.6c10.1,5.7,17.8,14,23.2,24.7C649.1,219.5,651.8,232.1,651.8,246.5z M556.7,246.5
			c0,13.6,2.2,23.9,6.7,30.9c4.5,7,11.7,10.5,21.8,10.5c10,0,17.2-3.5,21.6-10.4c4.4-6.9,6.6-17.2,6.6-30.9
			c0-13.6-2.2-23.8-6.6-30.6c-4.4-6.8-11.7-10.2-21.8-10.2c-10,0-17.2,3.4-21.6,10.1S556.7,232.8,556.7,246.5z"/>
		<path d="M752.5,206.1H720v109.3h-37.5V206.1h-20.7v-18.1l20.7-10.1v-10.1c0-15.7,3.9-27.1,11.6-34.3c7.7-7.2,20-10.8,37-10.8
			c13,0,24.5,1.9,34.6,5.8l-9.6,27.5c-7.5-2.4-14.5-3.6-20.9-3.6c-5.3,0-9.2,1.6-11.6,4.7c-2.4,3.2-3.6,7.2-3.6,12.1v8.6h32.5V206.1
			z M811.5,315.5H774V124.1h37.5V315.5z"/>
		<path d="M827.3,178h41.1l25.9,77.3c2.2,6.7,3.7,14.7,4.5,23.9h0.7c0.9-8.4,2.7-16.4,5.3-23.9l25.5-77.3h40.2L912.3,333
			c-5.3,14.3-12.9,25.1-22.8,32.2c-9.9,7.1-21.4,10.7-34.6,10.7c-6.5,0-12.8-0.7-19.1-2.1v-29.8c4.5,1.1,9.4,1.6,14.8,1.6
			c6.6,0,12.4-2,17.4-6.1c5-4.1,8.8-10.2,11.6-18.4l2.2-6.8L827.3,178z"/>
		<path d="M975.3,178h41.1l25.9,77.3c2.2,6.7,3.7,14.7,4.5,23.9h0.7c0.9-8.4,2.7-16.4,5.3-23.9l25.5-77.3h40.2L1060.4,333
			c-5.3,14.3-12.9,25.1-22.8,32.2c-9.9,7.1-21.4,10.7-34.6,10.7c-6.5,0-12.8-0.7-19.1-2.1v-29.8c4.5,1.1,9.4,1.6,14.8,1.6
			c6.6,0,12.4-2,17.4-6.1c5-4.1,8.8-10.2,11.6-18.4l2.2-6.8L975.3,178z"/>
	</g>
	<g>
		<g>
			<linearGradient id="SVGID_1_" gradientUnits="userSpaceOnUse" x1="81.0017" y1="427.3257" x2="241.8481" y2="334.4609">
				<stop  offset="0" style="stop-color:#7ABC57"/>
				<stop  offset="0.6" style="stop-color:#7ABC57"/>
				<stop  offset="0.8285" style="stop-color:#5CAF57"/>
				<stop  offset="1" style="stop-color:#2DA657"/>
			</linearGradient>
			<path fill="url(#SVGID_1_)" d="M196.5,266.3c0.6,0.9,1.2,1.9,1.7,2.8c28.5,55.3-175.2,119.2-72.9,227l0,0h0l104.6-105.9
				C243.1,365.1,257.9,340,196.5,266.3z"/>
			<linearGradient id="SVGID_2_" gradientUnits="userSpaceOnUse" x1="335.9252" y1="340.5559" x2="94.3999" y2="201.1112">
				<stop  offset="0" style="stop-color:#82C241"/>
				<stop  offset="0.6187" style="stop-color:#409A3C"/>
				<stop  offset="1" style="stop-color:#509074"/>
			</linearGradient>
			<path fill="url(#SVGID_2_)" d="M220.1,163.1c0,0-5.9-6.4-12.9,0.6c0,0-22.5,24.1-22.6,24.1l-25,24.5c-2.1,2.1-3.2,4.9-2.8,7.9
				c0.4,3.2,2.5,5.4,4.6,7.6c5.6,5.9,11.2,11.8,16.6,17.8c3.1,3.4,6.1,6.7,9.2,10.1c2.8,3.1,6,6.1,8.5,9.5c0.3,0.4,0.6,0.8,0.8,1.2
				c61.4,73.7,46.5,98.8,33.2,123.9c0,0,37.2-37.8,37.2-37.8l18.5-19.6C340.3,273.6,263,204.7,220.1,163.1z"/>
			<linearGradient id="SVGID_3_" gradientUnits="userSpaceOnUse" x1="335.9252" y1="340.5559" x2="94.3999" y2="201.1112">
				<stop  offset="0" style="stop-color:#FFFFFF;stop-opacity:0.2"/>
				<stop  offset="0.3742" style="stop-color:#309A3C"/>
				<stop  offset="0.5015" style="stop-color:#30523C"/>
			</linearGradient>
			<path opacity="0.25" fill="url(#SVGID_3_)" d="M220.1,163.1c0,0-5.9-6.4-12.9,0.6c0,0-22.5,24.1-22.6,24.1l-25,24.5
				c-2.1,2.1-3.2,4.9-2.8,7.9c0.4,3.2,2.5,5.4,4.6,7.6c5.6,5.9,11.2,11.8,16.6,17.8c3.1,3.4,6.1,6.7,9.2,10.1c2.8,3.1,6,6.1,8.5,9.5
				c0.3,0.4,0.6,0.8,0.8,1.2c61.4,73.7,46.5,98.8,33.2,123.9c0,0,37.2-37.8,37.2-37.8l18.5-19.6C340.3,273.6,263,204.7,220.1,163.1z
				"/>
		</g>
		<g>
			
				<linearGradient id="SVGID_4_" gradientUnits="userSpaceOnUse" x1="-123.1832" y1="1380.6824" x2="37.5825" y2="1287.8643" gradientTransform="matrix(-1 0 0 -1 106.4607 1451.8229)">
				<stop  offset="0" style="stop-color:#FACC24"/>
				<stop  offset="0.5216" style="stop-color:#F1B61B"/>
				<stop  offset="1" style="stop-color:#F98726"/>
			</linearGradient>
			<path fill="url(#SVGID_4_)" d="M114.3,232.3c-0.6-0.9-1.3-2-1.8-3C84,174.1,287.7,110.1,185.3,2.2l0,0l0.1,0.1l-104.5,106
				C67.7,133.4,52.9,158.6,114.3,232.3z"/>
			
				<linearGradient id="SVGID_5_" gradientUnits="userSpaceOnUse" x1="131.559" y1="1293.7916" x2="-109.9663" y2="1154.3469" gradientTransform="matrix(-1 0 0 -1 106.4607 1451.8229)">
				<stop  offset="0" style="stop-color:#F1881B"/>
				<stop  offset="0.5813" style="stop-color:#F1881B"/>
				<stop  offset="1" style="stop-color:#FA2524"/>
			</linearGradient>
			<path fill="url(#SVGID_5_)" d="M90.7,335.5c0,0,5.9,6.4,12.9-0.6c0,0,22.5-24.1,22.6-24.1c0,0,25-24.5,25-24.5
				c2.1-2.1,3.2-4.9,2.8-7.9c-0.4-3.2-2.5-5.4-4.6-7.6c-5.6-5.9-11.2-11.8-16.6-17.8c-3.1-3.4-6.1-6.7-9.2-10.1
				c-2.8-3.1-6-6.1-8.5-9.5c-0.3-0.4-0.6-0.8-0.8-1.2c-61.4-73.7-46.5-98.8-33.2-123.9c0,0-37.2,37.8-37.2,37.8l-18.5,19.6
				C-29.5,225,47.9,293.9,90.7,335.5z"/>
			
				<linearGradient id="SVGID_6_" gradientUnits="userSpaceOnUse" x1="131.559" y1="1293.7916" x2="-109.9663" y2="1154.3469" gradientTransform="matrix(-1 0 0 -1 106.4607 1451.8229)">
				<stop  offset="0" style="stop-color:#FFFFFF;stop-opacity:0.2"/>
				<stop  offset="0.2369" style="stop-color:#F1881B"/>
				<stop  offset="0.4276" style="stop-color:#F1731B"/>
			</linearGradient>
			<path opacity="0.4" fill="url(#SVGID_6_)" d="M90.7,335.5c0,0,5.9,6.4,12.9-0.6c0,0,22.5-24.1,22.6-24.1c0,0,25-24.5,25-24.5
				c2.1-2.1,3.2-4.9,2.8-7.9c-0.4-3.2-2.5-5.4-4.6-7.6c-5.6-5.9-11.2-11.8-16.6-17.8c-3.1-3.4-6.1-6.7-9.2-10.1
				c-2.8-3.1-6-6.1-8.5-9.5c-0.3-0.4-0.6-0.8-0.8-1.2c-61.4-73.7-46.5-98.8-33.2-123.9c0,0-37.2,37.8-37.2,37.8l-18.5,19.6
				C-29.5,225,47.9,293.9,90.7,335.5z"/>
		</g>
	</g>
</g>
</svg>
