<svg xmlns="http://www.w3.org/2000/svg" width="799.954" height="77.595" viewBox="0 0 1866 181">
  <defs>
    <style>
      .cls-1 {
        fill: #777;
        fill-rule: evenodd;
      }
    </style>
  </defs>
  <path id="WP_ALL_EXPORT" data-name="WP ALL EXPORT" class="cls-1" d="M111.5,47.5L146.75,167c2.25,8,8,12.5,16.25,12.5,8.5,0,14-4.5,16.25-12.5,14-49.5,28.75-99,43-148.5a18.673,18.673,0,0,0,.75-5c0-6.75-6-12-13.75-12-6.5,0-11,3.25-12.75,9.75L162.25,131,127.75,14.25c-2.25-8-7.75-12.5-16.25-12.5s-14,4.5-16.25,12.5L60.75,131,26.5,11.25C24.75,4.75,20.25,1.5,13.75,1.5,6,1.5,0,6.75,0,13.5a18.673,18.673,0,0,0,.75,5c14.25,49.5,29,99,43,148.5C46,175,51.5,179.5,60,179.5c8.25,0,14-4.5,16.25-12.5Zm169.747,67h34c35.5,0,60-21,60-55.75S350.747,3,315.247,3h-47.5c-7.5,0-13.5,4.75-13.5,12.25v152c0,7.5,6,12.25,13.5,12.25s13.5-4.75,13.5-12.25V114.5Zm0-87.5h32c20.75,0,34.5,12.25,34.5,31.75S334,90.5,313.247,90.5h-32V27Zm292.5,142.75C576,176,580,179.5,586.5,179.5c7.5,0,14-5,14-12a12.714,12.714,0,0,0-1-5L544.245,14C541.5,6.25,536.5,1.5,528,1.5S514.5,6.25,511.745,14L456.5,162.5a12.714,12.714,0,0,0-1,5c0,7,6.5,12,14,12,6.5,0,10.5-3.5,12.75-9.75l12-33.75H561.5ZM528,42.75l25,69.75h-50.25Zm129-29c0-7.5-6-12.25-13.5-12.25s-13.5,4.75-13.5,12.25v152c0,7.5,6,12.25,13.5,12.25h87c6.75,0,11-5.25,11-12s-4.25-12-11-12h-73.5V13.75Zm134.5,0c0-7.5-6-12.25-13.5-12.25s-13.5,4.75-13.5,12.25v152c0,7.5,6,12.25,13.5,12.25h87c6.75,0,11-5.25,11-12s-4.25-12-11-12h-73.5V13.75ZM1062.99,178c6.75,0,11-5.25,11-12s-4.25-12-11-12h-73.5V100.75h63.252c6.75,0,11-5.25,11-12s-4.25-12-11-12H989.488V27h72.252c6.75,0,11-5.25,11-12s-4.25-12-11-12H975.988c-7.5,0-13.5,4.75-13.5,12.25v150.5c0,7.5,6,12.25,13.5,12.25h87Zm102-68.75,47.25,63c3.25,4.5,6.5,7,11.5,7,7.5,0,13.5-5.5,13.5-12.25a12.1,12.1,0,0,0-2.25-6.75L1181.24,88l50-66.75a12.507,12.507,0,0,0,2.5-6.75c0-7.25-6.5-12.75-13.75-12.75-4.5,0-7.25,1.75-10,5.5l-45,60-45-60c-2.75-3.75-5.5-5.5-10-5.5-7.25,0-13.75,5.5-13.75,12.75a12.507,12.507,0,0,0,2.5,6.75l50,66.75-53.75,72.25a12.1,12.1,0,0,0-2.25,6.75c0,6.75,6,12.25,13.5,12.25,5,0,8.25-2.5,11.5-7Zm127.74,5.25h34c35.5,0,60-21,60-55.75S1362.23,3,1326.73,3h-47.5c-7.5,0-13.5,4.75-13.5,12.25v152c0,7.5,6,12.25,13.5,12.25s13.5-4.75,13.5-12.25V114.5Zm0-87.5h32c20.75,0,34.5,12.25,34.5,31.75s-13.75,31.75-34.5,31.75h-32V27Zm270.5,63.5c0-51.25-25.5-90.5-76.25-90.5s-76.25,39.25-76.25,90.5,25.5,90.5,76.25,90.5S1563.23,141.75,1563.23,90.5Zm-125,0c0-37.25,15.75-66,48.75-66s48.75,28.75,48.75,66-15.75,66-48.75,66S1438.23,127.75,1438.23,90.5Zm243.25,16c22.75-6.75,37.25-23.5,37.25-50,0-34.5-25.25-53.5-60.5-53.5h-44.75c-7.5,0-13.5,4.75-13.5,12.25v152c0,7.5,6,12.25,13.5,12.25s13.5-4.75,13.5-12.25V110h26.75l37.75,62c3.5,5.75,6.5,7.5,11.25,7.5,7.25,0,14-5.75,14-12.5a15.752,15.752,0,0,0-2.5-7.25Zm9.5-50c0,19.75-14.25,29.5-35.25,29.5h-28.75V27h28.75C1676.73,27,1690.98,36.75,1690.98,56.5Zm95,110.75c0,7.5,6,12.25,13.5,12.25s13.5-4.75,13.5-12.25V27h42c6.75,0,11-5.25,11-12s-4.25-12-11-12h-111c-6.75,0-11,5.25-11,12s4.25,12,11,12h42V167.25Z"/>
</svg>
